<svg width="81" height="80" viewBox="0 0 81 80" fill="none" xmlns="http://www.w3.org/2000/svg">
<g filter="url(#filter0_d_5443_13449)">
<circle cx="36.5" cy="36" r="25" transform="rotate(180 36.5 36)" fill="white"/>
</g>
<path d="M36.68 30H35.32L31 40H33L33.73 38H38.27L39 40H41L36.68 30ZM34.3 36.5L36 32L37.7 36.5H34.3ZM41.4 44.4L43 46H38V41L40 43C42.39 41.61 44 38.95 44 36C44 31.59 40.41 28 36 28C31.59 28 28 31.59 28 36C28 38.95 29.61 41.53 32 42.92V45.16C28.47 43.61 26 40.1 26 36C26 30.5 30.5 26 36 26C41.5 26 46 30.5 46 36C46 39.53 44.17 42.62 41.4 44.4Z" fill="#1F2551"/>
<defs>
<filter id="filter0_d_5443_13449" x="0.5" y="0" width="80" height="80" filterUnits="userSpaceOnUse" color-interpolation-filters="sRGB">
<feFlood flood-opacity="0" result="BackgroundImageFix"/>
<feColorMatrix in="SourceAlpha" type="matrix" values="0 0 0 0 0 0 0 0 0 0 0 0 0 0 0 0 0 0 127 0" result="hardAlpha"/>
<feOffset dx="4" dy="4"/>
<feGaussianBlur stdDeviation="7.5"/>
<feComposite in2="hardAlpha" operator="out"/>
<feColorMatrix type="matrix" values="0 0 0 0 0.254902 0 0 0 0 0.360784 0 0 0 0 0.670588 0 0 0 0.15 0"/>
<feBlend mode="normal" in2="BackgroundImageFix" result="effect1_dropShadow_5443_13449"/>
<feBlend mode="normal" in="SourceGraphic" in2="effect1_dropShadow_5443_13449" result="shape"/>
</filter>
</defs>
</svg>
