<svg width="39" height="38" viewBox="0 0 39 38" fill="none" xmlns="http://www.w3.org/2000/svg">
<circle cx="19" cy="19" r="19" fill="white"/>
<path d="M24.6272 20.8035C25.8272 20.8035 26.7992 21.7755 26.7992 22.9755V23.8023H26.7932C26.7524 24.7383 26.4956 25.9107 25.4456 26.8683C24.2984 27.9159 22.3172 28.5999 18.9992 28.5999C15.68 28.5999 13.7 27.9159 12.5528 26.8683C11.5028 25.9107 11.246 24.7371 11.2052 23.8023H11.1992V22.9743C11.1992 21.7755 12.1712 20.8035 13.3712 20.8035H24.6272ZM14.7992 10.5999C14.3218 10.5999 13.864 10.7896 13.5264 11.1271C13.1889 11.4647 12.9992 11.9225 12.9992 12.3999V17.1999C12.9992 17.6773 13.1889 18.1352 13.5264 18.4727C13.864 18.8103 14.3218 18.9999 14.7992 18.9999H23.1992C23.6766 18.9999 24.1344 18.8103 24.472 18.4727C24.8096 18.1352 24.9992 17.6773 24.9992 17.1999V12.3999C24.9992 11.9225 24.8096 11.4647 24.472 11.1271C24.1344 10.7896 23.6766 10.5999 23.1992 10.5999H19.5992V9.99994C19.6026 9.92024 19.5894 9.8407 19.5605 9.76637C19.5315 9.69204 19.4874 9.62453 19.431 9.56812C19.3746 9.51171 19.3071 9.46764 19.2328 9.43869C19.1585 9.40974 19.0789 9.39654 18.9992 9.39994C18.668 9.39994 18.3992 9.67594 18.3992 9.99994V10.5999H14.7992ZM15.3992 14.7999C15.3992 14.4817 15.5256 14.1765 15.7507 13.9514C15.9757 13.7264 16.281 13.5999 16.5992 13.5999C16.9175 13.5999 17.2227 13.7264 17.4477 13.9514C17.6728 14.1765 17.7992 14.4817 17.7992 14.7999C17.7992 15.1182 17.6728 15.4234 17.4477 15.6485C17.2227 15.8735 16.9175 15.9999 16.5992 15.9999C16.281 15.9999 15.9757 15.8735 15.7507 15.6485C15.5256 15.4234 15.3992 15.1182 15.3992 14.7999ZM20.1992 14.7999C20.1992 14.4817 20.3256 14.1765 20.5507 13.9514C20.7757 13.7264 21.081 13.5999 21.3992 13.5999C21.7175 13.5999 22.0227 13.7264 22.2477 13.9514C22.4728 14.1765 22.5992 14.4817 22.5992 14.7999C22.5992 15.1182 22.4728 15.4234 22.2477 15.6485C22.0227 15.8735 21.7175 15.9999 21.3992 15.9999C21.081 15.9999 20.7757 15.8735 20.5507 15.6485C20.3256 15.4234 20.1992 15.1182 20.1992 14.7999Z" fill="#1F2551"/>
</svg>
