<svg width="68" height="68" viewBox="0 0 68 68" fill="none" xmlns="http://www.w3.org/2000/svg">
<g filter="url(#filter0_d_2947_123669)">
<circle cx="34" cy="30" r="19" fill="white"/>
</g>
<path d="M39.628 31.8036C40.828 31.8036 41.8 32.7756 41.8 33.9756V34.8024H41.794C41.7532 35.7384 41.4964 36.9108 40.4464 37.8684C39.2992 38.916 37.318 39.6 34 39.6C30.6808 39.6 28.7008 38.916 27.5536 37.8684C26.5036 36.9108 26.2468 35.7372 26.206 34.8024H26.2V33.9744C26.2 32.7756 27.172 31.8036 28.372 31.8036H39.628ZM29.8 21.6C29.3226 21.6 28.8647 21.7896 28.5272 22.1272C28.1896 22.4648 28 22.9226 28 23.4V28.2C28 28.6774 28.1896 29.1352 28.5272 29.4728C28.8647 29.8104 29.3226 30 29.8 30H38.2C38.6773 30 39.1352 29.8104 39.4727 29.4728C39.8103 29.1352 40 28.6774 40 28.2V23.4C40 22.9226 39.8103 22.4648 39.4727 22.1272C39.1352 21.7896 38.6773 21.6 38.2 21.6H34.6V21C34.6033 20.9203 34.5902 20.8408 34.5612 20.7664C34.5322 20.6921 34.4882 20.6246 34.4318 20.5682C34.3754 20.5118 34.3079 20.4677 34.2335 20.4387C34.1592 20.4098 34.0797 20.3966 34 20.4C33.6688 20.4 33.4 20.676 33.4 21V21.6H29.8ZM30.4 25.8C30.4 25.4817 30.5264 25.1765 30.7514 24.9515C30.9765 24.7264 31.2817 24.6 31.6 24.6C31.9182 24.6 32.2234 24.7264 32.4485 24.9515C32.6735 25.1765 32.8 25.4817 32.8 25.8C32.8 26.1183 32.6735 26.4235 32.4485 26.6485C32.2234 26.8736 31.9182 27 31.6 27C31.2817 27 30.9765 26.8736 30.7514 26.6485C30.5264 26.4235 30.4 26.1183 30.4 25.8ZM35.2 25.8C35.2 25.4817 35.3264 25.1765 35.5514 24.9515C35.7765 24.7264 36.0817 24.6 36.4 24.6C36.7182 24.6 37.0234 24.7264 37.2485 24.9515C37.4735 25.1765 37.6 25.4817 37.6 25.8C37.6 26.1183 37.4735 26.4235 37.2485 26.6485C37.0234 26.8736 36.7182 27 36.4 27C36.0817 27 35.7765 26.8736 35.5514 26.6485C35.3264 26.4235 35.2 26.1183 35.2 25.8Z" fill="#1F2551"/>
<defs>
<filter id="filter0_d_2947_123669" x="0" y="0" width="68" height="68" filterUnits="userSpaceOnUse" color-interpolation-filters="sRGB">
<feFlood flood-opacity="0" result="BackgroundImageFix"/>
<feColorMatrix in="SourceAlpha" type="matrix" values="0 0 0 0 0 0 0 0 0 0 0 0 0 0 0 0 0 0 127 0" result="hardAlpha"/>
<feMorphology radius="1" operator="erode" in="SourceAlpha" result="effect1_dropShadow_2947_123669"/>
<feOffset dy="4"/>
<feGaussianBlur stdDeviation="8"/>
<feComposite in2="hardAlpha" operator="out"/>
<feColorMatrix type="matrix" values="0 0 0 0 0 0 0 0 0 0 0 0 0 0 0 0 0 0 0.1 0"/>
<feBlend mode="normal" in2="BackgroundImageFix" result="effect1_dropShadow_2947_123669"/>
<feBlend mode="normal" in="SourceGraphic" in2="effect1_dropShadow_2947_123669" result="shape"/>
</filter>
</defs>
</svg>
