<svg width="24" height="25" viewBox="0 0 24 25" fill="none" xmlns="http://www.w3.org/2000/svg">
<path d="M8.71 8.21087L11 5.91087V15.5009C11 15.7661 11.1054 16.0204 11.2929 16.208C11.4804 16.3955 11.7348 16.5009 12 16.5009C12.2652 16.5009 12.5196 16.3955 12.7071 16.208C12.8946 16.0204 13 15.7661 13 15.5009V5.91087L15.29 8.21087C15.383 8.3046 15.4936 8.379 15.6154 8.42976C15.7373 8.48053 15.868 8.50667 16 8.50667C16.132 8.50667 16.2627 8.48053 16.3846 8.42976C16.5064 8.379 16.617 8.3046 16.71 8.21087C16.8037 8.11791 16.8781 8.00731 16.9289 7.88545C16.9797 7.76359 17.0058 7.63288 17.0058 7.50087C17.0058 7.36886 16.9797 7.23816 16.9289 7.1163C16.8781 6.99444 16.8037 6.88384 16.71 6.79087L12.71 2.79087C12.6149 2.69983 12.5028 2.62847 12.38 2.58087C12.1365 2.48085 11.8635 2.48085 11.62 2.58087C11.4972 2.62847 11.3851 2.69983 11.29 2.79087L7.29 6.79087C7.19676 6.88411 7.1228 6.9948 7.07234 7.11662C7.02188 7.23845 6.99591 7.36901 6.99591 7.50087C6.99591 7.63273 7.02188 7.7633 7.07234 7.88512C7.1228 8.00694 7.19676 8.11763 7.29 8.21087C7.38324 8.30411 7.49393 8.37807 7.61575 8.42853C7.73757 8.47899 7.86814 8.50496 8 8.50496C8.13186 8.50496 8.26243 8.47899 8.38425 8.42853C8.50607 8.37807 8.61676 8.30411 8.71 8.21087ZM21 12.5009C20.7348 12.5009 20.4804 12.6062 20.2929 12.7938C20.1054 12.9813 20 13.2357 20 13.5009V19.5009C20 19.7661 19.8946 20.0204 19.7071 20.208C19.5196 20.3955 19.2652 20.5009 19 20.5009H5C4.73478 20.5009 4.48043 20.3955 4.29289 20.208C4.10536 20.0204 4 19.7661 4 19.5009V13.5009C4 13.2357 3.89464 12.9813 3.70711 12.7938C3.51957 12.6062 3.26522 12.5009 3 12.5009C2.73478 12.5009 2.48043 12.6062 2.29289 12.7938C2.10536 12.9813 2 13.2357 2 13.5009V19.5009C2 20.2965 2.31607 21.0596 2.87868 21.6222C3.44129 22.1848 4.20435 22.5009 5 22.5009H19C19.7956 22.5009 20.5587 22.1848 21.1213 21.6222C21.6839 21.0596 22 20.2965 22 19.5009V13.5009C22 13.2357 21.8946 12.9813 21.7071 12.7938C21.5196 12.6062 21.2652 12.5009 21 12.5009Z" fill="#1F2551"/>
</svg>
