<svg width="68" height="68" viewBox="0 0 68 68" fill="none" xmlns="http://www.w3.org/2000/svg">
<g filter="url(#filter0_d_2489_131456)">
<circle cx="34" cy="30" r="19" fill="white"/>
</g>
<path d="M30.71 25.2109L33 22.9109V32.5009C33 32.7661 33.1054 33.0204 33.2929 33.208C33.4804 33.3955 33.7348 33.5009 34 33.5009C34.2652 33.5009 34.5196 33.3955 34.7071 33.208C34.8946 33.0204 35 32.7661 35 32.5009V22.9109L37.29 25.2109C37.383 25.3046 37.4936 25.379 37.6154 25.4298C37.7373 25.4805 37.868 25.5067 38 25.5067C38.132 25.5067 38.2627 25.4805 38.3846 25.4298C38.5064 25.379 38.617 25.3046 38.71 25.2109C38.8037 25.1179 38.8781 25.0073 38.9289 24.8854C38.9797 24.7636 39.0058 24.6329 39.0058 24.5009C39.0058 24.3689 38.9797 24.2382 38.9289 24.1163C38.8781 23.9944 38.8037 23.8838 38.71 23.7909L34.71 19.7909C34.6149 19.6998 34.5028 19.6285 34.38 19.5809C34.1365 19.4809 33.8635 19.4809 33.62 19.5809C33.4972 19.6285 33.3851 19.6998 33.29 19.7909L29.29 23.7909C29.1968 23.8841 29.1228 23.9948 29.0723 24.1166C29.0219 24.2384 28.9959 24.369 28.9959 24.5009C28.9959 24.6327 29.0219 24.7633 29.0723 24.8851C29.1228 25.0069 29.1968 25.1176 29.29 25.2109C29.3832 25.3041 29.4939 25.3781 29.6158 25.4285C29.7376 25.479 29.8681 25.505 30 25.505C30.1319 25.505 30.2624 25.479 30.3842 25.4285C30.5061 25.3781 30.6168 25.3041 30.71 25.2109ZM43 29.5009C42.7348 29.5009 42.4804 29.6062 42.2929 29.7938C42.1054 29.9813 42 30.2357 42 30.5009V36.5009C42 36.7661 41.8946 37.0204 41.7071 37.208C41.5196 37.3955 41.2652 37.5009 41 37.5009H27C26.7348 37.5009 26.4804 37.3955 26.2929 37.208C26.1054 37.0204 26 36.7661 26 36.5009V30.5009C26 30.2357 25.8946 29.9813 25.7071 29.7938C25.5196 29.6062 25.2652 29.5009 25 29.5009C24.7348 29.5009 24.4804 29.6062 24.2929 29.7938C24.1054 29.9813 24 30.2357 24 30.5009V36.5009C24 37.2965 24.3161 38.0596 24.8787 38.6222C25.4413 39.1848 26.2044 39.5009 27 39.5009H41C41.7956 39.5009 42.5587 39.1848 43.1213 38.6222C43.6839 38.0596 44 37.2965 44 36.5009V30.5009C44 30.2357 43.8946 29.9813 43.7071 29.7938C43.5196 29.6062 43.2652 29.5009 43 29.5009Z" fill="#1F2551"/>
<defs>
<filter id="filter0_d_2489_131456" x="0" y="0" width="68" height="68" filterUnits="userSpaceOnUse" color-interpolation-filters="sRGB">
<feFlood flood-opacity="0" result="BackgroundImageFix"/>
<feColorMatrix in="SourceAlpha" type="matrix" values="0 0 0 0 0 0 0 0 0 0 0 0 0 0 0 0 0 0 127 0" result="hardAlpha"/>
<feMorphology radius="1" operator="erode" in="SourceAlpha" result="effect1_dropShadow_2489_131456"/>
<feOffset dy="4"/>
<feGaussianBlur stdDeviation="8"/>
<feComposite in2="hardAlpha" operator="out"/>
<feColorMatrix type="matrix" values="0 0 0 0 0 0 0 0 0 0 0 0 0 0 0 0 0 0 0.1 0"/>
<feBlend mode="normal" in2="BackgroundImageFix" result="effect1_dropShadow_2489_131456"/>
<feBlend mode="normal" in="SourceGraphic" in2="effect1_dropShadow_2489_131456" result="shape"/>
</filter>
</defs>
</svg>
