<svg width="50" height="50" viewBox="0 0 75 76" fill="none" xmlns="http://www.w3.org/2000/svg">
<g filter="url(#filter0_d_303_22711)">
<circle cx="37.5" cy="34.03" r="22.5" fill="white"/>
</g>
<path d="M31 43.53C30.45 43.53 29.979 43.334 29.587 42.942C29.195 42.55 28.9993 42.0794 29 41.53V27.53C29 26.98 29.196 26.509 29.588 26.117C29.98 25.725 30.4507 25.5294 31 25.53H32V24.53C32 24.2467 32.096 24.009 32.288 23.817C32.48 23.625 32.7173 23.5294 33 23.53C33.2833 23.53 33.521 23.626 33.713 23.818C33.905 24.01 34.0007 24.2474 34 24.53V25.53H42V24.53C42 24.2467 42.096 24.009 42.288 23.817C42.48 23.625 42.7173 23.5294 43 23.53C43.2833 23.53 43.521 23.626 43.713 23.818C43.905 24.01 44.0007 24.2474 44 24.53V25.53H45C45.55 25.53 46.021 25.726 46.413 26.118C46.805 26.51 47.0007 26.9807 47 27.53V41.53C47 42.08 46.804 42.551 46.412 42.943C46.02 43.335 45.5493 43.5307 45 43.53H31ZM31 41.53H45V31.53H31V41.53ZM38 35.53C37.7167 35.53 37.479 35.434 37.287 35.242C37.095 35.05 36.9993 34.8127 37 34.53C37 34.2467 37.096 34.009 37.288 33.817C37.48 33.625 37.7173 33.5294 38 33.53C38.2833 33.53 38.521 33.626 38.713 33.818C38.905 34.01 39.0007 34.2474 39 34.53C39 34.8134 38.904 35.051 38.712 35.243C38.52 35.435 38.2827 35.5307 38 35.53ZM34 35.53C33.7167 35.53 33.479 35.434 33.287 35.242C33.095 35.05 32.9993 34.8127 33 34.53C33 34.2467 33.096 34.009 33.288 33.817C33.48 33.625 33.7173 33.5294 34 33.53C34.2833 33.53 34.521 33.626 34.713 33.818C34.905 34.01 35.0007 34.2474 35 34.53C35 34.8134 34.904 35.051 34.712 35.243C34.52 35.435 34.2827 35.5307 34 35.53ZM42 35.53C41.7167 35.53 41.479 35.434 41.287 35.242C41.095 35.05 40.9993 34.8127 41 34.53C41 34.2467 41.096 34.009 41.288 33.817C41.48 33.625 41.7173 33.5294 42 33.53C42.2833 33.53 42.521 33.626 42.713 33.818C42.905 34.01 43.0007 34.2474 43 34.53C43 34.8134 42.904 35.051 42.712 35.243C42.52 35.435 42.2827 35.5307 42 35.53ZM38 39.53C37.7167 39.53 37.479 39.434 37.287 39.242C37.095 39.05 36.9993 38.8127 37 38.53C37 38.2467 37.096 38.009 37.288 37.817C37.48 37.625 37.7173 37.5294 38 37.53C38.2833 37.53 38.521 37.626 38.713 37.818C38.905 38.01 39.0007 38.2474 39 38.53C39 38.8134 38.904 39.051 38.712 39.243C38.52 39.435 38.2827 39.5307 38 39.53ZM34 39.53C33.7167 39.53 33.479 39.434 33.287 39.242C33.095 39.05 32.9993 38.8127 33 38.53C33 38.2467 33.096 38.009 33.288 37.817C33.48 37.625 33.7173 37.5294 34 37.53C34.2833 37.53 34.521 37.626 34.713 37.818C34.905 38.01 35.0007 38.2474 35 38.53C35 38.8134 34.904 39.051 34.712 39.243C34.52 39.435 34.2827 39.5307 34 39.53ZM42 39.53C41.7167 39.53 41.479 39.434 41.287 39.242C41.095 39.05 40.9993 38.8127 41 38.53C41 38.2467 41.096 38.009 41.288 37.817C41.48 37.625 41.7173 37.5294 42 37.53C42.2833 37.53 42.521 37.626 42.713 37.818C42.905 38.01 43.0007 38.2474 43 38.53C43 38.8134 42.904 39.051 42.712 39.243C42.52 39.435 42.2827 39.5307 42 39.53Z" fill="#1F2551"/>
<defs>
<filter id="filter0_d_303_22711" x="0" y="0.530029" width="75" height="75" filterUnits="userSpaceOnUse" color-interpolation-filters="sRGB">
<feFlood flood-opacity="0" result="BackgroundImageFix"/>
<feColorMatrix in="SourceAlpha" type="matrix" values="0 0 0 0 0 0 0 0 0 0 0 0 0 0 0 0 0 0 127 0" result="hardAlpha"/>
<feMorphology radius="1" operator="erode" in="SourceAlpha" result="effect1_dropShadow_303_22711"/>
<feOffset dy="4"/>
<feGaussianBlur stdDeviation="8"/>
<feComposite in2="hardAlpha" operator="out"/>
<feColorMatrix type="matrix" values="0 0 0 0 0 0 0 0 0 0 0 0 0 0 0 0 0 0 0.1 0"/>
<feBlend mode="normal" in2="BackgroundImageFix" result="effect1_dropShadow_303_22711"/>
<feBlend mode="normal" in="SourceGraphic" in2="effect1_dropShadow_303_22711" result="shape"/>
</filter>
</defs>
</svg>
