<svg width="24" height="24" viewBox="0 0 24 24" fill="none" xmlns="http://www.w3.org/2000/svg">
<path d="M4.31343 4.32709C4.51418 4.12623 4.78642 4.01339 5.07028 4.01339C5.35414 4.01339 5.62637 4.12623 5.82712 4.32709L11.4933 9.99817L17.1595 4.32709C17.2582 4.22476 17.3764 4.14314 17.507 4.08699C17.6376 4.03083 17.7781 4.00128 17.9202 4.00004C18.0623 3.9988 18.2033 4.02591 18.3349 4.07979C18.4664 4.13366 18.5859 4.21321 18.6865 4.31381C18.787 4.41441 18.8665 4.53404 18.9203 4.66572C18.9741 4.79739 19.0012 4.93848 19 5.08074C18.9987 5.223 18.9692 5.36359 18.9131 5.49431C18.857 5.62503 18.7754 5.74326 18.6732 5.84209L13.007 11.5132L18.6732 17.1842C18.8682 17.3863 18.9761 17.657 18.9737 17.9379C18.9712 18.2188 18.8586 18.4875 18.6601 18.6862C18.4617 18.8848 18.1932 18.9975 17.9125 19C17.6318 19.0024 17.3614 18.8944 17.1595 18.6992L11.4933 13.0282L5.82712 18.6992C5.62522 18.8944 5.35481 19.0024 5.07413 19C4.79345 18.9975 4.52495 18.8848 4.32647 18.6862C4.12799 18.4875 4.01541 18.2188 4.01297 17.9379C4.01053 17.657 4.11843 17.3863 4.31343 17.1842L9.97961 11.5132L4.31343 5.84209C4.11274 5.64117 4 5.3687 4 5.08459C4 4.80049 4.11274 4.52802 4.31343 4.32709V4.32709Z" fill="white"/>
</svg>
