<svg width="81" height="80" viewBox="0 0 81 80" fill="none" xmlns="http://www.w3.org/2000/svg">
<g filter="url(#filter0_d_5443_13456)">
<circle cx="36.5" cy="36" r="25" transform="rotate(180 36.5 36)" fill="white"/>
</g>
<path d="M41 37L47.964 41.062L44.991 41.912L47.116 45.593L45.384 46.593L43.259 42.913L41.036 45.063L41 37ZM39 30H41V32H46C46.2652 32 46.5196 32.1054 46.7071 32.2929C46.8946 32.4804 47 32.7348 47 33V37H45V34H35V44H39V46H34C33.7348 46 33.4804 45.8946 33.2929 45.7071C33.1054 45.5196 33 45.2652 33 45V40H31V38H33V33C33 32.7348 33.1054 32.4804 33.2929 32.2929C33.4804 32.1054 33.7348 32 34 32H39V30ZM29 38V40H27V38H29ZM29 34V36H27V34H29ZM29 30V32H27V30H29ZM29 26V28H27V26H29ZM33 26V28H31V26H33ZM37 26V28H35V26H37ZM41 26V28H39V26H41Z" fill="#1F2551"/>
<defs>
<filter id="filter0_d_5443_13456" x="0.5" y="0" width="80" height="80" filterUnits="userSpaceOnUse" color-interpolation-filters="sRGB">
<feFlood flood-opacity="0" result="BackgroundImageFix"/>
<feColorMatrix in="SourceAlpha" type="matrix" values="0 0 0 0 0 0 0 0 0 0 0 0 0 0 0 0 0 0 127 0" result="hardAlpha"/>
<feOffset dx="4" dy="4"/>
<feGaussianBlur stdDeviation="7.5"/>
<feComposite in2="hardAlpha" operator="out"/>
<feColorMatrix type="matrix" values="0 0 0 0 0.254902 0 0 0 0 0.360784 0 0 0 0 0.670588 0 0 0 0.15 0"/>
<feBlend mode="normal" in2="BackgroundImageFix" result="effect1_dropShadow_5443_13456"/>
<feBlend mode="normal" in="SourceGraphic" in2="effect1_dropShadow_5443_13456" result="shape"/>
</filter>
</defs>
</svg>
