<svg width="102" height="102" viewBox="0 0 102 102" fill="none" xmlns="http://www.w3.org/2000/svg">
<g filter="url(#filter0_d_5443_13467)">
<circle cx="51" cy="47" r="25" fill="#F3F7FA"/>
</g>
<path d="M53.1258 56.1004L44.7008 47.7004C44.6008 47.6004 44.5298 47.4921 44.4878 47.3754C44.4458 47.2587 44.4251 47.1337 44.4258 47.0004C44.4258 46.8671 44.4465 46.7421 44.4878 46.6254C44.5291 46.5087 44.6001 46.4004 44.7008 46.3004L53.1258 37.8754C53.3591 37.6421 53.6508 37.5254 54.0008 37.5254C54.3508 37.5254 54.6508 37.6504 54.9008 37.9004C55.1508 38.1504 55.2758 38.4421 55.2758 38.7754C55.2758 39.1087 55.1508 39.4004 54.9008 39.6504L47.5508 47.0004L54.9008 54.3504C55.1341 54.5837 55.2508 54.8714 55.2508 55.2134C55.2508 55.5554 55.1258 55.8511 54.8758 56.1004C54.6258 56.3504 54.3341 56.4754 54.0008 56.4754C53.6675 56.4754 53.3758 56.3504 53.1258 56.1004Z" fill="#1F2551"/>
<defs>
<filter id="filter0_d_5443_13467" x="0" y="0" width="102" height="102" filterUnits="userSpaceOnUse" color-interpolation-filters="sRGB">
<feFlood flood-opacity="0" result="BackgroundImageFix"/>
<feColorMatrix in="SourceAlpha" type="matrix" values="0 0 0 0 0 0 0 0 0 0 0 0 0 0 0 0 0 0 127 0" result="hardAlpha"/>
<feMorphology radius="10" operator="dilate" in="SourceAlpha" result="effect1_dropShadow_5443_13467"/>
<feOffset dy="4"/>
<feGaussianBlur stdDeviation="8"/>
<feComposite in2="hardAlpha" operator="out"/>
<feColorMatrix type="matrix" values="0 0 0 0 0 0 0 0 0 0 0 0 0 0 0 0 0 0 0.1 0"/>
<feBlend mode="normal" in2="BackgroundImageFix" result="effect1_dropShadow_5443_13467"/>
<feBlend mode="normal" in="SourceGraphic" in2="effect1_dropShadow_5443_13467" result="shape"/>
</filter>
</defs>
</svg>
