<svg width="68" height="68" viewBox="0 0 68 68" fill="none" xmlns="http://www.w3.org/2000/svg">
<g filter="url(#filter0_d_3128_124671)">
<circle cx="34" cy="30" r="19" fill="white"/>
</g>
<path d="M28.4045 34.8895C28.2092 35.0848 28.2092 35.4014 28.4045 35.5966C28.5998 35.7919 28.9163 35.7919 29.1116 35.5966L34.0011 30.7072L38.8905 35.5966C39.0858 35.7919 39.4023 35.7919 39.5976 35.5966C39.7929 35.4014 39.7929 35.0848 39.5976 34.8895L34.7077 29.9996L39.5976 25.1107C39.7929 24.9154 39.7929 24.5988 39.5976 24.4036C39.4024 24.2083 39.0858 24.2082 38.8905 24.4035L34.0001 29.293L29.1116 24.4036C28.9164 24.2083 28.5998 24.2082 28.4045 24.4035C28.2093 24.5987 28.2092 24.9153 28.4045 25.1106L33.2935 30.0005L28.4045 34.8895Z" stroke="#1F2551" stroke-linecap="round" stroke-linejoin="round"/>
<defs>
<filter id="filter0_d_3128_124671" x="0" y="0" width="68" height="68" filterUnits="userSpaceOnUse" color-interpolation-filters="sRGB">
<feFlood flood-opacity="0" result="BackgroundImageFix"/>
<feColorMatrix in="SourceAlpha" type="matrix" values="0 0 0 0 0 0 0 0 0 0 0 0 0 0 0 0 0 0 127 0" result="hardAlpha"/>
<feMorphology radius="1" operator="erode" in="SourceAlpha" result="effect1_dropShadow_3128_124671"/>
<feOffset dy="4"/>
<feGaussianBlur stdDeviation="8"/>
<feComposite in2="hardAlpha" operator="out"/>
<feColorMatrix type="matrix" values="0 0 0 0 0 0 0 0 0 0 0 0 0 0 0 0 0 0 0.1 0"/>
<feBlend mode="normal" in2="BackgroundImageFix" result="effect1_dropShadow_3128_124671"/>
<feBlend mode="normal" in="SourceGraphic" in2="effect1_dropShadow_3128_124671" result="shape"/>
</filter>
</defs>
</svg>
