<svg width="525" height="400" viewBox="0 0 525 400" fill="none" xmlns="http://www.w3.org/2000/svg">
<g clip-path="url(#clip0_1178_86975)">
<path d="M252.828 167.14C261.576 167.14 268.668 160.048 268.668 151.3C268.668 142.552 261.576 135.46 252.828 135.46C244.08 135.46 236.988 142.552 236.988 151.3C236.988 160.048 244.08 167.14 252.828 167.14Z" fill="#1F2551"/>
<path d="M79.8086 26.8291V177.685C79.813 181.35 81.2708 184.863 83.8622 187.454C86.4536 190.046 89.9671 191.504 93.6319 191.508H488.177C491.841 191.504 495.355 190.046 497.946 187.454C500.538 184.863 501.995 181.35 502 177.685V26.8291C501.995 23.1643 500.538 19.6509 497.946 17.0595C495.355 14.4681 491.841 13.0103 488.177 13.0059H93.6319C89.9671 13.0103 86.4536 14.4681 83.8622 17.0595C81.2708 19.6509 79.813 23.1643 79.8086 26.8291ZM81.027 26.8291C81.027 23.4861 82.355 20.28 84.7189 17.9162C87.0828 15.5523 90.2889 14.2243 93.6319 14.2243H405.94C431.094 14.2243 455.217 24.2165 473.003 42.0026C490.789 59.7888 500.781 83.912 500.781 109.065V177.685C500.781 181.028 499.453 184.234 497.09 186.598C494.726 188.962 491.52 190.29 488.177 190.29H93.6319C90.2889 190.29 87.0828 188.962 84.7189 186.598C82.355 184.234 81.027 181.028 81.027 177.685V26.8291Z" fill="#3F3D56"/>
<path d="M84.3578 344.655L93.1958 344.654L97.4 310.564L84.356 310.566L84.3578 344.655Z" fill="#FFB6B6"/>
<path d="M84.0468 353.875L111.225 353.874V353.53C111.224 350.724 110.11 348.034 108.126 346.05C106.142 344.066 103.452 342.952 100.646 342.952H100.646L95.6812 339.186L86.4188 342.952L84.0464 342.952L84.0468 353.875Z" fill="#2F2E41"/>
<path d="M45.805 344.655L54.643 344.654L58.8473 310.564L45.8032 310.566L45.805 344.655Z" fill="#FFB6B6"/>
<path d="M45.4941 353.875L72.6719 353.874V353.53C72.6717 350.724 71.5571 348.034 69.5733 346.05C67.5895 344.066 64.899 342.952 62.0935 342.952H62.0929L57.1285 339.186L47.8661 342.952L45.4937 342.952L45.4941 353.875Z" fill="#2F2E41"/>
<path d="M106.364 158.911C106.364 158.911 114.867 185.028 113.297 188.465C111.728 191.902 109.05 189.225 111.728 191.902C114.406 194.58 116.743 191.734 114.236 196.281C111.728 200.829 107.929 238.265 106.258 240.077C104.587 241.889 102.289 241.938 104.331 243.699C106.372 245.46 109.05 241.889 106.372 245.46C103.694 249.03 96.5884 331.398 96.5884 331.398H82.7071C82.7071 331.398 79.2498 327.413 81.2068 324.819C83.1639 322.226 81.035 321.226 81.2068 319.494C81.3786 317.762 80.7277 314.029 80.6069 312.325C80.486 310.622 78.14 270.035 83.7761 246.59L73.4988 201.947L61.0495 255.903C61.0495 255.903 66.7761 301.161 61.0495 315.71C61.0495 315.71 65.6664 319.555 63.6188 321.783C61.5712 324.011 59.7859 322.226 61.5712 324.011C63.3565 325.796 58.8934 332.044 58.8934 332.044L43.7187 331.152L35.1298 246.59C35.1298 246.59 33.682 237.771 35.1298 236.259C36.5777 234.748 36.5777 240.104 36.5777 234.748V227.607C36.5777 227.607 37.4164 183.686 37.5282 181.099C37.64 178.513 48.3515 159.768 48.3515 159.768L106.364 158.911Z" fill="#2F2E41"/>
<path d="M106.237 68.7072V120.205C104.574 125.191 103.717 130.411 103.696 135.667C103.751 144.421 105.676 154.51 105.67 158.921C105.696 159.506 105.632 160.091 105.481 160.657C96.9582 185.361 51.8575 162.911 47.7574 160.809C47.5624 160.712 47.4589 160.657 47.4589 160.657L48.3483 132.986L48.196 125.03L47.1421 70.4496L48.0864 69.6941L56.3596 63.0963L57.1699 62.4505L59.6555 66.0754L81.8129 64.5523L90.269 62.2129L92.9069 63.2851L104.799 68.1223L106.237 68.7072Z" fill="#1F2551"/>
<path d="M183.458 109.175L167.931 104.041L163.761 112.502L180.37 117.346C180.913 118.207 181.686 118.9 182.601 119.347C183.516 119.794 184.538 119.976 185.551 119.874C186.565 119.772 187.529 119.389 188.337 118.769C189.145 118.149 189.764 117.315 190.124 116.363C190.484 115.41 190.571 114.376 190.375 113.376C190.18 112.377 189.709 111.452 189.017 110.705C188.324 109.958 187.437 109.419 186.455 109.149C185.473 108.879 184.436 108.887 183.458 109.175Z" fill="#FFB6B6"/>
<path d="M91.1956 63.6982L91.1313 63.9553C89.9179 68.8093 88.3688 82.6739 91.6884 86.4175C95.9511 91.231 130.384 105.926 137.225 104.728C142.53 103.8 141.438 104.112 143.976 106.752C146.515 109.393 142.301 110.01 147.964 110.472C153.626 110.934 153.739 108.766 154.951 111.171C156.164 113.575 155.085 115.024 158.939 114.89C162.792 114.756 163.758 115.476 165.084 115.712C166.41 115.948 174.733 119.894 174.733 119.894C174.733 119.894 178.073 110.368 182.275 106.74C182.275 106.74 172.636 105.569 171.907 103.524C171.177 101.479 171.773 99.6706 169.245 100.041C166.717 100.411 165.402 103.185 165.751 99.6915C166.1 96.1975 147.89 89.3958 147.89 89.3958C136.901 78.5759 114.322 71.0589 91.1956 63.6982Z" fill="#1F2551"/>
<path d="M41.9311 171.252L41.2268 154.913L31.8369 154.013L33.1962 171.261C32.583 172.074 32.2087 173.042 32.1155 174.056C32.0222 175.07 32.2137 176.09 32.6685 177.002C33.1232 177.913 33.8231 178.679 34.6895 179.215C35.5559 179.75 36.5545 180.033 37.5729 180.032C38.5914 180.031 39.5893 179.746 40.4546 179.209C41.3199 178.671 42.0182 177.904 42.471 176.991C42.9238 176.079 43.1131 175.059 43.0178 174.045C42.9224 173.031 42.5461 172.063 41.9311 171.252Z" fill="#FFB6B6"/>
<path d="M51.7466 68.8594L51.4835 68.8903C49.0359 69.1791 46.6957 70.0601 44.6653 71.457C42.6348 72.8539 40.9755 74.7246 39.8309 76.9073C36.8413 82.5996 27.3832 121.154 29.6991 126.445C31.8587 131.379 31.7694 130.165 30.2 133.475C28.6305 136.785 26.5601 133.064 28.1354 138.522C29.7106 143.98 31.778 143.317 29.9596 145.304C28.1411 147.29 26.4037 146.795 27.895 150.351C29.3862 153.907 29.0561 155.065 29.3051 156.388C29.5541 157.711 28.8157 166.893 28.8157 166.893C28.8157 166.893 38.9069 166.639 43.7889 169.282C43.7889 169.282 41.4666 159.854 43.1201 158.447C44.7735 157.04 46.6759 156.956 45.4337 154.723C44.1915 152.491 41.1308 152.245 44.5216 151.332C47.9124 150.42 47.8169 130.982 47.8169 130.982L51.7466 68.8594Z" fill="#1F2551"/>
<path d="M75.9403 48.036C75.5443 48.1274 75.1483 48.2066 74.7523 48.2675C73.5426 48.4662 72.3146 48.5295 71.0909 48.4563C67.9033 48.2852 64.8255 47.2345 62.1986 45.4208C59.5718 43.607 57.4987 41.1012 56.2091 38.1811C54.9196 35.261 54.4641 32.0408 54.8931 28.8776C55.3221 25.7144 56.6189 22.7319 58.6396 20.2607C60.6603 17.7896 63.326 15.9264 66.341 14.8779C69.356 13.8293 72.6025 13.6363 75.7205 14.3204C78.8385 15.0044 81.7061 16.5387 84.0053 18.7531C86.3045 20.9674 87.9455 23.7754 88.7462 26.8655C88.7827 27.0056 88.8193 27.1396 88.8497 27.2798C89.8892 31.744 89.1132 36.4384 86.6924 40.3307C84.2716 44.2229 80.4041 46.9945 75.9403 48.036Z" fill="#FFB6B6"/>
<path d="M59.9895 45.9969C57.5858 44.1157 57.3525 40.5301 55.3013 38.2697C51.8717 34.4906 50.2604 30.4248 52.057 25.9468C53.646 21.9862 53.3082 17.1176 56.7305 14.5682C55.0497 13.9598 54.6541 12.6962 56.1372 12.6728C57.1373 12.6571 60.8656 14.5686 59.0716 12.1874C57.2777 9.80626 60.6735 10.7462 60.4489 9.77147C60.2243 8.79679 58.784 8.25694 58.1488 9.02956C60.1769 6.65322 64.6058 7.15985 66.0448 9.93279C68.0662 6.9033 70.2119 4.81872 73.3051 6.74123C76.3431 8.62943 76.3034 10.9635 79.5703 10.4026C81.1062 10.1389 81.2513 13.0405 82.3005 14.1927C83.3497 15.3448 84.8834 16.2365 86.4145 15.9472C87.9457 15.6578 89.1166 13.7496 88.2586 12.4488L91.8675 20.6819L93.322 18.8979C95.6331 20.404 94.874 24.3342 92.5477 25.8167C90.2213 27.2992 85.7815 23.8727 84.519 26.3253C82.5289 30.1916 77.8604 28.2393 74.6543 25.507C70.7663 22.1934 66.0734 32.2684 67.9463 37.0206C66.0031 35.1124 62.4082 36.696 61.4015 39.2266C60.3948 41.7573 61.133 44.6084 61.8792 47.2277L59.9895 45.9969Z" fill="#2F2E41"/>
<path d="M300.119 102.883H281.832C281.357 102.883 280.902 102.694 280.567 102.358C280.231 102.023 280.043 101.568 280.042 101.093V83.029C280.043 82.5545 280.231 82.0996 280.567 81.7641C280.902 81.4285 281.357 81.2398 281.832 81.2393H300.119C300.594 81.2398 301.049 81.4285 301.384 81.7641C301.72 82.0996 301.909 82.5545 301.909 83.029V101.093C301.909 101.568 301.72 102.023 301.384 102.358C301.049 102.694 300.594 102.883 300.119 102.883Z" fill="#F2F2F2"/>
<path d="M303.164 104.406H284.876C284.402 104.405 283.947 104.216 283.611 103.881C283.276 103.545 283.087 103.09 283.086 102.616V84.5515C283.087 84.077 283.276 83.622 283.611 83.2865C283.947 82.951 284.402 82.7622 284.876 82.7617H303.164C303.638 82.7623 304.093 82.951 304.429 83.2865C304.764 83.622 304.953 84.077 304.953 84.5515V102.616C304.953 103.09 304.764 103.545 304.429 103.881C304.093 104.216 303.638 104.405 303.164 104.406Z" fill="#F2F2F2"/>
<path d="M282.215 81.7725C281.78 81.7725 281.363 81.9452 281.056 82.2527C280.748 82.5602 280.575 82.9773 280.575 83.4122V100.71C280.575 101.145 280.748 101.562 281.056 101.87C281.363 102.177 281.78 102.35 282.215 102.35H293.397C295.513 102.35 297.543 101.509 299.039 100.013C300.535 98.5168 301.376 96.4875 301.376 94.3715V83.4122C301.376 82.9773 301.203 82.5602 300.895 82.2527C300.588 81.9452 300.171 81.7725 299.736 81.7725H282.215Z" fill="white"/>
<path d="M295.874 87.0213H286.039C285.949 87.0213 285.863 86.9855 285.799 86.9217C285.735 86.8579 285.699 86.7713 285.699 86.6811C285.699 86.5908 285.735 86.5043 285.799 86.4405C285.863 86.3767 285.949 86.3408 286.039 86.3408H295.874C295.964 86.3408 296.05 86.3767 296.114 86.4405C296.178 86.5043 296.214 86.5908 296.214 86.6811C296.214 86.7713 296.178 86.8579 296.114 86.9217C296.05 86.9855 295.964 87.0213 295.874 87.0213Z" fill="#F2F2F2"/>
<path d="M295.874 94.2782H286.039C285.949 94.2782 285.863 94.2423 285.799 94.1785C285.735 94.1147 285.699 94.0281 285.699 93.9379C285.699 93.8477 285.735 93.7611 285.799 93.6973C285.863 93.6335 285.949 93.5977 286.039 93.5977H295.874C295.964 93.5977 296.05 93.6335 296.114 93.6973C296.178 93.7611 296.214 93.8477 296.214 93.9379C296.214 94.0281 296.178 94.1147 296.114 94.1785C296.05 94.2423 295.964 94.2782 295.874 94.2782Z" fill="#F2F2F2"/>
<path d="M299.867 90.6522H282.046C281.956 90.6522 281.869 90.6163 281.805 90.5525C281.741 90.4887 281.706 90.4022 281.706 90.3119C281.706 90.2217 281.741 90.1351 281.805 90.0713C281.869 90.0075 281.956 89.9717 282.046 89.9717H299.867C299.957 89.9717 300.044 90.0075 300.107 90.0713C300.171 90.1351 300.207 90.2217 300.207 90.3119C300.207 90.4022 300.171 90.4887 300.107 90.5525C300.044 90.6163 299.957 90.6522 299.867 90.6522Z" fill="#F2F2F2"/>
<path d="M300.049 97.2274H293.611C293.521 97.2274 293.434 97.1915 293.37 97.1277C293.306 97.0639 293.271 96.9774 293.271 96.8871C293.271 96.7969 293.306 96.7104 293.37 96.6465C293.434 96.5827 293.521 96.5469 293.611 96.5469H300.049C300.139 96.5469 300.225 96.5827 300.289 96.6465C300.353 96.7104 300.389 96.7969 300.389 96.8871C300.389 96.9774 300.353 97.0639 300.289 97.1277C300.225 97.1915 300.139 97.2274 300.049 97.2274Z" fill="#F2F2F2"/>
<path d="M244.966 114.192L244.729 114.074C230.852 107.214 215.84 107.22 198.835 114.093L198.379 112.963C215.626 105.993 230.89 105.96 245.03 112.865C264.929 105.292 277.722 92.4577 283.055 74.7129L284.223 75.0639C278.752 93.2638 265.627 106.397 245.214 114.098L244.966 114.192Z" fill="#F2F2F2"/>
<path d="M302.855 114.19L302.617 114.079C288.978 107.68 273.957 107.686 256.695 114.098L256.271 112.956C273.752 106.462 289.007 106.43 302.894 112.864C325.175 103.962 337.965 91.1495 340.916 74.7793L342.115 74.9953C339.074 91.867 325.947 105.021 303.1 114.093L302.855 114.19Z" fill="#F2F2F2"/>
<path d="M348.478 113.543L348.327 113.479C337.089 108.648 322.469 108.658 302.318 113.511L302.032 112.327C322.363 107.43 337.184 107.418 348.657 112.295C371.429 109.51 383.843 97.0495 386.602 74.2061L387.812 74.3524C384.969 97.889 372.155 110.702 348.64 113.524L348.478 113.543Z" fill="#F2F2F2"/>
<path d="M288.772 77.5835C291.464 77.5835 293.646 75.4014 293.646 72.7097C293.646 70.018 291.464 67.8359 288.772 67.8359C286.081 67.8359 283.898 70.018 283.898 72.7097C283.898 75.4014 286.081 77.5835 288.772 77.5835Z" fill="#1F2551"/>
<path d="M343.602 77.5835C346.294 77.5835 348.476 75.4014 348.476 72.7097C348.476 70.018 346.294 67.8359 343.602 67.8359C340.911 67.8359 338.729 70.018 338.729 72.7097C338.729 75.4014 340.911 77.5835 343.602 77.5835Z" fill="#1F2551"/>
<path d="M387.466 76.9741C390.158 76.9741 392.34 74.7921 392.34 72.1003C392.34 69.4086 390.158 67.2266 387.466 67.2266C384.774 67.2266 382.592 69.4086 382.592 72.1003C382.592 74.7921 384.774 76.9741 387.466 76.9741Z" fill="#1F2551"/>
<path d="M251.604 151.315H200.374C199.044 151.314 197.77 150.785 196.83 149.845C195.89 148.905 195.361 147.63 195.36 146.301V95.6956C195.361 94.3662 195.89 93.0918 196.83 92.1518C197.77 91.2119 199.044 90.6831 200.374 90.6816H251.604C252.934 90.6831 254.208 91.2119 255.148 92.1518C256.088 93.0918 256.617 94.3662 256.618 95.6956V146.301C256.617 147.631 256.088 148.905 255.148 149.845C254.208 150.785 252.934 151.314 251.604 151.315Z" fill="#E6E6E6"/>
<path d="M243.076 147.05H191.845C190.516 147.049 189.241 146.52 188.301 145.58C187.361 144.64 186.833 143.366 186.831 142.037V91.4309C186.833 90.1016 187.361 88.8271 188.301 87.8872C189.241 86.9472 190.516 86.4185 191.845 86.417H243.076C244.405 86.4185 245.679 86.9472 246.619 87.8872C247.559 88.8271 248.088 90.1016 248.09 91.4309V142.037C248.088 143.366 247.559 144.64 246.619 145.58C245.679 146.52 244.405 147.049 243.076 147.05Z" fill="#E6E6E6"/>
<path d="M201.385 87.9111C197.922 87.9111 194.599 89.2872 192.15 91.7365C189.701 94.1859 188.325 97.508 188.325 100.972V140.963C188.325 141.566 188.444 142.164 188.674 142.721C188.905 143.278 189.244 143.785 189.67 144.211C190.097 144.638 190.603 144.976 191.16 145.207C191.718 145.438 192.315 145.557 192.918 145.557H224.245C227.18 145.557 230.086 144.979 232.798 143.855C235.51 142.732 237.973 141.086 240.049 139.01C242.124 136.935 243.771 134.471 244.894 131.759C246.017 129.048 246.595 126.141 246.595 123.206V92.5048C246.595 91.2865 246.111 90.1181 245.25 89.2566C244.388 88.3951 243.22 87.9111 242.002 87.9111H201.385Z" fill="white"/>
<path d="M231.181 102.617H203.631C203.379 102.617 203.136 102.517 202.957 102.338C202.779 102.159 202.678 101.917 202.678 101.664C202.678 101.411 202.779 101.169 202.957 100.99C203.136 100.811 203.379 100.711 203.631 100.711H231.181C231.434 100.711 231.676 100.811 231.855 100.99C232.034 101.169 232.134 101.411 232.134 101.664C232.134 101.917 232.034 102.159 231.855 102.338C231.676 102.517 231.434 102.617 231.181 102.617Z" fill="#E6E6E6"/>
<path d="M231.181 122.943H203.631C203.506 122.944 203.382 122.919 203.266 122.872C203.15 122.824 203.045 122.754 202.956 122.665C202.867 122.577 202.797 122.471 202.749 122.356C202.701 122.24 202.676 122.116 202.676 121.99C202.676 121.865 202.701 121.741 202.749 121.625C202.797 121.509 202.867 121.404 202.956 121.315C203.045 121.227 203.15 121.157 203.266 121.109C203.382 121.061 203.506 121.037 203.631 121.037H231.181C231.433 121.038 231.675 121.138 231.853 121.317C232.031 121.496 232.132 121.738 232.132 121.99C232.132 122.243 232.031 122.485 231.853 122.663C231.675 122.842 231.433 122.943 231.181 122.943Z" fill="#E6E6E6"/>
<path d="M242.368 112.787H192.444C192.192 112.787 191.949 112.687 191.77 112.508C191.592 112.329 191.491 112.087 191.491 111.834C191.491 111.581 191.592 111.339 191.77 111.16C191.949 110.981 192.192 110.881 192.444 110.881H242.368C242.621 110.881 242.863 110.981 243.042 111.16C243.221 111.339 243.321 111.581 243.321 111.834C243.321 112.087 243.221 112.329 243.042 112.508C242.863 112.687 242.621 112.787 242.368 112.787Z" fill="#E6E6E6"/>
<path d="M242.878 131.208H224.843C224.718 131.208 224.594 131.183 224.478 131.136C224.362 131.088 224.257 131.017 224.169 130.929C224.08 130.84 224.01 130.735 223.962 130.62C223.914 130.504 223.89 130.38 223.89 130.255C223.89 130.13 223.914 130.006 223.962 129.89C224.01 129.775 224.08 129.669 224.169 129.581C224.257 129.492 224.362 129.422 224.478 129.374C224.594 129.326 224.718 129.302 224.843 129.302H242.878C243.131 129.302 243.373 129.402 243.552 129.581C243.731 129.76 243.831 130.002 243.831 130.255C243.831 130.508 243.731 130.75 243.552 130.929C243.373 131.108 243.131 131.208 242.878 131.208Z" fill="#E6E6E6"/>
<path d="M364.696 100.446H346.409C345.934 100.445 345.479 100.256 345.144 99.9209C344.808 99.5853 344.62 99.1304 344.619 98.6559V80.5915C344.62 80.117 344.808 79.6621 345.144 79.3266C345.479 78.991 345.934 78.8023 346.409 78.8018H364.696C365.171 78.8023 365.626 78.991 365.961 79.3266C366.297 79.6621 366.486 80.117 366.486 80.5915V98.6559C366.486 99.1304 366.297 99.5853 365.961 99.9209C365.626 100.256 365.171 100.445 364.696 100.446Z" fill="#F2F2F2"/>
<path d="M367.741 101.968H349.454C348.979 101.968 348.524 101.779 348.189 101.443C347.853 101.108 347.665 100.653 347.664 100.178V82.114C347.665 81.6395 347.853 81.1845 348.189 80.849C348.524 80.5135 348.979 80.3247 349.454 80.3242H367.741C368.216 80.3248 368.671 80.5135 369.006 80.849C369.342 81.1845 369.531 81.6395 369.531 82.114V100.178C369.531 100.653 369.342 101.108 369.006 101.443C368.671 101.779 368.216 101.968 367.741 101.968Z" fill="#F2F2F2"/>
<path d="M346.793 79.335C346.358 79.335 345.941 79.5077 345.633 79.8152C345.326 80.1227 345.153 80.5398 345.153 80.9747V98.2726C345.153 98.7075 345.326 99.1246 345.633 99.4321C345.941 99.7396 346.358 99.9124 346.793 99.9124H357.975C360.091 99.9124 362.12 99.0718 363.616 97.5756C365.113 96.0793 365.953 94.05 365.953 91.934V80.9747C365.953 80.5398 365.781 80.1227 365.473 79.8152C365.165 79.5077 364.748 79.335 364.313 79.335H346.793Z" fill="white"/>
<path d="M360.451 84.5848H350.617C350.526 84.5848 350.44 84.549 350.376 84.4851C350.312 84.4213 350.276 84.3348 350.276 84.2445C350.276 84.1543 350.312 84.0678 350.376 84.004C350.44 83.9401 350.526 83.9043 350.617 83.9043H360.451C360.541 83.9043 360.628 83.9401 360.691 84.004C360.755 84.0678 360.791 84.1543 360.791 84.2445C360.791 84.3348 360.755 84.4213 360.691 84.4851C360.628 84.549 360.541 84.5848 360.451 84.5848Z" fill="#F2F2F2"/>
<path d="M360.451 91.8407H350.617C350.526 91.8407 350.44 91.8048 350.376 91.741C350.312 91.6772 350.276 91.5906 350.276 91.5004C350.276 91.4102 350.312 91.3236 350.376 91.2598C350.44 91.196 350.526 91.1602 350.617 91.1602H360.451C360.541 91.1602 360.628 91.196 360.691 91.2598C360.755 91.3236 360.791 91.4102 360.791 91.5004C360.791 91.5906 360.755 91.6772 360.691 91.741C360.628 91.8048 360.541 91.8407 360.451 91.8407Z" fill="#F2F2F2"/>
<path d="M364.444 88.2157H346.623C346.533 88.2157 346.447 88.1798 346.383 88.116C346.319 88.0522 346.283 87.9656 346.283 87.8754C346.283 87.7852 346.319 87.6986 346.383 87.6348C346.447 87.571 346.533 87.5352 346.623 87.5352H364.444C364.535 87.5352 364.621 87.571 364.685 87.6348C364.749 87.6986 364.785 87.7852 364.785 87.8754C364.785 87.9656 364.749 88.0522 364.685 88.116C364.621 88.1798 364.535 88.2157 364.444 88.2157Z" fill="#F2F2F2"/>
<path d="M364.626 94.7909H358.188C358.098 94.7909 358.012 94.755 357.948 94.6912C357.884 94.6274 357.848 94.5408 357.848 94.4506C357.848 94.3604 357.884 94.2738 357.948 94.21C358.012 94.1462 358.098 94.1104 358.188 94.1104H364.626C364.717 94.1104 364.803 94.1462 364.867 94.21C364.931 94.2738 364.967 94.3604 364.967 94.4506C364.967 94.5408 364.931 94.6274 364.867 94.6912C364.803 94.755 364.717 94.7909 364.626 94.7909Z" fill="#F2F2F2"/>
<path d="M155.058 345.444C154.775 345.457 154.494 345.383 154.255 345.231C154.015 345.079 153.828 344.858 153.719 344.596C153.61 344.335 153.583 344.046 153.644 343.769C153.704 343.492 153.848 343.24 154.056 343.048L154.151 342.671C154.138 342.641 154.126 342.611 154.113 342.581C153.828 341.907 153.35 341.332 152.739 340.929C152.128 340.526 151.412 340.313 150.68 340.315C149.949 340.318 149.234 340.537 148.626 340.945C148.019 341.352 147.545 341.93 147.265 342.606C146.144 345.304 144.718 348.006 144.367 350.859C144.213 352.119 144.278 353.397 144.56 354.636C141.929 348.897 140.563 342.66 140.554 336.347C140.554 334.762 140.642 333.179 140.818 331.605C140.964 330.314 141.166 329.033 141.424 327.761C142.834 320.857 145.862 314.387 150.258 308.881C152.386 307.72 154.106 305.935 155.188 303.766C155.58 302.986 155.857 302.154 156.011 301.295C155.771 301.326 155.106 297.671 155.287 297.446C154.952 296.939 154.353 296.686 153.988 296.191C152.171 293.728 149.668 294.158 148.361 297.505C145.57 298.914 145.543 301.251 147.255 303.498C148.345 304.928 148.495 306.863 149.451 308.393C149.353 308.519 149.25 308.641 149.152 308.767C147.354 311.079 145.787 313.562 144.473 316.18C144.792 313.247 144.411 310.28 143.36 307.524C142.295 304.954 140.299 302.79 138.541 300.569C138.076 299.973 137.444 299.527 136.726 299.289C136.008 299.051 135.236 299.032 134.507 299.233C133.777 299.434 133.124 299.847 132.629 300.419C132.135 300.991 131.821 301.697 131.727 302.448C131.724 302.481 131.72 302.513 131.717 302.546C131.978 302.693 132.233 302.85 132.483 303.015C132.798 303.225 133.041 303.525 133.182 303.875C133.323 304.226 133.354 304.611 133.272 304.98C133.191 305.349 133 305.684 132.724 305.943C132.448 306.201 132.101 306.37 131.727 306.428L131.689 306.434C131.782 307.375 131.947 308.307 132.181 309.224C129.926 317.945 134.795 321.122 141.747 321.264C141.9 321.343 142.05 321.422 142.203 321.496C140.883 325.237 140.055 329.134 139.74 333.089C139.561 335.422 139.572 337.765 139.771 340.097L139.76 340.014C139.256 337.422 137.873 335.082 135.844 333.392C132.831 330.917 128.575 330.005 125.324 328.016C124.979 327.794 124.577 327.675 124.166 327.674C123.756 327.673 123.354 327.79 123.007 328.01C122.661 328.23 122.384 328.545 122.211 328.917C122.037 329.289 121.974 329.703 122.027 330.11L122.041 330.196C122.525 330.394 122.997 330.621 123.453 330.877C123.714 331.025 123.97 331.181 124.22 331.346C124.534 331.556 124.778 331.856 124.919 332.207C125.059 332.557 125.091 332.942 125.009 333.311C124.928 333.68 124.736 334.016 124.461 334.274C124.185 334.532 123.837 334.701 123.464 334.759L123.426 334.765C123.398 334.769 123.375 334.773 123.347 334.777C124.175 336.753 125.337 338.573 126.782 340.156C128.192 347.769 134.249 348.492 140.728 346.274H140.731C141.442 349.363 142.472 352.37 143.805 355.246H154.783C154.822 355.124 154.858 354.998 154.893 354.876C153.877 354.94 152.857 354.879 151.855 354.695C152.67 353.696 153.484 352.688 154.299 351.689C154.317 351.67 154.334 351.65 154.35 351.63C154.763 351.118 155.18 350.611 155.594 350.099L155.594 350.099C155.616 348.531 155.435 346.966 155.058 345.444Z" fill="#F2F2F2"/>
<path d="M5 355.279C4.99972 355.374 5.01827 355.468 5.05461 355.556C5.09094 355.645 5.14434 355.725 5.21172 355.792C5.2791 355.859 5.35914 355.913 5.44723 355.949C5.53532 355.985 5.62973 356.004 5.72502 356.004H160.035C160.227 356.004 160.412 355.927 160.548 355.791C160.684 355.655 160.76 355.471 160.76 355.279C160.76 355.086 160.684 354.902 160.548 354.766C160.412 354.63 160.227 354.554 160.035 354.554H5.72502C5.62973 354.553 5.53532 354.572 5.44723 354.608C5.35914 354.645 5.27911 354.698 5.21173 354.765C5.14435 354.833 5.09095 354.913 5.05462 355.001C5.01828 355.089 4.99972 355.183 5 355.279Z" fill="#CCCCCC"/>
<path d="M71.0908 48.4564L74.7522 48.2676C73.5426 48.4663 72.3145 48.5296 71.0908 48.4564Z" fill="#F2F2F2"/>
<path d="M92.9071 63.2853L92.304 64.0529L90.6835 66.1121L76.6896 83.9075L56.3599 63.0964L57.1701 62.4506L61.4834 53.2818L83.6409 51.7588L90.2692 62.213L92.9071 63.2853Z" fill="#3F3D56"/>
</g>
<defs>
<clipPath id="clip0_1178_86975">
<rect width="497" height="350.004" fill="white" transform="translate(5 6)"/>
</clipPath>
</defs>
</svg>
