<svg width="367" height="356" viewBox="0 0 367 356" fill="none" xmlns="http://www.w3.org/2000/svg">
<g clip-path="url(#clip0_319_40525)">
<path d="M344.605 98.252C341.176 92.0662 337.372 86.096 333.214 80.375C330.3 76.361 327.221 72.481 323.977 68.735H323.969C318.097 61.9536 311.712 55.6349 304.869 49.835C303.469 48.6457 302.05 47.481 300.612 46.341C287.632 36.0154 273.237 27.6051 257.869 21.367L258.005 43.826L259.476 299.848H132.005L124.836 44.309L125.37 22.209C86.8321 38.4471 55.4365 68.0288 36.9364 105.533C18.4363 143.038 14.0708 185.953 24.6398 226.414C26.2278 232.496 28.1503 238.487 30.3987 244.357C31.2107 246.49 32.0671 248.602 32.9677 250.692C33.4017 251.711 33.8448 252.721 34.3028 253.728C34.8908 255.043 35.5027 256.354 36.1327 257.649C36.6201 258.668 37.1201 259.68 37.6327 260.685C38.2941 262.004 38.9774 263.313 39.6828 264.61C40.2268 265.629 40.7828 266.639 41.3548 267.646C50.5215 283.861 62.2272 298.501 76.0268 311.012C79.9601 314.579 84.0524 317.961 88.3038 321.158C118.39 343.765 155.004 355.989 192.637 355.989C230.27 355.989 266.885 343.765 296.971 321.158C299.284 319.421 301.551 317.625 303.771 315.772C305.244 314.546 306.693 313.297 308.118 312.026C308.495 311.689 308.873 311.352 309.246 311.011C321.968 299.478 332.917 286.128 341.739 271.395C344.978 265.995 347.916 260.42 350.539 254.695C351.233 253.185 351.905 251.662 352.556 250.125C355.551 243.079 358.07 235.839 360.097 228.456C360.409 227.315 360.711 226.171 361.002 225.022C361.051 224.822 361.102 224.622 361.152 224.422C361.452 223.213 361.741 221.995 362.017 220.777C362.909 216.852 363.663 212.88 364.278 208.861C364.355 208.346 364.432 207.83 364.505 207.315C364.533 207.128 364.562 206.942 364.582 206.755C365.02 203.65 365.375 200.523 365.649 197.372C366.071 192.425 366.283 187.42 366.286 182.359C366.332 152.942 358.869 124.001 344.605 98.274V98.252Z" fill="#F2F2F2"/>
<path d="M327.553 287.157C337.831 273.27 341.784 253.709 333.789 238.393C326.291 255.62 312.941 269.64 296.101 277.972C289.595 281.162 282.027 284.032 279.015 290.622C277.141 294.722 277.498 299.565 279.004 303.814C280.51 308.063 283.073 311.845 285.604 315.573L285.738 316.691C301.701 310.074 317.275 301.044 327.553 287.157Z" fill="#E6E6E6"/>
<path d="M333.447 238.516C332.987 252.811 328.035 266.597 319.293 277.916C317.455 280.386 315.238 282.55 312.726 284.33C310.223 285.985 307.323 286.939 304.326 287.093C301.534 287.293 298.656 287.174 295.962 288.05C294.59 288.519 293.332 289.272 292.271 290.261C291.21 291.249 290.37 292.451 289.806 293.787C288.314 297.08 288.095 300.712 288.006 304.271C287.906 308.223 287.862 312.33 285.998 315.922C285.772 316.357 286.461 316.682 286.686 316.248C289.929 309.997 287.823 302.688 289.756 296.117C290.656 293.051 292.489 290.238 295.55 289.009C298.227 287.935 301.195 288.054 304.023 287.876C306.949 287.767 309.805 286.943 312.339 285.476C314.934 283.83 317.23 281.754 319.129 279.338C323.49 273.966 326.979 267.942 329.469 261.486C332.351 254.134 333.955 246.342 334.21 238.449C334.221 237.964 333.458 238.031 333.447 238.516Z" fill="white"/>
<path d="M322.321 274.431C324.419 275.639 326.878 276.063 329.259 275.626C331.64 275.188 333.789 273.919 335.321 272.044C335.63 271.664 335.053 271.166 334.744 271.544C333.321 273.294 331.319 274.478 329.1 274.881C326.881 275.285 324.591 274.881 322.644 273.744C322.221 273.497 321.897 274.187 322.318 274.432L322.321 274.431Z" fill="white"/>
<path d="M305.753 287.177C304.425 282.408 304.943 277.315 307.203 272.912C307.427 272.476 306.739 272.151 306.515 272.586C304.171 277.172 303.643 282.474 305.036 287.433C305.169 287.904 305.885 287.645 305.753 287.177Z" fill="white"/>
<path d="M331.338 254.17C330.429 253.871 329.608 253.351 328.949 252.657C328.29 251.963 327.814 251.116 327.564 250.193C327.437 249.719 326.721 249.979 326.847 250.449C327.128 251.468 327.655 252.402 328.381 253.171C329.107 253.94 330.01 254.519 331.012 254.858C331.104 254.897 331.207 254.901 331.301 254.867C331.395 254.834 331.473 254.765 331.519 254.677C331.561 254.585 331.566 254.481 331.532 254.386C331.499 254.291 331.429 254.213 331.338 254.17Z" fill="white"/>
<path d="M276.575 226.204C276.646 226.504 276.717 226.804 276.783 227.104C277.715 231.118 278.32 235.201 278.592 239.313C278.618 239.631 278.64 239.953 278.657 240.271C279.205 250.186 277.907 260.116 274.83 269.557C273.602 273.313 272.09 276.97 270.308 280.496C267.846 285.366 264.788 290.45 264.099 295.696C264.021 296.242 263.977 296.793 263.967 297.345L284.367 316.768C284.435 316.789 284.5 316.815 284.567 316.836L285.346 317.649C285.446 317.474 285.555 317.289 285.66 317.114C285.721 317.014 285.778 316.907 285.839 316.805C285.878 316.736 285.917 316.667 285.957 316.605C285.97 316.582 285.983 316.559 285.992 316.541C286.031 316.481 286.062 316.421 286.092 316.366C286.68 315.338 287.263 314.305 287.839 313.266C287.839 313.266 287.839 313.266 287.839 313.252C292.304 305.37 295.818 296.986 298.308 288.276C298.379 288.015 298.454 287.75 298.516 287.476C299.556 283.561 300.274 279.568 300.664 275.536C300.87 273.328 300.964 271.11 300.946 268.892C300.888 263.161 299.929 257.476 298.105 252.043C294.466 241.214 287.405 231.668 277.338 226.583C277.09 226.456 276.837 226.33 276.575 226.204Z" fill="#E6E6E6"/>
<path d="M276.373 226.507C284.611 238.197 288.956 252.184 288.791 266.484C288.81 269.563 288.344 272.626 287.409 275.56C286.406 278.388 284.665 280.897 282.365 282.824C280.257 284.664 277.887 286.303 276.265 288.624C275.451 289.824 274.9 291.183 274.648 292.611C274.397 294.039 274.45 295.505 274.804 296.911C275.595 300.438 277.604 303.47 279.677 306.367C281.977 309.584 284.414 312.888 285.088 316.879C285.17 317.363 285.915 317.207 285.834 316.725C284.66 309.782 278.578 305.213 276.165 298.803C275.039 295.812 274.808 292.463 276.512 289.639C278.002 287.17 280.445 285.478 282.596 283.633C284.868 281.786 286.653 279.41 287.796 276.714C288.877 273.837 289.46 270.798 289.521 267.725C289.769 260.81 288.928 253.899 287.029 247.245C284.904 239.639 281.493 232.453 276.945 225.997C276.658 225.598 276.094 226.11 276.373 226.507Z" fill="white"/>
<path d="M289.116 261.883C291.519 261.585 293.738 260.443 295.376 258.66C297.015 256.877 297.966 254.57 298.06 252.15C298.077 251.66 297.317 251.61 297.3 252.101C297.217 254.354 296.33 256.503 294.801 258.161C293.272 259.818 291.201 260.874 288.962 261.138C288.475 261.196 288.633 261.937 289.116 261.883Z" fill="white"/>
<path d="M283.558 282.031C279.627 279.023 276.974 274.645 276.127 269.768C276.044 269.285 275.298 269.44 275.381 269.922C276.271 274.995 279.042 279.546 283.139 282.667C283.53 282.965 283.946 282.327 283.558 282.031Z" fill="white"/>
<path d="M284.115 240.276C283.209 240.586 282.241 240.666 281.297 240.509C280.353 240.351 279.463 239.962 278.707 239.376C278.32 239.076 277.907 239.712 278.289 240.012C279.127 240.656 280.11 241.085 281.153 241.262C282.195 241.438 283.265 241.357 284.269 241.024C284.367 241.002 284.452 240.943 284.508 240.859C284.564 240.775 284.585 240.673 284.569 240.574C284.558 240.525 284.539 240.478 284.51 240.436C284.482 240.394 284.446 240.359 284.404 240.331C284.361 240.303 284.314 240.284 284.265 240.275C284.215 240.265 284.164 240.266 284.115 240.276Z" fill="white"/>
<path d="M8.10617 209.378C-1.00883 194.701 -3.35883 174.884 5.85417 160.268C11.9271 178.048 24.0933 193.106 40.2002 202.779C46.4252 206.487 53.7352 209.963 56.2002 216.779C57.7342 221.018 56.9852 225.816 55.1392 229.928C53.2932 234.04 50.4312 237.601 47.6022 241.112L47.3782 242.212C32.0102 234.32 17.2212 224.054 8.10617 209.378Z" fill="#E6E6E6"/>
<path d="M6.18487 160.418C5.48243 174.701 9.29843 188.843 17.0909 200.834C18.7224 203.445 20.7554 205.783 23.1149 207.761C25.4756 209.614 28.2894 210.801 31.2639 211.198C34.0299 211.624 36.9089 211.74 39.5229 212.831C40.8528 213.409 42.0454 214.262 43.0225 215.334C43.9997 216.406 44.7393 217.672 45.1929 219.049C46.4119 222.449 46.3359 226.09 46.1379 229.649C45.9179 233.596 45.6269 237.693 47.1929 241.425C47.3829 241.877 46.6699 242.145 46.4809 241.694C43.7559 235.201 46.4489 228.086 45.0569 221.38C44.4069 218.251 42.8109 215.298 39.8569 213.825C37.2759 212.537 34.3079 212.415 31.5039 212.007C28.5966 211.662 25.818 210.61 23.4109 208.944C20.9583 207.092 18.8387 204.837 17.1429 202.274C13.2328 196.565 10.2446 190.277 8.28787 183.64C6.01252 176.078 5.04761 168.182 5.43487 160.294C5.45887 159.806 6.20986 159.937 6.18586 160.422L6.18487 160.418Z" fill="white"/>
<path d="M14.3535 197.121C12.1642 198.156 9.67859 198.378 7.34048 197.749C5.00237 197.12 2.96405 195.68 1.58952 193.686C1.31252 193.286 1.92852 192.833 2.20552 193.238C3.48201 195.097 5.38091 196.438 7.55943 197.02C9.73795 197.601 12.0526 197.385 14.0855 196.409C14.5275 196.197 14.7935 196.911 14.3535 197.121Z" fill="white"/>
<path d="M29.829 211.166C31.5403 206.522 31.4382 201.403 29.543 196.83C29.355 196.377 30.068 196.109 30.255 196.561C32.2181 201.323 32.3134 206.65 30.522 211.479C30.356 211.94 29.663 211.624 29.829 211.166Z" fill="white"/>
<path d="M7.01354 176.19C7.94403 175.966 8.80442 175.515 9.51743 174.877C10.2304 174.239 10.7737 173.433 11.0985 172.533C11.2635 172.071 11.9565 172.388 11.7925 172.847C11.4291 173.84 10.828 174.729 10.0419 175.436C9.25568 176.143 8.30833 176.647 7.28255 176.903C7.18782 176.935 7.08436 176.93 6.99317 176.889C6.90198 176.848 6.82988 176.773 6.79154 176.681C6.75641 176.586 6.76003 176.482 6.8016 176.39C6.84316 176.298 6.91932 176.226 7.01354 176.19Z" fill="white"/>
<path d="M63.8653 152.77C63.7703 153.061 63.6753 153.353 63.5843 153.65C62.3269 157.575 61.3905 161.596 60.7843 165.673C60.7323 165.987 60.6843 166.307 60.6423 166.622C59.2905 176.459 59.7767 186.462 62.0763 196.122C62.9951 199.965 64.2049 203.733 65.6953 207.392C67.7533 212.446 70.3873 217.762 70.6483 223.045C70.6825 223.596 70.6825 224.148 70.6483 224.699L48.7373 242.399C48.6673 242.414 48.6013 242.435 48.5313 242.45L47.6883 243.197C47.5983 243.014 47.5093 242.821 47.4183 242.638C47.3653 242.532 47.3183 242.422 47.2653 242.316C47.2313 242.244 47.1983 242.172 47.1653 242.109C47.1543 242.085 47.1433 242.061 47.1353 242.042C47.1013 241.979 47.0753 241.917 47.0453 241.859C46.5426 240.786 46.0463 239.708 45.5563 238.625C45.5563 238.62 45.5563 238.62 45.5563 238.611C41.7483 230.392 38.9285 221.75 37.1563 212.867C37.1073 212.601 37.0563 212.331 37.0143 212.057C36.296 208.071 35.9047 204.032 35.8443 199.982C35.8185 197.764 35.9049 195.546 36.1033 193.337C36.6263 187.63 38.0436 182.041 40.3033 176.775C44.8103 166.275 52.6243 157.338 63.0703 153.087C63.3333 152.978 63.5963 152.874 63.8653 152.77Z" fill="#E6E6E6"/>
<path d="M64.0428 153.087C54.8823 164.068 49.4148 177.656 48.4167 191.922C48.1475 194.989 48.3635 198.08 49.0568 201.08C49.8263 203.98 51.3587 206.622 53.4947 208.73C55.4467 210.736 57.6757 212.561 59.1057 215.006C59.8193 216.268 60.2579 217.667 60.3928 219.111C60.5278 220.555 60.356 222.011 59.8888 223.384C58.8138 226.835 56.5618 229.694 54.2638 232.413C51.7118 235.432 49.0127 238.528 48.0157 242.451C47.8947 242.926 47.1648 242.711 47.2848 242.237C49.0188 235.412 55.4527 231.353 58.3777 225.16C59.7427 222.27 60.2457 218.952 58.7777 215.999C57.4927 213.417 55.1968 211.532 53.2028 209.519C51.0889 207.493 49.5034 204.98 48.5847 202.2C47.7412 199.245 47.4068 196.167 47.5958 193.1C47.9107 186.188 49.3104 179.368 51.7437 172.891C54.4801 165.483 58.4636 158.598 63.5218 152.533C63.8348 152.158 64.3557 152.714 64.0447 153.087H64.0428Z" fill="white"/>
<path d="M48.4681 187.311C46.0974 186.819 43.9788 185.5 42.4908 183.59C41.0029 181.679 40.2424 179.303 40.3451 176.883C40.346 176.833 40.3567 176.784 40.3766 176.738C40.3965 176.692 40.4253 176.651 40.4613 176.616C40.4973 176.581 40.5398 176.554 40.5863 176.535C40.6329 176.517 40.6826 176.508 40.7326 176.509C40.7827 176.51 40.8321 176.52 40.8779 176.54C40.9238 176.56 40.9654 176.589 41.0001 176.625C41.0349 176.661 41.0623 176.703 41.0806 176.75C41.099 176.797 41.108 176.846 41.1071 176.896C41.0074 179.149 41.7161 181.363 43.1053 183.139C44.4946 184.914 46.4729 186.135 48.6831 186.58C49.1631 186.68 48.9461 187.407 48.4691 187.311H48.4681Z" fill="white"/>
<path d="M52.3704 207.844C56.5319 205.166 59.5312 201.018 60.7704 196.226C60.8924 195.751 61.6233 195.966 61.5013 196.44C60.2019 201.424 57.071 205.735 52.7334 208.512C52.3194 208.776 51.9574 208.107 52.3684 207.844H52.3704Z" fill="white"/>
<path d="M55.2102 166.181C56.0878 166.563 57.0463 166.72 57.9998 166.64C58.9534 166.559 59.872 166.243 60.6732 165.72C61.0832 165.45 61.4452 166.12 61.0382 166.388C60.1502 166.962 59.1351 167.31 58.0817 167.401C57.0283 167.492 55.9686 167.324 54.9952 166.911C54.9002 166.88 54.8206 166.813 54.7727 166.726C54.7248 166.638 54.7121 166.535 54.7372 166.438C54.7664 166.342 54.8324 166.261 54.9209 166.212C55.0095 166.164 55.1134 166.153 55.2102 166.181Z" fill="white"/>
<path d="M177.316 59.563C190.64 59.563 201.441 48.7619 201.441 35.438C201.441 22.1142 190.64 11.313 177.316 11.313C163.993 11.313 153.191 22.1142 153.191 35.438C153.191 48.7619 163.993 59.563 177.316 59.563Z" fill="#86BCE3"/>
<path d="M251.181 34.179C249.008 31.8826 246.713 29.7042 244.306 27.653C239.671 23.5874 234.357 20.3687 228.606 18.144C226.423 17.3375 224.167 16.7435 221.869 16.37C221.593 16.325 221.321 16.281 221.045 16.244C221.025 16.242 221.005 16.242 220.984 16.244C220.942 16.2321 220.898 16.2241 220.854 16.22C220.29 16.147 219.726 16.09 219.154 16.05C216.094 15.8467 213.022 16.1234 210.047 16.87C208.321 17.3053 206.637 17.8919 205.014 18.623C203.389 19.4191 201.812 20.3123 200.294 21.298C199.479 21.7934 198.639 22.2473 197.778 22.658C195.264 23.8494 192.603 24.7012 189.864 25.191C188.015 25.5228 186.143 25.7074 184.264 25.743C182.665 25.6889 181.068 25.9184 179.548 26.421C177.898 27.0411 176.416 28.0386 175.22 29.334C174.024 30.6293 173.148 32.1865 172.661 33.881C172.623 34.0316 172.634 34.1905 172.692 34.3345C172.751 34.4785 172.854 34.5999 172.986 34.681C173.404 34.981 173.81 35.322 174.252 35.59C174.643 35.7683 175.059 35.8821 175.486 35.927C176.184 36.073 176.884 36.215 177.586 36.353C180.164 36.8644 182.752 37.3177 185.35 37.713C190.578 38.5044 195.835 39.0617 201.122 39.385C201.155 39.3898 201.189 39.3925 201.222 39.393C207.195 39.7537 213.182 39.8121 219.161 39.568C220.061 39.531 220.967 39.487 221.872 39.434C225.643 39.2227 229.404 38.8894 233.155 38.434C236.625 38.012 240.082 37.4884 243.525 36.863C245.985 36.4164 248.435 35.9184 250.875 35.369C250.994 35.334 251.101 35.2689 251.187 35.1802C251.273 35.0915 251.335 34.9821 251.366 34.8626C251.398 34.7431 251.398 34.6175 251.367 34.498C251.336 34.3784 251.274 34.2689 251.188 34.18L251.181 34.179Z" fill="#E6E6E6"/>
<path d="M201.037 66.347C197.544 62.6108 193.696 59.2235 189.547 56.233C188.171 55.267 186.755 54.358 185.298 53.526C183.512 52.4949 181.657 51.5878 179.746 50.811C179.32 50.637 178.89 50.47 178.459 50.311C176.015 49.4056 173.48 48.7685 170.898 48.411C170.878 48.411 170.857 48.411 170.837 48.411L170.711 48.387C169.46 48.2248 168.199 48.1477 166.937 48.156C166.032 48.156 165.123 48.205 164.222 48.294C162.766 48.4375 161.323 48.6872 159.904 49.041C159.204 49.216 158.504 49.418 157.818 49.65C156.818 49.9794 155.836 50.3616 154.876 50.795L154.831 50.815C153.22 51.6032 151.658 52.4895 150.156 53.469L150.056 53.53C148.349 54.551 146.543 55.3966 144.666 56.054C143.055 56.6175 141.402 57.0545 139.723 57.361C137.874 57.6937 136.001 57.8769 134.123 57.909C132.524 57.8539 130.928 58.0849 129.411 58.591C127.76 59.2111 126.277 60.2086 125.081 61.5039C123.884 62.7992 123.007 64.3564 122.52 66.051C122.482 66.2016 122.493 66.3602 122.552 66.504C122.61 66.6478 122.713 66.7693 122.845 66.851C123.263 67.151 123.673 67.488 124.111 67.756C124.501 67.9356 124.918 68.0495 125.345 68.093C126.045 68.239 126.745 68.385 127.445 68.523C130.022 69.0343 132.612 69.4863 135.213 69.879C138.78 70.419 142.363 70.8507 145.96 71.174C147.665 71.332 149.371 71.462 151.078 71.564C155.457 71.8307 159.841 71.9333 164.228 71.872C165.133 71.86 166.038 71.8397 166.943 71.811C172.316 71.653 177.674 71.25 183.015 70.602C188.968 69.8818 194.881 68.8592 200.731 67.538C200.849 67.5032 200.956 67.4385 201.042 67.3501C201.128 67.2617 201.19 67.1526 201.221 67.0335C201.252 66.9143 201.252 66.7891 201.221 66.6699C201.19 66.5507 201.129 66.4415 201.043 66.353L201.037 66.347Z" fill="#E6E6E6"/>
<path d="M140.903 1.59803L162.157 295.298L119.65 299.071V5.33903C124.715 1.38203 131.986 0.763028 140.903 1.59803Z" fill="#CCCCCC"/>
<path d="M245.814 1.59803L224.561 295.298L267.068 299.071V5.33903C262.002 1.38203 254.732 0.763028 245.814 1.59803Z" fill="#CCCCCC"/>
<path d="M268.068 5.46602C266.749 2.23202 263.945 -0.000976562 260.702 -0.000976562H125.564C121.055 -0.000976562 117.39 4.32502 117.39 9.64802V301.563C117.351 304.264 118.36 306.874 120.207 308.845C121.173 309.859 122.396 310.593 123.746 310.967C124.338 311.131 124.95 311.213 125.564 311.211H260.704C261.318 311.213 261.93 311.131 262.522 310.967C266.158 309.99 268.878 306.147 268.878 301.567V9.64902C268.881 8.21542 268.606 6.79485 268.068 5.46602ZM266.168 301.566C266.168 305.121 263.717 308.015 260.705 308.015H125.564C124.287 307.936 123.074 307.429 122.121 306.577C121.167 305.724 120.528 304.575 120.308 303.315C120.17 302.741 120.1 302.152 120.101 301.561V9.64902C120.101 6.09402 122.552 3.20502 125.564 3.20502H260.704C261.258 3.20456 261.808 3.30346 262.327 3.49702C263.512 4.0161 264.513 4.88128 265.198 5.9791C265.883 7.07692 266.22 8.35614 266.166 9.64902L266.168 301.566Z" fill="#CCCCCC"/>
<path d="M267.52 88.7321H118.746V91.4451H267.52V88.7321Z" fill="#CCCCCC"/>
<path d="M267.52 32.724H118.746V35.437H267.52V32.724Z" fill="#CCCCCC"/>
<path d="M267.52 133.952H118.746V136.665H267.52V133.952Z" fill="#CCCCCC"/>
<path d="M167.026 1.21802H164.312V172.389H167.026V1.21802Z" fill="#CCCCCC"/>
<path d="M221.955 1.21802H219.242V172.389H221.955V1.21802Z" fill="#CCCCCC"/>
<path d="M284.477 294.256H106.31C103.073 294.26 99.9702 295.548 97.6816 297.836C95.393 300.125 94.1055 303.228 94.1016 306.464C94.1 308.021 94.3992 309.563 94.9826 311.006C95.8888 313.27 97.452 315.21 99.4708 316.577C101.49 317.944 103.871 318.676 106.31 318.677H284.477C286.608 318.676 288.702 318.118 290.55 317.057C292.398 315.996 293.937 314.47 295.013 312.63C295.32 312.11 295.588 311.568 295.813 311.007C296.396 309.564 296.695 308.022 296.694 306.465C296.689 303.228 295.401 300.125 293.111 297.837C290.822 295.548 287.719 294.261 284.482 294.257L284.477 294.256Z" fill="#CCCCCC"/>
<path d="M267.519 166.058H119.65V175.102H267.519V166.058Z" fill="#CCCCCC"/>
<path d="M192.23 163.345H194.943C196.262 163.345 197.527 163.869 198.46 164.802C199.393 165.735 199.917 167 199.917 168.319H187.256C187.256 167 187.78 165.735 188.713 164.802C189.646 163.869 190.911 163.345 192.23 163.345Z" fill="#CCCCCC"/>
<path d="M196.195 191.563C211.672 191.563 224.218 179.017 224.218 163.54C224.218 148.063 211.672 135.517 196.195 135.517C180.718 135.517 168.172 148.063 168.172 163.54C168.172 179.017 180.718 191.563 196.195 191.563Z" fill="#FFB8B8"/>
<path d="M164.933 136.583C165.145 133.365 167.273 130.072 174.033 128.351C174.033 128.351 185.633 113.513 201.405 121.294C201.405 121.294 209.049 119.979 214.718 127.91C214.718 127.91 220.338 124.595 222.709 130.471C222.709 130.471 229.3 142.455 226.874 154.679C224.448 166.903 223.205 168.428 223.205 168.428C223.205 168.428 226.298 143.144 208.482 144.897C190.666 146.65 176.323 140.385 172.289 154.102C168.939 165.492 169.361 171.408 169.361 171.408C169.361 171.408 158.161 160.045 161.967 151.098C163.765 146.461 164.767 141.553 164.933 136.583Z" fill="#373C52"/>
<path d="M119.986 316.687H274.994C273.958 304.863 273.281 259.666 273.281 256.687C273.281 243.567 262.545 229.249 262.545 229.249L258.702 227.125L226.611 217.113L218.311 206.325C217.441 205.192 216.32 204.276 215.036 203.649C213.752 203.023 212.34 202.702 210.911 202.714L184.677 202.914C182.369 202.932 180.15 203.811 178.456 205.379L162.211 220.449L138.384 231.827L138.343 231.786L138.094 231.971L134.558 234.518L132.284 236.162C132.284 236.162 126.317 243.321 121.548 264.792C120.825 268.024 120.322 309.829 119.986 316.687Z" fill="#86BCE3"/>
<path d="M310.868 311.006C310.495 311.347 310.117 311.684 309.74 312.021C308.312 313.291 306.863 314.54 305.393 315.767C303.173 317.618 300.907 319.413 298.593 321.153H89.9294C85.68 317.963 81.5877 314.581 77.6523 311.007L310.868 311.006Z" fill="#CCCCCC"/>
<path d="M234.382 313.441H157.672L159.295 305.73H232.755L234.382 313.441Z" fill="#131F51"/>
<path d="M303.779 280.166H283.819C283.369 280.165 282.923 280.263 282.514 280.453C282.106 280.643 281.743 280.921 281.453 281.266C281.175 281.212 280.893 281.185 280.609 281.185C279.354 281.185 278.15 281.684 277.262 282.572C276.374 283.46 275.875 284.664 275.875 285.919C275.875 287.175 276.374 288.379 277.262 289.267C278.15 290.155 279.354 290.654 280.609 290.654C281.324 290.654 282.029 290.49 282.67 290.175L283.003 294.266L284.326 310.435C284.389 310.637 284.474 310.831 284.578 311.015C284.846 311.506 285.241 311.916 285.721 312.201C286.202 312.487 286.75 312.638 287.31 312.638H300.288C300.848 312.637 301.397 312.486 301.878 312.201C302.359 311.915 302.755 311.506 303.023 311.015C303.125 310.83 303.207 310.636 303.271 310.435L306.76 284.209C306.904 283.742 306.936 283.248 306.854 282.767C306.772 282.286 306.578 281.83 306.288 281.438C305.997 281.045 305.619 280.726 305.183 280.506C304.747 280.286 304.266 280.171 303.777 280.171L303.779 280.166ZM280.609 289.298C279.712 289.298 278.852 288.942 278.217 288.307C277.583 287.673 277.227 286.812 277.227 285.915C277.227 285.018 277.583 284.157 278.217 283.523C278.852 282.888 279.712 282.532 280.609 282.532C280.67 282.532 280.727 282.548 280.788 282.552C280.655 283.097 280.672 283.668 280.837 284.204L282.266 288.847C281.762 289.138 281.189 289.292 280.607 289.293L280.609 289.298Z" fill="#373C52"/>
<path d="M258.697 194.351H132.346C131.808 194.351 131.275 194.457 130.777 194.663C130.28 194.869 129.828 195.171 129.447 195.551C129.066 195.932 128.764 196.384 128.558 196.882C128.352 197.379 128.246 197.912 128.246 198.451V283.713C128.246 284.251 128.352 284.784 128.558 285.282C128.764 285.779 129.066 286.231 129.447 286.612C129.828 286.992 130.28 287.294 130.777 287.501C131.275 287.707 131.808 287.813 132.346 287.813H258.697C259.785 287.813 260.827 287.381 261.596 286.612C262.365 285.843 262.797 284.8 262.797 283.713V198.446C262.796 197.359 262.363 196.318 261.594 195.55C260.826 194.782 259.784 194.351 258.697 194.351Z" fill="#131F51"/>
<path d="M209.751 262.669H180.192C179.985 262.669 179.78 262.71 179.589 262.79C179.398 262.869 179.224 262.986 179.078 263.132C178.931 263.279 178.816 263.453 178.737 263.644C178.658 263.836 178.617 264.041 178.617 264.248V310.942H211.329V264.248C211.329 264.041 211.289 263.835 211.209 263.644C211.13 263.452 211.014 263.278 210.867 263.131C210.72 262.985 210.546 262.868 210.355 262.789C210.163 262.71 209.958 262.669 209.75 262.669H209.751ZM195.071 289.2C194.147 289.196 193.262 288.826 192.608 288.173C191.955 287.519 191.586 286.634 191.581 285.71V280.324C191.581 279.398 191.949 278.51 192.604 277.856C193.258 277.201 194.146 276.833 195.072 276.833C195.997 276.833 196.885 277.201 197.54 277.856C198.194 278.51 198.562 279.398 198.562 280.324V285.71C198.558 286.634 198.189 287.519 197.535 288.173C196.882 288.826 195.995 289.196 195.071 289.2Z" fill="#131F51"/>
<path d="M178.516 309.447V313.952C178.516 314.186 178.609 314.41 178.774 314.575C178.939 314.74 179.163 314.833 179.397 314.833H210.55C210.783 314.832 211.006 314.739 211.171 314.574C211.336 314.409 211.43 314.186 211.431 313.952V309.447H178.516Z" fill="#3F3D56"/>
<path d="M256.011 282.817C257.112 282.817 258.006 281.924 258.006 280.822C258.006 279.72 257.112 278.827 256.011 278.827C254.909 278.827 254.016 279.72 254.016 280.822C254.016 281.924 254.909 282.817 256.011 282.817Z" fill="#2F2E41"/>
<path d="M148.296 277.929C148.204 277.929 148.113 277.947 148.028 277.982C147.943 278.017 147.866 278.069 147.801 278.134C147.736 278.199 147.684 278.276 147.649 278.361C147.614 278.446 147.596 278.537 147.596 278.629V282.221C147.596 282.406 147.669 282.584 147.801 282.716C147.932 282.847 148.11 282.921 148.296 282.921C148.481 282.921 148.659 282.847 148.791 282.716C148.922 282.584 148.996 282.406 148.996 282.221V278.629C148.996 278.443 148.922 278.265 148.791 278.134C148.659 278.002 148.481 277.929 148.296 277.929Z" fill="#2F2E41"/>
<path d="M152.087 277.929C151.901 277.929 151.723 278.002 151.592 278.134C151.46 278.265 151.387 278.443 151.387 278.629V282.221C151.387 282.313 151.405 282.404 151.44 282.489C151.475 282.574 151.527 282.651 151.592 282.716C151.657 282.781 151.734 282.832 151.819 282.867C151.904 282.903 151.995 282.921 152.087 282.921C152.179 282.921 152.27 282.903 152.355 282.867C152.439 282.832 152.517 282.781 152.582 282.716C152.647 282.651 152.698 282.574 152.733 282.489C152.769 282.404 152.787 282.313 152.787 282.221V278.629C152.787 278.443 152.713 278.265 152.582 278.134C152.45 278.002 152.272 277.929 152.087 277.929Z" fill="#2F2E41"/>
<path d="M155.878 277.929C155.786 277.929 155.695 277.947 155.61 277.982C155.525 278.017 155.448 278.069 155.383 278.134C155.318 278.199 155.266 278.276 155.231 278.361C155.196 278.446 155.178 278.537 155.178 278.629V282.221C155.178 282.406 155.252 282.584 155.383 282.716C155.514 282.847 155.692 282.921 155.878 282.921C156.063 282.921 156.241 282.847 156.373 282.716C156.504 282.584 156.578 282.406 156.578 282.221V278.629C156.578 278.443 156.504 278.265 156.373 278.134C156.241 278.002 156.063 277.929 155.878 277.929Z" fill="#2F2E41"/>
<path d="M159.669 277.929C159.577 277.929 159.486 277.947 159.401 277.982C159.316 278.017 159.239 278.069 159.174 278.134C159.109 278.199 159.057 278.276 159.022 278.361C158.987 278.446 158.969 278.537 158.969 278.629V282.221C158.969 282.406 159.042 282.584 159.174 282.716C159.305 282.847 159.483 282.921 159.669 282.921C159.854 282.921 160.032 282.847 160.164 282.716C160.295 282.584 160.369 282.406 160.369 282.221V278.629C160.369 278.537 160.351 278.446 160.315 278.361C160.28 278.276 160.229 278.199 160.164 278.134C160.099 278.069 160.022 278.017 159.937 277.982C159.852 277.947 159.761 277.929 159.669 277.929Z" fill="#2F2E41"/>
<path d="M162.693 311.411C168.52 311.411 173.245 306.686 173.245 300.859C173.245 295.031 168.52 290.307 162.693 290.307C156.865 290.307 152.141 295.031 152.141 300.859C152.141 306.686 156.865 311.411 162.693 311.411Z" fill="#FFB8B8"/>
<path d="M236.411 313.441C242.239 313.441 246.963 308.717 246.963 302.889C246.963 297.061 242.239 292.337 236.411 292.337C230.584 292.337 225.859 297.061 225.859 302.889C225.859 308.717 230.584 313.441 236.411 313.441Z" fill="#FFB8B8"/>
<path d="M345.331 175.52C344.288 173.795 343.052 171.954 341.116 171.391C338.875 170.739 336.573 172.034 334.616 173.313C328.777 177.136 323.153 181.28 317.771 185.724L317.777 185.791C321.967 185.502 325.444 196.643 329.634 196.354C332.661 196.145 336.505 184.478 339.18 183.046C340.121 182.378 341.199 181.927 342.336 181.726C343.05 181.779 343.745 181.983 344.375 182.323C345.005 182.664 345.555 183.135 345.99 183.704C351.783 189.873 353.459 199.304 359.959 204.726C355.861 194.619 350.968 184.853 345.326 175.52H345.331Z" fill="#3F3D56"/>
<path d="M356.48 190.504C359.536 196.023 362.777 201.433 366.204 206.734C366.184 206.921 366.155 207.107 366.127 207.294C365.713 206.661 365.303 206.025 364.897 205.386C361.82 200.561 358.896 195.643 356.126 190.633C354.811 188.25 353.529 185.85 352.279 183.433C351.313 181.558 350.367 179.672 349.442 177.775C349.178 177.231 348.923 176.687 348.667 176.139C348.067 174.856 347.474 173.566 346.841 172.3C346.186 170.78 345.182 169.435 343.911 168.375C343.307 167.916 342.584 167.639 341.829 167.575C340.763 167.581 339.72 167.88 338.813 168.439C331.947 172.047 325.538 176.465 319.724 181.599C313.904 186.714 308.702 192.491 304.224 198.813C304.086 199.008 303.761 198.821 303.899 198.622C304.447 197.851 304.999 197.092 305.567 196.337C312.609 186.973 321.243 178.92 331.075 172.546C332.727 171.475 334.411 170.453 336.128 169.482C336.992 168.991 337.861 168.508 338.746 168.053C339.593 167.557 340.543 167.262 341.522 167.193C344.891 167.14 346.636 170.955 347.833 173.52C348.206 174.328 348.586 175.134 348.974 175.939C350.43 178.983 351.944 182.003 353.516 184.998C354.48 186.843 355.468 188.679 356.48 190.504Z" fill="#3F3D56"/>
<path d="M319.394 179.715C319.194 179.497 319.004 179.279 318.807 179.061C317.338 177.248 315.518 175.752 313.455 174.661C312.438 174.177 311.328 173.919 310.202 173.907C309.04 173.939 307.894 174.189 306.824 174.644C306.315 174.844 305.818 175.078 305.324 175.323C304.764 175.605 304.215 175.905 303.668 176.208C302.641 176.776 301.627 177.37 300.627 177.988C298.637 179.218 296.708 180.542 294.842 181.96C293.875 182.693 292.927 183.452 292 184.238C291.137 184.966 290.293 185.713 289.465 186.48C289.288 186.643 289.024 186.38 289.201 186.216C289.419 186.016 289.64 185.811 289.86 185.616C290.484 185.052 291.117 184.5 291.76 183.958C292.933 182.968 294.136 182.016 295.37 181.104C297.288 179.683 299.272 178.358 301.323 177.13C302.348 176.516 303.387 175.929 304.439 175.368C304.757 175.199 305.078 175.033 305.404 174.876C306.142 174.503 306.909 174.191 307.697 173.942C308.814 173.581 309.995 173.465 311.161 173.602C312.288 173.765 313.374 174.14 314.361 174.708C316.378 175.986 318.169 177.59 319.661 179.454C319.818 179.629 319.555 179.894 319.394 179.715Z" fill="#3F3D56"/>
<path d="M304.071 187.979C303.538 188.007 303.01 187.856 302.571 187.551C301.412 186.673 301.443 184.565 302.664 181.104C302.997 180.167 303.518 179.307 304.195 178.579C304.873 177.851 305.692 177.269 306.603 176.87C307.457 176.489 308.38 176.289 309.315 176.283C310.25 176.278 311.176 176.467 312.034 176.838C312.184 176.905 312.332 176.975 312.477 177.048C313.47 177.604 314.401 178.265 315.254 179.018C315.979 179.647 316.753 180.218 317.567 180.726L317.839 180.885L317.581 181.067C311.012 185.695 306.554 187.979 304.071 187.979Z" fill="#3F3D56"/>
<path d="M329.353 160.433C327.191 160.433 325.097 159.683 323.427 158.31C321.757 156.938 320.614 155.029 320.195 152.908C318.387 153.274 316.729 154.167 315.428 155.475C314.128 156.783 313.244 158.447 312.888 160.257C312.532 162.066 312.721 163.941 313.429 165.644C314.138 167.347 315.335 168.801 316.87 169.824C318.404 170.847 320.207 171.393 322.052 171.392C323.896 171.392 325.699 170.844 327.233 169.82C328.766 168.796 329.962 167.34 330.669 165.637C331.377 163.933 331.563 162.058 331.206 160.249C330.596 160.372 329.975 160.433 329.353 160.433Z" fill="#3F3D56"/>
<path opacity="0.74" d="M79.4769 175.45C87.1702 175.45 93.4069 169.213 93.4069 161.52C93.4069 153.827 87.1702 147.59 79.4769 147.59C71.7835 147.59 65.5469 153.827 65.5469 161.52C65.5469 169.213 71.7835 175.45 79.4769 175.45Z" fill="#3F3D56"/>
<path opacity="0.74" d="M93.4066 175.45C101.1 175.45 107.337 169.213 107.337 161.52C107.337 153.827 101.1 147.59 93.4066 147.59C85.7132 147.59 79.4766 153.827 79.4766 161.52C79.4766 169.213 85.7132 175.45 93.4066 175.45Z" fill="#86BCE3"/>
<path opacity="0.74" d="M86.5589 164.348C94.2522 164.348 100.489 158.112 100.489 150.418C100.489 142.725 94.2522 136.488 86.5589 136.488C78.8656 136.488 72.6289 142.725 72.6289 150.418C72.6289 158.112 78.8656 164.348 86.5589 164.348Z" fill="#373C52"/>
<path d="M122.986 146.426L87.2051 157.667L87.4485 158.442L123.229 147.201L122.986 146.426Z" fill="#3F3D56"/>
<path d="M123.213 148.306C124.109 148.306 124.836 147.579 124.836 146.683C124.836 145.787 124.109 145.06 123.213 145.06C122.316 145.06 121.59 145.787 121.59 146.683C121.59 147.579 122.316 148.306 123.213 148.306Z" fill="#3F3D56"/>
<path d="M355.498 219.733C357.798 221.479 360.231 223.042 362.775 224.408C362.726 224.608 362.675 224.808 362.625 225.008C362.304 224.858 361.992 224.7 361.679 224.537C359.125 223.025 356.649 221.384 354.26 219.622C353.027 218.772 351.68 218.098 350.26 217.622C348.778 217.177 347.23 216.995 345.686 217.086C339.245 217.403 333.725 221.246 327.739 223.186C324.827 224.24 321.696 224.536 318.639 224.046C315.583 223.446 312.868 221.826 310.169 220.357C307.507 218.904 304.605 217.443 301.496 217.443C300.217 217.385 298.944 217.654 297.798 218.224C296.652 218.794 295.67 219.647 294.945 220.702C294.925 220.736 294.898 220.767 294.866 220.791C294.834 220.815 294.798 220.832 294.759 220.842C294.721 220.852 294.68 220.855 294.641 220.849C294.601 220.844 294.563 220.83 294.529 220.81C294.494 220.79 294.464 220.763 294.44 220.731C294.416 220.699 294.399 220.663 294.389 220.624C294.379 220.586 294.376 220.546 294.382 220.506C294.387 220.467 294.401 220.428 294.421 220.394C294.724 219.883 295.097 219.418 295.529 219.01C296.448 218.207 297.523 217.603 298.686 217.234C299.85 216.865 301.077 216.74 302.291 216.867C305.384 217.119 308.204 218.58 310.879 220.049C313.716 221.607 316.622 223.284 319.901 223.625C323.136 223.822 326.372 223.258 329.349 221.977C335.165 219.765 340.904 216.077 347.373 216.49C350.332 216.786 353.148 217.91 355.498 219.733Z" fill="#3F3D56"/>
<path d="M100.927 102.357V103.181C100.655 103.127 100.377 103.1 100.099 103.1H95.8565V112.216C95.8557 113.565 95.3193 114.859 94.3651 115.814C93.4109 116.768 92.1169 117.304 90.7675 117.305H84.4925V118.705C84.4925 119.268 84.6043 119.826 84.8215 120.345H83.9525C83.7709 119.817 83.679 119.263 83.6805 118.705V117.305H80.2305V116.493H83.6805V107.377C83.6813 106.028 84.2177 104.734 85.1719 103.779C86.1261 102.825 87.42 102.289 88.7695 102.288H95.0445V100.867H95.8565V102.288H100.101C100.379 102.288 100.656 102.311 100.929 102.357H100.927Z" fill="#131F51"/>
<path d="M90.7667 95.793H79.4347C78.0852 95.7938 76.7913 96.3302 75.8371 97.2844C74.8829 98.2386 74.3465 99.5326 74.3457 100.882V112.213C74.3465 113.562 74.8829 114.856 75.8371 115.811C76.7913 116.765 78.0852 117.301 79.4347 117.302H90.7657C92.1151 117.301 93.4091 116.765 94.3633 115.811C95.3175 114.856 95.8539 113.562 95.8547 112.213V100.867C95.8499 99.5203 95.3119 98.2304 94.3584 97.2795C93.4048 96.3285 92.1134 95.7941 90.7667 95.793ZM95.0447 112.214C95.0434 113.348 94.5922 114.436 93.7903 115.238C92.9883 116.04 91.9009 116.491 90.7667 116.492H79.4347C78.3005 116.491 77.2132 116.04 76.4112 115.238C75.6092 114.436 75.158 113.348 75.1567 112.214V100.883C75.1583 99.7489 75.6095 98.6617 76.4114 97.8598C77.2134 97.0578 78.3006 96.6066 79.4347 96.605H90.7657C91.8969 96.6063 92.9818 97.0551 93.7833 97.8535C94.5848 98.6518 95.0379 99.7348 95.0437 100.866L95.0447 112.214Z" fill="#3F3D56"/>
<path d="M83.6797 116.491V117.303H84.4917V116.491H83.6797ZM83.6797 116.491V117.303H84.4917V116.491H83.6797ZM100.93 102.357C100.656 102.311 100.379 102.288 100.102 102.288H88.7687C87.4193 102.289 86.1253 102.825 85.1711 103.779C84.2169 104.734 83.6805 106.028 83.6797 107.377V118.707C83.6782 119.265 83.7702 119.819 83.9517 120.347C84.2942 121.353 84.9428 122.226 85.8066 122.845C86.6704 123.464 87.7062 123.797 88.7687 123.797H100.1C101.449 123.796 102.743 123.26 103.697 122.306C104.652 121.351 105.188 120.057 105.189 118.708V107.376C105.188 106.171 104.76 105.005 103.98 104.085C103.2 103.166 102.119 102.554 100.93 102.357ZM104.38 118.709C104.378 119.843 103.927 120.931 103.125 121.733C102.323 122.535 101.236 122.986 100.102 122.987H88.7687C87.6346 122.985 86.5474 122.534 85.7455 121.732C84.9435 120.93 84.4923 119.843 84.4907 118.709V107.376C84.492 106.242 84.9432 105.155 85.7452 104.353C86.5472 103.551 87.6345 103.099 88.7687 103.098H100.101C101.235 103.098 102.323 103.549 103.125 104.351C103.928 105.154 104.378 106.242 104.379 107.376L104.38 118.709ZM83.6797 116.493V117.305H84.4917V116.493H83.6797Z" fill="#3F3D56"/>
<path d="M75.6647 222.292H27.5297C27.1947 222.292 26.8734 222.425 26.6362 222.662C26.3989 222.898 26.265 223.219 26.2637 223.554V226.407C27.85 232.49 29.7709 238.481 32.0177 244.352H75.6597C75.8254 244.352 75.9896 244.32 76.1428 244.256C76.2959 244.193 76.4351 244.1 76.5523 243.983C76.6695 243.865 76.7625 243.726 76.8259 243.573C76.8893 243.42 76.9218 243.256 76.9217 243.09V223.556C76.9217 223.222 76.7895 222.902 76.5539 222.665C76.3184 222.428 75.9987 222.294 75.6647 222.292Z" fill="#86BCE3"/>
<path d="M71.0778 250.688H34.5918C35.0258 251.707 35.4688 252.717 35.9268 253.724H71.0778C71.4804 253.724 71.8665 253.565 72.1512 253.28C72.4359 252.995 72.5958 252.609 72.5958 252.206C72.5958 251.804 72.4359 251.418 72.1512 251.133C71.8665 250.848 71.4804 250.688 71.0778 250.688Z" fill="#E4E4E4"/>
<path d="M71.0788 257.644H37.7578C38.2445 258.662 38.7445 259.674 39.2578 260.68H71.0768C71.4794 260.68 71.8656 260.52 72.1505 260.236C72.4353 259.951 72.5955 259.565 72.5958 259.163C72.5961 258.76 72.4364 258.374 72.1519 258.089C71.8674 257.804 71.4814 257.644 71.0788 257.644Z" fill="#E4E4E4"/>
<path d="M71.0786 264.604H41.3086C41.8526 265.623 42.4086 266.633 42.9806 267.64H71.0806C71.4832 267.64 71.8692 267.48 72.1537 267.195C72.4382 266.91 72.5979 266.524 72.5976 266.121C72.5973 265.719 72.4371 265.333 72.1523 265.048C71.8674 264.764 71.4812 264.604 71.0786 264.604Z" fill="#E4E4E4"/>
<path d="M320.618 77.52H320.387C321.107 77.5205 321.817 77.6882 322.461 78.01H321.409C320.275 78.0111 319.187 78.4621 318.385 79.2642C317.583 80.0662 317.132 81.1538 317.131 82.288V93.62C317.132 94.7541 317.583 95.8415 318.385 96.6435C319.186 97.4455 320.274 97.8967 321.408 97.898H322.079C321.54 98.1094 320.966 98.2183 320.387 98.219H320.618C321.859 98.2174 323.05 97.7235 323.927 96.8457C324.805 95.9678 325.299 94.7775 325.301 93.536V82.203C325.299 80.9615 324.805 79.7713 323.927 78.8934C323.05 78.0155 321.859 77.5216 320.618 77.52Z" fill="#3F3D56"/>
<path opacity="0.21" d="M320.618 77.52H320.387C321.107 77.5205 321.817 77.6882 322.461 78.01H321.409C320.275 78.0111 319.187 78.4621 318.385 79.2642C317.583 80.0662 317.132 81.1538 317.131 82.288V93.62C317.132 94.7541 317.583 95.8415 318.385 96.6435C319.186 97.4455 320.274 97.8967 321.408 97.898H322.079C321.54 98.1094 320.966 98.2183 320.387 98.219H320.618C321.859 98.2174 323.05 97.7235 323.927 96.8457C324.805 95.9678 325.299 94.7775 325.301 93.536V82.203C325.299 80.9615 324.805 79.7713 323.927 78.8934C323.05 78.0155 321.859 77.5216 320.618 77.52Z" fill="black"/>
<path d="M291.421 97.932C290.287 97.9309 289.199 97.4799 288.397 96.6778C287.595 95.8758 287.144 94.7883 287.143 93.654V82.322C287.144 81.1877 287.595 80.1002 288.397 79.2982C289.199 78.4961 290.287 78.0451 291.421 78.044H292.473C291.829 77.7222 291.119 77.5545 290.399 77.554H279.068C277.826 77.5556 276.636 78.0495 275.758 78.9274C274.88 79.8053 274.386 80.9955 274.385 82.237V93.569C274.386 94.8105 274.88 96.0008 275.758 96.8786C276.636 97.7565 277.826 98.2504 279.068 98.252H290.4C290.979 98.2513 291.553 98.1424 292.092 97.931L291.421 97.932Z" fill="#86BCE3"/>
<path d="M321.454 97.932C320.32 97.9309 319.232 97.4799 318.43 96.6778C317.628 95.8758 317.177 94.7883 317.176 93.654V82.322C317.177 81.1877 317.628 80.1002 318.43 79.2982C319.232 78.4961 320.32 78.0451 321.454 78.044H322.506C321.862 77.7222 321.152 77.5545 320.432 77.554H309.101C307.859 77.5556 306.669 78.0495 305.791 78.9274C304.913 79.8053 304.42 80.9955 304.418 82.237V93.569C304.42 94.8105 304.913 96.0008 305.791 96.8786C306.669 97.7565 307.859 98.2504 309.101 98.252H320.433C321.012 98.2513 321.586 98.1424 322.125 97.931L321.454 97.932Z" fill="#3F3D56"/>
<path d="M334.833 80.371C338.992 86.0924 342.796 92.0628 346.225 98.249H339.133C337.892 98.2472 336.701 97.7531 335.823 96.8751C334.945 95.9971 334.451 94.8067 334.449 93.565V82.238C334.449 81.5971 334.58 80.963 334.835 80.375L334.833 80.371Z" fill="#363C51"/>
<path d="M320.61 104.198L316.641 98.252L313.741 93.905C313.571 93.6511 313.334 93.4504 313.055 93.3262C312.776 93.2019 312.468 93.1592 312.166 93.203C311.864 93.2467 311.58 93.3751 311.348 93.5733C311.116 93.7716 310.945 94.0315 310.855 94.323L309.633 98.252L307.172 106.143C307.075 106.458 307.076 106.794 307.175 107.108C307.274 107.422 307.467 107.698 307.727 107.9C307.987 108.101 308.303 108.219 308.631 108.236C308.96 108.254 309.287 108.171 309.567 107.998L310.44 107.458C310.615 107.35 310.816 107.288 311.022 107.279C311.228 107.27 311.433 107.313 311.618 107.406C311.802 107.498 311.96 107.636 312.077 107.806C312.193 107.976 312.264 108.174 312.283 108.379L313.083 117.105C313.12 117.506 313.306 117.878 313.603 118.15C313.9 118.421 314.287 118.573 314.69 118.574C314.739 118.574 314.79 118.574 314.84 118.566L316.066 118.456C316.277 118.437 316.483 118.376 316.671 118.277C316.858 118.179 317.025 118.044 317.161 117.881C317.296 117.717 317.399 117.529 317.461 117.326C317.524 117.123 317.546 116.91 317.527 116.699L316.703 107.689C316.683 107.477 316.72 107.264 316.809 107.071C316.898 106.878 317.036 106.712 317.21 106.59C317.384 106.467 317.586 106.392 317.798 106.373C318.01 106.354 318.223 106.391 318.416 106.48L318.595 106.561C318.914 106.708 319.274 106.747 319.617 106.671C319.961 106.595 320.271 106.41 320.499 106.142C320.727 105.874 320.862 105.539 320.882 105.187C320.903 104.836 320.808 104.487 320.612 104.195L320.61 104.198Z" fill="#3F3D54"/>
</g>
<defs>
<clipPath id="clip0_319_40525">
<rect width="366.285" height="355.983" fill="white"/>
</clipPath>
</defs>
</svg>
