<svg width="132" height="132" viewBox="0 0 66 66" fill="none" xmlns="http://www.w3.org/2000/svg">
  <g filter="url(#filter0_d_684_29569)">
    <circle cx="33" cy="29" r="36" fill="white"/>
  </g>
  <path d="M33.0121 26.1545C32.3113 26.1545 31.6551 26.4264 31.1582 26.9232C30.6637 27.4201 30.3894 28.0764 30.3894 28.7771C30.3894 29.4779 30.6637 30.1342 31.1582 30.6311C31.6551 31.1256 32.3113 31.3998 33.0121 31.3998C33.7129 31.3998 34.3691 31.1256 34.866 30.6311C35.3605 30.1342 35.6348 29.4779 35.6348 28.7771C35.6348 28.0764 35.3605 27.4201 34.866 26.9232C34.6233 26.6787 34.3345 26.4848 34.0162 26.3528C33.6979 26.2209 33.3566 26.1534 33.0121 26.1545ZM42.6754 31.674L41.1426 30.3639C41.2152 29.9186 41.2527 29.4639 41.2527 29.0115C41.2527 28.5592 41.2152 28.1021 41.1426 27.6592L42.6754 26.349C42.7912 26.2499 42.874 26.1179 42.913 25.9705C42.9519 25.8231 42.9451 25.6674 42.8933 25.524L42.8723 25.4631C42.4504 24.2835 41.8183 23.19 41.0066 22.2357L40.9644 22.1865C40.8659 22.0706 40.7345 21.9873 40.5877 21.9476C40.4408 21.9078 40.2853 21.9135 40.1418 21.9639L38.2387 22.6412C37.5355 22.0646 36.7527 21.61 35.9043 21.2936L35.5363 19.3037C35.5086 19.1538 35.4358 19.0159 35.3278 18.9083C35.2198 18.8007 35.0816 18.7285 34.9316 18.7014L34.8683 18.6896C33.6496 18.4693 32.3652 18.4693 31.1465 18.6896L31.0832 18.7014C30.9332 18.7285 30.795 18.8007 30.687 18.9083C30.579 19.0159 30.5063 19.1538 30.4785 19.3037L30.1082 21.3029C29.2678 21.6219 28.4849 22.0754 27.7902 22.6459L25.873 21.9639C25.7295 21.9131 25.5739 21.9072 25.427 21.947C25.2801 21.9868 25.1487 22.0703 25.0504 22.1865L25.0082 22.2357C24.1979 23.191 23.566 24.2842 23.1426 25.4631L23.1215 25.524C23.016 25.817 23.1027 26.1451 23.3394 26.349L24.891 27.6732C24.8183 28.1139 24.7832 28.5639 24.7832 29.0092C24.7832 29.4592 24.8183 29.9092 24.891 30.3451L23.3441 31.6693C23.2283 31.7685 23.1455 31.9005 23.1065 32.0479C23.0676 32.1952 23.0744 32.351 23.1262 32.4943L23.1473 32.5553C23.5715 33.7342 24.1973 34.824 25.0129 35.7826L25.0551 35.8318C25.1536 35.9477 25.285 36.031 25.4319 36.0708C25.5787 36.1105 25.7342 36.1049 25.8777 36.0545L27.7949 35.3725C28.4933 35.9467 29.2715 36.4014 30.1129 36.7154L30.4832 38.7146C30.511 38.8645 30.5837 39.0025 30.6917 39.11C30.7997 39.2176 30.9379 39.2898 31.0879 39.317L31.1512 39.3287C32.3819 39.5502 33.6423 39.5502 34.873 39.3287L34.9363 39.317C35.0863 39.2898 35.2245 39.2176 35.3325 39.11C35.4405 39.0025 35.5132 38.8645 35.541 38.7146L35.909 36.7248C36.7574 36.4061 37.5402 35.9537 38.2433 35.3771L40.1465 36.0545C40.29 36.1053 40.4456 36.1111 40.5925 36.0714C40.7394 36.0316 40.8708 35.9481 40.9691 35.8318L41.0113 35.7826C41.8269 34.8193 42.4527 33.7342 42.8769 32.5553L42.898 32.4943C42.9988 32.2037 42.9121 31.8779 42.6754 31.674ZM33.0121 32.8975C30.7363 32.8975 28.8918 31.0529 28.8918 28.7771C28.8918 26.5014 30.7363 24.6568 33.0121 24.6568C35.2879 24.6568 37.1324 26.5014 37.1324 28.7771C37.1324 31.0529 35.2879 32.8975 33.0121 32.8975Z" fill="#1F2551"/>
  <defs>
    <filter id="filter0_d_684_29569" x="0" y="0" width="66" height="66" filterUnits="userSpaceOnUse" color-interpolation-filters="sRGB">
      <feFlood flood-opacity="0" result="BackgroundImageFix"/>
      <feColorMatrix in="SourceAlpha" type="matrix" values="0 0 0 0 0 0 0 0 0 0 0 0 0 0 0 0 0 0 127 0" result="hardAlpha"/>
      <feMorphology radius="1" operator="erode" in="SourceAlpha" result="effect1_dropShadow_684_29569"/>
      <feOffset dy="4"/>
      <feGaussianBlur stdDeviation="8"/>
      <feComposite in2="hardAlpha" operator="out"/>
      <feColorMatrix type="matrix" values="0 0 0 0 0 0 0 0 0 0 0 0 0 0 0 0 0 0 0.1 0"/>
      <feBlend mode="normal" in2="BackgroundImageFix" result="effect1_dropShadow_684_29569"/>
      <feBlend mode="normal" in="SourceGraphic" in2="effect1_dropShadow_684_29569" result="shape"/>
    </filter>
  </defs>
</svg>
