<svg width="349" height="271" viewBox="0 0 349 271" fill="none" xmlns="http://www.w3.org/2000/svg">
<g clip-path="url(#clip0_5443_13194)">
<path d="M337.438 0H32.8285C29.9991 0.00340685 27.2866 1.1289 25.2859 3.12961C23.2851 5.13031 22.1597 7.84287 22.1562 10.6723V196.283C22.1597 199.112 23.2851 201.825 25.2859 203.825C27.2866 205.826 29.9991 206.952 32.8285 206.955H337.438C340.268 206.952 342.98 205.826 344.981 203.825C346.982 201.825 348.107 199.112 348.111 196.283V10.6723C348.107 7.84287 346.982 5.13031 344.981 3.12961C342.98 1.1289 340.268 0.0034081 337.438 0ZM347.17 196.283C347.17 197.561 346.918 198.826 346.429 200.007C345.94 201.188 345.223 202.26 344.319 203.164C343.416 204.068 342.343 204.785 341.162 205.274C339.982 205.763 338.716 206.014 337.438 206.014H32.8285C30.2476 206.014 27.7723 204.989 25.9473 203.164C24.1222 201.339 23.097 198.864 23.097 196.283V74.1631C23.097 64.5474 24.9909 55.0258 28.6707 46.1421C32.3504 37.2583 37.744 29.1864 44.5433 22.387C51.3426 15.5877 59.4146 10.1942 68.2983 6.51442C77.1821 2.83466 86.7036 0.940704 96.3193 0.940705H337.438C338.716 0.940705 339.982 1.19242 341.162 1.68148C342.343 2.17054 343.416 2.88736 344.319 3.79102C345.223 4.69468 345.94 5.76749 346.429 6.94818C346.918 8.12887 347.17 9.39433 347.17 10.6723V196.283Z" fill="#3F3D56"/>
<path d="M319.331 157.912H179.81C178.362 157.91 176.974 157.334 175.95 156.31C174.925 155.286 174.349 153.897 174.348 152.449V107.138C174.349 105.689 174.925 104.301 175.95 103.277C176.974 102.253 178.362 101.676 179.81 101.675H319.331C320.779 101.676 322.168 102.253 323.192 103.277C324.216 104.301 324.792 105.689 324.794 107.138V152.449C324.792 153.897 324.216 155.286 323.192 156.31C322.168 157.334 320.779 157.91 319.331 157.912Z" fill="#E6E6E6"/>
<path d="M101.787 29.965C104.032 29.965 105.852 28.1046 105.852 25.8096C105.852 23.5147 104.032 21.6543 101.787 21.6543C99.5425 21.6543 97.7227 23.5147 97.7227 25.8096C97.7227 28.1046 99.5425 29.965 101.787 29.965Z" fill="#3F3D56"/>
<path d="M87.7444 29.965C89.9893 29.965 91.8092 28.1046 91.8092 25.8096C91.8092 23.5147 89.9893 21.6543 87.7444 21.6543C85.4995 21.6543 83.6797 23.5147 83.6797 25.8096C83.6797 28.1046 85.4995 29.965 87.7444 29.965Z" fill="#3F3D56"/>
<path d="M73.7015 29.965C75.9464 29.965 77.7662 28.1046 77.7662 25.8096C77.7662 23.5147 75.9464 21.6543 73.7015 21.6543C71.4566 21.6543 69.6367 23.5147 69.6367 25.8096C69.6367 28.1046 71.4566 29.965 73.7015 29.965Z" fill="#3F3D56"/>
<path d="M234.601 68.2519H177.752C176.814 68.2519 175.914 67.8792 175.251 67.2159C174.587 66.5526 174.215 65.6529 174.215 64.7148C174.215 63.7767 174.587 62.8771 175.251 62.2137C175.914 61.5504 176.814 61.1777 177.752 61.1777H234.601C235.539 61.1777 236.439 61.5504 237.102 62.2137C237.766 62.8771 238.138 63.7767 238.138 64.7148C238.138 65.6529 237.766 66.5526 237.102 67.2159C236.439 67.8792 235.539 68.2519 234.601 68.2519Z" fill="#E6E6E6"/>
<path d="M278.966 80.2236H177.752C176.814 80.2236 175.914 79.8509 175.251 79.1876C174.587 78.5242 174.215 77.6246 174.215 76.6865C174.215 75.7484 174.587 74.8487 175.251 74.1854C175.914 73.5221 176.814 73.1494 177.752 73.1494H278.966C279.905 73.1494 280.804 73.5221 281.468 74.1854C282.131 74.8487 282.504 75.7484 282.504 76.6865C282.504 77.6246 282.131 78.5242 281.468 79.1876C280.804 79.8509 279.905 80.2236 278.966 80.2236Z" fill="#E6E6E6"/>
<path d="M76.3447 264.844L81.0901 264.844L83.3473 246.54L76.3438 246.54L76.3447 264.844Z" fill="#FFB6B6"/>
<path d="M76.176 269.795L90.7687 269.794V269.61C90.7686 268.104 90.1701 266.659 89.1049 265.594C88.0398 264.529 86.5952 263.93 85.0888 263.93L82.4229 261.908L77.4496 263.93L76.1758 263.93L76.176 269.795Z" fill="#2F2E41"/>
<path d="M48.915 264.844L53.6604 264.844L55.9176 246.54L48.9141 246.54L48.915 264.844Z" fill="#FFB6B6"/>
<path d="M48.7463 269.795L63.339 269.794V269.61C63.3389 268.104 62.7404 266.659 61.6753 265.594C60.6101 264.529 59.1655 263.93 57.6591 263.93L54.9932 261.908L50.0199 263.93L48.7461 263.93L48.7463 269.795Z" fill="#2F2E41"/>
<path d="M108.309 143.315L92.1406 128.152L96.5197 120.816L112.465 139.051C113.411 138.956 114.364 139.154 115.194 139.619C116.023 140.084 116.69 140.793 117.103 141.65C117.516 142.506 117.655 143.469 117.502 144.408C117.349 145.346 116.911 146.215 116.247 146.896C115.583 147.577 114.726 148.037 113.791 148.214C112.857 148.391 111.89 148.276 111.024 147.885C110.157 147.494 109.431 146.846 108.945 146.028C108.46 145.21 108.237 144.263 108.309 143.315Z" fill="#FFB6B6"/>
<path d="M44.271 165.39C44.271 165.39 42.2639 183.455 46.6128 200.516L44.9748 208.763L48.6199 256.048H57.4678L63.6738 178.102L75.2585 256.048H84.5516L83.411 213.228L87.4333 172.081L85.7527 162.714L44.271 165.39Z" fill="#2F2E41"/>
<path d="M68.7216 95.0107H48.9668L45.6445 103.457L46.4462 170.24C46.4462 170.24 85.5861 170.24 88.2624 167.564L79.8991 138.46L76.8884 101.327L68.7216 95.0107Z" fill="#1F2551"/>
<path d="M79.5619 100.993L93.6122 116.047L98.6299 119.392L99.9681 123.741L94.2811 133.442L87.9252 131.101L85.9182 123.741L74.1236 114.099L72.8711 98.6514L79.5619 100.993Z" fill="#2F2E41"/>
<path d="M66.8789 95.4895L69.1907 105.359L72.3712 140.635L76.7201 167.397H89.2663L81.7378 138.293L78.7271 100.826L68.6912 94.8047L66.8789 95.4895Z" fill="#2F2E41"/>
<path d="M50.7661 95.4895L54.3065 106.848L59.9935 144.315L51.2958 171.077L42.8511 171.209L40.6536 162.907L45.6087 141.639L38.918 100.826L48.9539 94.8047L50.7661 95.4895Z" fill="#2F2E41"/>
<path d="M58.0758 91.6662C64.689 91.6662 70.05 86.3052 70.05 79.692C70.05 73.0788 64.689 67.7178 58.0758 67.7178C51.4626 67.7178 46.1016 73.0788 46.1016 79.692C46.1016 86.3052 51.4626 91.6662 58.0758 91.6662Z" fill="#FFB6B6"/>
<path d="M51.1673 85.6196C51.1673 85.6196 50.5921 86.4919 51.7026 90.1934L46.6117 86.1061L46.0548 81.6176C46.0548 81.6176 43.4638 72.364 52.3472 67.9223C52.3472 67.9223 60.1202 63.8508 67.523 69.773C67.523 69.773 70.4841 70.1432 70.114 70.5133C69.7439 70.8835 67.8931 71.9939 69.7438 71.6237C71.5945 71.2536 72.705 69.4029 72.705 70.5133C72.705 71.6237 69.3737 74.2147 69.3737 74.2147C69.3737 74.2147 70.6692 77.7311 61.7858 72.9192C60.8356 75.2947 59.0051 77.2116 56.676 78.2703L56.961 78.5486L54.7531 83.2832C54.7531 83.2832 52.4628 80.2526 51.1673 85.6196Z" fill="#2F2E41"/>
<path d="M52.1056 179.057L92.3359 88.3468C92.7546 87.4056 93.5296 86.669 94.4907 86.2985C95.4518 85.9279 96.5207 85.9538 97.4628 86.3703L126.923 99.4357C127.864 99.8544 128.6 100.629 128.971 101.59C129.341 102.552 129.316 103.62 128.899 104.563L88.6687 195.273C88.25 196.214 87.4751 196.951 86.514 197.322C85.5528 197.692 84.484 197.666 83.5418 197.25L54.0821 184.184C53.141 183.766 52.4043 182.991 52.0338 182.03C51.6633 181.068 51.6891 180 52.1056 179.057Z" fill="white"/>
<path d="M52.1056 179.057L92.3359 88.3468C92.7546 87.4056 93.5296 86.669 94.4907 86.2985C95.4518 85.9279 96.5207 85.9538 97.4628 86.3703L126.923 99.4357C127.864 99.8544 128.6 100.629 128.971 101.59C129.341 102.552 129.316 103.62 128.899 104.563L88.6687 195.273C88.25 196.214 87.4751 196.951 86.514 197.322C85.5528 197.692 84.484 197.666 83.5418 197.25L54.0821 184.184C53.141 183.766 52.4043 182.991 52.0338 182.03C51.6633 181.068 51.6891 180 52.1056 179.057ZM128.274 104.285C128.617 103.509 128.639 102.628 128.333 101.836C128.028 101.044 127.421 100.406 126.645 100.061L97.1856 86.9953C96.4093 86.652 95.5285 86.6307 94.7365 86.9361C93.9445 87.2414 93.306 87.8484 92.9609 88.624L52.7306 179.335C52.3874 180.111 52.3661 180.992 52.6714 181.784C52.9768 182.576 53.5838 183.214 54.3593 183.559L83.819 196.625C84.5954 196.968 85.4761 196.989 86.2681 196.684C87.0601 196.379 87.6987 195.772 88.0437 194.996L128.274 104.285Z" fill="#3F3D56"/>
<path d="M96.0812 141.967C104.395 141.967 111.135 135.227 111.135 126.913C111.135 118.599 104.395 111.859 96.0812 111.859C87.7672 111.859 81.0273 118.599 81.0273 126.913C81.0273 135.227 87.7672 141.967 96.0812 141.967Z" fill="#CCCCCC"/>
<path d="M88.757 158.481C97.071 158.481 103.811 151.741 103.811 143.427C103.811 135.113 97.071 128.373 88.757 128.373C80.443 128.373 73.7031 135.113 73.7031 143.427C73.7031 151.741 80.443 158.481 88.757 158.481Z" fill="#3F3D56"/>
<path d="M75.3335 173.701C73.5264 172.899 71.8948 171.75 70.5319 170.318C69.1691 168.886 68.1016 167.199 67.3905 165.355C66.6794 163.51 66.3385 161.544 66.3874 159.567C66.4363 157.591 66.874 155.644 67.6755 153.836C68.4769 152.029 69.6265 150.398 71.0585 149.035C72.4906 147.672 74.177 146.605 76.0216 145.893C77.8661 145.182 79.8327 144.841 81.809 144.89C83.7853 144.939 85.7326 145.377 87.5398 146.178C95.1399 149.549 103.474 166.837 95.1978 166.043C85.7205 165.133 82.9336 177.071 75.3335 173.701Z" fill="#1F2551"/>
<path d="M55.0835 164.771L43.3203 135.462L52.7274 137.343L60.578 162.476C61.4859 162.76 62.2848 163.315 62.8661 164.068C63.4474 164.82 63.7831 165.734 63.8275 166.684C63.8719 167.634 63.6229 168.574 63.1143 169.378C62.6057 170.182 61.8621 170.809 60.9845 171.176C60.1069 171.542 59.1379 171.63 58.2088 171.427C57.2797 171.223 56.4357 170.739 55.7913 170.04C55.1469 169.34 54.7333 168.46 54.6067 167.517C54.4801 166.574 54.6466 165.616 55.0835 164.771Z" fill="#FFB6B6"/>
<path d="M36.0389 107.976C35.3541 115.531 36.7724 122.165 39.316 128.305L39.6426 133.767L42.2576 137.491L53.4084 138.946L55.4557 132.49L50.8726 126.391L50.4872 111.162L39.0521 100.701L36.0389 107.976Z" fill="#2F2E41"/>
<path d="M25.5197 261.978C25.3011 261.988 25.0846 261.931 24.8997 261.814C24.7148 261.697 24.5703 261.526 24.4859 261.324C24.4015 261.122 24.3812 260.899 24.4277 260.685C24.4742 260.471 24.5854 260.277 24.7461 260.128L24.8192 259.837C24.8096 259.814 24.7999 259.791 24.7902 259.768C24.5699 259.247 24.2009 258.804 23.7293 258.493C23.2578 258.182 22.7049 258.017 22.1399 258.019C21.575 258.021 21.0233 258.19 20.5541 258.504C20.0849 258.819 19.7191 259.265 19.5028 259.787C18.638 261.87 17.537 263.956 17.2659 266.159C17.1465 267.132 17.1968 268.119 17.4147 269.075C15.3836 264.644 14.3289 259.829 14.3221 254.955C14.3217 253.732 14.3896 252.509 14.5256 251.294C14.638 250.297 14.794 249.308 14.9935 248.326C16.0821 242.996 18.4195 238.001 21.8137 233.75C23.4564 232.853 24.785 231.475 25.6202 229.8C25.9228 229.198 26.1367 228.556 26.2552 227.893C26.0698 227.917 25.5564 225.095 25.6962 224.922C25.4379 224.53 24.9757 224.335 24.6937 223.952C23.2909 222.051 21.3583 222.383 20.3494 224.967C18.1941 226.055 18.1733 227.859 19.4957 229.594C20.3371 230.698 20.4527 232.191 21.1909 233.373C21.1149 233.47 21.0359 233.564 20.96 233.662C19.5716 235.447 18.3616 237.364 17.3472 239.385C17.5939 237.121 17.2995 234.83 16.4882 232.702C15.6659 230.718 14.1247 229.047 12.7675 227.333C12.4085 226.872 11.921 226.528 11.3666 226.344C10.8123 226.161 10.2159 226.146 9.65288 226.301C9.08988 226.456 8.58553 226.775 8.20358 227.216C7.82164 227.658 7.57925 228.203 7.50704 228.783C7.50426 228.808 7.50155 228.833 7.4989 228.859C7.7005 228.972 7.89783 229.093 8.0909 229.221C8.33346 229.383 8.5214 229.614 8.63011 229.885C8.73882 230.156 8.76322 230.453 8.70011 230.738C8.63701 231.023 8.48935 231.282 8.27647 231.481C8.0636 231.681 7.79544 231.811 7.50713 231.856L7.47761 231.86C7.54942 232.587 7.67636 233.307 7.85734 234.014C6.11619 240.748 9.8752 243.2 15.2426 243.31C15.361 243.371 15.4765 243.432 15.595 243.489C14.5758 246.378 13.9366 249.386 13.6932 252.439C13.5555 254.24 13.5636 256.05 13.7175 257.85L13.7084 257.786C13.3195 255.785 12.2518 253.979 10.6857 252.673C8.35948 250.762 5.07302 250.059 2.56349 248.523C2.29679 248.351 1.98667 248.26 1.66973 248.259C1.35279 248.258 1.04223 248.348 0.774692 248.518C0.507154 248.688 0.293793 248.931 0.159775 249.218C0.0257571 249.506 -0.0233281 249.825 0.0183091 250.139L0.0285722 250.206C0.402673 250.359 0.766917 250.534 1.11919 250.732C1.32077 250.846 1.51811 250.966 1.71119 251.094C1.95374 251.256 2.14169 251.488 2.2504 251.758C2.35911 252.029 2.38352 252.326 2.32042 252.611C2.25732 252.896 2.10966 253.155 1.89679 253.354C1.68391 253.554 1.41576 253.684 1.12745 253.729L1.0979 253.733C1.07664 253.736 1.05839 253.739 1.03717 253.743C1.67637 255.269 2.5735 256.674 3.68928 257.895C4.77797 263.773 9.45392 264.331 14.4558 262.619H14.4588C15.0076 265.004 15.8027 267.325 16.8314 269.546H25.3073C25.3377 269.452 25.365 269.354 25.3924 269.26C24.6078 269.31 23.8202 269.263 23.0471 269.121C23.6759 268.349 24.3048 267.571 24.9336 266.8C24.9477 266.785 24.9609 266.77 24.9732 266.754C25.2921 266.359 25.6142 265.967 25.9331 265.572L25.9333 265.572C25.9503 264.361 25.8111 263.153 25.5197 261.978Z" fill="#F2F2F2"/>
<path d="M120.321 269.571C120.322 269.645 120.307 269.718 120.279 269.786C120.251 269.854 120.21 269.916 120.158 269.968C120.106 270.02 120.044 270.061 119.976 270.089C119.908 270.117 119.835 270.131 119.762 270.131H0.626126C0.477679 270.131 0.335312 270.072 0.230344 269.967C0.125376 269.862 0.0664063 269.72 0.0664062 269.571C0.0664063 269.423 0.125376 269.281 0.230344 269.176C0.335312 269.071 0.477679 269.012 0.626126 269.012H119.762C119.835 269.012 119.908 269.026 119.976 269.054C120.044 269.082 120.106 269.123 120.158 269.175C120.21 269.227 120.251 269.289 120.279 269.357C120.307 269.425 120.322 269.498 120.321 269.571Z" fill="#CCCCCC"/>
</g>
<defs>
<clipPath id="clip0_5443_13194">
<rect width="348.109" height="270.131" fill="white"/>
</clipPath>
</defs>
</svg>
