<svg width="260" height="272" viewBox="0 0 260 272" fill="none" xmlns="http://www.w3.org/2000/svg">
<g clip-path="url(#clip0_5124_51868)">
<path d="M100.554 272C156.088 272 201.107 264.047 201.107 254.236C201.107 244.425 156.088 236.472 100.554 236.472C45.0194 236.472 0 244.425 0 254.236C0 264.047 45.0194 272 100.554 272Z" fill="#3F3D56"/>
<path d="M161.668 196.544C215.942 196.544 259.94 152.546 259.94 98.272C259.94 43.9979 215.942 0 161.668 0C107.394 0 63.396 43.9979 63.396 98.272C63.396 152.546 107.394 196.544 161.668 196.544Z" fill="#3F3D56"/>
<path opacity="0.05" d="M161.668 179.399C206.473 179.399 242.795 143.077 242.795 98.2722C242.795 53.4672 206.473 17.1455 161.668 17.1455C116.863 17.1455 80.5415 53.4672 80.5415 98.2722C80.5415 143.077 116.863 179.399 161.668 179.399Z" fill="black"/>
<path opacity="0.05" d="M161.668 164.762C198.39 164.762 228.158 134.993 228.158 98.2717C228.158 61.55 198.39 31.7812 161.668 31.7812C124.946 31.7812 95.1775 61.55 95.1775 98.2717C95.1775 134.993 124.946 164.762 161.668 164.762Z" fill="black"/>
<path opacity="0.05" d="M161.668 145.944C187.997 145.944 209.34 124.601 209.34 98.272C209.34 71.9433 187.997 50.5996 161.668 50.5996C135.339 50.5996 113.996 71.9433 113.996 98.272C113.996 124.601 135.339 145.944 161.668 145.944Z" fill="black"/>
<path d="M64.2663 107.067C64.2663 107.067 56.5401 128.815 59.974 136.541C63.4078 144.267 68.8447 151.707 68.8447 151.707C68.8447 151.707 66.8417 108.498 64.2663 107.067Z" fill="#D0CDE1"/>
<path opacity="0.1" d="M64.2663 107.067C64.2663 107.067 56.5401 128.815 59.974 136.541C63.4078 144.267 68.8447 151.707 68.8447 151.707C68.8447 151.707 66.8417 108.498 64.2663 107.067Z" fill="black"/>
<path d="M69.7035 157.43C69.7035 157.43 69.1312 162.867 68.845 163.153C68.5589 163.439 69.1312 164.011 68.845 164.87C68.5589 165.728 68.2727 166.873 68.845 167.159C69.4173 167.445 65.6973 192.627 65.6973 192.627C65.6973 192.627 56.5404 204.645 60.2604 223.531L61.405 242.704C61.405 242.704 70.2758 243.276 70.2758 240.128C70.2758 240.128 69.7035 236.408 69.7035 234.691C69.7035 232.974 71.1342 232.974 70.2758 232.116C69.4173 231.257 69.4173 230.685 69.4173 230.685C69.4173 230.685 70.8481 229.54 70.5619 229.254C70.2758 228.968 73.1373 208.651 73.1373 208.651C73.1373 208.651 76.285 205.504 76.285 203.787V202.07C76.285 202.07 77.7158 198.35 77.7158 198.064C77.7158 197.777 85.4419 180.322 85.4419 180.322L88.5896 192.913L92.0235 210.94C92.0235 210.94 93.7404 227.251 97.1742 233.547C97.1742 233.547 103.183 254.15 103.183 253.577C103.183 253.005 113.199 251.574 112.913 248.999C112.627 246.424 106.903 210.368 106.903 210.368L108.334 156.857L69.7035 157.43Z" fill="#2F2E41"/>
<path d="M61.9771 241.273C61.9771 241.273 54.2509 256.439 59.4017 257.011C64.5524 257.583 66.5555 257.583 68.8448 255.294C70.0963 254.043 72.6307 252.364 74.6712 251.098C75.8803 250.361 76.857 249.297 77.4894 248.03C78.1217 246.763 78.3841 245.343 78.2465 243.934C78.0956 242.534 77.5724 241.38 76.2848 241.273C72.8509 240.987 68.8448 237.839 68.8448 237.839L61.9771 241.273Z" fill="#2F2E41"/>
<path d="M104.614 252.433C104.614 252.433 96.8879 267.599 102.039 268.171C107.189 268.744 109.192 268.744 111.482 266.454C112.733 265.203 115.268 263.524 117.308 262.259C118.517 261.521 119.494 260.458 120.126 259.19C120.759 257.923 121.021 256.503 120.883 255.094C120.733 253.694 120.209 252.54 118.922 252.433C115.488 252.147 111.482 248.999 111.482 248.999L104.614 252.433Z" fill="#2F2E41"/>
<path d="M96.4483 82.2481C103.092 82.2481 108.477 76.8626 108.477 70.2193C108.477 63.5759 103.092 58.1904 96.4483 58.1904C89.8049 58.1904 84.4194 63.5759 84.4194 70.2193C84.4194 76.8626 89.8049 82.2481 96.4483 82.2481Z" fill="#FFB8B8"/>
<path d="M88.7155 74.1714C88.7155 74.1714 80.1235 89.9807 79.4361 89.9807C78.7488 89.9807 94.9018 95.1359 94.9018 95.1359C94.9018 95.1359 99.3696 80.014 100.057 78.6392L88.7155 74.1714Z" fill="#FFB8B8"/>
<path d="M101.896 91.4719C101.896 91.4719 84.7266 82.0288 83.0096 82.315C81.2927 82.6011 62.9789 98.6257 63.265 105.207C63.5512 111.789 65.8404 122.663 65.8404 122.663C65.8404 122.663 66.6989 152.995 68.4158 153.281C70.1327 153.567 68.1296 158.718 68.702 158.718C69.2743 158.718 108.763 158.718 109.05 157.86C109.336 157.001 101.896 91.4719 101.896 91.4719Z" fill="#D0CDE1"/>
<path d="M111.482 159.433C111.482 159.433 116.919 176.03 112.34 175.458C107.762 174.885 105.759 161.15 105.759 161.15L111.482 159.433Z" fill="#FFB8B8"/>
<path d="M96.8877 90.4697C96.8877 90.4697 86.3 92.7589 88.0169 107.067C89.7339 121.374 92.8815 135.682 92.8815 135.682L103.469 158.86L104.614 163.153L112.34 161.15L106.617 127.956C106.617 127.956 104.614 92.4728 102.038 91.3282C100.414 90.6358 98.6485 90.3415 96.8877 90.4697Z" fill="#D0CDE1"/>
<path opacity="0.1" d="M90.4492 135.253L103.612 158.717L92.5222 133.992L90.4492 135.253Z" fill="black"/>
<path d="M108.424 66.6768L108.464 65.7576L110.292 66.2127C110.273 65.9176 110.189 65.6303 110.048 65.3706C109.906 65.1108 109.71 64.8849 109.473 64.7084L111.421 64.5995C109.786 62.2769 107.698 60.3097 105.282 58.8167C102.866 57.3236 100.173 56.3357 97.3644 55.9127C93.1513 55.302 88.4602 56.1857 85.5711 59.3124C84.1698 60.829 83.2893 62.7577 82.6629 64.7253C81.5093 68.3492 81.2743 72.6692 83.6798 75.6149C86.1245 78.6087 90.3949 79.1952 94.2423 79.5657C95.596 79.6961 97.0147 79.8174 98.2692 79.2921C98.4088 77.8532 98.2246 76.4013 97.7301 75.0428C97.5242 74.6223 97.4258 74.1573 97.4437 73.6894C97.6147 72.5448 99.1414 72.2564 100.288 72.4111C101.435 72.5657 102.814 72.8023 103.568 71.924C104.087 71.319 104.056 70.438 104.125 69.6438C104.313 67.4816 108.404 67.13 108.424 66.6768Z" fill="#2F2E41"/>
<path d="M182.202 256.681C189.943 256.681 196.218 250.406 196.218 242.665C196.218 234.924 189.943 228.649 182.202 228.649C174.462 228.649 168.187 234.924 168.187 242.665C168.187 250.406 174.462 256.681 182.202 256.681Z" fill="#1F2551"/>
<path d="M17.601 251.792C25.3416 251.792 31.6166 245.517 31.6166 237.776C31.6166 230.036 25.3416 223.761 17.601 223.761C9.86044 223.761 3.58545 230.036 3.58545 237.776C3.58545 245.517 9.86044 251.792 17.601 251.792Z" fill="#1F2551"/>
<path d="M17.6011 229.302C23.1815 229.302 27.7053 224.778 27.7053 219.198C27.7053 213.617 23.1815 209.093 17.6011 209.093C12.0207 209.093 7.49683 213.617 7.49683 219.198C7.49683 224.778 12.0207 229.302 17.6011 229.302Z" fill="#1F2551"/>
<path d="M17.6009 210.722C21.5612 210.722 24.7717 207.512 24.7717 203.552C24.7717 199.591 21.5612 196.381 17.6009 196.381C13.6406 196.381 10.4302 199.591 10.4302 203.552C10.4302 207.512 13.6406 210.722 17.6009 210.722Z" fill="#1F2551"/>
</g>
<defs>
<clipPath id="clip0_5124_51868">
<rect width="259.94" height="272" fill="white"/>
</clipPath>
</defs>
</svg>
