<svg width="80" height="80" viewBox="0 0 80 80" fill="none" xmlns="http://www.w3.org/2000/svg">
<g filter="url(#filter0_d_663_56039)">
<circle cx="36" cy="36" r="25" transform="rotate(180 36 36)" fill="white"/>
</g>
<path d="M31.0068 35.9998C31.0068 35.8009 31.0859 35.6102 31.2265 35.4695C31.3672 35.3289 31.5579 35.2498 31.7568 35.2498H35.2498V31.7568C35.2498 31.5579 35.3289 31.3672 35.4695 31.2265C35.6102 31.0859 35.8009 31.0068 35.9998 31.0068C36.1987 31.0068 36.3895 31.0859 36.5302 31.2265C36.6708 31.3672 36.7498 31.5579 36.7498 31.7568V35.2498H40.2428C40.4417 35.2498 40.6325 35.3289 40.7732 35.4695C40.9138 35.6102 40.9928 35.8009 40.9928 35.9998C40.9928 36.1987 40.9138 36.3895 40.7732 36.5302C40.6325 36.6708 40.4417 36.7498 40.2428 36.7498H36.7498V40.2428C36.7498 40.4417 36.6708 40.6325 36.5302 40.7732C36.3895 40.9138 36.1987 40.9928 35.9998 40.9928C35.8009 40.9928 35.6102 40.9138 35.4695 40.7732C35.3289 40.6325 35.2498 40.4417 35.2498 40.2428V36.7498H31.7568C31.5579 36.7498 31.3672 36.6708 31.2265 36.5302C31.0859 36.3895 31.0068 36.1987 31.0068 35.9998Z" fill="#1F2551"/>
<path d="M31.3113 27.7189L31.3113 27.7189C29.4626 27.9254 27.9679 29.3822 27.7512 31.2428C27.3815 34.4035 27.3815 37.5966 27.7512 40.7573C27.9679 42.6179 29.4616 44.0737 31.3113 44.2812L31.3113 44.2812C34.4275 44.6267 37.5722 44.6267 40.6884 44.2812L40.6884 44.2812C42.5371 44.0737 44.0308 42.6179 44.2485 40.7574C44.619 37.5965 44.619 34.4036 44.2485 31.2427C44.0317 29.3822 42.5381 27.9254 40.6884 27.7189L40.6884 27.7189C37.5722 27.3734 34.4275 27.3734 31.3113 27.7189ZM31.4884 42.6919L31.4884 42.6919C30.9439 42.6315 30.4357 42.3894 30.0458 42.0046C29.656 41.6199 29.4071 41.1151 29.3395 40.5716C28.9843 37.5346 28.9843 34.4665 29.3395 31.4295C29.4069 30.8858 29.6557 30.3807 30.0455 29.9958C30.4355 29.6109 30.9438 29.3687 31.4884 29.3082C34.472 28.9775 37.4829 28.9759 40.4668 29.3033V29.3053L40.5113 29.3102C41.0554 29.3708 41.5633 29.6128 41.953 29.9974C42.3426 30.3819 42.5914 30.8864 42.6592 31.4296C43.0144 34.4666 43.0144 37.5346 42.6592 40.5716C42.5916 41.1149 42.3429 41.6197 41.9532 42.0044C41.5635 42.3891 41.0556 42.6313 40.5113 42.6919C37.538 43.0234 34.4617 43.0234 31.4884 42.6919Z" fill="#1F2551" stroke="#1F2551" stroke-width="0.1"/>
<defs>
<filter id="filter0_d_663_56039" x="0" y="0" width="80" height="80" filterUnits="userSpaceOnUse" color-interpolation-filters="sRGB">
<feFlood flood-opacity="0" result="BackgroundImageFix"/>
<feColorMatrix in="SourceAlpha" type="matrix" values="0 0 0 0 0 0 0 0 0 0 0 0 0 0 0 0 0 0 127 0" result="hardAlpha"/>
<feOffset dx="4" dy="4"/>
<feGaussianBlur stdDeviation="7.5"/>
<feComposite in2="hardAlpha" operator="out"/>
<feColorMatrix type="matrix" values="0 0 0 0 0.254902 0 0 0 0 0.360784 0 0 0 0 0.670588 0 0 0 0.15 0"/>
<feBlend mode="normal" in2="BackgroundImageFix" result="effect1_dropShadow_663_56039"/>
<feBlend mode="normal" in="SourceGraphic" in2="effect1_dropShadow_663_56039" result="shape"/>
</filter>
</defs>
</svg>
