<svg xmlns="http://www.w3.org/2000/svg" xmlns:xlink="http://www.w3.org/1999/xlink" width="62" height="62" viewBox="0 0 62 62">
  <defs>
    <filter id="Ellipse_1491" x="0" y="0" width="62" height="62" filterUnits="userSpaceOnUse">
      <feOffset input="SourceAlpha"/>
      <feGaussianBlur stdDeviation="3" result="blur"/>
      <feFlood flood-opacity="0.161"/>
      <feComposite operator="in" in2="blur"/>
      <feComposite in="SourceGraphic"/>
    </filter>
  </defs>
  <g id="Group_10225" data-name="Group 10225" transform="translate(-884 -302)">
    <g transform="matrix(1, 0, 0, 1, 884, 302)" filter="url(#Ellipse_1491)">
      <circle id="Ellipse_1491-2" data-name="Ellipse 1491" cx="22" cy="22" r="22" transform="translate(9 9)" fill="#fff"/>
    </g>
    <g id="add-user" transform="translate(880.506 323)">
      <g id="Group_9816" data-name="Group 9816" transform="translate(23.495)">
        <g id="Group_9815" data-name="Group 9815">
          <path id="Path_9007" data-name="Path 9007" d="M12.43,8.3a9.045,9.045,0,0,0-1.018-.39,4.326,4.326,0,0,0,1.844-3.514A4.5,4.5,0,0,0,8.657,0a4.5,4.5,0,0,0-4.6,4.391A4.326,4.326,0,0,0,5.906,7.908,8.919,8.919,0,0,0,3.072,9.4,8.37,8.37,0,0,0,.044,14.166,1.9,1.9,0,0,0,.462,15.81a2.08,2.08,0,0,0,1.59.722h8.329a.646.646,0,1,0,0-1.292H2.053a.7.7,0,0,1-.541-.246.652.652,0,0,1-.143-.566,7.389,7.389,0,0,1,7.109-5.65q.089,0,.179,0t.181,0a7.654,7.654,0,0,1,3.011.683.691.691,0,0,0,.9-.306A.633.633,0,0,0,12.43,8.3ZM8.822,7.487H8.493a3.171,3.171,0,0,1-3.083-3.1,3.179,3.179,0,0,1,3.246-3.1,3.179,3.179,0,0,1,3.246,3.1A3.171,3.171,0,0,1,8.822,7.487Z" transform="translate(0)" fill="#0f1f54"/>
        </g>
      </g>
      <g id="Group_9818" data-name="Group 9818" transform="translate(35.301 8.003)">
        <g id="Group_9817" data-name="Group 9817">
          <path id="Path_9008" data-name="Path 9008" d="M331.476,326.451H328.41v-3.264a1.117,1.117,0,1,0-2.23,0v3.264h-3.066a1.189,1.189,0,0,0,0,2.374h3.066v3.264a1.117,1.117,0,1,0,2.23,0v-3.264h3.066a1.189,1.189,0,0,0,0-2.374Z" transform="translate(-322 -322)" fill="#0f1f54"/>
        </g>
      </g>
    </g>
  </g>
</svg>
