<svg xmlns="http://www.w3.org/2000/svg" width="85" height="80" viewBox="0 0 85 80">
  <g id="Group_2418" data-name="Group 2418" transform="translate(-288 -429)">
    <circle id="Ellipse_182" data-name="Ellipse 182" cx="37" cy="37" r="37" transform="translate(299 429)" fill="#2b31ba" opacity="0.353"/>
    <g id="person" transform="translate(288 440.896)">
      <g id="Group_2411" data-name="Group 2411" transform="translate(0.906 14.648)">
        <g id="Group_2405" data-name="Group 2405">
          <g id="Group_2401" data-name="Group 2401" transform="translate(0 11.377)">
            <path id="Path_3176" data-name="Path 3176" d="M19.919,159.036a1.027,1.027,0,0,1-.727-.985V155.3h-4.1v2.749a1.027,1.027,0,0,1-.727.985A9.647,9.647,0,0,0,7.5,168.273v7.705a2.155,2.155,0,1,0,4.309,0l.009,17.846a2.661,2.661,0,0,0,5.323,0h0a2.661,2.661,0,0,0,5.323,0V175.977h.009a2.155,2.155,0,0,0,4.309,0v-7.705A9.646,9.646,0,0,0,19.919,159.036Z" transform="translate(-7.5 -155.302)" fill="#2b31ba"/>
          </g>
          <g id="Group_2402" data-name="Group 2402" transform="translate(9.514 11.377)">
            <path id="Path_3177" data-name="Path 3177" d="M96,168.271v7.705a2.155,2.155,0,0,1-3.243,1.86,2.125,2.125,0,0,0,.435-.336,2.149,2.149,0,0,0,.631-1.524v-7.705c0-3.522-2.516-5.936-6.074-7.213a2.282,2.282,0,0,1-1.521-2.144V155.3H88.4v2.749a1.026,1.026,0,0,0,.727.984A9.647,9.647,0,0,1,96,168.271Z" transform="translate(-86.228 -155.301)" fill="#2b31ba"/>
          </g>
          <g id="Group_2403" data-name="Group 2403" transform="translate(2.817)">
            <circle id="Ellipse_179" data-name="Ellipse 179" cx="6.673" cy="6.673" r="6.673" fill="#fed2a4"/>
          </g>
          <g id="Group_2404" data-name="Group 2404" transform="translate(6.088 0.176)">
            <path id="Path_3178" data-name="Path 3178" d="M67.956,69.114A6.675,6.675,0,0,1,57.88,74.855a6.674,6.674,0,0,0,4.931-12.238A6.675,6.675,0,0,1,67.956,69.114Z" transform="translate(-57.88 -62.617)" fill="#ffbd86"/>
          </g>
        </g>
        <g id="Group_2410" data-name="Group 2410" transform="translate(40.745)">
          <g id="Group_2406" data-name="Group 2406" transform="translate(0 11.377)">
            <path id="Path_3179" data-name="Path 3179" d="M357.072,159.036a1.027,1.027,0,0,1-.727-.985V155.3h-4.1v2.749a1.027,1.027,0,0,1-.727.985,9.647,9.647,0,0,0-6.867,9.237v7.705a2.155,2.155,0,1,0,4.309,0l.009,17.846a2.661,2.661,0,0,0,5.323,0h0a2.661,2.661,0,0,0,5.323,0V175.977h.009a2.155,2.155,0,1,0,4.309,0v-7.705a9.646,9.646,0,0,0-6.867-9.237Z" transform="translate(-344.653 -155.302)" fill="#2b31ba"/>
          </g>
          <g id="Group_2407" data-name="Group 2407" transform="translate(9.514 11.377)">
            <path id="Path_3180" data-name="Path 3180" d="M433.152,168.271v7.705a2.155,2.155,0,0,1-3.243,1.86,2.127,2.127,0,0,0,.435-.336,2.15,2.15,0,0,0,.631-1.524v-7.705c0-3.522-2.516-5.936-6.074-7.213a2.282,2.282,0,0,1-1.521-2.144V155.3h2.177v2.749a1.026,1.026,0,0,0,.727.984,9.647,9.647,0,0,1,6.868,9.237Z" transform="translate(-423.38 -155.301)" fill="#2b31ba"/>
          </g>
          <g id="Group_2408" data-name="Group 2408" transform="translate(2.817)">
            <circle id="Ellipse_180" data-name="Ellipse 180" cx="6.673" cy="6.673" r="6.673" fill="#fed2a4"/>
          </g>
          <g id="Group_2409" data-name="Group 2409" transform="translate(6.088 0.176)">
            <path id="Path_3181" data-name="Path 3181" d="M405.109,69.114a6.675,6.675,0,0,1-10.076,5.742,6.674,6.674,0,0,0,4.931-12.238A6.675,6.675,0,0,1,405.109,69.114Z" transform="translate(-395.033 -62.617)" fill="#ffbd86"/>
          </g>
        </g>
      </g>
      <g id="Group_2417" data-name="Group 2417" transform="translate(0 8.255)">
        <g id="Group_2412" data-name="Group 2412" transform="translate(12.065 11.469)">
          <path id="Path_3182" data-name="Path 3182" d="M136.9,103.951a2.45,2.45,0,0,0-3.079-.433l-6.081,4.335-2.667,1.588a2.273,2.273,0,0,1-2.093.121,3.091,3.091,0,0,1-1.827-2.82v-.12h-4.713v.024a3.091,3.091,0,0,1-1.827,2.82l-.215.1a2.273,2.273,0,0,1-2.093-.121l-2.667-1.588-6.081-4.335a2.45,2.45,0,0,0-2.6,4.151l10.569,7.478a1.9,1.9,0,0,1,.827,1.566v30.693a3.226,3.226,0,0,0,3.226,3.226q.08,0,.158,0a3.155,3.155,0,0,0,2.954-3.176v.613a3.227,3.227,0,0,0,3.225,2.374,3.271,3.271,0,0,0,3.113-3.293V116.713a1.9,1.9,0,0,1,.827-1.566l10.569-7.478A2.45,2.45,0,0,0,136.9,103.951Z" transform="translate(-99.834 -103.159)" fill="#fff"/>
        </g>
        <g id="Group_2413" data-name="Group 2413" transform="translate(32.834 11.468)">
          <path id="Path_3183" data-name="Path 3183" d="M287.513,107.663l-10.57,7.478a1.9,1.9,0,0,0-.826,1.566v30.433A3.271,3.271,0,0,1,273,150.434a3.188,3.188,0,0,1-1.314-.23,3.311,3.311,0,0,0,2.034-3.063V115.423a1.9,1.9,0,0,1,.828-1.565l10.569-7.478a2.45,2.45,0,0,0,.833-3.216,2.451,2.451,0,0,1,1.56,4.5Z" transform="translate(-271.69 -103.153)" fill="#7277ea"/>
        </g>
        <g id="Group_2414" data-name="Group 2414" transform="translate(23.49 0.907)">
          <circle id="Ellipse_181" data-name="Ellipse 181" cx="7.535" cy="7.535" r="7.535" fill="#dddefa"/>
        </g>
        <g id="Group_2415" data-name="Group 2415" transform="translate(26.065 1.428)">
          <path id="Path_3184" data-name="Path 3184" d="M228.176,27.086a7.532,7.532,0,0,1-12.493,5.669A7.534,7.534,0,0,0,223.4,20.072,7.534,7.534,0,0,1,228.176,27.086Z" transform="translate(-215.683 -20.072)" fill="#fff"/>
        </g>
        <g id="Group_2416" data-name="Group 2416">
          <path id="Path_3185" data-name="Path 3185" d="M59.717,32.643a10.633,10.633,0,0,0-5.386-3.752.12.12,0,0,1-.081-.117v-.542a7.578,7.578,0,1,0-10.661-7.506l-4.112,2.931-2.635,1.569a1.369,1.369,0,0,1-1.258.073,2.185,2.185,0,0,1-1.021-.942,8.441,8.441,0,1,0-7.114-.017A1.934,1.934,0,0,1,25,25.226l-2.635-1.569L17.931,20.5A7.579,7.579,0,1,0,7.594,28.362v.412a.12.12,0,0,1-.081.117,10.633,10.633,0,0,0-5.386,3.752A10.456,10.456,0,0,0,0,39V46.7a3.059,3.059,0,0,0,4.318,2.789v3.784a.906.906,0,0,0,1.813,0V37.857a.906.906,0,1,0-1.813,0L4.309,46.7a1.248,1.248,0,0,1-2.5,0V39a8.657,8.657,0,0,1,1.761-5.26,8.806,8.806,0,0,1,4.461-3.108A1.944,1.944,0,0,0,9.4,28.835a7.429,7.429,0,0,0,2.288-.046,1.944,1.944,0,0,0,1.372,1.839,8.807,8.807,0,0,1,4.461,3.108A8.657,8.657,0,0,1,19.286,39V46.7a1.253,1.253,0,0,1-2.506,0V37.992a.906.906,0,0,0-1.813,0V64.547a1.755,1.755,0,0,1-3.51,0V48.315a.906.906,0,0,0-1.813,0l0,16.233a1.755,1.755,0,0,1-3.51,0V57.521a.906.906,0,1,0-1.813,0v7.026a3.569,3.569,0,0,0,6.231,2.364,3.569,3.569,0,0,0,6.231-2.364V49.491A3.059,3.059,0,0,0,21.1,46.7V39a10.456,10.456,0,0,0-2.127-6.353,10.632,10.632,0,0,0-5.386-3.752.12.12,0,0,1-.081-.117v-.543a7.62,7.62,0,0,0,1.956-1.28l7.773,5.5.013.009a.989.989,0,0,1,.431.817V63.971A4.137,4.137,0,0,0,27.81,68.1q.1,0,.2,0a3.973,3.973,0,0,0,2.953-1.545,4.122,4.122,0,0,0,3.213,1.357,4.2,4.2,0,0,0,3.988-4.2V39.937a.906.906,0,0,0-1.813,0V63.711A2.374,2.374,0,0,1,34.117,66.1a2.312,2.312,0,0,1-2.288-1.6V45.655a.906.906,0,0,0-1.813,0V64.017a2.236,2.236,0,0,1-2.091,2.271l-.115,0a2.322,2.322,0,0,1-2.32-2.32V33.278a2.8,2.8,0,0,0-1.215-2.309L13.712,23.494l-.033-.022a1.544,1.544,0,0,1,1.615-2.631l6.051,4.314c.02.015.041.028.063.041l2.667,1.588a3.744,3.744,0,0,0,5.111-1.851,8.391,8.391,0,0,0,3.645.007,4,4,0,0,0,2.01,2.013,3.183,3.183,0,0,0,2.927-.169L40.436,25.2q.032-.019.063-.041l6.051-4.314a1.544,1.544,0,0,1,1.615,2.63l-.033.022L37.569,30.968a2.8,2.8,0,0,0-1.215,2.309v2.43a.906.906,0,0,0,1.813,0v-2.43a.988.988,0,0,1,.431-.817l.013-.009,7.6-5.38a7.606,7.606,0,0,0,2.126,1.289v.413a.12.12,0,0,1-.081.117,10.633,10.633,0,0,0-5.386,3.752A10.456,10.456,0,0,0,40.745,39V46.7a3.064,3.064,0,0,0,3.061,3.061,3.124,3.124,0,0,0,1.258-.263V64.547a3.569,3.569,0,0,0,6.231,2.364,3.569,3.569,0,0,0,6.231-2.364V49.491A3.059,3.059,0,0,0,61.844,46.7V39a10.456,10.456,0,0,0-2.127-6.353ZM12.045,19.9a3.357,3.357,0,0,0,.634,5.083l1.255.888a5.765,5.765,0,1,1,1.754-6.841A3.366,3.366,0,0,0,12.045,19.9Zm18.979,3.423A6.628,6.628,0,1,1,37.653,16.7,6.636,6.636,0,0,1,31.025,23.324Zm16.728,2.659,1.412-1A3.355,3.355,0,0,0,45.784,19.2a5.77,5.77,0,1,1,1.969,6.786ZM60.031,46.7a1.248,1.248,0,1,1-2.5,0c0-.042-.009-8.709-.009-8.709a.906.906,0,0,0-1.813,0V64.547a1.755,1.755,0,0,1-3.51,0V48.315a.906.906,0,0,0-.906-.906h0a.906.906,0,0,0-.906.906l0,16.233a1.755,1.755,0,0,1-3.51,0V37.857a.906.906,0,1,0-1.813,0v9.07a1.237,1.237,0,0,1-1.258,1.023A1.25,1.25,0,0,1,42.558,46.7V39a8.657,8.657,0,0,1,1.761-5.26,8.806,8.806,0,0,1,4.461-3.108,1.944,1.944,0,0,0,1.37-1.792,7.492,7.492,0,0,0,2.288-.047,1.944,1.944,0,0,0,1.372,1.839,8.807,8.807,0,0,1,4.461,3.108A8.657,8.657,0,0,1,60.031,39V46.7Z" transform="translate(0 -8.255)" fill="#0a0f80"/>
          <path id="Path_3186" data-name="Path 3186" d="M241.376,98.5a.906.906,0,0,0-1.269.178.952.952,0,0,1-1.519,0,.906.906,0,0,0-1.443,1.1,2.765,2.765,0,0,0,4.408-.009A.906.906,0,0,0,241.376,98.5Z" transform="translate(-208.323 -87.431)" fill="#0a0f80"/>
        </g>
      </g>
    </g>
  </g>
</svg>
