<svg xmlns="http://www.w3.org/2000/svg" width="57.248" height="55.683" viewBox="0 0 57.248 55.683">
  <g id="check" transform="translate(23.637 -137.121)">
    <path id="Path_9013" data-name="Path 9013" d="M111.009,82.152h0a1.907,1.907,0,0,1-1.472-.678l-10.1-11.122a2.048,2.048,0,0,1,.134-2.848,1.983,1.983,0,0,1,2.811.136l8.7,9.562,24.09-24.346a1.923,1.923,0,0,1,2.811,0,2.045,2.045,0,0,1,0,2.848L112.414,81.542A1.811,1.811,0,0,1,111.009,82.152Z" transform="translate(-108.556 93.527)" fill="#2e8637"/>
    <path id="Path_9014" data-name="Path 9014" d="M28.226,54.745C12.735,54.725.058,42.406.037,27.355S12.661.016,28.151.036a2.063,2.063,0,1,1,.006,4.124C15,4.143,4.264,14.576,4.281,27.36S15.064,50.6,28.22,50.621,52.113,40.2,52.1,27.42a2.123,2.123,0,0,1,4.244.005C56.36,42.478,43.716,54.764,28.226,54.745Z" transform="translate(-23.675 138.069) rotate(-1)" fill="#2e8637"/>
  </g>
</svg>
