<svg xmlns="http://www.w3.org/2000/svg" width="248.25" height="185" viewBox="0 0 248.25 185">
  <g id="Group_5144" data-name="Group 5144" transform="translate(0 -54.953)">
    <g id="Background_Complete" data-name="Background Complete" transform="translate(0 54.953)">
      <g id="Group_5122" data-name="Group 5122">
        <g id="Group_5120" data-name="Group 5120">
          <rect id="Rectangle_2575" data-name="Rectangle 2575" width="248.25" height="0.124" transform="translate(0 162.577)" fill="#ebebeb"/>
          <path id="Path_5886" data-name="Path 5886" d="M136.915,195.387H41.041a2.837,2.837,0,0,1-2.834-2.834V57.787a2.837,2.837,0,0,1,2.834-2.834h95.874a2.837,2.837,0,0,1,2.834,2.834V192.553A2.837,2.837,0,0,1,136.915,195.387ZM41.041,55.077a2.713,2.713,0,0,0-2.71,2.709V192.553a2.713,2.713,0,0,0,2.71,2.71h95.874a2.713,2.713,0,0,0,2.709-2.71V57.787a2.712,2.712,0,0,0-2.709-2.709Z" transform="translate(-19.237 -54.953)" fill="#ebebeb"/>
          <path id="Path_5887" data-name="Path 5887" d="M353.212,195.387H257.339a2.837,2.837,0,0,1-2.834-2.834V57.787a2.837,2.837,0,0,1,2.834-2.834h95.873a2.837,2.837,0,0,1,2.835,2.834V192.553A2.838,2.838,0,0,1,353.212,195.387ZM257.339,55.077a2.712,2.712,0,0,0-2.709,2.709V192.553a2.713,2.713,0,0,0,2.709,2.71h95.873a2.713,2.713,0,0,0,2.71-2.71V57.787a2.713,2.713,0,0,0-2.71-2.709Z" transform="translate(-128.143 -54.953)" fill="#ebebeb"/>
        </g>
        <g id="Group_5121" data-name="Group 5121" transform="translate(26.046 165.958)">
          <rect id="Rectangle_2576" data-name="Rectangle 2576" width="15.673" height="0.124" transform="translate(181.657 1.347)" fill="#ebebeb"/>
          <rect id="Rectangle_2577" data-name="Rectangle 2577" width="16.587" height="0.124" transform="translate(123.86 0)" fill="#ebebeb"/>
          <rect id="Rectangle_2578" data-name="Rectangle 2578" width="30.998" height="0.124" transform="translate(170.859 5.958)" fill="#ebebeb"/>
          <rect id="Rectangle_2579" data-name="Rectangle 2579" width="9.55" height="0.124" transform="translate(0 5.124)" fill="#ebebeb"/>
          <rect id="Rectangle_2580" data-name="Rectangle 2580" width="15.04" height="0.124" transform="translate(13.97 5.124)" fill="#ebebeb"/>
          <rect id="Rectangle_2581" data-name="Rectangle 2581" width="27.087" height="0.124" transform="translate(68.08 3.027)" fill="#ebebeb"/>
        </g>
      </g>
      <g id="Group_5130" data-name="Group 5130" transform="translate(18.722 12.366)">
        <g id="Group_5124" data-name="Group 5124" transform="translate(153.402 4.7)">
          <path id="Path_5888" data-name="Path 5888" d="M401.18,171.7c-5.036-2.111-13.379-.074-20.29,8.306a32.775,32.775,0,0,0-7.1,15.363c.056-6.632.121-13.758.187-20.483a37.874,37.874,0,0,1,3.569-9.463c5.07-10.189,9.26-9.065,16.146-17.037,11.456-13.266,18.021-38.3,6.623-28.321a70.469,70.469,0,0,0-18.8,25.936c-4.694,10.608-6.581,18.009-7.5,25.441.064-6.316.127-12.116.181-16.59.176-14.594.574-19.286.648-20.733a12.686,12.686,0,0,1,1.66-6.059c2.716-4.263,6.979-7.055,11.158-11.914,9.734-11.319,15.353-25.342,10.666-26.641-4.9-1.357-11.343,4.82-18.5,19.319-4.1,8.312-5.145,10.278-5.975,26.564-.073,1.416-.381,6.748-.53,14.158-1.158-7.971-3.357-15.881-7.2-21.137-7.4-10.126-13.029-11.092-17.132-10.126s-2.381,11.6,2.246,17.28c6.963,8.551,18.566,6.73,22.008,18.106-.173,10.043-.3,22.767-.369,34.613-1.172-6.118-2.4-11.206-5.087-16-5-8.909-11.161-12.8-15.4-8.6-2.634,2.609.423,9.921,5.936,12.925,5.6,3.049,10.185,7.268,11.963,9.8.415.591,1.788,2.857,2.573,4.161-.076,14.463-.063,27.229.061,31.581l.737.043c-.043-1.124-.009-8.481.063-18.217,1.218-12.153,9.8-12.813,15.287-15.123C398.8,184.74,406.215,173.815,401.18,171.7Z" transform="translate(-346.675 -89.326)" fill="#e6e6e6"/>
          <g id="Group_5123" data-name="Group 5123" transform="translate(15.947 123.368)">
            <path id="Path_5889" data-name="Path 5889" d="M383.312,363.079h14.471a1.617,1.617,0,0,0,1.629-1.107l1.027-17.944H380.655l1.028,17.944A1.617,1.617,0,0,0,383.312,363.079Z" transform="translate(-379.731 -340.936)" fill="#e6e6e6"/>
            <path id="Path_5890" data-name="Path 5890" d="M380.081,347h19.059c.456,0,.841-.6.892-1.395l.389-6.061c.06-.931-.356-1.746-.891-1.746H379.691c-.535,0-.951.815-.892,1.746l.39,6.061C379.24,346.4,379.624,347,380.081,347Z" transform="translate(-378.794 -337.8)" fill="#f5f5f5"/>
          </g>
        </g>
        <g id="Group_5126" data-name="Group 5126" transform="translate(52.222 108.343)">
          <g id="Group_5125" data-name="Group 5125" transform="translate(2.625 3.175)">
            <rect id="Rectangle_2582" data-name="Rectangle 2582" width="18.784" height="35.406" fill="#f0f0f0"/>
            <rect id="Rectangle_2583" data-name="Rectangle 2583" width="92.634" height="3.287" transform="translate(3.607 35.406)" fill="#f0f0f0"/>
            <rect id="Rectangle_2584" data-name="Rectangle 2584" width="81.063" height="35.406" transform="translate(99.847 35.406) rotate(180)" fill="#fafafa"/>
            <rect id="Rectangle_2585" data-name="Rectangle 2585" width="66.293" height="10.895" transform="translate(92.462 15.202) rotate(180)" fill="#f0f0f0"/>
            <rect id="Rectangle_2586" data-name="Rectangle 2586" width="66.293" height="10.895" transform="translate(92.462 29.2) rotate(180)" fill="#f0f0f0"/>
            <rect id="Rectangle_2587" data-name="Rectangle 2587" width="18.548" height="2.333" rx="1.167" transform="translate(50.041 2.956)" fill="#fafafa"/>
            <rect id="Rectangle_2588" data-name="Rectangle 2588" width="18.548" height="2.333" rx="1.167" transform="translate(50.041 16.954)" fill="#fafafa"/>
          </g>
          <rect id="Rectangle_2589" data-name="Rectangle 2589" width="83.566" height="3.175" transform="translate(21.409 0)" fill="#f0f0f0"/>
          <rect id="Rectangle_2590" data-name="Rectangle 2590" width="21.409" height="3.175" transform="translate(21.409 3.175) rotate(180)" fill="#e6e6e6"/>
        </g>
        <g id="Group_5128" data-name="Group 5128" transform="translate(0 65.381)">
          <path id="Path_5891" data-name="Path 5891" d="M89.272,289.392c-2.145-1.124-5.91-.541-9.282,2.9a14.535,14.535,0,0,0-3.72,6.52c.277-2.929.576-6.076.86-9.045a16.788,16.788,0,0,1,1.936-4.046c2.627-4.311,4.437-3.654,7.782-6.917,5.566-5.427,9.418-16.239,4-12.264a31.249,31.249,0,0,0-9.294,10.748,37.925,37.925,0,0,0-4.28,10.958c.268-2.789.516-5.349.71-7.324.632-6.443.986-8.5,1.073-9.138a5.627,5.627,0,0,1,.964-2.615c1.362-1.781,3.351-2.852,5.383-4.841,4.731-4.632,7.747-10.617,5.725-11.368-2.115-.786-5.2,1.7-8.909,7.835-2.128,3.518-2.664,4.347-3.649,11.512-.085.623-.425,2.968-.772,6.237-.21-3.566-.881-7.146-2.379-9.614-2.886-4.756-5.337-5.4-7.187-5.125s-1.492,5.034.337,7.722c2.753,4.043,7.949,3.679,9.038,8.837-.458,4.432-1,10.05-1.477,15.282a22.64,22.64,0,0,0-1.64-7.262c-1.873-4.127-4.447-6.078-6.478-4.385-1.263,1.053-.19,4.4,2.132,5.937a17.229,17.229,0,0,1,4.915,4.786c.161.277.682,1.331.979,1.936-.582,6.388-1.062,12.03-1.172,13.959l.324.047c.024-.5.318-3.748.719-8.048,1-5.324,4.818-5.29,7.33-6.1C87.726,295.063,91.417,290.516,89.272,289.392Z" transform="translate(-52.463 -232.325)" fill="#f0f0f0"/>
          <path id="Path_5892" data-name="Path 5892" d="M41.3,257.547c2.776-1.253,7.46-.241,11.439,4.329a18.283,18.283,0,0,1,4.187,8.461c-.13-3.7-.273-7.67-.411-11.419a21.135,21.135,0,0,0-2.131-5.224c-2.98-5.606-5.3-4.917-9.259-9.261-6.587-7.227-10.622-21.087-4.117-15.695a39.315,39.315,0,0,1,10.874,14.183A47.694,47.694,0,0,1,56.445,257c-.13-3.522-.252-6.754-.349-9.249-.316-8.136-.608-10.747-.671-11.553a7.07,7.07,0,0,0-1.016-3.354c-1.578-2.337-4-3.83-6.4-6.477-5.6-6.167-8.941-13.9-6.346-14.7,2.713-.83,6.4,2.518,10.605,10.5,2.412,4.574,3.023,5.655,3.729,14.725.062.788.313,3.758.507,7.888.527-4.463,1.634-8.907,3.7-11.9,3.976-5.757,7.1-6.381,9.4-5.9s1.5,6.433-.994,9.67c-3.756,4.873-10.253,4.031-12,10.426.247,5.6.507,12.692.723,19.3a28.5,28.5,0,0,1,2.6-9c2.658-5.043,6.033-7.3,8.459-5.026,1.508,1.416-.087,5.538-3.118,7.3a21.68,21.68,0,0,0-6.525,5.646c-.222.336-.954,1.62-1.373,2.359.259,8.064.442,15.184.438,17.613l-.411.035c.007-.628-.122-4.73-.307-10.158-.861-6.759-5.657-7-8.751-8.205C42.821,264.781,38.523,258.8,41.3,257.547Z" transform="translate(-37.708 -211.542)" fill="#e6e6e6"/>
          <g id="Group_5127" data-name="Group 5127" transform="translate(12.156 65.187)">
            <path id="Path_5893" data-name="Path 5893" d="M66.2,365.26H79.037a1.435,1.435,0,0,0,1.445-.982l.911-15.918H63.843l.912,15.918A1.435,1.435,0,0,0,66.2,365.26Z" transform="translate(-63.023 -345.617)" fill="#e6e6e6"/>
            <path id="Path_5894" data-name="Path 5894" d="M63.334,351H80.24c.405,0,.746-.533.791-1.237l.346-5.376c.053-.826-.316-1.55-.791-1.55h-17.6c-.475,0-.844.723-.791,1.55l.346,5.376C62.588,350.465,62.929,351,63.334,351Z" transform="translate(-62.192 -342.835)" fill="#f5f5f5"/>
          </g>
        </g>
        <g id="Group_5129" data-name="Group 5129" transform="translate(11.163)">
          <rect id="Rectangle_2591" data-name="Rectangle 2591" width="105.775" height="59.808" fill="#e6e6e6"/>
          <rect id="Rectangle_2592" data-name="Rectangle 2592" width="108.521" height="59.808" transform="translate(0.559)" fill="#f5f5f5"/>
          <rect id="Rectangle_2593" data-name="Rectangle 2593" width="54.528" height="103.24" rx="4.183" transform="translate(106.439 2.64) rotate(90)" fill="#fff"/>
        </g>
      </g>
    </g>
    <g id="Shadow" transform="translate(27.859 228.709)">
      <ellipse id="_Path_" data-name="&lt;Path&gt;" cx="96.266" cy="5.622" rx="96.266" ry="5.622" fill="#f5f5f5"/>
    </g>
    <g id="Calendar" transform="translate(54.67 75.411)">
      <g id="Group_5134" data-name="Group 5134" transform="translate(0 0)">
        <path id="Path_5895" data-name="Path 5895" d="M389.831,307.695H377.917v-.5h11.914a7.924,7.924,0,0,0,6.818-4.15l.435.237A8.423,8.423,0,0,1,389.831,307.695Z" transform="translate(-244.951 -200.327)" fill="#407bff"/>
        <rect id="Rectangle_2594" data-name="Rectangle 2594" width="4.883" height="0.497" transform="translate(125.725 106.872)" fill="#407bff"/>
        <path id="Path_5896" data-name="Path 5896" d="M254.99,209.214H115.572a5.389,5.389,0,0,1-5.438-5.958l7.535-86.391a6.652,6.652,0,0,1,6.478-5.958H263.565A5.389,5.389,0,0,1,269,116.865l-7.535,86.391A6.652,6.652,0,0,1,254.99,209.214Z" transform="translate(-110.111 -103.584)" fill="#0f1f54"/>
        <path id="Path_5897" data-name="Path 5897" d="M253.49,218.827H117.549a4.589,4.589,0,0,1-4.631-5.073l6.865-78.7a1.621,1.621,0,0,1,1.584-1.457H264.54a1.314,1.314,0,0,1,1.33,1.457L259,213.753A5.663,5.663,0,0,1,253.49,218.827Z" transform="translate(-111.515 -115.007)" fill="#fff"/>
        <g id="Group_5131" data-name="Group 5131" transform="translate(16.645)">
          <path id="Path_5898" data-name="Path 5898" d="M150.349,110.8a6.612,6.612,0,0,1-6.684-7.323,8.161,8.161,0,0,1,7.962-7.323,6.612,6.612,0,0,1,6.684,7.323h-2.979a3.922,3.922,0,0,0-3.965-4.344,4.84,4.84,0,0,0-4.723,4.344,3.922,3.922,0,0,0,3.965,4.344Z" transform="translate(-143.636 -96.157)" fill="#263238"/>
          <path id="Path_5899" data-name="Path 5899" d="M209.7,110.8a6.612,6.612,0,0,1-6.684-7.323,8.161,8.161,0,0,1,7.962-7.323,6.613,6.613,0,0,1,6.684,7.323h-2.979a3.922,3.922,0,0,0-3.965-4.344,4.84,4.84,0,0,0-4.723,4.344,3.922,3.922,0,0,0,3.966,4.344Z" transform="translate(-173.52 -96.157)" fill="#263238"/>
          <path id="Path_5900" data-name="Path 5900" d="M269.051,110.8a6.612,6.612,0,0,1-6.685-7.323,8.161,8.161,0,0,1,7.962-7.323,6.613,6.613,0,0,1,6.684,7.323h-2.979a3.923,3.923,0,0,0-3.965-4.344,4.841,4.841,0,0,0-4.724,4.344,3.922,3.922,0,0,0,3.966,4.344Z" transform="translate(-203.403 -96.157)" fill="#263238"/>
          <path id="Path_5901" data-name="Path 5901" d="M328.4,110.8a6.612,6.612,0,0,1-6.684-7.323,8.16,8.16,0,0,1,7.962-7.323,6.613,6.613,0,0,1,6.684,7.323h-2.979a3.923,3.923,0,0,0-3.966-4.344,4.84,4.84,0,0,0-4.723,4.344,3.922,3.922,0,0,0,3.965,4.344Z" transform="translate(-233.287 -96.157)" fill="#263238"/>
          <path id="Path_5902" data-name="Path 5902" d="M387.754,110.8a6.611,6.611,0,0,1-6.684-7.323,8.16,8.16,0,0,1,7.961-7.323,6.613,6.613,0,0,1,6.684,7.323h-2.979a3.923,3.923,0,0,0-3.965-4.344,4.84,4.84,0,0,0-4.723,4.344,3.922,3.922,0,0,0,3.965,4.344Z" transform="translate(-263.17 -96.157)" fill="#263238"/>
        </g>
        <g id="Group_5132" data-name="Group 5132" transform="translate(7.003 22.963)">
          <path id="Path_5903" data-name="Path 5903" d="M258.828,219.695H124.444a.224.224,0,0,1-.227-.248l6.7-76.791a.276.276,0,0,1,.27-.248H265.569a.224.224,0,0,1,.227.248l-6.7,76.791A.277.277,0,0,1,258.828,219.695Zm-134.092-.5H258.623l6.655-76.295H131.39Z" transform="translate(-124.216 -142.407)" fill="#e0e0e0"/>
          <path id="Path_5904" data-name="Path 5904" d="M261.526,266.634H127.142a.224.224,0,0,1-.226-.248.276.276,0,0,1,.27-.248H261.569a.224.224,0,0,1,.227.248A.277.277,0,0,1,261.526,266.634Z" transform="translate(-125.575 -204.706)" fill="#e0e0e0"/>
          <path id="Path_5905" data-name="Path 5905" d="M264.224,235.7H129.84a.224.224,0,0,1-.226-.248.276.276,0,0,1,.27-.248H264.267a.224.224,0,0,1,.227.248A.276.276,0,0,1,264.224,235.7Z" transform="translate(-126.933 -189.131)" fill="#e0e0e0"/>
          <path id="Path_5906" data-name="Path 5906" d="M266.922,204.77H132.538a.224.224,0,0,1-.226-.248.276.276,0,0,1,.27-.248H266.966a.224.224,0,0,1,.226.248A.276.276,0,0,1,266.922,204.77Z" transform="translate(-128.292 -173.557)" fill="#e0e0e0"/>
          <path id="Path_5907" data-name="Path 5907" d="M269.62,173.837H135.236a.224.224,0,0,1-.226-.248.276.276,0,0,1,.27-.248H269.664a.224.224,0,0,1,.226.248A.276.276,0,0,1,269.62,173.837Z" transform="translate(-129.65 -157.982)" fill="#e0e0e0"/>
          <path id="Path_5908" data-name="Path 5908" d="M361.273,219.695a.224.224,0,0,1-.226-.248l6.7-76.791a.276.276,0,0,1,.27-.248.224.224,0,0,1,.226.248l-6.7,76.791A.277.277,0,0,1,361.273,219.695Z" transform="translate(-243.46 -142.407)" fill="#e0e0e0"/>
          <path id="Path_5909" data-name="Path 5909" d="M327.44,219.695a.224.224,0,0,1-.226-.248l6.7-76.791a.276.276,0,0,1,.27-.248.224.224,0,0,1,.227.248l-6.7,76.791A.277.277,0,0,1,327.44,219.695Z" transform="translate(-226.425 -142.407)" fill="#e0e0e0"/>
          <path id="Path_5910" data-name="Path 5910" d="M293.607,219.695a.224.224,0,0,1-.226-.248l6.7-76.791a.276.276,0,0,1,.27-.248.224.224,0,0,1,.226.248l-6.7,76.791A.277.277,0,0,1,293.607,219.695Z" transform="translate(-209.39 -142.407)" fill="#e0e0e0"/>
          <path id="Path_5911" data-name="Path 5911" d="M259.775,219.695a.224.224,0,0,1-.226-.248l6.7-76.791a.276.276,0,0,1,.27-.248.224.224,0,0,1,.227.248l-6.7,76.791A.277.277,0,0,1,259.775,219.695Z" transform="translate(-192.356 -142.407)" fill="#e0e0e0"/>
          <path id="Path_5912" data-name="Path 5912" d="M225.942,219.695a.224.224,0,0,1-.226-.248l6.7-76.791a.276.276,0,0,1,.27-.248.224.224,0,0,1,.226.248l-6.7,76.791A.277.277,0,0,1,225.942,219.695Z" transform="translate(-175.321 -142.407)" fill="#e0e0e0"/>
          <path id="Path_5913" data-name="Path 5913" d="M192.109,219.695a.224.224,0,0,1-.226-.248l6.7-76.791a.276.276,0,0,1,.27-.248.224.224,0,0,1,.227.248l-6.7,76.791A.277.277,0,0,1,192.109,219.695Z" transform="translate(-158.286 -142.407)" fill="#e0e0e0"/>
          <path id="Path_5914" data-name="Path 5914" d="M158.277,219.695a.224.224,0,0,1-.227-.248l6.7-76.791a.276.276,0,0,1,.27-.248.224.224,0,0,1,.227.248l-6.7,76.791A.276.276,0,0,1,158.277,219.695Z" transform="translate(-141.251 -142.407)" fill="#e0e0e0"/>
        </g>
        <path id="Path_5915" data-name="Path 5915" d="M283.782,189.219H273.518a1.432,1.432,0,0,1-1.449-1.587l.795-9.112a1.767,1.767,0,0,1,1.726-1.587h10.264a1.432,1.432,0,0,1,1.449,1.587l-.794,9.112A1.767,1.767,0,0,1,283.782,189.219Z" transform="translate(-191.654 -136.828)" fill="#407bff"/>
        <path id="Path_5916" data-name="Path 5916" d="M283.782,189.219H273.518a1.432,1.432,0,0,1-1.449-1.587l.795-9.112a1.767,1.767,0,0,1,1.726-1.587h10.264a1.432,1.432,0,0,1,1.449,1.587l-.794,9.112A1.767,1.767,0,0,1,283.782,189.219Z" transform="translate(-191.654 -136.828)" fill="rgba(15,31,84,0.53)"/>
        <g id="Group_5133" data-name="Group 5133" transform="translate(152.674 39.857)">
          <path id="Path_5917" data-name="Path 5917" d="M428.945,189.22H418.156l1.072-12.286h10.789l-4.054,6.143Z" transform="translate(-417.886 -176.685)" fill="#fff"/>
          <path id="Path_5918" data-name="Path 5918" d="M429.078,189.216H417.612l1.115-12.783h11.466l-4.218,6.391Zm-10.926-.5h10.113l-2.862-5.9,3.891-5.895H419.18Z" transform="translate(-417.612 -176.433)" fill="#407bff"/>
        </g>
        <path id="Path_5919" data-name="Path 5919" d="M348.557,220.152H338.294a1.431,1.431,0,0,1-1.449-1.587l.794-9.112a1.767,1.767,0,0,1,1.726-1.587h10.264a1.432,1.432,0,0,1,1.449,1.587l-.795,9.112A1.766,1.766,0,0,1,348.557,220.152Z" transform="translate(-224.268 -152.402)" fill="#407bff"/>
        <path id="Path_5920" data-name="Path 5920" d="M348.557,220.152H338.294a1.431,1.431,0,0,1-1.449-1.587l.794-9.112a1.767,1.767,0,0,1,1.726-1.587h10.264a1.432,1.432,0,0,1,1.449,1.587l-.795,9.112A1.766,1.766,0,0,1,348.557,220.152Z" transform="translate(-224.268 -152.402)" fill="#0f1f54" opacity="0.4"/>
        <path id="Path_5921" data-name="Path 5921" d="M370.942,158.287H343.69a1.432,1.432,0,0,1-1.449-1.588l.794-9.111A1.768,1.768,0,0,1,344.762,146h27.252a1.432,1.432,0,0,1,1.449,1.588l-.795,9.111A1.767,1.767,0,0,1,370.942,158.287Z" transform="translate(-226.985 -121.253)" fill="#0f1f54"/>
        <path id="Path_5922" data-name="Path 5922" d="M168.161,173.68a12.813,12.813,0,0,1-10.036-4.268c-3.143-3.608-3.617-8.087-1.237-11.69,3.528-5.339,12.728-8.186,18.783-7.4a.225.225,0,0,1,.191.278.278.278,0,0,1-.3.215c-5.9-.77-14.852,1.983-18.267,7.152-2.689,4.069-1.134,8.4,1.216,11.1a12.856,12.856,0,0,0,10.938,4.071,24.706,24.706,0,0,0,16.5-8.607c1.067-1.322,2.707-3.857,1.7-5.982-1.486-3.143-6.441-2.929-10.592-2.392a.226.226,0,0,1-.26-.214.276.276,0,0,1,.239-.279c2.768-.358,9.252-1.2,11.067,2.641,1.119,2.365-.635,5.1-1.78,6.515a25.286,25.286,0,0,1-16.885,8.812Q168.791,173.68,168.161,173.68Z" transform="translate(-132.907 -123.365)" fill="#0f1f54"/>
        <path id="Path_5923" data-name="Path 5923" d="M345.326,220.745l-.043,0a.445.445,0,0,1-.366-.247,11.415,11.415,0,0,0-2.079-3.191.5.5,0,0,1,.027-.7.5.5,0,0,1,.7-.034,11,11,0,0,1,1.949,2.828,44.4,44.4,0,0,1,5.525-4.808.484.484,0,0,1,.691.08.512.512,0,0,1-.142.7,42.362,42.362,0,0,0-5.87,5.2A.543.543,0,0,1,345.326,220.745Z" transform="translate(-227.222 -155.734)" fill="#fff"/>
        <path id="Path_5924" data-name="Path 5924" d="M305.985,282.026a5.034,5.034,0,0,1-5.089-5.575,6.212,6.212,0,0,1,6.062-5.576,5.034,5.034,0,0,1,5.089,5.576A6.212,6.212,0,0,1,305.985,282.026Zm.886-10.158a5.107,5.107,0,0,0-4.982,4.583,4.138,4.138,0,0,0,4.183,4.582,5.106,5.106,0,0,0,4.982-4.582A4.138,4.138,0,0,0,306.872,271.868Z" transform="translate(-206.161 -184.127)" fill="#0f1f54"/>
        <path id="Path_5925" data-name="Path 5925" d="M209.836,220.039a5.035,5.035,0,0,1-5.089-5.576,6.212,6.212,0,0,1,6.062-5.575,5.034,5.034,0,0,1,5.089,5.575A6.212,6.212,0,0,1,209.836,220.039Zm.886-10.158a5.107,5.107,0,0,0-4.982,4.582,4.138,4.138,0,0,0,4.183,4.583,5.106,5.106,0,0,0,4.982-4.583A4.138,4.138,0,0,0,210.723,209.881Z" transform="translate(-157.75 -152.917)" fill="#0f1f54"/>
      </g>
    </g>
    <g id="Character" transform="translate(34.445 99.273)">
      <path id="Path_5926" data-name="Path 5926" d="M178.765,250.688H127.18a3.368,3.368,0,0,1-3.4-3.724h0a4.157,4.157,0,0,1,4.048-3.724h51.585a3.368,3.368,0,0,1,3.4,3.724h0A4.157,4.157,0,0,1,178.765,250.688Z" transform="translate(-96.761 -194.075)" opacity="0.1"/>
      <g id="Group_5143" data-name="Group 5143">
        <g id="Group_5142" data-name="Group 5142">
          <path id="Path_5930" data-name="Path 5930" d="M139.572,192.608c.839,1.894,1.7,3.833,2.57,5.723s1.764,3.8,2.728,5.437a8.741,8.741,0,0,0,.682,1.015c.3.353.628.715.97,1.087.689.739,1.427,1.479,2.165,2.225,1.483,1.485,2.994,2.993,4.463,4.534l-1.5,1.94a60.657,60.657,0,0,1-5.462-3.544c-.884-.639-1.751-1.306-2.613-2.032-.434-.36-.861-.749-1.3-1.171a12.293,12.293,0,0,1-1.247-1.534,49.053,49.053,0,0,1-3.34-5.821c-.972-1.959-1.859-3.911-2.687-5.945Z" transform="translate(-102.418 -168.582)" fill="#ff8b7b"/>
          <path id="Path_5931" data-name="Path 5931" d="M99.039,189.344c-1.126,1.842-2.284,3.693-3.439,5.528l-3.45,5.5-.421.687-.053.086-.026.042,0,.008a.123.123,0,0,1-.024.03c-.02.018-.037.082-.065.12a3.972,3.972,0,0,0-.211,1.033,16.293,16.293,0,0,0,.085,2.879c.216,2.029.616,4.167,1.043,6.238l-2.3.855a32.357,32.357,0,0,1-2.48-6.4,16.91,16.91,0,0,1-.581-3.641,7.781,7.781,0,0,1,.212-2.211,6.327,6.327,0,0,1,.217-.65l.152-.341.064-.132.048-.093.379-.746c1.018-1.981,2.093-3.912,3.2-5.82s2.259-3.777,3.473-5.633Z" transform="translate(-78.304 -165.6)" fill="#ff8b7b"/>
          <path id="Path_5932" data-name="Path 5932" d="M137.56,163.957c-.092.247-.038.5.122.568s.362-.08.454-.328.038-.5-.121-.568S137.652,163.709,137.56,163.957Z" transform="translate(-103.684 -153.983)" fill="#263238"/>
          <path id="Path_5933" data-name="Path 5933" d="M136.6,165.3a9.914,9.914,0,0,0,.375,2.6,1.5,1.5,0,0,1-1.245-.263Z" transform="translate(-102.786 -154.83)" fill="#ff5652"/>
          <path id="Path_5934" data-name="Path 5934" d="M138.051,160.752a.156.156,0,0,1-.083-.04,1.207,1.207,0,0,0-1.084-.235.155.155,0,1,1-.074-.3,1.52,1.52,0,0,1,1.371.31.155.155,0,0,1-.13.265Z" transform="translate(-103.269 -152.228)" fill="#263238"/>
          <path id="Path_5935" data-name="Path 5935" d="M117.715,165.289c-.309,2.673.2,6.036-1.629,7.378,0,0,.383,2.509,4.778,3.162,4.833.718,2.573-2.069,2.573-2.069-2.568-1.026-2.285-2.984-1.623-4.764Z" transform="translate(-92.894 -154.827)" fill="#ff8b7b"/>
          <path id="Path_5936" data-name="Path 5936" d="M112.931,180.041c-.062-1.233.006-3.091.764-3.359.834-.295,5.766.1,8.238,2.337a7.834,7.834,0,0,0-.844,3.606Z" transform="translate(-91.297 -160.52)" fill="#263238"/>
          <path id="Path_5937" data-name="Path 5937" d="M81.227,405.805a3.513,3.513,0,0,1-1.284-.367.078.078,0,0,1,.008-.141c.042-.016,1.036-.4,1.479-.18a.376.376,0,0,1,.2.237.315.315,0,0,1-.076.362A.521.521,0,0,1,81.227,405.805Zm-1.046-.425c.456.2,1.105.36,1.279.216.017-.013.068-.056.026-.2a.224.224,0,0,0-.125-.142A2.048,2.048,0,0,0,80.181,405.38Z" transform="translate(-74.675 -275.547)" fill="#407bff"/>
          <path id="Path_5938" data-name="Path 5938" d="M79.979,404.529a.078.078,0,0,1-.074-.1c.011-.038.282-.942.714-1.155a.412.412,0,0,1,.343-.018.261.261,0,0,1,.2.265c-.02.373-.8.91-1.158,1.006Zm.833-1.147a.278.278,0,0,0-.125.031,1.817,1.817,0,0,0-.585.911c.373-.166.888-.591.9-.812,0-.022,0-.074-.1-.112A.273.273,0,0,0,80.812,403.382Z" transform="translate(-74.676 -274.628)" fill="#407bff"/>
          <path id="Path_5939" data-name="Path 5939" d="M131.755,408.681a5.8,5.8,0,0,1-1-.091.078.078,0,0,1-.024-.143c.164-.1,1.615-.926,1.965-.352a.292.292,0,0,1,.017.341C132.578,408.623,132.175,408.681,131.755,408.681Zm-.757-.208c.615.087,1.442.076,1.583-.126.012-.018.044-.064-.022-.172C132.362,407.849,131.48,408.221,131,408.473Z" transform="translate(-100.247 -276.978)" fill="#407bff"/>
          <path id="Path_5940" data-name="Path 5940" d="M130.767,407.8a.081.081,0,0,1-.044-.013.076.076,0,0,1-.033-.069,2.136,2.136,0,0,1,.458-1.26.561.561,0,0,1,.428-.135c.217.022.281.134.3.222.063.379-.681,1.069-1.072,1.247A.071.071,0,0,1,130.767,407.8Zm.746-1.325a.393.393,0,0,0-.265.1,1.758,1.758,0,0,0-.391,1.01c.393-.239.9-.786.86-1.015,0-.019-.013-.079-.158-.093Z" transform="translate(-100.247 -276.185)" fill="#407bff"/>
          <path id="Path_5941" data-name="Path 5941" d="M123.605,401.465h3.269l.033-7.57h-3.269Z" transform="translate(-96.68 -269.93)" fill="#ff8b7b"/>
          <path id="Path_5942" data-name="Path 5942" d="M72.613,396.831l3.061.708,2.57-7.488-3.062-.708Z" transform="translate(-71.006 -267.638)" fill="#ff8b7b"/>
          <path id="Path_5943" data-name="Path 5943" d="M74.521,403.911l-3.562-.894a.271.271,0,0,0-.316.15l-1.225,2.689a.5.5,0,0,0,.345.686c1.248.29,1.867.369,3.434.762.964.242,2.927.842,4.258,1.176,1.3.327,1.784-.951,1.265-1.208a8.469,8.469,0,0,1-3.725-3.035A.823.823,0,0,0,74.521,403.911Z" transform="translate(-69.375 -274.519)" fill="#263238"/>
          <path id="Path_5944" data-name="Path 5944" d="M125.674,408.379H122.1a.272.272,0,0,0-.27.223l-.533,2.906a.5.5,0,0,0,.493.581c1.287-.022,3.145-.1,4.763-.1,1.893,0,1.929.1,4.149.1,1.342,0,1.662-1.357,1.1-1.48a12.653,12.653,0,0,1-5.33-1.982A1.567,1.567,0,0,0,125.674,408.379Z" transform="translate(-95.516 -277.223)" fill="#263238"/>
          <g id="Group_5136" data-name="Group 5136" transform="translate(11.874 17.604)">
            <path id="Path_5945" data-name="Path 5945" d="M100.782,179.687c-3.107.248-7.491,8.041-7.491,8.041l5.628,5.1a49.218,49.218,0,0,0,4.771-6.276C105.9,183.016,103.958,179.433,100.782,179.687Z" transform="translate(-93.291 -179.674)" fill="#a19aac"/>
            <path id="Path_5946" data-name="Path 5946" d="M100.782,179.687c-3.107.248-7.491,8.041-7.491,8.041l5.628,5.1a49.218,49.218,0,0,0,4.771-6.276C105.9,183.016,103.958,179.433,100.782,179.687Z" transform="translate(-93.291 -179.674)" fill="#a19aac" opacity="0.6"/>
          </g>
          <path id="Path_5947" data-name="Path 5947" d="M107.811,191.022,104.09,198.3l.264.242s1.438-1.572,3.044-3.745Z" transform="translate(-86.854 -167.783)" opacity="0.2"/>
          <g id="Group_5137" data-name="Group 5137" transform="translate(14.832 17.621)">
            <path id="Path_5948" data-name="Path 5948" d="M119.355,197.181c-.56,3.606-1.445,8.062-2.811,13.554l-17.3-2.57c.159-2.479,2.805-13.552,2.284-25.432a2.894,2.894,0,0,1,2.95-3.025c.852.019,1.795.065,2.718.156a64.561,64.561,0,0,1,7.35,1.092,33.413,33.413,0,0,1,4.875,1.642s1.241,1.822.573,9.4C119.866,193.5,119.66,195.211,119.355,197.181Z" transform="translate(-99.248 -179.707)" fill="#6d547c"/>
            <path id="Path_5949" data-name="Path 5949" d="M119.355,197.181c-.56,3.606-1.445,8.062-2.811,13.554l-17.3-2.57c.159-2.479,2.805-13.552,2.284-25.432a2.894,2.894,0,0,1,2.95-3.025c.852.019,1.795.065,2.718.156a64.561,64.561,0,0,1,7.35,1.092,33.413,33.413,0,0,1,4.875,1.642s1.241,1.822.573,9.4C119.866,193.5,119.66,195.211,119.355,197.181Z" transform="translate(-99.248 -179.707)" fill="#a19aac"/>
          </g>
          <path id="Path_5950" data-name="Path 5950" d="M137.441,207.684c-1.4-.887-2.72-4.973-2.128-7.116l2.77,1.935C137.951,204,137.746,205.715,137.441,207.684Z" transform="translate(-102.502 -172.59)" opacity="0.2"/>
          <g id="Group_5138" data-name="Group 5138" transform="translate(30.955 20.308)">
            <path id="Path_5951" data-name="Path 5951" d="M131.821,187.532c-.893,2.981,4.517,11.754,4.517,11.754l6.471-3.379a36.462,36.462,0,0,0-3.8-7.82C136.414,184.286,132.827,184.174,131.821,187.532Z" transform="translate(-131.721 -185.119)" fill="#a19aac"/>
            <path id="Path_5952" data-name="Path 5952" d="M131.821,187.532c-.893,2.981,4.517,11.754,4.517,11.754l6.471-3.379a36.462,36.462,0,0,0-3.8-7.82C136.414,184.286,132.827,184.174,131.821,187.532Z" transform="translate(-131.721 -185.119)" fill="#a19aac" opacity="0.6"/>
          </g>
          <g id="Group_5139" data-name="Group 5139" transform="translate(2.85 121.707)">
            <path id="Path_5953" data-name="Path 5953" d="M126.921,393.9l-.017,3.9h-3.27l.017-3.9Z" transform="translate(-99.545 -391.639)" opacity="0.2"/>
            <path id="Path_5954" data-name="Path 5954" d="M76.442,389.346l3.063.708-1.326,3.859-3.063-.708Z" transform="translate(-75.116 -389.346)" opacity="0.2"/>
          </g>
          <path id="Path_5955" data-name="Path 5955" d="M120.472,153.293c-.947,3.114-1.656,4.882-.727,7.07a4.22,4.22,0,0,0,7.447.7c1.657-2.461,2.927-7.139.451-9.567A4.262,4.262,0,0,0,120.472,153.293Z" transform="translate(-94.517 -147.227)" fill="#ff8b7b"/>
          <path id="Path_5956" data-name="Path 5956" d="M123.7,153.708c-.372,1.593-1.342,4.469-3.726,4.8-1.327.184-3.542-.207-3.749-1.282s.621-.926.414-1.808-1.3-3.948-.062-6.136c-1.717.144-.538-2.4,2.545-3-.952-.372-.5-2.963,4.26-1.738,2.226.573,3.876,1.448,4.077,2.642,2.023.854,2.559,3.006,1.3,3.792-1.217.762-3.07-.1-3.07-.1S126.544,155.446,123.7,153.708Z" transform="translate(-92.741 -144.217)" fill="#263238"/>
          <path id="Path_5957" data-name="Path 5957" d="M129.107,161.685a2.945,2.945,0,0,0,.612,1.995c.59.751.788.761,1.034-.079.22-.755.765-2.443-.024-2.894A1.082,1.082,0,0,0,129.107,161.685Z" transform="translate(-99.446 -152.441)" fill="#ff8b7b"/>
          <path id="Path_5958" data-name="Path 5958" d="M97.178,238.683s-2.684,25.631-4.359,34.99c-1.835,10.248-14.042,43.215-14.042,43.215l-5.807-1.458c2.989-11.405,7.391-32.687,10.078-40.828,2.026-12.378.011-27.936,2.971-37.577Z" transform="translate(-71.186 -190.946)" fill="#0f1f54"/>
          <g id="Group_5140" data-name="Group 5140" transform="translate(1.367 122.495)">
            <path id="Path_5959" data-name="Path 5959" d="M79.735,392.454c.025.006-1.073,2.1-1.073,2.1l-6.533-1.64.543-1.98Z" transform="translate(-72.129 -390.935)" fill="#407bff"/>
          </g>
          <path id="Path_5960" data-name="Path 5960" d="M115.227,260.462a1.516,1.516,0,0,1,.566-.013c-.863,7.658-2.082,17.887-3.048,23.738C111.943,275.683,111.2,261.258,115.227,260.462Z" transform="translate(-90.893 -202.729)" opacity="0.2"/>
          <path id="Path_5961" data-name="Path 5961" d="M122.555,240.488s1.355,27.4,1.552,37.362c.2,10.366-2.28,41.1-2.28,41.1h-5.537s-2.092-28.5-.962-42.4c-1.337-10.592-4.14-37.751-4.14-37.751Z" transform="translate(-90.428 -191.839)" fill="#0f1f54"/>
          <path id="Path_5962" data-name="Path 5962" d="M171.1,232.281a6.047,6.047,0,0,0-2.65.376l-.4.664a1.023,1.023,0,0,0,.565,1.5l1.941.619.948.288a1,1,0,0,0,1.106-.375l.406-.566a1,1,0,0,0-.143-1.327l-.875-.79A1.539,1.539,0,0,0,171.1,232.281Z" transform="translate(-118.984 -188.547)" fill="#ff8b7b"/>
          <g id="Group_5141" data-name="Group 5141" transform="translate(25.158 124.908)">
            <path id="Path_5963" data-name="Path 5963" d="M127.268,395.794c.026,0-.223,2.3-.223,2.3h-6.736l-.261-2.052Z" transform="translate(-120.047 -395.794)" fill="#407bff"/>
          </g>
        </g>
      </g>
    </g>
  </g>
</svg>
