<svg xmlns="http://www.w3.org/2000/svg" width="303.623" height="236.391" viewBox="0 0 303.623 236.391">
  <g id="Group_5045" data-name="Group 5045" transform="translate(-762 -435.935)">
    <g id="shadow" transform="translate(762 637.626)" opacity="0.561">
      <path id="Path_5780" data-name="Path 5780" d="M237.657,648.768A237.969,237.969,0,0,0,211,650.044c-3.347.387-6.623,1.239-9.977,1.582-6.7.686-13.28,1.966-20,2.556-5.414.475-10.852.756-16.251,1.359a55.011,55.011,0,0,1-15.688-.5,100.958,100.958,0,0,1-11.109-2.192,43.816,43.816,0,0,0-12.794-2.1c-6.076.046-11.993.051-17.808,2.245a17.362,17.362,0,0,0-6.09,3.653c-3.548,3.7-4.029,12.933-.486,16.771,5.967,6.46,18.7,8.994,27.069,9.113,9.166.131,18.07-.576,27.25-.992,8.53-.387,17.038-.937,25.582-.917,17.45.04,34.9,0,52.32-1.212,16.365-1.139,32.771-.748,49.172-.748,16.818,0,33.523.137,50.22,2.462,7.275,1.013,14.687,1.367,22,2.077,6.548.635,12.841-.012,19.363-.6a44.826,44.826,0,0,0,15.893-4.429c3.939-1.957,10.96-8.038,12.167-12.71,3.386-13.1-47.718-12.783-55.565-12.754-8.778.033-17.625.333-26.4-.015a60.029,60.029,0,0,1-10.925-1.718c-3.587-.819-7.2-.61-10.838-.954-15.167-1.435-30.369-1.225-45.585-1.225C247.565,648.8,242.611,648.753,237.657,648.768Z" transform="translate(-98.362 -648.765)" fill="#f58c3c" opacity="0.5"/>
    </g>
    <g id="Group_4959" data-name="Group 4959" transform="translate(805.188 530.033)">
      <g id="Group_4957" data-name="Group 4957" transform="translate(6.405 14.366)">
        <path id="Path_5781" data-name="Path 5781" d="M282.536,374.036a1.019,1.019,0,0,0-.239-.162c-.8-.343-1.43-.04-2.295-.15-.386-.049-.819-.95-1.343-.329-.193.229-.588.858-1,1.35a5.738,5.738,0,0,1-2.8,1.533,29.508,29.508,0,0,1-4.24.842,50.032,50.032,0,0,1-9.206.052,13.517,13.517,0,0,0-6.828-12.165,3.132,3.132,0,0,0-1.443-.478,2.7,2.7,0,0,0-1.238.348c-4.075,2.087-1.923,5.858-.317,8.97a44.753,44.753,0,0,0,3.422,5.624c1.791,2.484,4.381,2.979,7.365,2.89a44.5,44.5,0,0,0,9.444-1.014,33.883,33.883,0,0,0,4.24-1.561c1.405-.553,1.573.1,2.928-.065a12.293,12.293,0,0,0,2.272-.28c1.305-.419,1.755-1.762,2.263-2.9a1.469,1.469,0,0,0,.194-.762,2.127,2.127,0,0,0-.618-1.169A4.138,4.138,0,0,0,282.536,374.036Z" transform="translate(-249.565 -364.53)" fill="#e5d1bd"/>
      </g>
      <g id="Group_4958" data-name="Group 4958">
        <path id="Path_5782" data-name="Path 5782" d="M237.343,347.051c.924,1.413,1.892,2.76,2.874,4.021,1.465,1.88,3.116,3.882,5.441,4.4a10.218,10.218,0,0,0,2.745.116q6.525-.324,13.028-.974a22.692,22.692,0,0,0-.07-6.836,2.8,2.8,0,0,0-.747-1.73c-.722-.623-1.816-.413-2.737-.167l-4.5,1.2a2.022,2.022,0,0,1-1.474.013,1.946,1.946,0,0,1-.655-.724c-3.307-5.271-5.03-10.3-6.868-16.191-.811-2.6-1.67-5.285-3.492-7.306a6.152,6.152,0,0,0-10.842,4.261C230.332,333.991,233.458,341.109,237.343,347.051Z" transform="translate(-230.037 -320.73)" fill="#800932"/>
      </g>
    </g>
    <g id="Group_4968" data-name="Group 4968" transform="translate(916.611 499.331)">
      <g id="Group_4964" data-name="Group 4964" transform="translate(0 82.9)">
        <g id="Group_4961" data-name="Group 4961" transform="translate(29.218 36.618)">
          <g id="Group_4960" data-name="Group 4960" transform="translate(0.103)">
            <path id="Path_5783" data-name="Path 5783" d="M659.144,591.516l.226,13.733c-.093,3.81.251,7.609.483,11.407.215,3.528-.5,7.164,1.178,10.433.525,1.025,1.642,1.739,2.491.555.655-.912.353-2.492.515-3.551,1.216-7.961,3.478-15.725,4.607-23.7C669.827,592.036,666.595,592.256,659.144,591.516Z" transform="translate(-659.144 -591.516)" fill="#eacdb0"/>
          </g>
          <path id="Path_5784" data-name="Path 5784" d="M659.714,691.84l-.883,2.291,4.345,3.824,3.98.164,1.287-2.1-5.353-4.655Z" transform="translate(-658.831 -658.615)" fill="#292949"/>
        </g>
        <g id="Group_4963" data-name="Group 4963" transform="translate(7.945 35.939)">
          <g id="Group_4962" data-name="Group 4962" transform="translate(0.534)">
            <path id="Path_5785" data-name="Path 5785" d="M606.712,590.258l-2.5,13.505c-.868,6.041-2.842,11.925-3.71,17.966a15.732,15.732,0,0,1-.68,4.219c-.568,1.282-1.68,1.333-2.661.463-1.315-1.165-.708-3.247-.684-4.839.161-10.6-.673-21.055-.874-31.674a.473.473,0,0,1,.111-.387.455.455,0,0,1,.325-.063C597.067,589.518,606.658,590.55,606.712,590.258Z" transform="translate(-595.599 -589.445)" fill="#eacdb0"/>
          </g>
          <path id="Path_5786" data-name="Path 5786" d="M595.348,694.533l-1.377,2.033,3.37,4.706,3.841,1.058,1.728-1.755-4.164-5.743Z" transform="translate(-593.971 -660.065)" fill="#292949"/>
        </g>
        <path id="Path_5787" data-name="Path 5787" d="M613.224,525.228l-1.874-19.634-.9-12.757-3.038-10.419L591,479.872l-20.281,3.476-.975,3.94,3.9,36.474,19.562,1.466-.265-22.7,3.017,14.071-.128,8.63Z" transform="translate(-569.749 -479.872)" fill="#1a3151"/>
      </g>
      <path id="Path_5788" data-name="Path 5788" d="M585.634,325.34q-.041.994-.057,1.987c-.237,13.468.505,27.107.59,40.686a150.659,150.659,0,0,1,21.024-1.795c1.629-.025,9.036,1.119,10.067.146,1.4-1.32-.139-1.071-.037-2.791.133-2.225-.937-4.047-.533-6.684.475-3.1,1.419-6.164,1.963-9.262a135.305,135.305,0,0,0,1.96-18.806c.189-5.592-.014-11.39-2.419-16.442-5.93-12.457-25.047-12.233-30.293.774A36.5,36.5,0,0,0,585.634,325.34Z" transform="translate(-580.354 -278.256)" fill="#fff"/>
      <path id="Path_5789" data-name="Path 5789" d="M640.979,305.813l-5.192,9.463q.407,14.338.814,28.676.188,6.608.375,13.216c.043,1.529.081,3.059.13,4.589.022.686-.168,1.842.224,2.4.85,1.216,3.958.837,5.313.944a23.365,23.365,0,0,1,6.249,1.069,20.09,20.09,0,0,0,3.98,1.414,1.181,1.181,0,0,0,.912-.149,1.325,1.325,0,0,0,.349-.972c.486-6.562.5-13.328.86-19.96.286-5.216.993-10.474.744-15.7a111.739,111.739,0,0,0-2.124-15.993c-.608-3.122-1.323-6.306-3.042-8.983-1.949-3.034-4.707-4.25-8.1-4.934-1.2-.241-5.666-1.93-4.921.8C637.916,303.044,640.069,304.729,640.979,305.813Z" transform="translate(-614.127 -276.204)" fill="#243876"/>
      <path id="Path_5790" data-name="Path 5790" d="M586.144,308.363l5.193,9.463c-.109,0-.659,23.195-.7,24.761q-.254,8.931-.507,17.862a32.8,32.8,0,0,1-.148,5.22c-.452,2.271-2.843,1.824-4.88,2.008-4.456.4-9.148,1.162-13.617.937-1.289-.065.407-26.965.405-29.476-.009-9.029-1.872-19.046,2.715-27.233,1.335-2.382,3.687-6.2,6.284-7.378,2.42-1.1,5.884-1.282,8.511-1.9l.137,1.7Z" transform="translate(-570.588 -277.864)" fill="#243876"/>
      <g id="Group_4967" data-name="Group 4967" transform="translate(11.493)">
        <g id="Group_4966" data-name="Group 4966">
          <path id="Path_5791" data-name="Path 5791" d="M645.844,242.559a10.471,10.471,0,0,1,1.284,4.731,1.5,1.5,0,0,0,.4,1.2c.379.277.046.884.334.514a8.073,8.073,0,0,0,1.312-2.124,17.306,17.306,0,0,0,0-3.3,4.726,4.726,0,0,0-.91-2.673,5.357,5.357,0,0,0-1.348-1.026,6.893,6.893,0,0,0-2.238-1c-1.394-.26-2.249.24-1.019,1.212A8.5,8.5,0,0,1,645.844,242.559Z" transform="translate(-630.511 -234.98)" fill="#292949"/>
          <g id="Group_4965" data-name="Group 4965" transform="translate(1.617 4.139)">
            <path id="Path_5792" data-name="Path 5792" d="M614.725,261.874c.01.674-.129,1.374.466,1.9a2.04,2.04,0,0,0,1.049.412,6.51,6.51,0,0,0,2.92-.207,2.623,2.623,0,0,0,1.065-.562,1.331,1.331,0,0,0,.379-1.079c.019-.508.122-1.025.189-1.541.145-1.127.211-2.264.243-3.4,1.67-.287,3.634-.827,4.205-2.576a5.748,5.748,0,0,0,.191-1.737q.027-3.635.053-7.271a7.027,7.027,0,0,0-.279-2.48,5.042,5.042,0,0,0-3.039-2.69,10.909,10.909,0,0,0-9.892.6,5.4,5.4,0,0,0-1.982,1.994,8.478,8.478,0,0,0-.5,4.512l.3,4.254c.115,1.631.36,3.508,1.627,4.37.672.457,1.541.541,2.121,1.133,1.012,1.033.529,2.576.828,3.828A2.459,2.459,0,0,1,614.725,261.874Z" transform="translate(-609.717 -239.743)" fill="#eacdb0"/>
          </g>
          <path id="Path_5793" data-name="Path 5793" d="M626.017,274.994c-.027-.449-.223-1.766-.9-.939a1.353,1.353,0,0,0-.231.811,3.069,3.069,0,0,1-.089.856,1.508,1.508,0,0,1-1.512.9,1.472,1.472,0,0,1-.709-.167,2.211,2.211,0,0,1-.538-.5l-1.182-1.357c-.678-.777-2.021-.441-2.934-.322a5.849,5.849,0,0,0-2.964,1.147c-.086.07-.171.143-.256.216a3.172,3.172,0,0,1-.656.473,2.025,2.025,0,0,1-2.388-.757c-.261-.339-.5-.775-.91-.832a.833.833,0,0,0-.788.48,2.379,2.379,0,0,0-.229.994,7.306,7.306,0,0,0,.635,3.653c1.177,2.408,3.452,2.7,5.738,2.65l2.711-.064a8.58,8.58,0,0,0,4.791-1.068,5.936,5.936,0,0,0,2.257-3.8A9.343,9.343,0,0,0,626.017,274.994Zm-6.045,3.413a3.164,3.164,0,0,1-2.8.324c-.412-.124-.237-.816.176-.692a2.543,2.543,0,0,0,2.287-.251C620,277.543,620.335,278.163,619.973,278.407Z" transform="translate(-608.099 -258.482)" fill="#292949"/>
          <path id="Path_5794" data-name="Path 5794" d="M623.052,230.5a12.885,12.885,0,0,0,.353-1.79,3.541,3.541,0,0,1-1.753.15l0-1.046c0-.29-3.924-.493-4.243-.519-2.983-.245-5.711-.477-8.408,1.123a8.123,8.123,0,0,0-4.135,6.068,12.424,12.424,0,0,0,1.962,7.964,17.318,17.318,0,0,1-.238-2.913,5.736,5.736,0,0,1,.627-1.838,7.579,7.579,0,0,1,2.659-2.795,14.737,14.737,0,0,1,5.811-1.958,15.916,15.916,0,0,1,5.965-.005c.883.237,1.03.459,1.565-.433a15.116,15.116,0,0,0,.769-1.994Z" transform="translate(-604.788 -227.123)" fill="#292949"/>
        </g>
      </g>
    </g>
    <g id="Group_4971" data-name="Group 4971" transform="translate(942.742 516.486)">
      <g id="Group_4970" data-name="Group 4970">
        <g id="Group_4969" data-name="Group 4969">
          <path id="Path_5795" data-name="Path 5795" d="M664.974,300.937a4.619,4.619,0,0,1-2.392-.881c-2.87-1.9-4.117-5.373-5.694-8.289-.941-1.739-1.862-4.319-3.321-5.667-.273-.253-3.411-1.744-3.385-1.842l.159-.858.853.164.506-.347-2.284-1.18,1.5-2.526,3.4-.086c.991,1.893,1.512,4.084,2.941,5.709.6.688,1.316,1.271,1.977,1.9,1.135,1.088,2.114,2.321,3.14,3.509,1.315,1.522,3.315,2.762,4.085,4.671.429,1.064,1.135,3.462.645,4.529A2.28,2.28,0,0,1,664.974,300.937Z" transform="translate(-649.417 -279.426)" fill="#11235c"/>
        </g>
      </g>
      <path id="Path_5796" data-name="Path 5796" d="M678.806,330.284a1.026,1.026,0,0,1,.58.218,1,1,0,0,1,.221.654,33.033,33.033,0,0,1-.644,8.085c-.62,3.719-1.408,7.661-4.018,10.383-1.5,1.568-3.937,2.611-5.853,1.586-1.676-.9-2.289-2.973-2.55-4.855a28.307,28.307,0,0,1,2.678-16.383,2.347,2.347,0,0,1,.657-.9c.746-.539,3.076.307,3.958.444Z" transform="translate(-660.749 -312.668)" fill="#11235c"/>
    </g>
    <g id="Group_4973" data-name="Group 4973" transform="translate(908.423 489.88)">
      <g id="Group_4972" data-name="Group 4972">
        <path id="Path_5797" data-name="Path 5797" d="M554.32,230.983a3.394,3.394,0,0,0,1.029-3.8l-2.757-7.469c-.516-1.4-1.5-3.064-1.519-4.522-.031-2.578.887-5.5,1.416-8.013.268-1.276.367-3.08,1.036-4.206.125-.211,1.83-1.742,1.794-1.8l-.261-.513-.508.264-.385-.124,1.222-1.175-1.422-1.316-2.167.584c-.271,1.383-.19,2.865-.788,4.162-.253.548-.594,1.05-.892,1.575-.513.9-.9,1.864-1.327,2.807-.412.912-1,1.747-1.4,2.651-.877,2.016-1.74,4.039-2.609,6.058l4.031,13.168A3.472,3.472,0,0,0,554.32,230.983Z" transform="translate(-544.783 -198.307)" fill="#11235c"/>
      </g>
      <path id="Path_5798" data-name="Path 5798" d="M565.874,284.281a15.921,15.921,0,0,1-4.44-2.843c-.582-.54-3.214-5.53-2.735-5.662l-.121.038-.354.132-.048-.005c-.786-.08-2.2.7-2.969.945a56.753,56.753,0,0,1-7.5,2.132,23.664,23.664,0,0,0,1.058,6.6,56.917,56.917,0,0,0,2.294,5.4,47.351,47.351,0,0,0,2.782,5.486c.247.439,2.723,5.539,2.58,5.563a5.891,5.891,0,0,0,3.423-2.542c2.07-2.724,3.054-6.415,5.652-8.637,2.018-1.727,4.657-1.894,4.4-5.383A18.215,18.215,0,0,1,565.874,284.281Z" transform="translate(-546.746 -250.367)" fill="#11235c"/>
    </g>
    <g id="Group_4974" data-name="Group 4974" transform="translate(862.361 507.107)">
      <path id="Path_5799" data-name="Path 5799" d="M469.945,258.521a3.217,3.217,0,0,1-.343,1.227,8.052,8.052,0,0,0-.467,4.039,12.086,12.086,0,0,1,3.9.634l.822-2.972a1.167,1.167,0,0,1,.191-.441,1.243,1.243,0,0,1,.53-.315,10.214,10.214,0,0,0,2.918-1.775,1.6,1.6,0,0,0,.47-.571,1.74,1.74,0,0,0,.086-.664q0-2.687-.009-5.374a.751.751,0,0,0-.637-.894l-.918-.325a1.023,1.023,0,0,0-.277-.1,1.6,1.6,0,0,0-1.387,0,5.483,5.483,0,0,1-1.465.226,7.889,7.889,0,0,1-1.493,5.394.47.47,0,0,1-.3.228.464.464,0,0,1-.348-.2,5.835,5.835,0,0,1-1.021-1.529l-1.483.371a2.685,2.685,0,0,0,.694,2.249,2.223,2.223,0,0,0,.167.154A.729.729,0,0,1,469.945,258.521Z" transform="translate(-447.577 -250.832)" fill="#eacdb0"/>
      <path id="Path_5800" data-name="Path 5800" d="M431.694,280.437l-6.174-1.011-6.3,17.233-14.876-2.534,3.24,19.828,18.924-11.334Z" transform="translate(-404.347 -270.047)" fill="#6d547c"/>
    </g>
    <g id="Group_4984" data-name="Group 4984" transform="translate(833.65 500.008)">
      <g id="Group_4983" data-name="Group 4983">
        <g id="Group_4976" data-name="Group 4976" transform="translate(0 70.586)">
          <g id="Group_4975" data-name="Group 4975" transform="translate(0 69.335)">
            <path id="Path_5801" data-name="Path 5801" d="M332.971,665.624a14.922,14.922,0,0,1-2.708-.37,46.745,46.745,0,0,1,1.084-9.469c1.415,1.571,2.607.658,2.558,3.609C333.89,660.349,332.787,664.17,332.971,665.624Z" transform="translate(-325.851 -655.785)" fill="#e5d1bd"/>
            <path id="Path_5802" data-name="Path 5802" d="M321.019,679.7c-1.068-.382-1.308,2.167-1.317,2.767a4.462,4.462,0,0,1-.054,1.076,2.876,2.876,0,0,1-.6,1.016l-1.551,1.95a3.393,3.393,0,0,0-.593.943,1.991,1.991,0,0,0,1.027,2.324c2.865,1.447,5.483-2.058,6.1-4.372.1-.355.165-.716.234-1.076.144-.746.708-2.373.412-3.1-.345-.85-1.392-.234-2.078-.555C321.967,680.377,321.451,679.857,321.019,679.7Z" transform="translate(-316.813 -671.832)" fill="#292949"/>
          </g>
          <path id="Path_5803" data-name="Path 5803" d="M345.678,470.608c-2.672,7.273-5.754,14.386-7.512,22-2.172,9.4-5.673,18.576-7.47,28a23.247,23.247,0,0,1-3.478-.148c-1.323-.156-3.422-.513-3.9-1.958a8.755,8.755,0,0,1,.052-2.706c.119-2.456.295-4.909.475-7.362.511-6.938.862-13.961,2.138-20.8,1.342-7.2,2.628-14.415,3.809-21.61.61-3.718,1.362-7.413,2.287-11.066.238-.941,2.72-10.643,3.207-10.566a45.5,45.5,0,0,1,16.226,5.821,2.323,2.323,0,0,1,1.132,1.153,2.144,2.144,0,0,1-.142,1.431c-1.505,4.472-3.511,8.666-5.116,13.12C346.828,467.468,346.262,469.017,345.678,470.608Z" transform="translate(-321.115 -444.393)" fill="#5d66d3"/>
        </g>
        <g id="Group_4978" data-name="Group 4978" transform="translate(22.939 71.054)">
          <g id="Group_4977" data-name="Group 4977" transform="translate(1.765 69.273)">
            <path id="Path_5804" data-name="Path 5804" d="M393.237,665.934a14.951,14.951,0,0,0,2.7.452,46.75,46.75,0,0,0,1.781-9.363c-1.818,1.079-2.684-.147-3.516,2.685C393.928,660.625,393.845,664.6,393.237,665.934Z" transform="translate(-392.875 -657.023)" fill="#e5d1bd"/>
            <path id="Path_5805" data-name="Path 5805" d="M396.108,680.03c0,1.743,1.374,3.619,2.133,5.186a1.073,1.073,0,0,1-.175,1.4,2.238,2.238,0,0,1-.91.856,2.132,2.132,0,0,1-1.226-.014q-1.018-.223-2.013-.539a1.394,1.394,0,0,1-.468-.217,1.45,1.45,0,0,1-.346-.5,5.26,5.26,0,0,1-.841-2.661,16.038,16.038,0,0,0-.035-3.282c-.1-.521-.228-1.188.219-1.474.345-.221.977.084,1.353.145a5.1,5.1,0,0,1,1.886.415.883.883,0,0,1,.322.277A.737.737,0,0,1,396.108,680.03Z" transform="translate(-392.132 -671.594)" fill="#292949"/>
          </g>
          <path id="Path_5806" data-name="Path 5806" d="M387.974,468.253c.387,7.738,1.215,15.446.629,23.238-.724,9.625-.108,19.422-1.2,28.956a23.248,23.248,0,0,0,3.365.893c1.309.244,3.42.528,4.3-.709a8.75,8.75,0,0,0,.755-2.6c.617-2.38,1.179-4.775,1.735-7.17,1.576-6.776,3.33-13.586,4.146-20.5.858-7.269,1.778-14.545,2.79-21.765.523-3.732.9-7.483,1.108-11.246.052-.97.568-10.97.08-11.041a45.5,45.5,0,0,0-17.224.732,2.321,2.321,0,0,0-1.423.764,2.143,2.143,0,0,0-.29,1.408c.107,4.717.775,9.318.982,14.048C387.809,464.912,387.889,466.561,387.974,468.253Z" transform="translate(-386.75 -445.819)" fill="#5d66d3"/>
        </g>
        <path id="Path_5807" data-name="Path 5807" d="M351.492,323.379q-.141.048-.281.1a15.8,15.8,0,0,0-4.173,2.7c-1.944,1.57-2.9,2.259-3.652,4.584a56.5,56.5,0,0,0-1.567,6.694c-2.2,11.474-2.627,22.9-4.206,34.461-.43,3.147-.762,6.846,1.565,9.008,4.129-3.214,9.32-3.4,14.328-3.4,3.517,0,6.956-1.142,10.481-.75,3.37.375,6.312-.467,9.731-.244.825.054,1.875.045,2.2-.715-1.183-3.547-1.163-7.361-1.431-11.091-.693-9.647-3.889-18.9-5.178-28.485-.438-3.257-.672-8.663-3.194-11.128-2.741-2.679-8.993-2.734-12.516-2.21A12.145,12.145,0,0,0,351.492,323.379Z" transform="translate(-330.583 -291.986)" fill="#6d547c"/>
        <g id="Group_4982" data-name="Group 4982" transform="translate(5.986)">
          <g id="Group_4981" data-name="Group 4981">
            <g id="Group_4980" data-name="Group 4980" transform="translate(13.444 8.154)">
              <g id="Group_4979" data-name="Group 4979" transform="translate(0 3.89)">
                <path id="Path_5808" data-name="Path 5808" d="M380.147,285.093a1.266,1.266,0,0,0,.239.323,2.747,2.747,0,0,0,1.539.713,6.82,6.82,0,0,0,2.232-.157c.995-.19.96-.772,1.1-1.675.079-.493.128-.991.165-1.489.02-.273-.085-1.25.089-1.442.118-.13.6-.086.809-.2a2.322,2.322,0,0,0,.813-.808,6.529,6.529,0,0,0,.676-1.655l.91-2.986a15.79,15.79,0,0,0,.721-3.1c.15-1.6-.108-3.847-1.312-5.014a7.2,7.2,0,0,0-4.171-1.625,8.689,8.689,0,0,0-5.644,1.141,4.646,4.646,0,0,0-1.723,1.7,7.519,7.519,0,0,0-.5,3.917q.092,1.853.184,3.706c.071,1.421.248,3.058,1.312,3.828.565.409,1.3.5,1.788,1.021a3.68,3.68,0,0,1,.592,2.476A3.04,3.04,0,0,0,380.147,285.093Z" transform="translate(-376.053 -265.906)" fill="#eacdb0"/>
              </g>
              <path id="Path_5809" data-name="Path 5809" d="M397.794,261.153a2.077,2.077,0,0,1,.166.361c.227.655.073,1.394.3,2.051.351,1.041,1.566,1.667,1.749,2.751.15.886-.456,1.729-.507,2.626-.056.98.572,1.908.475,2.876a6.4,6.4,0,0,1-1.12,2.7c.156-.209,1.562-.134,1.927-.357a1.477,1.477,0,0,0,.789-1.139,11.755,11.755,0,0,1,.295-1.742c.316-.727.965-1.261,1.192-2.036.31-1.058-.253-2.175-.209-3.276.067-1.668,1.508-3.239.985-4.824-.307-.93-1.21-1.524-1.718-2.361a12.635,12.635,0,0,1-.8-2.079,2.478,2.478,0,0,0-1.44-1.6,12.191,12.191,0,0,0-1.229-.145,15.139,15.139,0,0,1-1.961-.844c-.968-.327-2.674.651-3.239,1.471a1.691,1.691,0,0,0,.3,2.225C394.7,259.006,397.006,259.79,397.794,261.153Z" transform="translate(-387.54 -254.045)" fill="#292949"/>
            </g>
            <path id="Path_5810" data-name="Path 5810" d="M360.295,253.311a18.5,18.5,0,0,0-1.825,1.23,5.455,5.455,0,0,0-1.266,3.935c-.033,1.26-.584,2.38-.448,3.694a3.214,3.214,0,0,0,1.184,2.295c.894.649,2.3.755,2.7,1.785.433,1.119-.726,2.528-.022,3.5.388.536,1.149.615,1.7.975a4.891,4.891,0,0,1,1.316,1.754,2.239,2.239,0,0,0,1.685,1.285,6.157,6.157,0,0,0-.417-3.04c-.279-.6-1.1-1.7-.47-2.35.4-.539,1.34-.714,1.364-1.383a1.55,1.55,0,0,0-.381-.845,3.852,3.852,0,0,1-.284-3.5,5.008,5.008,0,0,1,2.486-2.563c1.284-.622,1.077-.936,1.451-2.165.344-1.132.986-1.4,2-1.81a2.146,2.146,0,0,0,1.546-1.457,2.492,2.492,0,0,0,.193-2.076,4.224,4.224,0,0,0-1.294-1.332,5.488,5.488,0,0,0-3.5-1.528c-.722.052-1.4.392-2.125.433-.482.028-.962-.079-1.445-.1a3.841,3.841,0,0,0-2.358.713c-.672.494-.653,1.012-1.027,1.713A2.512,2.512,0,0,1,360.295,253.311Z" transform="translate(-349.626 -242.976)" fill="#292949"/>
            <path id="Path_5811" data-name="Path 5811" d="M348.645,234.9c.127-.783.045-1.8-.7-2.066-.409-.145-.868.014-1.294-.073-.907-.184-1.216-1.282-1.691-2.077a.686.686,0,0,0-.282-.3,1.115,1.115,0,0,0-.585.015c-.9.11-1.588-.78-2.438-1.1a2.134,2.134,0,0,0-2.692,1.338c-.13.444-.108.92-.23,1.366-.5,1.807-3.141,2.575-3.208,4.448-.045,1.265,1.193,2.477.711,3.648-.308.749-1.271,1.259-1.161,2.061a1.117,1.117,0,0,0,1.141.86,2.243,2.243,0,0,0,1.391-.636c.622-.544,1.092-1.241,1.685-1.817a2.818,2.818,0,0,1,2.2-.94c.794.1,1.513.718,2.3.585.631-.106,1.1-.669,1.721-.828a5.838,5.838,0,0,1,1.782.115c.6.036,1.333-.275,1.349-.874a1.5,1.5,0,0,1,.009-.433c.128-.386.787-.364.912-.751-.312-.481-.752-.309-.976-.937A3.456,3.456,0,0,1,348.645,234.9Z" transform="translate(-335.064 -229.186)" fill="#292949"/>
          </g>
        </g>
      </g>
    </g>
    <g id="Group_4991" data-name="Group 4991" transform="translate(849.878 541.678)">
      <g id="Group_4989" data-name="Group 4989">
        <g id="Group_4988" data-name="Group 4988">
          <g id="Group_4987" data-name="Group 4987">
            <g id="Group_4985" data-name="Group 4985">
              <rect id="Rectangle_2492" data-name="Rectangle 2492" width="123.124" height="85.483" fill="#11235c"/>
            </g>
            <g id="Group_4986" data-name="Group 4986" transform="translate(2.87 2.718)">
              <path id="Path_5812" data-name="Path 5812" d="M404.426,364.52H375.038v26.113C375.038,376.211,388.2,364.52,404.426,364.52Z" transform="translate(-375.038 -364.52)" fill="#11235c" opacity="0.2"/>
            </g>
          </g>
        </g>
      </g>
      <g id="Group_4990" data-name="Group 4990" transform="translate(53.819 41.722)" opacity="0.2">
        <path id="Path_5813" data-name="Path 5813" d="M530.372,527.2h69.306V483.439S593.275,527.2,530.372,527.2Z" transform="translate(-530.372 -483.439)" fill="#3b3387"/>
      </g>
    </g>
    <g id="Group_4992" data-name="Group 4992" transform="translate(960.35 482.03)">
      <path id="Path_5814" data-name="Path 5814" d="M703.117,174.468c-.005-.031-.009-.063-.015-.094.019.015.035.032.054.048C703.143,174.438,703.13,174.452,703.117,174.468Z" transform="translate(-703.102 -174.374)" fill="gray" opacity="0.49"/>
    </g>
    <g id="Group_5004" data-name="Group 5004" transform="translate(780.423 499.445)">
      <g id="Group_4995" data-name="Group 4995" transform="translate(4.699 68.911)">
        <g id="Group_4993" data-name="Group 4993" transform="translate(3.153 83.489)">
          <path id="Path_5815" data-name="Path 5815" d="M178.667,694.884l-.2,2.77,5.343,3.164,2.967-2.573-2.573-2.967-5.343-3.164Z" transform="translate(-178.469 -692.114)" fill="#292949"/>
        </g>
        <g id="Group_4994" data-name="Group 4994">
          <path id="Path_5816" data-name="Path 5816" d="M169.456,439.593l-.6,8.413,8.622,37.253-5.5,37.657,5.416,1.49,16-45.06.54-13.644-3.2-28.132Z" transform="translate(-168.858 -437.57)" fill="#292949"/>
        </g>
      </g>
      <g id="Group_4998" data-name="Group 4998" transform="translate(18.206 74.562)">
        <g id="Group_4996" data-name="Group 4996">
          <path id="Path_5817" data-name="Path 5817" d="M231.91,456.137l3.423,35.282-2.769,46.1-5.117.437-6.818-41.741L210.04,454.8Z" transform="translate(-210.04 -454.8)" fill="#292949"/>
        </g>
        <g id="Group_4997" data-name="Group 4997" transform="translate(17.385 82.075)">
          <path id="Path_5818" data-name="Path 5818" d="M263.043,705.508l.236,2.767,5.77,2.295,2.531-3-3-2.531Z" transform="translate(-263.043 -705.036)" fill="#292949"/>
        </g>
      </g>
      <g id="Group_4999" data-name="Group 4999" transform="translate(0 26.425)">
        <path id="Path_5819" data-name="Path 5819" d="M154.908,356.949c-.4,3.209-.753,7.555.466,7.842a1.126,1.126,0,0,0,.676-.127c2.258-.945,3.94-2.43,6.164-3.339a24.4,24.4,0,0,1,7.443-1.5,70.014,70.014,0,0,1,11.383.007,89.448,89.448,0,0,1,8.854,1.371c2.436.46,4.647,1.425,7.169,1.512a16.184,16.184,0,0,0,7.527-1.556.435.435,0,0,0,.219-.173.441.441,0,0,0,0-.3,13.586,13.586,0,0,0-1.432-4.24,26.367,26.367,0,0,1-2.116-4.8,73.013,73.013,0,0,1-3.21-10.249c-1.217-4.738-2.688-9.383-3.847-14.131a78.588,78.588,0,0,0-2.727-9.8c-.959-2.481-2.748-6.144-5.224-7.45a8.081,8.081,0,0,0-2.739-.7l-8.548-1.137a6.977,6.977,0,0,0-3.115.058c-1.49.5-2.45,1.907-3.3,3.228a68.809,68.809,0,0,0-8.362,19.3c-.965,3.57-1.886,7.151-2.689,10.758-.9,4.025-1.645,8.085-2.139,12.177C155.3,354.155,155.1,355.424,154.908,356.949Z" transform="translate(-154.531 -308.036)" fill="#11235c"/>
      </g>
      <g id="Group_5000" data-name="Group 5000" transform="translate(14.912 26.577)">
        <path id="Path_5820" data-name="Path 5820" d="M208.112,324.746a23.5,23.5,0,0,1-.857,4.811L200,358.486l23.043,2.189q.154-5.545.309-11.089a39.336,39.336,0,0,0-3.017-18.217l-6.844-20.152a1.993,1.993,0,0,0-1.744-1.614,22.7,22.7,0,0,0-6.836-1.094c-.76,1.95.911,5.65,1.471,7.595C207.193,318.934,208.222,321.767,208.112,324.746Z" transform="translate(-199.997 -308.499)" fill="#f7f7f7"/>
      </g>
      <g id="Group_5003" data-name="Group 5003" transform="translate(13.316 0)">
        <g id="Group_5001" data-name="Group 5001" transform="translate(4.715 10.349)">
          <path id="Path_5821" data-name="Path 5821" d="M217.367,277.683l-4.75-.7a24.019,24.019,0,0,1,.442-3.8,10.954,10.954,0,0,1-2.63-1.782c-.557-.944-.48-2.423-.642-3.494-.344-2.281-.624-4.837.754-6.686,1.427-1.915,4.13-2.341,6.511-2.156,2.99.232,6.229,1.446,7.5,4.164,1.145,2.455-.956,5.682-1.709,8.074-.371,1.179-.889,2.516-2.061,2.908a10.225,10.225,0,0,0-1.911.43C217.863,275.211,217.925,276.668,217.367,277.683Z" transform="translate(-209.506 -259.022)" fill="#eacdb0"/>
        </g>
        <g id="Group_5002" data-name="Group 5002">
          <path id="Path_5822" data-name="Path 5822" d="M220.047,238.092q.522-2.445,1.045-4.889a4.3,4.3,0,0,0,.121-1.837,3.215,3.215,0,0,0-2.111-2.082c-.96-.37-2-.488-2.977-.812a12.718,12.718,0,0,0-3.128-.994c-2.086-.124-3.875,1.637-5.961,1.752-2.889.159-5.363-1.414-7.426,1.752-.379.582-.54,1.28-.883,1.883a13.808,13.808,0,0,1-1.751,2.034c-2.581,2.982-2.361,7.937.08,10.944,1.183,1.458,1.6,2.709,3.374,3.322-.657-1.78,1.143-8.411,3.5-8.932.625-.137,2.363.79,3.021.957a17.863,17.863,0,0,1,4.21,1.48,21.662,21.662,0,0,0,6.386,2.312.833.833,0,0,0,1.191-.785Z" transform="translate(-195.131 -227.471)" fill="#292949"/>
        </g>
      </g>
    </g>
    <g id="Group_5007" data-name="Group 5007" transform="translate(901.713 435.935)">
      <g id="Group_5006" data-name="Group 5006">
        <path id="Path_5823" data-name="Path 5823" d="M524.481,72.718a13.859,13.859,0,0,1,11.5-15.732c-.045-.235-.089-.47-.125-.709a16.809,16.809,0,0,1,27.516-15.292,15.543,15.543,0,0,1,28.3,5.249c.343-.078.69-.149,1.044-.2a13.862,13.862,0,0,1,8.241,26.111,13.412,13.412,0,0,1-11.112,20.448l2.122,14.191c.083.617-.67.981-.94.7L580.149,96.209A13.4,13.4,0,0,1,560.68,94.6a14.977,14.977,0,0,1-24.544-9.172c-.053-.356-.089-.71-.116-1.063A13.867,13.867,0,0,1,524.481,72.718Z" transform="translate(-524.326 -33.839)" fill="#a19aac"/>
        <g id="Group_5005" data-name="Group 5005" transform="translate(25.199 31.639)">
          <path id="Path_5824" data-name="Path 5824" d="M602.459,144.849a1.592,1.592,0,0,1,.47,3.146A1.592,1.592,0,0,1,602.459,144.849Z" transform="translate(-601.155 -140.064)" fill="#fff"/>
          <path id="Path_5825" data-name="Path 5825" d="M645.626,138.393a1.592,1.592,0,0,1,.47,3.146A1.592,1.592,0,0,1,645.626,138.393Z" transform="translate(-630.163 -135.726)" fill="#fff"/>
          <path id="Path_5826" data-name="Path 5826" d="M699.585,130.323a1.592,1.592,0,0,1,.471,3.146A1.592,1.592,0,0,1,699.585,130.323Z" transform="translate(-666.424 -130.303)" fill="#fff"/>
        </g>
      </g>
    </g>
    <g id="Group_5008" data-name="Group 5008" transform="translate(865.18 557.154)">
      <path id="Path_5827" data-name="Path 5827" d="M685.2,405.121l-5.187,4.141q1.32,2.022,2.576,4.086c.418.691-.707,1.235-1.12.551-.787-1.3-1.6-2.586-2.431-3.858l-5.051,4.032c-.628.5-1.444-.446-.814-.95l5.179-4.135q-1.521-2.287-3.134-4.514c-.47-.648.471-1.471.945-.818q1.629,2.246,3.163,4.555l5.06-4.04C685.017,403.67,685.833,404.618,685.2,405.121Z" transform="translate(-587.669 -403.417)" fill="#fff"/>
      <path id="Path_5828" data-name="Path 5828" d="M504.276,439.775a35.082,35.082,0,0,0-1.815-6.759c-.183-.486-.8-.4-1.074-.08a26.262,26.262,0,0,0-4.033,6.362c-.273.6.543,1.049.995.686a15.312,15.312,0,0,0,1.624-1.519c-2.872,9.208-5.653,20.528-16.045,22.657-9.3,1.9-14.537-8.476-18.569-15.075-3.459-5.661-7.131-11.794-12.912-15.349a19.911,19.911,0,0,0-20.056-.106c-6.33,3.459-11.4,9.806-11.255,17.239a7.847,7.847,0,0,0-8.072,6.595c-.605,3.328,1.083,8.718,4.954,8.558a.515.515,0,0,0,.4.617,7.621,7.621,0,0,0,9.429-6.089c.8-4.041-1.328-8.543-5.469-9.5-.426-10.111,9.98-18.638,19.538-18.875,15.8-.391,20.756,17.549,29.107,27.582,2.5,3,5.673,5.5,9.677,5.841A14.385,14.385,0,0,0,490.889,459c6.943-5.695,8.39-14.993,11.226-23.086a33.978,33.978,0,0,1,.937,4.1C503.182,440.815,504.405,440.571,504.276,439.775Zm-82.811,9.35a.582.582,0,0,0,.266.042c.127.021.254.04.381.069,7.683,1.747,5.045,14.535-2.59,13.323.329-.422.057-1.2-.568-1.011-4.554,1.382-5.379-5.474-4.265-8.316A6.448,6.448,0,0,1,421.465,449.125Z" transform="translate(-412.942 -419.893)" fill="#fff"/>
      <path id="Path_5829" data-name="Path 5829" d="M419.172,503.605a7.127,7.127,0,0,1-.11-1.175c-.091-4.55,2.254-7.579,6.934-6.48,2.409.565,3.809,3.6,3.8,5.869a4.639,4.639,0,0,1-1.755,4.007c-2.094,1.311-7.043,1.464-8.444-1.013A3.9,3.9,0,0,1,419.172,503.605Z" transform="translate(-417.053 -465.448)" fill="#d67086"/>
    </g>
    <g id="Group_5009" data-name="Group 5009" transform="translate(857.412 472.878)">
      <rect id="Rectangle_2493" data-name="Rectangle 2493" width="56.988" height="4.031" transform="matrix(0.576, 0.817, -0.817, 0.576, 12.682, 17.955)" fill="#d67086"/>
      <rect id="Rectangle_2494" data-name="Rectangle 2494" width="56.988" height="4.031" transform="matrix(0.576, 0.817, -0.817, 0.576, 19.269, 13.307)" fill="#d67086"/>
      <rect id="Rectangle_2495" data-name="Rectangle 2495" width="56.988" height="4.031" transform="matrix(0.576, 0.817, -0.817, 0.576, 15.976, 15.631)" fill="#fff"/>
      <rect id="Rectangle_2496" data-name="Rectangle 2496" width="1.087" height="12.092" transform="translate(18.642 12.419) rotate(54.796)" fill="#babcbe"/>
      <rect id="Rectangle_2497" data-name="Rectangle 2497" width="1.087" height="12.092" transform="matrix(0.576, 0.817, -0.817, 0.576, 18.016, 11.531)" fill="#f7f7f7"/>
      <rect id="Rectangle_2498" data-name="Rectangle 2498" width="1.087" height="12.092" transform="matrix(0.576, 0.817, -0.817, 0.576, 17.389, 10.642)" fill="#babcbe"/>
      <path id="Rectangle_2499" data-name="Rectangle 2499" d="M6.046,0h5.891a0,0,0,0,1,0,0V12.092a0,0,0,0,1,0,0H6.046A6.046,6.046,0,0,1,0,6.046v0A6.046,6.046,0,0,1,6.046,0Z" transform="translate(9.88 0) rotate(54.796)" fill="#e8e8e8"/>
      <rect id="Rectangle_2500" data-name="Rectangle 2500" width="1.087" height="12.092" transform="matrix(0.576, 0.817, -0.817, 0.576, 16.762, 9.754)" fill="#f7f7f7"/>
      <path id="Path_5830" data-name="Path 5830" d="M527.927,329.016l-9.88,6.971,13.531,8.691Z" transform="translate(-475.805 -269.143)" fill="#eed5d5"/>
      <path id="Path_5831" data-name="Path 5831" d="M551.967,365.605l-2.309,1.629,3.163,2.031Z" transform="translate(-497.048 -293.731)" fill="#292949"/>
    </g>
    <g id="Group_5011" data-name="Group 5011" transform="translate(804.486 554.213)">
      <path id="Path_5832" data-name="Path 5832" d="M236.082,452.175s54.977,2.327,55.663,1.893.281-55.579-1.857-57.689C289.888,396.379,239.422,448.744,236.082,452.175Z" transform="translate(-233.396 -395.746)" fill="#3b455a" opacity="0.25"/>
      <path id="Path_5833" data-name="Path 5833" d="M284.322,450.879H227.894a187.585,187.585,0,0,0,2.127-29.97c-.084-8.964-.045-16.708-1.351-25.293,18.809,0,36.843-1.166,55.653-1.166.8,7.881,1.334,16.478,1.417,25.7A279.529,279.529,0,0,1,284.322,450.879Z" transform="translate(-227.894 -394.45)" fill="#6d547c"/>
      <g id="Group_5010" data-name="Group 5010" transform="translate(8.353 12.631)">
        <path id="Path_5834" data-name="Path 5834" d="M271.577,443.42c-.4-3.7-1.721-8.045-5.4-9.693-4.21-1.885-8.723.077-12.58,1.876-.531.248-.069,1.033.46.786.381-.177.772-.358,1.17-.538.788,8.319-.809,16.645-.22,24.968a.5.5,0,0,0,.046.588c.015.184.025.368.043.551.055.579.967.584.911,0-.019-.2-.03-.4-.046-.6C263.407,458.809,272.528,452.189,271.577,443.42Zm-6.415,11.544a27.054,27.054,0,0,1-9.278,5.454c-.519-8.318,1.078-16.639.217-24.952,3.215-1.376,6.834-2.43,10.073-.734,3.432,1.8,4.608,6.725,4.58,10.3C270.722,449.09,268.033,452.364,265.163,454.964Z" transform="translate(-253.361 -432.96)" fill="#fff"/>
        <path id="Path_5835" data-name="Path 5835" d="M314.227,480.831c-1.344-.537-3.166.118-4.289.844a7.566,7.566,0,0,0-3.181,4.83c-.772,3.625.21,8.281,4.58,8.624,4.21.33,7.4-3.463,7.841-7.373C319.553,484.479,317.574,480.934,314.227,480.831Zm3.919,7.624c-.652,2.99-3.06,5.785-6.318,5.782-4.033,0-4.88-4.275-4.191-7.489a6.872,6.872,0,0,1,2.137-3.813,6.044,6.044,0,0,1,2.91-1.377.453.453,0,0,0,.522.268,4.558,4.558,0,0,1,.784-.1,1.782,1.782,0,0,1,.293.171.375.375,0,0,0,.567-.112C317.567,482.3,318.726,485.8,318.146,488.455Z" transform="translate(-289.083 -464.997)" fill="#fff"/>
        <path id="Path_5836" data-name="Path 5836" d="M363.513,512.2a.689.689,0,0,0-.053-.072.939.939,0,0,0-1.525.359,1.653,1.653,0,0,0-.436,1.226,1,1,0,0,0,.976.918,1.251,1.251,0,0,0,1.118-.966.953.953,0,0,0,.271-.872A.99.99,0,0,0,363.513,512.2Z" transform="translate(-326.023 -485.976)" fill="#fff"/>
        <path id="Path_5837" data-name="Path 5837" d="M367.932,448.589c-.425-.754-1.6-.747-2.36-.787a.462.462,0,0,0-.455.456q-.234,8.038-.121,16.079a.448.448,0,0,0,.548.433.455.455,0,0,0,.907-.023,95.7,95.7,0,0,1,1.033-11.872c.133-.871.28-1.74.434-2.609A2.533,2.533,0,0,0,367.932,448.589Zm-1.916.149.117.012a.507.507,0,0,0-.058.185c-.016.166-.044.324-.075.481C366.006,449.191,366.01,448.965,366.016,448.738Zm-.072,3.046a.411.411,0,0,0,.224.079c-.1.49-.2.95-.247,1.307Q365.932,452.477,365.944,451.784Z" transform="translate(-328.355 -442.934)" fill="#fff"/>
      </g>
    </g>
    <g id="Group_5014" data-name="Group 5014" transform="translate(786.659 529.84)">
      <g id="Group_5012" data-name="Group 5012" transform="translate(2.468 16.151)">
        <path id="Path_5838" data-name="Path 5838" d="M209.942,395a1.117,1.117,0,0,0-.132-.284c-.56-.768-1.312-.834-2.058-1.418-.333-.26-.235-1.343-1.069-1.055-.308.106-1.027.473-1.681.706a6.235,6.235,0,0,1-3.47-.131,32.026,32.026,0,0,1-4.426-1.576,54.359,54.359,0,0,1-8.619-5.079,14.689,14.689,0,0,0,.4-15.154,3.4,3.4,0,0,0-1.08-1.249,2.937,2.937,0,0,0-1.349-.365c-4.964-.322-5.057,4.395-5.292,8.193a48.675,48.675,0,0,0,.061,7.154c.287,3.316,2.429,5.22,5.263,6.8a48.362,48.362,0,0,0,9.377,4.313,36.8,36.8,0,0,0,4.826.905c1.62.267,1.41.973,2.768,1.571a13.413,13.413,0,0,0,2.277,1c1.451.336,2.619-.667,3.724-1.443a1.6,1.6,0,0,0,.606-.6,2.313,2.313,0,0,0,.074-1.435A4.481,4.481,0,0,0,209.942,395Z" transform="translate(-181.069 -369.382)" fill="#11235c"/>
      </g>
      <g id="Group_5013" data-name="Group 5013">
        <path id="Path_5839" data-name="Path 5839" d="M173.6,346.337c.075,1.833.228,3.629.442,5.353.32,2.57.745,5.358,2.624,7.14a11.1,11.1,0,0,0,2.5,1.637q6.269,3.332,12.7,6.347A24.65,24.65,0,0,0,195.6,360.4a3.039,3.039,0,0,0,.267-2.031c-.327-.983-1.465-1.4-2.462-1.68l-4.87-1.386a2.2,2.2,0,0,1-1.383-.808,2.111,2.111,0,0,1-.208-1.04c-.151-6.76,1.04-12.409,2.608-18.933.691-2.876,1.384-5.861.811-8.763-1.225-6.2-9.382-7.808-12.491-2.062C174.329,330.246,173.282,338.628,173.6,346.337Z" transform="translate(-173.545 -320.142)" fill="#11235c"/>
      </g>
    </g>
    <g id="Group_5044" data-name="Group 5044" transform="translate(960.309 501.795)">
      <g id="Group_5017" data-name="Group 5017" transform="translate(0 25.61)">
        <g id="Group_5015" data-name="Group 5015" transform="translate(0 15.072)">
          <path id="Path_5840" data-name="Path 5840" d="M706.176,375.9a1.925,1.925,0,0,1,.841-.654,8.7,8.7,0,0,0,1.57-.645c.4-.264.3-1.229,1.229-.863.343.135.942.565,1.6.815a6.56,6.56,0,0,0,3.468.08,119.617,119.617,0,0,1,13.7-2.369,1.492,1.492,0,0,0,.748-.2,1.74,1.74,0,0,0,.552-1.184,33.155,33.155,0,0,1,1.86-6.069,12.187,12.187,0,0,1,3.149-4.649,5.6,5.6,0,0,1,5.238-1.276,3.819,3.819,0,0,1,2.768,2.8c.7,3.512-2.526,6.14-4.461,8.6-1.83,2.329-3.394,4.305-5.31,6.441a2.424,2.424,0,0,1-.793.66,2.531,2.531,0,0,1-1.076.154c-4.639-.061-9.159-.24-13.7.7-1.248.259-2.387-.005-3.562.394-.75.254-1.141,1-1.831,1.354a6.176,6.176,0,0,1-2.276.769c-1.523.1-2.459-1.016-3.5-1.936a2.372,2.372,0,0,0-2.536-.661.861.861,0,0,1-.408.083.636.636,0,0,1-.38-.953,1.613,1.613,0,0,1,1-.616,4.95,4.95,0,0,1,1.28-.273.784.784,0,0,0,.526-.134C706.01,376.142,706.055,376.042,706.176,375.9Z" transform="translate(-702.976 -358.671)" fill="#e5d1bd"/>
        </g>
        <g id="Group_5016" data-name="Group 5016" transform="translate(27.509)">
          <path id="Path_5841" data-name="Path 5841" d="M794.744,338.128c-2.612-.989-5.352-1.593-7.9-2.79.924-2.217,3.595-11.238,4.055-12.318,1.755-4.122,2.094-5.9,4.513-8.075,5.165-4.648,11.3-1.566,11.046,5.032-.274,7.162-4.111,13.309-8.268,18.848a.813.813,0,0,1-.371.273.932.932,0,0,1-.589-.075C796.419,338.7,795.569,338.441,794.744,338.128Z" transform="translate(-786.846 -312.718)" fill="#aab4b5"/>
        </g>
      </g>
      <g id="Group_5028" data-name="Group 5028" transform="translate(27.336 64.09)">
        <g id="Group_5022" data-name="Group 5022">
          <g id="Group_5021" data-name="Group 5021" transform="translate(0 58.035)">
            <g id="Group_5020" data-name="Group 5020">
              <g id="Group_5018" data-name="Group 5018" transform="translate(6.885)">
                <path id="Path_5842" data-name="Path 5842" d="M810.135,634.4a21.212,21.212,0,0,1-2.69-.257c-.463-8.9.378-18.228.742-27.17l6.859.366a79.935,79.935,0,0,0-3.393,14.7C811.548,622.834,810.266,634.4,810.135,634.4Z" transform="translate(-807.309 -606.974)" fill="#a19aac"/>
              </g>
              <g id="Group_5019" data-name="Group 5019" transform="translate(0 25.421)">
                <path id="Path_5843" data-name="Path 5843" d="M793.062,684.5a1.38,1.38,0,0,0-1.273.494c-.218.2-.367.482-.631.625a2.07,2.07,0,0,1-.835.2c-1.649.166-5.45.1-3.425,2.856,1.839,2.505,6.721,1.508,9.541.827a.969.969,0,0,0,.517-.216,1.322,1.322,0,0,0,.285-.56c.322-1.179.762-2.65-.687-3.144-.618-.211-1.188.2-1.842-.028C794.176,685.372,793.626,684.6,793.062,684.5Z" transform="translate(-786.318 -684.48)" fill="#a19aac"/>
              </g>
            </g>
          </g>
          <path id="Path_5844" data-name="Path 5844" d="M794.121,493.438l13.988-.271q5.658-26.933,9.96-54.127a9.626,9.626,0,0,0,.034-4.23c-.766-2.579-3.528-4.051-6.172-4.545-4.11-.768-11.661.3-13.769,4.574-2.227,4.516-1.853,12.581-2.394,17.572A303.337,303.337,0,0,0,794.121,493.438Z" transform="translate(-791.484 -430.035)" fill="#a19aac"/>
        </g>
        <g id="Group_5027" data-name="Group 5027" transform="translate(19.24)">
          <g id="Group_5026" data-name="Group 5026" transform="translate(12.224 58.035)">
            <g id="Group_5025" data-name="Group 5025">
              <g id="Group_5023" data-name="Group 5023">
                <path id="Path_5845" data-name="Path 5845" d="M887.157,634.4a21.212,21.212,0,0,0,2.69-.257c.464-8.9-.377-18.228-.743-27.17l-6.859.366a79.91,79.91,0,0,1,3.393,14.7C885.745,622.834,887.027,634.4,887.157,634.4Z" transform="translate(-882.246 -606.974)" fill="#a19aac"/>
              </g>
              <g id="Group_5024" data-name="Group 5024" transform="translate(3.375 25.421)">
                <path id="Path_5846" data-name="Path 5846" d="M897.039,684.5a1.38,1.38,0,0,1,1.274.494c.218.2.367.482.63.625a2.073,2.073,0,0,0,.835.2c1.649.166,5.449.1,3.425,2.856-1.838,2.505-6.721,1.508-9.541.827a.971.971,0,0,1-.517-.216,1.328,1.328,0,0,1-.285-.56c-.322-1.179-.762-2.65.688-3.144.618-.211,1.188.2,1.842-.028C895.925,685.372,896.475,684.6,897.039,684.5Z" transform="translate(-892.536 -684.48)" fill="#a19aac"/>
              </g>
            </g>
          </g>
          <path id="Path_5847" data-name="Path 5847" d="M869.187,493.438l-13.988-.271q-5.657-26.933-9.961-54.127a9.638,9.638,0,0,1-.034-4.23c.766-2.579,3.528-4.051,6.173-4.545,4.11-.768,11.661.3,13.768,4.574,2.228,4.516,1.854,12.581,2.394,17.572A303.347,303.347,0,0,1,869.187,493.438Z" transform="translate(-844.978 -430.035)" fill="#a19aac"/>
        </g>
      </g>
      <g id="Group_5029" data-name="Group 5029" transform="translate(30.843 23.774)">
        <path id="Path_5848" data-name="Path 5848" d="M825,312.381a33.333,33.333,0,0,1,8.225,12.862c2.986,8.383,3.044,17.334,3.071,26.1q.014,4.379.028,8.757c.009,2.872-.245,3.49-3.367,3.112-5.784-.7-11.8-1.894-17.038-4.464a80.618,80.618,0,0,0-7.44-3.731c-3.8-1.4-7.7-.767-11.466-1.678a89.227,89.227,0,0,0,3.641-14.232c.863-5.239,1.648-10.954,2.914-16.122a42.343,42.343,0,0,1,3.607-8.851,16.069,16.069,0,0,1,3.627-5.264C815.737,304.7,821.273,308.837,825,312.381Z" transform="translate(-797.011 -307.12)" fill="#11235c"/>
      </g>
      <g id="Group_5034" data-name="Group 5034" transform="translate(44.7 0)">
        <g id="Group_5031" data-name="Group 5031" transform="translate(0 3.246)">
          <g id="Group_5030" data-name="Group 5030">
            <path id="Path_5849" data-name="Path 5849" d="M839.9,258.023a32.047,32.047,0,0,0,2.8,4.241,9.515,9.515,0,0,1,1.489,4.208c.175,1.15.587,2.049,1.972,2.246,2.613.371,1.865-1.788,2.459-3.358.678-1.8,2.125-3.213,3.136-4.816,2.921-4.63,2.087-13.78-3.984-15.733C841.136,242.676,837.759,253.34,839.9,258.023Z" transform="translate(-839.26 -244.532)" fill="#e5d1bd"/>
          </g>
        </g>
        <g id="Group_5032" data-name="Group 5032" transform="translate(6.982 5.092)">
          <path id="Path_5850" data-name="Path 5850" d="M864.789,257.326a3.322,3.322,0,0,1,2.141.6c.559.506.5,1.61-.239,1.729-.669.108-1.535-.59-1.944-.08-.239.3-.029.733.152,1.082a6.355,6.355,0,0,1,.579,4.309c.275.255.7-.01.946-.275a13.87,13.87,0,0,0,2.752-4.52,2.769,2.769,0,0,0,1.012.979,3.2,3.2,0,0,1,.062-1.945c.567-2.342.953-5.086-.682-7a6.085,6.085,0,0,0-3.544-1.86,17.783,17.783,0,0,0-4.05-.127c-.577.026-1.288.151-1.427.685a6.429,6.429,0,0,1,3.208,2.694C863.951,253.961,864.712,257.323,864.789,257.326Z" transform="translate(-860.548 -250.161)" fill="#292949"/>
        </g>
        <g id="Group_5033" data-name="Group 5033" transform="translate(1.053)">
          <path id="Path_5851" data-name="Path 5851" d="M849.967,241.266l.136.1a5.747,5.747,0,0,0,1.806,1.161c1,.279,2.075-.2,3.06.138,1.1.381,1.825,1.7,2.629,2.477a11.645,11.645,0,0,0,4.706,2.751,11.777,11.777,0,0,0,2.759.493,4.876,4.876,0,0,0,1.4-.007c.555-.149.536-.4-.055-.591-1.854-.594-2.435-3.2-2.295-4.923.11-1.362.581-2.786.061-4.05a4.8,4.8,0,0,0-2.073-2.017c-.909-.609-1.893-.445-2.925-.738-1.076-.306-1.953-1.153-3.051-1.369-1.159-.228-2.318.286-3.478.511a7.2,7.2,0,0,1-2.908-.036,11.677,11.677,0,0,0-2.563-.526,4.2,4.2,0,0,0-3.229,1.865,8.574,8.574,0,0,0-1.378,5.969c-.058-.3.961-1.4,1.17-1.636A2.758,2.758,0,0,1,845.4,239.8,7.1,7.1,0,0,1,849.967,241.266Z" transform="translate(-842.471 -234.636)" fill="#292949"/>
        </g>
      </g>
      <g id="Group_5040" data-name="Group 5040" transform="translate(11.126 20.542)">
        <path id="Path_5852" data-name="Path 5852" d="M769.254,529.818,768.9,533.7a2.179,2.179,0,0,0,1.83,2.466l9.1.828a2.179,2.179,0,0,0,2.245-2.1l.353-3.879Z" transform="translate(-758.397 -453.543)" fill="#b1b1b2"/>
        <path id="Path_5853" data-name="Path 5853" d="M781.15,324.066c1.241-13.646-7.632-25.608-19.82-26.717s-23.075,9.055-24.317,22.7a26.9,26.9,0,0,0,2.2,13.5h0a72.686,72.686,0,0,1,5.634,21.858l11.105,1.011,11.1,1.011a72.686,72.686,0,0,1,9.487-20.483h0A26.9,26.9,0,0,0,781.15,324.066Z" transform="translate(-736.897 -297.266)" fill="#6d547c"/>
        <path id="Path_5854" data-name="Path 5854" d="M757.281,474.455l-1.5,16.478a1.18,1.18,0,0,0,.974,1.345l20.548,1.87A1.18,1.18,0,0,0,778.5,493l1.5-16.478Z" transform="translate(-749.584 -416.338)" fill="#ddd"/>
        <path id="Path_5855" data-name="Path 5855" d="M797.465,364.761c-6.722,11.76-19.333,29.725-36.333,35.935,0,.04,0,.068,0,.068l11.105,1.011,11.1,1.011a72.691,72.691,0,0,1,9.487-20.483h0a26.9,26.9,0,0,0,4.6-12.878A27.834,27.834,0,0,0,797.465,364.761Z" transform="translate(-753.183 -342.623)" fill="#3b3387" opacity="0.2"/>
        <g id="Group_5035" data-name="Group 5035" transform="translate(2.22 2.724)">
          <path id="Path_5856" data-name="Path 5856" d="M744.984,327.992c1.084-11.914,10.589-20.787,21.229-19.819a18.682,18.682,0,0,1,14.506,9.812c-2.739-6.769-8.578-11.69-15.722-12.34-10.641-.968-20.145,7.9-21.229,19.819a23.275,23.275,0,0,0,2.8,13.513A23.58,23.58,0,0,1,744.984,327.992Z" transform="translate(-743.667 -305.573)" fill="#fff" opacity="0.5"/>
        </g>
        <g id="Group_5036" data-name="Group 5036" transform="translate(13.627 22.883)">
          <path id="Path_5857" data-name="Path 5857" d="M779.584,402.91l.2-31.872,3.41,3.807,3.775-5.469,2.786,5.881,3.964-2.981-5.556,31.415,1.14.1,6.063-34.279-5.182,3.9-3.023-6.38-4.062,5.885-4.434-4.952-.223,34.84Z" transform="translate(-778.444 -367.032)" fill="#f6f7f7"/>
        </g>
        <g id="Group_5037" data-name="Group 5037" transform="translate(13.627 45.253)">
          <path id="Path_5858" data-name="Path 5858" d="M778.464,465.09l-.02,3.178,1.14.1.025-3.926Q779.04,464.776,778.464,465.09Z" transform="translate(-778.444 -454.865)" fill="#edeced"/>
          <path id="Path_5859" data-name="Path 5859" d="M810.374,436.588l-2.288,12.935,1.14.1,2.546-14.392Q811.082,435.92,810.374,436.588Z" transform="translate(-798.364 -435.235)" fill="#edeced"/>
        </g>
        <g id="Group_5038" data-name="Group 5038" transform="translate(6.457 62.208)">
          <rect id="Rectangle_2501" data-name="Rectangle 2501" width="3.056" height="22.815" transform="translate(0.591 3.043) rotate(-84.801)" fill="#c4c4c4"/>
          <rect id="Rectangle_2502" data-name="Rectangle 2502" width="3.056" height="22.815" transform="matrix(0.091, -0.996, 0.996, 0.091, 0, 9.542)" fill="#c4c4c4"/>
        </g>
        <g id="Group_5039" data-name="Group 5039" transform="translate(6.208 60.151)">
          <path id="Path_5860" data-name="Path 5860" d="M795.407,503.852l10.265.934.315-3.456-6.332-.576A43.2,43.2,0,0,1,795.407,503.852Z" transform="translate(-782.424 -494.163)" fill="#c2c2c4"/>
          <path id="Path_5861" data-name="Path 5861" d="M821.3,484.783l.372-4.092-.357-.032a30.589,30.589,0,0,1-3.532,3.8Z" transform="translate(-797.461 -480.659)" fill="#c2c2c4"/>
          <path id="Path_5862" data-name="Path 5862" d="M756.788,521.681l20.548,1.87a1.18,1.18,0,0,0,1.2-1.148l.259-2.845-14.836-1.35a31.368,31.368,0,0,1-8.134,2.442A1.128,1.128,0,0,0,756.788,521.681Z" transform="translate(-755.825 -505.892)" fill="#c2c2c4"/>
          <path id="Path_5863" data-name="Path 5863" d="M808.356,495.044l6.332.576.277-3.043-3.517-.32Q809.89,493.782,808.356,495.044Z" transform="translate(-791.126 -488.453)" fill="#b1b1b2"/>
          <path id="Path_5864" data-name="Path 5864" d="M780.624,512.825l14.836,1.35.277-3.043-10.265-.934A37.7,37.7,0,0,1,780.624,512.825Z" transform="translate(-772.49 -500.509)" fill="#b1b1b2"/>
        </g>
        <path id="Path_5865" data-name="Path 5865" d="M790.177,540.657c-2.814,2.529-7.8,2.918-9.44,2.977l7.056.642a2.179,2.179,0,0,0,2.245-2.1Z" transform="translate(-766.358 -460.827)" fill="#9e9e9e"/>
      </g>
      <g id="Group_5043" data-name="Group 5043" transform="translate(40.137 28.67)">
        <g id="Group_5041" data-name="Group 5041" transform="translate(0 14.232)">
          <path id="Path_5866" data-name="Path 5866" d="M825.6,387.622a.96.96,0,0,1,.116-.247c.488-.666,1.141-.721,1.791-1.226.29-.225.208-1.166.932-.913.267.093.89.414,1.458.618a5.412,5.412,0,0,0,3.014-.1,27.858,27.858,0,0,0,3.848-1.356c1.263-.583,2.5-1.233,3.7-1.932a13.663,13.663,0,0,0,3.352-2.135c1.282-1.5-.2-5.15-.371-7.021-.176-1.95-.005-7.694,2.627-7.857,4.312-.266,4.38,3.831,4.573,7.131a42.241,42.241,0,0,1-.073,6.212c-.259,2.879-2.125,4.527-4.59,5.889a42.013,42.013,0,0,1-8.157,3.72,31.973,31.973,0,0,1-4.193.772c-1.408.228-1.228.841-2.409,1.356a11.626,11.626,0,0,1-1.98.866c-1.262.288-2.272-.586-3.231-1.263a1.392,1.392,0,0,1-.524-.526,2.009,2.009,0,0,1-.06-1.246A3.91,3.91,0,0,1,825.6,387.622Z" transform="translate(-825.347 -365.437)" fill="#e5d1bd"/>
        </g>
        <g id="Group_5042" data-name="Group 5042" transform="translate(14.045)">
          <path id="Path_5867" data-name="Path 5867" d="M879.329,344.536l-7.314,1.418c.156-.03-2.821-10.931-2.976-11.586-.592-2.5-1.186-5.095-.68-7.613,1.082-5.377,3.674-6.7,6.94-1.051,3.083,5.333,7.915,11.718,6.958,17.788a.778.778,0,0,1-.129.374.792.792,0,0,1-.49.222Z" transform="translate(-868.168 -322.047)" fill="#2f458e"/>
        </g>
      </g>
    </g>
  </g>
</svg>
