<svg xmlns="http://www.w3.org/2000/svg" width="23.873" height="23.871" viewBox="0 0 23.873 23.871">
    <defs>
        <style>
            .prefix__cls-1{fill:#333}
        </style>
    </defs>
    <g id="prefix__dashboard" transform="translate(0 -.019)">
        <g id="prefix__Group_7281" data-name="Group 7281" transform="translate(0 .019)">
            <g id="prefix__Group_7280" data-name="Group 7280">
                <path id="prefix__Path_7387" d="M20.376 3.513a11.937 11.937 0 1 0 0 16.882 11.879 11.879 0 0 0 0-16.882zm-16 16.292a10.5 10.5 0 0 1 3.2-2.387 10.09 10.09 0 0 1 11.912 2.387 10.879 10.879 0 0 1-15.108 0zm15.826-.751a11.128 11.128 0 0 0-13.068-2.567 11.571 11.571 0 0 0-3.469 2.563 10.9 10.9 0 1 1 16.54.005z" class="prefix__cls-1" data-name="Path 7387" transform="translate(0 -.019)"/>
            </g>
        </g>
        <g id="prefix__Group_7283" data-name="Group 7283" transform="translate(11.42 2.706)">
            <g id="prefix__Group_7282" data-name="Group 7282">
                <path id="prefix__Path_7388" d="M221.118 51.919a.519.519 0 0 0-.518.518v3.117a.518.518 0 0 0 1.035 0v-3.117a.519.519 0 0 0-.517-.518z" class="prefix__cls-1" data-name="Path 7388" transform="translate(-220.6 -51.919)"/>
            </g>
        </g>
        <g id="prefix__Group_7285" data-name="Group 7285" transform="translate(17.037 11.439)">
            <g id="prefix__Group_7284" data-name="Group 7284">
                <path id="prefix__Path_7389" d="M332.734 220.619h-3.116a.518.518 0 0 0 0 1.035h3.116a.518.518 0 0 0 0-1.035z" class="prefix__cls-1" data-name="Path 7389" transform="translate(-329.1 -220.619)"/>
            </g>
        </g>
        <g id="prefix__Group_7287" data-name="Group 7287" transform="translate(2.687 11.439)">
            <g id="prefix__Group_7286" data-name="Group 7286">
                <path id="prefix__Path_7390" d="M55.534 220.619h-3.116a.518.518 0 0 0 0 1.035h3.117a.518.518 0 0 0 0-1.035z" class="prefix__cls-1" data-name="Path 7390" transform="translate(-51.9 -220.619)"/>
            </g>
        </g>
        <g id="prefix__Group_7289" data-name="Group 7289" transform="translate(5.235 5.254)">
            <g id="prefix__Group_7288" data-name="Group 7288">
                <path id="prefix__Path_7391" d="M104.24 103.529l-.005-.005-2.226-2.226a.516.516 0 1 0-.735.725l.005.005 2.226 2.226a.516.516 0 1 0 .735-.725z" class="prefix__cls-1" data-name="Path 7391" transform="translate(-101.125 -101.144)"/>
            </g>
        </g>
        <g id="prefix__Group_7291" data-name="Group 7291" transform="translate(10.281 5.254)">
            <g id="prefix__Group_7290" data-name="Group 7290">
                <path id="prefix__Path_7392" d="M206.8 101.3a.516.516 0 0 0-.73-.005l-.005.005-5.079 5.079a1.653 1.653 0 1 0 .73 2.221 1.634 1.634 0 0 0 0-1.486l5.079-5.084a.516.516 0 0 0 .005-.73zm-6.554 7.165a.616.616 0 1 1 .616-.616.614.614 0 0 1-.613.613z" class="prefix__cls-1" data-name="Path 7392" transform="translate(-198.592 -101.144)"/>
            </g>
        </g>
    </g>
</svg>
