<svg width="10" height="14" viewBox="0 0 10 14" fill="none" xmlns="http://www.w3.org/2000/svg">
<path d="M5.00001 13.125L1.30926 8.77231C1.25797 8.70695 1.20722 8.64118 1.15701 8.575C0.526559 7.74453 0.185977 6.73016 0.187505 5.6875C0.187505 4.41115 0.694535 3.18707 1.59705 2.28455C2.49957 1.38203 3.72365 0.875 5.00001 0.875C6.27636 0.875 7.50044 1.38203 8.40296 2.28455C9.30548 3.18707 9.81251 4.41115 9.81251 5.6875C9.81403 6.72969 9.47361 7.7436 8.84344 8.57369L8.84301 8.575C8.84301 8.575 8.71175 8.74738 8.69207 8.77056L5.00001 13.125ZM1.85526 8.04781C1.85613 8.04781 1.95763 8.18256 1.98082 8.21144L5.00001 11.7723L8.02313 8.20662C8.04238 8.18256 8.14476 8.04694 8.14519 8.0465C8.6602 7.36799 8.93852 6.53933 8.93751 5.6875C8.93751 4.64321 8.52266 3.64169 7.78424 2.90327C7.04581 2.16484 6.0443 1.75 5.00001 1.75C3.95572 1.75 2.9542 2.16484 2.21577 2.90327C1.47735 3.64169 1.06251 4.64321 1.06251 5.6875C1.06159 6.53986 1.33978 7.36899 1.85526 8.04781Z" fill="#1F2551"/>
</svg>
