<svg width="13" height="13" viewBox="0 0 13 13" fill="none" xmlns="http://www.w3.org/2000/svg">
<path d="M7.88092 8.96426L5.95801 7.04134V4.33301H7.04134V6.59447L8.63926 8.19238L7.88092 8.96426ZM5.95801 3.24967V2.16634H7.04134V3.24967H5.95801ZM9.74967 7.04134V5.95801H10.833V7.04134H9.74967ZM5.95801 10.833V9.74967H7.04134V10.833H5.95801ZM2.16634 7.04134V5.95801H3.24967V7.04134H2.16634ZM6.49967 11.9163C5.75037 11.9163 5.0462 11.7741 4.38717 11.4895C3.72815 11.2053 3.15488 10.8195 2.66738 10.332C2.17988 9.84447 1.79404 9.2712 1.50984 8.61217C1.22529 7.95315 1.08301 7.24898 1.08301 6.49967C1.08301 5.75037 1.22529 5.0462 1.50984 4.38717C1.79404 3.72815 2.17988 3.15488 2.66738 2.66738C3.15488 2.17988 3.72815 1.79385 4.38717 1.5093C5.0462 1.2251 5.75037 1.08301 6.49967 1.08301C7.24898 1.08301 7.95315 1.2251 8.61217 1.5093C9.2712 1.79385 9.84447 2.17988 10.332 2.66738C10.8195 3.15488 11.2053 3.72815 11.4895 4.38717C11.7741 5.0462 11.9163 5.75037 11.9163 6.49967C11.9163 7.24898 11.7741 7.95315 11.4895 8.61217C11.2053 9.2712 10.8195 9.84447 10.332 10.332C9.84447 10.8195 9.2712 11.2053 8.61217 11.4895C7.95315 11.7741 7.24898 11.9163 6.49967 11.9163ZM6.49967 10.833C7.7094 10.833 8.73405 10.4132 9.57363 9.57363C10.4132 8.73405 10.833 7.7094 10.833 6.49967C10.833 5.28995 10.4132 4.2653 9.57363 3.42572C8.73405 2.58613 7.7094 2.16634 6.49967 2.16634C5.28995 2.16634 4.2653 2.58613 3.42572 3.42572C2.58613 4.2653 2.16634 5.28995 2.16634 6.49967C2.16634 7.7094 2.58613 8.73405 3.42572 9.57363C4.2653 10.4132 5.28995 10.833 6.49967 10.833Z" fill="#1F2551"/>
</svg>
