<svg width="72" height="72" viewBox="0 0 72 72" fill="none" xmlns="http://www.w3.org/2000/svg">
<g filter="url(#filter0_d_4622_100003)">
<circle cx="34" cy="34" r="32" fill="#F3F7FA"/>
</g>
<g clip-path="url(#clip0_4622_100003)">
<path d="M33.9991 25C33.2906 24.9989 32.6046 25.2487 32.0626 25.7049C31.5206 26.1612 31.1575 26.7945 31.0378 27.4928C30.918 28.1911 31.0492 28.9092 31.4082 29.52C31.7672 30.1309 32.3307 30.5949 32.9991 30.83V33H29.9991C29.2034 33 28.4403 33.3161 27.8777 33.8787C27.3151 34.4413 26.9991 35.2044 26.9991 36V37.17C26.3316 37.4059 25.769 37.8702 25.4107 38.4808C25.0524 39.0914 24.9216 39.809 25.0412 40.5068C25.1609 41.2046 25.5234 41.8375 26.0647 42.2939C26.6059 42.7502 27.2911 43.0005 27.9991 43.0005C28.707 43.0005 29.3922 42.7502 29.9334 42.2939C30.4747 41.8375 30.8372 41.2046 30.9569 40.5068C31.0765 39.809 30.9457 39.0914 30.5874 38.4808C30.2291 37.8702 29.6665 37.4059 28.9991 37.17V36C28.9991 35.7348 29.1044 35.4804 29.2919 35.2929C29.4795 35.1054 29.7338 35 29.9991 35H37.9991C38.2643 35 38.5186 35.1054 38.7062 35.2929C38.8937 35.4804 38.9991 35.7348 38.9991 36V37.17C38.3316 37.4059 37.769 37.8702 37.4107 38.4808C37.0524 39.0914 36.9216 39.809 37.0412 40.5068C37.1609 41.2046 37.5234 41.8375 38.0647 42.2939C38.6059 42.7502 39.2911 43.0005 39.9991 43.0005C40.707 43.0005 41.3922 42.7502 41.9334 42.2939C42.4747 41.8375 42.8372 41.2046 42.9569 40.5068C43.0765 39.809 42.9457 39.0914 42.5874 38.4808C42.2291 37.8702 41.6665 37.4059 40.9991 37.17V36C40.9991 35.2044 40.683 34.4413 40.1204 33.8787C39.5578 33.3161 38.7947 33 37.9991 33H34.9991V30.83C35.6662 30.5939 36.2284 30.1295 36.5864 29.519C36.9444 28.9085 37.0751 28.1912 36.9555 27.4937C36.8358 26.7961 36.4735 26.1633 35.9326 25.707C35.3916 25.2508 34.7068 25.0003 33.9991 25Z" fill="#1F2551"/>
</g>
<defs>
<filter id="filter0_d_4622_100003" x="0" y="0" width="72" height="72" filterUnits="userSpaceOnUse" color-interpolation-filters="sRGB">
<feFlood flood-opacity="0" result="BackgroundImageFix"/>
<feColorMatrix in="SourceAlpha" type="matrix" values="0 0 0 0 0 0 0 0 0 0 0 0 0 0 0 0 0 0 127 0" result="hardAlpha"/>
<feOffset dx="2" dy="2"/>
<feGaussianBlur stdDeviation="2"/>
<feComposite in2="hardAlpha" operator="out"/>
<feColorMatrix type="matrix" values="0 0 0 0 0.0980392 0 0 0 0 0.12549 0 0 0 0 0.282353 0 0 0 0.15 0"/>
<feBlend mode="normal" in2="BackgroundImageFix" result="effect1_dropShadow_4622_100003"/>
<feBlend mode="normal" in="SourceGraphic" in2="effect1_dropShadow_4622_100003" result="shape"/>
</filter>
<clipPath id="clip0_4622_100003">
<rect width="24" height="24" fill="white" transform="translate(22 22)"/>
</clipPath>
</defs>
</svg>
