<svg xmlns="http://www.w3.org/2000/svg" xmlns:xlink="http://www.w3.org/1999/xlink" width="54" height="54" viewBox="0 0 54 54">
  <defs>
    <filter id="Ellipse_1289" x="0" y="0" width="54" height="54" filterUnits="userSpaceOnUse">
      <feOffset input="SourceAlpha"/>
      <feGaussianBlur stdDeviation="3" result="blur"/>
      <feFlood flood-opacity="0.161"/>
      <feComposite operator="in" in2="blur"/>
      <feComposite in="SourceGraphic"/>
    </filter>
  </defs>
  <g id="Component_37_60" data-name="Component 37 – 60" transform="translate(9 9)">
    <g transform="matrix(1, 0, 0, 1, -9, -9)" filter="url(#Ellipse_1289)">
      <circle id="Ellipse_1289-2" data-name="Ellipse 1289" cx="18" cy="18" r="18" transform="translate(9 9)" fill="#fff"/>
    </g>
    <g id="attach_money_black_24dp" transform="translate(6 6)">
      <path id="Path_9174" data-name="Path 9174" d="M0,0H24V24H0Z" fill="none"/>
      <path id="Path_9175" data-name="Path 9175" d="M11.8,10.9c-2.27-.59-3-1.2-3-2.15,0-1.09,1.01-1.85,2.7-1.85,1.78,0,2.44.85,2.5,2.1h2.21A3.986,3.986,0,0,0,13,5.19V3H10V5.16c-1.94.42-3.5,1.68-3.5,3.61,0,2.31,1.91,3.46,4.7,4.13,2.5.6,3,1.48,3,2.41,0,.69-.49,1.79-2.7,1.79-2.06,0-2.87-.92-2.98-2.1H6.32c.12,2.19,1.76,3.42,3.68,3.83V21h3V18.85c1.95-.37,3.5-1.5,3.5-3.55C16.5,12.46,14.07,11.49,11.8,10.9Z" fill="#0f1f54"/>
    </g>
  </g>
</svg>
