<svg width="80" height="80" viewBox="0 0 80 80" fill="none" xmlns="http://www.w3.org/2000/svg">
<g filter="url(#filter0_d_3442_103821)">
<circle cx="36" cy="36" r="25" transform="rotate(180 36 36)" fill="#1F2551"/>
</g>
<path fill-rule="evenodd" clip-rule="evenodd" d="M45.4549 29.4153C45.5499 29.5595 45.5922 29.7321 45.5747 29.9039C45.5573 30.0757 45.481 30.2362 45.3589 30.3583L36.1659 39.5503C36.0718 39.6443 35.9545 39.7116 35.8259 39.7453L31.9969 40.7453C31.8703 40.7784 31.7373 40.7777 31.6111 40.7434C31.4849 40.7091 31.3698 40.6424 31.2773 40.5499C31.1848 40.4575 31.1181 40.3424 31.0838 40.2161C31.0495 40.0899 31.0489 39.9569 31.0819 39.8303L32.0819 36.0023C32.1111 35.8874 32.1662 35.7807 32.2429 35.6903L41.4699 26.4693C41.6105 26.3289 41.8011 26.25 41.9999 26.25C42.1986 26.25 42.3893 26.3289 42.5299 26.4693L45.3589 29.2973C45.3948 29.3333 45.4269 29.3729 45.4549 29.4153ZM43.7679 29.8273L41.9999 28.0603L33.4819 36.5783L32.8569 38.9713L35.2499 38.3463L43.7679 29.8273Z" fill="white"/>
<path d="M43.6415 41.1609C43.9149 38.8248 44.0021 36.4707 43.9025 34.1209C43.9004 34.0655 43.9096 34.0103 43.9298 33.9587C43.9499 33.9071 43.9805 33.8601 44.0195 33.8209L45.0035 32.8369C45.0304 32.8098 45.0646 32.7911 45.1018 32.783C45.1391 32.7749 45.1779 32.7777 45.2136 32.7911C45.2493 32.8045 45.2803 32.828 45.303 32.8586C45.3257 32.8893 45.3391 32.9258 45.3415 32.9639C45.5267 35.7551 45.4565 38.5574 45.1315 41.3359C44.8955 43.3579 43.2715 44.9429 41.2585 45.1679C37.7639 45.5549 34.2372 45.5549 30.7425 45.1679C28.7305 44.9429 27.1055 43.3579 26.8695 41.3359C26.4549 37.7913 26.4549 34.2104 26.8695 30.6659C27.1055 28.6439 28.7295 27.0589 30.7425 26.8339C33.3949 26.5397 36.0673 26.4685 38.7315 26.6209C38.7697 26.6236 38.8062 26.6372 38.8369 26.6601C38.8675 26.6829 38.8909 26.7141 38.9044 26.7499C38.9179 26.7857 38.9208 26.8245 38.9128 26.8619C38.9049 26.8993 38.8864 26.9337 38.8595 26.9609L37.8665 27.9529C37.8277 27.9916 37.7812 28.022 37.7302 28.0421C37.6791 28.0622 37.6244 28.0717 37.5695 28.0699C35.3463 27.9943 33.1205 28.0795 30.9095 28.3249C30.2635 28.3964 29.6604 28.6836 29.1977 29.1401C28.735 29.5966 28.4397 30.1958 28.3595 30.8409C27.9586 34.2692 27.9586 37.7325 28.3595 41.1609C28.4397 41.8059 28.735 42.4051 29.1977 42.8616C29.6604 43.3181 30.2635 43.6054 30.9095 43.6769C34.2645 44.0519 37.7365 44.0519 41.0925 43.6769C41.7386 43.6054 42.3417 43.3181 42.8044 42.8616C43.2671 42.4051 43.5614 41.8059 43.6415 41.1609Z" fill="white"/>
<defs>
<filter id="filter0_d_3442_103821" x="0" y="0" width="80" height="80" filterUnits="userSpaceOnUse" color-interpolation-filters="sRGB">
<feFlood flood-opacity="0" result="BackgroundImageFix"/>
<feColorMatrix in="SourceAlpha" type="matrix" values="0 0 0 0 0 0 0 0 0 0 0 0 0 0 0 0 0 0 127 0" result="hardAlpha"/>
<feOffset dx="4" dy="4"/>
<feGaussianBlur stdDeviation="7.5"/>
<feComposite in2="hardAlpha" operator="out"/>
<feColorMatrix type="matrix" values="0 0 0 0 0.254902 0 0 0 0 0.360784 0 0 0 0 0.670588 0 0 0 0.15 0"/>
<feBlend mode="normal" in2="BackgroundImageFix" result="effect1_dropShadow_3442_103821"/>
<feBlend mode="normal" in="SourceGraphic" in2="effect1_dropShadow_3442_103821" result="shape"/>
</filter>
</defs>
</svg>
