<svg id="Group_14537" data-name="Group 14537" xmlns="http://www.w3.org/2000/svg" width="14.234" height="14.231" viewBox="0 0 14.234 14.231">
  <g id="edit">
    <path id="Path_1430" data-name="Path 1430" d="M13.312.949a3.139,3.139,0,0,0-4.443,0L.723,9.092a.407.407,0,0,0-.115.234L0,13.8a.406.406,0,0,0,.115.343.414.414,0,0,0,.288.121.33.33,0,0,0,.055,0l2.693-.364a.41.41,0,1,0-.109-.813l-2.159.291.422-3.118L4.59,13.535a.414.414,0,0,0,.288.121.4.4,0,0,0,.288-.121l8.146-8.143a3.137,3.137,0,0,0,0-4.443Zm-4.285,1,1.368,1.368L2.961,10.751,1.593,9.383ZM4.881,12.667,3.543,11.33,10.976,3.9l1.337,1.337Zm8-8.018L9.612,1.377a2.325,2.325,0,0,1,3.272,3.272Z" transform="translate(0 -0.028)" fill="#041027"/>
  </g>
  <g id="edit-2" data-name="edit">
    <path id="Path_1430-2" data-name="Path 1430" d="M13.312.949a3.139,3.139,0,0,0-4.443,0L.723,9.092a.407.407,0,0,0-.115.234L0,13.8a.406.406,0,0,0,.115.343.414.414,0,0,0,.288.121.33.33,0,0,0,.055,0l2.693-.364a.41.41,0,1,0-.109-.813l-2.159.291.422-3.118L4.59,13.535a.414.414,0,0,0,.288.121.4.4,0,0,0,.288-.121l8.146-8.143a3.137,3.137,0,0,0,0-4.443Zm-4.285,1,1.368,1.368L2.961,10.751,1.593,9.383ZM4.881,12.667,3.543,11.33,10.976,3.9l1.337,1.337Zm8-8.018L9.612,1.377a2.325,2.325,0,0,1,3.272,3.272Z" transform="translate(0 -0.028)" fill="#041027"/>
  </g>
</svg>
