<svg xmlns="http://www.w3.org/2000/svg" xmlns:xlink="http://www.w3.org/1999/xlink" width="63.419" height="62" viewBox="0 0 63.419 62">
  <defs>
    <filter id="Ellipse_1529" x="0" y="0" width="63.419" height="62" filterUnits="userSpaceOnUse">
      <feOffset input="SourceAlpha"/>
      <feGaussianBlur stdDeviation="3" result="blur"/>
      <feFlood flood-opacity="0.161"/>
      <feComposite operator="in" in2="blur"/>
      <feComposite in="SourceGraphic"/>
    </filter>
  </defs>
  <g id="Group_11774" data-name="Group 11774" transform="translate(9 9)">
    <g transform="matrix(1, 0, 0, 1, -9, -9)" filter="url(#Ellipse_1529)">
      <ellipse id="Ellipse_1529-2" data-name="Ellipse 1529" cx="22.71" cy="22" rx="22.71" ry="22" transform="translate(9 9)" fill="#0f1f54"/>
    </g>
    <g id="Group_3087" data-name="Group 3087" transform="translate(11.355 11.355)">
      <g id="edit">
        <path id="Path_1430" data-name="Path 1430" d="M20.229,1.428a4.771,4.771,0,0,0-6.752,0L1.1,13.8a.619.619,0,0,0-.175.355L.006,20.95a.617.617,0,0,0,.175.521.63.63,0,0,0,.438.184.5.5,0,0,0,.083,0L4.795,21.1a.623.623,0,1,0-.166-1.235l-3.281.442.641-4.738,4.987,4.987a.63.63,0,0,0,.438.184.61.61,0,0,0,.438-.184L20.229,8.18a4.768,4.768,0,0,0,0-6.752ZM13.717,2.949,15.8,5.027,4.5,16.323,2.421,14.245Zm-6.3,16.287L5.385,17.2l11.3-11.3L18.713,7.94ZM19.58,7.05,14.607,2.078A3.533,3.533,0,0,1,19.58,7.05Z" transform="translate(0 -0.028)" fill="#fff"/>
      </g>
      <g id="edit-2" data-name="edit">
        <path id="Path_1430-2" data-name="Path 1430" d="M20.229,1.428a4.771,4.771,0,0,0-6.752,0L1.1,13.8a.619.619,0,0,0-.175.355L.006,20.95a.617.617,0,0,0,.175.521.63.63,0,0,0,.438.184.5.5,0,0,0,.083,0L4.795,21.1a.623.623,0,1,0-.166-1.235l-3.281.442.641-4.738,4.987,4.987a.63.63,0,0,0,.438.184.61.61,0,0,0,.438-.184L20.229,8.18a4.768,4.768,0,0,0,0-6.752ZM13.717,2.949,15.8,5.027,4.5,16.323,2.421,14.245Zm-6.3,16.287L5.385,17.2l11.3-11.3L18.713,7.94ZM19.58,7.05,14.607,2.078A3.533,3.533,0,0,1,19.58,7.05Z" transform="translate(0 -0.028)" fill="#fff"/>
      </g>
    </g>
  </g>
</svg>
