<svg xmlns="http://www.w3.org/2000/svg" width="22.5" height="22.5" viewBox="0 0 22.5 22.5">
    <path id="prefix__floor" fill="#333" d="M22.5 3.516v7.471a3.52 3.52 0 0 1-3.516 3.513h-.176a.879.879 0 1 1 0-1.758h.176a1.76 1.76 0 0 0 1.758-1.758V7.163h-2.329V7.6a.879.879 0 0 1-1.758 0V4.966a.879.879 0 1 1 1.758 0v.439h2.329V3.516a1.76 1.76 0 0 0-1.758-1.758h-6.24v3.647h.439a.879.879 0 0 1 0 1.758h-2.636a.879.879 0 1 1 0-1.758h.439V1.758H8.569a.879.879 0 0 1 0-1.758h10.415A3.52 3.52 0 0 1 22.5 3.516zm-8.13 9.229h-1.626v-1.67a.879.879 0 0 0-1.758 0v8.789a.88.88 0 0 1-.879.879h-1.45a.879.879 0 0 0 0 1.758h1.45a2.64 2.64 0 0 0 2.637-2.637V14.5h1.626a.879.879 0 1 0 0-1.758zm-6.416-2.11a.879.879 0 1 0-1.758 0v.483H1.758v-7.6a1.76 1.76 0 0 1 1.758-1.76h.659a.879.879 0 1 0 0-1.758h-.659A3.52 3.52 0 0 0 0 3.516v15.468A3.52 3.52 0 0 0 3.516 22.5h.7a.879.879 0 1 0 0-1.758h-.7a1.76 1.76 0 0 1-1.758-1.758v-6.108H6.2v.4a.879.879 0 0 0 1.758 0zm0 0"/>
</svg>
