<svg xmlns="http://www.w3.org/2000/svg" width="37.753" height="21.354" viewBox="0 0 37.753 21.354">
    <defs>
        <style>
            .prefix__cls-1{fill:#fff}
        </style>
    </defs>
    <g id="prefix__group" transform="translate(0 -6.5)">
        <g id="prefix__Group_7263" data-name="Group 7263" transform="translate(27.503 9.063)">
            <path id="prefix__Path_7375" d="M21.417 14.833a3.417 3.417 0 1 1 3.417-3.417 3.427 3.427 0 0 1-3.417 3.417zm0-5.125a1.614 1.614 0 0 0-1.708 1.708 1.708 1.708 0 1 0 3.417 0 1.614 1.614 0 0 0-1.709-1.708z" class="prefix__cls-1" data-name="Path 7375" transform="translate(-18 -8)"/>
        </g>
        <g id="prefix__Group_7264" data-name="Group 7264" transform="translate(27.503 17.604)">
            <path id="prefix__Path_7376" d="M27.4 19.833a.807.807 0 0 1-.854-.854v-1.708a2.627 2.627 0 0 0-2.562-2.563h-5.13a.854.854 0 1 1 0-1.708h5.125a4.229 4.229 0 0 1 4.271 4.271v1.708a.807.807 0 0 1-.85.854z" class="prefix__cls-1" data-name="Path 7376" transform="translate(-18 -13)"/>
        </g>
        <g id="prefix__Group_7265" data-name="Group 7265" transform="translate(3.417 9.063)">
            <path id="prefix__Path_7377" d="M5.417 14.833a3.417 3.417 0 1 1 3.417-3.417 3.427 3.427 0 0 1-3.417 3.417zm0-5.125a1.614 1.614 0 0 0-1.708 1.708 1.614 1.614 0 0 0 1.708 1.708 1.614 1.614 0 0 0 1.708-1.708 1.614 1.614 0 0 0-1.708-1.708z" class="prefix__cls-1" data-name="Path 7377" transform="translate(-2 -8)"/>
        </g>
        <g id="prefix__Group_7266" data-name="Group 7266" transform="translate(0 17.604)">
            <path id="prefix__Path_7378" d="M.854 19.833A.807.807 0 0 1 0 18.979v-1.708A4.229 4.229 0 0 1 4.271 13H9.4a.854.854 0 0 1 0 1.708H4.271a2.627 2.627 0 0 0-2.563 2.563v1.708a.807.807 0 0 1-.854.854z" class="prefix__cls-1" data-name="Path 7378" transform="translate(0 -13)"/>
        </g>
        <g id="prefix__Group_7267" data-name="Group 7267" transform="translate(13.751 6.5)">
            <path id="prefix__Path_7379" d="M14.125 16.75A5.034 5.034 0 0 1 9 11.625 5.034 5.034 0 0 1 14.125 6.5a5.034 5.034 0 0 1 5.125 5.125 5.034 5.034 0 0 1-5.125 5.125zm0-8.542a3.417 3.417 0 1 0 3.417 3.417 3.427 3.427 0 0 0-3.417-3.417z" class="prefix__cls-1" data-name="Path 7379" transform="translate(-9 -6.5)"/>
        </g>
        <g id="prefix__Group_7268" data-name="Group 7268" transform="translate(9.481 19.313)">
            <path id="prefix__Path_7380" d="M24.438 22.542a.807.807 0 0 1-.854-.854v-3.417a2.627 2.627 0 0 0-2.562-2.562H10.771a2.627 2.627 0 0 0-2.562 2.562v3.417a.807.807 0 0 1-.854.854.807.807 0 0 1-.854-.854v-3.417A4.229 4.229 0 0 1 10.771 14h10.25a4.229 4.229 0 0 1 4.271 4.271v3.417a.807.807 0 0 1-.854.854z" class="prefix__cls-1" data-name="Path 7380" transform="translate(-6.5 -14)"/>
        </g>
    </g>
</svg>
