<svg xmlns="http://www.w3.org/2000/svg" width="308.82" height="205" viewBox="0 0 308.82 205">
  <g id="Group_2607" data-name="Group 2607" transform="translate(-636.999 -306)">
    <path id="Path_3172" data-name="Path 3172" d="M203.98,626.111a251.593,251.593,0,0,0-27.115,1.248c-3.4.379-6.736,1.211-10.148,1.547-6.815.671-13.507,1.923-20.346,2.5-5.507.465-11.038.739-16.529,1.329a58.17,58.17,0,0,1-15.957-.488,106.315,106.315,0,0,1-11.3-2.144,46.221,46.221,0,0,0-13.013-2.053c-6.18.044-12.2.05-18.113,2.2a17.827,17.827,0,0,0-6.194,3.573c-3.609,3.619-4.1,12.649-.494,16.4,6.07,6.317,19.024,8.8,27.532,8.913,9.323.128,18.38-.564,27.716-.97,8.676-.379,17.33-.916,26.02-.9,17.748.039,35.5,0,53.216-1.186,16.645-1.114,33.332-.731,50.014-.731,17.106,0,34.1.134,51.079,2.407,7.4.991,14.938,1.338,22.375,2.031,6.661.622,13.06-.012,19.694-.586a47.018,47.018,0,0,0,16.165-4.332c4.006-1.915,11.147-7.862,12.376-12.431,3.444-12.811-48.535-12.5-56.516-12.474-8.928.033-17.927.326-26.848-.014a63.254,63.254,0,0,1-11.112-1.68c-3.648-.8-7.323-.6-11.023-.933-15.427-1.4-30.888-1.2-46.365-1.2C214.057,626.141,209.018,626.1,203.98,626.111Z" transform="translate(574.699 -149.045)" fill="#f1f2f2"/>
    <g id="Group_2297" data-name="Group 2297" transform="translate(665.385 306)">
      <g id="Group_2297-2" data-name="Group 2297" transform="translate(77.767 58.77)">
        <path id="Path_3073" data-name="Path 3073" d="M355.607,289.221c.044-.037.092-.08.143-.132a2.3,2.3,0,0,0,.6-1.929l-1.272-.318a5,5,0,0,1-.876,1.312.306.306,0,0,1-.559-.028,6.763,6.763,0,0,1-1.28-4.625,4.692,4.692,0,0,1-1.257-.194,1.369,1.369,0,0,0-1.189,0,.862.862,0,0,0-.237.084l-.788.279a.644.644,0,0,0-.546.767l-.007,4.609a1.491,1.491,0,0,0,.074.57,1.374,1.374,0,0,0,.4.49,8.771,8.771,0,0,0,2.5,1.522,1.064,1.064,0,0,1,.455.27,1.006,1.006,0,0,1,.164.378l.705,2.549a10.365,10.365,0,0,1,3.344-.544,6.908,6.908,0,0,0-.4-3.464,2.755,2.755,0,0,1-.294-1.052A.625.625,0,0,1,355.607,289.221Z" transform="translate(-348.335 -283.171)" fill="#eac1a4"/>
        <path id="Path_3074" data-name="Path 3074" d="M357.011,310.064l5.295-.867,5.4,14.779,12.758-2.173-2.779,17-16.229-9.72Z" transform="translate(-354.329 -301.154)" fill="#ebb044"/>
      </g>
      <g id="Group_2302" data-name="Group 2302" transform="translate(143.341 120.389)">
        <g id="Group_2299" data-name="Group 2299" transform="translate(25.058 31.404)">
          <g id="Group_2298" data-name="Group 2298" transform="translate(0.088)">
            <path id="Path_3075" data-name="Path 3075" d="M641.889,584.177l.194,11.778c-.079,3.268.215,6.526.414,9.783.184,3.026-.425,6.143,1.01,8.947.45.879,1.408,1.492,2.137.476.562-.782.3-2.137.442-3.045,1.042-6.828,2.983-13.486,3.951-20.327C651.051,584.623,648.279,584.813,641.889,584.177Z" transform="translate(-641.889 -584.177)" fill="#eacdb0"/>
          </g>
          <path id="Path_3076" data-name="Path 3076" d="M642.361,675.469l-.757,1.965,3.726,3.28,3.413.141,1.1-1.8-4.591-3.992Z" transform="translate(-641.604 -646.975)" fill="#262d3a"/>
        </g>
        <g id="Group_2301" data-name="Group 2301" transform="translate(6.813 30.822)">
          <g id="Group_2300" data-name="Group 2300" transform="translate(0.458)">
            <path id="Path_3077" data-name="Path 3077" d="M593.58,582.99l-2.148,11.583c-.745,5.181-2.438,10.227-3.182,15.409a13.494,13.494,0,0,1-.583,3.618c-.487,1.1-1.441,1.143-2.282.4-1.127-1-.607-2.785-.587-4.15.138-9.093-.577-18.057-.75-27.165a.405.405,0,0,1,.1-.332.393.393,0,0,1,.279-.054C585.308,582.355,593.534,583.24,593.58,582.99Z" transform="translate(-584.049 -582.293)" fill="#eacdb0"/>
          </g>
          <path id="Path_3078" data-name="Path 3078" d="M583.749,677.945l-1.181,1.743,2.89,4.036,3.294.907,1.482-1.505-3.571-4.925Z" transform="translate(-582.568 -648.385)" fill="#262d3a"/>
        </g>
        <path id="Path_3079" data-name="Path 3079" d="M597.805,521.456,596.2,504.618l-.775-10.941-2.606-8.936-14.068-2.184-17.393,2.981-.836,3.379,3.347,31.281,16.776,1.257-.227-19.469L583,514.055l-.11,7.4Z" transform="translate(-560.52 -482.558)" fill="#0f1f54"/>
      </g>
      <path id="Path_3080" data-name="Path 3080" d="M574.974,340.737q-.035.853-.049,1.7c-.2,11.55.433,23.247.506,34.893a129.253,129.253,0,0,1,18.031-1.539c1.4-.021,7.75.96,8.634.125,1.2-1.132-.12-.919-.032-2.394.113-1.908-.8-3.471-.457-5.732.407-2.658,1.217-5.286,1.683-7.944a116.084,116.084,0,0,0,1.681-16.128c.162-4.8-.012-9.769-2.074-14.1-5.085-10.684-21.481-10.492-25.979.664A31.291,31.291,0,0,0,574.974,340.737Z" transform="translate(-427.104 -251.064)" fill="#fff"/>
      <path id="Path_3081" data-name="Path 3081" d="M667.646,249.363c2.016-2.042,3.07-4.387,4.185-7.36.829-2.212,1.572-4.461,2.3-6.706a24.617,24.617,0,0,0,1.135-4.311c.181-1.278,1.119-2.959.12-4.122a.964.964,0,0,1,1.462-.159.614.614,0,0,0,.2.175.394.394,0,0,0,.4-.152,3.255,3.255,0,0,0,.542-1.213,5.1,5.1,0,0,1,1.219-2.216,4.734,4.734,0,0,1,1.637-.668.374.374,0,0,1,.517.18,22.082,22.082,0,0,1,1.428,2.156c-.838.539-1.086,1.464-1.625,2.254a8.359,8.359,0,0,0-1.769,3.115c-.4,2-.636,4.036-1.059,6.039-.828,3.913-1.895,7.766-2.938,11.625a29.624,29.624,0,0,1-2.779,7.462,14.767,14.767,0,0,1-5.218,4.945,4.472,4.472,0,0,1-1.626.771,3.123,3.123,0,0,1-2.511-.873,5.147,5.147,0,0,1-.764-6.6,11.275,11.275,0,0,1,2.95-2.524A15.355,15.355,0,0,0,667.646,249.363Z" transform="translate(-487.055 -182.546)" fill="#eacdb0"/>
      <path id="Path_3082" data-name="Path 3082" d="M625.082,311.077l-4.453,8.115.7,24.594.322,11.334c.037,1.312.07,2.624.112,3.936.019.589-.144,1.58.192,2.06.729,1.043,3.394.718,4.556.809a20.012,20.012,0,0,1,5.359.917,17.23,17.23,0,0,0,3.414,1.213,1.012,1.012,0,0,0,.782-.128,1.137,1.137,0,0,0,.3-.834c.417-5.628.425-11.43.737-17.118.255-4.655.907-9.574.5-14.235-.007-.078-.014-.156-.029-.233-.413-2.242,0-9.648,0-9.649.017-.311,1.083-1.118,1.289-1.331l3.178-3.282c2.114-2.183,6.194-4.88,4.554-8.411a4.494,4.494,0,0,0-.826-1.147c-2.4-2.565-5.456-4-7.171-7.162-3,1.48-5.445,4.4-8.637,5.621a8.6,8.6,0,0,1-5.155.424c-1.022-.25-3.222-1.047-2.67.975C622.455,308.7,624.3,310.148,625.082,311.077Z" transform="translate(-458.712 -236.391)" fill="#0f1f54"/>
      <path id="Path_3083" data-name="Path 3083" d="M574.647,326.147l4.453,8.115c-.093,0-.565,19.893-.6,21.235q-.217,7.659-.435,15.319a28.139,28.139,0,0,1-.127,4.477c-.388,1.948-2.438,1.564-4.185,1.722-3.822.345-7.846,1-11.678.8-1.106-.056.349-23.126.347-25.279-.008-7.743-1.6-16.334,2.328-23.356,1.144-2.043,3.162-5.318,5.389-6.327,2.075-.94,5.046-1.1,7.3-1.627l.117,1.46Z" transform="translate(-417.965 -250.698)" fill="#0f1f54"/>
      <g id="Group_2305" data-name="Group 2305" transform="translate(153.197 49.293)">
        <g id="Group_2304" data-name="Group 2304" transform="translate(0 0)">
          <path id="Path_3084" data-name="Path 3084" d="M629.637,266.355a8.982,8.982,0,0,1,1.1,4.057,1.289,1.289,0,0,0,.346,1.032c.325.237.04.758.287.441a6.935,6.935,0,0,0,1.125-1.822,14.844,14.844,0,0,0,0-2.826,4.054,4.054,0,0,0-.781-2.292,4.59,4.59,0,0,0-1.156-.88,5.908,5.908,0,0,0-1.92-.862c-1.2-.223-1.928.206-.874,1.04A7.294,7.294,0,0,1,629.637,266.355Z" transform="translate(-616.487 -259.855)" fill="#3b455a"/>
          <g id="Group_2303" data-name="Group 2303" transform="translate(1.386 3.55)">
            <path id="Path_3085" data-name="Path 3085" d="M601.194,282.969c.008.578-.111,1.178.4,1.627a1.748,1.748,0,0,0,.9.353,5.581,5.581,0,0,0,2.5-.178,2.247,2.247,0,0,0,.913-.482,1.144,1.144,0,0,0,.325-.926c.017-.436.1-.879.162-1.321.124-.967.181-1.942.209-2.916,1.432-.246,3.117-.709,3.606-2.209a4.922,4.922,0,0,0,.163-1.49q.023-3.118.046-6.236a6.014,6.014,0,0,0-.239-2.127,4.326,4.326,0,0,0-2.606-2.307,9.357,9.357,0,0,0-8.484.518,4.634,4.634,0,0,0-1.7,1.71,7.271,7.271,0,0,0-.431,3.869l.258,3.649c.1,1.4.309,3.009,1.4,3.747.577.393,1.322.465,1.819.972.867.886.454,2.21.71,3.283A2.113,2.113,0,0,1,601.194,282.969Z" transform="translate(-596.899 -263.989)" fill="#eacdb0"/>
          </g>
          <path id="Path_3086" data-name="Path 3086" d="M610.879,296.012c-.023-.386-.192-1.515-.771-.805a1.16,1.16,0,0,0-.2.7,2.622,2.622,0,0,1-.076.734,1.294,1.294,0,0,1-1.3.768,1.262,1.262,0,0,1-.608-.143,1.887,1.887,0,0,1-.462-.424l-1.014-1.164c-.581-.667-1.733-.378-2.516-.276a5.013,5.013,0,0,0-2.542.984c-.074.06-.147.123-.22.186a2.705,2.705,0,0,1-.563.405,1.736,1.736,0,0,1-2.048-.649c-.224-.291-.433-.665-.78-.714a.715.715,0,0,0-.676.411,2.043,2.043,0,0,0-.2.853,6.267,6.267,0,0,0,.545,3.133c1.009,2.065,2.96,2.318,4.921,2.272l2.325-.055a7.356,7.356,0,0,0,4.109-.916,5.089,5.089,0,0,0,1.936-3.256A8.025,8.025,0,0,0,610.879,296.012Zm-5.184,2.927a2.714,2.714,0,0,1-2.4.278c-.354-.107-.2-.7.15-.593a2.182,2.182,0,0,0,1.961-.216C605.719,298.2,606.006,298.73,605.7,298.939Z" transform="translate(-595.512 -281.851)" fill="#3b455a"/>
          <path id="Path_3087" data-name="Path 3087" d="M608.077,255.4a11.106,11.106,0,0,0,.3-1.535,3.045,3.045,0,0,1-1.5.129l0-.9c0-.249-3.365-.422-3.638-.445-2.558-.21-4.9-.409-7.211.964a6.967,6.967,0,0,0-3.546,5.2,10.652,10.652,0,0,0,1.683,6.829,14.829,14.829,0,0,1-.2-2.5,4.919,4.919,0,0,1,.538-1.576,6.5,6.5,0,0,1,2.28-2.4,12.637,12.637,0,0,1,4.984-1.679,13.648,13.648,0,0,1,5.115,0c.758.2.883.393,1.342-.371a12.981,12.981,0,0,0,.659-1.71Z" transform="translate(-592.413 -252.502)" fill="#3b455a"/>
        </g>
      </g>
      <g id="Group_2311" data-name="Group 2311" transform="translate(93.23 0)">
        <g id="Group_2310" data-name="Group 2310" transform="translate(0 0)">
          <g id="Group_2306" data-name="Group 2306" transform="translate(29.886 16.931)">
            <path id="Path_3088" data-name="Path 3088" d="M503.821,150.048l.957,8.105a2.5,2.5,0,0,1-2.313,2.743h0a2.641,2.641,0,0,1-2.9-2.25l-.957-8.105a2.5,2.5,0,0,1,2.313-2.743h0A2.642,2.642,0,0,1,503.821,150.048Z" transform="translate(-497.504 -147.785)" fill="#91979b"/>
            <path id="Path_3089" data-name="Path 3089" d="M504.5,172.861q-3.038,1.259-6.048,2.576a.475.475,0,0,0,.366.876q3.009-1.317,6.047-2.576A.475.475,0,0,0,504.5,172.861Z" transform="translate(-497.211 -165.083)" fill="#445c6e"/>
            <path id="Path_3090" data-name="Path 3090" d="M503.377,163.361q-3.038,1.259-6.048,2.576a.475.475,0,0,0,.366.876q3.01-1.317,6.047-2.576A.475.475,0,0,0,503.377,163.361Z" transform="translate(-496.436 -158.519)" fill="#445c6e"/>
            <path id="Path_3091" data-name="Path 3091" d="M501.409,155.141q-3.038,1.259-6.048,2.577a.475.475,0,0,0,.366.876q3.01-1.317,6.047-2.576A.475.475,0,0,0,501.409,155.141Z" transform="translate(-495.076 -152.839)" fill="#445c6e"/>
          </g>
          <path id="Path_3092" data-name="Path 3092" d="M495,148.775q-1.794.5-3.573,1.058c-.874.273-2.3.457-2.917,1.239-.587.747-.428,2.071-.432,2.961a27.579,27.579,0,0,0,.23,3.686,29.076,29.076,0,0,0,.623,3.251c.209.839.451,1.658,1.371,1.894,2,.512,4.484-.756,6.256-1.555,1.055-.476.422-2.182-.641-1.7a15.13,15.13,0,0,1-4.555,1.48c-.606.066-.548.022-.7-.58-.117-.452-.215-.911-.3-1.37q-.232-1.208-.355-2.436t-.135-2.46a10.021,10.021,0,0,1,.026-1.4c.085-.61.119-.559.6-.8a15.584,15.584,0,0,1,2.369-.75q1.386-.423,2.782-.813C496.758,150.165,496.111,148.463,495,148.775Z" transform="translate(-460.344 -131.512)" fill="#afbcc6"/>
          <path id="Path_3093" data-name="Path 3093" d="M516.015,146.54c-.9.129-1.757.378-2.659.5-.142.014-.284.029-.422.046a.924.924,0,0,0,.132,1.843c.319-.026.635-.059.95-.1a1.663,1.663,0,0,1,1.838.857,10.342,10.342,0,0,1,.615,3.37,14.367,14.367,0,0,1-.2,3.453c-.122.674-.027.769-.689.966-.589.176-1.181.343-1.771.515a.833.833,0,0,0-.554,1.166.822.822,0,0,0,.733.923c1.629.261,3.7.315,4.566-1.356a5.906,5.906,0,0,0,.216-2.88q-.054-1.66-.108-3.32c-.051-1.563.363-4.038-.76-5.35A1.986,1.986,0,0,0,516.015,146.54Z" transform="translate(-476.943 -129.974)" fill="#afbcc6"/>
          <path id="Path_3094" data-name="Path 3094" d="M430.452,183.913c-2.424.772-4.868,1.348-7.362,1.889a48.209,48.209,0,0,1-4.994.943c-1.677.183-3.36.32-5.029.557-1.248.177-5.311.4-5.346,2.087-.021,1.018,1.35,1.648,2.151,2.016,1.187.544,2.418,1.087,3.632,1.551a47.5,47.5,0,0,0,11.331,2.8,28.67,28.67,0,0,0,9.2-.2q.517-.108,1.029-.244a.776.776,0,0,0,.39-.189.729.729,0,0,0,.093-.6,80.381,80.381,0,0,0-2.035-9.988,1.945,1.945,0,0,0-.615-1.133C432.311,182.969,431.044,183.724,430.452,183.913Z" transform="translate(-404.83 -155.371)" fill="#afbcc6"/>
          <g id="Group_2307" data-name="Group 2307">
            <path id="Path_3095" data-name="Path 3095" d="M511.451,114.936a.806.806,0,0,1,1.029.7l1.041,9.4a.859.859,0,0,1-.614.924l-3.964,1.1,1.026,8.914h0c.032-.154,1.167-.658,1.488-.982a7.682,7.682,0,0,1,1.868-1.334c4.609-2.569,9.677-4.947,15.207-3.857,8.893,1.754,17.755,3.727,26.606,5.676,8.979,1.978,17.939,4.047,26.849,6.306l.535.136c4.408,1.122,8.8,2.29,13.2,3.445q3.431.9,6.868,1.783c2.464.629,4.282,1.617,6.425-.23a13.516,13.516,0,0,0,4.028-6.534,12.088,12.088,0,0,0,.013-5.949c-.518-2.13-.919-4.886-3.614-5.254-1.182-.161-2.352-.324-3.523-.563-17.664-2.931-35.549-5.724-53.2-9.11q-1.876-.36-3.754-.716c-4.629-.875-12.469-2.641-17.07-3.661-8.964-1.986-11.48-5.239-18.153-9.482-2.695-1.714-5.317-3.53-7.889-5.409l1.821,15.83Z" transform="translate(-472.64 -97.996)" fill="#ccd2d9"/>
            <path id="Path_3096" data-name="Path 3096" d="M416.8,93.682c-5.432,1.263-14.833,12.489-17.43,15.191s.7,4.235.7,4.235c.62-.168,1.241-.328,1.863-.488q2.524-.647,5.066-1.23,1.859-.425,3.724-.823c.622-.133,1.243-.271,1.866-.4.5-.1,1.022-.058,1.534-.12.57-.068,1.142-.137,1.717-.158a10.907,10.907,0,0,1,3.4.347c.372.111,1.064.521,1.108.967l2.4,24.467a.452.452,0,0,0,.624.358l12.326-5.061s-.767-.173-1.351-1.713a22.744,22.744,0,0,1-.914-3.241c-.248-1.143-.434-2.295-.609-3.449l-3.3.912a1.663,1.663,0,0,1-2.095-1.512l-.624-8.225a.859.859,0,0,1,.6-.889l3.81-1.136a170.1,170.1,0,0,1-1.211-17.648q.787.587,1.58,1.166l-.082-.712C428.427,93.034,422.228,92.418,416.8,93.682Z" transform="translate(-398.369 -93)" fill="#ccd2d9"/>
            <path id="Path_3097" data-name="Path 3097" d="M509.859,187.528c.176,1.154.361,2.306.609,3.449a22.737,22.737,0,0,0,.915,3.241c.584,1.54,1.349,1.713,1.349,1.713l-1.024-8.914Z" transform="translate(-475.404 -157.962)" fill="#fff"/>
            <path id="Path_3098" data-name="Path 3098" d="M501.957,114.107l2.19-.653-1.821-15.83q-.793-.579-1.58-1.166A170.048,170.048,0,0,0,501.957,114.107Z" transform="translate(-469.107 -95.39)" fill="#fff"/>
          </g>
          <g id="Group_2308" data-name="Group 2308" transform="translate(81.35 21.994)">
            <path id="Path_3099" data-name="Path 3099" d="M661.6,180.076l.486.107c9.565,2.106,19.108,4.31,28.6,6.717l.569.145c4.7,1.2,9.379,2.439,14.066,3.669q3.655.959,7.316,1.9c2.624.67,4.561,1.722,6.843-.245a14.393,14.393,0,0,0,4.29-6.96,12.874,12.874,0,0,0,.015-6.337c-.552-2.269-.979-5.2-3.849-5.6-1.259-.172-2.506-.346-3.753-.6-16.77-2.783-34.467-5.608-51.267-8.708Z" transform="translate(-661.605 -164.168)" fill="#f77d0b"/>
            <path id="Path_3100" data-name="Path 3100" d="M824.39,212.643a3.83,3.83,0,0,1,3.092,4.464A3.872,3.872,0,0,1,822.857,220a3.83,3.83,0,0,1-3.092-4.464A3.872,3.872,0,0,1,824.39,212.643Z" transform="translate(-770.834 -197.605)" fill="#f77d0b"/>
          </g>
          <path id="Path_3101" data-name="Path 3101" d="M570.235,155.824l1.01-4.845a1.709,1.709,0,0,0-1.38-1.994c-6.09-1.239-26.321-5.4-27.91-6.366-1.4-.852-2.847-1.65-4.281-2.454-.82-.461-3.934-2.839-4.805-2.715-1.957.28-.52,5.251-.379,6.5.28,2.474.594,4.944.922,7.413a1.252,1.252,0,0,0,1.689.965,15.191,15.191,0,0,1,7.014-1.077c3.294.471,20.4,4.523,26,5.855A1.731,1.731,0,0,0,570.235,155.824Z" transform="translate(-490.599 -123.71)" fill="#fff" opacity="0.08"/>
          <g id="Group_2309" data-name="Group 2309" transform="translate(129.899 36.821)">
            <path id="Path_3102" data-name="Path 3102" d="M826.991,216.983a4.125,4.125,0,0,1-4.921,3.077,4.079,4.079,0,0,1-3.29-4.749,4.124,4.124,0,0,1,4.921-3.077A4.079,4.079,0,0,1,826.991,216.983Zm-7.777-1.583a3.648,3.648,0,0,0,2.942,4.247,3.689,3.689,0,0,0,4.4-2.752,3.648,3.648,0,0,0-2.942-4.248A3.689,3.689,0,0,0,819.214,215.4Z" transform="translate(-818.7 -212.145)" fill="#fff"/>
          </g>
        </g>
      </g>
      <g id="Group_2314" data-name="Group 2314" transform="translate(89.696 113.766)">
        <g id="Group_2312" data-name="Group 2312">
          <path id="Path_3103" data-name="Path 3103" d="M388.932,462.7l-1.556,16.44-.44,14.4,6.381,37.995,4.35.338,5.526-35.5,8.732-35.252Z" transform="translate(-386.935 -461.126)" fill="#18275a"/>
        </g>
        <g id="Group_2313" data-name="Group 2313" transform="translate(3.507 69.867)">
          <path id="Path_3104" data-name="Path 3104" d="M405.522,687.569l-.183,2.352-4.887,1.986-2.169-2.535,2.535-2.169Z" transform="translate(-398.283 -687.203)" fill="#18275a"/>
        </g>
      </g>
      <g id="Group_2317" data-name="Group 2317" transform="translate(97.267 113.069)">
        <g id="Group_2315" data-name="Group 2315" transform="translate(0 0)">
          <path id="Path_3105" data-name="Path 3105" d="M433.749,460.4l-.669,31.584-3.039,37.3-4.35.338-5.526-35.5-8.732-35.252Z" transform="translate(-411.434 -458.871)" fill="#18275a"/>
        </g>
        <g id="Group_2316" data-name="Group 2316" transform="translate(14.243 69.867)">
          <path id="Path_3106" data-name="Path 3106" d="M457.521,685.314l.183,2.352,4.887,1.986,2.169-2.535-2.535-2.169Z" transform="translate(-457.521 -684.948)" fill="#3b455a"/>
        </g>
      </g>
      <g id="Group_2318" data-name="Group 2318" transform="translate(83.922 78.121)">
        <path id="Path_3107" data-name="Path 3107" d="M408.2,388.76c.056,2.747-.025,6.449-1.016,6.585a.861.861,0,0,1-.526-.167c-1.714-1-2.927-2.4-4.616-3.361a18.624,18.624,0,0,0-5.783-1.921,52.579,52.579,0,0,0-9.034-.993,67.062,67.062,0,0,0-7.139.382c-1.971.175-3.806.8-5.814.649a12.366,12.366,0,0,1-5.845-1.975.359.359,0,0,1-.159-.165.4.4,0,0,1,.028-.256,11.92,11.92,0,0,1,1.486-3.458,22.764,22.764,0,0,0,2.075-3.867,64.261,64.261,0,0,0,3.392-8.379c1.356-3.9,2.906-7.693,4.217-11.6a69.447,69.447,0,0,1,2.971-8.038c.966-2.012,2.687-4.951,4.76-5.836a6.086,6.086,0,0,1,2.232-.35,9.672,9.672,0,0,1,.974-.015,2.342,2.342,0,0,0-.181,1.576,1.646,1.646,0,0,0,1.014.9,1.6,1.6,0,0,0,.52.11,1.561,1.561,0,0,0,.437-.061,2.463,2.463,0,0,0,.547-.22,4.276,4.276,0,0,0,1.627-1.985,1.358,1.358,0,0,1,.182-.307c.187-.214.479-.171.736-.179l1.022-.031a5.248,5.248,0,0,1,2.467.322,5.891,5.891,0,0,1,2.351,3.017,61.186,61.186,0,0,1,5.046,17.037c.472,3.1.908,6.207,1.248,9.326.379,3.48.639,6.976.694,10.477C408.111,386.365,408.169,387.455,408.2,388.76Z" transform="translate(-368.25 -345.785)" fill="#ebb044"/>
      </g>
      <g id="Group_2320" data-name="Group 2320" transform="translate(98.653 55.598)">
        <g id="Group_2319" data-name="Group 2319" transform="translate(2.47 8.608)">
          <path id="Path_3108" data-name="Path 3108" d="M428.516,316.549a2.466,2.466,0,0,0,.077.918,3.092,3.092,0,0,0,1.781,1.961,1.45,1.45,0,0,0,1.391-.1,1.773,1.773,0,0,0,.429-.566,9.378,9.378,0,0,0,1-5.725,9.311,9.311,0,0,0,2.378-1.275,8.727,8.727,0,0,0,.849-2.9c.49-1.9.952-4.033-.051-5.716-1.038-1.744-3.284-2.34-5.312-2.393-2.547-.066-5.39.676-6.7,2.861-1.183,1.974.31,4.885.736,6.972.21,1.029.531,2.2,1.487,2.638.508.231,1.124.206,1.578.531C429,314.369,428.588,315.512,428.516,316.549Z" transform="translate(-423.91 -300.758)" fill="#eac1a4"/>
        </g>
        <path id="Path_3109" data-name="Path 3109" d="M421.79,283.836c3.31-1.332,7.743,1.414,10.677-1,2.7-2.22,3.75-6.666,2.931-9.935-2.955,1.365-6.4.6-9.649.819a11.891,11.891,0,0,0-7,2.667c-4.268,3.7-3.121,8.555-.469,12.7.721-.407.65-2.209,1.081-3.013A4.874,4.874,0,0,1,421.79,283.836Z" transform="translate(-415.916 -272.905)" fill="#3b455a"/>
        <path id="Path_3110" data-name="Path 3110" d="M455.969,300.492a6.172,6.172,0,0,1-.224,4.447,16.223,16.223,0,0,0,2.866-4.549,3.758,3.758,0,0,0,.383-1.76,4.111,4.111,0,0,0-1.619-2.469,6.7,6.7,0,0,0-2.279-1.512,2.5,2.5,0,0,0-2.566.477c-1.149,1.2-.055,1.952.817,2.493A5.481,5.481,0,0,1,455.969,300.492Z" transform="translate(-440.873 -287.824)" fill="#3b455a"/>
      </g>
      <g id="Group_2321" data-name="Group 2321" transform="translate(96.432 107.863)">
        <path id="Path_3111" data-name="Path 3111" d="M435.316,494.225a1.2,1.2,0,0,1,1.142-1.244l6.016-.088a1.2,1.2,0,0,1,1.178,1.21l.013.858,25.529-.375,10.14-10.949a.126.126,0,0,1,.1-.043l-.107-7.327c-.035-2.359-1.615-4.266-3.512-4.238l-20.7.3.042,2.86a1.619,1.619,0,1,1-3.162.046l-.042-2.86-17.246.253.045,3.055a1.823,1.823,0,0,1-1.521,2.026H433.2a1.8,1.8,0,0,1-1.608-1.9l-.046-3.13-11.785.173a3.181,3.181,0,0,0-2.5,1.4l-6.644,7.032-1.229,1.3a4.969,4.969,0,0,0-.658,2.583l.151,10.3,26.444-.388Z" transform="translate(-408.732 -462.757)" fill="#f77d0b"/>
        <path id="Path_3112" data-name="Path 3112" d="M469.6,521.7l-25.582.375.019,1.334a1.2,1.2,0,0,1-1.142,1.244l-6.016.088a1.2,1.2,0,0,1-1.178-1.21l-.02-1.334-26.444.388.321,21.859c.035,2.359,1.615,4.266,3.512,4.238l56.051-.822a2.992,2.992,0,0,0,1.932-.779l.45-.471,7.147-7.461a3.927,3.927,0,0,0,.47-.49l.02-.025a4.835,4.835,0,0,0,1.013-3.089l-.364-24.792-10.1,10.9A.13.13,0,0,1,469.6,521.7Z" transform="translate(-409.083 -489.513)" fill="#ffaa6a"/>
        <path id="Path_3113" data-name="Path 3113" d="M637.615,509.514a.136.136,0,0,0-.1-.061l.006.4.082-.089A.209.209,0,0,0,637.615,509.514Z" transform="translate(-566.811 -488.616)" fill="#6d2727"/>
        <path id="Path_3114" data-name="Path 3114" d="M408.767,548.063a.164.164,0,0,0,.146.177l-.005-.358A.164.164,0,0,0,408.767,548.063Z" transform="translate(-408.756 -515.169)" fill="#6d2727"/>
        <path id="Path_3115" data-name="Path 3115" d="M557.435,509.5,547.3,520.444l-25.53.375.005.357,25.582-.375a.129.129,0,0,0,.092-.044l10.1-10.9-.006-.4A.126.126,0,0,0,557.435,509.5Z" transform="translate(-486.834 -488.615)" fill="#6d2727"/>
        <rect id="Rectangle_1538" data-name="Rectangle 1538" width="26.447" height="0.357" transform="translate(0.152 32.713) rotate(-0.84)" fill="#6d2727"/>
        <path id="Path_3116" data-name="Path 3116" d="M485.564,448.508a2.136,2.136,0,0,1,1.834-2.351l13.51-.2a2.136,2.136,0,0,1,1.9,2.3l.05,3.4,3.162-.046-.05-3.4c-.051-3.449-2.348-6.221-5.122-6.18l-13.51.2c-2.774.041-4.989,2.879-4.938,6.328l.05,3.395,3.162-.046Z" transform="translate(-459.635 -442.028)" fill="#211d1d"/>
        <path id="Path_3117" data-name="Path 3117" d="M548.645,475.919a1.619,1.619,0,1,0,3.162-.046l-.042-2.86-3.162.046Z" transform="translate(-505.377 -463.437)" fill="#211d1d"/>
        <path id="Path_3118" data-name="Path 3118" d="M484.221,479.062h.031a1.823,1.823,0,0,0,1.521-2.025l-.044-3.055-3.162.046.046,3.13A1.8,1.8,0,0,0,484.221,479.062Z" transform="translate(-459.748 -464.106)" fill="#211d1d"/>
        <path id="Path_3119" data-name="Path 3119" d="M494.829,548.845a1.2,1.2,0,0,0,1.178,1.21l6.016-.089a1.2,1.2,0,0,0,1.142-1.244l-.019-1.334-8.336.122Z" transform="translate(-468.208 -514.828)" fill="#211d1d"/>
        <path id="Path_3120" data-name="Path 3120" d="M501.909,539.541l-6.016.089a1.2,1.2,0,0,0-1.142,1.244l.012.857,8.336-.122-.013-.858A1.2,1.2,0,0,0,501.909,539.541Z" transform="translate(-468.168 -509.405)" fill="#211d1d"/>
        <rect id="Rectangle_1539" data-name="Rectangle 1539" width="8.337" height="0.357" transform="matrix(1, -0.015, 0.015, 1, 26.596, 32.325)" fill="#211d1d"/>
      </g>
      <g id="Group_2347" data-name="Group 2347" transform="translate(192.594 51.328)">
        <g id="Group_2324" data-name="Group 2324" transform="translate(16.758 21.732)">
          <g id="Group_2322" data-name="Group 2322" transform="translate(0 11.281)">
            <path id="Path_3121" data-name="Path 3121" d="M775.311,370.487a.839.839,0,0,1,.215-.1c.7-.187,1.177.134,1.9.146.322.005.783-.683,1.139-.112.131.21.381.772.657,1.223a4.75,4.75,0,0,0,2.118,1.585,33.823,33.823,0,0,0,10.038,2.05,1.235,1.235,0,0,0,.58-.041,1.292,1.292,0,0,0,.594-.829,26.276,26.276,0,0,1,2.1-4.392,9.808,9.808,0,0,1,2.831-3.256,4.411,4.411,0,0,1,4.135-.541,3.444,3.444,0,0,1,1.944,2.458c.5,2.647-2.776,4.823-4.425,6.439a46.692,46.692,0,0,1-4.986,4.245,2.007,2.007,0,0,1-.706.384,2.044,2.044,0,0,1-.854-.044,102.049,102.049,0,0,1-10.73-2.841c-.975-.3-1.666-1.081-2.57-1.353-.577-.174-1.155.1-1.735.061a5.61,5.61,0,0,1-1.835-.5c-1.02-.5-1.231-1.649-1.515-2.639a1.22,1.22,0,0,1-.069-.648,1.764,1.764,0,0,1,.644-.885A3.427,3.427,0,0,1,775.311,370.487Z" transform="translate(-774.119 -365.913)" fill="#eacdb0"/>
          </g>
          <g id="Group_2323" data-name="Group 2323" transform="translate(19.383)">
            <path id="Path_3122" data-name="Path 3122" d="M842.619,348.855l-5.78-3.049c.124.065,4.077-9.024,4.331-9.557a15.766,15.766,0,0,1,3.719-5.578,5.093,5.093,0,0,1,8.386,4.763,26.821,26.821,0,0,1-8.08,14.317.68.68,0,0,1-.294.185.7.7,0,0,1-.457-.117Z" transform="translate(-836.839 -329.41)" fill="#7fc5a3"/>
          </g>
        </g>
        <g id="Group_2342" data-name="Group 2342" transform="translate(25.537 0)">
          <g id="Group_2335" data-name="Group 2335" transform="translate(0 56.217)">
            <g id="Group_2329" data-name="Group 2329">
              <g id="Group_2328" data-name="Group 2328" transform="translate(0 50.906)">
                <g id="Group_2327" data-name="Group 2327">
                  <g id="Group_2325" data-name="Group 2325" transform="translate(5.39)">
                    <path id="Path_3123" data-name="Path 3123" d="M823.879,630.129a22.464,22.464,0,0,1-2.591-.309c-.711-7.916-1.4-16.172-1.313-24.1,2.2.177,5.614.353,7.813.529-1.386,4.2.49-1.892,0,2.521C827.711,609.47,824,630.129,823.879,630.129Z" transform="translate(-819.969 -605.72)" fill="#eacdb0"/>
                  </g>
                  <g id="Group_2326" data-name="Group 2326" transform="translate(0 22.532)">
                    <path id="Path_3124" data-name="Path 3124" d="M808.92,678.657a1.308,1.308,0,0,0-1.208.4c-.2.171-.338.417-.587.536a2.048,2.048,0,0,1-.8.154c-1.579.1-5.23-.076-3.2,2.433,1.84,2.279,6.5,1.539,9.188,1.019a.912.912,0,0,0,.49-.177,1.056,1.056,0,0,0,.257-.489c.274-1.037.653-2.33-.754-2.812-.6-.206-1.135.141-1.77-.08C810.016,679.463,809.465,678.764,808.92,678.657Z" transform="translate(-802.527 -678.63)" fill="#262d3a"/>
                  </g>
                </g>
              </g>
              <path id="Path_3125" data-name="Path 3125" d="M813.057,496.611l12.269-.238q4.963-23.625,8.737-47.478a8.452,8.452,0,0,0,.03-3.71c-.672-2.262-3.095-3.553-5.415-3.987-3.6-.673-10.229.265-12.077,4.013-1.954,3.961-1.626,11.036-2.1,15.413A266.076,266.076,0,0,0,813.057,496.611Z" transform="translate(-809.733 -440.997)" fill="#3b455a"/>
            </g>
            <g id="Group_2334" data-name="Group 2334" transform="translate(17.888)">
              <g id="Group_2333" data-name="Group 2333" transform="translate(10.722 50.906)">
                <g id="Group_2332" data-name="Group 2332">
                  <g id="Group_2330" data-name="Group 2330">
                    <path id="Path_3126" data-name="Path 3126" d="M899.08,629.781a24.167,24.167,0,0,0,2.693-.228c.406-7.807,1.545-15.989,1.225-23.832-2.005.107-5.888.214-7.893.321,1.4,4.192,1.718,8.582,2.3,12.961C897.5,619.7,898.965,629.777,899.08,629.781Z" transform="translate(-895.105 -605.72)" fill="#eacdb0"/>
                  </g>
                  <g id="Group_2331" data-name="Group 2331" transform="translate(2.96 22.298)">
                    <path id="Path_3127" data-name="Path 3127" d="M908.634,677.893a1.21,1.21,0,0,1,1.117.434c.192.175.322.423.553.548a1.817,1.817,0,0,0,.733.177c1.447.146,4.78.085,3,2.5-1.613,2.2-5.9,1.323-8.369.726a.848.848,0,0,1-.454-.19,1.16,1.16,0,0,1-.25-.491c-.282-1.034-.668-2.325.6-2.758.542-.185,1.042.174,1.616-.025C907.657,678.657,908.139,677.982,908.634,677.893Z" transform="translate(-904.684 -677.874)" fill="#262d3a"/>
                  </g>
                </g>
              </g>
              <path id="Path_3128" data-name="Path 3128" d="M881.645,496.611l-12.27-.238q-4.963-23.625-8.737-47.478a8.448,8.448,0,0,1-.03-3.71c.672-2.262,3.095-3.553,5.415-3.987,3.6-.673,10.229.265,12.077,4.013,1.954,3.961,1.626,11.036,2.1,15.413A266.076,266.076,0,0,1,881.645,496.611Z" transform="translate(-860.41 -440.997)" fill="#3b455a"/>
            </g>
          </g>
          <g id="Group_2336" data-name="Group 2336" transform="translate(4.088 20.442)">
            <path id="Path_3129" data-name="Path 3129" d="M840.3,330.261a29.239,29.239,0,0,1,7.215,11.282c2.62,7.353,2.67,15.2,2.694,22.9q.012,3.841.024,7.682c.008,2.519-.215,3.062-2.953,2.729a46.937,46.937,0,0,1-14.945-3.916,70.732,70.732,0,0,0-6.526-3.273c-3.336-1.229-6.757-.673-10.058-1.472.837-2.531,2.089-4.842,2.672-7.5a55.023,55.023,0,0,0,1.041-8.088c.321-4.743.911-9.458,1.267-14.183.255-3.385-.191-6.156,3.409-8.376,1.959-1.209,5.525-3.277,8.289-2.717C835.366,325.923,838.47,328.517,840.3,330.261Z" transform="translate(-815.754 -325.235)" fill="#c10625"/>
          </g>
          <g id="Group_2341" data-name="Group 2341" transform="translate(16.243)">
            <g id="Group_2338" data-name="Group 2338" transform="translate(0 2.847)">
              <g id="Group_2337" data-name="Group 2337">
                <path id="Path_3130" data-name="Path 3130" d="M855.649,280.135a28.114,28.114,0,0,0,2.458,3.72,8.349,8.349,0,0,1,1.306,3.691c.154,1.009.515,1.8,1.73,1.97,2.292.326,1.636-1.568,2.157-2.945.6-1.574,1.864-2.818,2.751-4.224,2.562-4.061,1.831-12.088-3.495-13.8C856.732,266.673,853.77,276.027,855.649,280.135Z" transform="translate(-855.086 -268.301)" fill="#eacdb0"/>
              </g>
            </g>
            <g id="Group_2339" data-name="Group 2339" transform="translate(6.125 4.467)">
              <path id="Path_3131" data-name="Path 3131" d="M878.625,279.826a2.912,2.912,0,0,1,1.878.523c.49.444.437,1.413-.21,1.517-.587.095-1.347-.517-1.7-.07-.209.261-.025.643.133.949a5.575,5.575,0,0,1,.508,3.78c.241.223.618-.009.83-.242a12.158,12.158,0,0,0,2.414-3.964,2.434,2.434,0,0,0,.888.859,2.8,2.8,0,0,1,.055-1.706c.5-2.054.836-4.461-.6-6.139a5.338,5.338,0,0,0-3.109-1.632,15.6,15.6,0,0,0-3.553-.111c-.506.023-1.13.132-1.251.6a5.638,5.638,0,0,1,2.814,2.363C877.89,276.874,878.558,279.823,878.625,279.826Z" transform="translate(-874.905 -273.541)" fill="#282828"/>
            </g>
            <g id="Group_2340" data-name="Group 2340" transform="translate(0.924)">
              <path id="Path_3132" data-name="Path 3132" d="M864.651,264.9l.119.089a5.043,5.043,0,0,0,1.584,1.019c.878.245,1.821-.178,2.684.121.966.334,1.6,1.489,2.306,2.172.227.22.845.955,1.195.869.5-.122.59-1.2.517-1.576-.116-.595-.535-1.107-.6-1.71a3.915,3.915,0,0,1,.468-1.776,1.84,1.84,0,0,0-.031-1.772c-.194-.249-.51-.427-.575-.736a2.337,2.337,0,0,1,.045-.6c.056-1.046-1.495-1.706-2.3-1.866a8.124,8.124,0,0,0-3.051.448,6.311,6.311,0,0,1-2.551-.031,10.223,10.223,0,0,0-2.248-.461,3.681,3.681,0,0,0-2.833,1.635,7.52,7.52,0,0,0-1.208,5.236c-.051-.266.843-1.228,1.026-1.435a2.421,2.421,0,0,1,1.449-.917A6.229,6.229,0,0,1,864.651,264.9Z" transform="translate(-858.076 -259.088)" fill="#3b455a"/>
            </g>
          </g>
        </g>
        <g id="Group_2343" data-name="Group 2343" transform="translate(0 16.102)">
          <path id="Rectangle_1540" data-name="Rectangle 1540" d="M2.749,0H6.731a0,0,0,0,1,0,0V16.1a0,0,0,0,1,0,0H2.749A2.749,2.749,0,0,1,0,13.355V2.749A2.749,2.749,0,0,1,2.749,0Z" transform="translate(0.437 0) rotate(1.556)" fill="#b5b8c4"/>
          <path id="Path_3133" data-name="Path 3133" d="M785.2,317.536l-13.209-.359-.36,13.265,13.574.368c8.239-6.413,16.648-.531,16.648-.531l1.113-1.544C798.448,320.18,785.2,317.536,785.2,317.536Z" transform="translate(-755.645 -315.328)" fill="#b5b8c4"/>
          <path id="Path_3134" data-name="Path 3134" d="M750.2,314.008a5.982,5.982,0,0,1-8.094-2.226l-.19,7-.005.2-.046,1.691-.005.2-.19,7a5.982,5.982,0,0,1,8.2-1.783l1.058.617.157-5.787.046-1.691.157-5.787Z" transform="translate(-734.939 -311.599)" fill="#8b8d96"/>
          <rect id="Rectangle_1541" data-name="Rectangle 1541" width="8.392" height="38.83" transform="matrix(1, 0.027, -0.027, 1, 18.556, 15.185)" fill="#8b8d96"/>
          <path id="Path_3135" data-name="Path 3135" d="M772.7,525.654h0a6.18,6.18,0,0,1-6.01-6.345l1-36.746,2.107-4.509,8.389.228,1.859,4.617-1,36.746A6.18,6.18,0,0,1,772.7,525.654Z" transform="translate(-752.226 -426.487)" fill="#0f1f54"/>
          <circle id="Ellipse_176" data-name="Ellipse 176" cx="2.386" cy="2.386" r="2.386" transform="matrix(0.483, -0.875, 0.875, 0.483, 17.405, 93.712)" fill="#ffbc57"/>
          <path id="Path_3136" data-name="Path 3136" d="M768.794,544.659a6.173,6.173,0,0,0,5.108,3.276c3.545.1,6.49-2.031,6.637-7.439l.82-30.185S779.349,544.157,768.794,544.659Z" transform="translate(-753.682 -448.776)" fill="#272525" opacity="0.1"/>
          <path id="Path_3137" data-name="Path 3137" d="M779.938,360.326l8.3,3.458.088-3.231Z" transform="translate(-761.382 -345.142)" fill="#272525" opacity="0.1"/>
        </g>
        <g id="Group_2346" data-name="Group 2346" transform="translate(18.258 32.39)">
          <g id="Group_2344" data-name="Group 2344" transform="translate(0 10.915)">
            <path id="Path_3138" data-name="Path 3138" d="M780.331,400.716a.835.835,0,0,1,.225-.08c.717-.106,1.154.267,1.87.361.319.042.855-.589,1.144.018.107.224.291.81.514,1.29a4.747,4.747,0,0,0,1.924,1.816,24.394,24.394,0,0,0,3.219,1.563,41.383,41.383,0,0,0,7.362,1.972,11.191,11.191,0,0,1,8.018-8.312,2.592,2.592,0,0,1,1.256-.08,2.236,2.236,0,0,1,.919.538c2.826,2.525.313,5.095-1.626,7.25a37.034,37.034,0,0,1-3.92,3.787c-1.955,1.614-4.134,1.467-6.5.77a36.87,36.87,0,0,1-7.351-2.792,28.03,28.03,0,0,1-3.068-2.139c-1.01-.737-1.282-.247-2.332-.665a10.2,10.2,0,0,1-1.761-.7c-.957-.609-1.036-1.779-1.2-2.794a1.217,1.217,0,0,1,0-.652,1.761,1.761,0,0,1,.74-.806A3.391,3.391,0,0,1,780.331,400.716Z" transform="translate(-778.973 -399.215)" fill="#eacdb0"/>
          </g>
          <g id="Group_2345" data-name="Group 2345" transform="translate(19.37)">
            <path id="Path_3139" data-name="Path 3139" d="M847.046,382.6l-5.4-3.687c.115.079,5.077-8.5,5.39-9a15.769,15.769,0,0,1,4.328-5.12,5.093,5.093,0,0,1,7.791,5.686,26.821,26.821,0,0,1-9.656,13.306.68.68,0,0,1-.313.151.694.694,0,0,1-.441-.169Z" transform="translate(-841.65 -363.896)" fill="#d34e4e"/>
          </g>
        </g>
      </g>
      <g id="Group_2349" data-name="Group 2349" transform="translate(128.948 31.186)">
        <g id="Group_2348" data-name="Group 2348" transform="translate(0)">
          <path id="Path_3140" data-name="Path 3140" d="M527.031,231.894a3.975,3.975,0,0,0,.689-4.566L523.511,219c-.788-1.558-2.157-3.365-2.372-5.06-.381-3,.3-6.52.576-9.515.142-1.52.015-3.634.644-5.033.118-.262,1.9-2.273,1.848-2.334l-.373-.562-.557.375-.464-.093,1.265-1.531-1.83-1.341-2.444.969c-.131,1.646.162,3.36-.361,4.948-.221.672-.55,1.3-.828,1.953-.477,1.117-.8,2.29-1.169,3.445-.358,1.117-.936,2.168-1.272,3.272-.751,2.464-1.485,4.933-2.227,7.4l6.453,14.787A4.067,4.067,0,0,0,527.031,231.894Z" transform="translate(-513.947 -193.911)" fill="#eacdb0"/>
        </g>
        <path id="Path_3141" data-name="Path 3141" d="M544.489,299.295A20.754,20.754,0,0,1,537.794,293c-.045-.1-.089-.191-.132-.285-.163-.363-1.984-4.335-2.037-4.311l-.136.061-.395.2h-.057c-.926.013-2.47,1.112-3.329,1.5l-6.844,3.075a1,1,0,0,0-.435.3.9.9,0,0,0-.1.611l-.609.31a12.906,12.906,0,0,1,.811,1.3,10.293,10.293,0,0,0,1.761,4.845c.063.082.13.16.2.239a43.321,43.321,0,0,0,1.853,5.445c2.113,4.675,6.126,8.306,8.143,13.023a6.9,6.9,0,0,0,3.644-3.416,52.248,52.248,0,0,0,3.976-9.225l1.719-4.819a2.275,2.275,0,0,0,.186-.868C545.97,300.19,545.172,299.694,544.489,299.295Z" transform="translate(-520.701 -259.202)" fill="#0f1f54"/>
      </g>
      <g id="Group_2352" data-name="Group 2352" transform="translate(112.488 78.455)">
        <g id="Group_2351" data-name="Group 2351" transform="translate(13.312 25.704)">
          <g id="Group_2350" data-name="Group 2350">
            <path id="Path_3142" data-name="Path 3142" d="M507.811,432.714a25.933,25.933,0,0,0-.107-2.673c-1.318.2-2.633.412-3.943.653.064.234.129.466.195.694.426,1.466,1.319,3.386,1.248,4.918-.013.287-.93,2.81-.863,2.849l.553.386.38-.553.466-.084-.616,1.888,2.195.576,1.918-1.8c-.482-1.579-1.384-3.066-1.48-4.736C507.716,434.128,507.791,433.421,507.811,432.714Z" transform="translate(-503.761 -430.041)" fill="#eac1a4"/>
          </g>
        </g>
        <path id="Path_3143" data-name="Path 3143" d="M460.695,356.9c-.365.607,10.509,7.42,10.509,7.42l3.879,13.448h3.564l-1.5-16.319-14.511-14.584Z" transform="translate(-460.686 -346.867)" fill="#ebb044"/>
      </g>
      <g id="Group_2370" data-name="Group 2370" transform="translate(0 50.346)">
        <g id="Group_2355" data-name="Group 2355" transform="translate(18.233 29.125)">
          <g id="Group_2353" data-name="Group 2353">
            <path id="Path_3144" data-name="Path 3144" d="M157.939,350.153a.819.819,0,0,1,.233.018c.683.189.925.7,1.528,1.063.269.164,1-.188,1.016.469.007.243-.061.84-.052,1.357a4.641,4.641,0,0,0,1,2.385,23.86,23.86,0,0,0,2.259,2.672,40.469,40.469,0,0,0,5.8,4.678,10.942,10.942,0,0,1,10.46-4.254,2.534,2.534,0,0,1,1.154.426,2.184,2.184,0,0,1,.608.845c1.526,3.376-1.738,4.678-4.325,5.837a36.2,36.2,0,0,1-5,1.833c-2.387.669-4.276-.325-6.119-1.887a36.026,36.026,0,0,1-5.465-5.407,27.422,27.422,0,0,1-1.9-3.127c-.611-1.059-1.048-.728-1.821-1.518a9.959,9.959,0,0,1-1.3-1.324c-.615-.924-.222-2,.029-2.975a1.193,1.193,0,0,1,.262-.581,1.721,1.721,0,0,1,.981-.428A3.341,3.341,0,0,1,157.939,350.153Z" transform="translate(-155.692 -350.153)" fill="#eac1a4"/>
          </g>
          <g id="Group_2354" data-name="Group 2354" transform="translate(2.244 0.571)">
            <path id="Path_3145" data-name="Path 3145" d="M182.018,369.16c-1.3.428-2.59.793-3.848,1.095-1.876.451-3.931.885-5.666.042a8.274,8.274,0,0,1-1.8-1.312q-3.966-3.5-7.754-7.19a18.366,18.366,0,0,1,3.494-4.292,2.264,2.264,0,0,1,1.346-.718c.771-.03,1.358.655,1.816,1.276l2.243,3.032a1.635,1.635,0,0,0,.926.752,1.57,1.57,0,0,0,.779-.127,52.537,52.537,0,0,0,12.517-6.782,15.411,15.411,0,0,1,5.9-2.862,4.98,4.98,0,0,1,4.712,8.168C193.045,364.432,187.475,367.36,182.018,369.16Z" transform="translate(-162.953 -351.999)" fill="#18275a"/>
          </g>
        </g>
        <g id="Group_2367" data-name="Group 2367" transform="translate(31.922 0)">
          <g id="Group_2358" data-name="Group 2358" transform="translate(16.036 61.701)">
            <g id="Group_2356" data-name="Group 2356" transform="translate(6.533 68.749)">
              <path id="Path_3146" data-name="Path 3146" d="M279.83,680.27l-.073,2.247-4.566,2.1-2.174-2.319,2.319-2.174,4.566-2.1Z" transform="translate(-273.018 -678.024)" fill="#3b455a"/>
            </g>
            <g id="Group_2357" data-name="Group 2357">
              <path id="Path_3147" data-name="Path 3147" d="M274.477,458.971l-.221,6.823L264.2,495.066l1.28,30.777L261,526.59l-9.119-37.615.706-11.03,4.93-22.382Z" transform="translate(-251.877 -455.564)" fill="#3b455a"/>
            </g>
          </g>
          <g id="Group_2361" data-name="Group 2361" transform="translate(0 66.199)">
            <g id="Group_2359" data-name="Group 2359" transform="translate(2.892)">
              <path id="Path_3148" data-name="Path 3148" d="M216.675,470.119l-5.7,28.119-1.624,37.35,4.083.779,8.978-33.035,11.987-32.461Z" transform="translate(-209.347 -470.119)" fill="#3b455a"/>
            </g>
            <g id="Group_2360" data-name="Group 2360" transform="translate(0 64.915)">
              <path id="Path_3149" data-name="Path 3149" d="M207.033,681.016l-.421,2.208-4.837,1.365-1.787-2.629,2.629-1.787Z" transform="translate(-199.987 -680.173)" fill="#3b455a"/>
            </g>
          </g>
          <g id="Group_2362" data-name="Group 2362" transform="translate(1.705 28.117)">
            <path id="Path_3150" data-name="Path 3150" d="M246.029,387.84c.057,2.618-.025,6.145-1.031,6.274a.912.912,0,0,1-.534-.159c-1.739-.95-2.969-2.286-4.683-3.2a19.755,19.755,0,0,0-5.867-1.83,56.635,56.635,0,0,0-9.165-.946,72.433,72.433,0,0,0-7.243.363c-2,.167-3.861.759-5.9.618a13.1,13.1,0,0,1-5.93-1.881.268.268,0,0,1-.133-.4,11.01,11.01,0,0,1,1.507-3.294,21.309,21.309,0,0,0,2.1-3.685,59.1,59.1,0,0,0,3.441-7.983c1.376-3.713,2.948-7.33,4.278-11.056A63.65,63.65,0,0,1,219.89,353c.98-1.917,2.726-4.717,4.829-5.561a6.541,6.541,0,0,1,2.264-.333l6.977-.2a4.25,4.25,0,0,1,4.888,3.182,55.679,55.679,0,0,1,5.12,16.234c.479,2.954.921,5.914,1.266,8.886.384,3.316.648,6.646.7,9.983C245.944,385.558,246,386.6,246.029,387.84Z" transform="translate(-205.504 -346.892)" fill="#18275a"/>
          </g>
          <g id="Group_2363" data-name="Group 2363" transform="translate(11.69 28.083)">
            <path id="Path_3151" data-name="Path 3151" d="M252.837,359.692a19.006,19.006,0,0,0,.288,3.945q1.713,11.949,3.425,23.9l-18.735-.163q.339-4.477.678-8.954A31.838,31.838,0,0,1,242.445,364l7.194-15.653a1.613,1.613,0,0,1,1.539-1.154,18.38,18.38,0,0,1,5.6-.309c.448,1.633-1.206,4.472-1.819,5.991C254.062,355.091,253,357.285,252.837,359.692Z" transform="translate(-237.815 -346.78)" fill="#fff"/>
          </g>
          <g id="Group_2366" data-name="Group 2366" transform="translate(15.874)">
            <g id="Group_2364" data-name="Group 2364" transform="translate(4.685 14.664)">
              <path id="Path_3152" data-name="Path 3152" d="M271.514,318.329l3.883-.169a19.39,19.39,0,0,0-.038-3.1,8.873,8.873,0,0,0,2.266-1.215,8.316,8.316,0,0,0,.809-2.759c.468-1.807.907-3.842-.048-5.446-.989-1.661-3.129-2.23-5.062-2.28-2.427-.063-5.136.644-6.384,2.726-1.127,1.881.295,4.654.7,6.643.2.98.506,2.1,1.417,2.513.484.22,1.07.2,1.5.506C271.322,316.3,271.15,317.465,271.514,318.329Z" transform="translate(-266.515 -303.36)" fill="#eacdb0"/>
            </g>
            <g id="Group_2365" data-name="Group 2365" transform="translate(0.802 5.838)">
              <path id="Path_3153" data-name="Path 3153" d="M254.435,282.762,254,278.738a3.48,3.48,0,0,1,.056-1.489,2.6,2.6,0,0,1,1.873-1.5c.8-.218,1.651-.226,2.465-.405a10.281,10.281,0,0,1,2.6-.539c1.689.075,2.983,1.642,4.653,1.909,2.312.369,4.436-.69,5.832,2.031.256.5.328,1.076.554,1.59a11.2,11.2,0,0,0,1.24,1.784,7.2,7.2,0,0,1-.979,8.8c-1.075,1.075-1.514,2.048-2.994,2.392.678-1.378-.217-6.867-2.073-7.483-.491-.163-1.968.438-2.512.518a14.465,14.465,0,0,0-3.514.84,17.527,17.527,0,0,1-5.335,1.328.674.674,0,0,1-.893-.732Q254.7,285.274,254.435,282.762Z" transform="translate(-253.949 -274.802)" fill="#3b455a"/>
            </g>
            <path id="Path_3154" data-name="Path 3154" d="M258.072,269.561a43.346,43.346,0,0,1,6.6,0,46.178,46.178,0,0,1,6.742,1.376l2.855.731c.018,0,0-2.251-.018-2.4a2.392,2.392,0,0,0-.6-1.208,1.4,1.4,0,0,1-.3-1,13.445,13.445,0,0,0-.93-3.389,18.08,18.08,0,0,0-2.137-4.374c-2.993-4.166-7.992-4.018-12.411-2.077-3.944,1.732-5.348,4.974-5.688,9.016a1.58,1.58,0,0,1-.121.574c-.387.769-.751.568-.7,1.639a25.661,25.661,0,0,0,.488,2.562,11.279,11.279,0,0,1,1.825-.8,7.966,7.966,0,0,1,1.422-.383A23.341,23.341,0,0,1,258.072,269.561Z" transform="translate(-251.355 -255.91)" fill="#ebb044"/>
          </g>
        </g>
        <g id="Group_2368" data-name="Group 2368" transform="translate(0 13.147)">
          <rect id="Rectangle_1542" data-name="Rectangle 1542" width="2.498" height="11.198" transform="translate(35.48 14.196) rotate(29.797)" fill="#8b8d96"/>
          <path id="Path_3155" data-name="Path 3155" d="M193.1,344.616l-1.627,2.842-.63,1.1-1.627,2.842,1.323,2.706L193,349.8l.63-1.1,2.467-4.309Z" transform="translate(-160.62 -330.192)" fill="#b5b8c4"/>
          <path id="Path_3156" data-name="Path 3156" d="M240.585,361.939,211.694,345.4l-6.22.085-2.661,4.648-1.21,2.112-2.661,4.648,2.985,7.42a11.365,11.365,0,0,0,4.654,5.478l8.484,5.142a3.417,3.417,0,0,1,1.594,3.515l-3.128,17.762a4.649,4.649,0,0,0,2.268,4.84l2.674,1.532a4.649,4.649,0,0,0,6.889-3.228l2.537-14.407a1.587,1.587,0,0,1,2.06-1.218c1.7.531,4.324.608,6.252-2.759l2.418-4.223,1.423-2.484.6-1.056.605-1.056,1.422-2.484A5.658,5.658,0,0,0,240.585,361.939Z" transform="translate(-167.342 -330.888)" fill="#c10625"/>
          <rect id="Rectangle_1543" data-name="Rectangle 1543" width="2.907" height="3.515" transform="translate(29.634 19.388) rotate(-150.203)" fill="#8b8d96"/>
          <rect id="Rectangle_1544" data-name="Rectangle 1544" width="22.872" height="2.282" transform="matrix(-0.868, -0.497, 0.497, -0.868, 20.173, 13.346)" fill="#8b8d96"/>
          <rect id="Rectangle_1545" data-name="Rectangle 1545" width="0.609" height="22.359" transform="translate(0.321 1.988) rotate(-60.203)" fill="#272525" opacity="0.1"/>
          <rect id="Rectangle_1546" data-name="Rectangle 1546" width="0.837" height="2.873" transform="translate(27.104 17.956) rotate(-60.203)" fill="#272525" opacity="0.1"/>
          <path id="Path_3157" data-name="Path 3157" d="M98.218,302.561l-1.524-.873,2.975-1.732,1.505.884Z" transform="translate(-96.693 -299.491)" fill="#b5b8c4"/>
          <path id="Path_3158" data-name="Path 3158" d="M107.952,308.135l-1.524-.873,2.975-1.732,1.505.884Z" transform="translate(-103.419 -303.343)" fill="#b5b8c4"/>
          <path id="Path_3159" data-name="Path 3159" d="M117.686,313.709l-1.524-.873,2.975-1.732,1.505.884Z" transform="translate(-110.145 -307.195)" fill="#b5b8c4"/>
          <path id="Path_3160" data-name="Path 3160" d="M127.421,319.283l-1.524-.873,2.975-1.732,1.505.884Z" transform="translate(-116.872 -311.046)" fill="#b5b8c4"/>
          <path id="Path_3161" data-name="Path 3161" d="M137.155,324.858l-1.524-.873,2.975-1.732,1.505.884Z" transform="translate(-123.598 -314.898)" fill="#b5b8c4"/>
          <path id="Path_3162" data-name="Path 3162" d="M146.889,330.432l-1.524-.873,2.975-1.732,1.505.884Z" transform="translate(-130.324 -318.749)" fill="#b5b8c4"/>
          <path id="Path_3163" data-name="Path 3163" d="M156.624,336.006l-1.524-.873,2.975-1.732,1.505.884Z" transform="translate(-137.05 -322.601)" fill="#b5b8c4"/>
          <rect id="Rectangle_1547" data-name="Rectangle 1547" width="6.327" height="7.561" transform="matrix(0.868, 0.497, -0.497, 0.868, 24.336, 10.059)" fill="#b5b8c4"/>
          <path id="Path_3164" data-name="Path 3164" d="M160.742,330.2l-1.1,1.919-.425.743-1.1,1.919,1.6,2.229,1.666-2.909.425-.743,1.666-2.909Z" transform="translate(-139.136 -320.387)" fill="#8b8d96"/>
          <path id="Path_3165" data-name="Path 3165" d="M252.052,472.04l1.94-10.982a4.738,4.738,0,0,0-2.312-4.936l-2.338-1.339-2.9,16.5,3.257,1.865A1.59,1.59,0,0,0,252.052,472.04Z" transform="translate(-200.161 -406.47)" fill="#4b4b4b"/>
          <rect id="Rectangle_1548" data-name="Rectangle 1548" width="0.913" height="9.508" transform="translate(42.612 18.28) rotate(29.798)" fill="#4b4b4b"/>
          <rect id="Rectangle_1549" data-name="Rectangle 1549" width="0.913" height="9.508" transform="translate(44.513 19.369) rotate(29.796)" fill="#4b4b4b"/>
          <rect id="Rectangle_1550" data-name="Rectangle 1550" width="12.781" height="2.678" rx="1.339" transform="translate(59.747 28.092) rotate(29.797)" fill="#fff"/>
        </g>
        <g id="Group_2369" data-name="Group 2369" transform="translate(66.995 49.868)">
          <path id="Path_3166" data-name="Path 3166" d="M316.283,420.555c.083.3.045.716-.254.818a.966.966,0,0,1-.553-.071,1.633,1.633,0,0,0-1.82.794,2.053,2.053,0,0,0,.49,2.31,4.207,4.207,0,0,0,2.265,1.03,1.51,1.51,0,0,0,2.007-.848c.643-1.239,1.234-2.878.324-4.141C318.026,419.453,315.72,418.5,316.283,420.555Z" transform="translate(-313.477 -418.698)" fill="#eacdb0"/>
          <path id="Path_3167" data-name="Path 3167" d="M327.8,419.418a2.409,2.409,0,0,0-.331-.4c-1.033-1.006-2.4-2.006-3.924-1.681a13.754,13.754,0,0,1-1.943,8.033.777.777,0,0,0-.168.62c.134.394,1.329.775,1.694.825a4.548,4.548,0,0,0,4.159-1.563,5.366,5.366,0,0,0,.784-2.186A5.014,5.014,0,0,0,327.8,419.418Z" transform="translate(-318.964 -417.275)" fill="#18275a"/>
        </g>
      </g>
      <g id="Group_2378" data-name="Group 2378" transform="translate(39.937 0.071)">
        <g id="Group_2371" data-name="Group 2371" transform="translate(30.105 40.863)">
          <path id="Rectangle_1551" data-name="Rectangle 1551" d="M0,0H8.772a0,0,0,0,1,0,0V21.008a4.385,4.385,0,0,1-4.385,4.385h0A4.387,4.387,0,0,1,0,21.006V0A0,0,0,0,1,0,0Z" transform="translate(0 2.556) rotate(-16.94)" fill="#18275a"/>
        </g>
        <g id="Group_2374" data-name="Group 2374" transform="translate(0.698 0)">
          <g id="Group_2372" data-name="Group 2372" transform="translate(0)">
            <rect id="Rectangle_1552" data-name="Rectangle 1552" width="47.843" height="13.055" rx="6.528" transform="translate(0 13.949) rotate(-16.951)" fill="#f77d0b"/>
          </g>
          <g id="Group_2373" data-name="Group 2373" transform="translate(2.145 7.038)" opacity="0.1">
            <path id="Path_3168" data-name="Path 3168" d="M242.426,133.683,276.9,123.175a5.8,5.8,0,0,0,3.984-7.17L235.12,129.954A5.8,5.8,0,0,0,242.426,133.683Z" transform="translate(-235.12 -116.005)" fill="#272525"/>
          </g>
        </g>
        <g id="Group_2375" data-name="Group 2375" transform="translate(0 20.091)">
          <path id="Path_3169" data-name="Path 3169" d="M261.147,180.01l-1.855.565-1.145-3.754a1.589,1.589,0,0,0-1.206-1.084l-26.232-4.275a3.468,3.468,0,0,1-2.662-2.362l-1.98-6.5a3.534,3.534,0,0,1,2.424-4.363l.546,1.791a1.625,1.625,0,0,0-1.115,2.006l1.98,6.5a1.589,1.589,0,0,0,1.205,1.083l26.233,4.275A3.471,3.471,0,0,1,260,176.255Z" transform="translate(-225.922 -158.243)" fill="#8b8d96"/>
        </g>
        <g id="Group_2376" data-name="Group 2376" transform="translate(37.806 45.041)" opacity="0.1">
          <path id="Path_3170" data-name="Path 3170" d="M348.254,259.73a4.425,4.425,0,0,0,3.9.636,4.312,4.312,0,0,0,2.961-5.33l-4.9-16.061S355,257.216,348.254,259.73Z" transform="translate(-348.254 -238.975)" fill="#272525"/>
        </g>
        <g id="Group_2377" data-name="Group 2377" transform="translate(39.146 61.345)">
          <path id="Path_3171" data-name="Path 3171" d="M352.648,293.538a1.434,1.434,0,1,1,1.774.905A1.409,1.409,0,0,1,352.648,293.538Z" transform="translate(-352.59 -291.732)" fill="#ffbc57"/>
        </g>
      </g>
    </g>
  </g>
</svg>
