<svg width="69" height="68" viewBox="0 0 69 68" fill="none" xmlns="http://www.w3.org/2000/svg">
<g filter="url(#filter0_d_7066_82805)">
<circle cx="34.625" cy="30" r="19" fill="white"/>
</g>
<path d="M34.6204 22.7071C34.6405 22.9049 34.5812 23.1026 34.4556 23.2568C34.33 23.4109 34.1482 23.5089 33.9504 23.5291C32.7276 23.6562 31.5659 24.1272 30.5998 24.8875C29.6338 25.6478 28.9029 26.6662 28.4918 27.8248C28.0808 28.9834 28.0064 30.2348 28.2774 31.4339C28.5483 32.6331 29.1534 33.7309 30.0226 34.6003C30.8919 35.4696 31.9896 36.0749 33.1887 36.346C34.3878 36.6171 35.6392 36.5429 36.7979 36.132C37.9565 35.7211 38.9751 34.9904 39.7355 34.0244C40.4959 33.0584 40.9671 31.8968 41.0944 30.6741C41.103 30.575 41.1313 30.4786 41.1775 30.3905C41.2237 30.3025 41.287 30.2245 41.3637 30.1611C41.4403 30.0977 41.5288 30.0502 41.624 30.0214C41.7192 29.9925 41.8191 29.9829 41.9181 29.993C42.017 30.0032 42.113 30.0329 42.2003 30.0805C42.2876 30.1281 42.3646 30.1925 42.4268 30.2701C42.489 30.3477 42.5352 30.437 42.5626 30.5326C42.59 30.6282 42.5981 30.7283 42.5864 30.8271C42.4302 32.332 41.8507 33.7619 40.9151 34.951C39.9795 36.1401 38.7261 37.0398 37.3001 37.5457C35.8741 38.0516 34.334 38.143 32.8581 37.8095C31.3823 37.4759 30.0312 36.7309 28.9614 35.6609C27.8917 34.5909 27.147 33.2396 26.8138 31.7637C26.4805 30.2878 26.5724 28.7477 27.0786 27.3218C27.5848 25.896 28.4847 24.6428 29.6741 23.7074C30.8634 22.7721 32.2934 22.1929 33.7984 22.0371C33.9962 22.0169 34.194 22.0762 34.3481 22.2019C34.5023 22.3275 34.6002 22.5092 34.6204 22.7071ZM35.6404 22.6411C35.6633 22.5451 35.7049 22.4547 35.7628 22.3749C35.8207 22.295 35.8938 22.2274 35.9778 22.1759C36.0619 22.1243 36.1553 22.0899 36.2527 22.0744C36.3501 22.059 36.4495 22.063 36.5454 22.0861C36.9234 22.1761 37.2924 22.2941 37.6484 22.4361C37.8281 22.5131 37.9706 22.6573 38.0455 22.8379C38.1204 23.0185 38.1219 23.2213 38.0495 23.4029C37.9771 23.5846 37.8367 23.7308 37.6581 23.8104C37.4795 23.89 37.2769 23.8967 37.0934 23.8291C36.8012 23.7133 36.5011 23.6184 36.1954 23.5451C36.0021 23.4986 35.8352 23.3772 35.7313 23.2077C35.6274 23.0382 35.5941 22.8344 35.6404 22.6411ZM42.1874 26.9741C42.1138 26.7892 41.9698 26.6411 41.787 26.5625C41.6043 26.4838 41.3978 26.481 41.2129 26.5546C41.028 26.6282 40.88 26.7722 40.8013 26.9549C40.7227 27.1377 40.7198 27.3442 40.7934 27.5291C40.9084 27.8191 41.0044 28.1191 41.0784 28.4271C41.1248 28.6205 41.2462 28.7876 41.4158 28.8916C41.4998 28.9431 41.5931 28.9776 41.6904 28.993C41.7877 29.0084 41.8871 29.0045 41.9829 28.9816C42.0787 28.9586 42.169 28.9169 42.2487 28.8591C42.3285 28.8012 42.396 28.7281 42.4475 28.6441C42.499 28.5602 42.5334 28.4668 42.5488 28.3695C42.5643 28.2722 42.5604 28.1729 42.5374 28.0771C42.4473 27.7015 42.3304 27.3328 42.1874 26.9741ZM38.9134 23.9261C39.044 23.7761 39.2289 23.6842 39.4273 23.6705C39.6257 23.6568 39.8214 23.7225 39.9714 23.8531C40.2784 24.1201 40.5654 24.4101 40.8294 24.7201C40.9583 24.8716 41.0217 25.0682 41.0057 25.2665C40.9896 25.4648 40.8955 25.6487 40.7439 25.7776C40.5923 25.9064 40.3958 25.9699 40.1974 25.9538C39.9991 25.9378 39.8153 25.8436 39.6864 25.6921C39.4711 25.4389 39.2371 25.2022 38.9864 24.9841C38.8364 24.8534 38.7445 24.6686 38.7308 24.4702C38.7171 24.2718 38.7828 24.076 38.9134 23.9261ZM34.6234 25.7501C34.6234 25.5511 34.5444 25.3604 34.4037 25.2197C34.2631 25.0791 34.0723 25.0001 33.8734 25.0001C33.6745 25.0001 33.4837 25.0791 33.3431 25.2197C33.2024 25.3604 33.1234 25.5511 33.1234 25.7501V30.7501C33.1234 31.1651 33.4594 31.5001 33.8734 31.5001H36.8734C37.0723 31.5001 37.2631 31.421 37.4037 31.2804C37.5444 31.1397 37.6234 30.949 37.6234 30.7501C37.6234 30.5511 37.5444 30.3604 37.4037 30.2197C37.2631 30.0791 37.0723 30.0001 36.8734 30.0001H34.6234V25.7501Z" fill="#1F2551"/>
<defs>
<filter id="filter0_d_7066_82805" x="0.625" y="0" width="68" height="68" filterUnits="userSpaceOnUse" color-interpolation-filters="sRGB">
<feFlood flood-opacity="0" result="BackgroundImageFix"/>
<feColorMatrix in="SourceAlpha" type="matrix" values="0 0 0 0 0 0 0 0 0 0 0 0 0 0 0 0 0 0 127 0" result="hardAlpha"/>
<feMorphology radius="1" operator="erode" in="SourceAlpha" result="effect1_dropShadow_7066_82805"/>
<feOffset dy="4"/>
<feGaussianBlur stdDeviation="8"/>
<feComposite in2="hardAlpha" operator="out"/>
<feColorMatrix type="matrix" values="0 0 0 0 0 0 0 0 0 0 0 0 0 0 0 0 0 0 0.1 0"/>
<feBlend mode="normal" in2="BackgroundImageFix" result="effect1_dropShadow_7066_82805"/>
<feBlend mode="normal" in="SourceGraphic" in2="effect1_dropShadow_7066_82805" result="shape"/>
</filter>
</defs>
</svg>
