<svg width="69" height="68" viewBox="0 0 69 68" fill="none" xmlns="http://www.w3.org/2000/svg">
<g filter="url(#filter0_d_7066_82795)">
<circle cx="34.625" cy="30" r="19" fill="white"/>
</g>
<path d="M33.793 34.1665H35.4596V29.1665H33.793V34.1665ZM34.6263 27.4998C34.8624 27.4998 35.0605 27.4198 35.2205 27.2598C35.3805 27.0998 35.4602 26.9021 35.4596 26.6665C35.4596 26.4304 35.3796 26.2323 35.2196 26.0723C35.0596 25.9123 34.8619 25.8326 34.6263 25.8332C34.3902 25.8332 34.1921 25.9132 34.0321 26.0732C33.8721 26.2332 33.7924 26.4309 33.793 26.6665C33.793 26.9026 33.873 27.1007 34.033 27.2607C34.193 27.4207 34.3907 27.5004 34.6263 27.4998ZM34.6263 38.3332C33.4735 38.3332 32.3902 38.1143 31.3763 37.6765C30.3624 37.2387 29.4805 36.6451 28.7305 35.8957C27.9805 35.1457 27.3869 34.2637 26.9496 33.2498C26.5124 32.2359 26.2935 31.1526 26.293 29.9998C26.293 28.8471 26.5119 27.7637 26.9496 26.7498C27.3874 25.7359 27.981 24.854 28.7305 24.104C29.4805 23.354 30.3624 22.7604 31.3763 22.3232C32.3902 21.8859 33.4735 21.6671 34.6263 21.6665C35.7791 21.6665 36.8624 21.8854 37.8763 22.3232C38.8902 22.7609 39.7721 23.3546 40.5221 24.104C41.2721 24.854 41.866 25.7359 42.3038 26.7498C42.7416 27.7637 42.9602 28.8471 42.9596 29.9998C42.9596 31.1526 42.7407 32.2359 42.303 33.2498C41.8652 34.2637 41.2716 35.1457 40.5221 35.8957C39.7721 36.6457 38.8902 37.2396 37.8763 37.6773C36.8624 38.1151 35.7791 38.3337 34.6263 38.3332ZM34.6263 36.6665C36.4874 36.6665 38.0638 36.0207 39.3555 34.729C40.6471 33.4373 41.293 31.8609 41.293 29.9998C41.293 28.1387 40.6471 26.5623 39.3555 25.2707C38.0638 23.979 36.4874 23.3332 34.6263 23.3332C32.7652 23.3332 31.1888 23.979 29.8971 25.2707C28.6055 26.5623 27.9596 28.1387 27.9596 29.9998C27.9596 31.8609 28.6055 33.4373 29.8971 34.729C31.1888 36.0207 32.7652 36.6665 34.6263 36.6665Z" fill="#1F2551"/>
<defs>
<filter id="filter0_d_7066_82795" x="0.625" y="0" width="68" height="68" filterUnits="userSpaceOnUse" color-interpolation-filters="sRGB">
<feFlood flood-opacity="0" result="BackgroundImageFix"/>
<feColorMatrix in="SourceAlpha" type="matrix" values="0 0 0 0 0 0 0 0 0 0 0 0 0 0 0 0 0 0 127 0" result="hardAlpha"/>
<feMorphology radius="1" operator="erode" in="SourceAlpha" result="effect1_dropShadow_7066_82795"/>
<feOffset dy="4"/>
<feGaussianBlur stdDeviation="8"/>
<feComposite in2="hardAlpha" operator="out"/>
<feColorMatrix type="matrix" values="0 0 0 0 0 0 0 0 0 0 0 0 0 0 0 0 0 0 0.1 0"/>
<feBlend mode="normal" in2="BackgroundImageFix" result="effect1_dropShadow_7066_82795"/>
<feBlend mode="normal" in="SourceGraphic" in2="effect1_dropShadow_7066_82795" result="shape"/>
</filter>
</defs>
</svg>
