<svg width="80" height="80" viewBox="0 0 80 80" fill="none" xmlns="http://www.w3.org/2000/svg">
<g filter="url(#filter0_d_3990_1915)">
<circle cx="36" cy="36" r="25" transform="rotate(180 36 36)" fill="white"/>
</g>
<g clip-path="url(#clip0_3990_1915)">
<path d="M35.7596 40.993C34.7922 40.9467 33.859 40.6204 33.0735 40.0537C32.288 39.4871 31.684 38.7045 31.3349 37.8011C30.9857 36.8977 30.9065 35.9123 31.1068 34.9647C31.3071 34.0171 31.7783 33.148 32.4632 32.4632C33.148 31.7783 34.0171 31.3071 34.9647 31.1068C35.9123 30.9065 36.8977 30.9857 37.8011 31.3349C38.7045 31.684 39.4871 32.288 40.0537 33.0735C40.6204 33.859 40.9467 34.7922 40.993 35.7596L39.243 35.2346C39.1069 34.6566 38.819 34.1255 38.4089 33.6961C37.9988 33.2667 37.4814 32.9546 36.9103 32.7921C36.3391 32.6297 35.735 32.6227 35.1603 32.772C34.5855 32.9213 34.0611 33.2214 33.6413 33.6413C33.2214 34.0611 32.9213 34.5855 32.772 35.1603C32.6227 35.735 32.6297 36.3391 32.7921 36.9103C32.9546 37.4814 33.2667 37.9988 33.6961 38.4089C34.1255 38.819 34.6566 39.1069 35.2346 39.243L35.7596 40.993ZM44.3346 36.0013C44.3346 36.2513 44.3263 36.5013 44.3013 36.7513L42.6596 36.2596C42.668 36.1763 42.668 36.0846 42.668 36.0013C42.668 34.6828 42.277 33.3938 41.5444 32.2975C40.8119 31.2012 39.7707 30.3467 38.5525 29.8421C37.3344 29.3375 35.9939 29.2055 34.7007 29.4627C33.4075 29.72 32.2196 30.3549 31.2873 31.2873C30.3549 32.2196 29.72 33.4075 29.4627 34.7007C29.2055 35.9939 29.3375 37.3344 29.8421 38.5525C30.3467 39.7707 31.2012 40.8119 32.2975 41.5444C33.3938 42.277 34.6828 42.668 36.0013 42.668C36.0846 42.668 36.1763 42.668 36.2596 42.6596L36.7513 44.3013C36.5013 44.3263 36.2513 44.3346 36.0013 44.3346C34.3531 44.3346 32.742 43.8459 31.3716 42.9302C30.0011 42.0145 28.933 40.7131 28.3023 39.1903C27.6716 37.6676 27.5066 35.9921 27.8281 34.3756C28.1496 32.759 28.9433 31.2742 30.1087 30.1087C31.2742 28.9433 32.759 28.1496 34.3756 27.8281C35.9921 27.5066 37.6676 27.6716 39.1903 28.3023C40.7131 28.933 42.0145 30.0011 42.9302 31.3716C43.8459 32.742 44.3346 34.3531 44.3346 36.0013ZM41.193 39.5513L44.3346 38.5013L36.0013 36.0013L38.5013 44.3346L39.5513 41.193L43.1096 44.7513L44.7596 43.1013L41.193 39.5513Z" fill="#1F2551"/>
</g>
<defs>
<filter id="filter0_d_3990_1915" x="0" y="0" width="80" height="80" filterUnits="userSpaceOnUse" color-interpolation-filters="sRGB">
<feFlood flood-opacity="0" result="BackgroundImageFix"/>
<feColorMatrix in="SourceAlpha" type="matrix" values="0 0 0 0 0 0 0 0 0 0 0 0 0 0 0 0 0 0 127 0" result="hardAlpha"/>
<feOffset dx="4" dy="4"/>
<feGaussianBlur stdDeviation="7.5"/>
<feComposite in2="hardAlpha" operator="out"/>
<feColorMatrix type="matrix" values="0 0 0 0 0.254902 0 0 0 0 0.360784 0 0 0 0 0.670588 0 0 0 0.15 0"/>
<feBlend mode="normal" in2="BackgroundImageFix" result="effect1_dropShadow_3990_1915"/>
<feBlend mode="normal" in="SourceGraphic" in2="effect1_dropShadow_3990_1915" result="shape"/>
</filter>
<clipPath id="clip0_3990_1915">
<rect width="20" height="20" fill="white" transform="translate(26 26)"/>
</clipPath>
</defs>
</svg>
