<svg xmlns="http://www.w3.org/2000/svg" width="17.234" height="17.232" viewBox="0 0 17.234 17.232">
    <path fill="#0f1f54" d="M9.98 11.8a6.391 6.391 0 0 0-1.343-.717 3.426 3.426 0 0 0 1.114-2.26 5.067 5.067 0 0 1 6.425-.526.673.673 0 1 0 .77-1.1 6.4 6.4 0 0 0-1.346-.724 3.433 3.433 0 1 0-4.622-.008q-.141.054-.28.115a6.393 6.393 0 0 0-1.186.681 3.432 3.432 0 1 0-5.507 3.8A6.473 6.473 0 0 0 .1 15.094a2.02 2.02 0 0 0 1.922 2.638h5.857a.673.673 0 0 0 0-1.346H2.023a.673.673 0 0 1-.641-.88 5.194 5.194 0 0 1 4.934-3.513 5.035 5.035 0 0 1 2.894.907.673.673 0 1 0 .77-1.1zm3.32-9.954a2.087 2.087 0 1 1-2.087 2.087A2.089 2.089 0 0 1 13.3 1.846zM6.331 6.453A2.087 2.087 0 1 1 4.244 8.54a2.089 2.089 0 0 1 2.087-2.087zm10.9 8.082a.673.673 0 0 1-.673.673h-1.847v1.851a.673.673 0 1 1-1.346 0v-1.851h-1.851a.673.673 0 0 1 0-1.346h1.851V12.01a.673.673 0 0 1 1.346 0v1.851h1.851a.673.673 0 0 1 .673.674zm0 0" transform="translate(-.001 -.5)"/>
</svg>
