<svg xmlns="http://www.w3.org/2000/svg" width="347.368" height="320.056" viewBox="0 0 347.368 320.056">
  <g id="undraw_setup_wizard_re_nday" transform="translate(-10.113)">
    <path id="Path_13745" data-name="Path 13745" d="M371.153,314.456a3.616,3.616,0,0,0,0,7.232h45.455v-1.578a6.77,6.77,0,0,1,3.047-5.655Z" transform="translate(-293.874 -216.244)" fill="#e6e6e6"/>
    <path id="Path_13746" data-name="Path 13746" d="M444.026,287.689H428.658a3.616,3.616,0,0,1,0-7.232h15.369a3.616,3.616,0,1,1,0,7.232Z" transform="translate(-351.379 -166.397)" fill="#e6e6e6"/>
    <path id="Path_13747" data-name="Path 13747" d="M314.068,230.689H254.4a3.616,3.616,0,0,1,0-7.232h59.666a3.616,3.616,0,0,1,0,7.232Z" transform="translate(-229.896 -166.378)" fill="#e6e6e6"/>
    <path id="Path_13748" data-name="Path 13748" d="M319.586,196.689H311.9a3.616,3.616,0,1,1,0-7.232h7.684a3.616,3.616,0,1,1,0,7.232Z" transform="translate(-287.396 -113.844)" fill="#e6e6e6"/>
    <path id="Path_13749" data-name="Path 13749" d="M397.587,348.855H341.339a7.693,7.693,0,0,1-7.684-7.684V252.2a7.693,7.693,0,0,1,7.684-7.684h89.849a7.693,7.693,0,0,1,7.684,7.684v22.053h-.9V252.2a6.788,6.788,0,0,0-6.78-6.78H341.339a6.788,6.788,0,0,0-6.78,6.78v88.975a6.788,6.788,0,0,0,6.78,6.78h56.248Z" transform="translate(-275.307 -177.915)" fill="#ccc"/>
    <path id="Path_13750" data-name="Path 13750" d="M275.632,251.175h-41a7.693,7.693,0,0,1-7.684-7.684V171.141a7.693,7.693,0,0,1,7.684-7.684h73.083a7.693,7.693,0,0,1,7.684,7.684v29.406h-.9V171.141a6.788,6.788,0,0,0-6.78-6.78H234.629a6.788,6.788,0,0,0-6.78,6.78V243.49a6.788,6.788,0,0,0,6.78,6.78h41Z" transform="translate(-216.832 -133.499)" fill="#ccc"/>
    <path id="Path_13751" data-name="Path 13751" d="M739.536,314.457a6.77,6.77,0,0,1,3.047,5.655v1.578h45.455a3.616,3.616,0,0,0,0-7.232Z" transform="translate(-497.723 -216.244)" fill="#e6e6e6"/>
    <path id="Path_13752" data-name="Path 13752" d="M747.331,284.073a3.62,3.62,0,0,1,3.616-3.616h15.369a3.616,3.616,0,0,1,0,7.232H750.948A3.62,3.62,0,0,1,747.331,284.073Z" transform="translate(-476.001 -166.398)" fill="#e6e6e6"/>
    <path id="Path_13753" data-name="Path 13753" d="M823.587,227.073a3.62,3.62,0,0,1,3.616-3.616H886.87a3.616,3.616,0,0,1,0,7.232H827.2A3.62,3.62,0,0,1,823.587,227.073Z" transform="translate(-543.781 -166.378)" fill="#e6e6e6"/>
    <path id="Path_13754" data-name="Path 13754" d="M881.087,193.073a3.62,3.62,0,0,1,3.616-3.616h7.684a3.616,3.616,0,0,1,0,7.232H884.7A3.62,3.62,0,0,1,881.087,193.073Z" transform="translate(-549.299 -113.844)" fill="#e6e6e6"/>
    <path id="Path_13755" data-name="Path 13755" d="M697.23,348.855h56.248a7.693,7.693,0,0,0,7.684-7.684V252.2a7.693,7.693,0,0,0-7.684-7.684H663.629a7.693,7.693,0,0,0-7.684,7.684v22.053h.9V252.2a6.788,6.788,0,0,1,6.78-6.78h89.849a6.788,6.788,0,0,1,6.78,6.78v88.975a6.788,6.788,0,0,1-6.78,6.78H697.23Z" transform="translate(-451.916 -177.915)" fill="#ccc"/>
    <path id="Path_13756" data-name="Path 13756" d="M839.511,251.175h41a7.693,7.693,0,0,0,7.684-7.684V171.141a7.693,7.693,0,0,0-7.684-7.684H807.431a7.693,7.693,0,0,0-7.684,7.684v29.406h.9V171.141a6.788,6.788,0,0,1,6.78-6.78h73.083a6.788,6.788,0,0,1,6.78,6.78V243.49a6.788,6.788,0,0,1-6.78,6.78h-41Z" transform="translate(-530.717 -133.499)" fill="#ccc"/>
    <path id="Path_13757" data-name="Path 13757" d="M590.157,309.967H481.781a7.7,7.7,0,0,0-7.684,7.684V425a7.692,7.692,0,0,0,7.684,7.684H590.157A7.692,7.692,0,0,0,597.841,425V317.651a7.692,7.692,0,0,0-7.684-7.684ZM596.937,425a6.789,6.789,0,0,1-6.78,6.78H481.781A6.789,6.789,0,0,1,475,425V317.651a6.791,6.791,0,0,1,6.78-6.78H590.157a6.789,6.789,0,0,1,6.78,6.78Z" transform="translate(-352.267 -213.784)" fill="#ccc"/>
    <path id="Path_13758" data-name="Path 13758" d="M596.9,393.689H505.592a3.616,3.616,0,0,1,0-7.232H596.9a3.616,3.616,0,0,1,0,7.232Z" transform="translate(-367.544 -255.699)" fill="#e6e6e6"/>
    <path id="Path_13759" data-name="Path 13759" d="M602.417,359.689H563.092a3.616,3.616,0,0,1,0-7.232h39.326a3.616,3.616,0,0,1,0,7.232Z" transform="translate(-399.053 -237.067)" fill="#e6e6e6"/>
    <path id="Path_13760" data-name="Path 13760" d="M549.662,441.689H505.533a3.64,3.64,0,1,1,0-7.232h44.128a3.64,3.64,0,1,1,0,7.232Z" transform="translate(-367.27 -282.002)" fill="#e6e6e6"/>
    <path id="Path_13761" data-name="Path 13761" d="M549.662,476.689H505.533a3.64,3.64,0,1,1,0-7.232h44.128a3.64,3.64,0,1,1,0,7.232Z" transform="translate(-367.27 -301.182)" fill="#e6e6e6"/>
    <path id="Path_13762" data-name="Path 13762" d="M549.662,511.689H505.533a3.64,3.64,0,1,1,0-7.232h44.128a3.64,3.64,0,1,1,0,7.232Z" transform="translate(-367.27 -320.361)" fill="#e6e6e6"/>
    <path id="Path_395" data-name="Path 395" d="M700.725,441.859a.7.7,0,0,1-.421-.14h-.086c-.339-.26.148.293-.143-.136-.451-.451.175-1.022.521-1.414L703.023,437a.7.7,0,0,1,.988-.13h0l-.015.021.016-.021a.705.705,0,0,1,.13.988l-2.855,3.723a.705.705,0,0,1-.561.275Z" transform="translate(-475.961 -283.254)" fill="#fff"/>
    <path id="Path_13763" data-name="Path 13763" d="M312.07,118.159a10.489,10.489,0,1,1,10.489-10.489A10.489,10.489,0,0,1,312.07,118.159Zm0-20.074a9.585,9.585,0,1,0,9.585,9.585A9.585,9.585,0,0,0,312.07,98.085Z" transform="translate(-257.731 -97.181)" fill="#ccc"/>
    <path id="Path_395-2" data-name="Path 395" d="M318.455,119.6a1.041,1.041,0,0,1-.626-.208l-.011-.008c-.409-.313-.3-.1-.484-.379a1.408,1.408,0,0,1,.187-.888l.741-1.03,3.61-4.71a1.048,1.048,0,0,1,1.469-.194h0l-.022.031.023-.031a1.049,1.049,0,0,1,.194,1.469l-4.247,5.538a1.048,1.048,0,0,1-.834.409Z" transform="matrix(0.809, -0.588, 0.588, 0.809, -273.035, 105.222)" fill="#ccc"/>
    <path id="Path_13764" data-name="Path 13764" d="M459.266,199.159a10.489,10.489,0,1,1,10.489-10.489,10.489,10.489,0,0,1-10.489,10.489Zm0-20.074a9.585,9.585,0,1,0,9.585,9.585A9.585,9.585,0,0,0,459.266,179.085Z" transform="translate(-338.392 -141.568)" fill="#ccc"/>
    <path id="Path_395-3" data-name="Path 395" d="M700.725,476.859a.7.7,0,0,1-.421-.14l-.008-.006-1.586-1.213a.7.7,0,0,1,.858-1.119l1.027.788L703.023,472a.7.7,0,0,1,.988-.13h0l-.015.021.016-.021a.705.705,0,0,1,.13.988l-2.855,3.723a.705.705,0,0,1-.561.275Z" transform="translate(-475.2 -302.425)" fill="#fff"/>
    <path id="Path_13765" data-name="Path 13765" d="M598.446,264.159c-7.119-.121-10.354-5.523-10.354-10.49s3.236-10.368,10.339-10.488h.015c7.1.121,10.339,5.522,10.339,10.49S605.549,264.039,598.446,264.159Zm-.007-20.074c-6.487.113-9.442,5.047-9.443,9.584s2.957,9.475,9.45,9.586c6.477-.11,9.435-5.045,9.435-9.584S604.926,244.2,598.439,244.085Z" transform="translate(-414.734 -177.187)" fill="#ccc"/>
    <path id="Path_13766" data-name="Path 13766" d="M610.041,262.144c1.814,3.152-3.166,4.383-5.072,2.484l.477-1.02c3.1,2.676,5.828-1.959,1.1-1.519v-1.117c4.333.349,1.9-4.012-.987-1.432l-.466-1.02c2.353-2.442,7.634.511,3.906,2.951a1.859,1.859,0,0,1,1.047.673Z" transform="translate(-423.983 -185.091)" fill="#ccc"/>
    <path id="Path_13767" data-name="Path 13767" d="M739.266,199.159a10.489,10.489,0,1,1,10.489-10.489A10.489,10.489,0,0,1,739.266,199.159Zm0-20.074a9.585,9.585,0,1,0,9.585,9.585A9.585,9.585,0,0,0,739.266,179.085Z" transform="translate(-491.827 -141.568)" fill="#ccc"/>
    <path id="Path_13768" data-name="Path 13768" d="M751.363,199.058h-1.1v1.508H748.9v-1.508h-3.363v-1.042l3.613-5.175h1.117v5.121h1.1Zm-2.463-1.1v-2.94l-2.04,2.94Z" transform="translate(-501.012 -149.601)" fill="#ccc"/>
    <path id="Path_13769" data-name="Path 13769" d="M884.872,118.159a10.489,10.489,0,1,1,10.489-10.489A10.489,10.489,0,0,1,884.872,118.159Zm0-20.074a9.585,9.585,0,1,0,9.585,9.585,9.585,9.585,0,0,0-9.585-9.585Z" transform="translate(-571.616 -97.181)" fill="#ccc"/>
    <path id="Path_13770" data-name="Path 13770" d="M895.848,114.843a2.154,2.154,0,0,1,.857.868,2.649,2.649,0,0,1,.3,1.285,2.56,2.56,0,0,1-.347,1.34,2.324,2.324,0,0,1-1,.9,3.376,3.376,0,0,1-1.508.32,4.346,4.346,0,0,1-1.432-.244,3.326,3.326,0,0,1-1.161-.656l.466-1.02a3.512,3.512,0,0,0,2.148.8,1.4,1.4,0,0,0,1.1-2.425,1.453,1.453,0,0,0-1.058-.385,2.195,2.195,0,0,0-.857.168,2.026,2.026,0,0,0-.705.494h-.846v-4.545h4.838v1.085h-3.471v2.1a2.4,2.4,0,0,1,1.389-.4,2.581,2.581,0,0,1,1.28.309Z" transform="translate(-581.031 -105.162)" fill="#ccc"/>
    <g id="Group_14770" data-name="Group 14770" transform="translate(157.965 133.182)">
      <path id="Path_13771" data-name="Path 13771" d="M362.849,590.9a4.545,4.545,0,0,0-3.019-6.282l-1.37-16.095-6.59,5.2,2.312,14.487a4.57,4.57,0,0,0,8.668,2.691Z" transform="translate(-256.713 -487.557)" fill="#ffb8b8"/>
      <path id="Path_13772" data-name="Path 13772" d="M375.98,531.751a2.033,2.033,0,0,0,1.764-1.93l.763-18.265a40.275,40.275,0,0,0-3.892-19.027l-6.766-14.177a6.071,6.071,0,0,0-4.56-3.168,5.822,5.822,0,0,0-5.078,1.8,7.635,7.635,0,0,0-.869,1.122,5.841,5.841,0,0,0-.308,5.562l10.374,28.341.8,18.464a2.034,2.034,0,0,0,2.273,1.932l5.473-.653Z" transform="translate(-274.082 -436.375)" fill="#b0d1f8"/>
      <path id="Path_13773" data-name="Path 13773" d="M130.71,656.034l-5.074,2.227L114.63,639.749l7.489-3.287Z" transform="translate(-9.402 -480.857)" fill="#ffb8b8"/>
      <path id="Path_13774" data-name="Path 13774" d="M325.717,772.021l-9.993,4.386h0a6.955,6.955,0,0,0-3.573,9.164l.091.207L328.6,778.6Z" transform="translate(-203.842 -599.069)" fill="#0f1f54"/>
      <path id="Path_13775" data-name="Path 13775" d="M273.518,667.478h-5.542L265.34,646.1h8.179Z" transform="translate(-220.334 -486.14)" fill="#ffb8b8"/>
      <path id="Path_13776" data-name="Path 13776" d="M484.656,786.569H473.742a6.955,6.955,0,0,0-6.955,6.955v.226h17.868Z" transform="translate(-430.059 -607.04)" fill="#0f1f54"/>
      <path id="Path_13777" data-name="Path 13777" d="M388.226,644.439a2.045,2.045,0,0,0,.628-.1l9.4-3.02a2.043,2.043,0,0,0,1.323-2.531l-31.16-99.225-23.34-4.577-.082.134c-15.43,25.109-20.581,63.464-23.849,104.1a2.046,2.046,0,0,0,1.826,2.189l10.273,1.027a2.022,2.022,0,0,0,2.165-1.491l18.809-66.54a.678.678,0,0,1,1.277-.091l30.871,68.891A2.027,2.027,0,0,0,388.226,644.439Z" transform="translate(-279.226 -469.178)" fill="#0f1f54"/>
      <ellipse id="Ellipse_3207" data-name="Ellipse 3207" cx="11.102" cy="11.102" rx="11.102" ry="11.102" transform="translate(66.026 8.45)" fill="#ffb8b8"/>
      <path id="Path_13778" data-name="Path 13778" d="M403.424,504.169l.076-.159a56.267,56.267,0,0,0,4.691-23.475,16.118,16.118,0,0,0-15.779-15.5h0A16.091,16.091,0,0,0,376.3,478.056a48.292,48.292,0,0,0,.106,20.485l.033.14.142.029Z" transform="translate(-312.252 -430.845)" fill="#b0d1f8"/>
      <path id="Path_13779" data-name="Path 13779" d="M480.01,563.792a4.545,4.545,0,0,0,3.645-5.941l12.787-9.869-7.94-2.724-10.926,9.789a4.57,4.57,0,0,0,2.433,8.744Z" transform="translate(-445.442 -474.806)" fill="#ffb8b8"/>
      <path id="Path_13780" data-name="Path 13780" d="M441.049,500.737l.03-.048,13.481-21.832a6.07,6.07,0,0,0,.194-5.548,5.82,5.82,0,0,0-4.266-3.293h0a7.618,7.618,0,0,0-1.413-.123,5.841,5.841,0,0,0-4.843,2.753l-18.206,24.071-15.089,10.671a2.034,2.034,0,0,0-.393,2.957l3.513,4.247a2.026,2.026,0,0,0,2.6.458Z" transform="translate(-375.1 -433.507)" fill="#b0d1f8"/>
      <path id="Path_13781" data-name="Path 13781" d="M290.622,408.259c-.818-1.346-2.624-1.726-4.192-1.573a45,45,0,0,1-4.667.692c-4.374-.034-7.75-5.365-5.911-9.333,1.508-3.255,5.275-4.684,8.682-5.805,7.144-2.352,15.35-4.611,21.832-.8A13.565,13.565,0,0,1,312.9,403.53c-.146,3-1.3,6.084-.323,8.927,1.121,3.28,4.677,5.039,8.037,5.891,5.89,1.492,12.1,1.252,18.027,2.59s12,4.892,13.6,10.754c1.049,3.851-.046,8-1.859,11.551a29.917,29.917,0,0,1-41.736,12.242c-7.165-4.184-12.338-11.255-15.422-18.958a63.479,63.479,0,0,1-3.669-13.943,31.015,31.015,0,0,1,1.146-13.325,1.224,1.224,0,0,0-.072-1Z" transform="translate(-211.509 -389.397)" fill="#2f2e41"/>
      <path id="Path_13782" data-name="Path 13782" d="M205.024,801.723H377.243a.452.452,0,0,0,0-.9H205.024a.452.452,0,0,0,0,.9Z" transform="translate(-204.572 -614.849)" fill="#3f3d56"/>
    </g>
    <text id="_2" data-name="2" transform="translate(121.113 50.528)" fill="#ccc" font-size="11" font-family="OpenSans-Semibold, Open Sans" font-weight="600"><tspan x="-3.139" y="0">2</tspan></text>
  </g>
</svg>
