<svg id="NO_data" data-name="NO data" xmlns="http://www.w3.org/2000/svg" width="201.568" height="157.008" viewBox="0 0 201.568 157.008">
  <path id="Path_5953" data-name="Path 5953" d="M469.291,324.721a4.018,4.018,0,0,0-.232.589l-18.123,5.462-3.356-3.144-5.407,4.444,5.4,6.143a3.053,3.053,0,0,0,3.587.75l19.507-9.122a4.007,4.007,0,1,0-1.376-5.122Z" transform="translate(-389.738 -283.052)" fill="#ffb6b6"/>
  <path id="Path_5954" data-name="Path 5954" d="M435.242,327.419l-6.668,5.549a1.718,1.718,0,0,1-2.566-.427l-4.5-7.386a4.77,4.77,0,0,1,7.351-6.081l6.427,5.745a1.718,1.718,0,0,1-.046,2.6Z" transform="translate(-374.645 -279.478)" fill="#3f3d56"/>
  <path id="Path_5955" data-name="Path 5955" d="M501.628,627.749l2.9-1.849a43.3,43.3,0,0,0,.125-4.88l-1.505.385,1.486-.947c-.082-2.012-.264-3.34-.264-3.34a41.508,41.508,0,0,0-9.61,8.978l.638,4.369-1.522-3.056a17.523,17.523,0,0,0-1.047,1.937c-3.083,6.736-3.383,13.2-.669,14.446s7.413-3.211,10.5-9.947a23.071,23.071,0,0,0,1.757-6.808Z" transform="translate(-423.126 -487.42)" fill="#e6e6e6"/>
  <path id="Path_5956" data-name="Path 5956" d="M508.659,655.65l3.44-.083a43.314,43.314,0,0,0,2.629-4.113l-1.488-.449,1.761-.042c.97-1.765,1.5-3,1.5-3a41.508,41.508,0,0,0-12.867,2.718l-1.712,4.07.277-3.4a17.524,17.524,0,0,0-1.9,1.117c-6.121,4.172-9.721,9.554-8.04,12.02s8.006,1.083,14.128-3.09a23.07,23.07,0,0,0,5.023-4.92Z" transform="translate(-424.195 -508.819)" fill="#e6e6e6"/>
  <path id="Path_5957" data-name="Path 5957" d="M209.348,466.062H213.1l1.409-14.608-5.165.122Z" transform="translate(-145.216 -313.156)" fill="#ffb6b6"/>
  <path id="Path_5958" data-name="Path 5958" d="M477.226,688.872h7.4a4.714,4.714,0,0,1,4.713,4.713v.153h-12.11Z" transform="translate(-414.053 -537.192)" fill="#2f2e41"/>
  <path id="Path_5959" data-name="Path 5959" d="M64.712,442.236l2.463,2.835,12.107-8.152-3.636-4.184Z" transform="translate(-44.888 -300.171)" fill="#ffb6b6"/>
  <path id="Path_5960" data-name="Path 5960" d="M328.369,652.5l4.851,5.583h0a4.714,4.714,0,0,1-.467,6.649l-.116.1-7.943-9.141Z" transform="translate(-308.247 -511.962)" fill="#2f2e41"/>
  <path id="Path_5961" data-name="Path 5961" d="M271.369,704.613H373.776a.365.365,0,1,0,0-.729H271.369a.365.365,0,1,0,0,.729Z" transform="translate(-271.004 -547.605)" fill="#cacaca"/>
  <path id="Path_5962" data-name="Path 5962" d="M444.88,502.233l7.9,29.274h6.127l-1.346-32.017L454.011,468.3l-12.9-.686Z" transform="translate(-389 -383.712)" fill="#2f2e41"/>
  <path id="Path_5963" data-name="Path 5963" d="M363.261,469.849a15.554,15.554,0,0,0,2.057,9.255c2.742,4.8,1.028,20.91,1.028,20.91l-23.134,23.242s3.6,6.237,5.309,5.894,28.794-22.281,28.794-22.281L386.1,471.22Z" transform="translate(-321.092 -385.265)" fill="#2f2e41"/>
  <circle id="Ellipse_1289" data-name="Ellipse 1289" cx="7.884" cy="7.884" r="7.884" transform="translate(47.041 16.925)" fill="#ffb6b6"/>
  <path id="Path_5964" data-name="Path 5964" d="M411.857,309.21s-9.19-3.479-9.19-2.451-9.06,9.723-7,21.035,4.456,16.8,3.428,22.966-.343,7.541-.343,7.541,23.871,2.057,24.214-.343-1-6.059-1-7.087S412.494,311.856,411.857,309.21Z" transform="translate(-357.264 -272.003)" fill="#3f3d56"/>
  <path id="Path_5965" data-name="Path 5965" d="M420.947,253.295a11.347,11.347,0,0,1,2.071-.617,5.417,5.417,0,0,0,3.6-6.073,3.1,3.1,0,0,1-.13-1,1.911,1.911,0,0,1,1.593-1.4,15.687,15.687,0,0,0,2.219-.423,3.361,3.361,0,0,0,1.961-2.695,5.567,5.567,0,0,0-.744-3.355l-.265.764a2.833,2.833,0,0,1-.867-1.3,1.787,1.787,0,0,0-1.361,1.095c-.426.251-.487-.78-.958-.933a.845.845,0,0,0-.587.145c-.948.442-2.05.064-3.067-.181a11.545,11.545,0,0,0-5.359-.006,6.415,6.415,0,0,0-3.167,1.63,7.6,7.6,0,0,0-1.482,2.546,14.668,14.668,0,0,0-1.2,7.123,10.083,10.083,0,0,0,2.376,5.342c.678.782,2.892,3.509,4.106,3.044C421.212,256.416,419.15,254.245,420.947,253.295Z" transform="translate(-369.59 -223.748)" fill="#2f2e41"/>
  <rect id="Rectangle_3064" data-name="Rectangle 3064" width="25.312" height="0.488" transform="translate(55.711 121.585) rotate(-69.123)" opacity="0.2" style="isolation: isolate"/>
  <path id="Path_5966" data-name="Path 5966" d="M540.973,318.19a2.167,2.167,0,0,0-2.164,2.164v24.06a2.167,2.167,0,0,0,2.164,2.164h115.2a2.167,2.167,0,0,0,2.164-2.164v-24.06a2.167,2.167,0,0,0-2.164-2.164Z" transform="translate(-456.77 -280.065)" fill="#e6e6e6"/>
  <path id="Path_5967" data-name="Path 5967" d="M545.572,323.7a1.256,1.256,0,0,0-1.255,1.255v22.5a1.256,1.256,0,0,0,1.255,1.255H659.217a1.256,1.256,0,0,0,1.255-1.255v-22.5a1.256,1.256,0,0,0-1.255-1.255Z" transform="translate(-460.591 -283.886)" fill="#fff"/>
  <path id="Path_5968" data-name="Path 5968" d="M673.824,375.975a2.039,2.039,0,1,0,.005-4.078H577.7a2.039,2.039,0,1,0,0,4.078Z" transform="translate(-482.333 -317.319)" fill="#e6e6e6"/>
  <path id="Path_5969" data-name="Path 5969" d="M619.063,347.059a2.039,2.039,0,1,0,0-4.078H577.7a2.039,2.039,0,0,0,0,4.078Z" transform="translate(-482.333 -297.261)" fill="#6c63ff"/>
  <path id="Path_5970" data-name="Path 5970" d="M597.369,469.735a1.533,1.533,0,0,0-1.532,1.532v17.027a1.533,1.533,0,0,0,1.532,1.532h81.526a1.533,1.533,0,0,0,1.532-1.532V471.267a1.533,1.533,0,0,0-1.532-1.532Z" transform="translate(-496.328 -385.185)" fill="#e6e6e6"/>
  <path id="Path_5971" data-name="Path 5971" d="M600.624,473.634a.889.889,0,0,0-.888.888v15.926a.889.889,0,0,0,.888.888h80.424a.889.889,0,0,0,.888-.888V474.522a.889.889,0,0,0-.888-.888Z" transform="translate(-499.032 -387.89)" fill="#fff"/>
  <path id="Path_5972" data-name="Path 5972" d="M691.385,510.629a1.443,1.443,0,0,0,0-2.886H623.361a1.443,1.443,0,0,0,0,2.886Z" transform="translate(-514.419 -411.55)" fill="#e6e6e6"/>
  <path id="Path_5973" data-name="Path 5973" d="M652.632,490.165a1.443,1.443,0,1,0,0-2.886H623.361a1.443,1.443,0,0,0,0,2.886Z" transform="translate(-514.419 -397.355)" fill="#e4e4e4"/>
  <path id="Path_5974" data-name="Path 5974" d="M597.369,193.735a1.533,1.533,0,0,0-1.532,1.532v17.027a1.533,1.533,0,0,0,1.532,1.532h81.526a1.533,1.533,0,0,0,1.532-1.532V195.267a1.533,1.533,0,0,0-1.532-1.532Z" transform="translate(-496.328 -193.735)" fill="#e6e6e6"/>
  <path id="Path_5975" data-name="Path 5975" d="M600.624,197.634a.889.889,0,0,0-.888.888v15.926a.889.889,0,0,0,.888.888h80.424a.889.889,0,0,0,.888-.888V198.522a.889.889,0,0,0-.888-.888Z" transform="translate(-499.032 -196.44)" fill="#fff"/>
  <path id="Path_5976" data-name="Path 5976" d="M691.385,234.629a1.443,1.443,0,0,0,0-2.886H623.361a1.443,1.443,0,0,0,0,2.886Z" transform="translate(-514.419 -220.1)" fill="#e6e6e6"/>
  <path id="Path_5977" data-name="Path 5977" d="M652.632,214.165a1.443,1.443,0,1,0,0-2.886H623.361a1.443,1.443,0,0,0,0,2.886Z" transform="translate(-514.419 -205.905)" fill="#e4e4e4"/>
  <path id="Path_5978" data-name="Path 5978" d="M459.086,364.054a4.022,4.022,0,0,0-.421.472L439.77,363.4l-2.064-4.109-6.609,2.3,2.947,7.63a3.053,3.053,0,0,0,3.107,1.942l21.457-1.827a4.007,4.007,0,1,0,.477-5.282Z" transform="translate(-382.055 -308.571)" fill="#ffb6b6"/>
  <path id="Path_5979" data-name="Path 5979" d="M429.288,342.761l-8.173,2.906a1.718,1.718,0,0,1-2.26-1.286l-1.672-8.485a4.77,4.77,0,1,1,9-3.169l4.049,7.611a1.718,1.718,0,0,1-.941,2.424Z" transform="translate(-372.214 -287.937)" fill="#3f3d56"/>
  <circle id="Ellipse_1290" data-name="Ellipse 1290" cx="5.208" cy="5.208" r="5.208" transform="translate(79.952 35.418)" fill="#6c63ff"/>
</svg>
