<svg width="80" height="80" viewBox="0 0 80 80" fill="none" xmlns="http://www.w3.org/2000/svg">
<g filter="url(#filter0_d_3990_1897)">
<circle cx="36" cy="36" r="25" transform="rotate(180 36 36)" fill="white"/>
</g>
<g clip-path="url(#clip0_3990_1897)">
<path d="M36.9685 31.4844H35.0327V35.0327H31.4844V36.9685H35.0327V40.5169H36.9685V36.9685H40.5169V35.0327H36.9685V31.4844Z" fill="#1F2551"/>
<path d="M44.5788 30.9993C44.6745 31.1651 44.7189 31.3554 44.7064 31.5464C44.6939 31.7373 44.625 31.9203 44.5085 32.0721C44.3921 32.2239 44.2332 32.3378 44.052 32.3993C43.8708 32.4608 43.6754 32.4672 43.4906 32.4177C43.3057 32.3682 43.1397 32.2649 43.0135 32.1211C42.8874 31.9772 42.8067 31.7991 42.7817 31.6094C42.7567 31.4197 42.7886 31.2268 42.8732 31.0552C42.9578 30.8836 43.0915 30.7409 43.2572 30.6452C43.4794 30.517 43.7435 30.4822 43.9913 30.5486C44.2392 30.615 44.4505 30.7771 44.5788 30.9993Z" fill="#1F2551"/>
<path d="M40.9981 27.4226C41.1639 27.5183 41.2975 27.6609 41.3821 27.8326C41.4668 28.0042 41.4986 28.197 41.4736 28.3868C41.4486 28.5765 41.368 28.7545 41.2418 28.8984C41.1156 29.0423 40.9496 29.1455 40.7648 29.195C40.5799 29.2445 40.3846 29.2381 40.2034 29.1766C40.0222 29.1151 39.8633 29.0013 39.7468 28.8494C39.6303 28.6976 39.5615 28.5147 39.5489 28.3237C39.5364 28.1328 39.5808 27.9424 39.6765 27.7767C39.8048 27.5545 40.0161 27.3923 40.264 27.3259C40.5118 27.2595 40.7759 27.2943 40.9981 27.4226Z" fill="#1F2551"/>
<path d="M44.0689 36.0003C44.0689 37.5954 43.5959 39.1547 42.7097 40.481C41.8235 41.8073 40.5639 42.841 39.0902 43.4514C37.6166 44.0618 35.995 44.2215 34.4305 43.9104C32.8661 43.5992 31.429 42.831 30.3011 41.7031C29.1732 40.5752 28.4051 39.1382 28.0939 37.5737C27.7827 36.0093 27.9424 34.3877 28.5528 32.914C29.1633 31.4403 30.197 30.1807 31.5232 29.2945C32.8495 28.4084 34.4088 27.9353 36.0039 27.9353H36.9714V26.002H36.0039C34.0261 26.002 32.0927 26.5884 30.4482 27.6873C28.8037 28.7861 27.522 30.3479 26.7651 32.1751C26.0082 34.0024 25.8102 36.013 26.1961 37.9529C26.5819 39.8927 27.5343 41.6745 28.9328 43.073C30.3314 44.4715 32.1132 45.4239 34.053 45.8098C35.9928 46.1957 38.0035 45.9976 39.8307 45.2407C41.658 44.4839 43.2198 43.2021 44.3186 41.5577C45.4174 39.9132 46.0039 37.9798 46.0039 36.002V35.0344H44.0689V36.0003Z" fill="#1F2551"/>
</g>
<defs>
<filter id="filter0_d_3990_1897" x="0" y="0" width="80" height="80" filterUnits="userSpaceOnUse" color-interpolation-filters="sRGB">
<feFlood flood-opacity="0" result="BackgroundImageFix"/>
<feColorMatrix in="SourceAlpha" type="matrix" values="0 0 0 0 0 0 0 0 0 0 0 0 0 0 0 0 0 0 127 0" result="hardAlpha"/>
<feOffset dx="4" dy="4"/>
<feGaussianBlur stdDeviation="7.5"/>
<feComposite in2="hardAlpha" operator="out"/>
<feColorMatrix type="matrix" values="0 0 0 0 0.254902 0 0 0 0 0.360784 0 0 0 0 0.670588 0 0 0 0.15 0"/>
<feBlend mode="normal" in2="BackgroundImageFix" result="effect1_dropShadow_3990_1897"/>
<feBlend mode="normal" in="SourceGraphic" in2="effect1_dropShadow_3990_1897" result="shape"/>
</filter>
<clipPath id="clip0_3990_1897">
<rect width="20" height="20" fill="white" transform="translate(26 26)"/>
</clipPath>
</defs>
</svg>
