<svg width="254" height="234" viewBox="0 0 254 234" fill="none" xmlns="http://www.w3.org/2000/svg">
<path d="M19.4269 207.362C20.8859 207.875 22.4523 208.003 23.9753 207.735C25.4984 207.467 26.9266 206.811 28.1224 205.83C31.1672 203.274 32.1229 199.065 32.8993 195.166L35.1974 183.633L30.3866 186.946C26.9268 189.329 23.3893 191.786 20.9938 195.238C18.5983 198.689 17.5537 203.398 19.4777 207.132" fill="#E6E6E6"/>
<path d="M20.168 222.129C19.386 217.729 19.1164 213.253 19.3648 208.791C19.6412 204.815 21.0445 201 23.4104 197.792C24.7161 196.111 26.305 194.672 28.1055 193.537C28.5741 193.241 29.0075 193.985 28.5388 194.28C25.4241 196.248 23.0149 199.155 21.6586 202.581C20.2916 206.429 19.7862 210.529 20.1779 214.593C20.3332 217.04 20.6649 219.471 20.998 221.901C21.0243 222.011 21.0078 222.126 20.952 222.225C20.8962 222.323 20.8052 222.396 20.6973 222.43C20.5873 222.46 20.4699 222.445 20.3707 222.389C20.2715 222.332 20.1986 222.239 20.168 222.129Z" fill="#F2F2F2"/>
<path d="M24.5254 215.052C25.1514 216.002 26.0114 216.776 27.0228 217.298C28.0341 217.82 29.1628 218.073 30.3003 218.033C33.2251 217.892 35.6644 215.854 37.8552 213.917L44.3486 208.187L40.053 207.981C36.9714 207.648 33.8551 207.874 30.8536 208.647C29.357 209.054 27.9951 209.85 26.9071 210.955C25.8191 212.061 25.044 213.435 24.6609 214.937" fill="#E6E6E6"/>
<path d="M18.4565 224.667C21.3715 219.509 24.7523 213.777 30.7953 211.945C32.4751 211.437 34.2363 211.255 35.9844 211.408C36.5349 211.456 36.398 212.305 35.8432 212.255C32.9128 212.012 29.9881 212.785 27.5613 214.446C25.2802 216.101 23.3465 218.189 21.8698 220.589C20.9268 222.025 20.0827 223.521 19.2385 225.015C18.9731 225.495 18.1911 225.15 18.4565 224.667Z" fill="#F2F2F2"/>
<path d="M251.714 160.99H90.9974C90.5024 160.989 90.0278 160.792 89.6777 160.442C89.3276 160.092 89.1306 159.617 89.1299 159.122V9.86755C89.1306 9.37247 89.3276 8.89788 89.6777 8.54781C90.0278 8.19774 90.5024 8.00075 90.9974 8H251.714C252.209 8.00075 252.684 8.19774 253.034 8.54781C253.384 8.89788 253.581 9.37247 253.582 9.86755V159.122C253.581 159.617 253.384 160.092 253.034 160.442C252.684 160.792 252.209 160.989 251.714 160.99Z" fill="white"/>
<path d="M251.714 160.99H90.9974C90.5024 160.989 90.0278 160.792 89.6777 160.442C89.3276 160.092 89.1306 159.617 89.1299 159.122V9.86755C89.1306 9.37247 89.3276 8.89788 89.6777 8.54781C90.0278 8.19774 90.5024 8.00075 90.9974 8H251.714C252.209 8.00075 252.684 8.19774 253.034 8.54781C253.384 8.89788 253.581 9.37247 253.582 9.86755V159.122C253.581 159.617 253.384 160.092 253.034 160.442C252.684 160.792 252.209 160.989 251.714 160.99ZM90.9974 8.74533C90.7013 8.74791 90.4181 8.86667 90.2087 9.07604C89.9994 9.28541 89.8806 9.56864 89.878 9.86473V159.122C89.8806 159.418 89.9994 159.701 90.2087 159.911C90.4181 160.12 90.7013 160.239 90.9974 160.242H251.714C252.01 160.239 252.294 160.12 252.503 159.911C252.712 159.701 252.831 159.418 252.834 159.122V9.86755C252.831 9.57146 252.712 9.28824 252.503 9.07886C252.294 8.86949 252.01 8.75073 251.714 8.74815L90.9974 8.74533Z" fill="#CACACA"/>
<path d="M166.941 46.7852C166.604 46.7852 166.281 46.919 166.043 47.1573C165.805 47.3955 165.671 47.7186 165.671 48.0556C165.671 48.3925 165.805 48.7157 166.043 48.954C166.281 49.1922 166.604 49.326 166.941 49.326H236.533C236.87 49.326 237.194 49.1922 237.432 48.954C237.67 48.7157 237.804 48.3925 237.804 48.0556C237.804 47.7186 237.67 47.3955 237.432 47.1573C237.194 46.919 236.87 46.7852 236.533 46.7852H166.941Z" fill="#E4E4E4"/>
<path d="M166.941 54.3945C166.604 54.3945 166.281 54.5284 166.043 54.7666C165.805 55.0049 165.671 55.328 165.671 55.665C165.671 56.0019 165.805 56.3251 166.043 56.5633C166.281 56.8016 166.604 56.9354 166.941 56.9354H202.467C202.804 56.9354 203.127 56.8016 203.365 56.5633C203.604 56.3251 203.738 56.0019 203.738 55.665C203.738 55.328 203.604 55.0049 203.365 54.7666C203.127 54.5284 202.804 54.3945 202.467 54.3945H166.941Z" fill="#E4E4E4"/>
<path d="M106.116 95.3125C105.779 95.3125 105.456 95.4463 105.218 95.6846C104.98 95.9228 104.846 96.246 104.846 96.5829C104.846 96.9199 104.98 97.243 105.218 97.4813C105.456 97.7195 105.779 97.8534 106.116 97.8534H236.595C236.932 97.8534 237.255 97.7195 237.493 97.4813C237.732 97.243 237.865 96.9199 237.865 96.5829C237.865 96.246 237.732 95.9228 237.493 95.6846C237.255 95.4463 236.932 95.3125 236.595 95.3125H106.116Z" fill="#E4E4E4"/>
<path d="M106.116 102.926C105.779 102.926 105.456 103.06 105.218 103.298C104.98 103.536 104.846 103.859 104.846 104.196C104.846 104.533 104.98 104.856 105.218 105.095C105.456 105.333 105.779 105.467 106.116 105.467H202.529C202.866 105.467 203.189 105.333 203.427 105.095C203.665 104.856 203.799 104.533 203.799 104.196C203.799 103.859 203.665 103.536 203.427 103.298C203.189 103.06 202.866 102.926 202.529 102.926H106.116Z" fill="#E4E4E4"/>
<path d="M106.116 110.367C105.779 110.367 105.456 110.501 105.218 110.739C104.98 110.978 104.846 111.301 104.846 111.638C104.846 111.975 104.98 112.298 105.218 112.536C105.456 112.774 105.779 112.908 106.116 112.908H236.595C236.932 112.908 237.255 112.774 237.493 112.536C237.732 112.298 237.865 111.975 237.865 111.638C237.865 111.301 237.732 110.978 237.493 110.739C237.255 110.501 236.932 110.367 236.595 110.367H106.116Z" fill="#E4E4E4"/>
<path d="M106.116 117.977C105.779 117.977 105.456 118.11 105.218 118.349C104.98 118.587 104.846 118.91 104.846 119.247C104.846 119.584 104.98 119.907 105.218 120.145C105.456 120.384 105.779 120.517 106.116 120.517H202.529C202.866 120.517 203.189 120.384 203.427 120.145C203.665 119.907 203.799 119.584 203.799 119.247C203.799 118.91 203.665 118.587 203.427 118.349C203.189 118.11 202.866 117.977 202.529 117.977H106.116Z" fill="#E4E4E4"/>
<path d="M106.116 125.609C105.779 125.609 105.456 125.743 105.218 125.981C104.98 126.22 104.846 126.543 104.846 126.88C104.846 127.217 104.98 127.54 105.218 127.778C105.456 128.016 105.779 128.15 106.116 128.15H236.595C236.932 128.15 237.255 128.016 237.493 127.778C237.732 127.54 237.865 127.217 237.865 126.88C237.865 126.543 237.732 126.22 237.493 125.981C237.255 125.743 236.932 125.609 236.595 125.609H106.116Z" fill="#E4E4E4"/>
<path d="M106.116 133.219C105.779 133.219 105.456 133.353 105.218 133.591C104.98 133.829 104.846 134.152 104.846 134.489C104.846 134.826 104.98 135.149 105.218 135.388C105.456 135.626 105.779 135.76 106.116 135.76H202.529C202.866 135.76 203.189 135.626 203.427 135.388C203.665 135.149 203.799 134.826 203.799 134.489C203.799 134.152 203.665 133.829 203.427 133.591C203.189 133.353 202.866 133.219 202.529 133.219H106.116Z" fill="#E4E4E4"/>
<path d="M126.783 70.0748C123.179 70.0748 119.656 69.0061 116.659 67.004C113.663 65.0019 111.328 62.1561 109.948 58.8267C108.569 55.4972 108.209 51.8336 108.912 48.2991C109.615 44.7646 111.35 41.5179 113.898 38.9696C116.447 36.4214 119.693 34.686 123.228 33.9829C126.762 33.2799 130.426 33.6407 133.755 35.0198C137.085 36.3989 139.931 38.7343 141.933 41.7308C143.935 44.7272 145.003 48.25 145.003 51.8538C145.003 56.6863 143.084 61.3209 139.667 64.738C136.25 68.1551 131.615 70.0748 126.783 70.0748Z" fill="#131F51"/>
<path d="M71.4732 138.971C71.4417 138.306 71.2648 137.656 70.9549 137.066C70.645 136.477 70.2096 135.963 69.6795 135.56C69.1494 135.157 68.5373 134.875 67.8866 134.735C67.2358 134.594 66.562 134.598 65.9129 134.746L59.891 126.258L53.8408 128.658L62.5137 140.524C62.8353 141.596 63.5388 142.514 64.4911 143.103C65.4435 143.692 66.5787 143.912 67.6821 143.721C68.7855 143.529 69.7806 142.94 70.4791 142.065C71.1777 141.19 71.5313 140.089 71.4732 138.971Z" fill="#A0616A"/>
<path d="M59.7363 138.342L41.5068 114.702L48.3348 93.2455C48.8345 87.8504 52.211 86.3442 52.355 86.2821L52.5738 86.1875L58.5152 102.033L54.152 113.666L64.8604 131.675L59.7363 138.342Z" fill="#3F3D56"/>
<path d="M123.023 65.4634C122.362 65.546 121.728 65.7726 121.164 66.1272C120.6 66.4817 120.121 66.9555 119.76 67.5153C119.4 68.0751 119.166 68.7072 119.076 69.367C118.986 70.0268 119.042 70.6983 119.24 71.3342L111.243 77.9956L114.106 83.8425L125.266 74.2774C126.312 73.8741 127.173 73.1015 127.687 72.1059C128.201 71.1103 128.332 69.9607 128.056 68.8748C127.779 67.789 127.114 66.8422 126.186 66.2138C125.259 65.5853 124.133 65.3189 123.022 65.4648L123.023 65.4634Z" fill="#A0616A"/>
<path d="M123.304 77.2162L101.142 97.213L79.2184 92.0648C73.8007 91.983 72.0376 88.7335 71.9656 88.5951L71.8555 88.3834L87.194 81.235L99.1305 84.685L116.258 72.6172L123.304 77.2162Z" fill="#3F3D56"/>
<path d="M84.9165 219.369H90.8706L93.7023 196.402H84.915L84.9165 219.369Z" fill="#A0616A"/>
<path d="M102.353 224.898L83.6389 224.899L83.6385 217.669L97.1024 217.668C97.7922 217.668 98.4752 217.804 99.1124 218.068C99.7496 218.332 100.329 218.719 100.816 219.207C101.304 219.695 101.69 220.275 101.954 220.912C102.218 221.549 102.353 222.232 102.352 222.922L102.353 224.898Z" fill="#2F2E41"/>
<path d="M61.1182 219.369H67.0723L69.9054 196.402H61.1182V219.369Z" fill="#A0616A"/>
<path d="M78.5537 224.898L59.8401 224.899L59.8397 217.669L73.3036 217.668C73.9933 217.668 74.6763 217.804 75.3136 218.068C75.9508 218.332 76.5297 218.719 77.0173 219.207C77.5049 219.695 77.8915 220.275 78.1551 220.912C78.4187 221.549 78.5541 222.232 78.5536 222.922L78.5537 224.898Z" fill="#2F2E41"/>
<path d="M59.002 135.539L59.4875 169.536L59.9731 214.219L70.6576 213.248L76.0005 151.561L82.8002 213.248H93.8305L94.9414 151.081L91.0567 137.481L59.002 135.539Z" fill="#2F2E41"/>
<path d="M79.9147 140.106C72.1403 139.869 64.4952 138.054 57.4434 134.773L57.3234 134.712L56.348 111.298C56.0657 110.471 50.4941 94.1439 49.5511 88.9549C48.5954 83.698 62.4503 79.0835 64.133 78.5443L64.5141 74.3095L80.0417 72.6367L82.0095 78.0488L87.5797 80.138C88.2113 80.3749 88.7339 80.8353 89.0487 81.4318C89.3635 82.0284 89.4486 82.7197 89.2878 83.3748L86.1921 95.9635L93.7527 137.616L92.1251 137.686C88.2729 139.35 84.1104 140.175 79.9147 140.106Z" fill="#3F3D56"/>
<path d="M78.2442 68.5914C83.6614 65.6301 85.6523 58.8381 82.691 53.4209C79.7298 48.0037 72.9377 46.0128 67.5206 48.9741C62.1034 51.9354 60.1125 58.7274 63.0738 64.1446C66.035 69.5617 72.8271 71.5526 78.2442 68.5914Z" fill="#A0616A"/>
<path d="M63.8282 69.6063C64.3057 70.1214 64.9203 70.4894 65.5998 70.6671C66.2792 70.8449 66.9953 70.8249 67.6638 70.6096C68.3323 70.3944 68.9254 69.9927 69.3735 69.4519C69.8216 68.9111 70.1059 68.2536 70.1932 67.5567C70.2164 67.3163 70.2164 67.0743 70.1932 66.834C70.052 65.4605 69.2558 64.214 69.4464 62.7643C69.4895 62.4033 69.6241 62.0593 69.8374 61.7649C71.5313 59.4908 75.5205 62.7812 77.1227 60.7231C78.1108 59.4611 76.9505 57.4764 77.7043 56.0648C78.6924 54.2029 81.6469 55.1219 83.4919 54.1027C85.5486 52.9734 85.4258 49.8128 84.0721 47.8916C83.191 46.7577 82.0707 45.832 80.7909 45.1805C79.5112 44.5291 78.1035 44.1679 76.6682 44.1226C73.7945 44.0553 70.9403 44.6125 68.303 45.7559C65.1879 46.769 62.4391 48.675 60.398 51.2371C59.3421 52.9169 58.6729 54.8104 58.439 56.7807C58.2051 58.7509 58.4124 60.7485 59.0457 62.6288C60.1614 65.2488 61.7871 67.6206 63.8282 69.6063Z" fill="#2F2E41"/>
<path d="M142.46 225.189H0.786004C0.687355 225.189 0.592764 225.15 0.523009 225.08C0.453253 225.011 0.414062 224.916 0.414062 224.817C0.414062 224.719 0.453253 224.624 0.523009 224.554C0.592764 224.485 0.687355 224.445 0.786004 224.445H142.46C142.559 224.445 142.654 224.485 142.723 224.554C142.793 224.624 142.832 224.719 142.832 224.817C142.832 224.916 142.793 225.011 142.723 225.08C142.654 225.15 142.559 225.189 142.46 225.189Z" fill="#CACACA"/>
<path d="M125.73 58.739C125.402 58.7394 125.085 58.6153 124.845 58.3917L118.837 52.8117C118.586 52.5762 118.439 52.2511 118.428 51.9074C118.416 51.5637 118.541 51.2293 118.775 50.9774C119.009 50.7254 119.333 50.5763 119.677 50.5627C120.02 50.5491 120.355 50.672 120.609 50.9046L125.697 55.6321L135.766 45.5645C135.883 45.4282 136.027 45.3175 136.188 45.2394C136.35 45.1612 136.526 45.1173 136.705 45.1104C136.884 45.1034 137.063 45.1336 137.23 45.199C137.397 45.2644 137.549 45.3637 137.675 45.4906C137.802 45.6174 137.902 45.7691 137.967 45.9362C138.032 46.1032 138.063 46.282 138.056 46.4612C138.049 46.6405 138.005 46.8164 137.927 46.9779C137.849 47.1393 137.738 47.2829 137.602 47.3996L126.646 58.355C126.404 58.5994 126.074 58.7375 125.73 58.739Z" fill="white"/>
</svg>
