<svg xmlns="http://www.w3.org/2000/svg" id="pdf" width="63" height="63" viewBox="0 0 63 63">
    <defs>
        <style>
            .cls-1{fill:#0f1f54}.cls-3{fill:#bc8796}
        </style>
    </defs>
    <path id="Path_7837" d="M28.063 34.125a17.063 17.063 0 1 1 17.062-17.062 17.082 17.082 0 0 1-17.062 17.062zm0-31.5A14.438 14.438 0 1 0 42.5 17.063 14.453 14.453 0 0 0 28.063 2.625z" class="cls-1" data-name="Path 7837" transform="translate(17.875)"/>
    <path id="Path_7838" d="M20.563 17.126a1.327 1.327 0 0 1-.929-.383l-5.25-5.25a1.312 1.312 0 0 1 1.856-1.856l4.26 4.258 8.261-9.445a1.313 1.313 0 0 1 1.977 1.73l-9.188 10.5a1.31 1.31 0 0 1-.945.446z" class="cls-1" data-name="Path 7838" transform="translate(22.75 6.499)"/>
    <path id="Path_7839" fill="#6d547c" d="M45.938 63H6.563A6.572 6.572 0 0 1 0 56.438V6.563A6.572 6.572 0 0 1 6.563 0h18.375a1.313 1.313 0 0 1 0 2.625H6.563a3.942 3.942 0 0 0-3.938 3.938v49.875a3.942 3.942 0 0 0 3.938 3.938h39.375a3.942 3.942 0 0 0 3.938-3.937V40.688a1.313 1.313 0 0 1 2.625 0v15.75A6.572 6.572 0 0 1 45.938 63z" data-name="Path 7839"/>
    <path id="Path_7840" d="M4.313 30.75A1.313 1.313 0 0 1 3 29.437V16.312A1.313 1.313 0 0 1 4.313 15H8.25a5.25 5.25 0 1 1 0 10.5H5.625v3.938a1.313 1.313 0 0 1-1.312 1.312zm1.313-7.875H8.25a2.625 2.625 0 0 0 0-5.25H5.625z" class="cls-3" data-name="Path 7840" transform="translate(4.875 24.375)"/>
    <path id="Path_7841" d="M14.563 30.75h-5.25A1.313 1.313 0 0 1 8 29.437V16.312A1.313 1.313 0 0 1 9.313 15h5.25a3.942 3.942 0 0 1 3.937 3.938v7.875a3.942 3.942 0 0 1-3.937 3.937zm-3.938-2.625h3.938a1.313 1.313 0 0 0 1.313-1.312v-7.875a1.313 1.313 0 0 0-1.312-1.312h-3.939z" class="cls-3" data-name="Path 7841" transform="translate(13 24.375)"/>
    <path id="Path_7842" d="M14.313 30.75A1.313 1.313 0 0 1 13 29.437v-10.5A3.942 3.942 0 0 1 16.938 15h5.25a1.312 1.312 0 1 1 0 2.625h-5.25a1.313 1.313 0 0 0-1.312 1.313v10.5a1.313 1.313 0 0 1-1.313 1.312z" class="cls-3" data-name="Path 7842" transform="translate(21.125 24.375)"/>
    <path id="Path_7843" d="M22.188 20.625h-7.875a1.313 1.313 0 0 1 0-2.625h7.875a1.313 1.313 0 1 1 0 2.625z" class="cls-3" data-name="Path 7843" transform="translate(21.125 29.25)"/>
</svg>
