<svg xmlns="http://www.w3.org/2000/svg" id="register_1_" width="89.167" height="89.17" data-name="register (1)" viewBox="0 0 89.167 89.17">
    <defs>
        <style>
            .cls-1{fill:#132e74}.cls-2{fill:#6d547c}
        </style>
    </defs>
    <path id="Path_7844" d="M19.572 47.494h-2A5.58 5.58 0 0 1 12 41.921v-21a5.58 5.58 0 0 1 5.573-5.573h2a5.58 5.58 0 0 1 5.573 5.573v21a5.58 5.58 0 0 1-5.574 5.573zm-2-28.43a1.863 1.863 0 0 0-1.858 1.858v21a1.863 1.863 0 0 0 1.858 1.858h2a1.863 1.863 0 0 0 1.858-1.858v-21a1.863 1.863 0 0 0-1.858-1.858z" class="cls-1" data-name="Path 7844" transform="translate(32.585 41.676)"/>
    <path id="Path_7845" d="M38.652 56.585H35.4c-13.81 0-19.892-4.637-20.149-4.837a1.858 1.858 0 1 1 2.292-2.924c.041.033 5.469 4.046 17.856 4.046h3.255a5.234 5.234 0 0 0 5.179-4.388l2.077-12.439a5.249 5.249 0 0 0-5.176-6.116H30.073a1.861 1.861 0 0 1-1.546-2.891 12.138 12.138 0 0 0 1.464-6.078c-.007-3.816-1.59-5.242-2.59-5.242a1.165 1.165 0 0 0-.39.041c-.007.022-.416.554-.416 3.433 0 7.249-8.939 12.1-9.322 12.305a1.857 1.857 0 0 1-1.75-3.277c2.043-1.1 7.353-4.863 7.353-9.028 0-2.512 0-7.189 4.525-7.189 3.032 0 6.3 2.805 6.3 8.965a17.344 17.344 0 0 1-.8 5.25h7.825a8.969 8.969 0 0 1 8.843 10.44l-2.078 12.439a8.926 8.926 0 0 1-8.839 7.49z" class="cls-1" data-name="Path 7845" transform="translate(39.476 32.585)"/>
    <path id="Path_7846" d="M35.3 69.877H9.289A9.3 9.3 0 0 1 0 60.589v-48.3A9.3 9.3 0 0 1 9.289 3h7.431a1.858 1.858 0 0 1 0 3.715H9.289a5.58 5.58 0 0 0-5.573 5.573v48.3a5.58 5.58 0 0 0 5.573 5.573H35.3a1.858 1.858 0 0 1 0 3.715z" class="cls-2" data-name="Path 7846" transform="translate(0 8.146)"/>
    <path id="Path_7847" d="M31.866 22.292H9.573A5.58 5.58 0 0 1 4 16.719v-7.43a1.858 1.858 0 0 1 1.858-1.858h5.759a9.291 9.291 0 0 1 18.206 0h5.759a1.858 1.858 0 0 1 1.858 1.858v7.431a5.58 5.58 0 0 1-5.574 5.572zM7.715 11.146v5.573a1.863 1.863 0 0 0 1.858 1.858h22.293a1.863 1.863 0 0 0 1.858-1.858v-5.573H28.15a1.858 1.858 0 0 1-1.858-1.858 5.573 5.573 0 1 0-11.146 0 1.858 1.858 0 0 1-1.858 1.858z" class="cls-2" data-name="Path 7847" transform="translate(10.862)"/>
    <path id="Path_7848" d="M42.012 11.715H4.858a1.858 1.858 0 1 1 0-3.715h37.154a1.858 1.858 0 1 1 0 3.715z" class="cls-2" data-name="Path 7848" transform="translate(8.146 21.723)"/>
    <path id="Path_7849" d="M42.012 14.715H4.858a1.858 1.858 0 1 1 0-3.715h37.154a1.858 1.858 0 1 1 0 3.715z" class="cls-2" data-name="Path 7849" transform="translate(8.146 29.87)"/>
    <path id="Path_7850" d="M27.15 17.715H4.858a1.858 1.858 0 1 1 0-3.715H27.15a1.858 1.858 0 0 1 0 3.715z" class="cls-2" data-name="Path 7850" transform="translate(8.146 38.016)"/>
    <path id="Path_7851" d="M28.719 29.008a1.858 1.858 0 0 1-1.858-1.858V12.289a5.58 5.58 0 0 0-5.573-5.573h-7.43a1.858 1.858 0 1 1 0-3.715h7.431a9.3 9.3 0 0 1 9.289 9.289v14.86a1.858 1.858 0 0 1-1.859 1.858z" class="cls-2" data-name="Path 7851" transform="translate(32.585 8.146)"/>
</svg>
