<svg xmlns="http://www.w3.org/2000/svg" xmlns:xlink="http://www.w3.org/1999/xlink" width="54" height="54" viewBox="0 0 54 54">
  <defs>
    <filter id="Ellipse_1289" x="0" y="0" width="54" height="54" filterUnits="userSpaceOnUse">
      <feOffset input="SourceAlpha"/>
      <feGaussianBlur stdDeviation="3" result="blur"/>
      <feFlood flood-opacity="0.161"/>
      <feComposite operator="in" in2="blur"/>
      <feComposite in="SourceGraphic"/>
    </filter>
  </defs>
  <g id="Component_40_60" data-name="Component 40 – 60" transform="translate(9 9)">
    <g transform="matrix(1, 0, 0, 1, -9, -9)" filter="url(#Ellipse_1289)">
      <circle id="Ellipse_1289-2" data-name="Ellipse 1289" cx="18" cy="18" r="18" transform="translate(9 9)" fill="#fff"/>
    </g>
    <g id="maps_home_work_black_24dp" transform="translate(6 6)">
      <g id="Group_11601" data-name="Group 11601">
        <path id="Path_9180" data-name="Path 9180" d="M0,0H24V24H0Z" fill="none"/>
      </g>
      <g id="Group_11603" data-name="Group 11603">
        <g id="Group_11602" data-name="Group 11602">
          <path id="Path_9181" data-name="Path 9181" d="M1,11V21H6V15h4v6h5V11L8,6Z" fill="#0f1f54"/>
          <path id="Path_9182" data-name="Path 9182" d="M10,3V4.97l7,5V11h4.223v2H17v2h4.223v2H17v4h6V3ZM21.223,9H17V7h4.223Z" fill="#0f1f54"/>
        </g>
      </g>
      <g id="Path_9301" data-name="Path 9301" transform="translate(3 7)" fill="#fff">
        <path d="M 11.10741806030273 13.20312213897705 L 7.896487712860107 13.20312213897705 L 7.896487712860107 7.629762649536133 L 7.896487712860107 7.129762649536133 L 7.396487712860107 7.129762649536133 L 2.636717557907104 7.129762649536133 L 2.136717557907104 7.129762649536133 L 2.136717557907104 7.629762649536133 L 2.136717557907104 13.20312213897705 L -1.094722390174866 13.20312213897705 L -1.094722390174866 4.448987007141113 L 5.000257968902588 0.5915650129318237 L 11.10741806030273 4.44926643371582 L 11.10741806030273 13.20312213897705 Z" stroke="none"/>
        <path d="M 5.000513076782227 1.183120727539062 L -0.5947227478027344 4.724261283874512 L -0.5947227478027344 12.70312213897705 L 1.636717796325684 12.70312213897705 L 1.636717796325684 7.629762649536133 L 1.636717796325684 6.629762649536133 L 2.636717796325684 6.629762649536133 L 7.396487712860107 6.629762649536133 L 8.396488189697266 6.629762649536133 L 8.396488189697266 7.629762649536133 L 8.396488189697266 12.70312213897705 L 10.60741806030273 12.70312213897705 L 10.60741806030273 4.724826812744141 L 5.000513076782227 1.183120727539062 M 4.999997615814209 2.86102294921875e-06 L 11.60741806030273 4.173702239990234 L 11.60741806030273 13.70312213897705 L 7.396487712860107 13.70312213897705 L 7.396487712860107 7.629762649536133 L 2.636717796325684 7.629762649536133 L 2.636717796325684 13.70312213897705 L -1.594722747802734 13.70312213897705 L -1.594722747802734 4.173702239990234 L 4.999997615814209 2.86102294921875e-06 Z" stroke="none" fill="#fff"/>
      </g>
    </g>
  </g>
</svg>
