<svg xmlns="http://www.w3.org/2000/svg" width="18" height="19.2" viewBox="0 0 18 19.2">
    <defs>
        <style>
            .cls-1{fill:#6d547c}
        </style>
    </defs>
    <g id="multimedia-option_2_" data-name="multimedia-option (2)" transform="translate(-16)">
        <g id="Group_5274" data-name="Group 5274" transform="translate(20.2)">
            <g id="Group_5273" data-name="Group 5273">
                <path id="Path_6070" d="M128.052 8.752a.6.6 0 0 1 .548-.352h2.4V.6a.6.6 0 0 1 .6-.6h2.4a.6.6 0 0 1 .6.6v7.8h2.4a.6.6 0 0 1 .451.995l-4.2 4.8a.6.6 0 0 1-.9 0l-4.2-4.8a.6.6 0 0 1-.099-.643z" class="cls-1" data-name="Path 6070" transform="translate(-127.998)"/>
            </g>
        </g>
        <g id="Group_5276" data-name="Group 5276" transform="translate(16 13.2)">
            <g id="Group_5275" data-name="Group 5275">
                <path id="Path_6071" d="M18.4 352v3.6h13.2V352H34v4.8a1.2 1.2 0 0 1-1.2 1.2H17.2a1.2 1.2 0 0 1-1.2-1.2V352z" class="cls-1" data-name="Path 6071" transform="translate(-16 -352)"/>
            </g>
        </g>
    </g>
</svg>
