<svg width="24" height="24" viewBox="0 0 24 24" fill="none" xmlns="http://www.w3.org/2000/svg">
<path d="M15.5004 14.0004H14.7104L14.4304 13.7304C15.527 12.4528 16.0859 10.8 15.9899 9.11908C15.8938 7.43815 15.1502 5.8598 13.9153 4.71541C12.6803 3.57103 11.05 2.94962 9.36661 2.98165C7.68324 3.01368 6.07775 3.69666 4.8872 4.8872C3.69666 6.07775 3.01368 7.68324 2.98165 9.36661C2.94962 11.05 3.57103 12.6803 4.71541 13.9153C5.8598 15.1502 7.43815 15.8938 9.11908 15.9899C10.8 16.0859 12.4528 15.527 13.7304 14.4304L14.0004 14.7104V15.5004L19.0004 20.4904L20.4904 19.0004L15.5004 14.0004ZM9.50041 14.0004C8.61039 14.0004 7.74037 13.7365 7.00034 13.242C6.26032 12.7476 5.68355 12.0448 5.34295 11.2225C5.00236 10.4002 4.91324 9.49542 5.08688 8.6225C5.26051 7.74959 5.68909 6.94777 6.31843 6.31843C6.94777 5.68909 7.74959 5.26051 8.6225 5.08688C9.49542 4.91324 10.4002 5.00236 11.2225 5.34295C12.0448 5.68355 12.7476 6.26032 13.242 7.00034C13.7365 7.74037 14.0004 8.61039 14.0004 9.50041C14.0012 10.0916 13.8853 10.6771 13.6595 11.2234C13.4336 11.7697 13.1022 12.2661 12.6842 12.6842C12.2661 13.1022 11.7697 13.4336 11.2234 13.6595C10.6771 13.8853 10.0916 14.0012 9.50041 14.0004Z" fill="#AFAEAE"/>
</svg>
