<svg xmlns="http://www.w3.org/2000/svg" width="19.121" height="19.121" viewBox="0 0 19.121 19.121">
  <path id="Icon_ionic-md-settings" data-name="Icon ionic-md-settings" d="M20.2,13.891a5.979,5.979,0,0,0,.049-.956c0-.335-.049-.621-.049-.956L22.249,10.4a.439.439,0,0,0,.1-.621l-1.956-3.3a.476.476,0,0,0-.587-.191l-2.445.956A7.116,7.116,0,0,0,15.7,6.291l-.342-2.533a.524.524,0,0,0-.489-.382H10.955a.524.524,0,0,0-.489.382l-.391,2.533a8.279,8.279,0,0,0-1.663.956L5.968,6.291a.458.458,0,0,0-.587.191l-1.956,3.3a.577.577,0,0,0,.1.621l2.1,1.577c0,.335-.049.621-.049.956s.049.621.049.956L3.573,15.469a.439.439,0,0,0-.1.621l1.956,3.3a.476.476,0,0,0,.587.191l2.445-.956a7.115,7.115,0,0,0,1.662.956l.391,2.533A.474.474,0,0,0,11,22.5h3.911a.524.524,0,0,0,.489-.382L15.8,19.58a8.275,8.275,0,0,0,1.662-.956l2.445.956a.458.458,0,0,0,.587-.191l1.956-3.3a.576.576,0,0,0-.1-.621Zm-7.285,2.39a3.347,3.347,0,1,1,3.422-3.346A3.364,3.364,0,0,1,12.911,16.281Z" transform="translate(-3.375 -3.375)" fill="#20254e"/>
</svg>
