<svg xmlns="http://www.w3.org/2000/svg" id="prefix__share" width="20.881" height="22.779" viewBox="0 0 20.881 22.779">
    <defs>
        <style>
            .prefix__cls-1{fill:#333}
        </style>
    </defs>
    <path id="prefix__Path_7381" d="M312.891 7.118a3.559 3.559 0 1 1 3.559-3.559 3.564 3.564 0 0 1-3.559 3.559zm0-5.695a2.136 2.136 0 1 0 2.136 2.136 2.138 2.138 0 0 0-2.136-2.135zm0 0" class="prefix__cls-1" data-name="Path 7381" transform="translate(-295.57)"/>
    <path id="prefix__Path_7382" d="M312.891 359.118a3.559 3.559 0 1 1 3.559-3.559 3.564 3.564 0 0 1-3.559 3.559zm0-5.695a2.136 2.136 0 1 0 2.136 2.136 2.138 2.138 0 0 0-2.136-2.135zm0 0" class="prefix__cls-1" data-name="Path 7382" transform="translate(-295.57 -336.339)"/>
    <path id="prefix__Path_7383" d="M3.559 183.118a3.559 3.559 0 1 1 3.559-3.559 3.564 3.564 0 0 1-3.559 3.559zm0-5.695a2.136 2.136 0 1 0 2.136 2.136 2.138 2.138 0 0 0-2.136-2.135zm0 0" class="prefix__cls-1" data-name="Path 7383" transform="translate(0 -168.17)"/>
    <path id="prefix__Path_7384" d="M120.4 102a.711.711 0 0 1-.353-1.33l8.807-5.021a.712.712 0 0 1 .7 1.237l-8.807 5.021a.713.713 0 0 1-.347.093zm0 0" class="prefix__cls-1" data-name="Path 7384" transform="translate(-114.364 -91.307)"/>
    <path id="prefix__Path_7385" d="M129.228 277.993a.706.706 0 0 1-.351-.094l-8.807-5.021a.712.712 0 0 1 .7-1.237l8.807 5.021a.712.712 0 0 1-.353 1.331zm0 0" class="prefix__cls-1" data-name="Path 7385" transform="translate(-114.385 -259.466)"/>
</svg>
