<svg xmlns="http://www.w3.org/2000/svg" id="prefix__telephone" width="23" height="23" viewBox="0 0 23 23">
    <defs>
        <style>
            .prefix__cls-1{fill:#fff}
        </style>
    </defs>
    <path id="prefix__Path_7354" d="M340.511 287a1.011 1.011 0 1 0 1.011 1.011 1.012 1.012 0 0 0-1.011-1.011zm0 1.348a.337.337 0 1 1 .337-.337.337.337 0 0 1-.337.337z" class="prefix__cls-1" data-name="Path 7354" transform="translate(-324.249 -274.107)"/>
    <path id="prefix__Path_7355" d="M280.511 287a1.011 1.011 0 1 0 1.011 1.011 1.012 1.012 0 0 0-1.011-1.011zm0 1.348a.337.337 0 1 1 .337-.337.337.337 0 0 1-.337.337z" class="prefix__cls-1" data-name="Path 7355" transform="translate(-266.944 -274.107)"/>
    <path id="prefix__Path_7356" d="M340.511 347a1.011 1.011 0 1 0 1.011 1.011 1.012 1.012 0 0 0-1.011-1.011zm0 1.348a.337.337 0 1 1 .337-.337.337.337 0 0 1-.337.337z" class="prefix__cls-1" data-name="Path 7356" transform="translate(-324.249 -331.412)"/>
    <path id="prefix__Path_7357" d="M280.511 347a1.011 1.011 0 1 0 1.011 1.011 1.012 1.012 0 0 0-1.011-1.011zm0 1.348a.337.337 0 1 1 .337-.337.337.337 0 0 1-.337.337z" class="prefix__cls-1" data-name="Path 7357" transform="translate(-266.944 -331.412)"/>
    <path id="prefix__Path_7358" d="M400.511 347a1.011 1.011 0 1 0 1.011 1.011 1.012 1.012 0 0 0-1.011-1.011zm0 1.348a.337.337 0 1 1 .337-.337.337.337 0 0 1-.337.337z" class="prefix__cls-1" data-name="Path 7358" transform="translate(-381.554 -331.412)"/>
    <path id="prefix__Path_7359" d="M340.511 407a1.011 1.011 0 1 0 1.011 1.011 1.012 1.012 0 0 0-1.011-1.011zm0 1.348a.337.337 0 1 1 .337-.337.337.337 0 0 1-.337.337z" class="prefix__cls-1" data-name="Path 7359" transform="translate(-324.249 -388.717)"/>
    <path id="prefix__Path_7360" d="M280.511 407a1.011 1.011 0 1 0 1.011 1.011 1.012 1.012 0 0 0-1.011-1.011zm0 1.348a.337.337 0 1 1 .337-.337.337.337 0 0 1-.337.337z" class="prefix__cls-1" data-name="Path 7360" transform="translate(-266.944 -388.717)"/>
    <path id="prefix__Path_7361" d="M400.511 407a1.011 1.011 0 1 0 1.011 1.011 1.012 1.012 0 0 0-1.011-1.011zm0 1.348a.337.337 0 1 1 .337-.337.337.337 0 0 1-.337.337z" class="prefix__cls-1" data-name="Path 7361" transform="translate(-381.554 -388.717)"/>
    <path id="prefix__Path_7362" d="M400.511 287a1.011 1.011 0 1 0 1.011 1.011 1.012 1.012 0 0 0-1.011-1.011zm0 1.348a.337.337 0 1 1 .337-.337.337.337 0 0 1-.337.337z" class="prefix__cls-1" data-name="Path 7362" transform="translate(-381.554 -274.107)"/>
    <path id="prefix__Path_7363" d="M252.781 37.839v-7.5a.337.337 0 0 0-.337-.337h-10.107a.337.337 0 0 0-.337.337v7.5a.337.337 0 0 0 .337.337h10.107a.337.337 0 0 0 .337-.337zm-.674-7.165v4.806h-9.434v-4.806zm-9.433 6.826v-1.346h9.434V37.5z" class="prefix__cls-1" data-name="Path 7363" transform="translate(-231.129 -28.652)"/>
    <path id="prefix__Path_7364" d="M21.316 0H11.208a1.687 1.687 0 0 0-1.651 1.348h-.741A1.687 1.687 0 0 0 7.165 0H3.032a1.687 1.687 0 0 0-1.65 1.348H.337A.337.337 0 0 0 0 1.685v19.631a.337.337 0 0 0 .337.337h1.045A1.687 1.687 0 0 0 3.032 23h4.133a1.687 1.687 0 0 0 1.651-1.348h.742A1.687 1.687 0 0 0 11.208 23h10.107A1.686 1.686 0 0 0 23 21.316V1.685A1.686 1.686 0 0 0 21.316 0zM.674 2.021h.674v18.958H.674zm7.5 19.294a1.012 1.012 0 0 1-1.011 1.011H3.032a1.012 1.012 0 0 1-1.011-1.011V1.685A1.012 1.012 0 0 1 3.032.674h4.133a1.012 1.012 0 0 1 1.011 1.011zm1.348-.337H8.85V2.021h.674zm11.792 1.348H11.208a1.012 1.012 0 0 1-1.008-1.01V10.871h1.011a.337.337 0 1 0 0-.674H10.2V1.685A1.012 1.012 0 0 1 11.208.674h10.108a1.012 1.012 0 0 1 1.011 1.011V10.2h-9.771a.337.337 0 0 0 0 .674h9.771v10.442a1.012 1.012 0 0 1-1.011 1.01z" class="prefix__cls-1" data-name="Path 7364"/>
</svg>
