<svg width="19" height="19" viewBox="0 0 19 19" fill="none" xmlns="http://www.w3.org/2000/svg">
<path d="M1.50003 15.998H10.5C10.8801 15.9981 11.2459 16.1425 11.5236 16.4019C11.8013 16.6614 11.9702 17.0166 11.9961 17.3958C12.022 17.7749 11.903 18.1498 11.6632 18.4446C11.4233 18.7394 11.0805 18.9322 10.704 18.984L10.5 18.998H1.50003C1.11998 18.9979 0.754149 18.8535 0.476447 18.5941C0.198746 18.3346 0.029883 17.9794 0.00397905 17.6002C-0.0219249 17.2211 0.0970613 16.8462 0.336896 16.5514C0.57673 16.2566 0.919531 16.0638 1.29603 16.012L1.50003 15.998ZM4.44003 4.438C4.69426 4.18426 5.0311 4.03018 5.38931 4.00375C5.74752 3.97733 6.10332 4.08032 6.39203 4.294L6.56003 4.44L13.56 11.44C13.8259 11.708 13.981 12.0664 13.9943 12.4437C14.0076 12.821 13.8781 13.1895 13.6317 13.4755C13.3853 13.7615 13.0401 13.9441 12.665 13.9869C12.2899 14.0296 11.9124 13.9293 11.608 13.706L11.44 13.56L4.44003 6.56C4.15913 6.27875 4.00135 5.8975 4.00135 5.5C4.00135 5.1025 4.15913 4.71925 4.44003 4.438ZM17.5 0C17.8625 1.52858e-05 18.2127 0.131285 18.4859 0.369534C18.7591 0.607783 18.9367 0.936893 18.986 1.296L19 1.5V10.5C18.9999 10.88 18.8555 11.2459 18.5961 11.5236C18.3366 11.8013 17.9814 11.9701 17.6023 11.9961C17.2231 12.022 16.8482 11.903 16.5534 11.6631C16.2586 11.4233 16.0658 11.0805 16.014 10.704L16 10.5V1.5C16 1.10218 16.1581 0.720644 16.4394 0.43934C16.7207 0.158035 17.1022 0 17.5 0Z" fill="#F36D21"/>
</svg>
