<svg xmlns="http://www.w3.org/2000/svg" width="438.773" height="325.556" viewBox="0 0 438.773 325.556">
    <defs>
        <style>
            .cls-1{fill:#f5f5f5}.cls-2{fill:#ebebeb}.cls-3{fill:#e0e0e0}.cls-4,.cls-8{fill:#fff}.cls-6{fill:#263238}.cls-7{fill:#e8505b}.cls-8{opacity:.5}.cls-9{fill:#bc8796}.cls-10{fill:#455a64}
        </style>
    </defs>
    <g id="Group_5817" data-name="Group 5817" transform="translate(-487.999 -251.087)">
        <g id="Group_5590" data-name="Group 5590" transform="translate(807.094 267.875)">
            <g id="Group_5579" data-name="Group 5579" transform="translate(33.23 235.649)">
                <path id="Path_6318" d="M393.576 376.636v19.837h61.006v-19.837z" class="cls-1" data-name="Path 6318" transform="translate(-391.016 -371.09)"/>
                <path id="Path_6319" d="M390.9 370.836v5.546h65.7v-5.546h-65.7z" class="cls-2" data-name="Path 6319" transform="translate(-390.899 -370.836)"/>
                <path id="Path_6320" d="M425.193 396.219h30.717v-19.837h2.135v-5.546h-34.131v5.033z" class="cls-3" data-name="Path 6320" transform="translate(-392.344 -370.836)"/>
                <path id="Rectangle_2715" d="M0 0H12.373V2.985H0z" class="cls-3" data-name="Rectangle 2715" transform="translate(11.091 8.746)"/>
                <path id="Rectangle_2716" d="M0 0H15.886V6.305H0z" class="cls-3" data-name="Rectangle 2716" transform="translate(9.5 15.466)"/>
            </g>
            <g id="Group_5580" data-name="Group 5580">
                <path id="Path_6321" d="M466.337 433.163L464.881 124.4H458.9v60.8h-15.439l-.287-60.807H437.2V185.2h-53.126l-.287-60.807h-5.978V185.2h-15.4l-.288-60.807h-5.977v308.77h7.436l-.2-41.439h14.424v41.439h7.435l-.2-41.439H437.2v41.439h7.436l-.2-41.439H458.9v41.439zm-96.131-82.353l-5.341-22.887h10.967zm7.6-21.485v54.061l-6.471-27.726zm0-78.585l-6.471-27.727 6.471-26.333zm-1.158 4.966H363.3l6.846-27.856zm-6.445-37.542l-6.117-26.214h12.559zM369.019 223l-6.307 25.663-.252-53.773zM363.1 330.274l5.922 25.373-5.693 23.165zm7.052 30.223l5.713 24.48h-11.732zm-6.858-39.32l-.05-.21-.187.043-.276-58.557h15.032v58.724zm21.149-58.724H437.2v58.724h-52.484zm66.388-34.6l6.5 27.857h-13.35zm-7.074 19.325l-.239-50.652L449.7 223zm15.15 5.356l-6.889-29.517 6.889-28.035zm0 3.079v.1h-.418zm0 75.321V381.7l-6.077-26.039zm-7.209 19.881l-5.341-22.887h10.966zm-.812-132.647l-6.119-26.213h12.559zm8.021 44.29v58.724H444.78l-.05-.21-.625.145-.278-58.659zm-8.4 93.194l-6.124 24.918-.245-52.211zm1.13 4.85l5.713 24.48h-11.727zM437.2 191.951v63.756h-52.79l-.3-63.756zm-51.23 193.026h-.953l-.271-57.053H437.2v57.053z" class="cls-2" data-name="Path 6321" transform="translate(-356.147 -124.396)"/>
            </g>
            <g id="Group_5581" data-name="Group 5581" transform="translate(29.816 124.648)">
                <path id="Path_6322" d="M387.329 261.721v-6.969h49.219l.156 6.969z" class="cls-3" data-name="Path 6322" transform="translate(-387.329 -254.752)"/>
                <path id="Path_6323" d="M436.666 255.941s-43.653.321-46.479.988c-.608.143-1.226 2.823 0 3.069s46.479.613 46.479.613z" class="cls-4" data-name="Path 6323" transform="translate(-387.423 -254.804)"/>
            </g>
            <g id="Group_5582" data-name="Group 5582" transform="translate(35.534 117.404)">
                <path id="Path_6324" d="M393.309 254.145v-6.969H432.3l.124 6.969z" class="cls-2" data-name="Path 6324" transform="translate(-393.309 -247.176)"/>
                <path id="Path_6325" d="M432.392 248.366s-34.58.321-36.818.986c-.483.144-.973 2.824 0 3.069s36.818.615 36.818.615z" class="cls-4" data-name="Path 6325" transform="translate(-393.383 -247.228)"/>
            </g>
            <g id="Group_5583" data-name="Group 5583" transform="translate(35.361 110.521)">
                <path id="Path_6326" d="M393.127 246.945v-6.967h38.988l.124 6.967z" class="cls-3" data-name="Path 6326" transform="translate(-393.127 -239.977)"/>
                <path id="Path_6327" d="M432.209 241.167s-34.579.32-36.817.986c-.483.143-.973 2.824 0 3.068s36.817.614 36.817.614z" class="cls-4" data-name="Path 6327" transform="translate(-393.202 -240.03)"/>
            </g>
            <g id="Group_5584" data-name="Group 5584" transform="translate(71.174 14.669)">
                <path id="Rectangle_2717" d="M0 0H9.875V46.024H0z" class="cls-3" data-name="Rectangle 2717"/>
                <path id="Path_6328" d="M437.819 176.23a1.955 1.955 0 1 1-1.956-1.956 1.956 1.956 0 0 1 1.956 1.956z" class="cls-4" data-name="Path 6328" transform="translate(-430.726 -141.249)"/>
                <path id="Rectangle_2718" d="M0 0H3.021V18.81H0z" class="cls-4" data-name="Rectangle 2718" transform="translate(3.542 12.193)"/>
            </g>
            <g id="Group_5585" data-name="Group 5585" transform="translate(61.143 14.669)">
                <path id="Rectangle_2719" d="M0 0H9.875V46.024H0z" class="cls-2" data-name="Rectangle 2719"/>
                <circle id="Ellipse_1200" cx="1.956" cy="1.956" r="1.956" class="cls-4" data-name="Ellipse 1200" transform="translate(3.18 33.026)"/>
                <path id="Rectangle_2720" d="M0 0H3.022V18.81H0z" class="cls-4" data-name="Rectangle 2720" transform="translate(3.541 12.193)"/>
            </g>
            <g id="Group_5586" data-name="Group 5586" transform="translate(51.591 14.669)">
                <path id="Rectangle_2721" d="M0 0H9.875V46.024H0z" class="cls-1" data-name="Rectangle 2721"/>
                <path id="Path_6329" d="M417.339 176.23a1.956 1.956 0 1 1-1.956-1.956 1.956 1.956 0 0 1 1.956 1.956z" class="cls-4" data-name="Path 6329" transform="translate(-410.246 -141.249)"/>
                <path id="Rectangle_2722" d="M0 0H3.021V18.81H0z" class="cls-4" data-name="Rectangle 2722" transform="translate(3.541 12.193)"/>
            </g>
            <g id="Group_5587" data-name="Group 5587" transform="translate(71.174 150.879)">
                <path id="Rectangle_2723" d="M0 0H9.875V46.024H0z" class="cls-3" data-name="Rectangle 2723"/>
                <path id="Path_6330" d="M437.819 318.677a1.955 1.955 0 1 1-1.956-1.955 1.956 1.956 0 0 1 1.956 1.955z" class="cls-4" data-name="Path 6330" transform="translate(-430.726 -283.696)"/>
                <path id="Rectangle_2724" d="M0 0H3.021V18.81H0z" class="cls-4" data-name="Rectangle 2724" transform="translate(3.542 12.194)"/>
            </g>
            <g id="Group_5588" data-name="Group 5588" transform="translate(61.143 150.879)">
                <path id="Rectangle_2725" d="M0 0H9.875V46.024H0z" class="cls-2" data-name="Rectangle 2725"/>
                <path id="Path_6331" d="M427.328 318.677a1.956 1.956 0 1 1-1.956-1.955 1.956 1.956 0 0 1 1.956 1.955z" class="cls-4" data-name="Path 6331" transform="translate(-420.235 -283.696)"/>
                <path id="Rectangle_2726" d="M0 0H3.022V18.81H0z" class="cls-4" data-name="Rectangle 2726" transform="translate(3.541 12.194)"/>
            </g>
            <g id="Group_5589" data-name="Group 5589" transform="translate(51.591 150.879)">
                <path id="Rectangle_2727" d="M0 0H9.875V46.024H0z" class="cls-1" data-name="Rectangle 2727"/>
                <path id="Path_6332" d="M417.339 318.677a1.956 1.956 0 1 1-1.956-1.955 1.956 1.956 0 0 1 1.956 1.955z" class="cls-4" data-name="Path 6332" transform="translate(-410.246 -283.696)"/>
                <path id="Rectangle_2728" d="M0 0H3.021V18.81H0z" class="cls-4" data-name="Rectangle 2728" transform="translate(3.541 12.194)"/>
            </g>
            <path id="Path_6333" d="M397.128 185.2l11.865-40.487-4.091-1.8-12.17 40.815z" class="cls-3" data-name="Path 6333" transform="translate(-357.749 -125.207)"/>
        </g>
        <g id="Group_5600" data-name="Group 5600" transform="translate(593.681 519.745)">
            <path id="Path_6338" d="M146.322 436.719c-1.132-.967-3.658-4.029-1.71-7.59.714-1.305 2.23-1.952 3.6-2.527a14.625 14.625 0 0 0 3.95-2.038c2.143-1.813 2.734-4.827 4.156-7.247a9.107 9.107 0 0 1 7.9-4.713c3.686.166 6.76 3.163 8.155 6.581s1.442 7.211 1.471 10.9c.016 2.041-.075 4.34-1.58 5.718-1.387 1.271-3.477 1.286-5.358 1.229l-20.144-.616" class="cls-1" data-name="Path 6338" transform="translate(-133.441 -388.885)"/>
            <path id="Path_6339" d="M181.128 387.8h-48.166l8.677 51.5a5.76 5.76 0 0 0 4.112 4.585c.056.018.114.03.169.046.143.036.282.085.428.11a5.9 5.9 0 0 0 .98.112l.008.05.235-.037h21.468a6.062 6.062 0 0 0 1.179-.117 5.784 5.784 0 0 0 4.873-5.034l4.183-35.482.188-1.411h-.023l1.657-14.052zm-9.087 32.849H167.1l.5-14.946h5.727zM173.8 405.7h4.732l-1.761 14.946h-4.253zm-14.121 31.514l-.3-12.984h7.121l-.433 12.984zm-7.7-12.984h6.921l.3 12.984H153zm.535 12.984h-5.8l-2.044-12.984h6.829zm-.815-16.568l-1.158-14.946h7.935l.345 14.946zm7.591 0l-.345-14.946h8.165l-.5 14.946zm-.428-18.53l-.32-13.84h9.15l-.462 13.84zm-.478 0h-8.132l-1.081-13.84h8.892zm-8.611 0h-8.6c-.3-1.911-.593-3.721-.854-5.348-.9-5.6-1.234-7.7-1.422-8.492h9.8zm.279 3.585l1.168 14.946h-7.115l-.724-4.586c-.558-3.527-1.117-7.054-1.642-10.36zm-6.431 14.946h-4.648l-2.51-14.947h4.8c.737 4.622 1.548 9.762 2.367 14.948zm.565 3.584c.709 4.494 1.406 8.923 2.044 12.984h-4.466l-2.188-12.984zm22.351 12.984l.434-12.984h4.754l-1.114 12.984zm1.172-35.1l.462-13.84h6.641l-1.189 13.84zm-29.272-13.84c.191 1 1.07 6.447 2.248 13.84h-4.835l-2.332-13.84zm36.376 48.939H171.1l1.114-12.984h4.139zm4.137-35.1h-4.847l1.189-13.84h5.29z" class="cls-2" data-name="Path 6339" transform="translate(-132.962 -387.799)"/>
        </g>
        <g id="Group_5619" data-name="Group 5619" transform="translate(497.664 443.473)">
            <g id="Group_5601" data-name="Group 5601" transform="translate(.001 40.571)">
                <path id="Path_6340" d="M35.566 359.636c.847.143 1.8.36 2.878.464 1.072.141 2.245.288 3.515.342 1.265.118 2.623.1 4.049.115a57.2 57.2 0 0 0 9.224-.943 57.169 57.169 0 0 0 8.909-2.559c1.318-.545 2.586-1.034 3.716-1.612 1.158-.524 2.193-1.1 3.134-1.627.96-.5 1.766-1.054 2.5-1.5s1.345-.865 1.836-1.22c.377-.264.669-.465.917-.631H32.549v8.528c.246.054.53.119.86.2.586.141 1.307.307 2.157.443z" class="cls-1" data-name="Path 6340" transform="translate(-32.549 -350.463)"/>
                <path id="Path_6341" d="M62.344 443.325a32.189 32.189 0 0 0-9.314 1.206 24 24 0 0 0-5.307 2.275h35.762c-3.046-.61-6.277-1.372-9.669-2.064a61.165 61.165 0 0 0-11.472-1.417z" class="cls-1" data-name="Path 6341" transform="translate(-33.213 -354.529)"/>
                <path id="Path_6342" d="M105.688 437.145c-4.057-.638-8.958-.157-14.38.346a62.368 62.368 0 0 1-8.572.236c-2.975-.123-6.037-.451-9.159-.834-6.236-.782-12.184-1.575-17.607-1.337a38.465 38.465 0 0 0-13.956 3.112 39.562 39.562 0 0 0-8.364 4.894c-.416.316-.779.6-1.1.863v2.037h14.044a21.884 21.884 0 0 1 5.647-2.682 31.484 31.484 0 0 1 9.441-1.353 59.14 59.14 0 0 1 11.589 1.38c4.051.827 7.865 1.779 11.367 2.446.4.078.785.139 1.178.209h28.463V440.3a20.289 20.289 0 0 0-8.591-3.155z" class="cls-1" data-name="Path 6342" transform="translate(-32.549 -354.187)"/>
                <path id="Path_6343" d="M41.844 437.775a38.2 38.2 0 0 1 14.1-3.278c5.487-.271 11.476.513 17.7 1.294 3.117.382 6.162.711 9.111.841a62.958 62.958 0 0 0 8.5-.2c5.406-.47 10.369-.916 14.49-.214a20.164 20.164 0 0 1 8.526 3.274v-10.8a26.291 26.291 0 0 0-7.271-1.016c-8.129-.273-18.924 4.151-31.486 3.844a75.683 75.683 0 0 1-17.4-2.109c-5.258-1.259-9.773-3.067-13.691-4.1A31.1 31.1 0 0 0 34.978 424a23.594 23.594 0 0 0-2.429.229v19.447c.285-.248.6-.513.956-.8a37.428 37.428 0 0 1 8.339-5.101z" class="cls-1" data-name="Path 6343" transform="translate(-32.549 -353.682)"/>
                <path id="Path_6344" d="M35.692 384.912c2.178.19 5.169 1.267 8.674 2.851a49.688 49.688 0 0 0 5.845 2.251 38.1 38.1 0 0 0 7.046 1.307 61.678 61.678 0 0 0 16.409-1.021c5.77-1.023 11.184-2.464 16.168-3.539a96.323 96.323 0 0 1 13.382-2.128 47.442 47.442 0 0 1 9.137.153c.776.084 1.418.191 1.926.288v-14.4l-.848-.68a55.033 55.033 0 0 0-5.622-4.069 19.445 19.445 0 0 0-9.569-3.181c-3.854-.125-7.946 1.377-11.945 3.331a96.487 96.487 0 0 0-10.974 6.209c-1.59 1.074-3.283 2.024-3.951 3.528a1.959 1.959 0 0 0 .288 2.1 5.3 5.3 0 0 0 1.812 1.241 18.323 18.323 0 0 0 6.629 1.773c1.633.114 2.544.018 2.547.073a2.645 2.645 0 0 1-.656.107 15.325 15.325 0 0 1-1.9.054 17.6 17.6 0 0 1-6.8-1.621 5.672 5.672 0 0 1-1.984-1.327 2.442 2.442 0 0 1-.394-2.589c.775-1.755 2.54-2.708 4.105-3.8a91.833 91.833 0 0 1 11.019-6.289c4.024-1.965 8.221-3.5 12.222-3.344a19.579 19.579 0 0 1 9.778 3.375 46.892 46.892 0 0 1 5.547 4.25c.26.229.49.434.7.622v-11.919a33.9 33.9 0 0 0-4.573-2.094 34.245 34.245 0 0 0-14.56-1.966 30.724 30.724 0 0 0-8.475 1.969A60.292 60.292 0 0 0 78.3 360.7a55.182 55.182 0 0 1-8.5 4.241 31.966 31.966 0 0 1-8.7 1.7c-5.65.327-10.7-.241-14.936-.309a44.938 44.938 0 0 0-9.978.674c-.578.126-1.1.217-1.538.331l-1.107.322a5.79 5.79 0 0 1-.928.231 5.7 5.7 0 0 1 .89-.347l1.1-.379c.439-.133.957-.243 1.536-.389a42.262 42.262 0 0 1 10.035-.869c4.254.014 9.314.535 14.891.181a31.726 31.726 0 0 0 8.534-1.7A55.511 55.511 0 0 0 78 360.18a59.892 59.892 0 0 1 8.462-4.3 30.97 30.97 0 0 1 8.64-1.972 34.182 34.182 0 0 1 14.757 2.12 33.225 33.225 0 0 1 4.423 2.09v-7.653h-37.8c-.243.2-.575.473-1.012.819a19.717 19.717 0 0 1-1.788 1.312c-.72.478-1.517 1.064-2.472 1.589-.936.558-1.97 1.159-3.129 1.708-1.133.6-2.406 1.116-3.733 1.68a54.271 54.271 0 0 1-9 2.634 54.328 54.328 0 0 1-9.333.906c-1.442-.032-2.814-.032-4.091-.171-1.28-.077-2.463-.251-3.54-.42-1.082-.131-2.04-.379-2.886-.556a19.54 19.54 0 0 1-2.148-.552c-.3-.09-.571-.17-.8-.243V377.5c.639-.218 1.479-.464 2.506-.718a39.78 39.78 0 0 1 19.553.228 27.334 27.334 0 0 1 2.846.909 3.868 3.868 0 0 1 1 .452c-.033.1-1.51-.4-3.947-.949a45.9 45.9 0 0 0-19.36-.225c-1.067.217-1.937.422-2.6.58v7.188a10.392 10.392 0 0 1 3.144-.053zM85.9 373.684a1.833 1.833 0 0 1 .494-.645 3.754 3.754 0 0 1 1.321-.711 28.987 28.987 0 0 1 18.852.758 26.308 26.308 0 0 1 5.143 2.665c.579.363.982.716 1.272.928s.425.346.413.363a39.211 39.211 0 0 0-6.978-3.558 29.565 29.565 0 0 0-8.274-1.745 28.732 28.732 0 0 0-10.25 1.165 3.141 3.141 0 0 0-1.1.588c-.31.265-.472.586-.357.87.218.605 1.3.658 2.116.852l4.95 1.011 8.378 1.747 5.639 1.229 1.527.364a1.929 1.929 0 0 1 .525.167 1.894 1.894 0 0 1-.548-.048l-1.55-.253-5.676-1.041-8.4-1.62-4.958-.977c-.435-.092-.851-.156-1.319-.274a1.68 1.68 0 0 1-1.244-.951 1.172 1.172 0 0 1 .024-.884zm-36.2 7.062a39.427 39.427 0 0 0 4.871 2.241 36.14 36.14 0 0 0 17.361 2.02c6.9-.807 12.378-4.3 16.892-5.287a16.926 16.926 0 0 1 5.394-.535 10.2 10.2 0 0 1 1.461.213 1.617 1.617 0 0 1 .492.153c-.011.055-.7-.1-1.966-.132a18.258 18.258 0 0 0-5.275.713 62.531 62.531 0 0 0-7.449 2.809 35.89 35.89 0 0 1-9.47 2.662 35.075 35.075 0 0 1-17.594-2.219 32.539 32.539 0 0 1-4.835-2.436 12.473 12.473 0 0 1-1.615-1.153 12.389 12.389 0 0 1 1.733.95z" class="cls-1" data-name="Path 6344" transform="translate(-32.549 -350.463)"/>
                <path id="Path_6345" d="M44.539 423.257c3.963.988 8.5 2.751 13.711 3.969a76.992 76.992 0 0 0 17.27 2.046c12.432.316 23.207-4.035 31.489-3.668a25.779 25.779 0 0 1 7.269 1.137v-11.566c-.732.088-1.54.185-2.434.294-3.475.346-8.261 1.026-13.622 1.139a40.087 40.087 0 0 1-7.538-.533 27.489 27.489 0 0 1-5.935-1.716 20.03 20.03 0 0 1-3.654-1.994 10.105 10.105 0 0 1-.9-.687c-.2-.167-.295-.263-.282-.279a35.619 35.619 0 0 0 5 2.565 29.14 29.14 0 0 0 5.866 1.563 42.45 42.45 0 0 0 7.437.478c5.3-.11 10.1-.723 13.59-.962l2.475-.182V386.8c-.514-.064-1.166-.139-1.951-.206a51.917 51.917 0 0 0-9.077.038 101.685 101.685 0 0 0-13.3 2.245c-4.963 1.1-10.377 2.56-16.182 3.59a60.978 60.978 0 0 1-16.566.977 37.982 37.982 0 0 1-7.137-1.383 48.2 48.2 0 0 1-5.876-2.341 31.765 31.765 0 0 0-8.53-3.008 13.825 13.825 0 0 0-3.112-.12v19.86a7.074 7.074 0 0 1 .484-.531c1.576-1.6 4.537-3.062 8.351-4.055 3.827-1.027 8.526-1.4 13.654-2.062A105.433 105.433 0 0 0 71.4 395.9a119.64 119.64 0 0 1 16.413-4.094 70.126 70.126 0 0 1 13.8-.738 66.928 66.928 0 0 1 9.252 1.08c1.079.211 1.913.39 2.475.536a4.679 4.679 0 0 1 .849.241 4.938 4.938 0 0 1-.875-.122c-.568-.108-1.408-.249-2.489-.425a76.142 76.142 0 0 0-9.229-.884 72.485 72.485 0 0 0-13.7.86 124.452 124.452 0 0 0-16.328 4.122 102.13 102.13 0 0 1-16.462 3.881c-5.164.639-9.829.962-13.622 1.925-3.783.928-6.717 2.313-8.293 3.811a7.255 7.255 0 0 0-.646.689v8.336c.089.045.187.1.3.155l2.158 1.15a84.956 84.956 0 0 0 8.2 3.665 79.876 79.876 0 0 0 28.959 5.312c11.628.137 21.714-3.455 29.327-4.154a33.81 33.81 0 0 1 9.021.074l1.4.251 1.006.263a4.348 4.348 0 0 1 .818.255 4.8 4.8 0 0 1-.845-.137l-1.012-.206-1.394-.2a35.883 35.883 0 0 0-8.94.117c-3.766.445-8.171 1.466-13.092 2.515a77.417 77.417 0 0 1-45.394-3.7 72.6 72.6 0 0 1-8.155-3.854l-2.108-1.253c-.09-.056-.165-.1-.239-.148v7.223a18.618 18.618 0 0 1 2.416-.331 29.8 29.8 0 0 1 9.568 1.142zm23.129-18.72a64.465 64.465 0 0 0-9.129 5.541 2.055 2.055 0 0 0-1 1.627 1.6 1.6 0 0 0 1.05 1.287 5.325 5.325 0 0 0 2.981.19 5.082 5.082 0 0 1 1.988.083 1.686 1.686 0 0 1 .62.314c-.013.027-.219-.1-.65-.2a5.492 5.492 0 0 0-1.929.032 5.432 5.432 0 0 1-3.148-.116 1.945 1.945 0 0 1-1.295-1.568 2.435 2.435 0 0 1 1.117-1.984 61.209 61.209 0 0 1 9.149-5.706 63.013 63.013 0 0 1 12.355-4.622 62.313 62.313 0 0 1 23.81-1.492c1.518.229 2.894.412 4.079.7 1.19.262 2.22.46 3.039.723l1.891.561a3.049 3.049 0 0 1 .647.234 2.981 2.981 0 0 1-.681-.118l-1.915-.449c-.823-.229-1.856-.392-3.046-.621-1.186-.256-2.558-.41-4.068-.61a64.81 64.81 0 0 0-35.865 6.188zm8.844 7.788a6.034 6.034 0 0 1-1.417-.065 2.613 2.613 0 0 1-1.885-1.252 1.732 1.732 0 0 1-.142-1.485 3.36 3.36 0 0 1 1.056-1.238 23.683 23.683 0 0 1 6.549-4 29.7 29.7 0 0 1 9.157-2.106 41.711 41.711 0 0 1 16.761 2.632c2.054.733 3.671 1.437 4.775 1.948.554.253.975.467 1.26.614s.429.234.42.254a12.83 12.83 0 0 1-1.773-.652c-1.129-.444-2.763-1.084-4.821-1.76a43.68 43.68 0 0 0-16.579-2.434 30.091 30.091 0 0 0-8.991 2.018 24.274 24.274 0 0 0-6.482 3.811 3.081 3.081 0 0 0-.976 1.059 1.386 1.386 0 0 0 .084 1.181 2.386 2.386 0 0 0 1.638 1.183c1.164.235 1.861.158 1.855.227a1.464 1.464 0 0 1-.489.066z" class="cls-1" data-name="Path 6345" transform="translate(-32.549 -352.037)"/>
                <path id="Path_6346" d="M35.661 386.7a31.765 31.765 0 0 1 8.53 3.008 48.2 48.2 0 0 0 5.876 2.341 37.982 37.982 0 0 0 7.137 1.383 60.978 60.978 0 0 0 16.566-.977c5.805-1.03 11.219-2.489 16.182-3.59a101.685 101.685 0 0 1 13.3-2.245 51.917 51.917 0 0 1 9.077-.038c.785.067 1.436.142 1.951.206v-.151c-.508-.1-1.149-.2-1.926-.288a47.442 47.442 0 0 0-9.137-.153 96.323 96.323 0 0 0-13.382 2.128c-4.984 1.075-10.4 2.516-16.168 3.539a61.678 61.678 0 0 1-16.409 1.016 38.1 38.1 0 0 1-7.046-1.307 49.688 49.688 0 0 1-5.845-2.251c-3.5-1.584-6.5-2.661-8.674-2.851a10.392 10.392 0 0 0-3.143.053v.059a13.825 13.825 0 0 1 3.111.118z" class="cls-2" data-name="Path 6346" transform="translate(-32.549 -352.021)"/>
                <path id="Path_6347" d="M35.5 359.965c.846.177 1.8.425 2.886.556 1.077.169 2.26.342 3.54.42 1.277.14 2.649.14 4.091.171a54.328 54.328 0 0 0 9.333-.906 54.271 54.271 0 0 0 9-2.634c1.327-.564 2.6-1.076 3.733-1.68 1.159-.549 2.193-1.149 3.129-1.708.955-.525 1.752-1.111 2.472-1.589a19.717 19.717 0 0 0 1.788-1.312c.437-.346.769-.616 1.012-.819h-.233c-.248.166-.54.367-.917.631-.491.355-1.1.779-1.836 1.22s-1.539 1-2.5 1.5c-.942.529-1.976 1.1-3.134 1.627-1.13.579-2.4 1.067-3.716 1.612a57.169 57.169 0 0 1-8.909 2.559 57.2 57.2 0 0 1-9.224.943c-1.426-.016-2.784 0-4.049-.115-1.27-.054-2.443-.2-3.515-.342-1.077-.1-2.031-.32-2.878-.464s-1.571-.3-2.157-.449l-.86-.2v.18c.229.073.5.153.8.243a19.54 19.54 0 0 0 2.144.556z" class="cls-2" data-name="Path 6347" transform="translate(-32.549 -350.463)"/>
                <path id="Path_6348" d="M95.1 354.058a30.97 30.97 0 0 0-8.64 1.972 59.892 59.892 0 0 0-8.462 4.3 55.511 55.511 0 0 1-8.405 4.209 31.726 31.726 0 0 1-8.534 1.7c-5.577.355-10.637-.166-14.891-.181a42.262 42.262 0 0 0-10.035.869c-.579.146-1.1.256-1.536.389l-1.1.379a5.7 5.7 0 0 0-.89.347 5.79 5.79 0 0 0 .928-.231l1.107-.322c.441-.114.96-.2 1.538-.331a44.938 44.938 0 0 1 9.978-.674c4.235.068 9.286.636 14.936.309a31.966 31.966 0 0 0 8.7-1.7 55.182 55.182 0 0 0 8.5-4.241 60.292 60.292 0 0 1 8.375-4.276 30.724 30.724 0 0 1 8.475-1.969 34.245 34.245 0 0 1 14.56 1.966 33.9 33.9 0 0 1 4.573 2.094v-.4a33.225 33.225 0 0 0-4.423-2.09 34.182 34.182 0 0 0-14.754-2.119z" class="cls-2" data-name="Path 6348" transform="translate(-32.552 -350.616)"/>
                <path id="Path_6349" d="M109.782 366.107a19.579 19.579 0 0 0-9.782-3.376c-4-.16-8.2 1.379-12.222 3.344a91.833 91.833 0 0 0-11.019 6.289c-1.565 1.093-3.33 2.046-4.105 3.8a2.442 2.442 0 0 0 .394 2.589 5.672 5.672 0 0 0 1.984 1.327 17.6 17.6 0 0 0 6.8 1.621 15.325 15.325 0 0 0 1.9-.054 2.645 2.645 0 0 0 .656-.107c0-.055-.914.041-2.547-.073a18.323 18.323 0 0 1-6.629-1.773 5.3 5.3 0 0 1-1.812-1.241 1.959 1.959 0 0 1-.288-2.1c.668-1.5 2.361-2.455 3.951-3.528a96.487 96.487 0 0 1 10.974-6.209c4-1.954 8.091-3.457 11.945-3.331a19.445 19.445 0 0 1 9.569 3.181 55.033 55.033 0 0 1 5.622 4.069l.848.68v-.238c-.208-.187-.437-.392-.7-.622a46.892 46.892 0 0 0-5.539-4.248z" class="cls-2" data-name="Path 6349" transform="translate(-34.296 -351)"/>
                <path id="Path_6350" d="M89.551 376.464c.468.119.884.183 1.319.274l4.958.977 8.4 1.62 5.676 1.041 1.55.253a1.894 1.894 0 0 0 .548.048 1.929 1.929 0 0 0-.525-.167l-1.527-.364-5.639-1.229-8.378-1.747-4.95-1.011c-.814-.194-1.9-.247-2.116-.852-.116-.284.047-.605.357-.87a3.141 3.141 0 0 1 1.1-.588 28.732 28.732 0 0 1 10.25-1.165 29.565 29.565 0 0 1 8.274 1.745 39.211 39.211 0 0 1 6.978 3.558c.011-.017-.13-.142-.413-.363s-.692-.565-1.272-.928a26.308 26.308 0 0 0-5.141-2.665 28.987 28.987 0 0 0-18.852-.758 3.754 3.754 0 0 0-1.321.711 1.833 1.833 0 0 0-.494.645 1.172 1.172 0 0 0-.029.884 1.68 1.68 0 0 0 1.247.951z" class="cls-2" data-name="Path 6350" transform="translate(-34.987 -351.408)"/>
                <path id="Path_6351" d="M44.839 377.43a47.226 47.226 0 0 1 9.667 1.145c2.437.552 3.914 1.045 3.947.949a3.868 3.868 0 0 0-1-.452 27.334 27.334 0 0 0-2.846-.909 39.78 39.78 0 0 0-19.553-.228c-1.027.254-1.867.5-2.506.718v.278c.661-.159 1.531-.363 2.6-.58a47.246 47.246 0 0 1 9.691-.921z" class="cls-2" data-name="Path 6351" transform="translate(-32.549 -351.617)"/>
                <path id="Path_6352" d="M41.489 402.494c3.793-.963 8.459-1.286 13.622-1.925a102.13 102.13 0 0 0 16.462-3.881 124.452 124.452 0 0 1 16.327-4.122 72.485 72.485 0 0 1 13.7-.86 76.142 76.142 0 0 1 9.229.884c1.081.176 1.921.316 2.489.425a4.938 4.938 0 0 0 .875.122 4.679 4.679 0 0 0-.849-.241c-.561-.146-1.4-.325-2.475-.536a66.928 66.928 0 0 0-9.252-1.08 70.126 70.126 0 0 0-13.8.738 119.64 119.64 0 0 0-16.417 4.094 105.433 105.433 0 0 1-16.365 3.908c-5.128.665-9.827 1.035-13.654 2.062-3.813.994-6.775 2.457-8.351 4.055a7.074 7.074 0 0 0-.484.531V407a7.255 7.255 0 0 1 .646-.689c1.579-1.504 4.514-2.888 8.297-3.817z" class="cls-2" data-name="Path 6352" transform="translate(-32.549 -352.247)"/>
                <path id="Path_6353" d="M50.287 382.26a32.539 32.539 0 0 0 4.835 2.436 35.075 35.075 0 0 0 17.594 2.219 35.89 35.89 0 0 0 9.47-2.662 62.531 62.531 0 0 1 7.449-2.809 18.258 18.258 0 0 1 5.275-.713c1.264.028 1.955.187 1.966.132a1.617 1.617 0 0 0-.492-.153 10.2 10.2 0 0 0-1.461-.213 16.926 16.926 0 0 0-5.394.535c-4.513.984-10 4.48-16.892 5.287a36.14 36.14 0 0 1-17.361-2.02 39.427 39.427 0 0 1-4.871-2.241 12.389 12.389 0 0 0-1.734-.951 12.473 12.473 0 0 0 1.616 1.153z" class="cls-2" data-name="Path 6353" transform="translate(-33.255 -351.776)"/>
                <path id="Path_6354" d="M104.659 398.852c1.51.2 2.882.354 4.068.61 1.19.229 2.222.392 3.046.621l1.915.449a2.981 2.981 0 0 0 .681.118 3.049 3.049 0 0 0-.647-.234c-.5-.146-1.122-.332-1.891-.561-.819-.263-1.848-.461-3.039-.723-1.186-.29-2.562-.473-4.079-.7a62.313 62.313 0 0 0-23.81 1.492 63.013 63.013 0 0 0-12.355 4.622 61.209 61.209 0 0 0-9.149 5.706 2.435 2.435 0 0 0-1.117 1.984 1.945 1.945 0 0 0 1.295 1.568 5.432 5.432 0 0 0 3.148.116 5.492 5.492 0 0 1 1.929-.032c.431.1.637.223.65.2a1.686 1.686 0 0 0-.62-.314 5.082 5.082 0 0 0-1.988-.083 5.325 5.325 0 0 1-2.981-.19 1.6 1.6 0 0 1-1.05-1.287 2.055 2.055 0 0 1 1-1.627 64.207 64.207 0 0 1 44.994-11.729z" class="cls-2" data-name="Path 6354" transform="translate(-33.675 -352.54)"/>
                <path id="Path_6355" d="M75.357 411.567a1.386 1.386 0 0 1-.084-1.181 3.081 3.081 0 0 1 .976-1.059 24.274 24.274 0 0 1 6.483-3.812 30.091 30.091 0 0 1 8.991-2.018 43.68 43.68 0 0 1 16.579 2.434c2.058.676 3.692 1.317 4.821 1.76a12.83 12.83 0 0 0 1.773.652c.01-.02-.136-.106-.42-.254s-.707-.36-1.26-.614c-1.1-.511-2.721-1.214-4.775-1.948A41.711 41.711 0 0 0 91.68 402.9a29.7 29.7 0 0 0-9.157 2.1 23.683 23.683 0 0 0-6.549 4 3.36 3.36 0 0 0-1.056 1.238 1.732 1.732 0 0 0 .142 1.485 2.613 2.613 0 0 0 1.885 1.252 6.034 6.034 0 0 0 1.417.065 1.464 1.464 0 0 0 .488-.067c.006-.069-.691.009-1.855-.227a2.386 2.386 0 0 1-1.638-1.179z" class="cls-2" data-name="Path 6355" transform="translate(-34.399 -352.755)"/>
                <path id="Path_6356" d="M34.9 417.948a72.6 72.6 0 0 0 8.155 3.854 77.417 77.417 0 0 0 45.394 3.7c4.922-1.049 9.327-2.07 13.092-2.515a35.883 35.883 0 0 1 8.94-.117l1.394.2 1.012.206a4.8 4.8 0 0 0 .845.137 4.348 4.348 0 0 0-.818-.255l-1.006-.263-1.4-.251a33.81 33.81 0 0 0-9.021-.074c-7.613.7-17.7 4.291-29.327 4.154a79.876 79.876 0 0 1-28.956-5.312 84.956 84.956 0 0 1-8.2-3.665l-2.158-1.15-.3-.155v.111l.239.148z" class="cls-2" data-name="Path 6356" transform="translate(-32.549 -353.352)"/>
                <path id="Path_6357" d="M100.383 417.149a42.45 42.45 0 0 1-7.437-.478 29.14 29.14 0 0 1-5.866-1.563 35.619 35.619 0 0 1-5-2.565c-.012.016.084.112.282.279a10.105 10.105 0 0 0 .9.687 20.03 20.03 0 0 0 3.654 1.994 27.489 27.489 0 0 0 5.935 1.716 40.087 40.087 0 0 0 7.538.533c5.361-.113 10.147-.793 13.622-1.139.893-.109 1.7-.206 2.434-.294v-.314l-2.475.182c-3.483.239-8.284.852-13.587.962z" class="cls-2" data-name="Path 6357" transform="translate(-34.718 -353.181)"/>
                <path id="Path_6358" d="M44.43 425.3c3.919 1.03 8.433 2.837 13.691 4.1a75.683 75.683 0 0 0 17.4 2.109c12.562.307 23.357-4.117 31.486-3.844a26.291 26.291 0 0 1 7.275 1.017v-.307a25.779 25.779 0 0 0-7.269-1.137c-8.282-.367-19.057 3.984-31.489 3.668a76.992 76.992 0 0 1-17.27-2.046c-5.216-1.218-9.749-2.981-13.711-3.969a29.8 29.8 0 0 0-9.574-1.132 18.618 18.618 0 0 0-2.416.331v.131a23.594 23.594 0 0 1 2.429-.229 31.1 31.1 0 0 1 9.448 1.308z" class="cls-2" data-name="Path 6358" transform="translate(-32.549 -353.67)"/>
                <path id="Path_6359" d="M42.015 438.644a38.465 38.465 0 0 1 13.956-3.112c5.423-.238 11.37.555 17.607 1.337 3.122.382 6.184.71 9.159.834a62.368 62.368 0 0 0 8.572-.236c5.422-.5 10.322-.984 14.38-.346a20.289 20.289 0 0 1 8.591 3.159v-.307a20.164 20.164 0 0 0-8.526-3.274c-4.12-.7-9.083-.256-14.49.214a62.958 62.958 0 0 1-8.5.2c-2.949-.13-5.994-.46-9.111-.841-6.228-.78-12.218-1.564-17.7-1.294a38.2 38.2 0 0 0-14.1 3.278 37.428 37.428 0 0 0-8.339 5.1c-.36.292-.671.557-.956.8v.244c.322-.26.686-.547 1.1-.863a39.562 39.562 0 0 1 8.357-4.893z" class="cls-2" data-name="Path 6359" transform="translate(-32.549 -354.161)"/>
                <path id="Path_6360" d="M73.914 444.125a59.14 59.14 0 0 0-11.589-1.38 31.484 31.484 0 0 0-9.441 1.353 21.884 21.884 0 0 0-5.647 2.682h.463a24 24 0 0 1 5.307-2.275 32.189 32.189 0 0 1 9.314-1.206 61.165 61.165 0 0 1 11.473 1.416c3.393.692 6.624 1.454 9.669 2.064h2.995c-.393-.071-.775-.131-1.178-.209-3.501-.67-7.314-1.618-11.366-2.445z" class="cls-2" data-name="Path 6360" transform="translate(-33.192 -354.504)"/>
            </g>
            <g id="Group_5618" data-name="Group 5618">
                <g id="Group_5608" data-name="Group 5608" transform="translate(0 40.571)">
                    <g id="Group_5602" data-name="Group 5602" transform="translate(0 29.518)">
                        <path id="Rectangle_2729" d="M0 0H59.147V1.157H0z" class="cls-3" data-name="Rectangle 2729"/>
                    </g>
                    <g id="Group_5603" data-name="Group 5603" transform="translate(0 59.963)">
                        <path id="Rectangle_2730" d="M0 0H59.155V1.156H0z" class="cls-3" data-name="Rectangle 2730"/>
                    </g>
                    <g id="Group_5604" data-name="Group 5604" transform="translate(23.809 30.097)">
                        <path id="Rectangle_2731" d="M0 0H12.493V2.649H0z" class="cls-3" data-name="Rectangle 2731"/>
                    </g>
                    <g id="Group_5605" data-name="Group 5605" transform="translate(23.809)">
                        <path id="Rectangle_2732" d="M0 0H12.493V2.65H0z" class="cls-3" data-name="Rectangle 2732"/>
                    </g>
                    <g id="Group_5606" data-name="Group 5606" transform="translate(23.809 60.382)">
                        <path id="Rectangle_2733" d="M0 0H12.493V2.65H0z" class="cls-3" data-name="Rectangle 2733"/>
                    </g>
                    <g id="Group_5607" data-name="Group 5607" transform="translate(59.146)">
                        <path id="Rectangle_2734" d="M0 0H22.585V92.326H0z" class="cls-2" data-name="Rectangle 2734"/>
                    </g>
                </g>
                <g id="Group_5614" data-name="Group 5614">
                    <g id="Group_5609" data-name="Group 5609" transform="translate(0 2.558)">
                        <path id="Rectangle_2735" d="M0 0H7.979V38.013H0z" class="cls-2" data-name="Rectangle 2735"/>
                    </g>
                    <g id="Group_5610" data-name="Group 5610" transform="translate(12.029 6.427)">
                        <path id="Rectangle_2736" d="M0 0H5.562V34.144H0z" class="cls-2" data-name="Rectangle 2736"/>
                    </g>
                    <g id="Group_5611" data-name="Group 5611" transform="translate(7.979 6.427)">
                        <path id="Rectangle_2737" d="M0 0H4.05V34.144H0z" class="cls-3" data-name="Rectangle 2737"/>
                    </g>
                    <g id="Group_5612" data-name="Group 5612" transform="translate(17.591 10.348)">
                        <path id="Rectangle_2738" d="M0 0H4.111V30.224H0z" class="cls-1" data-name="Rectangle 2738"/>
                    </g>
                    <g id="Group_5613" data-name="Group 5613" transform="translate(21.701)">
                        <path id="Rectangle_2739" d="M0 0H8.705V40.571H0z" class="cls-2" data-name="Rectangle 2739"/>
                    </g>
                </g>
                <g id="Group_5617" data-name="Group 5617" transform="translate(35.727 22.649)">
                    <g id="Group_5615" data-name="Group 5615">
                        <path id="Path_6361" d="M70.731 331.721l-.82 3.42.82 1.232v2.051l-.82 1.915.82.685v4.789l-.82.547.82.685v2.6h43.916V346.5l-.821-1.505.821-6.842-.685-3.283a8.056 8.056 0 0 1-.684-1.78c0-.409.137-1.367.137-1.367z" class="cls-2" data-name="Path 6361" transform="translate(-69.911 -331.721)"/>
                    </g>
                    <g id="Group_5616" data-name="Group 5616" opacity="0.24" transform="translate(22.367)">
                        <path id="Path_6362" d="M94.355 349.642l-1.055-4.959 1.052-2.042v-1.959l-1.052-1.026 1.052-1.572v-6.364h20.088l-.137 1.368.684 1.779.684 3.283-.821 6.841.821 1.505v3.145z" class="cls-3" data-name="Path 6362" transform="translate(-93.303 -331.721)"/>
                    </g>
                </g>
            </g>
        </g>
        <path id="Path_6363" d="M461.212 447.031c0 .137-98.231.249-219.376.249-121.188 0-219.4-.112-219.4-.249s98.209-.25 219.4-.25c121.146 0 219.376.111 219.376.25z" class="cls-6" data-name="Path 6363" transform="translate(465.559 129.364)"/>
        <g id="Group_5628" data-name="Group 5628" transform="translate(590.035 297.286)">
            <g id="Group_5624" data-name="Group 5624" transform="translate(0 .2)">
                <g id="Group_5623" data-name="Group 5623">
                    <path id="Rectangle_2740" d="M0 0H32.544V41.084H0z" class="cls-4" data-name="Rectangle 2740" transform="rotate(-.234 107.113 -54.874)"/>
                    <g id="Group_5622" data-name="Group 5622">
                        <path id="Path_6364" d="M129.542 196.883s.216-.016.615-.025l1.751-.031 6.608-.08 23.568-.2-.206.207-.209-41.08c-.054-.058.471.466.244.245H159.723l-2.178.009-4.3.016-8.365.029-15.505.045.222-.225c0 12.159.008 22.4.01 29.625l-.025 8.426-.017 2.244c0 .24-.008.431-.011.583a1.555 1.555 0 0 1-.011.206.766.766 0 0 1-.014-.18c0-.146-.009-.329-.015-.558l-.035-2.2-.093-8.375-.233-29.769v-.223h.224l15.505-.083 8.365-.038 4.3-.019 2.179-.01h2.186c-.221-.222.31.3.254.251l.126 41.08v.207h-.207l-23.7-.01-6.562-.027-1.712-.016c-.383-.007-.569-.024-.569-.024z" class="cls-6" data-name="Path 6364" transform="translate(-129.149 -155.362)"/>
                    </g>
                </g>
            </g>
            <g id="Group_5625" data-name="Group 5625" transform="translate(14.609 40.723)">
                <path id="Rectangle_2741" d="M0 0H4.514V1.096H0z" class="cls-6" data-name="Rectangle 2741" transform="translate(0 .017)"/>
            </g>
            <g id="Group_5626" data-name="Group 5626" transform="translate(11.826 14.924)">
                <path id="Rectangle_2742" d="M0 0H9.871V14.257H0z" class="cls-7" data-name="Rectangle 2742" transform="rotate(-.233 9.836 .02)"/>
                <path id="Rectangle_2743" d="M0 0H9.871V14.257H0z" class="cls-8" data-name="Rectangle 2743" transform="rotate(-.233 9.836 .02)"/>
            </g>
            <g id="Group_5627" data-name="Group 5627" transform="translate(15.08)">
                <path id="Rectangle_2744" d="M0 0H4.514V0.938H0z" class="cls-6" data-name="Rectangle 2744" transform="rotate(-.228 4.523 .009)"/>
            </g>
        </g>
        <g id="Group_5642" data-name="Group 5642" transform="translate(672.498 251.087)">
            <circle id="Ellipse_1201" cx="21.839" cy="21.839" r="21.839" class="cls-9" data-name="Ellipse 1201"/>
            <g id="Group_5629" data-name="Group 5629" transform="translate(21.59 9.64)">
                <path id="Path_6365" d="M248.253 129.791a17.9 17.9 0 0 1-2.894.165c-1.8.045-4.312.075-7.144.082h-.247v-.249-1.416c0-3.163.028-6.027.073-8.1a22.383 22.383 0 0 1 .176-3.354 22.389 22.389 0 0 1 .176 3.354c.045 2.073.074 4.937.074 8.1v1.416l-.247-.247c2.832.008 5.342.038 7.144.082a17.993 17.993 0 0 1 2.889.167z" class="cls-4" data-name="Path 6365" transform="translate(-237.967 -116.92)"/>
            </g>
            <g id="Group_5630" data-name="Group 5630" transform="translate(21.657 3.587)">
                <path id="Path_6366" d="M238.286 110.59c.138 0 .25.821.25 1.835s-.112 1.834-.25 1.834-.249-.82-.249-1.834.111-1.835.249-1.835z" class="cls-4" data-name="Path 6366" transform="translate(-238.037 -110.59)"/>
            </g>
            <g id="Group_5631" data-name="Group 5631" transform="translate(29.287 6.522)">
                <path id="Path_6367" d="M248.586 113.671c.1.1-.4.749-1.1 1.454s-1.358 1.2-1.455 1.1.4-.749 1.1-1.454 1.358-1.197 1.455-1.1z" class="cls-4" data-name="Path 6367" transform="translate(-246.016 -113.659)"/>
            </g>
            <g id="Group_5632" data-name="Group 5632" transform="translate(34.578 12.861)">
                <path id="Path_6368" d="M254.646 120.318c.062.124-.605.582-1.449 1.1s-1.559.894-1.641.781.517-.682 1.382-1.207 1.648-.792 1.708-.674z" class="cls-4" data-name="Path 6368" transform="translate(-251.549 -120.288)"/>
            </g>
            <g id="Group_5633" data-name="Group 5633" transform="translate(36.082 22.072)">
                <path id="Path_6369" d="M258.125 130.171a12.709 12.709 0 0 1-5 0 12.708 12.708 0 0 1 5 0z" class="cls-4" data-name="Path 6369" transform="translate(-253.122 -129.922)"/>
            </g>
            <g id="Group_5634" data-name="Group 5634" transform="translate(1.671 21.739)">
                <path id="Path_6370" d="M221.862 129.823a11.352 11.352 0 0 1-4.726 0 11.31 11.31 0 0 1 4.726 0z" class="cls-4" data-name="Path 6370" transform="translate(-217.136 -129.573)"/>
            </g>
            <g id="Group_5635" data-name="Group 5635" transform="translate(5.096 28.998)">
                <path id="Path_6371" d="M224.471 137.176c.09.1-.679.866-1.717 1.7a5.989 5.989 0 0 1-2.03 1.316c-.082-.11.687-.873 1.717-1.7a6.077 6.077 0 0 1 2.03-1.316z" class="cls-4" data-name="Path 6371" transform="translate(-220.718 -137.165)"/>
            </g>
            <g id="Group_5636" data-name="Group 5636" transform="translate(12.375 34.435)">
                <path id="Path_6372" d="M230.857 142.856a19.679 19.679 0 0 1-2.505 4.168 5.193 5.193 0 0 1 .955-2.262c.698-1.162 1.441-1.987 1.55-1.906z" class="cls-4" data-name="Path 6372" transform="translate(-228.329 -142.85)"/>
            </g>
            <g id="Group_5637" data-name="Group 5637" transform="translate(21.657 36.442)">
                <path id="Path_6373" d="M238.286 149.952a12.709 12.709 0 0 1 0-5 12.661 12.661 0 0 1 0 5z" class="cls-4" data-name="Path 6373" transform="translate(-238.037 -144.949)"/>
            </g>
            <g id="Group_5638" data-name="Group 5638" transform="translate(28.935 34.84)">
                <path id="Path_6374" d="M249.4 146.545a5.013 5.013 0 0 1-2.133-1.331c-1.054-.916-1.713-1.845-1.61-1.932s.913.667 1.938 1.557 1.885 1.589 1.805 1.706z" class="cls-4" data-name="Path 6374" transform="translate(-245.648 -143.274)"/>
            </g>
            <g id="Group_5639" data-name="Group 5639" transform="translate(34.626 29.538)">
                <path id="Path_6375" d="M254.723 140.853c-.1.1-.873-.521-1.733-1.381s-1.477-1.635-1.381-1.733.873.521 1.733 1.381 1.479 1.635 1.381 1.733z" class="cls-4" data-name="Path 6375" transform="translate(-251.6 -137.729)"/>
            </g>
            <g id="Group_5640" data-name="Group 5640" transform="translate(5.885 12.526)">
                <path id="Path_6376" d="M224.278 122.674c-.1.1-.786-.434-1.539-1.186s-1.282-1.441-1.186-1.539.786.434 1.539 1.186 1.282 1.441 1.186 1.539z" class="cls-4" data-name="Path 6376" transform="translate(-221.542 -119.938)"/>
            </g>
            <g id="Group_5641" data-name="Group 5641" transform="translate(12.179 6.009)">
                <path id="Path_6377" d="M230.811 115.8c-.1.1-.775-.42-1.513-1.155s-1.258-1.41-1.162-1.507.775.419 1.514 1.154 1.259 1.408 1.161 1.508z" class="cls-4" data-name="Path 6377" transform="translate(-228.125 -113.123)"/>
            </g>
        </g>
        <g id="Group_5708" data-name="Group 5708" transform="translate(678.689 490.582)">
            <path id="Path_6433" d="M268.691 358.287l-1.969 85.1h-3.754l.239-84.886z" class="cls-10" data-name="Path 6433" transform="translate(-223.662 -357.344)"/>
            <path id="Path_6434" d="M283.128 357.3l18.249 86.043h4.181l-15.19-86.043z" class="cls-10" data-name="Path 6434" transform="translate(-224.545 -357.301)"/>
            <path id="Path_6435" d="M246.238 358.271l-20.194 85.1h-4.182l18.324-85.447z" class="cls-10" data-name="Path 6435" transform="translate(-221.862 -357.328)"/>
        </g>
        <g id="Group_5727" data-name="Group 5727" transform="translate(672.51 409.9)">
            <g id="Group_5726" data-name="Group 5726">
                <g id="Group_5712" data-name="Group 5712">
                    <g id="Group_5711" data-name="Group 5711">
                        <g id="Group_5709" data-name="Group 5709">
                            <path id="Path_6436" d="M298.468 272.949s20.151-1.15 18.137 22.167-3.167 46.921-10.651 54.981-82.9 8.348-89.239 1.726 12.09-6.332 15.545-6.332 24.756 2.015 31.665-16.12 5.182-57.571 34.543-56.422z" class="cls-10" data-name="Path 6436" transform="translate(-215.4 -272.924)"/>
                        </g>
                        <g id="Group_5710" data-name="Group 5710" transform="translate(.104 .038)">
                            <path id="Path_6437" d="M299.766 272.964s15.4 3.155 13.964 19.274-5.47 44.33-12.953 51.527-36.811 8.766-52.68 7.773c-18.422-1.151-30.052-4.659-30.052-4.659s-3.362 2.161-2.344 3.554 10 6.994 53.546 6.06 40.518-7.357 42.326-14.376 5.6-44.435 5.074-52.663-4.669-15.047-16.881-16.49z" class="cls-10" data-name="Path 6437" transform="translate(-215.509 -272.964)"/>
                            <path id="Path_6438" d="M299.766 272.964s15.4 3.155 13.964 19.274-5.47 44.33-12.953 51.527-36.811 8.766-52.68 7.773c-18.422-1.151-30.052-4.659-30.052-4.659s-3.362 2.161-2.344 3.554 10 6.994 53.546 6.06 40.518-7.357 42.326-14.376 5.6-44.435 5.074-52.663-4.669-15.047-16.881-16.49z" data-name="Path 6438" opacity="0.2" transform="translate(-215.509 -272.964)"/>
                        </g>
                    </g>
                </g>
                <g id="Group_5725" data-name="Group 5725" transform="translate(68.094 21.981)">
                    <g id="Group_5718" data-name="Group 5718">
                        <g id="Group_5713" data-name="Group 5713" transform="translate(3.628 7.303)">
                            <path id="Path_6439" d="M290.407 305.685a1.72 1.72 0 1 0 1.669-2.136 1.946 1.946 0 0 0-1.669 2.136z" class="cls-10" data-name="Path 6439" transform="translate(-290.407 -303.549)"/>
                        </g>
                        <g id="Group_5715" data-name="Group 5715" transform="translate(3.776)">
                            <g id="Group_5714" data-name="Group 5714">
                                <path id="Path_6440" d="M291.553 295.912a12.47 12.47 0 0 0-.568 3.109 7.347 7.347 0 0 0 .736 3.27 6.842 6.842 0 0 0 1.1 1.634 7.511 7.511 0 0 1 .769.834 1.649 1.649 0 0 1 .284 1.28 14.885 14.885 0 0 1-.853 2.09 6.455 6.455 0 0 0-.249 1.94 7.243 7.243 0 0 0 .839 3.242 12.23 12.23 0 0 0 1.946 2.487c-.019.029-.3-.108-.745-.463a6.9 6.9 0 0 1-1.557-1.824 7.275 7.275 0 0 1-1.016-3.428 6.646 6.646 0 0 1 .247-2.141 18.144 18.144 0 0 0 .819-2c.155-.637-.367-1.089-.894-1.623a7.1 7.1 0 0 1-1.169-1.8 7.377 7.377 0 0 1-.664-3.511 6.948 6.948 0 0 1 .535-2.337c.223-.521.408-.771.44-.759z" class="cls-10" data-name="Path 6440" transform="translate(-290.562 -295.911)"/>
                            </g>
                        </g>
                        <g id="Group_5717" data-name="Group 5717" transform="translate(0 6.673)">
                            <g id="Group_5716" data-name="Group 5716">
                                <path id="Path_6441" d="M286.816 302.891c.093.013.022.5.234 1.215a4.269 4.269 0 0 0 1.676 2.26 6.645 6.645 0 0 0 2.736.977c.758.112 1.247.13 1.252.215s-.477.2-1.285.193a5.635 5.635 0 0 1-3.026-.907 4.089 4.089 0 0 1-1.752-2.649c-.128-.833.104-1.326.165-1.304z" class="cls-10" data-name="Path 6441" transform="translate(-286.613 -302.89)"/>
                            </g>
                        </g>
                    </g>
                    <g id="Group_5724" data-name="Group 5724" opacity="0.2">
                        <g id="Group_5719" data-name="Group 5719" transform="translate(3.628 7.303)">
                            <path id="Path_6442" d="M290.407 305.685a1.72 1.72 0 1 0 1.669-2.136 1.946 1.946 0 0 0-1.669 2.136z" data-name="Path 6442" transform="translate(-290.407 -303.549)"/>
                        </g>
                        <g id="Group_5721" data-name="Group 5721" transform="translate(3.776)">
                            <g id="Group_5720" data-name="Group 5720">
                                <path id="Path_6443" d="M291.553 295.912a12.47 12.47 0 0 0-.568 3.109 7.347 7.347 0 0 0 .736 3.27 6.842 6.842 0 0 0 1.1 1.634 7.511 7.511 0 0 1 .769.834 1.649 1.649 0 0 1 .284 1.28 14.885 14.885 0 0 1-.853 2.09 6.455 6.455 0 0 0-.249 1.94 7.243 7.243 0 0 0 .839 3.242 12.23 12.23 0 0 0 1.946 2.487c-.019.029-.3-.108-.745-.463a6.9 6.9 0 0 1-1.557-1.824 7.275 7.275 0 0 1-1.016-3.428 6.646 6.646 0 0 1 .247-2.141 18.144 18.144 0 0 0 .819-2c.155-.637-.367-1.089-.894-1.623a7.1 7.1 0 0 1-1.169-1.8 7.377 7.377 0 0 1-.664-3.511 6.948 6.948 0 0 1 .535-2.337c.223-.521.408-.771.44-.759z" data-name="Path 6443" transform="translate(-290.562 -295.911)"/>
                            </g>
                        </g>
                        <g id="Group_5723" data-name="Group 5723" transform="translate(0 6.673)">
                            <g id="Group_5722" data-name="Group 5722">
                                <path id="Path_6444" d="M286.816 302.891c.093.013.022.5.234 1.215a4.269 4.269 0 0 0 1.676 2.26 6.645 6.645 0 0 0 2.736.977c.758.112 1.247.13 1.252.215s-.477.2-1.285.193a5.635 5.635 0 0 1-3.026-.907 4.089 4.089 0 0 1-1.752-2.649c-.128-.833.104-1.326.165-1.304z" data-name="Path 6444" transform="translate(-286.613 -302.89)"/>
                            </g>
                        </g>
                    </g>
                </g>
            </g>
        </g>
        <g id="Group_5816" data-name="Group 5816" transform="translate(620.207 420.929)">
            <path id="Path_6489" d="M122.323 292.9s-1.061-8.441-.223-8.441 1.341 8.441 1.341 8.441h-1.4" class="cls-6" data-name="Path 6489" transform="translate(-120.75 -284.458)"/>
            <g id="Group_5782" data-name="Group 5782" transform="translate(3.787)">
                <path id="Path_6490" d="M125.209 292.9s-1.062-8.441-.224-8.441 1.341 8.441 1.341 8.441h-1.4" class="cls-7" data-name="Path 6490" transform="translate(-124.663 -284.458)"/>
                <path id="Path_6491" d="M125.209 292.9s-1.062-8.441-.224-8.441 1.341 8.441 1.341 8.441h-1.4" data-name="Path 6491" opacity="0.3" transform="translate(-124.663 -284.458)"/>
            </g>
            <path id="Path_6492" d="M129.619 292.9s-1.062-8.441-.225-8.441 1.342 8.441 1.342 8.441h-1.4" class="cls-6" data-name="Path 6492" transform="translate(-121.069 -284.458)"/>
            <path id="Path_6493" d="M127.051 293.37s0-8.507.836-8.4.273 8.542.273 8.542l-1.386-.175" class="cls-10" data-name="Path 6493" transform="translate(-120.968 -284.48)"/>
            <g id="Group_5783" data-name="Group 5783" transform="translate(2.955)">
                <path id="Path_6494" d="M124.339 292.9s-1.061-8.441-.224-8.441 1.342 8.441 1.342 8.441h-1.4" class="cls-7" data-name="Path 6494" transform="translate(-123.793 -284.458)"/>
                <path id="Path_6495" d="M124.339 292.9s-1.061-8.441-.224-8.441 1.342 8.441 1.342 8.441h-1.4" class="cls-8" data-name="Path 6495" transform="translate(-123.793 -284.458)"/>
            </g>
            <path id="Path_6496" fill="#6d547c" d="M122.1 306.571l-1.4-13.286h11.261v13.286z" data-name="Path 6496" transform="translate(-120.703 -284.845)"/>
        </g>
        <path id="Path_6497" d="M361.239 307.235H112.346v6.646h13.313l-6.9 126.836h3.8l6.9-126.833h218.2l5.883 126.816 4.205.218-6.284-127.039h9.776z" class="cls-6" data-name="Path 6497" transform="translate(461.622 135.474)"/>
        <g id="Group_5785" data-name="Group 5785" transform="translate(655.456 403.438)">
            <path id="Path_6498" d="M197.565 266.187l13.8 40.331h62.494l-.46-2.077-25.271-.782-11.642-37.494z" class="cls-6" data-name="Path 6498" transform="translate(-197.565 -266.166)"/>
        </g>
        <g id="Group_5786" data-name="Group 5786" transform="translate(678.375 419.969)">
            <path id="Path_6499" d="M226.307 285.888c.413 1.653-.3 3.271-1.581 3.615s-2.663-.717-3.075-2.369.3-3.271 1.582-3.615 2.667.717 3.074 2.369z" class="cls-4" data-name="Path 6499" transform="translate(-221.534 -283.454)"/>
        </g>
        <g id="Group_5788" data-name="Group 5788" transform="translate(779.008 428.058)">
            <path id="Path_6500" d="M351.846 294.239a5.777 5.777 0 0 0-3.879-1.117c.006-.748-.028-1.209-.028-1.209h-21.156s-.665 13.969 10.031 14.463c4.788.219 7.527-1.926 9.1-4.625a10.649 10.649 0 0 0 2.4.293 5.55 5.55 0 0 0 3.332-.942 4.2 4.2 0 0 0 1.59-3.58 4.09 4.09 0 0 0-1.39-3.283zm-1.451 5.189c-.9.677-2.521.574-3.574.383a18.609 18.609 0 0 0 1.03-4.594 4.027 4.027 0 0 1 2.65.613 2.073 2.073 0 0 1 .645 1.691 2.212 2.212 0 0 1-.746 1.907z" class="cls-9" data-name="Path 6500" transform="translate(-326.775 -291.913)"/>
        </g>
        <g id="Group_5789" data-name="Group 5789" transform="translate(779.619 396.026)">
            <path id="Path_6501" d="M346.217 288.973a2.861 2.861 0 0 1-.506-.594 5.631 5.631 0 0 1-.87-2.064 6.017 6.017 0 0 1 .314-3.527 11.651 11.651 0 0 1 2.966-3.631 8.741 8.741 0 0 0 2.677-4.743 8.207 8.207 0 0 0-1.141-6.06 8.424 8.424 0 0 0-2.352-2.445 12.676 12.676 0 0 0-3.269-1.468 9.817 9.817 0 0 1-3.451-1.736 5.073 5.073 0 0 1-1.227-1.614 3.211 3.211 0 0 1-.251-2.076c.028-.1.055-.2.081-.288l.316.317a3.259 3.259 0 0 0-1.928 2.825 6.539 6.539 0 0 0 .785 3.5c.519 1.1 1.168 2.137 1.646 3.254a6.9 6.9 0 0 1 .665 3.5 4.991 4.991 0 0 1-1.573 3.014 9.707 9.707 0 0 1-2.65 1.765 55.085 55.085 0 0 0-5.136 2.209 7.177 7.177 0 0 0-2.984 3.31 7.931 7.931 0 0 0-.716 3.338 9.071 9.071 0 0 0 .55 2.886c-.008 0-.04-.054-.1-.17a4.834 4.834 0 0 1-.229-.531 7 7 0 0 1-.417-2.181 7.993 7.993 0 0 1 .655-3.455 7.429 7.429 0 0 1 3.058-3.5 51.784 51.784 0 0 1 5.14-2.281 9.351 9.351 0 0 0 2.521-1.7 4.555 4.555 0 0 0 1.425-2.754 6.472 6.472 0 0 0-.646-3.264c-.461-1.071-1.111-2.1-1.649-3.233a7 7 0 0 1-.838-3.763 4.539 4.539 0 0 1 .649-1.916 3.16 3.16 0 0 1 1.607-1.323l.45-.159-.134.477-.067.237a3.457 3.457 0 0 0 1.323 3.207 9.433 9.433 0 0 0 3.281 1.643 13.037 13.037 0 0 1 3.379 1.539 8.874 8.874 0 0 1 2.471 2.59 8.616 8.616 0 0 1 1.158 6.387 9.08 9.08 0 0 1-2.836 4.914 11.543 11.543 0 0 0-2.957 3.489 5.9 5.9 0 0 0-.381 3.379 6.606 6.606 0 0 0 1.191 2.696z" class="cls-6" data-name="Path 6501" transform="translate(-327.414 -258.415)"/>
        </g>
    </g>
</svg>
