<svg xmlns="http://www.w3.org/2000/svg" width="424.996" height="276.447" viewBox="0 0 424.996 276.447">
  <g id="Group_16248" data-name="Group 16248" transform="translate(-466.816 -230)">
    <g id="undraw_date_picker_re_r0p8" transform="translate(466.816 230)">
      <path id="Path_15886" data-name="Path 15886" d="M560.092,181.881a6.874,6.874,0,0,1-7,6.751H520.628c-.118,0-.235-.006-.353-.015a6.405,6.405,0,0,1-.9-.124V177a2.257,2.257,0,0,1,1.466-2.115h32.505a6.882,6.882,0,0,1,6.751,7Z" transform="translate(-384.077 -174.141)" fill="#e6e6e6"/>
      <path id="Path_15887" data-name="Path 15887" d="M730.5,173.4H521.118a3.618,3.618,0,0,0-1.319.245,3.738,3.738,0,0,0-2.429,3.5V405.515a3.749,3.749,0,0,0,3.748,3.748H730.5a3.749,3.749,0,0,0,3.748-3.748V177.144A3.749,3.749,0,0,0,730.5,173.4Zm2.249,232.119a2.252,2.252,0,0,1-2.249,2.249H521.118a2.252,2.252,0,0,1-2.249-2.249V177.144a2.252,2.252,0,0,1,2.249-2.249H730.5a2.252,2.252,0,0,1,2.249,2.249Z" transform="translate(-383.076 -173.396)" fill="#e6e6e6"/>
      <circle id="Ellipse_3667" data-name="Ellipse 3667" cx="4.919" cy="4.919" r="4.919" transform="translate(231.377 68.629)" fill="#92bbdf"/>
      <circle id="Ellipse_3668" data-name="Ellipse 3668" cx="4.919" cy="4.919" r="4.919" transform="translate(251.871 68.629)" fill="#92bbdf"/>
      <circle id="Ellipse_3669" data-name="Ellipse 3669" cx="4.919" cy="4.919" r="4.919" transform="translate(190.387 109.275)" fill="#1f2551"/>
      <circle id="Ellipse_3670" data-name="Ellipse 3670" cx="4.919" cy="4.919" r="4.919" transform="translate(210.882 109.275)" fill="#e27438"/>
      <circle id="Ellipse_3671" data-name="Ellipse 3671" cx="4.919" cy="4.919" r="4.919" transform="translate(231.377 129.599)" fill="#e27438"/>
      <circle id="Ellipse_3672" data-name="Ellipse 3672" cx="4.919" cy="4.919" r="4.919" transform="translate(251.871 129.599)" fill="#1f2551"/>
      <circle id="Ellipse_3673" data-name="Ellipse 3673" cx="4.919" cy="4.919" r="4.919" transform="translate(272.366 129.599)" fill="#1f2551"/>
      <path id="Path_15888" data-name="Path 15888" d="M552.6,180.5a.585.585,0,0,0,0,.827h0l2.51,2.51h-6.189a.585.585,0,0,0,0,1.169h6.189l-2.51,2.51a.585.585,0,1,0,.827.827h0l3.508-3.508a.585.585,0,0,0,0-.827l-3.508-3.508A.585.585,0,0,0,552.6,180.5Z" transform="translate(-398.569 -176.863)" fill="#fff"/>
      <path id="Path_15889" data-name="Path 15889" d="M720.368,340.574H588.3c-.511,0-.925-.224-.925-.5s.414-.5.925-.5H720.368c.511,0,.925.224.925.5S720.879,340.574,720.368,340.574Z" transform="translate(-418.096 -256.532)" fill="#e6e6e6"/>
      <path id="Path_15890" data-name="Path 15890" d="M720.368,296.4H588.3c-.511,0-.925-.224-.925-.5s.414-.5.925-.5H720.368c.511,0,.925.224.925.5S720.879,296.4,720.368,296.4Z" transform="translate(-418.096 -234.431)" fill="#e6e6e6"/>
      <path id="Path_15891" data-name="Path 15891" d="M720.913,381.836H588.107a.5.5,0,0,1,0-1H720.913a.5.5,0,0,1,0,1Z" transform="translate(-418.215 -277.175)" fill="#e6e6e6"/>
      <path id="Path_15892" data-name="Path 15892" d="M720.913,421.836H588.107a.5.5,0,0,1,0-1H720.913a.5.5,0,0,1,0,1Z" transform="translate(-418.215 -297.186)" fill="#e6e6e6"/>
      <path id="Path_15893" data-name="Path 15893" d="M720.913,462.836H588.107a.5.5,0,0,1,0-1H720.913a.5.5,0,0,1,0,1Z" transform="translate(-418.215 -317.698)" fill="#e6e6e6"/>
      <path id="Path_15894" data-name="Path 15894" d="M823.37,379.039V296.706c0-.171.224-.31.5-.31s.5.139.5.31v82.333c0,.171-.224.31-.5.31S823.37,379.21,823.37,379.039Z" transform="translate(-536.163 -234.931)" fill="#e6e6e6"/>
      <path id="Path_15895" data-name="Path 15895" d="M782.37,379.039V296.706c0-.171.224-.31.5-.31s.5.139.5.31v82.333c0,.171-.224.31-.5.31S782.37,379.21,782.37,379.039Z" transform="translate(-515.651 -234.931)" fill="#e6e6e6"/>
      <path id="Path_15896" data-name="Path 15896" d="M741.37,379.039V296.706c0-.171.224-.31.5-.31s.5.139.5.31v82.333c0,.171-.224.31-.5.31S741.37,379.21,741.37,379.039Z" transform="translate(-495.139 -234.931)" fill="#e6e6e6"/>
      <path id="Path_15897" data-name="Path 15897" d="M701.37,379.039V296.706c0-.171.224-.31.5-.31s.5.139.5.31v82.333c0,.171-.224.31-.5.31S701.37,379.21,701.37,379.039Z" transform="translate(-475.128 -234.931)" fill="#e6e6e6"/>
      <path id="Path_15898" data-name="Path 15898" d="M659.37,399.949V296.784a.516.516,0,0,1,1,0V399.949a.516.516,0,0,1-1,0Z" transform="translate(-454.116 -234.931)" fill="#e6e6e6"/>
      <path id="Path_15899" data-name="Path 15899" d="M617.37,399.949V296.784a.516.516,0,0,1,1,0V399.949a.516.516,0,0,1-1,0Z" transform="translate(-433.104 -234.931)" fill="#e6e6e6"/>
      <path id="Path_15900" data-name="Path 15900" d="M588.106,503.616a.5.5,0,0,1,0-1l50.853-.221a.513.513,0,0,1,.5.5.5.5,0,0,1-.5.5l-50.852.221Z" transform="translate(-418.214 -337.989)" fill="#e6e6e6"/>
      <path id="Path_15901" data-name="Path 15901" d="M662.507,252.484a.5.5,0,0,1,0-1l71.322-.089h0a.5.5,0,1,1,0,1l-71.322.089Z" transform="translate(-455.435 -212.418)" fill="#e6e6e6"/>
      <path id="Path_15902" data-name="Path 15902" d="M701.311,559.552a10.012,10.012,0,1,1,10.012-10.012A10.012,10.012,0,0,1,701.311,559.552Z" transform="translate(-470.09 -356.566)" fill="#e6e6e6"/>
      <path id="Path_15903" data-name="Path 15903" d="M710.342,553.632h-2.963v-2.963a.988.988,0,1,0-1.975,0v2.963H702.44a.988.988,0,0,0,0,1.975H705.4v2.963a.988.988,0,1,0,1.975,0v-2.963h2.963a.988.988,0,0,0,0-1.975Z" transform="translate(-475.17 -361.645)" fill="#fff"/>
      <path id="Path_15904" data-name="Path 15904" d="M747.311,559.552a10.012,10.012,0,1,1,10.012-10.012,10.012,10.012,0,0,1-10.012,10.012Z" transform="translate(-493.103 -356.566)" fill="#e6e6e6"/>
      <path id="Path_15905" data-name="Path 15905" d="M757.161,558.345l-2.608-3.053a4.235,4.235,0,1,0-1.071,1.054l2.539,2.973a.75.75,0,0,0,1.14-.974Zm-8.815-5.51a2.748,2.748,0,1,1,2.748,2.748A2.749,2.749,0,0,1,748.346,552.835Z" transform="translate(-497.885 -361.11)" fill="#fff"/>
      <path id="Path_15906" data-name="Path 15906" d="M662.507,580.485a.5.5,0,0,1,0-1l71.322-.089h0a.5.5,0,0,1,0,1l-71.322.089Z" transform="translate(-455.435 -376.511)" fill="#e6e6e6"/>
      <path id="Path_15907" data-name="Path 15907" d="M231.73,514.4H238.1l3.033-24.588h-9.409Z" transform="translate(-115.93 -245.043)" fill="#ffb6b6"/>
      <path id="Path_15908" data-name="Path 15908" d="M477.112,705.39v8.26h20.553v-.26a8,8,0,0,0-8-8l-3.759-2.848-.195.08-6.806,2.768Z" transform="translate(-362.935 -438.119)" fill="#2f2e41"/>
      <path id="Path_15909" data-name="Path 15909" d="M116.468,500.4l5.705,2.843,13.683-20.653-8.421-4.2Z" transform="translate(-58.267 -239.33)" fill="#ffb6b6"/>
      <path id="Path_15910" data-name="Path 15910" d="M356.672,698.037l18.395,9.165.115-.23a8,8,0,0,0-3.588-10.729l-2.094-4.223-.22-.015-7.316-.565-.15-.075-1.459-.725Z" transform="translate(-302.681 -432.165)" fill="#2f2e41"/>
      <path id="Path_15911" data-name="Path 15911" d="M430.942,447.942l-35.151,1.23-.245-.356s-3,7-3,12.993c0,1.994,1.387,15.034.682,17.5a7.5,7.5,0,0,1,.318,2.488c-.128.927-.837.214-1,1.5-.117.922,1.13,1.432,1,2.5-.142,1.166-1.857,4.942-2.012,6.238-1.643,13.805-3.832,33.8-3.832,33.8s-8.788,23.538-10.647,23.921c-3.121.642-5.227,6.316-3.5,7.5.823.562,11.466,4.342,11.466,4.342.585.106,2.414-.812,1.249-2.982-.215-.4,1.065.617,1.278.139.226-.508-.218-2.532.041-3.1,2.326-5.069,5.9-12.093,9.281-15.7a34.281,34.281,0,0,0,9.037-19.372l7.762-43.038,2.66,12.069,2.2,2.175-.6,5.072.1,4.923,5.5,20.488s.824,38.263-.5,39.478c-.717.658-3.76,8.764,2,9.495l10.463-.807s1.41-2.971.7-4.028-.663-.769.2-2.5a10.205,10.205,0,0,0,.508-4.662,345.41,345.41,0,0,0,1.619-41.473c-.525-22.739-3.7-48.861-3.7-49.393a3.516,3.516,0,0,1,.293-1.586v-1.435l-1.35-5.086Z" transform="translate(-310.819 -310.747)" fill="#2f2e41"/>
      <path id="Path_15912" data-name="Path 15912" d="M397.4,442.474a3.992,3.992,0,0,1,2.066-5.762l-.253-25.256,6.23,3.941-.716,23.938a4.013,4.013,0,0,1-7.327,3.14Z" transform="translate(-322.783 -292.493)" fill="#ffb8b8"/>
      <path id="Path_15913" data-name="Path 15913" d="M399.021,385.314l.53-.026.063,0,1.962-.007,3.231-.007.234,0,.105.02,1.1.192.046-.3,2.15-4.107,1.653-2.274-.6-2.679-1.186-1.478,2.015-2.442.255-1.206,1.686-7.931,5.59-26.3v-.016l.117-.558,1.818-8.545-.56-2.149-.624-2.359A6.449,6.449,0,0,0,416,319.468a6.368,6.368,0,0,0-1.815-.848,6.234,6.234,0,0,0-2.54-.209l-.01,0a6.431,6.431,0,0,0-1.416.342l-.182.071a6.469,6.469,0,0,0-.738.355,6.371,6.371,0,0,0-3.043,3.867l-5.923,6.6-1.042,3.733-.335,1.2-1.074,6.391.016,25.152-.191,1.139-.272,6.314,1.062,1.447-1.2,1.755-.041.963-.008.248,1.6,1.628.1,3.51Z" transform="translate(-322.983 -245.921)" fill="#3f3d56"/>
      <path id="Path_15914" data-name="Path 15914" d="M412.37,380.3c8.875,1.535,14.827.95,18.49-4.5,4.778-6.084,13.468,1.1,20.8,3.771l.87-.939,1.479-1.594-1.359-1.539,1.359-2.968-1.134-3.663-1.449-.265.39-3.153.61-1.844-1.789-1.964-1.519-4.9,1.094-10.259A68.341,68.341,0,0,0,441.9,305.9l-4.153-3.728-1.724-1.549-2.314-4.318-2.444.285-6.616.765-.225.54-1.624,3.918-5.9,6.338a8.627,8.627,0,0,0-2.27,6.73h0l.17,1.709.125,1.229.59,5.917,2.4,24.171.18,1.284,1.934,13.9c-3.143,3.038-3.335,2.375-4.669,7.722-.15.595-1.889,1.919-2,2.5C413.215,374.125,412.37,380.3,412.37,380.3Z" transform="translate(-330.546 -234.884)" fill="#3f3d56"/>
      <circle id="Ellipse_3674" data-name="Ellipse 3674" cx="11.492" cy="11.492" r="11.492" transform="translate(88.353 35.888)" fill="#ffb6b6"/>
      <path id="Path_15915" data-name="Path 15915" d="M422.111,244.06a5.925,5.925,0,0,1,6.1-1.636,7.751,7.751,0,0,1,13.611-1.968,2.41,2.41,0,0,1,2.359.217,4.97,4.97,0,0,1,1.588,1.873,11.154,11.154,0,0,1-.626,11.437c.45-.908-.815.656-2.047.246-1.059-.277-5.407-3.066-6.492-2.925s-1.437-.734-2.5-1c-1.04-.333-3.694,3.965-4.226,6.809-.1.539-.346,1.209-.894,1.221-.675.015-.877-.952-1.447-1.315a1.162,1.162,0,0,0-1.543.473,1.894,1.894,0,0,0,.032,1.734,5.6,5.6,0,0,0,1.108,1.414l-.295.162a1.539,1.539,0,0,1-1.953-.133c-1.1.5-4.083-2.3-3.686-3.987a18.691,18.691,0,0,1-1.346-6.506A8.93,8.93,0,0,1,422.111,244.06Z" transform="translate(-334.29 -205.331)" fill="#2f2e41"/>
      <path id="Path_15916" data-name="Path 15916" d="M563.19,374.1a3.992,3.992,0,0,1-5.159-3.295l-24.681-5.368,5.227-5.2,23.18,6.019a4.013,4.013,0,0,1,1.432,7.841Z" transform="translate(-391.071 -266.869)" fill="#ffb8b8"/>
      <path id="Path_15917" data-name="Path 15917" d="M453.395,316.522a6.438,6.438,0,0,0-3.9,1.5A6.244,6.244,0,0,0,448,319.83a6.338,6.338,0,0,0-.764,2.432v0a6.4,6.4,0,0,0,3.324,6.277l8.13,4.406,1.03.557c6.927,7.061,18.608,10.751,32.046,13.2l7.726,2.113,2.6-.964.629,2.469,2.586.085,1.406-.292,2.942-1.154.562-1.13v-.005l1.208-5.357.008-.035v-.005l.281-1.226-1.659-.768-1.443-1.928-2.61.052-2.38.207-.7-1.631-30.162-13.957-6.245-2.893-.015-.009-.3-.14-8.147-3.77-2.218.07Z" transform="translate(-347.974 -244.923)" fill="#3f3d56"/>
      <circle id="Ellipse_3675" data-name="Ellipse 3675" cx="4.919" cy="4.919" r="4.919" transform="translate(166.413 103.609)" fill="#1f2551"/>
      <path id="Path_15918" data-name="Path 15918" d="M279.01,684.706a24.324,24.324,0,0,1-19.618-7.318c-3.293-3.472-5.553-7.942-7.739-12.264-.636-1.258-1.294-2.558-1.963-3.8a7.763,7.763,0,0,1,.805-8.661,7.632,7.632,0,0,1,8.147-2.6l.319.092,2.87,11.2c.428-1.671,1.347-5.435,1.928-9.123l.049-.309.286.127a39.04,39.04,0,0,1,8.388,5.055,40.241,40.241,0,0,1,15.048,30.3l.008.348Z" transform="translate(-248.681 -411.706)" fill="#f2f2f2"/>
      <path id="Path_15919" data-name="Path 15919" d="M388.521,725.105l-139.3.154a.595.595,0,1,1,0-1.19l139.3-.154a.595.595,0,1,1,0,1.19Z" transform="translate(-248.63 -448.812)" fill="#cacaca"/>
      <path id="Path_15920" data-name="Path 15920" d="M732.1,235.714H705.619a2.249,2.249,0,0,1,0-4.5H732.1a2.249,2.249,0,1,1,0,4.5Z" transform="translate(-476.129 -202.323)" fill="#e6e6e6"/>
      <path id="Path_15921" data-name="Path 15921" d="M922.292,190.979a5.506,5.506,0,1,1,5.506-5.506,5.506,5.506,0,0,1-5.506,5.506Z" transform="translate(-582.897 -176.684)" fill="#e6e6e6"/>
    </g>
    <g id="Group_15832" data-name="Group 15832" transform="translate(-11972.404 -499.78)">
      <g id="Group_15679" data-name="Group 15679" transform="translate(12187 177)">
        <rect id="Rectangle_4587" data-name="Rectangle 4587" width="16.499" height="16.337" rx="8.169" transform="translate(412.66 805.848)" fill="#1f2559"/>
        <text id="Office" transform="translate(436.021 805.848)" fill="#041027" font-size="12" font-family="OpenSans, Open Sans" letter-spacing="0.02em"><tspan x="0" y="13">Office</tspan></text>
        <rect id="Rectangle_4588" data-name="Rectangle 4588" width="16.499" height="16.337" rx="8.169" transform="translate(507.158 805.78)" fill="#f36c20"/>
        <rect id="Rectangle_4589" data-name="Rectangle 4589" width="16.499" height="16.337" rx="8.169" transform="translate(610.158 805.78)" fill="#86bce3"/>
        <text id="Home" transform="translate(530.021 805.78)" fill="#041027" font-size="12" font-family="OpenSans, Open Sans" letter-spacing="0.02em"><tspan x="0" y="13">Home</tspan></text>
        <text id="Leave" transform="translate(633.217 805.78)" fill="#041027" font-size="12" font-family="OpenSans, Open Sans" letter-spacing="0.02em"><tspan x="0" y="13">Leave</tspan></text>
      </g>
    </g>
  </g>
</svg>
