<svg xmlns="http://www.w3.org/2000/svg" width="286.462" height="273.812" viewBox="0 0 286.462 273.812">
  <g id="undraw_preferences_popup_re_4qk0" transform="translate(-0.001 0)">
    <path id="Path_15922" data-name="Path 15922" d="M329.844,548.9l-52.416-24.138a7.845,7.845,0,0,1-3.84-10.4l6.753-14.664a7.845,7.845,0,0,1,10.4-3.84L343.152,520a7.845,7.845,0,0,1,3.84,10.4l-6.753,14.664A7.845,7.845,0,0,1,329.844,548.9Z" transform="translate(-272.87 -338.474)" fill="#f2f2f2"/>
    <path id="Path_15923" data-name="Path 15923" d="M340.113,551.945l-31.865-14.674a4.463,4.463,0,0,1-2.184-5.914l5.351-11.619a4.463,4.463,0,0,1,5.914-2.184l31.865,14.674a4.463,4.463,0,0,1,2.184,5.914l-5.351,11.619A4.463,4.463,0,0,1,340.113,551.945Z" transform="translate(-291.3 -350.84)" fill="#fff"/>
    <path id="Path_15924" data-name="Path 15924" d="M339.368,551.781,307.5,537.107a4.9,4.9,0,0,1-2.4-6.495l5.351-11.619a4.9,4.9,0,0,1,6.495-2.4l31.865,14.674a4.9,4.9,0,0,1,2.4,6.495l-5.351,11.619a4.9,4.9,0,0,1-6.495,2.4ZM316.583,517.39a4.025,4.025,0,0,0-5.333,1.97L305.9,530.979a4.025,4.025,0,0,0,1.97,5.333l31.865,14.674a4.025,4.025,0,0,0,5.333-1.97l5.351-11.619a4.025,4.025,0,0,0-1.97-5.333Z" transform="translate(-290.737 -350.278)" fill="#3f3d56"/>
    <path id="Path_15925" data-name="Path 15925" d="M362.509,554.229l-.176-.081a.775.775,0,0,1,.649-1.408l.176.081a.775.775,0,0,1-.649,1.408Z" transform="translate(-322.908 -370.81)" fill="#ccc"/>
    <path id="Path_15926" data-name="Path 15926" d="M367.54,567.268l-9.683-4.459a.775.775,0,0,1,.649-1.408l9.683,4.459a.775.775,0,0,1-.649,1.409Z" transform="translate(-320.392 -375.679)" fill="#ccc"/>
    <circle id="Ellipse_3676" data-name="Ellipse 3676" cx="5.198" cy="5.198" r="5.198" transform="translate(25.297 175.522)" fill="#6c63ff"/>
    <path id="Path_15927" data-name="Path 15927" d="M613.963,324.342H419.241a17.722,17.722,0,0,1-17.7-17.7V155.018a17.722,17.722,0,0,1,17.7-17.7H613.963a17.722,17.722,0,0,1,17.7,17.7V306.64a17.722,17.722,0,0,1-17.7,17.7Z" transform="translate(-345.201 -137.316)" fill="#f2f2f2"/>
    <path id="Path_15928" data-name="Path 15928" d="M635.679,332.929H524.9a10.082,10.082,0,0,1-10.07-10.07v-106.4a10.082,10.082,0,0,1,10.07-10.07H635.679a10.082,10.082,0,0,1,10.07,10.07v106.4A10.082,10.082,0,0,1,635.679,332.929Z" transform="translate(-408.891 -176.148)" fill="#fff"/>
    <path id="Path_15929" data-name="Path 15929" d="M635.679,332.929H524.9a10.082,10.082,0,0,1-10.07-10.07v-106.4a10.082,10.082,0,0,1,10.07-10.07H635.679a10.082,10.082,0,0,1,10.07,10.07v106.4A10.082,10.082,0,0,1,635.679,332.929ZM524.9,207.268a9.205,9.205,0,0,0-9.195,9.195v106.4a9.205,9.205,0,0,0,9.195,9.195H635.679a9.205,9.205,0,0,0,9.195-9.195v-106.4a9.205,9.205,0,0,0-9.195-9.195Z" transform="translate(-408.891 -176.148)" fill="#3f3d56"/>
    <path id="Path_15930" data-name="Path 15930" d="M634.875,290.367H616.269a1.777,1.777,0,0,1,0-3.554h18.607a1.777,1.777,0,1,1,0,3.554Z" transform="translate(-464.915 -221.357)" fill="#6c63ff"/>
    <path id="Path_15931" data-name="Path 15931" d="M729.875,451.367H711.269a1.777,1.777,0,1,1,0-3.554h18.607a1.777,1.777,0,1,1,0,3.554Z" transform="translate(-518.32 -311.864)" fill="#6c63ff"/>
    <path id="Path_15932" data-name="Path 15932" d="M676.586,306.965H616.269a1.777,1.777,0,0,1,0-3.554h60.317a1.777,1.777,0,0,1,0,3.554Z" transform="translate(-464.915 -230.688)" fill="#e6e6e6"/>
    <circle id="Ellipse_3677" data-name="Ellipse 3677" cx="5.364" cy="5.364" r="5.364" transform="translate(130.666 65.037)" fill="#6c63ff"/>
    <circle id="Ellipse_3678" data-name="Ellipse 3678" cx="5.364" cy="5.364" r="5.364" transform="translate(112.715 37.891)" fill="#f2f2f2"/>
    <path id="Path_15933" data-name="Path 15933" d="M579.236,297.312a.6.6,0,0,1-.477-.239l-1.463-1.951a.6.6,0,0,1,.955-.716l.957,1.276,2.459-3.689a.6.6,0,0,1,1,.658l0,0-2.927,4.39a.6.6,0,0,1-.48.266Z" transform="translate(-443.937 -224.119)" fill="#fff"/>
    <path id="Path_15934" data-name="Path 15934" d="M676.586,350.965H616.269a1.777,1.777,0,0,1,0-3.554h60.317a1.777,1.777,0,1,1,0,3.554Z" transform="translate(-464.915 -255.423)" fill="#e6e6e6"/>
    <path id="Path_15935" data-name="Path 15935" d="M576.1,349.46a5.8,5.8,0,1,1,5.8-5.8A5.8,5.8,0,0,1,576.1,349.46Zm0-10.728a4.926,4.926,0,1,0,4.926,4.926A4.926,4.926,0,0,0,576.1,338.732Z" transform="translate(-440.072 -250.051)" fill="#e6e6e6"/>
    <path id="Path_15936" data-name="Path 15936" d="M634.875,396.367H616.269a1.777,1.777,0,0,1,0-3.554h18.607a1.777,1.777,0,1,1,0,3.554Z" transform="translate(-464.915 -280.946)" fill="#e6e6e6"/>
    <path id="Path_15937" data-name="Path 15937" d="M676.586,412.965H616.269a1.777,1.777,0,1,1,0-3.554h60.317a1.777,1.777,0,1,1,0,3.554Z" transform="translate(-464.915 -290.277)" fill="#e6e6e6"/>
    <path id="Path_15938" data-name="Path 15938" d="M576.1,402.46a5.8,5.8,0,1,1,5.8-5.8A5.8,5.8,0,0,1,576.1,402.46Zm0-10.729a4.927,4.927,0,1,0,4.926,4.927A4.927,4.927,0,0,0,576.1,391.731Z" transform="translate(-440.072 -279.845)" fill="#e6e6e6"/>
    <path id="Path_15939" data-name="Path 15939" d="M541.452,232.348h-3.945l1.5-1.53a.37.37,0,1,0-.529-.518l-2.112,2.158a.37.37,0,0,0,0,.517l2.112,2.159a.37.37,0,1,0,.529-.517l-1.5-1.529h3.945a.37.37,0,0,0,0-.74Z" transform="translate(-420.934 -189.526)" fill="#3f3d56"/>
    <path id="Path_15940" data-name="Path 15940" d="M183.392,591.459h4.335l2.062-16.721h-6.4Z" transform="translate(-103.094 -323.093)" fill="#a0616a"/>
    <path id="Path_15941" data-name="Path 15941" d="M455.914,751.321h13.331v-.169a5.189,5.189,0,0,0-5.188-5.189h0l-2.435-1.847-4.543,1.848h-1.164Z" transform="translate(-375.768 -478.434)" fill="#2f2e41"/>
    <path id="Path_15942" data-name="Path 15942" d="M138.392,591.459h4.335l2.062-16.721h-6.4Z" transform="translate(-77.797 -323.093)" fill="#a0616a"/>
    <path id="Path_15943" data-name="Path 15943" d="M410.914,751.321h13.331v-.169a5.189,5.189,0,0,0-5.188-5.189h0l-2.435-1.847-4.543,1.848h-1.164Z" transform="translate(-350.471 -478.434)" fill="#2f2e41"/>
    <path id="Path_15944" data-name="Path 15944" d="M434.685,503.646s7.006,8.689,5.648,10.942-3.548,1.473-1.358,3.833,3.066,2.388,1.533,4.126-2.865,39.716-2.865,39.716l-6.987,39.519-7.69.693a41.137,41.137,0,0,1-1.47-6.7c-.035-1.872-.035-.241-.035-4.121s1.384-.874.035-4.566-3.03-14.569,0-19.858.648-.649.648-.649L419.8,530.738l-4.466,36.893s0,12.7-2.189,21.892l-.362,12.953-9.436-.361a12.322,12.322,0,0,1-1.586-8.213c.876-4.378-2.627-6.568-2.627-8.757s.184-23.13.184-23.13l2.046-43.594s-1.793-9.9,2.148-13.84S434.685,503.646,434.685,503.646Z" transform="translate(-343.847 -342.635)" fill="#2f2e41"/>
    <path id="Path_15945" data-name="Path 15945" d="M416.3,328.058l9.195.438q-.106,4.026,4.4,7.6l5.008,5.159,1.313,11.384L434.9,395.544l7.443,17.514c-10,3.909-21.693,5.643-38.092,1.314-1.849-1.972.514-13.469,1.589-22.053,0,0,2.327-3.576.226-6.161s.812-18.635.812-18.635l.876-17.952c-.5-5.81-4.622-10.184-.04-13.791h0A26.654,26.654,0,0,0,416.3,328.058Z" transform="translate(-346.34 -244.543)" fill="#6c63ff"/>
    <path id="Path_15946" data-name="Path 15946" d="M426.735,342.722l6.247,1.874,5.31,13.119-3.257,40.9s-.653,2.474.549,2.113.712,2.739.712,2.739l4.431,17.041-42.26-3.445,4.216-18.112s-3.11.1-.923-2.086,1.435-.86-.665-3.445a4.533,4.533,0,0,1-.6-5.089l-.937-12.807L398.014,357.5a17.319,17.319,0,0,1,6.543-15.087h0C411.081,338.534,418.642,339.409,426.735,342.722Z" transform="translate(-343.184 -251.173)" fill="#3f3d56"/>
    <path id="Path_15947" data-name="Path 15947" d="M380.823,509.083a3.391,3.391,0,0,1,.84-4.654,3.251,3.251,0,0,1,.466-.268l-1.139-11.774,5.771-2.68-.184,16.3a3.381,3.381,0,0,1-1.2,3.95,3.236,3.236,0,0,1-4.506-.8Z" transform="translate(-333.23 -335.415)" fill="#a0616a"/>
    <path id="Path_15948" data-name="Path 15948" d="M372.119,403.013l4.378,22.33.521-.035,5.075-.363.534-.039-.438-20.141c-1.165-1.187.81-5.25,3.4-10.154.959-1.808,2-3.735,3-5.67.18-.346.355-.692.53-1.038a59.609,59.609,0,0,0,3.275-7.43l-7.255-20.587-.184-.525s-1.546,3.687-3.568,9.024q-.23.6-.46,1.222C377.071,379.912,371.865,395.351,372.119,403.013Z" transform="translate(-328.658 -262.14)" fill="#3f3d56"/>
    <path id="Path_15949" data-name="Path 15949" d="M557.66,303.425a3.391,3.391,0,0,1-4.235,2.106,3.25,3.25,0,0,1-.493-.214l-8.764,7.945-5.6-3.029,13.183-9.585a3.381,3.381,0,0,1,3.884-1.4,3.236,3.236,0,0,1,2.051,4.091C557.68,303.369,557.671,303.4,557.66,303.425Z" transform="translate(-422.236 -228.257)" fill="#a0616a"/>
    <path id="Path_15950" data-name="Path 15950" d="M430.241,349.458s13.009-3.218,25.065-7.479c.318-.111.631-.225.944-.338,6.858-2.465,13.281-5.252,16.672-7.954l15.3-16.847-.339-.394-3.326-3.852-.348-.406-15.891,12.378c-.254,1.6-4.5,2.448-9.809,3.276-.3.049-.612.23-.91.138-5-1.553-10.648,1.012-14.863,2.9Z" transform="translate(-361.336 -235.622)" fill="#3f3d56"/>
    <circle id="Ellipse_3679" data-name="Ellipse 3679" cx="10.996" cy="10.996" r="10.996" transform="translate(63.975 60.122)" fill="#a0616a"/>
    <path id="Path_15951" data-name="Path 15951" d="M421.079,290.7c1.839-.864,3.988-.339,6.018-.259s4.491-.686,4.922-2.672c.319-1.468-.639-3.078-.036-4.454.658-1.5,2.633-1.714,4.217-2.134a9.72,9.72,0,0,0,7.019-9.1c.11.82-1.293,1.089-1.754.4a2.042,2.042,0,0,1,.365-2.291,13.864,13.864,0,0,0,1.577-1.907,1.605,1.605,0,0,0-.44-2.175,6.11,6.11,0,0,1-3.87,3.184,3.011,3.011,0,0,0-.915-2.961,8.861,8.861,0,0,0-2.8-1.647c-2.535-1.1-5.494-2.192-7.949-.924a4.753,4.753,0,0,0-2.457,3.326c-4.541.384-9.2,5.3-8.945,9.852.278,4.9.481,5.294,4.558,13.536" transform="translate(-353.344 -208.077)" fill="#2f2e41"/>
    <path id="Path_15952" data-name="Path 15952" d="M317.609,744.534l0-.13a14.968,14.968,0,0,1,5.6-11.272,14.52,14.52,0,0,1,3.12-1.88l.106-.047.018.115c.216,1.372.558,2.772.717,3.393l1.068-4.166.119-.034a2.839,2.839,0,0,1,3.03.968,2.888,2.888,0,0,1,.3,3.222c-.249.464-.493.947-.73,1.415a18.848,18.848,0,0,1-2.879,4.562,9.047,9.047,0,0,1-7.3,2.722Z" transform="translate(-298.019 -470.722)" fill="#f2f2f2"/>
    <path id="Path_15953" data-name="Path 15953" d="M421.577,761.013l-104.973.135a.521.521,0,1,1,0-1.043l104.973-.135a.521.521,0,0,1,0,1.043Z" transform="translate(-297.162 -487.346)" fill="#cacaca"/>
  </g>
</svg>
