<svg xmlns="http://www.w3.org/2000/svg" width="187.402" height="170.206" viewBox="0 0 187.402 170.206">
  <g id="_1" data-name="1" transform="translate(0)">
    <path id="Path_16854" data-name="Path 16854" d="M409.719,134.1a84.7,84.7,0,0,1-7.25,34.423q-.232.525-.471,1.044c-.078.174-.159.346-.24.52s-.161.346-.244.518c-.106.223-.212.444-.32.664-.134.278-.27.554-.41.83q-.025.057-.057.115c-.117.233-.233.467-.354.7-.025.051-.051.1-.079.151-.138.272-.28.543-.424.813v0q-.229.43-.461.857-.573,1.057-1.178,2.095c-.121.206-.24.412-.363.615s-.225.38-.34.569c-.079.132-.157.261-.238.39q-.191.315-.388.63s0,0,0,0c-.291.467-.588.932-.887,1.392h0c-.138.214-.278.427-.418.639v0q-.633.955-1.292,1.891v0l0,0v0l0,0q-.522.748-1.065,1.483v0c-.231.314-.465.628-.7.938q-.29.382-.586.762c-.04.055-.083.108-.127.163v0c-.053.07-.106.138-.163.208v0q-1.257,1.608-2.591,3.152h0c-.047.057-.1.112-.144.168s-.1.11-.146.168h0c-.074.087-.151.174-.227.261s-.153.174-.231.261v0a85.288,85.288,0,0,1-15.662,13.816q-1.152.793-2.334,1.543c-.2.125-.391.248-.588.371-.059.04-.119.076-.178.112l-.316.2c-.1.064-.21.129-.316.193-.422.259-.849.514-1.276.764-.106.064-.214.125-.323.189l-.323.185a.02.02,0,0,1-.013.008l0,0,0,0h0c-.535.308-1.072.611-1.615.9q-1.458.8-2.946,1.534c-.246.123-.495.244-.743.365-.206.1-.414.2-.62.3-.057.028-.112.055-.17.081-.172.081-.344.161-.516.24s-.376.174-.562.259c-.21.1-.418.189-.628.282-.789.352-1.587.692-2.388,1.019a83.226,83.226,0,0,1-8.75,3.026c-.138.04-.278.081-.418.119q-1.907.535-3.841.978-3.378.777-6.817,1.275l-.015,0c-.274.04-.55.079-.823.117-.023,0-.049.008-.074.011,0,0,0,0-.008,0s0,0,0,0c-.3.04-.607.081-.913.119-.021,0-.042.006-.064.008-.284.034-.571.068-.857.1-.308.034-.615.066-.925.1-.236.023-.471.047-.707.068a.326.326,0,0,1-.064.006c-.214.019-.429.038-.643.055l-.028,0c-.187.017-.374.03-.56.045q-3.295.261-6.653.259-3.645,0-7.216-.3l-.025,0q-.761-.064-1.52-.14l-.4-.04c-.025,0-.051,0-.076-.008l-.123-.013c-.021,0-.045,0-.066-.008-.176-.019-.352-.038-.531-.059-.2-.023-.4-.047-.594-.072s-.4-.049-.594-.076c-.042,0-.087-.008-.129-.017-.144-.017-.289-.036-.431-.057-.07-.008-.138-.019-.206-.03-.138-.019-.274-.038-.412-.059l-.015,0a83.866,83.866,0,0,1-12.8-2.884h0c-.227-.07-.454-.142-.681-.214q-.1-.029-.2-.064-.885-.283-1.759-.586-1.207-.414-2.4-.866l-.647-.248c-.431-.17-.86-.34-1.286-.514q-1.092-.446-2.169-.919h0v0q-1.006-.443-2-.913a.214.214,0,0,1-.055-.025s0,0,0,0c-.146-.068-.293-.138-.439-.208l0,0a84.236,84.236,0,0,1-10.5-6q-1.614-1.079-3.173-2.231-1.257-.926-2.479-1.9a85.241,85.241,0,0,1-11.214-10.715h0v0c-.24-.274-.473-.545-.711-.821v0c-.034-.038-.066-.076-.1-.115-.151-.176-.3-.35-.444-.528v0q-.3-.353-.586-.709c-.042-.051-.083-.1-.123-.151h0v0c-.157-.191-.312-.384-.465-.577-.079-.1-.155-.193-.231-.291h0v0q-.694-.875-1.36-1.768v0c-.123-.163-.244-.327-.363-.492h0q-.853-1.152-1.662-2.332v0q-.306-.442-.6-.891t-.592-.9h0q-.3-.465-.6-.934c-.011-.017-.021-.032-.03-.047q-.293-.462-.577-.93c-.153-.248-.3-.494-.45-.743-.1-.168-.2-.333-.3-.5-.036-.057-.068-.115-.1-.17-.225-.384-.446-.768-.666-1.155-.257-.454-.511-.913-.76-1.371-.1-.189-.2-.38-.3-.571-.036-.062-.068-.123-.1-.187-.119-.225-.238-.45-.354-.677s-.233-.452-.348-.679-.229-.454-.342-.683c-.085-.172-.17-.346-.253-.518a.439.439,0,0,1-.023-.045c-.038-.081-.079-.159-.115-.24a.14.14,0,0,1-.019-.04c-.087-.178-.172-.354-.255-.533-.11-.229-.216-.461-.323-.692-.076-.161-.149-.325-.223-.488q-.159-.344-.312-.694c-.108-.24-.212-.482-.316-.724-.028-.062-.053-.121-.079-.183-.049-.11-.1-.221-.142-.331-.125-.293-.248-.59-.369-.885q-.207-.5-.4-1-.188-.468-.365-.938l-.045-.115v0a84.727,84.727,0,0,1-4.168-14.954v0a84.863,84.863,0,0,1-1.129-8.8c-.013-.161-.023-.323-.034-.484q-.21-3-.206-6.015,0-1.34.042-2.668a84.709,84.709,0,0,1,18.778-50.714q.767-.952,1.562-1.88a85.115,85.115,0,0,1,136.687,9.82q1.178,1.853,2.254,3.773A84.692,84.692,0,0,1,409.719,134.1Z" transform="translate(-222.317 -49)" fill="#f2f2f2"/>
    <path id="Path_16855" data-name="Path 16855" d="M804.458,735.688q-.458,1.267-.915,2.534c-.057.161-.117.32-.174.482q-1.165,3.228-2.332,6.458c-.246.123-.495.244-.743.365-.206.1-.414.2-.62.3-.057.028-.112.055-.17.081-.172.081-.344.161-.516.24s-.376.174-.562.259c-.21.1-.418.189-.628.282a2.818,2.818,0,0,1-.185-.889,5.238,5.238,0,0,1,.168-1.418c.185-.764.478-1.513.671-2.279.011-.036.019-.074.028-.11a8.351,8.351,0,0,0-.565-5.452,19.624,19.624,0,0,1-1.466-3.02,4.359,4.359,0,0,1,.325-3.031,4.859,4.859,0,0,1,.652-1.014c.061-.079.127-.153.2-.227a4.3,4.3,0,0,1,2.364-1.326,4.67,4.67,0,0,1,4.537,2.073,4.159,4.159,0,0,1,.707,1.967A8.974,8.974,0,0,1,804.458,735.688Z" transform="translate(-660.948 -583.786)" fill="#e4e4e4"/>
    <path id="Path_16856" data-name="Path 16856" d="M725.57,747.185a7.5,7.5,0,0,1-1.195-2.209c-.414-2.657-1.411-4.563-3.065-5.643-.48-.312-.556-1-.851-1.5-.132-.223-.265-.446-.4-.664q-.334-.544-.7-1.068a17.354,17.354,0,0,0-1.509-1.919c-.227-.253-.467-.5-.715-.728l0,0c-.155-.149-.312-.291-.475-.429q-.1-.083-.2-.166l0,0a10.189,10.189,0,0,0-.9-.7,2.727,2.727,0,0,0-2.366-.554,5.174,5.174,0,0,0-.942.433c-.153.087-.3.178-.454.27-.1.062-.2.123-.306.187-.083.049-.166.1-.248.144q-.961.554-1.931,1.087c-.093.053-.187.1-.282.155h0c-.066.038-.134.074-.2.11-.129.072-.261.144-.391.214q-.582.315-1.167.624c-.2.106-.4.208-.6.31-.093.047-.187.093-.278.142h0l-.1.051c-.276.142-.548.289-.811.448a6.653,6.653,0,0,0-1.95,1.789c-.1.14-.2.284-.289.433a6.183,6.183,0,0,0-.318.594c-.066.138-.127.276-.182.416v0a6.657,6.657,0,0,0-.208,4.2v0c.025.1.053.189.085.282.051.157.108.314.172.467a5.136,5.136,0,0,0,.238.5v0a9.423,9.423,0,0,0,1.749,2.169l.021.021.257.25c.047.045.1.089.146.132.734.63,1.921,1.108,2.591,1.755a1.343,1.343,0,0,1,.486,1.229,5.081,5.081,0,0,0,.053,2.685c.611,1.477,2.53.726,3.843,1.017.14-.038.28-.078.418-.119a83.233,83.233,0,0,0,8.75-3.026c.8-.327,1.6-.666,2.388-1.019.21-.093.418-.187.628-.282.187-.085.376-.17.562-.259s.344-.159.516-.24c.057-.025.113-.053.17-.081.206-.1.414-.2.62-.3C726.007,747.993,725.788,747.588,725.57,747.185Z" transform="translate(-586.872 -586.662)" fill="#e4e4e4"/>
    <path id="Path_16857" data-name="Path 16857" d="M696.886,697.815c.446-1.347-.167-2.236-1.746-2.708a.435.435,0,0,0-.707.19l-1.378,4.083c-1.442-.369-2.5-.116-2.729,1.31.569-1.452.034-2.363-1.567-2.752a.435.435,0,0,0-.717.163l-.906,3.678a9.338,9.338,0,1,0,9.749-3.963Z" transform="translate(-573.715 -557.897)" fill="#e4e4e4"/>
    <path id="Path_16858" data-name="Path 16858" d="M730.669,758.892a.8.8,0,0,1-1.079-.325.114.114,0,1,1,.2-.108.569.569,0,0,0,1-.538.114.114,0,1,1,.2-.108.8.8,0,0,1-.325,1.079Z" transform="translate(-608.376 -607.336)" fill="#fff"/>
    <ellipse id="Ellipse_3775" data-name="Ellipse 3775" cx="0.911" cy="0.35" rx="0.911" ry="0.35" transform="matrix(0.881, -0.473, 0.473, 0.881, 120.326, 149.695)" fill="#fff"/>
    <path id="Path_16859" data-name="Path 16859" d="M702.462,740.167A2.027,2.027,0,0,1,705.2,738.7a2.253,2.253,0,1,0-2.842,1.441h0Z" transform="translate(-585.713 -589.996)" fill="#fff"/>
    <circle id="Ellipse_3776" data-name="Ellipse 3776" cx="0.775" cy="0.775" r="0.775" transform="translate(116.647 147.802)" fill="#3f3d56"/>
    <path id="Path_16860" data-name="Path 16860" d="M727.738,727.026a2.027,2.027,0,0,1,2.742-1.471A2.253,2.253,0,1,0,727.638,727h0Z" transform="translate(-605.625 -579.644)" fill="#fff"/>
    <circle id="Ellipse_3777" data-name="Ellipse 3777" cx="0.775" cy="0.775" r="0.775" transform="translate(122.296 144.97)" fill="#3f3d56"/>
    <rect id="Rectangle_4774" data-name="Rectangle 4774" width="3.778" height="0.374" transform="translate(124.314 148.389) rotate(-45.539)" fill="#fff"/>
    <rect id="Rectangle_4775" data-name="Rectangle 4775" width="3.778" height="0.374" transform="matrix(0.846, -0.533, 0.533, 0.846, 124.603, 149.009)" fill="#fff"/>
    <rect id="Rectangle_4776" data-name="Rectangle 4776" width="3.778" height="0.374" transform="translate(114.928 152.149) rotate(-10.898)" fill="#fff"/>
    <rect id="Rectangle_4777" data-name="Rectangle 4777" width="3.778" height="0.374" transform="translate(115.549 153.571) rotate(-24.244)" fill="#fff"/>
    <path id="Path_16861" data-name="Path 16861" d="M168.239,396.478c-7.256-6.531-11.65-16.915-8.95-26.3a44.978,44.978,0,0,0,25.328,17.665c3.962,1.033,8.476,1.769,10.886,5.078a10.054,10.054,0,0,1,1.493,7.3,29.859,29.859,0,0,1-2.331,7.255l.052.634C185.136,406.252,175.5,403.008,168.239,396.478Z" transform="translate(-158.487 -302.018)" fill="#e6e6e6"/>
    <path id="Path_16862" data-name="Path 16862" d="M161.613,369.66a38.444,38.444,0,0,0,12.278,20.217,16.555,16.555,0,0,0,4.359,2.811,9.5,9.5,0,0,0,4.963.583,19.65,19.65,0,0,1,4.739-.413,5.814,5.814,0,0,1,4.055,2.482,15.105,15.105,0,0,1,2.18,5.6c.5,2.177.988,4.446,2.425,6.225.174.216-.171.473-.344.258-2.5-3.1-2.158-7.38-3.969-10.8a5.888,5.888,0,0,0-4.009-3.282,15.245,15.245,0,0,0-4.819.328,10.132,10.132,0,0,1-4.874-.389,15.3,15.3,0,0,1-4.451-2.633,37.3,37.3,0,0,1-7.738-8.719,39.126,39.126,0,0,1-5.222-12.22C161.122,369.44,161.55,369.393,161.613,369.66Z" transform="translate(-160.608 -301.467)" fill="#fff"/>
    <path id="Path_16863" data-name="Path 16863" d="M183.313,456.641a5.768,5.768,0,0,1-7.467.144c-.214-.176.049-.516.264-.34a5.341,5.341,0,0,0,6.946-.148C183.262,456.113,183.518,456.458,183.313,456.641Z" transform="translate(-172.099 -369.816)" fill="#fff"/>
    <path id="Path_16864" data-name="Path 16864" d="M252.194,452.584a11.117,11.117,0,0,0-2.411-7.735c-.173-.216.171-.474.344-.258a11.563,11.563,0,0,1,2.492,8.054C252.6,452.921,252.174,452.859,252.194,452.584Z" transform="translate(-230.37 -360.572)" fill="#fff"/>
    <path id="Path_16865" data-name="Path 16865" d="M176.723,399.621a3.265,3.265,0,0,0,1.641-2.627c.017-.277.443-.214.426.061a3.659,3.659,0,0,1-1.809,2.911.222.222,0,0,1-.3-.043A.216.216,0,0,1,176.723,399.621Z" transform="translate(-172.785 -322.999)" fill="#fff"/>
    <path id="Path_16866" data-name="Path 16866" d="M270.732,307.993c-.006.173-.011.346-.014.522a42.994,42.994,0,0,0,.375,6.965c.021.179.046.36.072.537a45.328,45.328,0,0,0,5.42,15.784,44.015,44.015,0,0,0,3.737,5.547c1.912,2.419,4.178,4.889,5.151,7.715a7.551,7.551,0,0,1,.259.9l-9.106,13.054c-.036.019-.068.041-.1.06l-.34.538c-.078-.085-.156-.176-.234-.261-.045-.049-.089-.1-.134-.151-.03-.034-.059-.068-.088-.1l-.027-.032c-.029-.029-.052-.059-.078-.085q-.663-.754-1.317-1.521s0,0,0-.007a64.72,64.72,0,0,1-8.612-12.649c-.069-.136-.14-.275-.2-.417a42.01,42.01,0,0,1-2.535-6.369,37.135,37.135,0,0,1-.905-3.647,30.879,30.879,0,0,1-.326-9.649c.794-6.406,3.628-12.487,8.628-16.437C270.475,308.19,270.6,308.092,270.732,307.993Z" transform="translate(-239.626 -253.028)" fill="#e6e6e6"/>
    <path id="Path_16867" data-name="Path 16867" d="M292.118,307.45a38.444,38.444,0,0,0-2.369,23.534,16.554,16.554,0,0,0,1.788,4.869,9.495,9.495,0,0,0,3.612,3.453,19.651,19.651,0,0,1,4.033,2.523,5.814,5.814,0,0,1,1.743,4.424,15.105,15.105,0,0,1-1.632,5.785c-.91,2.04-1.888,4.145-1.811,6.43.009.277-.421.275-.43,0-.133-3.977,2.72-7.192,3.333-11.013a5.888,5.888,0,0,0-1.225-5.034,15.248,15.248,0,0,0-4.045-2.64,10.132,10.132,0,0,1-3.658-3.245,15.3,15.3,0,0,1-1.969-4.782,37.3,37.3,0,0,1-.929-11.62,39.126,39.126,0,0,1,3.188-12.9C291.858,306.978,292.228,307.2,292.118,307.45Z" transform="translate(-260.866 -252.339)" fill="#fff"/>
    <path id="Path_16868" data-name="Path 16868" d="M268.809,390.482a5.768,5.768,0,0,1-6.049-4.381c-.065-.269.35-.382.415-.113a5.341,5.341,0,0,0,5.635,4.063C269.086,390.029,269.083,390.46,268.809,390.482Z" transform="translate(-240.625 -314.349)" fill="#fff"/>
    <path id="Path_16869" data-name="Path 16869" d="M316.283,428.269a11.117,11.117,0,0,0,2.732-7.627c-.008-.277.422-.275.43,0a11.563,11.563,0,0,1-2.859,7.931c-.183.209-.485-.1-.3-.305Z" transform="translate(-282.75 -341.606)" fill="#fff"/>
    <path id="Path_16870" data-name="Path 16870" d="M292.058,344.325a3.265,3.265,0,0,0,2.892-1.11c.18-.211.482.1.3.305a3.659,3.659,0,0,1-3.2,1.235.222.222,0,0,1-.214-.216A.216.216,0,0,1,292.058,344.325Z" transform="translate(-263.54 -280.719)" fill="#fff"/>
    <path id="Path_16871" data-name="Path 16871" d="M632.849,241.081c1.265-7-.837-14.935-6.576-19.131a32.756,32.756,0,0,1-6.7,21.467c-1.82,2.362-4.091,4.8-4,7.779a7.323,7.323,0,0,0,2.4,4.87,21.753,21.753,0,0,0,4.578,3.138l.253.388C627.48,254.245,631.584,248.077,632.849,241.081Z" transform="translate(-518.56 -185.245)" fill="#e6e6e6"/>
    <path id="Path_16872" data-name="Path 16872" d="M643.067,221.556a28,28,0,0,1,1.948,17.115,12.057,12.057,0,0,1-1.256,3.563,6.915,6.915,0,0,1-2.6,2.549,14.314,14.314,0,0,0-2.913,1.876,4.234,4.234,0,0,0-1.228,3.238,11,11,0,0,0,1.243,4.2,10.8,10.8,0,0,1,1.38,4.665c0,.2.309.2.313-.005.059-2.9-2.049-5.211-2.532-7.988a4.288,4.288,0,0,1,.844-3.678,11.1,11.1,0,0,1,2.921-1.961,7.379,7.379,0,0,0,2.633-2.4,11.147,11.147,0,0,0,1.388-3.5,27.163,27.163,0,0,0,.566-8.471,28.492,28.492,0,0,0-2.444-9.365c-.083-.183-.351-.019-.268.163Z" transform="translate(-535.458 -184.743)" fill="#fff"/>
    <path id="Path_16873" data-name="Path 16873" d="M676.43,281.686a4.2,4.2,0,0,0,4.364-3.247c.045-.2-.259-.275-.3-.078a3.89,3.89,0,0,1-4.065,3.013C676.224,281.359,676.23,281.673,676.43,281.686Z" transform="translate(-566.388 -229.594)" fill="#fff"/>
    <path id="Path_16874" data-name="Path 16874" d="M650.3,309.75a8.1,8.1,0,0,1-2.062-5.528c0-.2-.31-.2-.313.005a8.421,8.421,0,0,0,2.157,5.748C650.214,310.126,650.431,309.9,650.3,309.75Z" transform="translate(-544.049 -249.94)" fill="#fff"/>
    <path id="Path_16875" data-name="Path 16875" d="M666.475,248.4a2.378,2.378,0,0,1-2.117-.781c-.133-.152-.35.074-.218.225a2.665,2.665,0,0,0,2.34.869.162.162,0,0,0,.154-.159A.157.157,0,0,0,666.475,248.4Z" transform="translate(-556.794 -205.428)" fill="#fff"/>
    <path id="Path_16876" data-name="Path 16876" d="M556.08,249.826c.081.1.161.194.241.294a31.309,31.309,0,0,1,2.89,4.177c.067.112.134.227.2.342a33.01,33.01,0,0,1,3.919,11.5,32.056,32.056,0,0,1,.322,4.86c-.022,2.245-.225,4.678.475,6.739a5.509,5.509,0,0,0,.251.633l11.064,3.454.087-.012.436.158c.007-.084.012-.171.018-.255,0-.049.006-.1.01-.147,0-.033,0-.065.007-.095,0-.011,0-.022,0-.03,0-.029,0-.057.007-.084q.045-.73.08-1.463s0,0,0-.006a47.139,47.139,0,0,0-.683-11.123c-.021-.109-.042-.221-.068-.332a30.6,30.6,0,0,0-1.381-4.8,27.05,27.05,0,0,0-1.105-2.5,22.489,22.489,0,0,0-4.116-5.7,17.857,17.857,0,0,0-12.3-5.615C556.316,249.825,556.2,249.825,556.08,249.826Z" transform="translate(-471.7 -207.205)" fill="#e6e6e6"/>
    <path id="Path_16877" data-name="Path 16877" d="M555.666,249.377a28,28,0,0,1,11.86,12.493,12.057,12.057,0,0,1,1.142,3.6,6.914,6.914,0,0,1-.539,3.6,14.319,14.319,0,0,0-1.2,3.251,4.234,4.234,0,0,0,.969,3.324,11,11,0,0,0,3.52,2.6,10.8,10.8,0,0,1,3.911,2.894c.118.164.365-.029.247-.193-1.7-2.349-4.773-2.927-6.831-4.854a4.288,4.288,0,0,1-1.54-3.445,11.106,11.106,0,0,1,1.152-3.324,7.378,7.378,0,0,0,.658-3.5,11.145,11.145,0,0,0-1-3.631,27.163,27.163,0,0,0-4.648-7.1,28.5,28.5,0,0,0-7.59-6.006c-.177-.1-.292.2-.116.291Z" transform="translate(-471.305 -206.607)" fill="#fff"/>
    <path id="Path_16878" data-name="Path 16878" d="M607.534,281.4a4.2,4.2,0,0,0,1.529-5.22c-.083-.184-.372-.064-.29.12a3.889,3.889,0,0,1-1.432,4.853C607.173,281.26,607.366,281.506,607.534,281.4Z" transform="translate(-512.031 -227.892)" fill="#fff"/>
    <path id="Path_16879" data-name="Path 16879" d="M596.61,328.912a8.1,8.1,0,0,1-4.975-3.173c-.119-.163-.366.03-.247.193a8.422,8.422,0,0,0,5.183,3.291c.2.039.236-.273.038-.311Z" transform="translate(-499.49 -266.958)" fill="#fff"/>
    <path id="Path_16880" data-name="Path 16880" d="M572.617,267.709a2.378,2.378,0,0,1-2.16.651c-.2-.041-.235.27-.038.311a2.664,2.664,0,0,0,2.391-.715.162.162,0,0,0,.027-.22A.157.157,0,0,0,572.617,267.709Z" transform="translate(-482.893 -221.267)" fill="#fff"/>
    <path id="Path_16881" data-name="Path 16881" d="M280.182,427.018a5.776,5.776,0,0,1,5.776,5.776h0a5.777,5.777,0,0,1-4.669,5.669v9.447H277.6V427.018Z" transform="translate(-252.322 -346.792)" fill="#3f3d56"/>
    <path id="Path_16882" data-name="Path 16882" d="M943.96,687.756v1.978q-1.257,1.608-2.591,3.152c-.1.112-.193.223-.293.335-.151.176-.306.35-.461.524v-5.989Z" transform="translate(-774.626 -552.195)" fill="#cacaca"/>
    <path id="Path_16883" data-name="Path 16883" d="M899.784,668.316A2.792,2.792,0,0,0,897,671.1v4.013a2.792,2.792,0,0,0,2.789,2.789h6.929c.1-.112.2-.223.293-.335q1.334-1.544,2.591-3.152c.055-.07.11-.14.163-.21.48-.613.951-1.237,1.413-1.865.361-.492.719-.989,1.07-1.49,0,0,0,0,0,0q.879-1.248,1.713-2.534Z" transform="translate(-740.264 -536.88)" fill="#3f3d56"/>
    <path id="Path_16884" data-name="Path 16884" d="M969.792,505.637a4.033,4.033,0,0,0-1.324-.221h-1.14a4.174,4.174,0,0,0-1.225.185,4.125,4.125,0,0,0-2.888,3.93V543.01c0,.125.006.248.017.369a3.92,3.92,0,0,0,.108.637c.361-.492.719-.989,1.07-1.49,0,0,0,0,0,0q.879-1.248,1.713-2.534c.3-.461.6-.925.887-1.392a84.568,84.568,0,0,0,5.569-10.518V509.531A4.119,4.119,0,0,0,969.792,505.637Z" transform="translate(-792.43 -408.552)" fill="#3f3d56"/>
    <path id="Path_16885" data-name="Path 16885" d="M320.71,687.756v4q-1.433-1.713-2.77-3.5c-.123-.163-.244-.329-.365-.495Z" transform="translate(-283.813 -552.195)" fill="#cacaca"/>
    <path id="Path_16886" data-name="Path 16886" d="M316.56,668.316H304.1q.589.907,1.2,1.793.809,1.181,1.662,2.332c.121.166.242.331.365.494q1.34,1.789,2.77,3.5c.178.216.359.431.541.645q.35.414.711.823h5.217a2.79,2.79,0,0,0,2.787-2.789V671.1A2.79,2.79,0,0,0,316.56,668.316Z" transform="translate(-273.193 -536.88)" fill="#3f3d56"/>
    <path id="Path_16887" data-name="Path 16887" d="M272.76,505.881a4.14,4.14,0,0,0-1.9-.465h-1.138a4.07,4.07,0,0,0-1.568.312,4.119,4.119,0,0,0-2.547,3.8v14.383a84.651,84.651,0,0,0,8.169,16.074q.589.907,1.2,1.793v-32.25A4.122,4.122,0,0,0,272.76,505.881Z" transform="translate(-242.872 -408.552)" fill="#3f3d56"/>
    <path id="Path_16888" data-name="Path 16888" d="M347.012,693.262l3.739-.858-1.529-14.829-5.518,1.266Z" transform="translate(-270.76 -533.775)" fill="#9e616a"/>
    <path id="Path_16889" data-name="Path 16889" d="M368.964,625.781a4.349,4.349,0,0,1-.155-.8,4.891,4.891,0,0,0-.187-.944,4.962,4.962,0,0,0-.393-.806c-.074-.136-.153-.272-.223-.41a3.388,3.388,0,0,1-.183-.427c-2.188-6.462-5.242-15.244-7.36-20.384-1.246-3.024-8.907-4.03-16.136-4.287-.881-.032-1.755-.053-2.61-.064-.295,0-.588-.008-.879-.011-.743,0-1.466,0-2.163,0-.091,0-.182,0-.274,0q-.761.006-1.475.021c-3.273.064-5.677.212-6.106.24l-3.818-2.4-.745-.469-.079.469-.6,3.578-1.025,6.106,2.57.722,1.668.467,9.883,2.772,2.1.59.013,0,3.538-.006L354,609.73l.467,1.237a2.182,2.182,0,0,0,.893,3.149l.363.172,4.421,11.7a5.292,5.292,0,0,0,.949,2.956c.074.108.155.214.24.318l.1.117,1.7,3.326,1.012-.233,4.308-.987.021-.042c0-.006.057-.123.138-.327v-.006A8.191,8.191,0,0,0,368.964,625.781Z" transform="translate(-289.311 -479.16)" fill="#2f2e41"/>
    <path id="Path_16890" data-name="Path 16890" d="M526.993,784.631a5.541,5.541,0,0,0-6.662-4.177l-2.986-1.348-.836.588-3.468,2.432-.286.066-.93.212,1.284,5.6,13.926-3.194Z" transform="translate(-436.837 -624.158)" fill="#2f2e41"/>
    <path id="Path_16891" data-name="Path 16891" d="M475.246,764.476l-1.263,10.238-.042.335-.187,1.526c-.728-.3-1.454-.6-2.171-.921q-1.006-.442-2-.913V764.478Z" transform="translate(-403.562 -612.633)" fill="#9e616a"/>
    <circle id="Ellipse_3778" data-name="Ellipse 3778" cx="7.656" cy="7.656" r="7.656" transform="translate(36.627 66.151)" fill="#9e616a"/>
    <path id="Path_16892" data-name="Path 16892" d="M349.215,643.766a1.862,1.862,0,0,1-.446-.885c-.049-1.025-.1-2.04-.153-3.033-.038-.694-.076-1.38-.115-2.05,0-.085-.011-.17-.015-.253a10.816,10.816,0,0,1,.579-3.417c.1-.371.208-.747.3-1.123a8.156,8.156,0,0,0,.291-2.574c-.543-6.874-2.971-13.339-4.06-14.427-1.655-1.655-9.141-5.48-13.863-7.806-.838-.414-1.59-.779-2.205-1.076-.545-.265-.985-.475-1.284-.62-.229-.108-.378-.178-.429-.2l-.026-.013-1.708.191-.274.032-1.507.17-9.8,1.1-1.513.17-2.141.242-1.933.216-.072.006-.013.072s0,.017-.008.045a20.23,20.23,0,0,0,0,6.333,10.348,10.348,0,0,0,1.564,4.09c.115.166.233.325.361.478a.075.075,0,0,0,.017.021c.028.034.055.068.085.1v0a6.986,6.986,0,0,0,3.686,2.243c.212.057.429.1.652.142,2.375.42,5.057.806,7.687,1.146,1.089.14,2.169.272,3.213.395,2.09.246,4.043.454,5.652.62,2.254.229,3.837.371,4.189.4l3.937,18.366a2.692,2.692,0,0,0,.454,3.313l.323.312.373,1.749,1.231,1.647.155.208h5.431l.03-.036a9.183,9.183,0,0,0,1.8-5.4A1.824,1.824,0,0,0,349.215,643.766Z" transform="translate(-276.719 -488.015)" fill="#2f2e41"/>
    <path id="Path_16893" data-name="Path 16893" d="M462.139,492.468a2.916,2.916,0,0,0-3.674,2.55l-6.361,1.988.265,4.16,8.944-2.934a2.932,2.932,0,0,0,.826-5.765Z" transform="translate(-389.791 -398.271)" fill="#9e616a"/>
    <path id="Path_16894" data-name="Path 16894" d="M379.751,474.309l-4.754,1.8-.122.236a2.4,2.4,0,0,1-3.231,1.033h0l-10.686,4.044s-4.772-4.775-8.17-9.037l1.158-7.122a13.642,13.642,0,0,1,1.682-4.688C362.6,462.1,366.6,471.842,366.6,471.842l12.557-2.4Z" transform="translate(-311.553 -373.227)" fill="#20254e"/>
    <path id="Path_16895" data-name="Path 16895" d="M329.131,368.3a6.181,6.181,0,0,1-5.525-1.476,10.373,10.373,0,0,1-2.97-5.066,6.147,6.147,0,0,1,.041-4.266,2.834,2.834,0,0,1,3.594-1.536,2.43,2.43,0,0,1,.533-3.263,6.136,6.136,0,0,1,3.431-1.148,12.458,12.458,0,0,1,5.28.372,5.762,5.762,0,0,1,3.74,3.525,2.683,2.683,0,0,0,3.2-.722,2.43,2.43,0,0,1-1.339,2.635l2.579-.836a1.894,1.894,0,0,1-1.328,2.4,4.347,4.347,0,0,1-3.01-.462,11.678,11.678,0,0,0-2.882-1.153,2.543,2.543,0,0,0-2.7,1.084,7.97,7.97,0,0,0-.405,1.575c-.144.524-.509,1.068-1.051,1.111-.343.027-.678-.155-1.02-.118a1.1,1.1,0,0,0-.86.841,3.226,3.226,0,0,0,0,1.269l.655,5.008Z" transform="translate(-285.937 -287.247)" fill="#2f2e41"/>
    <path id="Path_16896" data-name="Path 16896" d="M321.555,474.8l-.405-.609-2.958-4.438-.059-.087.915-4.745.284-1.481.622-3.224-.18-7.379-.129-5.221-.019-.819-.656-2a7.2,7.2,0,0,0-3.82-4.268l-4.414-2.02a2.152,2.152,0,0,0-2.851,1.067q-.03.065-.055.132a12.134,12.134,0,0,0-5.456,2.252,8.289,8.289,0,0,0-3.073,4.8c0,.015-.006.03-.011.045a40.771,40.771,0,0,0-.658,6.216q-.143,2.8-.18,6.549a95.225,95.225,0,0,0,.7,12.483c.049.395.1.787.153,1.182a1.984,1.984,0,0,0,.671.951,1.93,1.93,0,0,1,.613.828,1.09,1.09,0,0,1-.284.719c-.021.032-.045.064-.066.1a1.4,1.4,0,0,0-.382.966c.134.76.212,1.532.286,2.279a24.116,24.116,0,0,0,.446,3.06q.111.465.255.934c.223.732.492,1.462.755,2.175.227.62.463,1.256.662,1.885.038.117.074.231.108.346l.017.059.062.011h0a2.349,2.349,0,0,1,.3-.416.086.086,0,0,1,.019-.021q.044-.054.1-.115a23.1,23.1,0,0,1,3.686-2.952c.495-.342,1.048-.713,1.668-1.121,2.273-1.488,5.448-3.425,9.883-5.928q1.668-.942,3.58-1.993Z" transform="translate(-268.742 -355.69)" fill="#20254e"/>
    <path id="Path_16897" data-name="Path 16897" d="M487.593,816.814a5.531,5.531,0,0,0-3.933-1.628l-2.307-1.749-.3-.231-2.054.836c.717.316,1.443.624,2.171.921q3.416,1.394,6.976,2.492A5.591,5.591,0,0,0,487.593,816.814Z" transform="translate(-410.975 -651.021)" fill="#2f2e41"/>
    <path id="Path_16898" data-name="Path 16898" d="M591.725,700.851l-2.889-1.382,3.969-12.077,4.264,2.04Z" transform="translate(-463.869 -541.509)" fill="#ffb6b6"/>
    <path id="Path_16899" data-name="Path 16899" d="M824.744,748.325q-1.261.786-2.553,1.528v.006l-.013,0,0,0-.327.081-.469-1.239-1.082-2.859-2.95-7.789,4.586-1.131.259,1.05,1.94,7.867.556,2.25Z" transform="translate(-677.518 -590.93)" fill="#ffb6b6"/>
    <path id="Path_16900" data-name="Path 16900" d="M795.421,536.021a3.012,3.012,0,0,0,4.08,1.024,2.888,2.888,0,0,0,.387-.281l9.134,5.242-.4-5.381-8.613-4.153a3,3,0,0,0-3.64-.474,2.888,2.888,0,0,0-.989,3.962Z" transform="translate(-659.891 -429.17)" fill="#ffb6b6"/>
    <path id="Path_16901" data-name="Path 16901" d="M842.677,502.143l1.615.984,7.252,4.422a4.276,4.276,0,0,0,5.893-1.357l0,0a4.183,4.183,0,0,0,.533-2.953l-3.223-16.1a4.468,4.468,0,0,0-5.865-3.391,4.254,4.254,0,0,0-2.684,5.168l3.37,11.428-5.166-2.408Z" transform="translate(-697.473 -391.281)" fill="#20254e"/>
    <path id="Path_16902" data-name="Path 16902" d="M839.789,606.743c0-.006-.006-.03-.013-.066l-.006-.023q-.022-.115-.051-.255a57.279,57.279,0,0,0-1.666-6.36,19.535,19.535,0,0,0-1.585-3.68c-.021-.038-.045-.076-.068-.115l-.078-.127-.66.242-.025.008L825.6,600.045l-2.9,1.063-.091.034-.494,2.016-6.938-.9-5.654-.732-1.624-.21a5.352,5.352,0,0,0-3.988,1.091,5.563,5.563,0,0,0-2.116,3.744c-.021.161-.034.325-.04.486l-.49,18.288v.023l.227.454,4.743,9.516h3.287l1.94,0h1.577l-3.279-8.3.074-.112a3.648,3.648,0,0,0,.376-3.232l.369-1.07a5.872,5.872,0,0,0-.055-4.612,11.4,11.4,0,0,1-.717-3.4l-.076-1.513c1.925.338,3.718.713,5.446,1.091q.866.188,1.715.38c1.611.359,3.166.7,4.69.993a34.528,34.528,0,0,0,9.079.724c.059,0,.119-.008.178-.015q1.108-.089,2.233-.289c.422-.076.847-.163,1.276-.265l.359-.089a4.13,4.13,0,0,0,.947-.38,6.193,6.193,0,0,0,1.178-.853s0,0,0,0q.879-1.248,1.713-2.534c.3-.461.6-.925.887-1.392A5.936,5.936,0,0,0,839.789,606.743Z" transform="translate(-664.85 -480.003)" fill="#2f2e41"/>
    <path id="Path_16903" data-name="Path 16903" d="M805.985,592.672c-.032-.136-.072-.274-.115-.408a29.014,29.014,0,0,0-1.176-2.975c-.5-1.1-1.1-2.286-1.817-3.565q-.519-.93-1.116-1.933-.3-.5-.622-1.025a.534.534,0,0,0-.028-.047l-.062-.1-9.928,1.328-3.7.495-.221,1.842-.053.456s0,0,0,0L787,587.984v0l-.2,1.643-.017,0-5.486-.711-5.654-.732-3.037-.393a5.351,5.351,0,0,0-3.988,1.091,5.562,5.562,0,0,0-2.116,3.744c-.019.149-.032.3-.038.452l-2.865,6.789a43.8,43.8,0,0,0-3.239,12.742l-2.1,6.717.3.028,4.453.414,1.176.11,2.589-3.78c.295-.431.575-.874.836-1.328a20.193,20.193,0,0,0,1.144-2.3l5.6-13.328q.65.112,1.286.212,2.945.478,5.654.779a66.617,66.617,0,0,0,15.484.151q1.907-.232,3.686-.611.653-.137,1.288-.3c.1-.023.2-.047.3-.072a5.416,5.416,0,0,0,3.788-3.54,5.525,5.525,0,0,0,.14-3.092Z" transform="translate(-630.976 -469.368)" fill="#2f2e41"/>
    <ellipse id="Ellipse_3779" data-name="Ellipse 3779" cx="6.867" cy="7.02" rx="6.867" ry="7.02" transform="translate(147.03 69.179)" fill="#ffb6b6"/>
    <path id="Path_16904" data-name="Path 16904" d="M868.083,474.725c-.011-.079-.023-.157-.04-.236a10.1,10.1,0,0,0-1-2.526,9.752,9.752,0,0,1-.915-2.254,6.52,6.52,0,0,1,.026-2.15,5.748,5.748,0,0,0-.028-2.307,56.609,56.609,0,0,0-4.542-11.218,8.529,8.529,0,0,0-7.078-5.955,2.01,2.01,0,0,0,.227-1.159,1.965,1.965,0,0,0-.724-1.331,1.894,1.894,0,0,0-1.4-.407l-3.192.359a1.957,1.957,0,0,0-1.7,2.167,2.11,2.11,0,0,0,.106.463c-2.963,3.773-4.484,7.212-4.625,10.463v0a11.087,11.087,0,0,0,.006,1.127,11.231,11.231,0,0,0,.781,3.538,15.09,15.09,0,0,0,2.114,3.635q.268.337.554.662.268.318.6.668l.558.874.52.817,2.78,6.416,1.416-.047.2,1.411.047.329.917,3.283.068.246,1.254-.6,7.483-3.553,5.594-2.657Z" transform="translate(-697.879 -361.093)" fill="#20254e"/>
    <path id="Path_16905" data-name="Path 16905" d="M847.351,496.863A15.022,15.022,0,0,0,850,501.135c.192.229.394.453.605.678l1.086,1.7c4-3,7.249-14.82,7.249-14.82l-4.518-.879Z" transform="translate(-701.156 -394.689)" opacity="0.2" style="isolation: isolate"/>
    <path id="Path_16906" data-name="Path 16906" d="M813.348,438.8a3.019,3.019,0,0,1-1.019,4.085,2.9,2.9,0,0,1-.43.211l.32,10.527-4.559-2.87.4-9.557a3.011,3.011,0,0,1,1.3-3.439,2.881,2.881,0,0,1,3.956.974Z" transform="translate(-669.887 -354.927)" fill="#ffb6b6"/>
    <path id="Path_16907" data-name="Path 16907" d="M812.419,477.281l-5.013.713.215,10.382a4.344,4.344,0,0,0,2.124,3.661h0a4.162,4.162,0,0,0,4.972-.565l11.836-11.384a4.488,4.488,0,0,0,.331-6.162h0a4.256,4.256,0,0,0-6-.5l-.1.087a4.363,4.363,0,0,0-.333.332l-7.815,8.991Z" transform="translate(-669.687 -382.555)" fill="#20254e"/>
    <path id="Path_16908" data-name="Path 16908" d="M835.088,789.386l-.185.034-2.5.461-.813.151-1.28.235.454,1.832c.545-.295,1.085-.6,1.622-.908l0,0,.013,0v-.006q1.292-.739,2.553-1.528c.059-.036.119-.072.178-.113Z" transform="translate(-687.735 -632.256)" fill="#2f2e41"/>
    <path id="Path_16909" data-name="Path 16909" d="M724.878,784.08l-3.126-1.5-.49-.236-.783,1.923-5.467,1.2a1.3,1.3,0,0,0-.212,2.468l5.342,2.18,1.7-1.526-.416,2.048,2.012.821,2.2-7.018Z" transform="translate(-596.098 -626.71)" fill="#2f2e41"/>
    <path id="Path_16910" data-name="Path 16910" d="M871.027,366.455c-1.167-1.361-1.722-3.167-2.655-4.713s-2.557-2.929-4.273-2.57a3.833,3.833,0,0,0-2.559,2.455,12.081,12.081,0,0,0-.63,3.7,6.322,6.322,0,0,0-4.017-5.911,5.917,5.917,0,0,0-6.623,2.17,3.579,3.579,0,0,0-4.754-.1,3.988,3.988,0,0,0-.64,4.921,3.6,3.6,0,0,0,4.607,1.229l.544.5a2.36,2.36,0,0,0,1.287,2.741c.81.327,1.954.273,2.257,1.123a1.781,1.781,0,0,1-.605,1.684,2.84,2.84,0,0,0-.972,1.559c-.076.953.908,1.621,1.8,1.822a5.623,5.623,0,0,0,5.8-2.42q.036-.055.078-.11a8.336,8.336,0,0,0,1.677-6.374c-.07-.44,0-.768.3-.872,1.312-.451,4.988.5,6.1,1.35s2,1.986,3.075,2.9a4.793,4.793,0,0,0,3.8,1.364,4.214,4.214,0,0,0,2.641-1.944,11.7,11.7,0,0,0,1.3-3.172A6.137,6.137,0,0,1,871.027,366.455Z" transform="translate(-698.754 -293.3)" fill="#2f2e41"/>
    <path id="Path_16911" data-name="Path 16911" d="M712,570.353v40.366q-1.152.793-2.334,1.543V573.029c0-1.138-.382-2.061-.851-2.063H673.479c-.471,0-.851.925-.853,2.063v52.093c-.471.047-.942.091-1.413.129-.2.017-.393.032-.588.047-.113-.208-.223-.418-.333-.63V570.353c0-.314.013-.63.034-.942.191-2.649,1.14-4.584,2.25-4.588h37.14a.993.993,0,0,1,.391.083c.93.395,1.664,2.126,1.848,4.365C711.984,569.627,712,569.99,712,570.353Z" transform="translate(-561.673 -455.351)" fill="#e4e4e4"/>
    <path id="Path_16912" data-name="Path 16912" d="M435.36,570.353v54.608l-.1.151q-1.2-.121-2.383-.278v-51.8c0-1.138-.405-2.061-.9-2.063h-37.5c-.5,0-.9.925-.9,2.063v35.964q-1.257-.926-2.479-1.9V570.353c0-.314.013-.63.036-.942.2-2.649,1.21-4.584,2.39-4.588h39.417a1.092,1.092,0,0,1,.414.083c.987.395,1.768,2.126,1.965,4.365C435.345,569.627,435.36,569.99,435.36,570.353Z" transform="translate(-341.727 -455.351)" fill="#e4e4e4"/>
    <path id="Path_16913" data-name="Path 16913" d="M381.974,429.915l2.458,10.814,1.57,1.72h1.133l-4.67-19.662-.231,3.34v0Z" transform="translate(-300.909 -333.06)" fill="#3f3d56"/>
    <path id="Path_16914" data-name="Path 16914" d="M502.572,559.064a.206.206,0,0,0-.028-.047.425.425,0,0,0-.1-.136l-.286-.286-1.507-1.509a.6.6,0,0,0-.414-.17h-.006l-1.063.006-.915.006-1.278.008-8.7.055-5.72.036a.591.591,0,0,0-.584.588.615.615,0,0,0,.055.248l.11.236.231.495.3.647.149.318a.589.589,0,0,0,.533.34h18.678a.6.6,0,0,0,.539-.836Z" transform="translate(-413.322 -449.123)" fill="#3f3d56"/>
    <path id="Path_16915" data-name="Path 16915" d="M485.267,567.044l.147.32a.594.594,0,0,0,.533.339h18.679a.6.6,0,0,0,.538-.836.179.179,0,0,0-.027-.047Z" transform="translate(-415.915 -456.924)" opacity="0.17" style="isolation: isolate"/>
    <path id="Path_16916" data-name="Path 16916" d="M383.2,426.127v0l4,16.319h.9l-4.67-19.662Z" transform="translate(-301.876 -333.06)" opacity="0.17" style="isolation: isolate"/>
    <path id="Path_16917" data-name="Path 16917" d="M529.727,272.026l-.586-.079a.614.614,0,0,0-.452.121l-.35.27-3.9,4.877a.613.613,0,0,0-.233.407l-.219,1.66-5.441,41.4a.621.621,0,0,0,.108.435l2.564,7.067.076.11.165.236a.624.624,0,0,0,.352.242l.371.093a.615.615,0,0,0,.5-.089.605.605,0,0,0,.263-.429l.664-5.047v0l.424-3.239.359-2.731v0l5.866-44.617a.613.613,0,0,0-.528-.687Z" transform="translate(-442.129 -224.628)" fill="#3f3d56"/>
    <path id="Path_16918" data-name="Path 16918" d="M538.273,272.338l-7.12,55.85.077.109.165.235a.622.622,0,0,0,.352.242l.372.094a.617.617,0,0,0,.76-.517l7.312-55.637a.615.615,0,0,0-.529-.689l-.587-.077a.606.606,0,0,0-.452.122Z" transform="translate(-452.063 -224.628)" opacity="0.17" style="isolation: isolate"/>
    <path id="Path_16919" data-name="Path 16919" d="M374.532,232.333l-3.778,5.393-4.491,34.169,2.435,4.83Z" transform="translate(-288.532 -183.026)" fill="#20254e"/>
    <path id="Path_16920" data-name="Path 16920" d="M559.486,429.915l-2.458,10.814-1.57,1.72h-1.133l4.67-19.662.231,3.34v0Z" transform="translate(-436.682 -333.06)" fill="#3f3d56"/>
    <path id="Path_16921" data-name="Path 16921" d="M718.4,557.029l-14.419-.091-1.28-.008-.913-.006-1.063-.006h-.009a.587.587,0,0,0-.412.17l-1.8,1.8a.462.462,0,0,0-.1.136.21.21,0,0,0-.028.047.6.6,0,0,0,.539.836H717.6a.594.594,0,0,0,.535-.34l.146-.318.3-.647.342-.73a.582.582,0,0,0,.055-.248A.591.591,0,0,0,718.4,557.029Z" transform="translate(-583.765 -449.123)" fill="#3f3d56"/>
    <path id="Path_16922" data-name="Path 16922" d="M718.283,567.044l-.147.32a.594.594,0,0,1-.533.339H698.924a.6.6,0,0,1-.538-.836.183.183,0,0,1,.027-.047Z" transform="translate(-583.765 -456.924)" opacity="0.17" style="isolation: isolate"/>
    <path id="Path_16923" data-name="Path 16923" d="M559.226,426.127v0l-4,16.319h-.9l4.67-19.662Z" transform="translate(-436.682 -333.06)" opacity="0.17" style="isolation: isolate"/>
    <path id="Path_16924" data-name="Path 16924" d="M715.537,320.686l-5.66-43.063a.614.614,0,0,0-.234-.407l-3.9-4.877-.35-.27a.622.622,0,0,0-.454-.121l-.586.079a.614.614,0,0,0-.531.688h0l5.866,44.619v0l.359,2.729.427,3.241v0l.662,5.043a.6.6,0,0,0,.265.429.609.609,0,0,0,.495.089l.371-.093a.624.624,0,0,0,.352-.242l.166-.236.076-.11,2.564-7.067a.61.61,0,0,0,.108-.435Z" transform="translate(-588.086 -224.628)" fill="#3f3d56"/>
    <path id="Path_16925" data-name="Path 16925" d="M705.749,272.338l7.12,55.85-.077.109-.165.235a.621.621,0,0,1-.352.242l-.372.094a.617.617,0,0,1-.76-.517l-7.312-55.637a.615.615,0,0,1,.529-.689l.587-.077a.606.606,0,0,1,.452.122Z" transform="translate(-588.089 -224.628)" opacity="0.17" style="isolation: isolate"/>
    <path id="Path_16926" data-name="Path 16926" d="M555.393,232.333l3.778,5.393,4.491,34.169-2.435,4.83Z" transform="translate(-437.523 -183.026)" fill="#20254e"/>
    <path id="Path_16927" data-name="Path 16927" d="M312.74,599.1a1.746,1.746,0,0,1-.028.318c-.009.051-.019.1-.032.148a1.845,1.845,0,0,1-1.785,1.377H302.91V619.99a1.835,1.835,0,0,1-.376,1.114c-.182-.214-.363-.429-.541-.645q-1.432-1.713-2.77-3.5V600.943h-3.565a1.843,1.843,0,0,1-.153-3.68q.076-.006.153-.006H310.9A1.844,1.844,0,0,1,312.74,599.1Z" transform="translate(-265.095 -480.901)" fill="#3f3d56"/>
    <path id="Path_16928" data-name="Path 16928" d="M912.37,599.1a1.846,1.846,0,0,1-1.184,1.723,1.807,1.807,0,0,1-.516.115c-.047,0-.1.006-.142.006h-3.563v17.288c-.053.07-.108.14-.163.21q-1.257,1.608-2.591,3.151a1.83,1.83,0,0,1-.932-1.6V600.943H895.29a1.8,1.8,0,0,1-.687-.134,1.837,1.837,0,0,1-1.108-1.29v0a1.822,1.822,0,0,1,.149-1.244s0,0,0,0a1.8,1.8,0,0,1,.327-.458,1.844,1.844,0,0,1,1.32-.556h15.238a1.842,1.842,0,0,1,1.842,1.842Z" transform="translate(-737.467 -480.901)" fill="#3f3d56"/>
    <path id="Path_16929" data-name="Path 16929" d="M960.6,438.6a5.776,5.776,0,0,0-5.776,5.776h0a5.777,5.777,0,0,0,4.669,5.669v9.447h3.687V438.6Z" transform="translate(-785.821 -355.915)" fill="#3f3d56"/>
    <path id="Path_16930" data-name="Path 16930" d="M463.208,536.483a2.916,2.916,0,0,0-4.212,1.5l-6.659.26-.9,3.1,9.467.485a2.932,2.932,0,0,0,2.3-5.35Z" transform="translate(-389.267 -432.71)" fill="#9e616a"/>
    <path id="Path_16931" data-name="Path 16931" d="M374.606,492.871l-6.841-.085-.866-.012-13.917-.175s-3.779-3.606-7.07-7.318l.461-3.336a13.631,13.631,0,0,1,4.57-8.44c4.713,3.149,7.447,9.383,7.447,9.383l4.583,2.051h0a20.066,20.066,0,0,1,9.162,2.683l1.507.873Z" transform="translate(-306.135 -383.413)" fill="#20254e"/>
    <path id="Path_16932" data-name="Path 16932" d="M582.385,846.816h24.674q-2.524.369-5.1.584H587.481Q584.909,847.187,582.385,846.816Z" transform="translate(-492.423 -677.498)" fill="#ccc"/>
    <path id="Path_16933" data-name="Path 16933" d="M605.4,751.021c.477-4.31,3.087-8.585,7.172-10.04a19.978,19.978,0,0,0,.184,13.715c.653,1.7,1.557,3.517.987,5.244a4.466,4.466,0,0,1-2.249,2.43,13.264,13.264,0,0,1-3.222,1.038l-.215.183C606.244,759.649,604.918,755.33,605.4,751.021Z" transform="translate(-510.472 -594.124)" fill="#ccc"/>
    <path id="Path_16934" data-name="Path 16934" d="M622.463,740.724a17.075,17.075,0,0,0-4.116,9.666,7.353,7.353,0,0,0,.114,2.3,4.217,4.217,0,0,0,1.075,1.942,8.723,8.723,0,0,1,1.376,1.6,2.582,2.582,0,0,1,.154,2.106,6.709,6.709,0,0,1-1.457,2.237,6.589,6.589,0,0,0-1.618,2.487c-.033.119-.215.061-.182-.057.469-1.7,2.1-2.69,2.87-4.229a2.616,2.616,0,0,0,.146-2.3,6.773,6.773,0,0,0-1.366-1.654,4.5,4.5,0,0,1-1.122-1.86,6.8,6.8,0,0,1-.2-2.288,16.566,16.566,0,0,1,1.143-5.05,17.379,17.379,0,0,1,3.058-5.049C622.415,740.49,622.543,740.632,622.463,740.724Z" transform="translate(-520.326 -593.786)" fill="#fff"/>
    <path id="Path_16935" data-name="Path 16935" d="M613.135,771.262a2.562,2.562,0,0,1-1.986-2.657.1.1,0,0,1,.191.007,2.372,2.372,0,0,0,1.852,2.468C613.313,771.107,613.255,771.289,613.135,771.262Z" transform="translate(-515.078 -615.815)" fill="#fff"/>
    <path id="Path_16936" data-name="Path 16936" d="M624.478,794.919a4.937,4.937,0,0,0,2.167-2.873c.033-.119.215-.061.182.057a5.135,5.135,0,0,1-2.261,2.985C624.461,795.153,624.373,794.983,624.478,794.919Z" transform="translate(-525.545 -634.3)" fill="#fff"/>
    <path id="Path_16937" data-name="Path 16937" d="M628.537,756.251a1.45,1.45,0,0,0,1.373-.088c.1-.066.192.1.088.169a1.625,1.625,0,0,1-1.519.1.1.1,0,0,1-.062-.12A.1.1,0,0,1,628.537,756.251Z" transform="translate(-528.682 -606.072)" fill="#fff"/>
    <path id="Path_16938" data-name="Path 16938" d="M635.068,774.847l-.192.13a19.1,19.1,0,0,0-2.416,1.939c-.059.054-.118.11-.175.165a20.13,20.13,0,0,0-4.292,6.044,19.547,19.547,0,0,0-1.034,2.785,12.726,12.726,0,0,1-1.45,3.857,3.364,3.364,0,0,1-.257.326l-7.069.094-.049-.022-.282.017c.011-.05.023-.1.034-.152.006-.029.014-.058.02-.087s.009-.039.012-.057l0-.018c0-.018.008-.034.011-.05q.1-.434.208-.869s0,0,0,0a28.742,28.742,0,0,1,2.334-6.383c.031-.06.063-.122.1-.182a18.661,18.661,0,0,1,1.642-2.564,16.506,16.506,0,0,1,1.082-1.271,13.718,13.718,0,0,1,3.4-2.617,10.891,10.891,0,0,1,8.166-1.143Z" transform="translate(-520.362 -620.472)" fill="#ccc"/>
    <path id="Path_16939" data-name="Path 16939" d="M635.167,776.112a17.076,17.076,0,0,0-9.106,5.24,7.355,7.355,0,0,0-1.294,1.906,4.217,4.217,0,0,0-.311,2.2,8.729,8.729,0,0,1,.134,2.109,2.582,2.582,0,0,1-1.145,1.775,6.712,6.712,0,0,1-2.51.909,6.588,6.588,0,0,0-2.789,1.012c-.1.075-.208-.081-.111-.156,1.4-1.078,3.3-.881,4.837-1.649a2.615,2.615,0,0,0,1.5-1.746,6.772,6.772,0,0,0-.095-2.143,4.5,4.5,0,0,1,.224-2.16,6.8,6.8,0,0,1,1.216-1.949,16.568,16.568,0,0,1,3.953-3.344,17.377,17.377,0,0,1,5.481-2.19c.12-.025.136.165.017.19Z" transform="translate(-520.475 -621.647)" fill="#fff"/>
    <path id="Path_16940" data-name="Path 16940" d="M657.178,784.826a2.562,2.562,0,0,1,.014-3.317c.08-.093.229.027.148.121a2.372,2.372,0,0,0-.007,3.086C657.413,784.809,657.257,784.92,657.178,784.826Z" transform="translate(-550.867 -626.024)" fill="#fff"/>
    <path id="Path_16941" data-name="Path 16941" d="M647.631,815.463a4.937,4.937,0,0,0,3.46-.99c.1-.075.209.081.111.156a5.136,5.136,0,0,1-3.6,1.022C647.477,815.639,647.509,815.451,647.631,815.463Z" transform="translate(-543.735 -652.003)" fill="#fff"/>
    <path id="Path_16942" data-name="Path 16942" d="M680.482,782.4a1.45,1.45,0,0,0,1.149.756c.123.01.09.2-.032.188a1.625,1.625,0,0,1-1.274-.834.1.1,0,0,1,.022-.133A.1.1,0,0,1,680.482,782.4Z" transform="translate(-569.565 -626.719)" fill="#fff"/>
    <circle id="Ellipse_3780" data-name="Ellipse 3780" cx="2.248" cy="2.248" r="2.248" transform="translate(116.124 155.883)" fill="#ccc"/>
    <path id="Path_16943" data-name="Path 16943" d="M734.156,827.658c-.138.04-.278.081-.418.119q-1.907.535-3.841.978a2.247,2.247,0,1,1,4.259-1.1Z" transform="translate(-608.444 -660.714)" fill="#ccc"/>
    <path id="Path_16944" data-name="Path 16944" d="M795.045,807.071c-.172.081-.344.161-.516.24s-.376.174-.562.259c-.21.1-.418.189-.628.282-.789.352-1.587.692-2.388,1.019-.011-.017-.021-.036-.032-.055a2.248,2.248,0,0,1,3.962-2.126,2.487,2.487,0,0,1,.163.382Z" transform="translate(-656.489 -644.953)" fill="#ccc"/>
    <circle id="Ellipse_3781" data-name="Ellipse 3781" cx="2.248" cy="2.248" r="2.248" transform="translate(124.054 150.365)" fill="#ccc"/>
    <path id="Path_16945" data-name="Path 16945" d="M397.855,168.395a200.777,200.777,0,0,1-42.774,6.174,53.562,53.562,0,0,1-6.554-.045c-4.794-.4-8.9-1.91-13.474-2.733-2.2-.395-4.648-.683-6.861-1.11q.767-.952,1.562-1.88c4.773.4,9.62,1.723,14.451,2.337,8.211,1.044,17.411-.121,23.636-2.995,3.02-1.394,5.333-3.135,8.343-4.535a3.888,3.888,0,0,1,1.309-.4,4.557,4.557,0,0,1,2.47.641c5.049,2.549,12.379,4.62,19.183,3.481C399.653,167.724,398.689,168.176,397.855,168.395Z" transform="translate(-292.176 -138.958)" fill="#fff"/>
    <path id="Path_16946" data-name="Path 16946" d="M796.275,227.8c.062-.011.124-.02.187-.031a5.069,5.069,0,0,1-.735-.554Z" transform="translate(-660.487 -189.39)" fill="#fff"/>
    <path id="Path_16947" data-name="Path 16947" d="M839.736,233.685q-4.263.341-8.57.507a53.992,53.992,0,0,1-6.554-.045c-4.794-.405-8.9-1.91-13.474-2.734-4.191-.753-9.285-1.116-11.946-2.789,6.878-1.191,14,1.233,21.1,2.135a50.378,50.378,0,0,0,17.193-.849Q838.66,231.764,839.736,233.685Z" transform="translate(-663.217 -190.25)" fill="#fff"/>
    <path id="Path_16948" data-name="Path 16948" d="M600.29,136.647c-6.657-22.85-10.576-46.41-10.576-70.211V64.712H587.5v1.725c0,23.8-3.919,47.36-10.576,70.211a12.162,12.162,0,0,0-.484,3.4h0a3.318,3.318,0,0,0,3.318,3.318h4.424a4.424,4.424,0,0,0,8.848,0h3.443V152.9a1.9,1.9,0,1,0,.424.035v-9.57h.557a3.318,3.318,0,0,0,3.318-3.318h0A12.162,12.162,0,0,0,600.29,136.647Z" transform="translate(-487.741 -61.377)" fill="#fff"/>
  </g>
</svg>
