<svg xmlns="http://www.w3.org/2000/svg" width="425.206" height="354.51" viewBox="0 0 425.206 354.51">
  <g id="Group_15161" data-name="Group 15161" transform="translate(-125.155 -155.781)">
    <g id="undraw_photo_session_re_c0cp" transform="translate(187.756 155.781)">
      <path id="Path_13769" data-name="Path 13769" d="M353.922,169.091c0,93.389-56.83,87.364-150.219,87.364-20.759,0-59.51,77.985-77.879,71.142h-.006c-.676-.248-1.347-.507-2.018-.772-.192-.068-.383-.141-.569-.22q-1.581-.609-3.145-1.263-3.221-1.336-6.369-2.8c-1.088-.507-2.17-1.02-3.241-1.55a169.105,169.105,0,0,1-28.069-17.36q-6.595-5.022-12.671-10.67-5.022-4.667-9.644-9.723c-.969-1.054-1.916-2.119-2.852-3.2-.383-.434-.755-.868-1.122-1.3q-3.982-4.658-7.615-9.61-1.175-1.6-2.317-3.23a169.1,169.1,0,1,1,307.734-96.816Z" transform="translate(8.683 0)" fill="#f2f2f2"/>
      <g id="Group_14533" data-name="Group 14533" transform="translate(0 30.483)">
        <path id="Path_13783" data-name="Path 13783" d="M650.679,462.411H361.688a21.122,21.122,0,0,1-21.1-21.1V222.787a21.123,21.123,0,0,1,21.1-21.1H650.679a21.123,21.123,0,0,1,21.1,21.1V441.312a21.122,21.122,0,0,1-21.1,21.1Z" transform="translate(-340.59 -201.689)" fill="#fff"/>
        <path id="Path_13784" data-name="Path 13784" d="M650.679,462.411H361.688a21.122,21.122,0,0,1-21.1-21.1V222.787a21.123,21.123,0,0,1,21.1-21.1H650.679a21.123,21.123,0,0,1,21.1,21.1V441.312a21.122,21.122,0,0,1-21.1,21.1Zm-288.991-257.2a17.6,17.6,0,0,0-17.575,17.575V441.312a17.6,17.6,0,0,0,17.575,17.575H650.679a17.6,17.6,0,0,0,17.575-17.575V222.787a17.6,17.6,0,0,0-17.575-17.575Z" transform="translate(-340.59 -201.689)" fill="#3f3d56"/>
        <ellipse id="Ellipse_3228" data-name="Ellipse 3228" cx="5.285" cy="5.285" rx="5.285" ry="5.285" transform="translate(273.053 15.855)" fill="#3f3d56"/>
        <ellipse id="Ellipse_3229" data-name="Ellipse 3229" cx="5.285" cy="5.285" rx="5.285" ry="5.285" transform="translate(287.146 15.855)" fill="#3f3d56"/>
        <ellipse id="Ellipse_3230" data-name="Ellipse 3230" cx="5.285" cy="5.285" rx="5.285" ry="5.285" transform="translate(301.239 15.855)" fill="#3f3d56"/>
        <path id="Path_13785" data-name="Path 13785" d="M365.315,287.883a2.645,2.645,0,0,0-2.643,2.642,2.667,2.667,0,0,0,2.643,2.642H638.369a2.645,2.645,0,0,0,2.642-2.642,2.667,2.667,0,0,0-2.642-2.643Z" transform="translate(-335.368 -195.219)" fill="#0f1f54"/>
        <path id="Path_14052" data-name="Path 14052" d="M363.24,287.883c-.313,0-.567,1.185-.567,2.642a9.069,9.069,0,0,0,.166,1.853c.108.514.249.79.4.79h58.6c.313,0,.567-1.185.567-2.642a9.072,9.072,0,0,0-.166-1.853c-.108-.514-.249-.79-.4-.79Z" transform="translate(-335.368 -214.459)" fill="#0f1f54"/>
      </g>
      <g id="undraw_career_development_re_sv91" transform="translate(24.423 150.58)">
        <rect id="Rectangle_4312" data-name="Rectangle 4312" width="217.28" height="0.964" transform="translate(35.567 5.505)" fill="#cbcbcb"/>
        <rect id="Rectangle_4313" data-name="Rectangle 4313" width="0.964" height="30.636" transform="translate(64.682 5.868)" fill="#cbcbcb"/>
        <path id="Path_14038" data-name="Path 14038" d="M661.824,67.064H612.156V12.113h.964V66.1h48.7Z" transform="translate(-517.121 -6.275)" fill="#cbcbcb"/>
        <rect id="Rectangle_4314" data-name="Rectangle 4314" width="0.964" height="30.636" transform="translate(127.679 5.868)" fill="#cbcbcb"/>
        <rect id="Rectangle_4315" data-name="Rectangle 4315" width="0.964" height="30.636" transform="translate(143.854 60.332)" fill="#cbcbcb"/>
        <rect id="Rectangle_4316" data-name="Rectangle 4316" width="0.964" height="30.636" transform="translate(193.767 5.868)" fill="#cbcbcb"/>
        <rect id="Rectangle_4317" data-name="Rectangle 4317" width="0.964" height="30.636" transform="translate(226.81 5.868)" fill="#cbcbcb"/>
        <rect id="Rectangle_4318" data-name="Rectangle 4318" width="18.305" height="7.132" transform="translate(56.128 41.191)" fill="#bfd4e4"/>
        <rect id="Rectangle_4319" data-name="Rectangle 4319" width="18.305" height="7.132" transform="translate(118.785 41.191)" fill="#eff5f9"/>
        <rect id="Rectangle_4320" data-name="Rectangle 4320" width="18.305" height="7.132" transform="translate(185.299 41.191)" fill="#cbcbcb"/>
        <rect id="Rectangle_4321" data-name="Rectangle 4321" width="18.305" height="7.132" transform="translate(217.11 41.191)" fill="#bfd4e4"/>
        <rect id="Rectangle_4322" data-name="Rectangle 4322" width="18.305" height="7.132" transform="translate(260.006 2.632)" fill="#eff5f9"/>
        <rect id="Rectangle_4323" data-name="Rectangle 4323" width="18.305" height="7.132" transform="translate(135.173 95.173)" fill="#eff5f9"/>
        <rect id="Rectangle_4324" data-name="Rectangle 4324" width="29.344" height="11.433" fill="#bfd4e4"/>
      </g>
    </g>
    <g id="undraw_career_development_re_sv91-2" data-name="undraw_career_development_re_sv91" transform="translate(125.155 293.363)">
      <path id="Path_14039" data-name="Path 14039" d="M282.481,238.283l2.126,19.175,27.151.468-3.277-22.938Z" transform="translate(-235.908 -169.712)" fill="#ffb7b7"/>
      <path id="Path_14040" data-name="Path 14040" d="M356.577,495.082a4.39,4.39,0,0,0-1.191-6.625l1.26-9.952-5.861-2.241L349.2,490.344a4.413,4.413,0,0,0,7.374,4.739Z" transform="translate(-322.237 -383.864)" fill="#ffb7b7"/>
      <path id="Path_14041" data-name="Path 14041" d="M351.975,488.154h5.74l2.73-22.137h-8.471Z" transform="translate(-268.259 -277.265)" fill="#ffb7b7"/>
      <path id="Path_14042" data-name="Path 14042" d="M453.032,694.453h11.3a7.2,7.2,0,0,1,7.2,7.2v.234H453.032Z" transform="translate(-370.78 -485.438)" fill="#0f1f54"/>
      <path id="Path_14043" data-name="Path 14043" d="M229.352,488.154h5.739l2.73-22.137h-8.47Z" transform="translate(-211.174 -277.265)" fill="#ffb7b7"/>
      <path id="Path_14044" data-name="Path 14044" d="M330.408,694.453h11.3a7.2,7.2,0,0,1,7.2,7.2v.234H330.409Z" transform="translate(-313.695 -485.438)" fill="#0f1f54"/>
      <path id="Path_14045" data-name="Path 14045" d="M348.605,441.888l2.524-29.2,7.364-26.671a10.073,10.073,0,0,1,8.7-7.3l.24-.023,1.308,20.018-9.417,19.351-3.113,23.215Z" transform="translate(-322.166 -338.439)" fill="#bfd4e4"/>
      <path id="Path_14046" data-name="Path 14046" d="M359.747,446.677l-3.866,6.958s-15.077,15.241-16.236,38.787l-14,80.138,12.972-.32,26.264-75.109L383.461,529l9.288,41.638,14.734-2.723-6.566-48.364-12.652-45-1.281-24.5Z" transform="translate(-311.478 -370.09)" fill="#0f1f54"/>
      <ellipse id="Ellipse_3287" data-name="Ellipse 3287" cx="11.498" cy="11.498" rx="11.498" ry="11.498" transform="translate(50.167 7.593)" fill="#ffb7b7"/>
      <path id="Path_14047" data-name="Path 14047" d="M320.062,348.586c2.136-4.173,2.865-8.911,4.509-13.3s4.631-8.745,9.16-9.955c2.569-.686,5.3-.267,7.937-.594,2.32-.287,4.818-1.472,5.707-3.532a14.552,14.552,0,0,1,.749-6.037,18.109,18.109,0,0,1,10.2-10.335,16.687,16.687,0,0,1,11.859-.646,11.706,11.706,0,0,1,7.707,8.654c.686,3.991-1.514,8.448-5.308,9.866-2.724,1.018-6.232.679-8.01,2.979-1.8,2.331-.51,5.727,1.126,8.176l-.112.114c-5.345.063-11.122-.97-14.8-4.845a11.726,11.726,0,0,1-1.1-1.353c-.113.181-.231.357-.358.526-1.854,2.462-4.756,3.858-7.521,5.219s-5.633,2.887-7.293,5.483c-3,4.691-1.031,11.009-2.747,16.307a12.046,12.046,0,0,1-22.655.735C313.784,356.437,317.926,352.759,320.062,348.586Z" transform="translate(-303.781 -303.38)" fill="#2f2e41"/>
      <path id="Path_14048" data-name="Path 14048" d="M455.3,497.93a4.39,4.39,0,0,0-4.12-5.322l-3.486-9.406-6.233.724,5.109,13.214a4.413,4.413,0,0,0,8.73.791Z" transform="translate(-365.394 -387.093)" fill="#ffb7b7"/>
      <path id="Path_14049" data-name="Path 14049" d="M382.144,409.236l-3.327-16.007-1.046-12.193a28.708,28.708,0,0,1,5.441-19.411l1.063-1.453,17.907,6.365,8.73,11.508a7.8,7.8,0,0,1,.575,11.145l-.179,16.174-.2.027Z" transform="translate(-335.695 -329.819)" fill="#bfd4e4"/>
      <path id="Path_14050" data-name="Path 14050" d="M434.1,442.886,420.786,412.2l-1.935-28.113-.39-5.908a5.647,5.647,0,0,1,11.232-1.121l4.192,31.339,7.215,31.264Z" transform="translate(-354.68 -335.399)" fill="#bfd4e4"/>
      <path id="Path_14051" data-name="Path 14051" d="M227.07,708.326H104.024c-.127,0-.229-.239-.229-.535s.1-.534.229-.534H227.07c.127,0,.229.239.229.534S227.2,708.326,227.07,708.326Z" transform="translate(-103.795 -491.398)" fill="#cbcbcb"/>
    </g>
  </g>
</svg>
