<svg xmlns="http://www.w3.org/2000/svg" width="415.01" height="361.697" viewBox="0 0 415.01 361.697">
  <g id="undraw_real_time_analytics_re_yliv_1_" data-name="undraw_real_time_analytics_re_yliv (1)" transform="translate(0 0)">
    <path id="Path_14835" data-name="Path 14835" d="M577.307,725.846a.723.723,0,0,0,.524-1.253l-.05-.2.02-.047a1.941,1.941,0,0,1,3.581.013,17.24,17.24,0,0,1,1.515,4.315,5.745,5.745,0,0,1-.1,1.975,23.031,23.031,0,0,0,2.095-9.564,22.245,22.245,0,0,0-.138-2.479q-.114-1.012-.317-2.01a23.293,23.293,0,0,0-4.619-9.872,6.2,6.2,0,0,1-2.578-2.675,4.734,4.734,0,0,1-.43-1.292,5.837,5.837,0,0,0,.379-2.012c.175-.265.488-.4.679-.656.95-1.288,2.259-1.063,2.942.687,1.46.737,1.474,1.958.578,3.134-.57.748-.648,1.759-1.148,2.56.051.066.1.13.156.2a23.445,23.445,0,0,1,2.447,3.877,9.745,9.745,0,0,1,.582-4.527,16.325,16.325,0,0,1,2.52-3.636,2,2,0,0,1,3.563.982l.005.051q-.2.116-.4.245a.981.981,0,0,0,.4,1.785l.02,0a9.78,9.78,0,0,1-.257,1.459c1.179,4.561-1.367,6.222-5,6.3-.08.041-.159.082-.239.121a23.93,23.93,0,0,1,1.288,6.062,22.714,22.714,0,0,1-.017,3.664l.006-.043a6,6,0,0,1,2.047-3.463c1.576-1.294,3.8-1.771,5.5-2.811a1.125,1.125,0,0,1,1.724,1.095l-.007.045a6.6,6.6,0,0,0-.739.356q-.2.116-.4.245a.981.981,0,0,0,.4,1.784l.02,0,.041.006a9.768,9.768,0,0,1-1.8,2.813c-.737,3.981-3.9,4.359-7.292,3.2h0a23.922,23.922,0,0,1-1.607,4.691h-5.741c-.021-.064-.039-.13-.058-.193a6.53,6.53,0,0,0,1.589-.095c-.426-.523-.852-1.049-1.278-1.572a.39.39,0,0,1-.027-.031c-.216-.267-.434-.533-.65-.8h0a9.55,9.55,0,0,1,.28-2.434Z" transform="translate(-383.087 -370.272)" fill="#f2f2f2"/>
    <path id="Path_14836" data-name="Path 14836" d="M325.187,725.846a.723.723,0,0,1-.524-1.253l.05-.2-.02-.047a1.941,1.941,0,0,0-3.581.013,17.238,17.238,0,0,0-1.515,4.315,5.742,5.742,0,0,0,.1,1.975,23.028,23.028,0,0,1-2.095-9.564,22.23,22.23,0,0,1,.138-2.479q.114-1.012.317-2.01a23.293,23.293,0,0,1,4.619-9.872,6.2,6.2,0,0,0,2.578-2.675,4.727,4.727,0,0,0,.43-1.292,5.836,5.836,0,0,1-.379-2.012c-.175-.265-.488-.4-.679-.656-.95-1.288-2.259-1.063-2.942.687-1.46.737-1.474,1.958-.578,3.134.57.748.648,1.759,1.148,2.56-.052.066-.1.13-.156.2a23.424,23.424,0,0,0-2.447,3.877,9.747,9.747,0,0,0-.582-4.527,16.329,16.329,0,0,0-2.52-3.636,2,2,0,0,0-3.563.982l-.006.051q.2.116.4.245a.981.981,0,0,1-.4,1.785l-.02,0a9.745,9.745,0,0,0,.257,1.459c-1.179,4.561,1.367,6.222,5,6.3.08.041.158.082.239.121a23.932,23.932,0,0,0-1.288,6.062,22.7,22.7,0,0,0,.016,3.664l-.006-.043a6,6,0,0,0-2.047-3.463c-1.576-1.294-3.8-1.771-5.5-2.811a1.126,1.126,0,0,0-1.724,1.095l.007.045a6.6,6.6,0,0,1,.739.356q.2.116.4.245a.981.981,0,0,1-.4,1.784l-.02,0-.041.006a9.764,9.764,0,0,0,1.8,2.813c.737,3.981,3.9,4.359,7.292,3.2h0a23.927,23.927,0,0,0,1.607,4.691h5.741c.021-.064.039-.13.058-.193a6.525,6.525,0,0,1-1.589-.095c.426-.523.852-1.049,1.278-1.572a.356.356,0,0,0,.027-.031c.216-.267.434-.533.65-.8h0a9.561,9.561,0,0,0-.28-2.434Z" transform="translate(-274 -370.272)" fill="#f2f2f2"/>
    <path id="Path_14837" data-name="Path 14837" d="M450.308,205.061c1.161-2.338,3.018-4.28,4.153-6.631s1.356-5.5-.535-7.3c-1.606-1.528-4.122-1.549-6.043-2.656-4.894-2.82-4.888-11.776-10.483-12.55-2.721-.376-5.182,1.664-6.827,3.864s-2.955,4.767-5.235,6.3c-2.582,1.733-5.919,1.808-8.786,3.011-5.5,2.307-8.378,8.24-10.787,13.692-1.552,3.512-3.14,7.3-2.42,11.073-1.565.974-.868,3.594.695,4.572s3.525.957,5.319,1.381a12.43,12.43,0,0,1,8.323,7.48,28.9,28.9,0,0,1,1.594,8.878l1.146,15.679c.17,2.325.393,4.8,1.808,6.649s4.48,2.629,6.071.925c1.521-1.629.836-4.207.8-6.435s1.983-5,3.882-3.837l.67-1.52a23.971,23.971,0,0,0,15.811-20.612C449.954,219.63,447.01,211.7,450.308,205.061Z" transform="translate(-312.36 -157.95)" fill="#e6e6e6"/>
    <path id="Path_14838" data-name="Path 14838" d="M484.468,300.343a3.019,3.019,0,0,0-1.732-5.2l.007.251a5.191,5.191,0,0,1-2.693.708,8.153,8.153,0,0,0-2.771.439,2.335,2.335,0,0,0-1.536,2.149,2.268,2.268,0,0,0,1.223,1.7,6.7,6.7,0,0,0,2.08.632C480.908,301.378,483.089,301.643,484.468,300.343Z" transform="translate(-342.087 -206.332)" fill="#e6e6e6"/>
    <path id="Path_14839" data-name="Path 14839" d="M547.051,221.456A6.858,6.858,0,0,0,549,219.441a2.339,2.339,0,0,0-.152-2.639,3.134,3.134,0,0,0-2.12-.766,16.5,16.5,0,0,0-6.25.737l6.212,5.5Z" transform="translate(-368.347 -174.221)" fill="#e6e6e6"/>
    <path id="Path_14840" data-name="Path 14840" d="M532.209,227.919c.837.924.57,2.357.333,3.58s-.267,2.753.785,3.421a2.285,2.285,0,0,0,2.86-.743,6.584,6.584,0,0,0,1.058-3.026,21.143,21.143,0,0,0,.442-4.777,7.366,7.366,0,0,0-1.622-4.434,5.221,5.221,0,0,0-5.918-1.383l.962-.047a9.392,9.392,0,0,0-1.565,3,3.19,3.19,0,0,0,.791,3.141C530.906,227.151,531.7,227.359,532.209,227.919Z" transform="translate(-363.86 -175.913)" fill="#e6e6e6"/>
    <path id="Path_14841" data-name="Path 14841" d="M612.424,206.787l.171-.527a3.606,3.606,0,0,0-1.622,4.24A3.941,3.941,0,0,0,612.424,206.787Z" transform="translate(-396.873 -170.274)" fill="#e6e6e6"/>
    <path id="Path_14842" data-name="Path 14842" d="M596.731,214.292a6.7,6.7,0,0,0,3.349-5.012,3.685,3.685,0,0,0-.217-1.914,1.978,1.978,0,0,0-1.441-1.19l-.39.613c-.559-.481-1.5.014-1.732.712a3.815,3.815,0,0,0,.181,2.17,2.859,2.859,0,0,1-.034,2.152,7.736,7.736,0,0,1-1.054,1.108,1.1,1.1,0,0,0-.2,1.388C595.559,214.738,596.245,214.563,596.731,214.292Z" transform="translate(-390.479 -170.24)" fill="#e6e6e6"/>
    <path id="Path_14843" data-name="Path 14843" d="M589.767,212.543a3.647,3.647,0,0,0,.454-1.968l-.852-.267a3.639,3.639,0,0,0-1.408,1.018,1.109,1.109,0,1,0,1.806,1.217Z" transform="translate(-387.479 -171.916)" fill="#e6e6e6"/>
    <path id="Path_14844" data-name="Path 14844" d="M661.286,206.814l.231.2c.068-.014.132-.04.2-.048Z" transform="translate(-417.356 -170.498)" fill="#e6e6e6"/>
    <path id="Path_14845" data-name="Path 14845" d="M658.139,214.425l2.347-1.9a3.912,3.912,0,0,0,1.043-1.1,2.651,2.651,0,0,0-.189-2.553,7.02,7.02,0,0,0-1.6-1.734,2.9,2.9,0,0,0-2.214,3.152c.141.9.7,1.857.245,2.64-.179.3-.487.513-.694.8s-.274.744.01.956C657.4,214.925,657.833,214.672,658.139,214.425Z" transform="translate(-415.574 -170.632)" fill="#e6e6e6"/>
    <path id="Path_14846" data-name="Path 14846" d="M661.189,223.454a2.031,2.031,0,0,0,1.571-.618,13.87,13.87,0,0,0,2.715-2.983l-5.28,1.672.549.642C660.256,222.484,660.617,223.344,661.189,223.454Z" transform="translate(-416.914 -175.788)" fill="#e6e6e6"/>
    <path id="Path_14847" data-name="Path 14847" d="M670.129,229.111a1.349,1.349,0,0,0,1.393.85,2.015,2.015,0,0,0,1.436-.919,2.676,2.676,0,0,0-2.1-4.175l.486.742C671.464,226.877,669.741,227.9,670.129,229.111Z" transform="translate(-420.92 -177.822)" fill="#e6e6e6"/>
    <path id="Path_14848" data-name="Path 14848" d="M727.068,252.416a2.744,2.744,0,0,0,3.293-.008,2.938,2.938,0,0,0,.176-4.3l-.9.5a2.289,2.289,0,0,0-3.117.619A2.5,2.5,0,0,0,727.068,252.416Z" transform="translate(-443.678 -187.248)" fill="#e6e6e6"/>
    <path id="Path_14849" data-name="Path 14849" d="M743.2,255.425a2.662,2.662,0,0,0,1.826-1.855l-1.747-.23a3.87,3.87,0,0,0-1.652-.721,1.326,1.326,0,0,0-1.439.848,1.435,1.435,0,0,0,.49,1.312,2.663,2.663,0,0,0,2.522.647Z" transform="translate(-449.358 -189.074)" fill="#e6e6e6"/>
    <path id="Path_14850" data-name="Path 14850" d="M733.125,262.607a1.506,1.506,0,0,0,1.007,1.262,1.632,1.632,0,0,0,1.812-.281,1,1,0,0,0-.363-1.586l-1.311-.238C733.764,261.5,733.117,262.037,733.125,262.607Z" transform="translate(-446.499 -192.762)" fill="#e6e6e6"/>
    <path id="Path_14851" data-name="Path 14851" d="M604.49,278.1l-1.014-.926A3.32,3.32,0,0,0,604.49,278.1Z" transform="translate(-393.905 -199.042)" fill="#e6e6e6"/>
    <path id="Path_14852" data-name="Path 14852" d="M592.044,258.869c.624,2.9,3.748,5.262,6.584,4.391l.15.137a6.647,6.647,0,0,1-.845-4.654,16.388,16.388,0,0,1,9.453-12.6,3.9,3.9,0,0,0,1.774-1.156c.4-.591.253-1.6-.443-1.771a1.658,1.658,0,0,0-1.081.25l-5.269,2.594a26.939,26.939,0,0,0-7.467,4.762C592.809,252.931,591.42,255.969,592.044,258.869Z" transform="translate(-389.206 -185.263)" fill="#e6e6e6"/>
    <path id="Path_14853" data-name="Path 14853" d="M423.648,430.463a64.7,64.7,0,0,0-15.976-8.349c-3.5-1.243-7.254-2.191-10.9-1.486a12.971,12.971,0,0,0-9.176,7.325,13.585,13.585,0,0,0,.444,11.775c1.68,3.148,4.589,5.656,5.562,9.089a17.79,17.79,0,0,1,.029,7.164L391.7,470.6c-.587,4.437-1.159,9.055.245,13.3s5.414,8,9.867,7.545l.883-.066c-2.946-2-3.771-6.15-2.894-9.6s3.1-6.38,5.277-9.2l19.35-25.126c2.61-3.389,5.37-7.577,3.978-11.622C427.614,433.533,425.625,431.878,423.648,430.463Z" transform="translate(-305.871 -257.138)" fill="#e6e6e6"/>
    <path id="Path_14854" data-name="Path 14854" d="M324.678,349.373a1.634,1.634,0,0,0-1.727.843,11.579,11.579,0,0,1-1.09,1.752,2.953,2.953,0,0,1-3.92-.123,6.223,6.223,0,0,1-1.764-3.854,6.153,6.153,0,0,1,.987-4.935c1.164-1.35,3.077-1.712,4.837-1.993,1.818-.29,3.855-.531,5.345.551.938.682,1.485,1.781,2.354,2.549s2.415,1.059,3.069.1a2.356,2.356,0,0,0-.031-2.183,5.342,5.342,0,0,1-.649-2.161,3.5,3.5,0,0,1,1.754-2.491,8.071,8.071,0,0,0,2.409-2.009c.7-1.092.624-2.5,1.057-3.72,1.048-2.956,4.788-4.271,5.877-7.213a2.781,2.781,0,0,0,.083-1.95c-.456-1.171-1.688-.942-1.764-2.374a3.855,3.855,0,0,1,2.231-3.285c1.6-.789,3.467-.725,5.25-.773s3.706-.285,5.015-1.5a4.322,4.322,0,0,0-.46-6.43c-.975-.674-2.209-.908-3.158-1.618-1.182-.885-1.742-2.358-2.662-3.512a13.514,13.514,0,0,0-2.608-2.309l-2.37-1.759a12.636,12.636,0,0,0-4.652-2.524,4.313,4.313,0,0,0-4.678,1.708,5.277,5.277,0,0,0-.549,2.221,31.981,31.981,0,0,0,.226,5.44l.43,4.356c.129,1.3-.009,3.018-1.273,3.355-2.8.749-1.857-3.4-2.479-4.665-.952-1.943-5.323-2.877-7.193-3.687a6.7,6.7,0,0,1-3.1-2.123,4.678,4.678,0,0,1-.009-4.538,19.118,19.118,0,0,1,2.827-3.8c1.038-1.236,1.983-2.546,2.927-3.855l3.285-4.555c1.4-1.947,2.88-4.324,2.083-6.588a1.772,1.772,0,0,0-3.244.391c-.35,1.222.583,2.783-.309,3.689a1.673,1.673,0,0,1-2.146-.04,4.875,4.875,0,0,1-1.283-1.94c-1.081-2.4-2.134-4.819-3.244-7.208-.351-.755-.717-2.048-1.78-1.921-.923.111-1.421,1.455-1.389,2.236a8.7,8.7,0,0,0,1.154,3.182,3.787,3.787,0,0,1,.289,3.276c-.667,1.276-2.357,1.562-3.8,1.52a17.8,17.8,0,0,1-7.769-2.05l-.188,4-5.729-2.4L300.039,282c-1.611-.674-3.224-1.349-4.882-1.9-.942-.311-1.9-.58-2.85-.849l-1.74-.49a9.129,9.129,0,0,0-3.571-.509,13.591,13.591,0,0,0-3.588,1.356c-2.628,1.141-6.028-.007-8.845-.027a11.825,11.825,0,0,0-19.867.55,23.664,23.664,0,0,0-1.32,2.655l-1.146,2.569a8.315,8.315,0,0,0-1.023,3.951,2.856,2.856,0,0,0,2.537,2.76c-3.244,1.469-3.919,6.608-1.164,8.865a25.943,25.943,0,0,1,2.385,1.741,3.739,3.739,0,0,1-2.809,6.34,9.107,9.107,0,0,0,10.825-3.391c1.178-1.844,1.69-4.148,3.292-5.638,2.122-1.973,5.627-1.82,8.074-.269s4,4.194,5.06,6.889c1.4,3.532,2.289,7.567,5.262,9.929,1.438,1.142,3.258,1.785,4.529,3.11,1.809,1.888,2.123,4.736,2.082,7.351s-.322,5.327.63,7.762,3.683,4.438,6.131,3.52a9.752,9.752,0,0,0,4.082,11.39l-1.338-8.3c2.223.626,3.664,2.782,4.5,4.937s1.272,4.484,2.478,6.454c1.9,3.1,5.339,4.438,8.838,4.426,3.78-.013,5.215-1.815,7.706-4.469a4.065,4.065,0,0,0,1.105-1.659A1.4,1.4,0,0,0,324.678,349.373Z" transform="translate(-250.858 -197.222)" fill="#e6e6e6"/>
    <path id="Path_14855" data-name="Path 14855" d="M388.747,400.8l-6.338-1,3.323,2a12.016,12.016,0,0,0,2.984,1.438,4.053,4.053,0,0,0,3.21-.338l-.27-.517C391.23,401.31,389.892,400.983,388.747,400.8Z" transform="translate(-304.224 -248.79)" fill="#e6e6e6"/>
    <path id="Path_14856" data-name="Path 14856" d="M384.575,417.258l.015-.037a1.241,1.241,0,0,0-1.26-.584,4.605,4.605,0,0,1-1.474.024,2.09,2.09,0,0,1-1.267-1.44c-.21-.632-.272-1.308-.511-1.929a2.831,2.831,0,0,0-2.288-1.866,1.977,1.977,0,0,0-2.127,1.785,3.3,3.3,0,0,0,.493,1.5l.684,1.315a8.834,8.834,0,0,0,.661,1.131,4.417,4.417,0,0,0,7.074.1Z" transform="translate(-301.488 -253.5)" fill="#e6e6e6"/>
    <path id="Path_14857" data-name="Path 14857" d="M366.48,214.376c1.609.948,3.623,1.6,4.388,3.306l.441.142-1.443,1.793a4.162,4.162,0,0,0-1.206,2.51,3.066,3.066,0,0,0,2.544,2.6,5.575,5.575,0,0,0,6.445-3.8c.151-.55.213-1.121.346-1.676a13.635,13.635,0,0,1,1.727-3.71l12.816-21.561c.532-.9,1.08-1.966.68-2.927a2.3,2.3,0,0,0-2.271-1.218,6.743,6.743,0,0,0-2.585.869,4.4,4.4,0,0,0-3.443-2.208,13,13,0,0,0-4.226.368,26.017,26.017,0,0,0-8.866,3.046c-1.5.76-3.156,1.7-3.592,3.324-.536,2,1.192,4.039,3.181,4.614s4.113.092,6.127-.392a4.636,4.636,0,0,1-7.749,4.374c-1.443-1.405-2.15-3.845-4.132-4.208s-3.545,1.745-3.981,3.706a10.53,10.53,0,0,0,4.8,11.05Z" transform="translate(-295.731 -163.052)" fill="#e6e6e6"/>
    <path id="Path_14858" data-name="Path 14858" d="M396.466,279.024a37.877,37.877,0,0,0-3.727-7.648,22.854,22.854,0,0,0-4.237-5.105,16.37,16.37,0,0,0-5.124-3,8.857,8.857,0,0,0-5.691-.384,4.691,4.691,0,0,0-3.371,4.25c.041,2.141,1.915,3.816,3.868,4.7s4.125,1.263,5.967,2.355a8.945,8.945,0,0,1,4.3,7.221l.464.767a9.276,9.276,0,0,0-2.895,1.576,3.148,3.148,0,0,0-1.1,2.958c.322,1.3,1.646,2.041,2.843,2.634l6.637,3.287c-1.126-3.359,2.562-6.485,2.766-10.021A9.262,9.262,0,0,0,396.466,279.024Z" transform="translate(-300.941 -193.116)" fill="#e6e6e6"/>
    <path id="Path_14859" data-name="Path 14859" d="M317.168,268.11c1.342,1.042,3.405.555,4.635-.618a10.821,10.821,0,0,0,2.387-4.447,17.17,17.17,0,0,0,.057,4.781,5.791,5.791,0,0,0,2.52,3.916,6.787,6.787,0,0,0,1.939.706,16.324,16.324,0,0,0,9.472-.677l.027-1.033c-1.517.173-2.666-1.491-2.766-3.015s.453-3.018.5-4.545-.687-3.31-2.19-3.581a2.905,2.905,0,0,1-3.695,3.986c-1.74-.707-2.372-2.827-3.716-4.138a5.638,5.638,0,0,0-6.187-.87,7.674,7.674,0,0,0-3.977,5.058C315.767,265.2,315.888,267.116,317.168,268.11Z" transform="translate(-277.271 -191.271)" fill="#e6e6e6"/>
    <path id="Path_14860" data-name="Path 14860" d="M377.641,252.637l.062-.1a3.206,3.206,0,0,0-2.669-1.877,17.348,17.348,0,0,0-3.425.113,4.966,4.966,0,0,1-3.284-.723,12.562,12.562,0,0,1-1.849-2.249,2.406,2.406,0,0,0-2.539-1.006,1.985,1.985,0,0,0-.767,2.7,4.78,4.78,0,0,0,2.4,1.962A18.544,18.544,0,0,0,377.641,252.637Z" transform="translate(-296.326 -186.674)" fill="#e6e6e6"/>
    <path id="Path_14861" data-name="Path 14861" d="M365.565,261.968a1.507,1.507,0,0,0,1.679,2.5l.331.327a2.353,2.353,0,0,0,.059-2.55A1.563,1.563,0,0,0,365.565,261.968Z" transform="translate(-297.141 -192.763)" fill="#e6e6e6"/>
    <path id="Path_14862" data-name="Path 14862" d="M357.811,266a1.4,1.4,0,0,0-.87-1.316,1.336,1.336,0,0,0-1.551,1.148,2.665,2.665,0,0,0,.7,2.005,1.839,1.839,0,0,0,1.277.8c.519.017,1.048-.525.837-1l-.792-.015A4.089,4.089,0,0,0,357.811,266Z" transform="translate(-293.261 -193.966)" fill="#e6e6e6"/>
    <path id="Path_14863" data-name="Path 14863" d="M332.476,249.8l.873.707a10.462,10.462,0,0,0,1.625,1.154,4.452,4.452,0,0,0,3.312.405,3.409,3.409,0,0,0,2.331-2.3,6.046,6.046,0,0,0-.775-3.908,2.372,2.372,0,0,0-.61-.93.813.813,0,0,0-1.029-.04,1.018,1.018,0,0,0-.166.977,2.663,2.663,0,0,1,.161,1.019c-.055.342-.414.665-.731.524l-.05,1.164c-1.51-.764-2.309-2.8-3.99-3a2.074,2.074,0,0,0-2.071,3.044,4.166,4.166,0,0,0,1.119,1.182Z" transform="translate(-283.413 -185.877)" fill="#e6e6e6"/>
    <path id="Path_14864" data-name="Path 14864" d="M325.318,242.541a2.3,2.3,0,0,0,.98-2.191,1.414,1.414,0,0,0-1.92-1.024,2.277,2.277,0,0,0-.855,1.313l-1.194,3.368.669-.487A6.766,6.766,0,0,0,325.318,242.541Z" transform="translate(-279.852 -183.645)" fill="#e6e6e6"/>
    <path id="Path_14865" data-name="Path 14865" d="M338.906,231.812a1.316,1.316,0,0,0-.407-1.976l-.836-.078a1.255,1.255,0,1,0,1.243,2.054Z" transform="translate(-285.688 -179.806)" fill="#e6e6e6"/>
    <path id="Path_14866" data-name="Path 14866" d="M351.506,230.962c.781.373,1.769.729,2.448.193a1.544,1.544,0,0,0,.473-1.471,3.741,3.741,0,0,0-.69-1.454,13.966,13.966,0,0,0-3.884-3.75l-.377.49c-.527,1.369-1.036,2.967-.3,4.236A5,5,0,0,0,351.506,230.962Z" transform="translate(-290.593 -177.665)" fill="#e6e6e6"/>
    <path id="Path_14867" data-name="Path 14867" d="M363.132,237.418l1.46.66a1.369,1.369,0,0,0-1.46-.66Z" transform="translate(-296.404 -182.902)" fill="#e6e6e6"/>
    <path id="Path_14868" data-name="Path 14868" d="M355.8,245.158l-.69.227a4.35,4.35,0,0,0-.059,3.291c.172.692.544,1.544,1.257,1.512.693-.031,1-.871,1.133-1.552a4.685,4.685,0,0,0,.066-2.27A1.609,1.609,0,0,0,355.8,245.158Z" transform="translate(-293.006 -186.051)" fill="#e6e6e6"/>
    <path id="Path_14869" data-name="Path 14869" d="M337.929,239.1l.51.205a.549.549,0,1,0-.51-.205Z" transform="translate(-286.133 -183.236)" fill="#e6e6e6"/>
    <path id="Path_14870" data-name="Path 14870" d="M380.262,304.587a1.551,1.551,0,0,0-1.419,2.091,1.872,1.872,0,0,0,2.994.174,2.349,2.349,0,0,0-.606-3.4Z" transform="translate(-302.738 -209.701)" fill="#e6e6e6"/>
    <path id="Path_14871" data-name="Path 14871" d="M422.335,348.358a1.553,1.553,0,0,0-1.089,1.943l1.433.1,1.456-.731a1.553,1.553,0,0,0-1.8-1.311Z" transform="translate(-319.954 -227.909)" fill="#e6e6e6"/>
    <path id="Path_14872" data-name="Path 14872" d="M412.472,350.818a2.962,2.962,0,0,0-1.241,2.592,2.369,2.369,0,0,0,1.854,2.095,1.98,1.98,0,0,0,2.238-1.518c.242-1.482-1.35-2.568-1.923-3.956Z" transform="translate(-315.914 -228.597)" fill="#e6e6e6"/>
    <path id="Path_14873" data-name="Path 14873" d="M505.888,330.393c.151,1.113-.851,2.087-.888,3.209a2.451,2.451,0,0,0,2.731,2.237,4.318,4.318,0,0,0,3.1-2.279l.029-.125-1.937-2.19a4.858,4.858,0,0,1-1.6-3.113c.015-.59.248-1.161.235-1.751a4.24,4.24,0,0,0-.281-1.238c-.175-.522-.413-1.11-.934-1.286-.653-.221-1.311.358-1.623.972a3.847,3.847,0,0,0,.114,3.623A5.679,5.679,0,0,1,505.888,330.393Z" transform="translate(-353.68 -217.96)" fill="#e6e6e6"/>
    <path id="Path_14874" data-name="Path 14874" d="M496.541,339.064a1.113,1.113,0,0,0,.928.06,4.855,4.855,0,0,0,1.633-.593,1.649,1.649,0,0,0,.8-1.458,1.907,1.907,0,0,0-1.554-1.443,1.67,1.67,0,0,0-1.554.237,2.109,2.109,0,0,0-.329,1.87l-.1.17C496.271,338.311,496.214,338.813,496.541,339.064Z" transform="translate(-350.423 -222.717)" fill="#e6e6e6"/>
    <path id="Path_14875" data-name="Path 14875" d="M667.386,420.765l-.419-1.042C666.775,420.194,666.847,420.677,667.386,420.765Z" transform="translate(-419.622 -256.869)" fill="#e6e6e6"/>
    <path id="Path_14876" data-name="Path 14876" d="M687.128,274.388a19.2,19.2,0,0,1-4.022-5.476,8.874,8.874,0,0,0-6.714-5.042c-3.718-.613-7.519.357-11.282.163-6.029-.311-11.465-3.545-17.238-5.308a72.133,72.133,0,0,0-9.851-2.032l-5.751-.909c-6.284-.994-12.608-1.991-18.969-1.859-1.834.038-4.389-.513-4.242-2.342.182-2.271,4.269-1.973,5.055-4.112.486-1.323-.678-2.712-1.954-3.31s-2.749-.778-3.908-1.581-1.793-2.665-.728-3.589l-8.852,4.538c-2.453,1.258-5.194,2.894-5.627,5.616a6.508,6.508,0,0,0-3.654,2.538c-1.66.009-2.964,1.6-3.238,3.239a10.736,10.736,0,0,0,.716,4.879,8.3,8.3,0,0,0-2.3-3.1,2.847,2.847,0,0,0-3.581.039c-.928.959-.711,2.569-.055,3.731s1.666,2.1,2.285,3.283c1.935,3.693-1.572,8.892-5.721,8.48l.835-11.44a7.655,7.655,0,0,0-.288-3.5,2.622,2.622,0,0,0-2.765-1.73c-2.074.464-1.9,3.5-1.034,5.443s1.722,4.642-.038,5.831c-1.137.768-2.679.294-3.906-.319s-2.541-1.368-3.883-1.082-2.186,2.338-1,3.028l-5.9-1.025a4.2,4.2,0,0,1-5.25,3.35l-.579-2.4-.863-.24c.9.252-.51,4.06-1.777,6.97-1.7-.2-4.192-.238-4.476-.726-1.36-2.337-1.2-7.9-3.561-9.218q-1.777-.989-3.645-1.8a8.551,8.551,0,0,0-2.057-.675,9.559,9.559,0,0,0-4.314.666,11.067,11.067,0,0,0-7.688,5.67l-8.113,12.008a12.871,12.871,0,0,0-1.879,3.521,4.6,4.6,0,0,0,.428,3.812,2.95,2.95,0,0,0,3.455,1.18c.784-.339,1.569-1.108,2.346-.753a1.617,1.617,0,0,1,.674,1.686,4.5,4.5,0,0,0-.035,1.921,2.012,2.012,0,0,0,2.684.917,4.148,4.148,0,0,0,1.972-2.4c.935-2.4.84-5.051,1.073-7.615s.933-5.3,2.954-6.9a1.841,1.841,0,0,1,2.117-.367,1.513,1.513,0,0,1,.372,1.718,6.728,6.728,0,0,1-1.008,1.584,8.685,8.685,0,0,0-1.429,6.779l.413.256c1.576-.409,3.685.323,5.777,1.025a7.519,7.519,0,0,0-3.821,2.628c-2.418,3.393-4.168,6.6-8.952,6.563-1.135-.01-2.26-.234-3.395-.236a4.437,4.437,0,0,0-3.148,1.048c-.86.842-1.126,2.125-1.862,3.078-.968,1.253-2.586,1.763-4.063,2.332a4.633,4.633,0,0,0-2.714,2.022,5.01,5.01,0,0,0-.208,2.678c.166,1.583.461,3.383,1.8,4.238a4.272,4.272,0,0,0,3.288.278c1.4-.34,2.763-.98,4.2-.884a4.7,4.7,0,0,1,4.13,4.569c.012,1.142-.322,2.453.436,3.309a2.023,2.023,0,0,0,2.86-.12,3.3,3.3,0,0,0,.621-3.025,9.729,9.729,0,0,0-1.425-2.871,3.35,3.35,0,0,1,3.855,1.782,12.626,12.626,0,0,1,.5,3.6c.16,1.208.9,2.551,2.112,2.621a1.7,1.7,0,0,0,1.714-1.346,12.251,12.251,0,0,0-.1-1.835,2.35,2.35,0,0,1,2.374-2.187,3.349,3.349,0,0,0,.821,4.183,7.273,7.273,0,0,0,3.3,1.077,5.011,5.011,0,0,1,3.129,1.421c1.24,1.505-.277,2.183-.513,3.458-.29,1.565,1.017,3.876,1.519,5.373l6.922,9.684a11.715,11.715,0,0,0,1.809,2.145,6.363,6.363,0,0,0,8.217-.3,7.045,7.045,0,0,0,1.2-8.284c-1.35-2.457-4.025-3.979-5.345-6.452a14.1,14.1,0,0,0,7.74,3.183,39.029,39.029,0,0,1,14.062,5.9A19.608,19.608,0,0,0,583,349.072a17.33,17.33,0,0,1,5.029-9.986c1.778-1.734,4.207-3.131,6.645-2.665s4.289,3.576,2.814,5.573l3.708.276,1.663,4.135a1.432,1.432,0,0,1,1.4-.97c1.157.175,1.969,1.251,3.069,1.649,2.075.749,4.293-1.326,4.561-3.516s-.773-4.3-1.785-6.264a11.691,11.691,0,0,0,12.013-17.739,29.769,29.769,0,0,1,8.363-6.157c2.894-1.43,6.059-2.411,8.588-4.416s4.3-5.488,3.086-8.477c-.859-2.112-3.015-3.545-3.66-5.732-.934-3.166,1.9-6.44,5.107-7.231s6.551.181,9.707,1.146c-.485-3.248,3.28-6.293,6.355-5.14l3.863-1.564c-1.493,3.291-4.728,5.385-7.106,8.106s-3.795,7.152-1.31,9.776l10.684-9.684,11.176-10.129-.534-1.568C679.961,277.157,683.757,276.05,687.128,274.388Z" transform="translate(-355.517 -183.551)" fill="#e6e6e6"/>
    <path id="Path_14877" data-name="Path 14877" d="M497.422,366.945a1.227,1.227,0,0,0,.007,1.41,1.079,1.079,0,0,0,1.375.018,3.146,3.146,0,0,0,.871-1.206,1.962,1.962,0,0,0,1.995,1.045,4.907,4.907,0,0,0,2.2-.918,4.828,4.828,0,0,0,1.337-1.16,1.909,1.909,0,0,0,.336-1.68,2.9,2.9,0,0,0-.869-1.121l-2.827-2.611-.319-.1a1.8,1.8,0,0,0-2.6-.028,3.223,3.223,0,0,0-.5,2.508,4.746,4.746,0,0,1-.16,2.592C498.049,366.149,497.671,366.507,497.422,366.945Z" transform="translate(-350.793 -232.665)" fill="#e6e6e6"/>
    <path id="Path_14878" data-name="Path 14878" d="M547.3,402.694a19.65,19.65,0,0,1-14.932-15.009c-.347-1.73-.5-3.621-1.656-4.958a6.048,6.048,0,0,0-4.643-1.762c-1.708,0-3.392.393-5.1.5a10.84,10.84,0,0,1-8.272-2.694,22.362,22.362,0,0,0-2.953-3.03,6.414,6.414,0,0,0-5.491-.454c-2.011.663-3.621,2.476-5.82,2.227-2.287-.26-4.937-1.068-5.834,1.943-.258.867-.17,1.818-.5,2.661-.5,1.3-1.841,2.033-2.9,2.941a11.744,11.744,0,0,0-3.645,7.39,34.921,34.921,0,0,0,.209,8.4,7.109,7.109,0,0,0,1.4,4.234c1.442,1.542,3.863,1.483,5.967,1.309l7.335-.606c1.318-.109,2.819-.155,3.758.777a20.8,20.8,0,0,1,1.295,1.986,3.048,3.048,0,0,0,3.719.75,6.174,6.174,0,0,0,4.658,9.148l.188.119c-1.565,2.68-3.189,5.69-2.54,8.725.557,2.6,2.712,4.689,3.064,7.327.323,2.42-.939,4.9-.381,7.273a6.02,6.02,0,0,0,5.463,4.264,9.87,9.87,0,0,0,6.8-2.485,29.319,29.319,0,0,0,4.843-5.591,10.813,10.813,0,0,0,2.129-4.014c.328-1.591-.052-3.355.721-4.783.892-1.648,3.01-2.265,4.08-3.8,1.384-1.992.569-4.706.875-7.113C539.907,412.408,547.475,408.7,547.3,402.694Z" transform="translate(-345.998 -238.679)" fill="#e6e6e6"/>
    <path id="Path_14879" data-name="Path 14879" d="M584.773,455.641a3.468,3.468,0,0,1-1.908,2.01,4.839,4.839,0,0,0-2.165,1.794,4.272,4.272,0,0,0-.009,2.866q.707,2.962,1.665,5.856a59.621,59.621,0,0,0,3.237-7.243,9.515,9.515,0,0,0,.71-2.9,3.591,3.591,0,0,0-.977-2.744Z" transform="translate(-384.561 -271.292)" fill="#e6e6e6"/>
    <path id="Path_14880" data-name="Path 14880" d="M669.211,434.749l-3.12-3.6a4.525,4.525,0,0,0-2.6-1.835l-.444.283,2.7,6.441a6.116,6.116,0,0,0,1.633,2.569,2.1,2.1,0,0,0,2.789-.019,2.068,2.068,0,0,0,.245-2.052,6.1,6.1,0,0,0-1.209-1.786Z" transform="translate(-418.071 -260.759)" fill="#e6e6e6"/>
    <path id="Path_14881" data-name="Path 14881" d="M687.629,437.254a2.99,2.99,0,0,0,1.768-1.648,8.854,8.854,0,0,0,.632-2.4l.533-3.225-.232-.06a1.035,1.035,0,0,0-1.313.364,5.137,5.137,0,0,0-.588,1.374,1.665,1.665,0,0,1-.95,1.092c-.835.252-1.625-.633-2.5-.6a1.57,1.57,0,0,0-1.364,1.4,3.044,3.044,0,0,0,.57,2A3.317,3.317,0,0,0,687.629,437.254Z" transform="translate(-426.413 -260.965)" fill="#e6e6e6"/>
    <path id="Path_14882" data-name="Path 14882" d="M699.947,441.449l2.4-6.312A6.156,6.156,0,0,0,699.947,441.449Z" transform="translate(-432.981 -263.122)" fill="#e6e6e6"/>
    <path id="Path_14883" data-name="Path 14883" d="M720.064,437.2l-.485.021a3.127,3.127,0,0,0-.026,2.768,6.239,6.239,0,0,0,1.808,2.2,12.7,12.7,0,0,0,3.988,2.227,25.38,25.38,0,0,0,6.554,1.009l3.806.249c.6.039,1.386-.037,1.554-.619.139-.48-.271-.932-.653-1.255a23.916,23.916,0,0,0-11.762-5.339C723.2,438.205,721.459,438.1,720.064,437.2Z" transform="translate(-440.868 -263.957)" fill="#e6e6e6"/>
    <path id="Path_14884" data-name="Path 14884" d="M721.154,461.71l-2.737-2.654c-.887-.86-2.217-1.772-3.234-1.07-.584.4-.765,1.191-1.26,1.7a2.434,2.434,0,0,1-2.257.537,7.18,7.18,0,0,1-2.179-1.033l-2.264-1.4-2.344-1.454-1.763,1.713c.077-.843-1.048-1.391-1.826-1.058a2.82,2.82,0,0,0-1.4,2.007,11,11,0,0,1-.674,2.441c-.9,1.714-3.069,2.221-4.981,2.508s-4.078.691-5.1,2.332c-.852,1.366-.6,3.121-.312,4.706l1.078,6a3.278,3.278,0,0,0,.828,1.958c.947.836,2.413.328,3.568-.182a24.13,24.13,0,0,1,7.669-2.223,11.068,11.068,0,0,1,7.6,1.946c1.37,1.043,2.415,2.488,3.867,3.414a7.671,7.671,0,0,0,6.709.586,9.989,9.989,0,0,0,5.1-4.551,11.954,11.954,0,0,0-.258-11.834A23.464,23.464,0,0,0,721.154,461.71Z" transform="translate(-428.415 -271.72)" fill="#e6e6e6"/>
    <path id="Path_14885" data-name="Path 14885" d="M738.632,506.206a1.612,1.612,0,0,0-.1,1.911,2.64,2.64,0,0,0,1.687,1.086,7.841,7.841,0,0,0,2.051.094l.021-.512a5.254,5.254,0,0,0-1.2-2.421A1.808,1.808,0,0,0,738.632,506.206Z" transform="translate(-448.584 -291.785)" fill="#e6e6e6"/>
    <path id="Path_14886" data-name="Path 14886" d="M776.136,507.328l-.327-.12-2.336,3.52a2.5,2.5,0,0,0-.6,2.1,1.89,1.89,0,0,0,2.289.869,3.612,3.612,0,0,0,2.612-2.867A3.546,3.546,0,0,0,776.136,507.328Z" transform="translate(-462.593 -292.359)" fill="#e6e6e6"/>
    <path id="Path_14887" data-name="Path 14887" d="M786.821,499.977l-2.149-1.709q-.043,1.189-.086,2.378H784.5a15.818,15.818,0,0,1,1.4,1.393c.5.428,1.347.623,1.777.122a1.124,1.124,0,0,0,.046-1.241A3.3,3.3,0,0,0,786.821,499.977Z" transform="translate(-467.342 -288.732)" fill="#e6e6e6"/>
    <path id="Path_14888" data-name="Path 14888" d="M719.887,371.962a3.838,3.838,0,0,0-2.6.488,3.489,3.489,0,0,0-.6.7l-.246.345a9.473,9.473,0,0,0-.96,1.544,2.036,2.036,0,0,0-.131,1.684.977.977,0,0,0,1.441.414c.385-.357.3-1,.587-1.442a1.348,1.348,0,0,1,1.085-.519,7.127,7.127,0,0,1,1.239.14,5.979,5.979,0,0,0,5.851-9.14l-.073-.222a2.671,2.671,0,0,0-2.709,2.088c-.2,1.051.226,2.272-.411,3.131A2.87,2.87,0,0,1,719.887,371.962Z" transform="translate(-439.238 -235.055)" fill="#e6e6e6"/>
    <path id="Path_14889" data-name="Path 14889" d="M734.625,357.311l-.137-.012a6.97,6.97,0,0,0-2.287.852,1.06,1.06,0,0,0-.521.529.769.769,0,0,0,.182.707,2.268,2.268,0,0,0,.607.457,3.613,3.613,0,0,0,1.1.493,1.223,1.223,0,0,0,1.125-.291,1.626,1.626,0,0,0,.264-1.347,7.085,7.085,0,0,0-.334-1.388Z" transform="translate(-445.904 -231.546)" fill="#e6e6e6"/>
    <path id="Path_14890" data-name="Path 14890" d="M711.958,374.741a3.47,3.47,0,0,0,.453-1.124l.252-.928-.9-.546a5.209,5.209,0,0,0-1.177.839,1.756,1.756,0,0,0-.54,1.3,1.073,1.073,0,0,0,.882,1,1.179,1.179,0,0,0,1.028-.542Z" transform="translate(-437.137 -237.567)" fill="#e6e6e6"/>
    <path id="Path_14891" data-name="Path 14891" d="M548.311,235.806c-.356.222-.255.757-.111,1.151l.5,1.355.232-.877a1.864,1.864,0,0,0,.256-1.13C549.1,235.919,548.645,235.6,548.311,235.806Z" transform="translate(-371.427 -182.233)" fill="#e6e6e6"/>
    <path id="Path_14892" data-name="Path 14892" d="M814.177,280.624H663.811a13.685,13.685,0,0,1-13.669-13.67V159.38a13.685,13.685,0,0,1,13.669-13.67H814.177a13.685,13.685,0,0,1,13.67,13.67V266.954a13.685,13.685,0,0,1-13.67,13.67Z" transform="translate(-412.835 -145.711)" fill="#fff"/>
    <path id="Path_14893" data-name="Path 14893" d="M814.177,280.624H663.811a13.685,13.685,0,0,1-13.669-13.67V159.38a13.685,13.685,0,0,1,13.669-13.67H814.177a13.685,13.685,0,0,1,13.67,13.67V266.954a13.685,13.685,0,0,1-13.67,13.67ZM663.811,146.9A12.5,12.5,0,0,0,651.33,159.38V266.954a12.5,12.5,0,0,0,12.481,12.481H814.177a12.5,12.5,0,0,0,12.481-12.481V159.38A12.5,12.5,0,0,0,814.177,146.9Z" transform="translate(-412.835 -145.711)" fill="#3f3d56"/>
    <path id="Path_14894" data-name="Path 14894" d="M724.127,170.024H700.354a2.377,2.377,0,0,1,0-4.755h23.773a2.377,2.377,0,0,1,0,4.755Z" transform="translate(-432.24 -153.645)" fill="#ccc"/>
    <path id="Path_14895" data-name="Path 14895" d="M775.834,260.024h-75.48a2.377,2.377,0,1,1,0-4.755h75.48a2.377,2.377,0,0,1,0,4.755Z" transform="translate(-432.24 -190.155)" fill="#ccc"/>
    <circle id="Ellipse_3368" data-name="Ellipse 3368" cx="15.939" cy="15.939" r="15.939" transform="translate(265.544 22.982)" fill="#f2f2f2"/>
    <rect id="Rectangle_4498" data-name="Rectangle 4498" width="3.566" height="1.189" transform="translate(265.736 115.269)" fill="#3f3d56"/>
    <path id="Path_14896" data-name="Path 14896" d="M813.784,340.846H806.3v-1.189h7.479Zm-14.958,0h-7.479v-1.189h7.479Zm-14.958,0H776.39v-1.189h7.479Zm-14.957,0h-7.479v-1.189h7.479Zm-14.958,0h-7.479v-1.189h7.479Zm-14.957,0h-7.479v-1.189H739Zm-14.957,0H716.56v-1.189h7.479Z" transform="translate(-439.779 -224.389)" fill="#3f3d56"/>
    <rect id="Rectangle_4499" data-name="Rectangle 4499" width="3.566" height="1.189" transform="translate(381.483 115.269)" fill="#3f3d56"/>
    <rect id="Rectangle_4500" data-name="Rectangle 4500" width="2.972" height="20.207" transform="translate(323.29 94.237)" fill="#0f1f54"/>
    <rect id="Rectangle_4501" data-name="Rectangle 4501" width="2.972" height="20.207" transform="translate(353.601 94.237)" fill="#0f1f54"/>
    <rect id="Rectangle_4502" data-name="Rectangle 4502" width="2.972" height="8.915" transform="translate(368.459 105.529)" fill="#0f1f54"/>
    <rect id="Rectangle_4503" data-name="Rectangle 4503" width="2.972" height="29.122" transform="translate(338.148 85.322)" fill="#0f1f54"/>
    <circle id="Ellipse_3369" data-name="Ellipse 3369" cx="3.566" cy="3.566" r="3.566" transform="translate(49.898 127.519)" fill="#0f1f54"/>
    <circle id="Ellipse_3370" data-name="Ellipse 3370" cx="3.566" cy="3.566" r="3.566" transform="translate(59.407 110.283)" fill="#0f1f54"/>
    <circle id="Ellipse_3371" data-name="Ellipse 3371" cx="3.566" cy="3.566" r="3.566" transform="translate(164.01 96.614)" fill="#0f1f54"/>
    <path id="Path_14897" data-name="Path 14897" d="M144.23,583.306h5.379l2.559-20.746h-7.938Z" transform="translate(-58.509 -228.213)" fill="#ffb6b6"/>
    <path id="Path_14898" data-name="Path 14898" d="M394.77,746.516h16.54v-.209a6.438,6.438,0,0,0-6.437-6.438h0l-3.021-2.292-5.637,2.292H394.77Z" transform="translate(-309.239 -385.812)" fill="#2f2e41"/>
    <path id="Path_14899" data-name="Path 14899" d="M212.23,583.306h5.379l2.559-20.746h-7.938Z" transform="translate(-86.095 -228.213)" fill="#ffb6b6"/>
    <path id="Path_14900" data-name="Path 14900" d="M462.77,746.516h16.54v-.209a6.438,6.438,0,0,0-6.437-6.438h0l-3.021-2.292-5.637,2.292H462.77Z" transform="translate(-336.824 -385.812)" fill="#2f2e41"/>
    <path id="Path_14901" data-name="Path 14901" d="M394.737,458.283l9.545-1.367c3.228,5.4,4.375,19.766,4.375,19.766l9.342,22.2a4.257,4.257,0,1,1-6.637,3.2L396.025,476.24Z" transform="translate(-309.226 -271.957)" fill="#ffb6b6"/>
    <path id="Path_14902" data-name="Path 14902" d="M397.561,414.546h0a10.174,10.174,0,0,0-8.037,13.439l2.026,5.741S389,451.013,393.2,455.893l12.9-1.168s-2.359-8.722-.548-12.942c1.109-2.584,1.048-11.51-.045-18.771C404.678,417.467,403.1,413.688,397.561,414.546Z" transform="translate(-306.875 -254.719)" fill="#bfd4e4"/>
    <path id="Path_14903" data-name="Path 14903" d="M441.7,502.27s9.946,9.7,7.822,11.94-6.982,5.379-2.473,5.89,6.38,1.619,2.473,2.551-3.3,3.325-3.3,3.325,5.882,28,1.424,46.426c0,0-2.481,50.323-4.038,54.242s-2.151,1.542-1.557,3.919,1.783-1.783.594,2.377a54.989,54.989,0,0,0-1.538,6.621l-11.626-1.783s-1.872-5.9,0-7.449,3.551-.594,1.523-4.043-2.623,1.306-2.028-3.449-1.887-30.47,2.028-44.06l-7.235-38.134-11.486,39.485s-6.093,48.224-8.072,49.924-4.951-1.272-1.98,1.7,2.92,2.461,2.972,2.972c.553,5.451-16.462-.511-16.462-.511a30.549,30.549,0,0,0,0-4.16c-.179-1.272,1.962-1.679,0-2.961s.957-.011.957-.011,4.388-35.577,7.726-46.358l3.863-52.5s.245,1.047,0-1.5-2.028-.762-.245-2.545,2.972-2.692,1.783-4.02-4.468-4.017-2.531-5.644,5.748-12.242,5.748-12.242l37.146.3" transform="translate(-306.518 -290.356)" fill="#0f1f54"/>
    <path id="Path_14904" data-name="Path 14904" d="M430.733,397.948l-6.7-7.542-10.583,1.176-6.776,9.482h0a14.466,14.466,0,0,0-11.012,16.57c2.629,15.141,11.565,29.825,8.614,37.3-4.479,11.34-4.752,15.965,5.969,14.375s46.639-5.255,39.676-12.219-8.493-18.6-8.493-18.6l-.279-26.623a11.832,11.832,0,0,0-10.418-13.915Z" transform="translate(-309.515 -244.976)" fill="#bfd4e4"/>
    <path id="Path_14905" data-name="Path 14905" d="M451.737,451.283l9.545-1.367c3.228,5.4,4.375,19.766,4.375,19.766l9.342,22.2a4.257,4.257,0,1,1-6.637,3.2L453.025,469.24Z" transform="translate(-332.349 -269.117)" fill="#ffb6b6"/>
    <path id="Path_14906" data-name="Path 14906" d="M454.561,407.546h0a10.174,10.174,0,0,0-8.037,13.439l2.026,5.741S446,444.013,450.2,448.893l12.9-1.168s-2.359-8.722-.548-12.942c1.109-2.584,1.048-11.51-.045-18.771C461.678,410.467,460.1,406.688,454.561,407.546Z" transform="translate(-329.999 -251.88)" fill="#bfd4e4"/>
    <circle id="Ellipse_3372" data-name="Ellipse 3372" cx="12.792" cy="12.792" r="12.792" transform="translate(93.527 119.197)" fill="#ffb6b6"/>
    <path id="Path_14907" data-name="Path 14907" d="M416.864,368.719c3.563-.893,3.684-1.911,7.247-2.8,1.134-.284,2.449-.732,2.785-1.852a2.7,2.7,0,0,0-.641-2.318,21.924,21.924,0,0,1-1.575-1.936,3.885,3.885,0,0,1,2.682-5.82c1.1-.189,2.238.1,3.348-.038,1.521-.194,3.759-5.838,2.783-7.021-.949-1.152-2.507-1.839-3.031-3.237a14.649,14.649,0,0,1-.308-2.9c-.226-1.43-3.119,2.529-2.734,1.134.945-3.423-15.039-3.962-16.7.429-.622,1.641-2.305,1.9-3.6,3.087-.849.776-2.879,3.261-3.173,4.6a9.706,9.706,0,0,0,.138,4.079c1.328,6.256,3.522,11.8,9.362,14.406" transform="translate(-312.898 -224.208)" fill="#2f2e41"/>
    <path id="Path_14908" data-name="Path 14908" d="M255.577,753.016,487.2,753.2a.708.708,0,0,0,0-1.415L255.577,751.6a.708.708,0,0,0,0,1.415Z" transform="translate(-252.485 -391.501)" fill="#cacaca"/>
  </g>
</svg>
