<svg xmlns="http://www.w3.org/2000/svg" width="9.95" height="16.488" viewBox="0 0 9.95 16.488">
    <g data-name="Group 2295">
        <path data-name="Path 3072" d="m5.469 48.368 4.165-4.185a1.1 1.1 0 0 0 0-1.542l-.648-.65a1.082 1.082 0 0 0-1.53 0l-7.14 7.157a1.1 1.1 0 0 0 0 1.539l7.14 7.158a1.083 1.083 0 0 0 1.53 0l.648-.65a1.077 1.077 0 0 0 .316-.767 1.044 1.044 0 0 0-.316-.753l-4.212-4.207s-1.53-1.8-1.558-1.74 1.605-1.36 1.605-1.36z" transform="translate(0 -41.674)" style="fill:#131f51"/>
    </g>
</svg>
