<svg xmlns="http://www.w3.org/2000/svg" width="11.724" height="7.347" viewBox="0 0 11.724 7.347">
    <g data-name="Group 2295">
        <path data-name="Path 3072" d="m3.82 46.338 2.91-2.916a.764.764 0 0 0 0-1.074l-.453-.448a.757.757 0 0 0-1.069 0L.22 46.882a.762.762 0 0 0 0 1.073l4.987 4.987a.758.758 0 0 0 1.069 0l.453-.453a.749.749 0 0 0 .221-.534.727.727 0 0 0-.221-.524L3.787 48.5S2.719 47.245 2.7 47.286s1.12-.948 1.12-.948z" transform="scale(-1) rotate(88 25.264 17.036)" style="fill:#061025"/>
    </g>
</svg>
