<svg xmlns="http://www.w3.org/2000/svg" width="183.902" height="140.46" viewBox="0 0 183.902 140.46">
  <g id="undraw_done_checking_re_6vyx" transform="translate(0)">
    <path id="Path_16955" data-name="Path 16955" d="M267.832,686.341l-.009.056c-.01-.054-.02-.11-.029-.164-.017-.088-.032-.177-.046-.266a21.647,21.647,0,0,1,.885-10.368q.327-.976.745-1.916a21.238,21.238,0,0,1,4.451-6.5,9.161,9.161,0,0,1,2.064-1.584c.112-.059.224-.115.338-.167a3.777,3.777,0,0,1,2.265-.328,3.086,3.086,0,0,1,.806.271c.089.043.176.091.26.142a4.476,4.476,0,0,1,1.959,3,6.993,6.993,0,0,1-.1,2.726q-.027.128-.059.255a14.208,14.208,0,0,1-.564,1.751A22.975,22.975,0,0,1,267.832,686.341Z" transform="translate(-250.861 -546.101)" fill="#f2f2f2"/>
    <path id="Path_16956" data-name="Path 16956" d="M280.069,666.321q-2.643,3.8-4.994,7.79t-4.389,8.146q-1.142,2.327-2.183,4.7c-.077.175.182.328.26.15q1.861-4.237,4.038-8.325t4.658-7.995q1.389-2.188,2.87-4.315c.11-.159-.15-.308-.26-.15Z" transform="translate(-251.641 -547.032)" fill="#fff"/>
    <path id="Path_16957" data-name="Path 16957" d="M302.726,692.2a8.252,8.252,0,0,1-5.425,3.144,7.842,7.842,0,0,1-1.811.036c-.193-.018-.194.282,0,.3a8.552,8.552,0,0,0,6.2-1.959,8.143,8.143,0,0,0,1.3-1.371c.116-.154-.145-.3-.26-.15Z" transform="translate(-272.412 -567.054)" fill="#fff"/>
    <path id="Path_16958" data-name="Path 16958" d="M273.623,710.063a6.912,6.912,0,0,1-.762-1.409,7.288,7.288,0,0,1-.468-3.578q.327-.976.745-1.916a.172.172,0,0,1,.014.17,6.6,6.6,0,0,0-.42,1.464,6.966,6.966,0,0,0,1.153,5.121.122.122,0,0,1,.02.118.164.164,0,0,1-.281.031Z" transform="translate(-254.62 -575.577)" fill="#fff"/>
    <path id="Path_16959" data-name="Path 16959" d="M304.1,666.256a6.994,6.994,0,0,0,.308,4.345.151.151,0,0,0,.205.056.154.154,0,0,0,.056-.2,6.656,6.656,0,0,1-.279-4.117.15.15,0,0,0-.29-.079Z" transform="translate(-279.021 -546.952)" fill="#fff"/>
    <path id="Path_16960" data-name="Path 16960" d="M253.3,645.4l.018.053-.1-.132c-.056-.07-.11-.142-.164-.214a21.647,21.647,0,0,1-4.032-9.592q-.164-1.016-.231-2.042a21.239,21.239,0,0,1,.921-7.827,9.16,9.16,0,0,1,1.092-2.362c.071-.1.145-.206.222-.3a3.777,3.777,0,0,1,1.853-1.343,3.087,3.087,0,0,1,.84-.135c.1,0,.2,0,.3.005a4.476,4.476,0,0,1,3.127,1.744,6.991,6.991,0,0,1,1.179,2.46q.035.126.067.253a14.2,14.2,0,0,1,.314,1.813A22.975,22.975,0,0,1,253.3,645.4Z" transform="translate(-236.361 -512.416)" fill="#f2f2f2"/>
    <path id="Path_16961" data-name="Path 16961" d="M267.449,621.138q-.576,4.592-.8,9.218t-.1,9.252q.07,2.591.25,5.177c.013.191.314.205.3.012q-.321-4.617-.291-9.248t.411-9.244q.213-2.583.537-5.155C267.774,620.958,267.473,620.947,267.449,621.138Z" transform="translate(-250.102 -512.031)" fill="#fff"/>
    <path id="Path_16962" data-name="Path 16962" d="M272.964,640.188a8.252,8.252,0,0,1-3.344,5.3,7.841,7.841,0,0,1-1.587.873c-.179.073-.041.34.137.268a8.552,8.552,0,0,0,4.581-4.615,8.144,8.144,0,0,0,.513-1.818C273.3,640.01,272.995,640,272.964,640.188Z" transform="translate(-251.224 -526.766)" fill="#fff"/>
    <path id="Path_16963" data-name="Path 16963" d="M252.6,680.236a6.907,6.907,0,0,1-1.33-.894,7.288,7.288,0,0,1-2.077-2.951q-.164-1.016-.23-2.042a.172.172,0,0,1,.091.144,6.6,6.6,0,0,0,.308,1.491,6.966,6.966,0,0,0,3.4,4,.122.122,0,0,1,.072.1.164.164,0,0,1-.234.158Z" transform="translate(-236.536 -553.293)" fill="#fff"/>
    <path id="Path_16964" data-name="Path 16964" d="M257.622,627.93a6.994,6.994,0,0,0,2.291,3.7.151.151,0,0,0,.207-.046.154.154,0,0,0-.046-.208,6.656,6.656,0,0,1-2.16-3.516.15.15,0,0,0-.293.065Z" transform="translate(-243.234 -517.253)" fill="#fff"/>
    <path id="Path_16965" data-name="Path 16965" d="M221.593,687.48l.044.035-.157-.056c-.085-.029-.169-.06-.253-.092a21.648,21.648,0,0,1-8.563-5.911q-.685-.768-1.294-1.6a21.238,21.238,0,0,1-3.44-7.091,9.162,9.162,0,0,1-.352-2.578c0-.126.011-.251.023-.377a3.777,3.777,0,0,1,.838-2.13,3.089,3.089,0,0,1,.635-.566c.082-.056.166-.107.252-.155a4.476,4.476,0,0,1,3.574-.214,6.991,6.991,0,0,1,2.318,1.437q.1.087.192.177a14.2,14.2,0,0,1,1.241,1.358A22.975,22.975,0,0,1,221.593,687.48Z" transform="translate(-204.528 -547.203)" fill="#f2f2f2"/>
    <path id="Path_16966" data-name="Path 16966" d="M214.167,668.632q1.987,4.179,4.287,8.2t4.9,7.851q1.454,2.145,3,4.227c.114.154.375,0,.259-.152q-2.757-3.717-5.226-7.636t-4.632-8.01q-1.211-2.291-2.324-4.632C214.344,668.306,214.085,668.458,214.167,668.632Z" transform="translate(-209.613 -548.694)" fill="#fff"/>
    <path id="Path_16967" data-name="Path 16967" d="M237.9,674.232a8.252,8.252,0,0,1,.039,6.27,7.842,7.842,0,0,1-.867,1.59c-.112.159.149.309.259.152a8.552,8.552,0,0,0,1.374-6.356,8.143,8.143,0,0,0-.546-1.808C238.081,673.9,237.822,674.056,237.9,674.232Z" transform="translate(-227.319 -553.025)" fill="#fff"/>
    <path id="Path_16968" data-name="Path 16968" d="M230.549,728.557a6.91,6.91,0,0,1-1.6-.037,7.289,7.289,0,0,1-3.34-1.368q-.685-.768-1.294-1.6a.172.172,0,0,1,.154.072,6.6,6.6,0,0,0,1.063,1.091,6.966,6.966,0,0,0,5.018,1.539.122.122,0,0,1,.112.041.164.164,0,0,1-.112.259Z" transform="translate(-217.473 -592.898)" fill="#fff"/>
    <path id="Path_16969" data-name="Path 16969" d="M206.791,681.415a7,7,0,0,0,3.926,1.888c.081.011.149-.077.15-.15a.154.154,0,0,0-.15-.15A6.656,6.656,0,0,1,207,681.2c-.139-.134-.352.078-.213.212Z" transform="translate(-203.885 -558.561)" fill="#fff"/>
    <path id="Path_16970" data-name="Path 16970" d="M346.859,499.622a2.434,2.434,0,0,0,.358-3.715l.944-21.073-4.806.539.279,20.612a2.447,2.447,0,0,0,3.225,3.636Z" transform="translate(-309.284 -398.978)" fill="#ffb8b8"/>
    <path id="Path_16971" data-name="Path 16971" d="M204.564,565.685l2.736.481,2.7-10.322-3.584-.71Z" transform="translate(-158.221 -429.37)" fill="#ffb8b8"/>
    <path id="Path_16972" data-name="Path 16972" d="M0,0H8.729V3.373H3.373A3.373,3.373,0,0,1,0,0H0Z" transform="translate(53.908 140.263) rotate(-170.029)" fill="#2f2e41"/>
    <path id="Path_16973" data-name="Path 16973" d="M171.42,571.176H174.2l1.321-10.713h-4.1Z" transform="translate(-132.585 -433.491)" fill="#ffb8b8"/>
    <path id="Path_16974" data-name="Path 16974" d="M0,0H8.729V3.373H3.373A3.373,3.373,0,0,1,0,0H0Z" transform="translate(46.968 140.264) rotate(179.997)" fill="#2f2e41"/>
    <path id="Path_16975" data-name="Path 16975" d="M376.2,608.323a1.1,1.1,0,0,1-.13-.008l-3.269-.269a1.106,1.106,0,0,1-.961-1.282l3.019-16.919-2.04-10.755a.369.369,0,0,0-.729.036l-2.55,28.687a1.115,1.115,0,0,1-1.18,1.005l-3.08-.115a1.107,1.107,0,0,1-1.028-1.049l-.207-34.383,15.967-2,1.115,17.227,0,.018-3.849,18.956A1.107,1.107,0,0,1,376.2,608.323Z" transform="translate(-325.546 -473.572)" fill="#2f2e41"/>
    <circle id="Ellipse_3787" data-name="Ellipse 3787" cx="5.564" cy="5.564" r="5.564" transform="translate(38.195 51.072)" fill="#ffb8b8"/>
    <path id="Path_16976" data-name="Path 16976" d="M361.937,461.734a4.556,4.556,0,0,1-2.46-.7c-2.7-1.685-5.757-1.015-7.342-.466a1.106,1.106,0,0,1-.956-.109,1.09,1.09,0,0,1-.5-.8l-2.882-25.742a9.02,9.02,0,0,1,6.177-9.642h0q.229-.072.466-.136a8.964,8.964,0,0,1,7.47,1.3,9.108,9.108,0,0,1,3.889,6.65l2.426,25.914a1.089,1.089,0,0,1-.346.908C367.025,459.686,364.556,461.733,361.937,461.734Z" transform="translate(-312.935 -359.52)" fill="#131f51"/>
    <path id="Path_16977" data-name="Path 16977" d="M345.541,452.323l-6.5-.715a1.3,1.3,0,0,1-1.111-1.616l1.655-6.309a3.6,3.6,0,1,1,7.149.807l.246,6.5a1.3,1.3,0,0,1-1.436,1.336Z" transform="translate(-305.315 -372.415)" fill="#131f51"/>
    <path id="Path_16978" data-name="Path 16978" d="M416.184,495.72a2.434,2.434,0,0,0-.092-3.731l-1.6-21.033-4.71,1.06,2.765,20.483a2.447,2.447,0,0,0,3.639,3.221Z" transform="translate(-360.923 -395.979)" fill="#ffb8b8"/>
    <path id="Path_16979" data-name="Path 16979" d="M400.4,447.646a1.294,1.294,0,0,1-.412-1l.246-6.5a3.6,3.6,0,1,1,7.149-.807l1.655,6.309a1.3,1.3,0,0,1-1.111,1.616l-6.5.715A1.294,1.294,0,0,1,400.4,447.646Z" transform="translate(-353.349 -369.059)" fill="#131f51"/>
    <path id="Path_16980" data-name="Path 16980" d="M363.213,370.488a1.287,1.287,0,0,1-.294-.034l-.028-.007c-4.892-.748-5.973-3.582-6.211-4.765a2.954,2.954,0,0,1,.666-2.867,3.527,3.527,0,0,1,.165-2.869,4.639,4.639,0,0,1,2.741-1.963,3.4,3.4,0,0,1,3.313-.2c2.655-.982,3.669-.165,3.853.018,1.187.213,1.91.672,2.15,1.363.451,1.3-.975,2.913-1.036,2.982l-.032.035-2.125.1a1.44,1.44,0,0,0-1.355,1.658h0a6.707,6.707,0,0,0,.218.76c.363,1.134.635,2.1.284,2.471a.569.569,0,0,1-.595.1c-.332-.089-.558-.07-.67.055-.175.195-.121.687.15,1.388a1.3,1.3,0,0,1-.237,1.325A1.262,1.262,0,0,1,363.213,370.488Z" transform="translate(-319.784 -308.078)" fill="#2f2e41"/>
    <path id="Path_16981" data-name="Path 16981" d="M569.144,327.065H541.731a3.856,3.856,0,0,1-3.851-3.851V282.02a3.856,3.856,0,0,1,3.851-3.851h27.412a3.856,3.856,0,0,1,3.851,3.851v41.194A3.856,3.856,0,0,1,569.144,327.065Zm-27.412-48.443a3.4,3.4,0,0,0-3.4,3.4v41.194a3.4,3.4,0,0,0,3.4,3.4h27.412a3.4,3.4,0,0,0,3.4-3.4V282.02a3.4,3.4,0,0,0-3.4-3.4Z" transform="translate(-460.002 -246.867)" fill="#3f3d56"/>
    <path id="Path_16982" data-name="Path 16982" d="M585.836,321.5h-19.03a1.928,1.928,0,0,1-1.926-1.926V310.51a1.928,1.928,0,0,1,1.926-1.926h19.03a1.928,1.928,0,0,1,1.926,1.926v9.062A1.928,1.928,0,0,1,585.836,321.5Z" transform="translate(-480.885 -270.392)" fill="#131f51"/>
    <path id="Path_16983" data-name="Path 16983" d="M589.5,390.709H573.192a1.812,1.812,0,1,1,0-3.625H589.5a1.812,1.812,0,0,1,0,3.625Z" transform="translate(-485.913 -331.108)" fill="#ccc"/>
    <path id="Path_16984" data-name="Path 16984" d="M589.5,420.709H573.192a1.812,1.812,0,1,1,0-3.625H589.5a1.812,1.812,0,0,1,0,3.625Z" transform="translate(-485.913 -354.311)" fill="#ccc"/>
    <path id="Path_16985" data-name="Path 16985" d="M589.5,450.709H573.192a1.812,1.812,0,1,1,0-3.625H589.5a1.812,1.812,0,1,1,0,3.625Z" transform="translate(-485.913 -377.515)" fill="#ccc"/>
    <path id="Path_16986" data-name="Path 16986" d="M864.144,429.065H836.731a3.856,3.856,0,0,1-3.851-3.851V384.02a3.856,3.856,0,0,1,3.851-3.851h27.412a3.856,3.856,0,0,1,3.851,3.851v41.194A3.856,3.856,0,0,1,864.144,429.065Zm-27.412-48.443a3.4,3.4,0,0,0-3.4,3.4v41.194a3.4,3.4,0,0,0,3.4,3.4h27.412a3.4,3.4,0,0,0,3.4-3.4V384.02a3.4,3.4,0,0,0-3.4-3.4Z" transform="translate(-688.17 -325.759)" fill="#3f3d56"/>
    <path id="Path_16987" data-name="Path 16987" d="M884.5,412.709H868.192a1.812,1.812,0,0,1,0-3.625H884.5a1.812,1.812,0,0,1,0,3.625Z" transform="translate(-714.081 -348.124)" fill="#ccc"/>
    <path id="Path_16988" data-name="Path 16988" d="M884.5,442.709H868.192a1.812,1.812,0,0,1,0-3.625H884.5a1.812,1.812,0,0,1,0,3.625Z" transform="translate(-714.081 -371.327)" fill="#ccc"/>
    <path id="Path_16989" data-name="Path 16989" d="M880.836,487.5h-19.03a1.928,1.928,0,0,1-1.926-1.926V476.51a1.928,1.928,0,0,1,1.926-1.926h19.03a1.928,1.928,0,0,1,1.926,1.926v9.062A1.928,1.928,0,0,1,880.836,487.5Z" transform="translate(-709.053 -398.785)" fill="#e6e6e6"/>
    <path id="Path_16990" data-name="Path 16990" d="M884.5,554.709H868.192a1.812,1.812,0,0,1,0-3.625H884.5a1.812,1.812,0,0,1,0,3.625Z" transform="translate(-714.081 -457.954)" fill="#ccc"/>
    <path id="Path_16991" data-name="Path 16991" d="M790.144,193.433H762.731a3.856,3.856,0,0,1-3.851-3.851V164.02a3.856,3.856,0,0,1,3.851-3.851h27.412a3.856,3.856,0,0,1,3.851,3.851v25.562a3.856,3.856,0,0,1-3.851,3.851Zm-27.412-32.811a3.4,3.4,0,0,0-3.4,3.4v25.562a3.4,3.4,0,0,0,3.4,3.4h27.412a3.4,3.4,0,0,0,3.4-3.4V164.02a3.4,3.4,0,0,0-3.4-3.4Z" transform="translate(-630.935 -155.599)" fill="#3f3d56"/>
    <path id="Path_16992" data-name="Path 16992" d="M810.5,259.209H794.192a1.812,1.812,0,0,1,0-3.625H810.5a1.812,1.812,0,0,1,0,3.625Z" transform="translate(-656.846 -229.399)" fill="#ccc"/>
    <path id="Path_16993" data-name="Path 16993" d="M810.5,229.209H794.192a1.812,1.812,0,0,1,0-3.625H810.5a1.812,1.812,0,0,1,0,3.625Z" transform="translate(-656.846 -206.195)" fill="#ccc"/>
    <path id="Path_16994" data-name="Path 16994" d="M810.5,199.209H794.192a1.812,1.812,0,0,1,0-3.625H810.5a1.812,1.812,0,0,1,0,3.625Z" transform="translate(-656.846 -182.992)" fill="#ccc"/>
    <circle id="Ellipse_3788" data-name="Ellipse 3788" cx="5.211" cy="5.211" r="5.211" transform="translate(105.517 27.186)" fill="#131f51"/>
    <path id="Path_16995" data-name="Path 16995" d="M674.562,278.244a.54.54,0,0,1-.325-.108l-.006,0-1.224-.938a.544.544,0,0,1,.662-.864l.793.608,1.874-2.444a.544.544,0,0,1,.763-.1l-.012.016.012-.016a.545.545,0,0,1,.1.763l-2.2,2.875A.544.544,0,0,1,674.562,278.244Z" transform="translate(-564.351 -243.86)" fill="#fff"/>
    <circle id="Ellipse_3789" data-name="Ellipse 3789" cx="5.211" cy="5.211" r="5.211" transform="translate(173.481 50.52)" fill="#3f3d56"/>
    <path id="Path_16996" data-name="Path 16996" d="M974.562,381.244a.54.54,0,0,1-.325-.108l-.006,0-1.224-.938a.544.544,0,0,1,.662-.864l.793.608,1.874-2.444a.544.544,0,0,1,.763-.1l-.012.016.012-.016a.545.545,0,0,1,.1.763l-2.2,2.875A.544.544,0,0,1,974.562,381.244Z" transform="translate(-796.386 -323.526)" fill="#fff"/>
    <circle id="Ellipse_3790" data-name="Ellipse 3790" cx="5.211" cy="5.211" r="5.211" transform="translate(156.943)" fill="#3f3d56"/>
    <path id="Path_16997" data-name="Path 16997" d="M901.562,158.244a.54.54,0,0,1-.325-.108l-.006,0-1.224-.938a.544.544,0,0,1,.662-.864l.793.608,1.874-2.444a.544.544,0,0,1,.763-.1l-.012.016.012-.016a.545.545,0,0,1,.1.763l-2.2,2.875A.544.544,0,0,1,901.562,158.244Z" transform="translate(-739.924 -151.046)" fill="#fff"/>
    <path id="Path_16998" data-name="Path 16998" d="M280.661,758.453H194.347a.227.227,0,0,1,0-.453h86.315a.227.227,0,0,1,0,.453Z" transform="translate(-194.12 -617.993)" fill="#3f3d56"/>
  </g>
</svg>
