<svg id="Change" xmlns="http://www.w3.org/2000/svg" width="187" height="249.286" viewBox="0 0 187 249.286">
  <rect id="Rectangle_4498" data-name="Rectangle 4498" width="86.545" height="99.339" transform="translate(98.843)" fill="#e6e6e6"/>
  <path id="uuid-63f12f30-9ab6-4f05-9b95-b74528116577-49" d="M161.617,191.072c2.441-2.484,5.7-3.239,7.283-1.685s.883,4.827-1.559,7.312a8.717,8.717,0,0,1-3.467,2.219l-10.477,10.4-4.774-5.02,10.835-9.715A8.717,8.717,0,0,1,161.617,191.072Z" transform="translate(-79.602 -101.002)" fill="#ffb6b6"/>
  <path id="Path_14996" data-name="Path 14996" d="M88.5,174.653,99.48,199.021l17.541-9.495,6.278,3.332S108.959,216.831,99.141,214.1s-27.252-27.473-24.111-35.11S88.5,174.653,88.5,174.653Z" transform="translate(-39.986 -93.164)" fill="#e6e6e6"/>
  <rect id="Rectangle_4499" data-name="Rectangle 4499" width="1.505" height="4.515" transform="translate(74.782 119.1)" fill="#3f3d56"/>
  <path id="Path_14997" data-name="Path 14997" d="M162.533,147.5h-1.505V138.8h1.505Zm0-17.388h-1.505v-8.694h1.505Zm0-17.388h-1.505v-8.694h1.505Zm0-17.388h-1.505V86.64h1.505Zm0-17.388h-1.505V69.252h1.505Z" transform="translate(-86.246 -37.091)" fill="#3f3d56"/>
  <path id="Path_14998" data-name="Path 14998" d="M162.533,44.455h-1.505V39.187H166.3v1.505h-3.763Z" transform="translate(-86.246 -20.988)" fill="#3f3d56"/>
  <path id="Path_14999" data-name="Path 14999" d="M248.149,40.692H239.87V39.187h8.279v1.505Zm-16.557,0h-8.279V39.187h8.279Zm-16.558,0h-8.279V39.187h8.279Zm-16.557,0H190.2V39.187h8.279Z" transform="translate(-101.869 -20.988)" fill="#3f3d56"/>
  <rect id="Rectangle_4500" data-name="Rectangle 4500" width="4.515" height="1.505" transform="translate(154.558 18.199)" fill="#3f3d56"/>
  <path id="Path_15000" data-name="Path 15000" d="M249.308,435.823c-.392-.661-2.088.047-2.4-.553s1.265-1.509,2.166-3.59c.162-.375,1.186-2.74.428-3.47-1.436-1.383-8.006,4.325-10.305,2.457a30.713,30.713,0,0,0-2.384-2.557c-.608-.529-.975-.767-1.331-.678-.5.126-.544.8-1.085,2.129-.811,1.991-1.291,1.871-1.764,3.459-.351,1.179-.271,1.865-.684,2-.584.189-1.122-1.062-1.863-.95-.756.114-1.213,1.571-1.357,2.661-.271,2.046.481,3.4.9,4.816a12.1,12.1,0,0,1-.324,7.211l-10.346,29.149c2.284-5.981,8.9-22.378,11.676-28.47.8-1.759,1.688-3.543,3.507-4.247,1.751-.678,4.156-.273,7.222-1.012.358-.086,1.352-.339,1.477-.923.1-.483-.481-.753-.391-1.205.12-.607,1.27-.614,2.682-1.315a8.357,8.357,0,0,0,2.15-1.586c.161-.152,2.552-2.444,2.03-3.324Z" transform="translate(-117.272 -228.921)" fill="#f2f2f2"/>
  <path id="Path_15001" data-name="Path 15001" d="M187.3,475.9c-.438,0-.58,1.038-.964,1.018s-.375-1.056-1.137-2.1c-.137-.188-1-1.372-1.579-1.211-1.093.306-.187,5.177-1.768,5.767a17.484,17.484,0,0,0-1.943.432c-.435.146-.658.257-.717.457-.084.284.236.5.732,1.147.743.973.546,1.174,1.189,1.864.478.512.837.671.784.912-.076.341-.845.244-1,.64s.421,1.048.915,1.434a5.816,5.816,0,0,0,2.623.949,6.887,6.887,0,0,1,3.446,2.24L199.2,502.943c-2.277-2.847-8.416-10.823-10.6-13.945a4.109,4.109,0,0,1-1.073-2.947c.172-1.055,1.065-2.119,1.587-3.836.061-.2.224-.761-.027-.991-.207-.19-.508.019-.7-.156-.263-.234.065-.8.129-1.7a4.759,4.759,0,0,0-.158-1.513c-.028-.123-.463-1.958-1.046-1.955Z" transform="translate(-95.968 -253.657)" fill="#f2f2f2"/>
  <path id="Path_15002" data-name="Path 15002" d="M215.163,470.978l-.264-2.354.12-.178a4.354,4.354,0,0,0,.845-2.4c0-.122-.005-.243-.011-.367a3.682,3.682,0,0,1,.267-1.813c.178-.4.68-1.315,1.433-1.2a.854.854,0,0,1,.473.231l.053-.084a2.59,2.59,0,0,1,.6-.659,3.031,3.031,0,0,0,.5-.508c.1-.122.174-.228.238-.318a1.105,1.105,0,0,1,.9-.59,1.179,1.179,0,0,1,.9.682,5.675,5.675,0,0,1,.521,1.03,1.786,1.786,0,0,0,.088.2c.155.227,1.411.015,1.884-.063,1.063-.177,1.983-.331,2.362.34.272.48.07,1.114-.618,1.935a3.844,3.844,0,0,1-.644.6.788.788,0,0,1,.378.494h0c.143.57-.347,1.142-1.457,1.7a3.918,3.918,0,0,1-1.167.416,4.578,4.578,0,0,1-.654.058.775.775,0,0,1-.1.349,1.164,1.164,0,0,1-1.212.488,9.5,9.5,0,0,1-1.716-.276,4.157,4.157,0,0,0-1.083-.161c-.535.043-.948.472-1.432,1.027l-1.209,1.413Z" transform="translate(-115.099 -246.771)" fill="#f2f2f2"/>
  <path id="Path_15003" data-name="Path 15003" d="M205.165,442.488l-2.21.852-.2-.071a4.355,4.355,0,0,0-2.532-.21c-.118.03-.234.067-.352.1a3.682,3.682,0,0,1-1.821.2c-.429-.072-1.444-.324-1.525-1.082a.853.853,0,0,1,.1-.516l-.095-.03a2.59,2.59,0,0,1-.79-.413,3.028,3.028,0,0,0-.619-.357c-.142-.064-.265-.11-.368-.15a1.1,1.1,0,0,1-.8-.719,1.18,1.18,0,0,1,.432-1.041,5.673,5.673,0,0,1,.864-.765,1.773,1.773,0,0,0,.173-.137c.181-.207-.344-1.369-.538-1.807-.441-.983-.823-1.834-.27-2.371.4-.384,1.06-.35,2.029.107a3.841,3.841,0,0,1,.746.471.788.788,0,0,1,.382-.491h0c.516-.283,1.193.046,2.015.978a3.918,3.918,0,0,1,.7,1.023,4.58,4.58,0,0,1,.222.618.775.775,0,0,1,.362,0c.4.1.664.447.779,1.049a9.5,9.5,0,0,1,.168,1.73,4.16,4.16,0,0,0,.119,1.089c.178.507.7.8,1.357,1.125l1.673.811Z" transform="translate(-103.878 -232.295)" fill="#f2f2f2"/>
  <path id="Path_15004" data-name="Path 15004" d="M215.163,425.871l-.264-2.354.12-.178a4.354,4.354,0,0,0,.845-2.4c0-.122-.005-.243-.011-.367a3.682,3.682,0,0,1,.267-1.813c.178-.4.68-1.315,1.433-1.2a.854.854,0,0,1,.473.231l.053-.084a2.589,2.589,0,0,1,.6-.659,3.029,3.029,0,0,0,.5-.508c.1-.122.174-.228.238-.318a1.105,1.105,0,0,1,.9-.59,1.18,1.18,0,0,1,.9.682,5.67,5.67,0,0,1,.521,1.03,1.774,1.774,0,0,0,.088.2c.155.227,1.411.015,1.884-.062,1.063-.177,1.983-.331,2.362.34.272.48.07,1.114-.618,1.935a3.844,3.844,0,0,1-.644.6.788.788,0,0,1,.378.494h0c.143.57-.347,1.142-1.457,1.7a3.918,3.918,0,0,1-1.167.416,4.578,4.578,0,0,1-.654.058.774.774,0,0,1-.1.349,1.164,1.164,0,0,1-1.212.488,9.5,9.5,0,0,1-1.716-.276,4.161,4.161,0,0,0-1.083-.161c-.535.043-.948.472-1.432,1.027l-1.209,1.413Z" transform="translate(-115.099 -222.611)" fill="#f2f2f2"/>
  <path id="Path_15005" data-name="Path 15005" d="M212.912,471.887l-.493-.309-.119-.569.119.569-.575.066c-.009-.053-.04-.176-.087-.368a82.308,82.308,0,0,1-1.7-9.3,94.807,94.807,0,0,1-.769-10.76c-.053-3.625.118-6.37.256-8.576.1-1.664.23-3.248.354-4.791a89.6,89.6,0,0,0,.409-12.33,11.424,11.424,0,0,0-1.329-5.1,10.826,10.826,0,0,0-2.78-3.262l.725-.911A12.009,12.009,0,0,1,210,419.862a12.511,12.511,0,0,1,1.471,5.6,90.471,90.471,0,0,1-.412,12.483c-.123,1.538-.249,3.115-.352,4.772-.136,2.185-.306,4.906-.253,8.485a93.646,93.646,0,0,0,.759,10.628A81.007,81.007,0,0,0,212.887,471c.135.553.164.669.025.889h0Z" transform="translate(-110.44 -222.94)" fill="#f2f2f2"/>
  <path id="Path_15006" data-name="Path 15006" d="M196.462,410.511c-.048,0-.1,0-.145,0a3.721,3.721,0,0,1-2.728-1.763,8.137,8.137,0,0,1-.973-2.318,14.533,14.533,0,0,1-.536-2.4,2.359,2.359,0,0,1,.064-1.5,1.776,1.776,0,0,1,.82-.749.658.658,0,0,1,.045-.343c.2-.485.726-.422,1.011-.391a2.858,2.858,0,0,0,.519.032,1.463,1.463,0,0,0,.719-.242,3.235,3.235,0,0,1,.973-.383,3.469,3.469,0,0,1,1.831.145,5.1,5.1,0,0,1,2.6,2.531,8.887,8.887,0,0,1,.959,2.189,2.6,2.6,0,0,1,.131,1.452c-.143.556-.481.874-1.34,1.576a15.6,15.6,0,0,1-1.733,1.327,4.373,4.373,0,0,1-2.214.846Z" transform="translate(-102.836 -214.443)" fill="#f2f2f2"/>
  <rect id="Rectangle_4501" data-name="Rectangle 4501" width="187" height="1" transform="translate(0 248)" fill="#3f3d56"/>
  <path id="Path_15007" data-name="Path 15007" d="M94.082,489.55h8.01l3.81-30.894H94.08Z" transform="translate(-50.389 -245.654)" fill="#ffb6b6"/>
  <path id="Path_15008" data-name="Path 15008" d="M119.389,514.368h0a6.877,6.877,0,0,1,.381,2.264h0a2.718,2.718,0,0,1-2.718,2.718h-24.8a1.854,1.854,0,0,1-1.855-1.854v-1.033s-1.227-3.1,1.3-6.929c0,0,3.14,3,7.832-1.7l1.384-2.506,10.015,7.325,5.551.683c1.214.149,2.291-.023,2.916,1.029Z" transform="translate(-48.254 -270.653)" fill="#2f2e41"/>
  <path id="Path_15009" data-name="Path 15009" d="M91.284,161.588l.162-10.8-6.662-4.153-7.244,8.861Z" transform="translate(-41.53 -78.535)" fill="#ffb6b6"/>
  <path id="Path_15010" data-name="Path 15010" d="M99.638,161.588l.431-10.534-6.931-4.422,2.355,13.036Z" transform="translate(-49.884 -78.535)" opacity="0.1" style="isolation: isolate"/>
  <circle id="Ellipse_3347" data-name="Ellipse 3347" cx="11.848" cy="11.848" r="11.848" transform="translate(37.927 51.915)" fill="#ffb6b6"/>
  <path id="Path_15011" data-name="Path 15011" d="M108.864,311.987l-11.037,75.1H83.98l1.841-42.871.969-22.542-2.81-10.73a47.927,47.927,0,0,1-2.361-5.276c-1.217-3.263-2.178-7.174-.751-9.029.525-.684,1.89-1.19,3.744-1.567a38.724,38.724,0,0,1,3.876-.552,173.366,173.366,0,0,1,19.837-.3l.3,9.772.164,5.457.078,2.538Z" transform="translate(-42.931 -157.5)" fill="#2f2e41"/>
  <path id="Path_15012" data-name="Path 15012" d="M63.7,482.02l7.924,1.164,8.264-30.012-11.7-1.719Z" transform="translate(-34.119 -241.797)" fill="#ffb6b6"/>
  <path id="Path_15013" data-name="Path 15013" d="M88.587,512.068h0a6.877,6.877,0,0,1,.048,2.3h0a2.718,2.718,0,0,1-3.085,2.294L61.009,513.05a1.855,1.855,0,0,1-1.565-2.1l.15-1.022s-.763-3.249,2.293-6.667c0,0,2.671,3.42,8-.539l1.733-2.279,8.843,8.7,5.393,1.484c1.18.325,2.27.31,2.735,1.442h0Z" transform="translate(-31.827 -268.033)" fill="#2f2e41"/>
  <path id="Path_15014" data-name="Path 15014" d="M99.608,297.312l-1.514,13.037-8.256,27.472-13.59,45.229-13.7-2.013,12.294-64.309L73.627,305.7s-.4-1.1-.851-2.7c-.9-3.175-2.033-8.345-.789-10.982a3.083,3.083,0,0,1,.64-.921,5.111,5.111,0,0,1,2.818-.916c5.572-.63,17.047,1.171,22.153,2.056l2.01,5.075Z" transform="translate(-33.502 -155.349)" fill="#2f2e41"/>
  <path id="Path_15015" data-name="Path 15015" d="M70.885,160.791l13.46,6.461s14.267,42.263,14.267,44.417,4.038,3.5,1.615,5.922,4.509,4.475.774,6.41-27.036,12.521-29.627,11.566c-7.146-2.633.3-12.307.3-12.307s-5.368-4.323-4.56-6.477-4.845-43.34-4.845-43.34l8.614-12.652Z" transform="translate(-33.352 -86.119)" fill="#e6e6e6"/>
  <path id="Path_15016" data-name="Path 15016" d="M90.52,124.445l1.524,3.048s1.524-5.486,3.962-6.705a4.7,4.7,0,0,0,2.743-3.048s3.048,3.962,5.181,3.048,3.048-1.524.61-5.181-1.829-1.829-1.829-1.829-2.133-3.048-1.829-2.133-1.829-2.438-1.829-1.524-1.524-1.829-1.524-.914-6.4-2.133-5.486-.914-5.486-2.438-8.534,2.438-7.274,3.975-5.77,7.016.894,11.27.894,11.27h4.2s4.33-8.229,7.683-4.572Z" transform="translate(-41.469 -57.844)" fill="#2f2e41"/>
  <path id="Path_15017" data-name="Path 15017" d="M245.016,139.527l-.13.042-7.078,2.187L157,166.751c8.559-6.167,10.375-42.772,8.22-59.411,12.441,22.607,32.75,8.875,57.577-30.511,6.5-10.31,13.31-22.384,20.364-36.024l1.259,66.925Z" transform="translate(-84.087 -21.855)" fill="#131f51"/>
  <path id="uuid-e967cc2e-cf82-40ad-a893-bd90ae03d296-50" d="M148.627,240.525c3.34-.987,6.557-.063,7.185,2.063s-1.571,4.649-4.913,5.635a8.717,8.717,0,0,1-4.109.257l-14.206,4-1.736-6.707,14.189-3.234a8.717,8.717,0,0,1,3.59-2.017Z" transform="translate(-70.082 -128.612)" fill="#ffb6b6"/>
  <path id="Path_15018" data-name="Path 15018" d="M95.014,184.625l-2.227,26.637,19.944.214,3.871,5.96s-24.174,14-31.433,6.845-10.488-37.249-4.035-42.4S95.014,184.625,95.014,184.625Z" transform="translate(-41.595 -96.48)" fill="#e6e6e6"/>
  <path id="Path_15019" data-name="Path 15019" d="M209.932,134.247l-4.789-1.478a33.267,33.267,0,0,1,5.678,9.149,33.24,33.24,0,0,1,4.779-9.648l-4.563,1.9c.859-14.731,10.362-26.586,22.938-28.4l.1-.543c-13.136,1.892-23.31,13.7-24.147,29.016Z" transform="translate(-109.873 -56.361)" fill="#3f3d56"/>
  <path id="Path_15020" data-name="Path 15020" d="M219.754,252.395l2.555-4.218a32.732,32.732,0,0,1-10.088,3.235,32.705,32.705,0,0,1,8.068,6.866l-.725-4.809c13.855,4.338,22.9,16.239,21.627,28.676l.493.228C243.015,269.381,234.175,256.851,219.754,252.395Z" transform="translate(-113.665 -132.922)" fill="#3f3d56"/>
  <path id="Path_15021" data-name="Path 15021" d="M311.221,139.569l-7.078,2.187a183.172,183.172,0,0,0-18.13-9.158c-2.1-.957-4.482-2.29-5.043-5.039a8.946,8.946,0,0,1,.678-4.9c3.265-8.526,11.132-13.375,13.533-22.361,2.206-8.266-1.077-17.164-6.051-23.466,6.5-10.31,13.31-22.384,20.364-36.024l1.259,66.925C310.938,120.454,311.109,131.958,311.221,139.569Z" transform="translate(-150.422 -21.855)" fill="#f1f2f2"/>
</svg>
