<svg xmlns="http://www.w3.org/2000/svg" width="331.786" height="269.843" viewBox="0 0 331.786 269.843">
    <path data-name="Path 15630" d="M698.786 287.51v215.823c0 14.919-13.554 27.01-30.28 27.01H397.28c-16.725 0-30.28-12.091-30.28-27.01V287.51c0-14.919 13.555-27.01 30.28-27.01h271.226c16.725 0 30.28 12.091 30.28 27.01z" transform="translate(-367 -260.5)" style="fill:#3f3d54;opacity:.122"/>
    <path data-name="Path 15631" d="m522.4 634.824 19.412-4.208 22.493-4.88s1.218 3.726 2.926 9.088z" transform="translate(-411.759 -365.693)" style="fill:#2f2e41"/>
    <path data-name="Path 15632" d="M554.145 577.937s-.182.972-.554 2.418h-90.627c-1-3.045-1.445-6.18-.254-8.77a6.257 6.257 0 0 1 .754-1.272 6.585 6.585 0 0 1 .745-.863c1.781-1.763 2.872-5.562 3.526-9.888a115.3 115.3 0 0 0 .972-17.849c.009-.009.009-.009 0-.009-.018-1.409-.055-2.254-.055-2.254s-.345-5.207-.736-13.078c.009 0 0-.009 0-.009-1.072-21.239-2.527-61.9 1.245-72.678a5.087 5.087 0 0 1 1.409-2.381 102.411 102.411 0 0 1 16.141-9.533c.327-.145.5-.227.5-.227l12.442-.236 15.45-2.726 10.733-1.963s.791.055 2.027.227c4.108.563 13.141 2.408 14.414 7.752 0 .009.009.018.009.027a5.737 5.737 0 0 1 .082 2.136c-1.218 8.906 7.38 63.608 10 66.344s1.927 12.733-4.544 19.085a9.894 9.894 0 0 0-2.417 4.19c-2.445 7.861 1.391 20.7 5.144 26.71a24.888 24.888 0 0 1 3.6 14.85z" transform="translate(-394.36 -311.224)" style="fill:#3f3d56"/>
    <path data-name="Path 15633" d="m288.464 119.79-.261-9.51-.348-12.753-10.167-.47-1.423 12.671-1.327 11.772z" transform="translate(-79.186 -27.954)" style="fill:#a0616a"/>
    <path data-name="Path 15634" d="m514.67 427.165 14.263 15.307s60.434 9.761 60.839 4.636-3.576-6.61 2.949-6.154 8.094 5.092 9.088.658-4.477-4.543 1.858-5.171 20.172-55.941 20.172-55.941l-22.072 3.56s-4.29 26.744-6.98 30.161-5.39 5.87-7.049 6.018-73.068 6.926-73.068 6.926z" transform="translate(-409.531 -295.062)" style="fill:#3f3d56"/>
    <circle data-name="Ellipse 3486" cx="20.953" cy="20.953" r="20.953" transform="translate(92.365 70.408)" style="fill:#a0616a"/>
    <path data-name="Path 15635" d="m499.609 395.422 8.307 1.59s-7.725-12.469-7.271-18.176 6.671-7.752 6.671-7.752 3.444.745 7.071 1.163a18.23 18.23 0 0 1 1.681-3.5 6.1 6.1 0 0 0 1.781 3.762 9.938 9.938 0 0 0 3.935-.454c1.436-.654 1.409-1.79.936-2.854a37.827 37.827 0 0 1 13.469 3.7 37.172 37.172 0 0 0-.318-8.361c-.2-.055-.4-.118-.6-.182a18.555 18.555 0 0 1-3.562-1.554 6.136 6.136 0 0 0 3.363-1.581 8.42 8.42 0 0 0-3.9-5.117 14.373 14.373 0 0 0-11.933-.318s4.444-3.244 2.808-4.571a5.464 5.464 0 0 1-.336.309 27.22 27.22 0 0 1-.491.391c-1.009.818-2.517-.336-2.717-1.572a4.152 4.152 0 0 0-.091-.463 4.51 4.51 0 0 0-.1-.373 3.071 3.071 0 0 0-.109-.309c-3.026-.727-12.178 2.227-15.7 8.734.005 0-24.579 11.814-2.894 37.488z" transform="translate(-402.618 -286.016)" style="fill:#3f3d56"/>
    <path data-name="Path 15636" d="M113.626 368.53h-11.742l-.4-.664-5.7-9.379-3.145-5.18 7.416-5.571 3.49-2.617 7.7 17.876z" transform="translate(-26.682 -99.399)" style="fill:#a0616a"/>
    <path data-name="Path 15637" d="m496.715 437.806 29.3 67.7 11.851-72.624c-1.236-.173-2.027-.227-2.027-.227l-5.044-9.8-28.891 1.5-4.689 13.223s-.173.083-.5.228z" transform="translate(-404.36 -307.261)" style="fill:#333c51"/>
    <path data-name="Path 15638" d="M174.522 361.089h-23.075l14.732-41.806 7.5 37.6z" transform="translate(-43.619 -91.958)" style="fill:#333c51"/>
    <rect data-name="Rectangle 4640" width="104.411" height="62.063" rx="26.744" transform="translate(185.829 140.842)" style="opacity:.5;fill:#fff"/>
    <path data-name="Path 15639" d="M713.082 520.8h-66.329A19.776 19.776 0 0 1 627 501.048v-23.979a19.776 19.776 0 0 1 19.753-19.753h66.328a19.776 19.776 0 0 1 19.753 19.753v23.979a19.776 19.776 0 0 1-19.752 19.752zm-66.328-62.062a18.35 18.35 0 0 0-18.329 18.329v23.979a18.35 18.35 0 0 0 18.329 18.33h66.328a18.35 18.35 0 0 0 18.329-18.329v-23.978a18.35 18.35 0 0 0-18.329-18.329z" transform="translate(-441.883 -317.185)" style="fill:#fff"/>
    <circle data-name="Ellipse 3487" cx="15.208" cy="15.208" r="15.208" transform="translate(222.741 159.041)" style="fill:#a0616a"/>
    <path data-name="Path 15640" d="M698.861 512.221c-1.867-4.163 8.249-12.8 1.767-13.239 0 0-4.261-7.47-6.967-5.468-3.133 2.319-7.7-1.893-10.38-4.711a8.961 8.961 0 0 0 1.525-1.574 16.853 16.853 0 0 1-2.582.271 4.378 4.378 0 0 1-.662-1.573 2.679 2.679 0 0 1 1.122-2.846c.983-.548 2.238-.213 3.289-.606a.9.9 0 0 0 .5-.675 2.37 2.37 0 0 1 3.264-1.634.853.853 0 0 0 .4.111 9.247 9.247 0 0 0 2.157-.4 17.106 17.106 0 0 1-2.265-1.277c-.148-.1-.3-.2-.442-.308a5.842 5.842 0 0 1 4.721-1.215 17.161 17.161 0 0 1 4.962 1.791l2.753 1.341a30.6 30.6 0 0 1 5.606 3.213 15.771 15.771 0 0 1 6.02 12.009c.08 4.634-3.882 17.325-14.788 16.79z" transform="translate(-457.578 -322.851)" style="fill:#2f2e41"/>
    <rect data-name="Rectangle 4641" width="104.411" height="62.063" rx="26.744" transform="translate(62.194 201.373)" style="opacity:.5;fill:#fff"/>
    <path data-name="Path 15641" d="M539.434 605.818h-66.328a19.776 19.776 0 0 1-19.753-19.753v-23.98a19.776 19.776 0 0 1 19.753-19.754h66.328a19.776 19.776 0 0 1 19.753 19.753v23.979a19.776 19.776 0 0 1-19.753 19.755zm-66.328-62.062a18.35 18.35 0 0 0-18.33 18.329v23.979a18.35 18.35 0 0 0 18.33 18.33h66.328a18.35 18.35 0 0 0 18.329-18.33v-23.979a18.35 18.35 0 0 0-18.33-18.329z" transform="translate(-391.871 -341.671)" style="fill:#fff"/>
    <circle data-name="Ellipse 3488" cx="15.452" cy="15.452" r="15.452" transform="translate(99.966 221.293)" style="fill:#ffb6b6"/>
    <path data-name="Path 15642" d="M511.447 589.145a1.417 1.417 0 0 0-1.845 1.083 3.028 3.028 0 0 0 .67 2.3 14.476 14.476 0 0 1 1.413 2.019 2.166 2.166 0 0 1-.134 2.326 1.942 1.942 0 0 1-2.031.428 4.338 4.338 0 0 1-1.761-1.273c-2.954-3.2-6.036-8.526-4.526-12.615a3.992 3.992 0 0 0 .147-1.346c.029-.52.125-1.3-.365-1.481-1.368-.494 2.47-8.487 8.392-10.226-.288-2.729 13.959-6.655 13.181-3.229-.14.615 1.236.281 1.866.315 4.834.262 10.293 1.476 9.853 7.079-.17 2.17.727 1.669 1.448 3.723-1.123.669-1.491 2.137-2.356 1.158s-1.6-2.206-2.845-2.617a4.492 4.492 0 0 0-3.88 1.034 13.331 13.331 0 0 1-3.484 2.26c-1.485.48-3.1.146-4.653.34a9.207 9.207 0 0 0-5.611 3.3 27.362 27.362 0 0 0-3.485 5.65" transform="translate(-406.095 -348.43)" style="fill:#2f2e41"/>
    <path data-name="Path 15643" d="m481.477 457.008-20.9.909s-30.9 52.711-27.264 56.347 7.349 1.572 2.766 6.239-9.127 2.849-6.4 6.485 6.362-.456 2.726 4.771 25.9 54.47 25.9 54.47l12.723-6.362s-12.381-32.535-13.234-36.8-.965-7.91 0-9.269 23.683-76.79 23.683-76.79z" transform="translate(-384.814 -317.097)" style="fill:#3f3d56"/>
    <circle data-name="Ellipse 3489" cx="4.901" cy="4.901" r="4.901" transform="translate(198.811 146.677)" style="fill:#6c63ff"/>
    <path data-name="Path 15644" d="M651.417 474.912a.545.545 0 0 1-.436-.218l-1.337-1.783a.545.545 0 1 1 .872-.654l.875 1.166 2.247-3.37a.545.545 0 0 1 .907.6l-2.674 4.011a.545.545 0 0 1-.438.242z" transform="translate(-448.374 -320.784)" style="fill:#fff"/>
    <circle data-name="Ellipse 3490" cx="4.901" cy="4.901" r="4.901" transform="translate(79.197 207.907)" style="fill:#6c63ff"/>
    <path data-name="Path 15645" d="M483.417 560.912a.545.545 0 0 1-.436-.218l-1.337-1.783a.545.545 0 1 1 .872-.654l.875 1.166 2.247-3.37a.545.545 0 0 1 .907.6l-2.674 4.011a.545.545 0 0 1-.438.243z" transform="translate(-399.987 -345.553)" style="fill:#fff"/>
    <path data-name="Path 15646" d="M750.16 480.036A4.838 4.838 0 1 1 755 475.2a4.838 4.838 0 0 1-4.838 4.838z" transform="translate(-475.961 -320.942)" style="fill:#e6e6e6"/>
    <path data-name="Path 15647" d="m753.065 477.428-1.012-1.012 1.012-1.012a.477.477 0 0 0-.675-.675l-1.012 1.012-1.013-1.012a.477.477 0 0 0-.675.675l1.012 1.012-1.012 1.012a.477.477 0 0 0 .675.675l1.013-1.012 1.012 1.012a.477.477 0 0 0 .675-.675z" transform="translate(-477.18 -322.16)" style="fill:#fff"/>
    <path data-name="Path 15648" d="M574.16 562.036A4.838 4.838 0 1 1 579 557.2a4.838 4.838 0 0 1-4.838 4.838z" transform="translate(-425.271 -344.559)" style="fill:#e6e6e6"/>
    <path data-name="Path 15649" d="m577.065 559.428-1.012-1.012 1.012-1.012a.477.477 0 0 0-.675-.675l-1.012 1.013-1.012-1.013a.477.477 0 0 0-.675.675l1.012 1.012-1.012 1.012a.477.477 0 0 0 .675.675l1.012-1.012 1.012 1.012a.477.477 0 1 0 .675-.675z" transform="translate(-426.489 -345.777)" style="fill:#fff"/>
    <circle data-name="Ellipse 3491" cx="7.947" cy="7.947" r="7.947" transform="translate(195.694 57.047)" style="fill:#a0616a"/>
    <rect data-name="Rectangle 4642" width="104.411" height="62.063" rx="26.744" transform="translate(185.598 62.512)" style="opacity:.5;fill:#fff"/>
    <path data-name="Path 15650" d="M712.758 410.786h-66.329a19.776 19.776 0 0 1-19.753-19.754v-23.98a19.776 19.776 0 0 1 19.753-19.752h66.329a19.776 19.776 0 0 1 19.753 19.753v23.98a19.776 19.776 0 0 1-19.753 19.753zm-66.329-62.063a18.35 18.35 0 0 0-18.329 18.33v23.98a18.35 18.35 0 0 0 18.33 18.329h66.329a18.35 18.35 0 0 0 18.33-18.33v-23.98a18.35 18.35 0 0 0-18.33-18.33z" transform="translate(-441.79 -285.499)" style="fill:#fff"/>
    <path data-name="Path 15651" d="M712.083 384.561c.044 3.985 1.312 12.282.4 16.185l-.147-.327a17.915 17.915 0 0 1-2.4 1.606 11.5 11.5 0 0 0-2.668-3.92 13.772 13.772 0 0 1-.637 5.422c-3.4 1.225-9.375-2.635-13.077-2.717-5.956-.136-11.759-1.617-17.448-3.185-2.02-.555-4.241-1.279-5.156-2.956s.722-3.487.615-5.379c-.763-13.477 5.657-15.736 11.765-19.337 1.344-.792 2-2.5 3.522-3.163 2.107-.92 4.617-.479 6.909-.016a3.491 3.491 0 0 1-2.308-2.526 3.149 3.149 0 0 1 1.23-3.049 5.673 5.673 0 0 1 4.758-.681 15.9 15.9 0 0 1 4.366 2.145 8.674 8.674 0 0 1 2.4 1.938 2.4 2.4 0 0 1 .283 2.722 3.111 3.111 0 0 1-2.434 1.181 8.15 8.15 0 0 1-2.145-.223 16.317 16.317 0 0 1 8.313 5.03 17.377 17.377 0 0 1 3.859 11.25z" transform="translate(-454.462 -289.236)" style="fill:#2f2e41"/>
    <circle data-name="Ellipse 3492" cx="13.199" cy="13.199" r="13.199" transform="translate(223.058 81.903)" style="fill:#ffb6b6"/>
    <path data-name="Path 15652" d="M707.277 384.318c-1.552 1.878-3.86 1.78-5.912 1.481-.648-.093-1.3-.2-1.943-.316a12.6 12.6 0 0 0-.392-1.083 11.5 11.5 0 0 0-2.668-3.92 13.557 13.557 0 0 1-.332 4.317q-1.8-.416-3.593-.931a4.167 4.167 0 0 1-3.473-4.573c-1.715 1.307-3.582 2.439-5.542 2.461a5.171 5.171 0 0 1-4.845-3.773 12.452 12.452 0 0 1-.234-5.281c.261-2.1.849-4.4 2.265-5.243 1.138-.686 2.45-.2 3.62.359a41.708 41.708 0 0 1 7.295 4.475l.027.572c.588-2.815 2.531-4.987 4.649-5.2a7.979 7.979 0 0 1 4.165 1.181 19.643 19.643 0 0 1 4.851 3.054 10.81 10.81 0 0 1 3.277 5.646c.508 2.356.124 5.156-1.215 6.774z" transform="translate(-456.619 -291.208)" style="fill:#2f2e41"/>
    <path data-name="Path 15653" d="M699.3 363.664c.135.011-.2-.065-.089-.02a1.076 1.076 0 0 1-.152-.085c-.008-.005-.116-.092-.045-.032a1.06 1.06 0 0 1-.35-.489 4.388 4.388 0 0 1-.206-1.454 4.6 4.6 0 0 0-.324-1.9 1.132 1.132 0 0 0-1.783-.4 2.635 2.635 0 0 0-.512 1.762 5.671 5.671 0 0 0 .191 1.809 5.19 5.19 0 0 0 1.589 2.5 5.428 5.428 0 0 0 3.144 1.327.824.824 0 0 0 .577-1.394l-1.461-1.387a.817.817 0 0 0-1.155 1.155l1.461 1.387.577-1.394a3.251 3.251 0 0 1-.71-.145 2.737 2.737 0 0 1-.709-.311 3.39 3.39 0 0 1-.6-.422 4.662 4.662 0 0 1-.339-.33q-.059-.063-.115-.128s-.154-.193-.087-.1a4.6 4.6 0 0 1-.439-.736 1.863 1.863 0 0 1-.107-.284 4.288 4.288 0 0 1-.127-.488 4.237 4.237 0 0 1-.056-1.052 4.3 4.3 0 0 1 .045-.445 1.8 1.8 0 0 0 .046-.237c0-.2-.027.106-.13.152l-.412.111a.449.449 0 0 1-.336-.2q-.026-.1.015.036a2.683 2.683 0 0 1 .072.33 7.671 7.671 0 0 1 .055.78 7.77 7.77 0 0 0 .191 1.642 2.629 2.629 0 0 0 2.285 2.07.823.823 0 0 0 .816-.817.833.833 0 0 0-.82-.811z" transform="translate(-461.707 -288.872)" style="fill:#2f2e41"/>
    <circle data-name="Ellipse 3493" cx="4.901" cy="4.901" r="4.901" transform="translate(200.235 68.358)" style="fill:#6c63ff"/>
    <path data-name="Path 15654" d="M653.417 364.912a.545.545 0 0 1-.436-.218l-1.337-1.783a.545.545 0 0 1 .872-.654l.875 1.166 2.247-3.37a.545.545 0 1 1 .907.6l-2.674 4.011a.545.545 0 0 1-.438.243z" transform="translate(-448.95 -289.103)" style="fill:#fff"/>
    <path data-name="Path 15655" d="M747.16 367.036A4.838 4.838 0 1 1 752 362.2a4.838 4.838 0 0 1-4.84 4.836z" transform="translate(-475.097 -288.397)" style="fill:#e6e6e6"/>
    <path data-name="Path 15656" d="m750.065 364.428-1.012-1.012 1.012-1.012a.477.477 0 0 0-.675-.675l-1.012 1.013-1.012-1.012a.477.477 0 0 0-.675.675l1.012 1.012-1.012 1.012a.477.477 0 0 0 .675.675l1.012-1.012 1.012 1.012a.477.477 0 0 0 .675-.675z" transform="translate(-476.316 -289.615)" style="fill:#fff"/>
    <path data-name="Path 15657" d="M679.374 305.924H393.347a.712.712 0 1 1 0-1.424h286.027a.712.712 0 1 1 0 1.424z" transform="translate(-374.383 -273.173)" style="fill:#fff"/>
    <ellipse data-name="Ellipse 3494" cx="5.502" cy="5.625" rx="5.502" ry="5.625" transform="translate(45.515 10.11)" style="fill:#fff"/>
    <ellipse data-name="Ellipse 3495" cx="5.502" cy="5.625" rx="5.502" ry="5.625" transform="translate(64.522 10.11)" style="fill:#fff"/>
    <ellipse data-name="Ellipse 3496" cx="5.502" cy="5.625" rx="5.502" ry="5.625" transform="translate(83.53 10.11)" style="fill:#fff"/>
    <path data-name="Path 15658" d="M520.724 285.247a.649.649 0 0 1-.465-.2l-3.713-3.8a.65.65 0 0 1 0-.91l3.713-3.795a.651.651 0 0 1 .93.91l-3.268 3.34 3.268 3.34a.651.651 0 0 1-.465 1.106z" transform="translate(-410.018 -265.067)" style="fill:#fff"/>
    <path data-name="Path 15659" d="M530.987 285.247a.651.651 0 0 1-.465-1.106l3.267-3.34-3.267-3.34a.651.651 0 0 1 .93-.91l3.712 3.795a.65.65 0 0 1 0 .91l-3.712 3.8a.648.648 0 0 1-.465.191z" transform="translate(-414.043 -265.067)" style="fill:#fff"/>
    <path data-name="Path 15660" d="M730.305 275.614h-6.9a1.424 1.424 0 0 0-1.425 1.425v6.91a1.424 1.424 0 0 0 1.425 1.425h6.9a1.43 1.43 0 0 0 1.431-1.425v-6.91a1.43 1.43 0 0 0-1.431-1.425z" transform="translate(-469.238 -264.853)" style="fill:#fff"/>
    <path data-name="Path 15661" d="M706.545 275.614h-6.9a1.424 1.424 0 0 0-1.425 1.425v6.91a1.424 1.424 0 0 0 1.425 1.425h6.9a1.43 1.43 0 0 0 1.431-1.425v-6.91a1.43 1.43 0 0 0-1.431-1.425z" transform="translate(-462.395 -264.853)" style="fill:#fff"/>
    <path data-name="Path 15662" d="M752.694 276.071h-6.9a1.425 1.425 0 0 0-1.425 1.425v6.91a1.425 1.425 0 0 0 1.425 1.425h6.9a1.43 1.43 0 0 0 1.431-1.425V277.5a1.43 1.43 0 0 0-1.431-1.425z" transform="translate(-475.686 -264.985)" style="fill:#fff"/>
    <path data-name="Path 15663" d="M627.105 279.763h-55.18a1.737 1.737 0 1 0 0 3.474h55.181a1.737 1.737 0 1 0 0-3.474z" transform="translate(-425.521 -266.048)" style="fill:#fff"/>
</svg>
