<svg xmlns="http://www.w3.org/2000/svg" width="289.417" height="323.046" viewBox="0 0 289.417 323.046">
    <g transform="translate(-.002)">
        <path data-name="Path 461" d="M847.269 711.253a11.136 11.136 0 0 1-10.753-1.894c-3.766-3.161-4.948-8.369-5.908-13.191l-2.842-14.263 5.949 4.1c4.279 2.946 8.653 5.987 11.616 10.254s4.256 10.093 1.875 14.71" transform="translate(-571.466 -406.763)" style="fill:#e6e6e6"/>
        <path data-name="Path 462" d="M857.663 747.387c.6-4.386 1.221-8.829.8-13.262a20.856 20.856 0 0 0-4.022-10.936 18.189 18.189 0 0 0-4.668-4.23c-.467-.294-.9.445-.432.738a17.3 17.3 0 0 1 6.841 8.254 27.69 27.69 0 0 1 1.47 11.942c-.155 2.434-.484 4.85-.816 7.266a.441.441 0 0 0 .3.526.43.43 0 0 0 .526-.3z" transform="translate(-582.367 -425.629)" style="fill:#f2f2f2"/>
        <path data-name="Path 15665" d="M563.394 369.224H314.489v-248.9h248.905z" transform="translate(-309.662 -120.319)" style="fill:#fff"/>
        <path data-name="Path 15666" d="M563.394 369.224H314.489v-248.9h248.905zm-245.228-3.677h241.55V124H318.167z" transform="translate(-309.662 -120.319)" style="fill:#e5e5e5"/>
        <path data-name="Rectangle 4644" transform="translate(101.852 38.941)" style="fill:#e5e5e5" d="M0 0h107.786v3.358H0z"/>
        <path data-name="Rectangle 4645" transform="translate(101.852 47.671)" style="fill:#e5e5e5" d="M0 0h107.786v3.358H0z"/>
        <path data-name="Rectangle 4646" transform="translate(101.852 56.401)" style="fill:#e5e5e5" d="M0 0h107.786v3.358H0z"/>
        <path data-name="Rectangle 4647" transform="translate(101.852 113.902)" style="fill:#e5e5e5" d="M0 0h107.786v3.358H0z"/>
        <path data-name="Rectangle 4648" transform="translate(101.852 122.632)" style="fill:#e5e5e5" d="M0 0h107.786v3.358H0z"/>
        <path data-name="Rectangle 4649" transform="translate(101.852 131.361)" style="fill:#e5e5e5" d="M0 0h107.786v3.358H0z"/>
        <path data-name="Rectangle 4650" transform="translate(101.852 188.863)" style="fill:#e5e5e5" d="M0 0h107.786v3.358H0z"/>
        <path data-name="Rectangle 4651" transform="translate(101.852 197.592)" style="fill:#e5e5e5" d="M0 0h107.786v3.358H0z"/>
        <path data-name="Rectangle 4652" transform="translate(101.852 206.322)" style="fill:#e5e5e5" d="M0 0h107.786v3.358H0z"/>
        <path data-name="Path 15667" d="M401.133 247.828a36 36 0 0 0-5.744-2.417l-.253-2.794-10.245-1.1-1.3 3.572-3.677 1.38a1.788 1.788 0 0 0-.373.194 1.822 1.822 0 0 0-.777 1.213 1.863 1.863 0 0 0 .027.731l.194.8c.28.167.567.326.855.478l.183.093c.42.218.847.424 1.286.614.089.039.187.078.276.117l.019.008c.206.086.412.167.622.245a20.422 20.422 0 0 0 2.107.676 21.66 21.66 0 0 0 5.585.731c.688 0 1.368-.031 2.04-.1a21.575 21.575 0 0 0 4.524-.913h.012a21.232 21.232 0 0 0 2.717-1.077s.012 0 .016-.008c.2-.093.389-.194.583-.292l.093-.047c.155-.082.311-.163.466-.249.389-.214.77-.439 1.146-.68.1-.062.206-.128.311-.2.148-.1.3-.2.439-.3a13.962 13.962 0 0 0-1.132-.675z" transform="translate(-342.431 -182.135)" style="fill:#3f3d56"/>
        <path data-name="Path 15668" d="m380.045 254.9-.641-2.9h-1.675a.4.4 0 0 0-.05 0 3.63 3.63 0 0 0-1.687.583 3.737 3.737 0 0 0-.9.808c.5.377 1.014.727 1.547 1.061l.023.012c.151.093.307.187.462.276.28.167.567.327.855.478l.183.093c.42.218.847.424 1.286.614.089.039.187.078.276.117l.019.008c.206.086.412.167.622.245z" transform="translate(-340.57 -187.488)" style="fill:#3f3d56"/>
        <circle data-name="Ellipse 3497" cx="7.379" cy="7.379" r="7.379" transform="translate(39.802 42.853)" style="fill:#ffb8b8"/>
        <path data-name="Path 15669" d="M387.42 208.3a4.665 4.665 0 0 0 3.249 1.264 30.6 30.6 0 0 0 8.309-.679c.169 1.637-.292 3.4.673 4.749a22.049 22.049 0 0 0 .783-5 4.783 4.783 0 0 0-.277-2.141 1.969 1.969 0 0 0-1.677-1.236 4.2 4.2 0 0 1 1.875-.8l-2.343-1.177.6-.618-4.242-.26 1.229-.78a26.64 26.64 0 0 0-5.581-.176 4.791 4.791 0 0 0-2.468.686 1.782 1.782 0 0 0-.67 2.231 3.24 3.24 0 0 0-2.469 1.959 5.231 5.231 0 0 0-.187 2.514 17.827 17.827 0 0 0 .934 3.953z" transform="translate(-345.193 -161.663)" style="fill:#2f2e41"/>
        <path data-name="Path 15670" d="M399.455 191.389a21.652 21.652 0 1 0-37.416 20.568c.194.245.4.49.6.727.016.016.027.031.043.047a20.986 20.986 0 0 0 1.613 1.663c.148.136.3.276.459.408.3.264.6.517.913.758a21.681 21.681 0 0 0 1.92 1.349l.023.012c.151.093.307.187.462.276.28.167.567.326.855.478l.183.093c.42.218.847.424 1.286.614.089.039.187.078.276.117l.019.008c.206.086.412.167.622.245a20.425 20.425 0 0 0 2.107.676 21.66 21.66 0 0 0 5.585.731c.688 0 1.368-.031 2.04-.1a21.575 21.575 0 0 0 4.524-.913h.012a21.239 21.239 0 0 0 2.717-1.077s.012 0 .016-.008c.2-.093.389-.194.583-.292l.093-.047c.155-.082.311-.163.466-.249.389-.214.77-.439 1.146-.68.1-.062.206-.128.311-.2.148-.1.3-.2.439-.3.19-.132.381-.268.567-.408.058-.043.121-.085.179-.132a21.644 21.644 0 0 0 7.353-24.361zm-8.068 23.417c-.128.1-.26.2-.393.288s-.256.19-.389.276a6.442 6.442 0 0 1-.342.233l-.035.023a9.336 9.336 0 0 1-.257.167q-.484.3-.979.583l-.1.058c-.148.082-.3.159-.443.237-.02.012-.043.019-.062.031l-.023.012c-.187.1-.377.19-.567.28a19.064 19.064 0 0 1-2.266.917c-.1.035-.2.07-.3.1a20.388 20.388 0 0 1-4.283.871c-.637.058-1.283.089-1.932.089a20.191 20.191 0 0 1-5.282-.692 19.191 19.191 0 0 1-2.592-.878c-.043-.019-.09-.035-.132-.054s-.089-.035-.132-.054-.089-.039-.136-.062a17.818 17.818 0 0 1-1.08-.517l-.171-.089a18.82 18.82 0 0 1-1.629-.956l-.089-.058a19.718 19.718 0 0 1-1.364-.983c-.3-.225-.587-.466-.867-.715-.148-.124-.292-.26-.431-.389a19.747 19.747 0 0 1-1.562-1.617 13.295 13.295 0 0 1-.474-.567 1.482 1.482 0 0 1-.1-.12 20.466 20.466 0 1 1 28.419 3.587z" transform="translate(-331.526 -149.156)" style="fill:#3f3d56"/>
        <path data-name="Path 15671" d="M399.455 344.39a21.652 21.652 0 1 0-37.416 20.568c.194.245.4.49.6.727.016.016.027.031.043.047a21.033 21.033 0 0 0 1.613 1.664c.148.136.3.276.458.408.3.264.6.517.913.758a21.312 21.312 0 0 0 1.92 1.349l.023.012c.431.268.87.517 1.318.754l.183.093c.42.218.847.424 1.286.614.089.039.187.078.276.117l.02.008a21.03 21.03 0 0 0 2.728.921 21.66 21.66 0 0 0 5.585.731c.688 0 1.368-.031 2.04-.1a21.577 21.577 0 0 0 4.524-.913h.012a21.225 21.225 0 0 0 2.717-1.077s.012 0 .016-.008c.2-.093.389-.194.583-.292l.093-.047c.155-.082.311-.163.466-.249.389-.214.77-.439 1.147-.68a20.274 20.274 0 0 0 1.318-.911c.058-.043.121-.085.179-.132a21.645 21.645 0 0 0 7.353-24.361z" transform="translate(-331.526 -227.196)" style="fill:#fff"/>
        <circle data-name="Ellipse 188" cx="3.245" cy="3.245" r="3.245" transform="translate(51.382 126.746)" style="fill:#2f2e41"/>
        <path data-name="Path 969" d="M415.341 378.7a3.245 3.245 0 0 1 2.857 4.785 3.244 3.244 0 1 0-5.39-3.565 3.237 3.237 0 0 1 2.534-1.22z" transform="translate(-359.811 -251.86)" style="fill:#2f2e41"/>
        <circle data-name="Ellipse 189" cx="9.532" cy="9.532" r="9.532" transform="translate(39.031 110.919)" style="fill:#2f2e41"/>
        <path data-name="Path 970" d="M385.449 350.3a9.531 9.531 0 0 1 13.21-1c-.078-.074-.155-.149-.236-.221a9.532 9.532 0 0 0-12.721 14.2l.054.048c.081.072.164.14.247.209a9.531 9.531 0 0 1-.555-13.237z" transform="translate(-344.367 -235.758)" style="fill:#2f2e41"/>
        <circle data-name="Ellipse 190" cx="6.139" cy="6.139" r="6.139" transform="translate(42.343 117.624)" style="fill:#a0616a"/>
        <path data-name="Path 15672" d="M396.947 395.782v2.06c-.377.241-.758.466-1.147.68-.155.085-.311.167-.466.249l-.093.047c-.194.1-.385.2-.583.292 0 0-.012 0-.016.008a21.225 21.225 0 0 1-2.717 1.077h-.012a21.57 21.57 0 0 1-4.524.913c-.672.066-1.353.1-2.04.1a21.662 21.662 0 0 1-5.585-.731 21.035 21.035 0 0 1-2.728-.921l-.02-.008c-.089-.039-.187-.078-.276-.117-.439-.19-.867-.4-1.286-.614l-.183-.093a22.376 22.376 0 0 1-1.318-.754l-.023-.012a21.275 21.275 0 0 1-1.92-1.349 15.41 15.41 0 0 1-.913-.758 15.096 15.096 0 0 1-.458-.408 21.031 21.031 0 0 1-1.613-1.663 7.853 7.853 0 0 1 .3-1.193 1.742 1.742 0 0 1 .082-.194 1.558 1.558 0 0 1 .074-.163c.7-1.3 1.955-1.625 3.517-1.695.882-.039 1.858 0 2.888-.008.544 0 1.108-.023 1.671-.074 3.556-.323 2.911-2.421 3.07-3.552.159-1.1 1.147-.148 1.213-.086a12.543 12.543 0 0 0 6.452 1.131c.381-.047.762-.074 1.143-.085 1-.012.785.276.439.513a4.339 4.339 0 0 1-.525.3s-.159.972-.323 2.425c-.155 1.391 2.511 2.044 2.732 2.095a.024.024 0 0 0 .016 0 5.353 5.353 0 0 1 2.958.078 3.505 3.505 0 0 1 2.214 2.51z" transform="translate(-337.479 -256.023)" style="fill:#6c63ff"/>
        <path data-name="Path 15673" d="M381.08 401.911c0 .288-.008.564-.019.824 0 .155-.012.307-.019.451l-.02-.008c-.089-.039-.187-.078-.276-.117-.439-.19-.867-.4-1.286-.614l-.183-.093a22.376 22.376 0 0 1-1.318-.754c.012-.136.031-.272.05-.408.043-.3.078-.6.1-.9a12.509 12.509 0 0 0-1.109-6.127c-.078-.155-.124-.241-.124-.241a2.342 2.342 0 0 1 2.744 0 .971.971 0 0 1 .268.233c.975 1.143 1.239 4.998 1.192 7.754z" transform="translate(-341.485 -259.652)" style="fill:#2f2e41"/>
        <path data-name="Path 15674" d="M418.288 404.353c-.016.435-.039.89-.066 1.353s-.012 0-.016.008a21.221 21.221 0 0 1-2.717 1.077h-.012l-.043-1.092v-.144l-.206-5.317a.892.892 0 0 1 .89-.933h1.97c.1 0 .167.2.214.556a33.689 33.689 0 0 1-.014 4.492z" transform="translate(-361.043 -262.623)" style="fill:#2f2e41"/>
        <path data-name="Path 975" d="M392.875 357.267v6.141h1.425l1.809-1.939-.242 1.939h6.285l-.389-1.939.777 1.939h1v-6.141z" transform="translate(-349.643 -241.177)" style="fill:#2f2e41"/>
        <ellipse data-name="Ellipse 191" cx=".485" cy=".888" rx=".485" ry=".888" transform="translate(41.777 121.583)" style="fill:#a0616a"/>
        <ellipse data-name="Ellipse 192" cx=".485" cy=".888" rx=".485" ry=".888" transform="translate(54.218 121.583)" style="fill:#a0616a"/>
        <path data-name="Path 15675" d="M425.653 405.382a19.817 19.817 0 0 1-1.318.911c-.377.241-.758.466-1.147.68-.155.085-.311.167-.466.249v-4.283s.622.5 1.613 1.325l.389.33c.288.24.599.506.929.788z" transform="translate(-364.868 -264.472)" style="fill:#6c63ff"/>
        <path data-name="Path 15676" d="M399.455 344.39a21.652 21.652 0 1 0-37.416 20.568c.194.245.4.49.6.727.016.016.027.031.043.047a21.033 21.033 0 0 0 1.613 1.664c.148.136.3.276.458.408.3.264.6.517.913.758a21.312 21.312 0 0 0 1.92 1.349l.023.012c.431.268.87.517 1.318.754l.183.093c.42.218.847.424 1.286.614.089.039.187.078.276.117l.02.008a21.03 21.03 0 0 0 2.728.921 21.66 21.66 0 0 0 5.585.731c.688 0 1.368-.031 2.04-.1a21.577 21.577 0 0 0 4.524-.913h.012a21.225 21.225 0 0 0 2.717-1.077s.012 0 .016-.008c.2-.093.389-.194.583-.292l.093-.047c.155-.082.311-.163.466-.249.389-.214.77-.439 1.147-.68a20.274 20.274 0 0 0 1.318-.911c.058-.043.121-.085.179-.132a21.645 21.645 0 0 0 7.353-24.361zm-8.069 23.417c-.128.1-.26.2-.392.288s-.257.19-.389.276a17.884 17.884 0 0 1-.634.423q-.484.3-.979.583l-.105.058c-.148.082-.3.159-.443.237-.019.012-.043.019-.062.031l-.023.012c-.186.1-.377.19-.567.28a19.053 19.053 0 0 1-2.266.917c-.1.035-.2.07-.3.1a20.386 20.386 0 0 1-4.283.871c-.637.058-1.283.089-1.932.089a20.191 20.191 0 0 1-5.282-.692 19.193 19.193 0 0 1-2.592-.878c-.089-.035-.179-.074-.264-.109a2.047 2.047 0 0 1-.136-.062 17.818 17.818 0 0 1-1.08-.517l-.171-.089a19.07 19.07 0 0 1-1.718-1.015 20.907 20.907 0 0 1-1.364-.983c-.3-.225-.587-.466-.867-.715-.148-.124-.292-.26-.431-.389a19.777 19.777 0 0 1-1.562-1.617 13.295 13.295 0 0 1-.474-.567 1.478 1.478 0 0 1-.1-.12 20.466 20.466 0 1 1 28.419 3.587z" transform="translate(-331.526 -227.196)" style="fill:#3f3d56"/>
        <circle data-name="Ellipse 3498" cx="8.483" cy="8.483" r="8.483" transform="translate(39.121 192.037)" style="fill:#2f2e41"/>
        <ellipse data-name="Ellipse 3499" cx="3.51" cy="2.633" rx="3.51" ry="2.633" transform="rotate(-45 252.42 55.37)" style="fill:#2f2e41"/>
        <ellipse data-name="Ellipse 3500" cx="2.633" cy="3.51" rx="2.633" ry="3.51" transform="rotate(-66.869 170.573 59.385)" style="fill:#2f2e41"/>
        <path data-name="Path 15677" d="m413.651 559.114-1-1.573a3.923 3.923 0 0 0-7.173 3.18l.284 1.019.323 1.156a22.152 22.152 0 0 0 3.861-.843.016.016 0 0 0 .01 0 20.642 20.642 0 0 0 2.719-1.078s.01 0 .015-.01c.2-.093.387-.191.583-.289a.861.861 0 0 0 .093-.049 13.684 13.684 0 0 0 .922-.51z" transform="translate(-355.9 -342.139)" style="fill:#cacaca"/>
        <circle data-name="Ellipse 3501" cx="7.199" cy="7.199" r="7.199" transform="translate(40.674 195.345)" style="fill:#ffb6b6"/>
        <path data-name="Path 15678" d="M402.547 557.726a15.572 15.572 0 0 0-2.925-3.547 4.277 4.277 0 0 0-2.851-1.088h-10.143a4.274 4.274 0 0 0-4.267 4.547 4.376 4.376 0 0 0 .177.97 4.6 4.6 0 0 0 .269.666l.5 1c.039.015.078.034.117.049.01 0 .015 0 .02.01.206.083.412.167.622.245a20.241 20.241 0 0 0 2.107.676 21.229 21.229 0 0 0 3.508.632c.691.064 1.382.1 2.077.1s1.367-.034 2.043-.1c.221-.02.441-.044.661-.069a22.148 22.148 0 0 0 3.861-.843.016.016 0 0 0 .01-.005 20.627 20.627 0 0 0 2.719-1.078s.01 0 .015-.01c.2-.093.387-.191.583-.289a.851.851 0 0 0 .093-.049c.157-.078.314-.162.466-.245s.309-.172.455-.265.3-.176.456-.269c-.186-.364-.378-.71-.573-1.038z" transform="translate(-344.276 -341.06)" style="fill:#cacaca"/>
        <path data-name="Path 15679" d="M387.343 555.386a3.92 3.92 0 0 0-5.2 1.872l-.9 1.362-.431.652-.656.99.407.22.181.093c.422.216.848.421 1.289.612.049.024.1.044.157.069s.078.034.117.049c.01 0 .015 0 .02.01.206.083.412.167.622.245a20.253 20.253 0 0 0 2.107.676 21.224 21.224 0 0 0 3.508.632l.343-1.161.333-1.107a3.926 3.926 0 0 0-1.897-5.214z" transform="translate(-343.153 -342.041)" style="fill:#cacaca"/>
        <path data-name="Path 15680" d="M386.908 520.472a9.791 9.791 0 0 0 5.6 1.729 6 6 0 0 1-2.378.978 19.746 19.746 0 0 0 8.065.045 5.219 5.219 0 0 0 1.688-.58 2.137 2.137 0 0 0 1.042-1.394 2.88 2.88 0 0 0-1.429-2.548 10.543 10.543 0 0 0-8.86-1.77 4.852 4.852 0 0 0-2.624 1.483 2.39 2.39 0 0 0-.221 2.838z" transform="translate(-346.6 -322.456)" style="fill:#2f2e41"/>
        <path data-name="Path 15681" d="M399.459 497.387a21.652 21.652 0 1 0-37.416 20.568c.191.245.4.49.6.725a.414.414 0 0 0 .039.049 20.657 20.657 0 0 0 1.617 1.661c.147.137.3.279.456.412.294.265.6.514.916.754.122.1.245.2.372.289.495.377 1.014.725 1.543 1.063a.037.037 0 0 1 .024.01c.152.093.309.186.466.274s.3.176.446.26l.407.221.181.093c.422.216.848.421 1.289.612.049.024.1.044.157.069s.078.034.117.049c.01 0 .015 0 .02.01.206.083.412.167.622.245a20.258 20.258 0 0 0 2.107.676 21.222 21.222 0 0 0 3.508.632c.691.064 1.382.1 2.077.1s1.367-.034 2.043-.1c.221-.02.441-.044.661-.069a22.149 22.149 0 0 0 3.861-.843.017.017 0 0 0 .01 0 20.655 20.655 0 0 0 2.719-1.078s.01 0 .015-.01c.2-.093.387-.191.583-.289a.844.844 0 0 0 .093-.049 13.684 13.684 0 0 0 .922-.509c.147-.093.3-.176.456-.27l.235-.147c.108-.064.206-.127.314-.2.147-.093.294-.2.436-.3.191-.132.382-.269.568-.412a2.114 2.114 0 0 0 .181-.132 21.666 21.666 0 0 0 7.355-24.364zM391.39 520.8c-.127.1-.26.2-.392.289s-.26.191-.392.279c-.113.078-.225.157-.343.23a.208.208 0 0 1-.034.024c-.083.059-.172.113-.255.167-.059.034-.117.073-.176.108-.172.108-.343.211-.519.309-.093.059-.191.113-.284.167l-.1.059c-.152.083-.3.157-.446.235-.019.015-.044.02-.059.034a.038.038 0 0 0-.025.01c-.186.1-.377.191-.568.279a18.917 18.917 0 0 1-2.269.916c-.1.034-.2.073-.3.1a20.5 20.5 0 0 1-3.836.823c-.147.019-.3.034-.451.049a20.895 20.895 0 0 1-3.664.015 20.206 20.206 0 0 1-3.547-.617 18.773 18.773 0 0 1-2.592-.882c-.044-.02-.088-.034-.132-.054s-.088-.034-.132-.054-.088-.039-.137-.064a16.286 16.286 0 0 1-.945-.446c-.044-.025-.088-.044-.132-.069l-.172-.088c-.1-.054-.206-.108-.3-.162a16.759 16.759 0 0 1-.965-.563 14.575 14.575 0 0 1-.363-.23l-.088-.059c-.274-.186-.549-.372-.818-.573-.181-.137-.367-.269-.544-.412a12.9 12.9 0 0 1-.867-.715c-.147-.122-.294-.26-.431-.387a19.415 19.415 0 0 1-1.563-1.617 12.976 12.976 0 0 1-.475-.568c-.034-.039-.064-.078-.1-.122a20.469 20.469 0 1 1 28.416 3.589z" transform="translate(-331.527 -305.233)" style="fill:#3f3d56"/>
        <path data-name="Path 15682" d="M388.343 284.119a50.886 50.886 0 1 0 2.885 75.151l62.418 52.668a4.689 4.689 0 1 0 6.055-7.162l-.007-.006-62.418-52.67a50.889 50.889 0 0 0-8.933-67.981zm-4.024 62.912a38.124 38.124 0 1 1-4.551-53.723 38.124 38.124 0 0 1 4.551 53.723z" transform="translate(-304.638 -197.749)" style="fill:#3f3d56"/>
        <path data-name="Path 15683" d="M339.324 380.949a38.126 38.126 0 0 1-6.469-51.252q-1.093 1.1-2.114 2.306a38.124 38.124 0 0 0 58.275 49.172q1.018-1.207 1.918-2.472a38.126 38.126 0 0 1-51.61 2.246z" transform="translate(-313.367 -227.115)" style="opacity:.3;isolation:isolate"/>
        <path data-name="Path 15684" d="M710.272 504.78a5.263 5.263 0 0 0-1.5-7.929l-11.377-46.568-8.3 2.649 12.286 46.25a5.292 5.292 0 0 0 8.9 5.6z" transform="translate(-500.732 -288.621)" style="fill:#ffb6b6"/>
        <path data-name="Path 15685" d="m395.9 354.182-6.065 5.233-8.486 7.315-3.749-19.176-.392-1.994-.309-1.583L385.5 329l7.168.411.49.029.01.108.113 1 1.47 13.218.034.319z" transform="translate(-192.243 -167.811)" style="fill:#3f3d56"/>
        <path data-name="Path 15686" d="M325.535 621.954h-6.006l-2.858-23.168h8.865z" transform="translate(-161.521 -305.418)" style="fill:#ffb6b6"/>
        <path data-name="Path 15687" d="M622.365 770.173H603v-.245a7.539 7.539 0 0 1 7.538-7.538h11.83z" transform="translate(-456.819 -447.815)" style="fill:#2f2e41"/>
        <path data-name="Path 15688" d="M453.535 622.954h-6.006l-2.858-23.168h8.865z" transform="translate(-226.809 -305.928)" style="fill:#ffb6b6"/>
        <path data-name="Path 15689" d="M750.365 771.173H731v-.245a7.539 7.539 0 0 1 7.538-7.538h11.83z" transform="translate(-522.107 -448.325)" style="fill:#2f2e41"/>
        <path data-name="Path 15690" d="m691 594.275-16.168 2.45-23.522-79.6-24.982 80.1-18.128-2.45 23.517-93.088v-7.349L634.9 483.3l-.333-2.984-2.317-20.866-1-9.049-.065-.585a1.987 1.987 0 0 1 1.564-2.164l7.545-1.587h12.332l7.276 2 .5.137.225.064-.113.941-1.7 14.3-.093.784-1.646 13.782-.375 3.027c14.208 10.289 14.7 20.577 14.7 20.577z" transform="translate(-459.473 -286.472)" style="fill:#2f2e41"/>
        <circle data-name="Ellipse 3502" cx="12.033" cy="12.033" r="12.033" transform="translate(173.461 129.332)" style="fill:#ffb6b6"/>
        <path data-name="Rectangle 4653" transform="rotate(-7.451 1584.345 -1241.149)" style="fill:#3f3d56" d="M0 0h24.007v3.43H0z"/>
        <path data-name="Path 15691" d="M587.05 508.723a5.141 5.141 0 0 1 .645.493l23.545-6 1.606-5.68 8.889 1.3-1.866 10.332a3.919 3.919 0 0 1-3.447 3.2l-27.491 2.9a5.143 5.143 0 1 1-1.881-6.543z" transform="translate(-444.651 -312.722)" style="fill:#ffb6b6"/>
        <path data-name="Path 15692" d="m655.683 452.162-4.164-3.185c-1.126-.427-2.669.786-2.94 1.96l-5.879 24.007 12.248 8.819 1.715-2.695z" transform="translate(-477.07 -287.911)" style="fill:#3f3d56"/>
        <g data-name="Group 15600" style="opacity:.2">
            <path data-name="Path 15693" d="M202.507 175.96a33.167 33.167 0 0 1-3.175 1.078c-.343.1-.7.2-1.044.294a32.346 32.346 0 0 1-7.026 1.137 22.118 22.118 0 0 1-3.067-.083 17.268 17.268 0 0 1-3.229-.637l-.108-.029a14.162 14.162 0 0 1-5.855-3.327 11.538 11.538 0 0 1-1.034-1.151 10.405 10.405 0 0 1-2.234-8.1 6.894 6.894 0 0 1 .167-.769 12.288 12.288 0 0 1 .73-2.009c.132-.3.279-.6.436-.9l5.536-1.872h10.543l7.276 2 .49.029.01.108.225.064-.113.941z"/>
        </g>
        <path data-name="Path 15694" d="M655.964 382.375c-2.25-.276-4.72-.081-6.474 1.356s-2.32 4.423-.659 5.967c1.47 1.367 3.769 1.045 5.738 1.434a7.768 7.768 0 0 1 6.067 7.426c-.029 4.985-4.813 8.76-5.673 13.67a10.662 10.662 0 0 0 3.27 9.245 15.428 15.428 0 0 0 9.187 3.993 28.392 28.392 0 0 0 10.1-1.052 28.074 28.074 0 0 0 9.326-4.11 15.154 15.154 0 0 0 5.933-8.112 10.45 10.45 0 0 0-2.042-9.613c-2.626-2.9-6.994-3.9-9.265-7.082-2.546-3.571-1.6-8.655-3.664-12.526a11.71 11.71 0 0 0-6.757-5.276 30.144 30.144 0 0 0-8.668-1.2 11.486 11.486 0 0 0-4.557.5 4.116 4.116 0 0 0-2.767 3.376 2.01 2.01 0 0 0 .905 2.004z" transform="translate(-479.691 -250.972)" style="fill:#2f2e41"/>
        <path data-name="Path 15695" d="M699.518 778.661H512.852a.49.49 0 0 1 0-.98h186.666a.49.49 0 0 1 0 .98z" transform="translate(-410.589 -455.615)" style="fill:#cacaca"/>
    </g>
</svg>
