<svg xmlns="http://www.w3.org/2000/svg" width="430.012" height="198.163" viewBox="0 0 430.012 198.163">
  <g id="undraw_city_life_gnpr" transform="translate(-90.509)">
    <circle id="Ellipse_3337" data-name="Ellipse 3337" cx="16.418" cy="16.418" r="16.418" transform="translate(419.506 0.651)" fill="#f2f2f2"/>
    <path id="Path_14461" data-name="Path 14461" d="M168.09,292.829c3.914-12.223,13.473-21.7,24.808-27.341,13.449-6.69,28.9-7.447,43.507-4.843,15.764,2.811,30.5,9.29,44.759,16.36,13.988,6.935,27.751,14.258,42.3,19.99a273.819,273.819,0,0,0,91.018,18.853c28.075.937,58.093-2.14,82.131-17.919,22.026-14.459,36.042-38.311,43.342-63.175q1.4-4.775,2.492-9.631c.212-.935-1.227-1.335-1.439-.4-5.888,25.964-18.445,51.625-39.9,68.176-23.2,17.9-53.658,22.039-82.157,21.565a272.5,272.5,0,0,1-92.2-17.793c-14.922-5.681-29-13.057-43.263-20.179-13.947-6.965-28.286-13.485-43.623-16.7-14-2.933-29-3.112-42.5,2.108-11.118,4.3-21.256,11.959-27.189,22.439a43.03,43.03,0,0,0-3.518,8.088C166.357,293.349,167.8,293.741,168.09,292.829Z" transform="translate(-76.102 -224.191)" fill="#f2f2f2"/>
    <path id="Path_14462" data-name="Path 14462" d="M556.682,587.85a.5.5,0,0,0,0-1h-4.726v-1.99h4.726a.5.5,0,0,0,0-1h-40.3a.5.5,0,0,0,0,1h4.726v1.99h-4.726a.5.5,0,0,0,0,1h4.726v1.99h-4.726a.5.5,0,0,0,0,1h4.726v1.99h-4.229a.995.995,0,1,0,0,1.99h4.026a.737.737,0,0,0-.046.249v6.965a.746.746,0,1,0,1.492,0v-6.965a.742.742,0,0,0-.046-.249h28.45a.74.74,0,0,0-.046.249v6.965a.746.746,0,1,0,1.493,0v-6.965a.745.745,0,0,0-.046-.249h4.026a.995.995,0,1,0,0-1.99h-4.229v-1.99h4.726a.5.5,0,0,0,0-1h-4.726v-1.99ZM522.1,584.865H550.96v1.99H522.1Zm28.856,7.96H522.1v-1.99H550.96Zm0-2.985H522.1v-1.99H550.96Z" transform="translate(-251.609 -404.926)" fill="#3f3d56"/>
    <path id="Path_14463" data-name="Path 14463" d="M260.738,519.965c0-8.787-7.128-29.637-15.92-29.637s-15.92,20.85-15.92,29.637a15.92,15.92,0,0,0,31.841,0Z" transform="translate(-107.4 -357.922)" fill="#e6e6e6"/>
    <path id="Path_14464" data-name="Path 14464" d="M252.738,519.965c0-8.787-7.128-29.637-15.92-29.637s-15.92,20.85-15.92,29.637a15.92,15.92,0,0,0,31.841,0Z" transform="translate(-103.381 -357.922)" fill="#f2f2f2"/>
    <path id="Path_14465" data-name="Path 14465" d="M253.4,575.652a.5.5,0,0,1-.5-.5V530.806a.5.5,0,1,1,1,0v44.348A.5.5,0,0,1,253.4,575.652Z" transform="translate(-119.46 -378.012)" fill="#ccc"/>
    <path id="Path_14466" data-name="Path 14466" d="M253.4,538.345a.5.5,0,0,1-.352-.849l6.506-6.506a.5.5,0,0,1,.7.7l-6.506,6.506A.5.5,0,0,1,253.4,538.345Z" transform="translate(-119.46 -378.281)" fill="#ccc"/>
    <path id="Path_14467" data-name="Path 14467" d="M621.4,575.652a.5.5,0,0,1-.5-.5V530.806a.5.5,0,0,1,1,0v44.348A.5.5,0,0,1,621.4,575.652Z" transform="translate(-304.376 -378.012)" fill="#3f3d56"/>
    <path id="Path_14468" data-name="Path 14468" d="M696.738,519.965c0-8.787-7.128-29.637-15.92-29.637s-15.92,20.85-15.92,29.637a15.92,15.92,0,0,0,31.841,0Z" transform="translate(-326.486 -357.922)" fill="#e6e6e6"/>
    <path id="Path_14469" data-name="Path 14469" d="M688.738,519.965c0-8.787-7.128-29.637-15.92-29.637s-15.92,20.85-15.92,29.637a15.92,15.92,0,0,0,31.841,0Z" transform="translate(-322.466 -357.922)" fill="#f2f2f2"/>
    <path id="Path_14470" data-name="Path 14470" d="M689.4,575.652a.5.5,0,0,1-.5-.5V530.806a.5.5,0,1,1,.995,0v44.348A.5.5,0,0,1,689.4,575.652Z" transform="translate(-338.546 -378.012)" fill="#ccc"/>
    <path id="Path_14471" data-name="Path 14471" d="M689.4,538.345a.5.5,0,0,1-.352-.849l6.506-6.506a.5.5,0,0,1,.7.7l-6.506,6.506A.5.5,0,0,1,689.4,538.345Z" transform="translate(-338.546 -378.281)" fill="#ccc"/>
    <path id="Path_14472" data-name="Path 14472" d="M349.6,252.885h-7.96a2.241,2.241,0,0,1-2.239-2.239V232.239A2.241,2.241,0,0,1,341.636,230h7.96a2.241,2.241,0,0,1,2.239,2.239v18.408a2.241,2.241,0,0,1-2.239,2.239Z" transform="translate(-162.926 -227.11)" fill="#e6e6e6"/>
    <path id="Path_14473" data-name="Path 14473" d="M377.422,446.134h-40.8A4.234,4.234,0,0,1,332.4,441.9V277.229A4.234,4.234,0,0,1,336.626,273h40.8a4.234,4.234,0,0,1,4.229,4.229V441.9A4.234,4.234,0,0,1,377.422,446.134Z" transform="translate(-159.408 -248.717)" fill="#bec0c0"/>
    <path id="Path_14474" data-name="Path 14474" d="M328.422,446.134h-40.8A4.234,4.234,0,0,1,283.4,441.9V277.229A4.234,4.234,0,0,1,287.627,273h40.8a4.234,4.234,0,0,1,4.229,4.229V441.9A4.234,4.234,0,0,1,328.422,446.134Z" transform="translate(-134.786 -248.717)" fill="#0f1f54"/>
    <path id="Path_14475" data-name="Path 14475" d="M334.6,252.885h-7.96a2.241,2.241,0,0,1-2.239-2.239V232.239A2.241,2.241,0,0,1,326.636,230h7.96a2.241,2.241,0,0,1,2.239,2.239v18.408a2.241,2.241,0,0,1-2.239,2.239Z" transform="translate(-155.388 -227.11)" fill="#f2f2f2"/>
    <path id="Path_14476" data-name="Path 14476" d="M313.094,330.915h-9.453a1.245,1.245,0,0,1-1.244-1.244V315.244A1.245,1.245,0,0,1,303.641,314h9.453a1.245,1.245,0,0,1,1.244,1.244v14.428A1.245,1.245,0,0,1,313.094,330.915Z" transform="translate(-144.333 -269.319)" fill="#fff"/>
    <path id="Path_14477" data-name="Path 14477" d="M350.094,330.915h-9.453a1.245,1.245,0,0,1-1.244-1.244V315.244A1.245,1.245,0,0,1,340.641,314h9.453a1.245,1.245,0,0,1,1.244,1.244v14.428A1.245,1.245,0,0,1,350.094,330.915Z" transform="translate(-162.926 -269.319)" fill="#fff"/>
    <path id="Path_14478" data-name="Path 14478" d="M313.094,383.915h-9.453a1.245,1.245,0,0,1-1.244-1.244V368.244A1.245,1.245,0,0,1,303.641,367h9.453a1.245,1.245,0,0,1,1.244,1.244v14.428a1.245,1.245,0,0,1-1.244,1.244Z" transform="translate(-144.333 -295.951)" fill="#fff"/>
    <path id="Path_14479" data-name="Path 14479" d="M350.094,383.915h-9.453a1.245,1.245,0,0,1-1.244-1.244V368.244A1.245,1.245,0,0,1,340.641,367h9.453a1.245,1.245,0,0,1,1.244,1.244v14.428a1.245,1.245,0,0,1-1.244,1.244Z" transform="translate(-162.926 -295.951)" fill="#fff"/>
    <path id="Path_14480" data-name="Path 14480" d="M313.094,436.915h-9.453a1.245,1.245,0,0,1-1.244-1.244V421.244A1.245,1.245,0,0,1,303.641,420h9.453a1.245,1.245,0,0,1,1.244,1.244v14.428A1.245,1.245,0,0,1,313.094,436.915Z" transform="translate(-144.333 -322.583)" fill="#fff"/>
    <path id="Path_14481" data-name="Path 14481" d="M350.094,436.915h-9.453a1.245,1.245,0,0,1-1.244-1.244V421.244A1.245,1.245,0,0,1,340.641,420h9.453a1.245,1.245,0,0,1,1.244,1.244v14.428A1.245,1.245,0,0,1,350.094,436.915Z" transform="translate(-162.926 -322.583)" fill="#fff"/>
    <path id="Path_14482" data-name="Path 14482" d="M313.094,489.915h-9.453a1.245,1.245,0,0,1-1.244-1.244V474.244A1.245,1.245,0,0,1,303.641,473h9.453a1.245,1.245,0,0,1,1.244,1.244v14.428A1.245,1.245,0,0,1,313.094,489.915Z" transform="translate(-144.333 -349.215)" fill="#fff"/>
    <path id="Path_14483" data-name="Path 14483" d="M350.094,489.915h-9.453a1.245,1.245,0,0,1-1.244-1.244V474.244A1.245,1.245,0,0,1,340.641,473h9.453a1.245,1.245,0,0,1,1.244,1.244v14.428A1.245,1.245,0,0,1,350.094,489.915Z" transform="translate(-162.926 -349.215)" fill="#fff"/>
    <path id="Path_14484" data-name="Path 14484" d="M313.094,542.915h-9.453a1.245,1.245,0,0,1-1.244-1.244V527.244A1.245,1.245,0,0,1,303.641,526h9.453a1.245,1.245,0,0,1,1.244,1.244v14.428A1.245,1.245,0,0,1,313.094,542.915Z" transform="translate(-144.333 -375.847)" fill="#fff"/>
    <path id="Path_14485" data-name="Path 14485" d="M350.094,542.915h-9.453a1.245,1.245,0,0,1-1.244-1.244V527.244A1.245,1.245,0,0,1,340.641,526h9.453a1.245,1.245,0,0,1,1.244,1.244v14.428A1.245,1.245,0,0,1,350.094,542.915Z" transform="translate(-162.926 -375.847)" fill="#fff"/>
    <path id="Path_14486" data-name="Path 14486" d="M762.6,435.925h-7.96a2.241,2.241,0,0,1-2.239-2.239V423.239A2.241,2.241,0,0,1,754.637,421h7.96a2.241,2.241,0,0,1,2.239,2.239v10.448A2.241,2.241,0,0,1,762.6,435.925Z" transform="translate(-370.454 -323.086)" fill="#e6e6e6"/>
    <path id="Path_14487" data-name="Path 14487" d="M862.422,533.562h-40.8a4.234,4.234,0,0,1-4.229-4.229v-79.1A4.234,4.234,0,0,1,821.626,446h40.8a4.234,4.234,0,0,1,4.229,4.229v79.1A4.234,4.234,0,0,1,862.422,533.562Z" transform="translate(-403.116 -335.648)" fill="#bdbfc2"/>
    <path id="Path_14488" data-name="Path 14488" d="M783.273,533.562H712.626a4.234,4.234,0,0,1-4.229-4.229v-79.1A4.234,4.234,0,0,1,712.626,446h70.647a4.234,4.234,0,0,1,4.229,4.229v79.1a4.234,4.234,0,0,1-4.229,4.229Z" transform="translate(-348.344 -335.648)" fill="#0f1f54"/>
    <path id="Path_14489" data-name="Path 14489" d="M747.6,435.925h-7.96a2.241,2.241,0,0,1-2.239-2.239V423.239A2.241,2.241,0,0,1,739.636,421h7.96a2.241,2.241,0,0,1,2.239,2.239v10.448A2.241,2.241,0,0,1,747.6,435.925Z" transform="translate(-362.916 -323.086)" fill="#f2f2f2"/>
    <path id="Path_14490" data-name="Path 14490" d="M768.094,507.415h-9.453a1.245,1.245,0,0,1-1.244-1.244V491.744a1.245,1.245,0,0,1,1.244-1.244h9.453a1.245,1.245,0,0,1,1.244,1.244v14.428A1.245,1.245,0,0,1,768.094,507.415Z" transform="translate(-372.966 -358.009)" fill="#fff"/>
    <path id="Path_14491" data-name="Path 14491" d="M805.094,507.415h-9.453a1.245,1.245,0,0,1-1.244-1.244V491.744a1.245,1.245,0,0,1,1.244-1.244h9.453a1.245,1.245,0,0,1,1.244,1.244v14.428A1.245,1.245,0,0,1,805.094,507.415Z" transform="translate(-391.559 -358.009)" fill="#fff"/>
    <path id="Path_14492" data-name="Path 14492" d="M768.094,560.415h-9.453a1.245,1.245,0,0,1-1.244-1.244V544.744a1.245,1.245,0,0,1,1.244-1.244h9.453a1.245,1.245,0,0,1,1.244,1.244v14.428A1.245,1.245,0,0,1,768.094,560.415Z" transform="translate(-372.966 -384.641)" fill="#fff"/>
    <path id="Path_14493" data-name="Path 14493" d="M805.094,560.415h-9.453a1.245,1.245,0,0,1-1.244-1.244V544.744a1.245,1.245,0,0,1,1.244-1.244h9.453a1.245,1.245,0,0,1,1.244,1.244v14.428A1.245,1.245,0,0,1,805.094,560.415Z" transform="translate(-391.559 -384.641)" fill="#fff"/>
    <path id="Path_14494" data-name="Path 14494" d="M468.412,621.5H76.477c-.207,0-.375-.223-.375-.5s.168-.5.375-.5H468.412c.207,0,.375.223.375.5S468.619,621.5,468.412,621.5Z" transform="translate(42.963 -423.332)" fill="#e6e6e6"/>
    <path id="Path_14498" data-name="Path 14498" d="M459.738,519.965c0-8.787-7.128-29.637-15.92-29.637s-15.92,20.85-15.92,29.637a15.92,15.92,0,0,0,31.841,0Z" transform="translate(-207.396 -357.922)" fill="#e6e6e6"/>
    <path id="Path_14499" data-name="Path 14499" d="M451.738,519.965c0-8.787-7.128-29.637-15.92-29.637s-15.92,20.85-15.92,29.637a15.92,15.92,0,0,0,31.841,0Z" transform="translate(-203.376 -357.922)" fill="#f2f2f2"/>
    <path id="Path_14500" data-name="Path 14500" d="M452.4,575.652a.5.5,0,0,1-.5-.5V530.806a.5.5,0,1,1,.995,0v44.348A.5.5,0,0,1,452.4,575.652Z" transform="translate(-219.456 -378.012)" fill="#ccc"/>
    <path id="Path_14501" data-name="Path 14501" d="M452.4,538.345a.5.5,0,0,1-.352-.849l6.506-6.506a.5.5,0,0,1,.7.7l-6.506,6.506A.5.5,0,0,1,452.4,538.345Z" transform="translate(-219.456 -378.281)" fill="#ccc"/>
    <path id="Path_14502" data-name="Path 14502" d="M970.738,519.965c0-8.787-7.128-29.637-15.92-29.637s-15.92,20.85-15.92,29.637a15.92,15.92,0,0,0,31.841,0Z" transform="translate(-478.596 -358.086)" fill="#e6e6e6"/>
    <path id="Path_14503" data-name="Path 14503" d="M962.738,519.965c0-8.787-7.128-29.637-15.92-29.637s-15.92,20.85-15.92,29.637a15.92,15.92,0,0,0,31.841,0Z" transform="translate(-474.576 -358.086)" fill="#f2f2f2"/>
    <path id="Path_14504" data-name="Path 14504" d="M963.4,575.652a.5.5,0,0,1-.5-.5V530.806a.5.5,0,1,1,.995,0v44.348A.5.5,0,0,1,963.4,575.652Z" transform="translate(-490.656 -378.175)" fill="#ccc"/>
    <path id="Path_14505" data-name="Path 14505" d="M963.4,538.345a.5.5,0,0,1-.352-.849l6.506-6.506a.5.5,0,0,1,.7.7l-6.506,6.506A.5.5,0,0,1,963.4,538.345Z" transform="translate(-490.656 -378.444)" fill="#ccc"/>
    <path id="Path_14506" data-name="Path 14506" d="M620.586,547.433H609.641a1.245,1.245,0,0,1-1.244-1.244V535.244A1.245,1.245,0,0,1,609.641,534h10.945a1.245,1.245,0,0,1,1.244,1.244v10.945A1.245,1.245,0,0,1,620.586,547.433Z" transform="translate(-298.095 -379.867)" fill="#0b5b99"/>
    <g id="Group_14893" data-name="Group 14893" transform="translate(440.709 164.976)">
      <path id="Path_14508" data-name="Path 14508" d="M849.762,576.724l-2.669-2.5a.378.378,0,0,1-.01-.542l.545-.552a.379.379,0,0,1,.5-.035l2.236,1.709,1.4-3.384a1.056,1.056,0,0,1,1.441-.546h0a1.05,1.05,0,0,1,.578,1.119c-.253,1.539-1.787,3.574-2.679,4.65a.916.916,0,0,1-1.336.083Z" transform="translate(-844.756 -562.893)" fill="#417dcd"/>
      <circle id="Ellipse_3340" data-name="Ellipse 3340" cx="2.066" cy="2.066" r="2.066" transform="translate(4.797 1.407)" fill="#ffb8b8"/>
      <path id="Path_14518" data-name="Path 14518" d="M857.21,563.056a.168.168,0,1,1,.231.156v.37a.063.063,0,1,1-.126,0v-.37a.168.168,0,0,1-.105-.156Z" transform="translate(-849.9 -558.935)" fill="#fff"/>
      <g id="Group_14892" data-name="Group 14892" transform="translate(0)">
        <g id="Group_14891" data-name="Group 14891">
          <path id="Path_14507" data-name="Path 14507" d="M845.381,571.684a.846.846,0,0,1,.553,1.173l2.163,2.086-1.524.342-1.821-2.033a.85.85,0,0,1,.629-1.567Z" transform="translate(-843.418 -563.341)" fill="#ffb8b8"/>
          <path id="Path_14510" data-name="Path 14510" d="M846.735,574.751l-1.631-2.365a.463.463,0,0,1,.118-.643l.166-.115,2.156,3.127-.166.115h0a.463.463,0,0,1-.643-.118Z" transform="translate(-843.776 -563.328)" fill="#3f3d56"/>
          <path id="Path_14511" data-name="Path 14511" d="M771.723,390.6l-1.024-.118.136-3.988,1.344.155Z" transform="translate(-768.568 -358.761)" fill="#ffb8b8"/>
          <path id="Path_14512" data-name="Path 14512" d="M845.82,619.407l-3.3-.381,0-.042a1.294,1.294,0,0,1,1.434-1.137h0l2.017.233Z" transform="translate(-842.517 -586.547)" fill="#2f2e41"/>
          <path id="Path_14513" data-name="Path 14513" d="M794.043,389.384l-.985.3-1.642-3.655,1.454-.449Z" transform="translate(-778.978 -358.305)" fill="#ffb8b8"/>
          <path id="Path_14514" data-name="Path 14514" d="M870.618,617.887l-3.176.981-.012-.04a1.294,1.294,0,0,1,.854-1.618h0l1.94-.6Z" transform="translate(-855.006 -585.931)" fill="#2f2e41"/>
          <path id="Path_14515" data-name="Path 14515" d="M846.263,602.2a.419.419,0,0,1-.28-.512l.617-7.107a2.144,2.144,0,0,1,.3-.917l3.737-6.2,3.344.6.022.009c1.625,1,3.068,5.822,4.464,10.49.217.726.441,1.477.661,2.194a.423.423,0,0,1-.227.545l-1.013.426a.419.419,0,0,1-.532-.186l-5.206-9.531a.084.084,0,0,0-.065-.043.081.081,0,0,0-.072.028l-3.021,3.419-1.11,6.515,0,.014a.421.421,0,0,1-.5.24l-1.089.021h-.007Z" transform="translate(-844.251 -571.285)" fill="#2f2e41"/>
          <path id="Path_14516" data-name="Path 14516" d="M854.21,578.057l-.021-.007-.006-.021c-.016-.052-1.544-5.225-.167-8.522v0c.04-.079,1-1.925,2.118-2.109l.03,0,.363.679a5.982,5.982,0,0,1,1.187,5.66c.08.287,1.165,4.234.575,4.824a1.083,1.083,0,0,1-.736.185A14.862,14.862,0,0,1,854.21,578.057Z" transform="translate(-848.006 -561.198)" fill="#417dcd"/>
          <path id="Path_14517" data-name="Path 14517" d="M855.048,560.862c-.188.067-.42.126-.568-.013a.5.5,0,0,1-.033-.565,2.555,2.555,0,0,0,.258-.543.835.835,0,0,0-.307-.765,2.266,2.266,0,0,0-.748-.376l-1.446-.514a1.67,1.67,0,0,1-.944-.611,1.132,1.132,0,0,1,.45-1.46,1.836,1.836,0,0,1,1.589-.031,8.2,8.2,0,0,0,.847.339c.579.153,1.237.016,1.746.342a1.613,1.613,0,0,1,.633,1.407,4.354,4.354,0,0,1-.425,1.555,2.891,2.891,0,0,1-.472.829.975.975,0,0,1-.825.356Z" transform="translate(-846.856 -555.383)" fill="#2f2e41"/>
          <circle id="Ellipse_3341" data-name="Ellipse 3341" cx="1.682" cy="1.682" r="1.682" transform="translate(8.403)" fill="#2f2e41"/>
          <path id="Path_14519" data-name="Path 14519" d="M845.89,575.258a.845.845,0,0,1,.927.907l2.755,1.2-1.309.851-2.415-1.271a.85.85,0,0,1,.043-1.688Z" transform="translate(-843.824 -565.149)" fill="#ffb8b8"/>
        </g>
        <path id="Path_14520" data-name="Path 14520" d="M852.6,576.714l-3.374-1.416a.378.378,0,0,1-.2-.5l.318-.707a.379.379,0,0,1,.456-.207l2.692.822.128-3.658a1.056,1.056,0,0,1,1.16-1.014h0a1.049,1.049,0,0,1,.932.847c.3,1.531-.429,3.973-.89,5.292a.917.917,0,0,1-1.224.544Z" transform="translate(-845.773 -562.522)" fill="#417dcd"/>
      </g>
    </g>
    <path id="Path_14585" data-name="Path 14585" d="M651.474,579.981a.927.927,0,0,1-.642-1.268l-3.417-7.72,1.955-.492,2.744,7.743a.932.932,0,0,1-.64,1.737Z" transform="translate(-317.701 -398.208)" fill="#a0616a"/>
    <path id="Path_14586" data-name="Path 14586" d="M647.744,572.408a.415.415,0,0,1-.228-.26l-.6-2a1.154,1.154,0,1,1,2.088-.985l1.155,1.745a.416.416,0,0,1-.17.606l-1.9.89A.415.415,0,0,1,647.744,572.408Z" transform="translate(-317.396 -397.204)" fill="#6c63ff"/>
    <path id="Path_14587" data-name="Path 14587" d="M659.731,573.683l-2.1,1.484a.157.157,0,0,1-.185,0l-.566-.425a.155.155,0,0,1-.01-.243l1.613-1.438a.16.16,0,0,1,.157-.03l1.049.376a.158.158,0,0,1,.038.277Z" transform="translate(-322.427 -399.475)" fill="#3f3d56"/>
    <path id="Path_14588" data-name="Path 14588" d="M659.8,573.651a.056.056,0,0,0-.032-.072l-.945-.338a.057.057,0,0,0-.056.01l-1.455,1.3-.008.009a.054.054,0,0,0,.012.076l.509.383a.055.055,0,0,0,.066,0l1.889-1.337A.055.055,0,0,0,659.8,573.651Z" transform="translate(-322.663 -399.583)" fill="#fff"/>
    <path id="Path_14589" data-name="Path 14589" d="M571.214,390.507h1.058l.5-4.08h-1.561Z" transform="translate(-241.549 -194.176)" fill="#a0616a"/>
    <path id="Path_14590" data-name="Path 14590" d="M646.774,618.125h2.083a1.328,1.328,0,0,1,1.328,1.328v.043h-3.411Z" transform="translate(-317.379 -422.139)" fill="#2f2e41"/>
    <path id="Path_14591" data-name="Path 14591" d="M564.1,390.507h1.058l.5-4.08H564.1Z" transform="translate(-237.976 -194.176)" fill="#a0616a"/>
    <path id="Path_14592" data-name="Path 14592" d="M639.663,618.125h2.083a1.328,1.328,0,0,1,1.328,1.328v.043h-3.411Z" transform="translate(-313.806 -422.139)" fill="#2f2e41"/>
    <path id="Path_14593" data-name="Path 14593" d="M639.587,597.622a.465.465,0,0,1-.115-.3c-.252-2.594.434-16.231,2.019-17.4l.01-.01,4.64-.8h0l.086.086c.007.12.85,12.074-1.479,18.175a.388.388,0,0,1-.362.247h-.926a.388.388,0,0,1-.387-.419l.75-11.423a.129.129,0,0,0-.255-.038l-2.112,11.594a.39.39,0,0,1-.351.3l-1.216.09h-.029a.388.388,0,0,1-.273-.112Z" transform="translate(-313.685 -402.537)" fill="#2f2e41"/>
    <circle id="Ellipse_3345" data-name="Ellipse 3345" cx="2.119" cy="2.119" r="2.119" transform="translate(329.889 165.348)" fill="#a0616a"/>
    <path id="Path_14594" data-name="Path 14594" d="M641.622,574.5a.5.5,0,0,1-.144-.341l.865-4.052c-.69-2.934.229-3.484,1.266-4.04l-.007,0,.433-1.172a.366.366,0,0,1,.512-.237l2.209,1.174a.437.437,0,0,1,.2.258.548.548,0,0,1-.007.356l-.163.441c.422.563,1.074,2.792.384,3.655l.521,2.875a.454.454,0,0,1-.323.484l-5.443.7a.315.315,0,0,1-.064.007A.351.351,0,0,1,641.622,574.5Z" transform="translate(-314.718 -395.251)" fill="#aad7f3"/>
    <path id="Path_14595" data-name="Path 14595" d="M651.308,574a.907.907,0,0,0-.1.106l-4.269-.295-.458-.933-1.5.507.65,1.731a.69.69,0,0,0,.7.446l4.854-.368a.906.906,0,1,0,.119-1.193Z" transform="translate(-316.481 -399.404)" fill="#a0616a"/>
    <path id="Path_14596" data-name="Path 14596" d="M645.812,571.732l-1.861.619a.388.388,0,0,1-.505-.3l-.339-1.925a1.078,1.078,0,0,1,2.048-.675l.88,1.739a.388.388,0,0,1-.224.544Z" transform="translate(-315.509 -397.308)" fill="#aad7f3"/>
    <circle id="Ellipse_3346" data-name="Ellipse 3346" cx="1.726" cy="1.726" r="1.726" transform="translate(329.092 162.342)" fill="#2f2e41"/>
    <path id="Path_14597" data-name="Path 14597" d="M651.2,558.247a.9.9,0,0,0,.5-.042.592.592,0,0,0,.3-.447c.322-2.136-1.495-1.961-1.71-2.053a2.349,2.349,0,0,1-.38-.277,1.776,1.776,0,0,0-.992-.218,2.86,2.86,0,0,0-1.206.147,1.806,1.806,0,0,0-.8.739,3.739,3.739,0,0,0-.4,1.03,2.571,2.571,0,0,0-.068,1.262,1.561,1.561,0,0,0,1.417,1.135,1.168,1.168,0,0,1,.616-1.279,1.78,1.78,0,0,1,1.175-.14,5.179,5.179,0,0,0,.779.1C650.689,558.21,651,558.225,651.2,558.247Z" transform="translate(-317.189 -390.518)" fill="#2f2e41"/>
    <path id="Path_14598" data-name="Path 14598" d="M989.422,611.04a8.54,8.54,0,0,1,17.08,0" transform="translate(-503.984 -414.451)" fill="#f2f2f2"/>
    <path id="Path_14599" data-name="Path 14599" d="M1006.354,614.653a.231.231,0,0,1-.231-.231v-4.5a.231.231,0,0,1,.462,0v4.5A.231.231,0,0,1,1006.354,614.653Z" transform="translate(-512.377 -418.064)" fill="#ccc"/>
    <path id="Path_14600" data-name="Path 14600" d="M1003.557,613.69a.23.23,0,0,1-.15-.056l-2.77-2.377a.231.231,0,1,1,.3-.35l2.77,2.377a.231.231,0,0,1-.15.406Z" transform="translate(-509.579 -418.647)" fill="#ccc"/>
    <path id="Path_14602" data-name="Path 14602" d="M1059.242,614.653a.231.231,0,0,1-.231-.231v-4.5a.231.231,0,1,1,.462,0v4.5A.231.231,0,0,1,1059.242,614.653Z" transform="translate(-538.952 -418.064)" fill="#ccc"/>
    <g id="Group_14890" data-name="Group 14890" transform="translate(340.122 163.72)">
      <path id="Path_14655" data-name="Path 14655" d="M622.263,615.463a1.658,1.658,0,0,1-1.635-1.385v0l0,0a1.6,1.6,0,0,0,.254-.423,1.074,1.074,0,0,1-.265.242l-.01.007v-.013c0-.027,0-.055,0-.081a1.648,1.648,0,0,1,.782-1.407,2.343,2.343,0,1,1,3.916-2.359l0,.006-.006,0a1.151,1.151,0,0,1-.447.094,1.6,1.6,0,0,0,.492.06h.006v.005a2.356,2.356,0,0,1,.07.569c0,.007,0,.014,0,.021a1.062,1.062,0,0,0,.351.792,1.657,1.657,0,0,1-.077,2.518l0,0,0,0a1.333,1.333,0,0,1-.532-.388,1.625,1.625,0,0,0,.338.516l.006.006-.008,0a2.918,2.918,0,0,0-3.228,1.216Z" transform="translate(-619.956 -584.151)" fill="#f2f2f2"/>
      <path id="Path_14656" data-name="Path 14656" d="M635.673,668.358a.03.03,0,0,1-.03-.026,10.071,10.071,0,0,1-.014-2.114,7.923,7.923,0,0,1,1.438-4.02.03.03,0,0,1,.048.037,7.866,7.866,0,0,0-1.426,3.989,10.027,10.027,0,0,0,.014,2.1.03.03,0,0,1-.007.024A.031.031,0,0,1,635.673,668.358Z" transform="translate(-633.956 -634.406)" fill="#3f3d56"/>
      <path id="Path_14657" data-name="Path 14657" d="M644.252,678.265a.03.03,0,0,1-.018-.054,4.15,4.15,0,0,1,.916-.467,3.222,3.222,0,0,1,2.066-.1.03.03,0,1,1-.018.057,3.164,3.164,0,0,0-2.027.1,4.085,4.085,0,0,0-.9.459A.029.029,0,0,1,644.252,678.265Z" transform="translate(-642.035 -648.738)" fill="#3f3d56"/>
      <rect id="Rectangle_4420" data-name="Rectangle 4420" width="1.627" height="1.302" transform="translate(9.805 14.797)" fill="#fff"/>
      <rect id="Rectangle_4423" data-name="Rectangle 4423" width="1.627" height="1.302" transform="translate(9.805 18.116)" fill="#fff"/>
      <rect id="Rectangle_4426" data-name="Rectangle 4426" width="1.627" height="1.302" transform="translate(9.805 21.435)" fill="#fff"/>
      <rect id="Rectangle_4429" data-name="Rectangle 4429" width="1.627" height="1.302" transform="translate(9.805 24.754)" fill="#fff"/>
      <rect id="Rectangle_4432" data-name="Rectangle 4432" width="1.627" height="1.302" transform="translate(9.805 28.073)" fill="#fff"/>
      <path id="Path_14661" data-name="Path 14661" d="M776.56,694.043a.619.619,0,0,1-.471-.649c0-.03.048-.027.046,0a.573.573,0,0,0,.44.6C776.6,694.006,776.589,694.05,776.56,694.043Z" transform="translate(-765.319 -663.564)" fill="#fff"/>
      <path id="Path_14669" data-name="Path 14669" d="M622.4,476.985a.646.646,0,0,0,.554-.822l1.877-1.324-1.111-.435-1.612,1.324a.65.65,0,0,0,.292,1.257Z" transform="translate(-620.955 -458.845)" fill="#ffb6b6"/>
      <path id="Path_14670" data-name="Path 14670" d="M806.229,481.239a.646.646,0,0,0-.392-.91l-.1-2.294-.966.7.244,2.072a.65.65,0,0,0,1.216.433Z" transform="translate(-792.134 -462.239)" fill="#ffb6b6"/>
      <path id="Path_14671" data-name="Path 14671" d="M483.909,548.357h-.966l-.46-3.727h1.426Z" transform="translate(-472.915 -515.344)" fill="#ffb6b6"/>
      <path id="Path_14672" data-name="Path 14672" d="M738.585,732.789H735.47v-.039a1.213,1.213,0,0,1,1.213-1.213h0l.569-.432,1.062.432h.272Z" transform="translate(-727.345 -698.84)" fill="#2f2e41"/>
      <path id="Path_14673" data-name="Path 14673" d="M396.382,545.583l-.956-.138.078-3.754,1.411.2Z" transform="translate(-391.524 -512.596)" fill="#ffb6b6"/>
      <path id="Path_14674" data-name="Path 14674" d="M642.675,730.3l-3.083-.446.006-.039a1.212,1.212,0,0,1,1.374-1.027h0l.625-.346.989.579.269.039Z" transform="translate(-637.707 -696.348)" fill="#2f2e41"/>
      <path id="Path_14675" data-name="Path 14675" d="M673.881,505l-1.583-.4-2.523-.631-.579-.145a.1.1,0,0,0-.047,0,.091.091,0,0,0-.063.045l-.39.65-.92,1.533L666.7,507.85l-.855,1.425-.229.381a.322.322,0,0,0-.061.145c-.026.293-.045.586-.068.879q-.068.887-.136,1.774l-.161,2.089q-.07.916-.141,1.831-.038.488-.075.976l0,.046a.1.1,0,0,0,.072.094l1.535.512.222.074a.1.1,0,0,0,.12-.068l.3-1.815.487-2.92.076-.457a2.069,2.069,0,0,0,.039-.231.5.5,0,0,0,.076-.122.806.806,0,0,0,.059-.591l-.008-.025,0-.009.021-.128.063-.378.051-.3a.148.148,0,0,1,0-.016.057.057,0,0,1-.02.009s.008-.009.011-.011l.01-.009a.048.048,0,0,0,0-.009c0-.018.009-.012.009,0,.064-.056.121-.124.181-.183l.909-.91,1.64-1.64v8.5c0,.4-.013.8,0,1.206,0,.006,0,.011,0,.017a.1.1,0,0,0,.1.1h1.757a.1.1,0,0,0,.1-.1q.033-.355.065-.711l.148-1.622q.08-.883.161-1.767l.1-1.146c0-.028.007-.057.008-.085l.01-.025.048-.1a1.032,1.032,0,0,0,.123-.567.875.875,0,0,0-.036-.171c-.01-.03-.021-.059-.034-.087s-.014-.031-.021-.045a.014.014,0,0,1,0,0c.027-.147.028-.3.041-.452l.074-.809.148-1.625.055-.6.149-1.635.123-1.356.007-.076A.1.1,0,0,0,673.881,505Z" transform="translate(-661.435 -486.353)" fill="#2f2e41"/>
      <path id="Path_14676" data-name="Path 14676" d="M712.844,613.946a.026.026,0,0,0,.012-.02l-.01.009A.107.107,0,0,1,712.844,613.946Z" transform="translate(-706.192 -589.286)" fill="#2f2e41"/>
      <path id="Path_14677" data-name="Path 14677" d="M714.44,327.079l-1.171-1.171v-.586l-2.343.586v1.171s-1.757,3.514-1.171,5.271a16.669,16.669,0,0,1,.545,3.846c.005.112.155.24.159.343s-.393.309-.39.391a.87.87,0,0,0,.273.692l5.271.586c-.036-.428.064-.532.053-.952,0-.139-.324-.578-.325-.716s.193-.279.194-.407q0-.125.005-.249a14.974,14.974,0,0,1,.659-4.119Z" transform="translate(-703.191 -319.464)" fill="#0a529e"/>
      <path id="Path_14678" data-name="Path 14678" d="M765.023,361.953l-.119-4.475-2.392-4.306a.943.943,0,0,1,1.648-.916l2.566,4.619v.009l-.142,2.692-.194,1.037.115.316-.052.955Z" transform="translate(-752.516 -344.193)" fill="#0a529e"/>
      <path id="Path_14679" data-name="Path 14679" d="M637.9,368.415l-1.44-.932,3.491-3.074,1.842-4.568a.943.943,0,0,1,1.382-.442h0a.943.943,0,0,1,.367,1.147l-1.977,4.9-.929.559-.35.479-.3-.014-.1.335-.559.245Z" transform="translate(-634.776 -351.186)" fill="#0a529e"/>
      <path id="Path_14680" data-name="Path 14680" d="M716.406,256.418a2.021,2.021,0,1,1-2.021-2.021h0a2.016,2.016,0,0,1,2.021,2.011Z" transform="translate(-705.743 -253.155)" fill="#ffb6b6"/>
      <path id="Path_14681" data-name="Path 14681" d="M711.222,235.869c.237-.509.695-.408,1.1-.236.507-.113.99-.45,1.537-.25.539.783,2.346.553,1.962,1.828,0,.306.575.128.474.628.3.963-1.1,2.787-1.907,2.4.2-.366.655-1.2-.036-1.278-1.487,1.384-.153-2.635-2.022-1.466C711.707,238.064,710.86,236.436,711.222,235.869Z" transform="translate(-704.594 -235.322)" fill="#2f2e41"/>
      <path id="Path_14682" data-name="Path 14682" d="M754.073,294.936h0a.338.338,0,0,0-.063-.367.477.477,0,0,0-.119-.089l-.017,0a.233.233,0,0,0-.26.107l-.009.015a.232.232,0,0,0-.014.207l.034.082-.216.356a.07.07,0,0,0,.02.094l.047.033a.07.07,0,0,0,.1-.02l.191-.293a.239.239,0,0,0,.061.017h0A.233.233,0,0,0,754.073,294.936Z" transform="translate(-744.107 -290.618)" fill="#fff"/>
      <path id="Path_14683" data-name="Path 14683" d="M758.215,297.9a.051.051,0,0,1-.016-.07l.076-.121a.051.051,0,1,1,.086.054l-.076.121A.051.051,0,0,1,758.215,297.9Z" transform="translate(-748.587 -293.63)" fill="#2f2e41"/>
      <path id="Path_14684" data-name="Path 14684" d="M613.142,476.748l-.945.484a.24.24,0,0,1-.323-.1l-1.225-2.392a.24.24,0,0,1,.1-.323l.945-.484a.24.24,0,0,1,.323.1l1.225,2.392a.24.24,0,0,1-.1.323Z" transform="translate(-610.622 -458.376)" fill="#3f3d56"/>
      <path id="Path_14685" data-name="Path 14685" d="M612.755,475.123l-.105.054a.04.04,0,0,0-.017.054.082.082,0,0,1-.035.109l-.514.263a.081.081,0,0,1-.109-.035.04.04,0,0,0-.054-.017l-.093.047a.182.182,0,0,0-.079.245l1.216,2.375a.182.182,0,0,0,.245.079l.928-.475a.182.182,0,0,0,.079-.245L613,475.2A.182.182,0,0,0,612.755,475.123Z" transform="translate(-611.656 -459.498)" fill="#fff"/>
      <path id="Path_14686" data-name="Path 14686" d="M634.857,481.242a.021.021,0,0,1-.028-.009l-.187-.365a.021.021,0,1,1,.037-.019l.187.365a.021.021,0,0,1-.009.028Z" transform="translate(-633.077 -464.86)" fill="#3f3d56"/>
    </g>
  </g>
</svg>
