<svg xmlns="http://www.w3.org/2000/svg" width="313.017" height="195.363" viewBox="0 0 313.017 195.363">
    <path d="M419.585-2970.773c47.144-17.5 95.06-2.029 127.557 31.672 16.253 16.856 41.438 11.032 67.08 5.208 25.626-5.82 51.708-11.64 69.788 5.178 24.684 22.961 13.377 82-20.468 107.568-46.006 34.755-217.395 35.8-245.831 23.872-48.593-20.38-.31-58.121-22.993-94.3-26.76-42.682 4.035-71.466 24.869-79.2" transform="translate(-384.292 2985.768)" style="fill:#fff"/>
    <path d="M804.619-529.089c-23.6-1.154-103.877.8-128.293 1.563s-52.756-1.006-67.477-3.6-99.817.221-95.955 7.208 37.914 3.126 76.53 5.934 125.463-.351 145.054 0 37.554-.7 62.8-2.107 21.021-8.326 7.342-8.994" transform="translate(-503.957 707.534)" style="fill:#2f2e40"/>
    <path d="M1573.095-3034.962v-20.009l1.481-.483v20.216c-.494.093-.989.186-1.481.275m1.481-47.726-1.481-.571v-5.353h-133.024v5.711a109.636 109.636 0 0 0-6.888-.012v-7.772h141.393v8" transform="translate(-1361.258 3090.686)" style="fill:#cee3ff"/>
    <path d="M1574.576-2900.842h-141.393V-2978a110.763 110.763 0 0 1 6.888.011v72.255h133.023v-24.315c.492-.09.988-.182 1.481-.275v29.48" transform="translate(-1361.258 2985.769)" style="fill:#131f51"/>
    <path d="M3473.525-2954.1v-28.289l1.481.572v27.234l-1.481.483" transform="translate(-3261.688 2989.818)" style="fill:#b6d5ff"/>
    <path d="M1533.636-2982.5h133.024v-77.966h-133.024z" transform="translate(-1454.823 3062.534)" style="fill:#fff"/>
    <path d="M3106.245-2529.051c6.34-6.034 17.174-5.9 16.945 3.292s.531 10.053 3.139 14.873c9.051 16.725-10.789 15.741-19.063 16.29s-7.589-15.04-6.126-23.68 3.25-9.008 5.1-10.774" transform="translate(-2914 2571.416)" style="fill:#303c60"/>
    <path d="M3119.613-1704.556c-2.033 17.067-5.725 29.684-6.137 37.775s-2.057 39.949-2.057 39.949 4.526-.316 4.937-1 8.5-18.651 8.092-29.76 8.082-28 8.082-28l-2.049-16.572-10.868-2.394" transform="translate(-2924.413 1799.607)" style="fill:#131f51"/>
    <path d="m3180.021-1596.209-3.178 1.33c-.864 5.412-1.823 10.278-2.664 14.594 5.058 3.269 7.67 14.164 8.79 20.825.57-7.453 4.087-16.459 6.268-21.439l-9.216-15.31" transform="translate(-2982.869 1698.69)" style="fill:#161f4e"/>
    <path d="M3289.18-1729.649s6.85 8.738 6.635 18.651c-.327 15.09-1.972 19.4.892 35.221 1.118 6.18-2.469 26.4-2.469 26.4s-3.064.24-4.709-.58c.137-1.485-1.98-25.648-6.1-36.755-2-5.379-4.8-20.443-6.312-29.083s-1.783-10.422-1.234-10.422 13.3-3.428 13.3-3.428" transform="translate(-3077.351 1822.979)" style="fill:#131f51"/>
    <path d="M2837.5-2199.448s.3-4.521-.183-5.917-4.694-2.616-4.694-2.616-.183 6.462.244 7.253a24.152 24.152 0 0 0 2.926 3.048l1.707-1.769" transform="translate(-2664.699 2268.511)" style="fill:#ebd3c9"/>
    <path d="M2887.572-2131.582c-9.629 10.366-12.773 14.727-13.5 14.727-2.286-4.035-9.877-12.568-9.877-12.568l-3.237 2.081s7.48 19.545 12.235 19.747 14.417-6.74 14.54-7.537-.156-16.45-.156-16.45" transform="translate(-2691.121 2197.35)" style="fill:#131f51"/>
    <path d="M3102.672-2108.608c4.711-1.918 10.109-5.93 10.2-6.524.122-.8-.156-16.449-.156-16.449-2.1 2.26-3.931 4.264-5.522 6.017-1.725 6.424-1.612 13.419-4.521 16.957" transform="translate(-2916.266 2197.35)" style="fill:#161f4e"/>
    <path d="M3188.264-2231.087s9.215 4.619 11.226 12.8-3.94 18.278-4.672 23.668-17.554 6.339-17.554.569c0-5.532-4.215-17.275-3.977-20.266.559-7.018 10.817-15.615 10.817-15.615l4.159-1.151" transform="translate(-2982.029 2290.032)" style="fill:#131f51"/>
    <path d="m3250.929-2385.554 3.956 12.2a106.188 106.188 0 0 0-11.453 11.1c.28-5.219 4.652-10.907 4.652-10.907l-2.993-11.52 5.837-.874" transform="translate(-3047.374 2433.907)" style="fill:#f0d2c7"/>
    <path d="m3275.327-2379.864-1.845-5.69-5.837.874 2.993 11.52s-.292.465-.723 1.2a14.06 14.06 0 0 0 5.413-7.9" transform="translate(-3069.926 2433.907)" style="fill:#f0d2c7"/>
    <path d="M3169.955-2462.792c-1.067 3.882-5.2 6.02-8.135 5.212s-3.564-4.252-2.5-8.135 4.313-6.375 7.249-5.568 4.451 4.608 3.384 8.49" transform="translate(-2968.579 2513.898)" style="fill:#f0d2c7"/>
    <path d="M3173.482-1883.41c1.281 8.118-3.476 25.485-3.476 25.485s2.837.645 11.34-.178 12.252-9.31 13.531-9.546 1.938 7.9 2.568 8.541.728-10.272-.923-14.564c-2.926-7.606-2.353-10.833-1.26-15.441 1.945-8.2-21.781 5.7-21.781 5.7" transform="translate(-2978.982 1973.917)" style="fill:#131f51"/>
    <path d="M2988.935-629.358c.766 3.111-.746 5.579-2.769 7.378-1.646 1.463-6.7 2.085-6.462 2.816s6.217.963 8.229.658 2.56-1.28 5.063-1.279c1.642 0 1.947-1.334 1.215-2.983s-.987-2.562-.326-4.041-4.95-2.549-4.95-2.549" transform="translate(-2801.722 798.139)" style="fill:#395a95"/>
    <path d="M3475.158-660.113c-.123 3.23-.5 5.637.3 7.134 3.06 2.56 5.6 5.469 4.632 5.669-4.632.957-6.4-1.819-9.021-2.609-3.216-.969.3-5.01-.955-10.194-.7-2.883 4.856-2.192 4.856-2.192l.192 2.192" transform="translate(-3258.095 828.893)" style="fill:#405991"/>
    <path d="M3272.585-2120.076a15.239 15.239 0 0 0-.691-2.649c-2.926-7.606-2.354-10.833-1.26-15.441a3.579 3.579 0 0 0 .111-.963 45.53 45.53 0 0 0 .679-2.492l-.993-8.964-7.16-8.5c-5.366 7.863-1.744 17.646-2.55 23.041s-9.8 12.272-9.8 12.272l.292 1.914a4.861 4.861 0 0 0 5.466 4.084c3.706-.515 8.567-1.548 10.73-3.555 2.093-1.943 3.947-.44 5.171 1.255" transform="translate(-3054.352 2222.97)" style="fill:#161f4e"/>
    <path d="M3189.476-1648.622s-3.969 1.111-4.443 1.359-.737 1.561-.737 1.561-2.272 1.973-1.4 2.671 2.425 2.467 4.48 1.644c1.26-.5 2.239-5.139 3.065-5.177s-.964-2.058-.964-2.058" transform="translate(-2990.802 1747.509)" style="fill:#ebd3c9"/>
    <path d="M3279.841-2174.241c4.248.121 8.1 7.771 9.442 14.409s2.754 16.076 2.754 16.076-7.04 5.556-14 7.18c-6.069 1.417-9.167 1.971-9.167 1.971l-1.23-3.464 14.52-8.528s-5.339-10.057-5.87-17.646.319-10.088 3.547-10" transform="translate(-3069.926 2237.086)" style="fill:#131f51"/>
    <path d="m2707.091-2223.455-10.589 2.125-1.349-6.725 10.59-2.126 1.348 6.726" transform="translate(-2536.692 2289.188)" style="fill:#131f51"/>
    <path d="M2835.439-2180.772c.145-2.781-1.233-6.575-2.025-6.569s.243 2.486-.183 4.132c-.231.891 2.208 2.437 2.208 2.437" transform="translate(-2665.184 2249.286)" style="fill:#ebd3c9"/>
    <path d="M3177.272-2484.154c.236 7.62 9.135 7.036 11.573 6.566s-2.969 16.074 1.676 17.029c3.41.7 2.642-4.634 6.431-4.277 1.676.157 3.36 2.749 3.36 2.749a5.17 5.17 0 0 0-1.532-2.749c-1.28-1.153-4.636-8.223-5.518-13.283s-6.856-8.331-8.623-8.432-6.1 1.91-6.1 1.91l-1.272.487" transform="translate(-2985.75 2527.981)" style="fill:#303c60"/>
    <path d="M3333.487-2340.065a1.73 1.73 0 0 1-.367-.04c-1.487-.316-2.208-1.879-2.269-4.916a70.719 70.719 0 0 1 .833-9.483c.185-1.429.375-2.907.532-4.339a.221.221 0 0 1 .245-.2.222.222 0 0 1 .2.246c-.158 1.435-.349 2.916-.532 4.346-.882 6.845-1.715 13.311 1.085 13.908a1.245 1.245 0 0 0 .261.027c1.608 0 3.057-3.134 3.9-6.188a.223.223 0 0 1 .274-.154.223.223 0 0 1 .156.273c-.558 2.015-2.057 6.516-4.316 6.516" transform="translate(-3128.794 2409.212)" style="fill:#303c60"/>
    <path d="M3324.407-2338.292a1.759 1.759 0 0 1-1.317-.585c-3.034-3.208-.034-19.3.095-19.98a.223.223 0 0 1 .261-.177.223.223 0 0 1 .177.26c-.031.166-3.087 16.549-.209 19.592a1.331 1.331 0 0 0 1.211.431c1.575-.208 2.484-2.346 3.287-4.231.778-1.83 1.511-3.558 2.814-3.512a.223.223 0 0 1 .215.231.22.22 0 0 1-.23.215h-.032c-.978 0-1.648 1.575-2.357 3.241-.849 2-1.812 4.258-3.639 4.5a2.177 2.177 0 0 1-.276.018" transform="translate(-3120.31 2409.21)" style="fill:#303c60"/>
    <path d="M3315.374-2368.424a1.66 1.66 0 0 1-2.2.641 1.66 1.66 0 0 1 .077-2.286 1.658 1.658 0 0 1 2.194-.641 1.66 1.66 0 0 1-.076 2.286" transform="translate(-3111.948 2420.282)" style="fill:#ebd3c9"/>
    <path d="M2124.6-1990.308a7.967 7.967 0 0 1-3.9 11.115c-4.3 1.78-9 .769-11.176-3.576a8.617 8.617 0 0 1 3.6-11.635 8.618 8.618 0 0 1 11.472 4.1" transform="translate(-1990.317 2070.379)" style="fill:#303c60"/>
    <path d="M2106.623-1914.843a4.064 4.064 0 0 1-2.626-1.236 6.7 6.7 0 0 1-1.993-3.776 13.133 13.133 0 0 1 .731-6.731.223.223 0 0 1 .284-.137.222.222 0 0 1 .137.283 12.7 12.7 0 0 0-.715 6.5 6.274 6.274 0 0 0 1.851 3.528c1.524 1.352 2.545 1.106 2.556 1.1a.223.223 0 0 1 .272.156.221.221 0 0 1-.153.272 1.322 1.322 0 0 1-.345.037" transform="translate(-1984.056 2006.55)" style="fill:#303c60"/>
    <path d="M2251.24-1676.463c2.473.554 5.594 7.425 7.123 11.827 1.542 4.44 4.155 9.948 5.867 11.658s12.956 5.678 12.956 5.678-27.784.054-27.216 0 1.269-29.164 1.269-29.164" transform="translate(-2122.028 1773.44)" style="fill:#131f51"/>
    <path d="M2281.1-1649.5c-1.52-.218-7.008.489-4.672-.489s2.01-2.228 2.01-2.228-3.314 2.77-3.911.347c-.515-2.088-.713-9.464-2.669-16.857-1.616-3.665-3.73-7.333-5.508-7.731 0 0-.062 2.6-.166 6.253.682 8.076 1.84 19.942 2.134 22.934 3.683.006 9.846 0 15-.007l3.429-.164a36.8 36.8 0 0 0-5.65-2.058" transform="translate(-2137.135 1773.439)" style="fill:#161f4e"/>
    <path d="M2000.14-1698.662s-7.866 4.394-9.7 5.33 5.136 28.368 6.687 29.544 15.2.2 16.751-1.279-1.192-6.027.153-15.129-4.1-16.96-4.8-16.943a47.118 47.118 0 0 1-5.265-1.522h-3.825" transform="translate(-1880.02 1794.117)" style="fill:#131f51"/>
    <path d="M1997.465-1585.959c1.55 1.176 11.315 1.2 15.473-.092.469-.146 2.6-.995 2.648-1.793-.5-.094-2.493.146-3.3-.041-2.812-.646-4.36-4.128-4.36-4.128s-1.548-.558-5.011-2.024-2.037-5.908-2.118-7.864-3.423-8.353-9.7-13.2l-.575.258c-.448 4.458 5.508 27.8 6.943 28.886" transform="translate(-1880.357 1716.287)" style="fill:#161f4e"/>
    <path d="M2505.719-1503.983h-18.939l-8.626 18.355h20.863l7.808-16.616a1.221 1.221 0 0 0-1.105-1.74" transform="translate(-2334.572 1612.788)" style="fill:#75a1de"/>
    <path d="M2322.431-1486.445h-11.4a1.28 1.28 0 0 1-1.28-1.28 1.28 1.28 0 0 1 1.28-1.28h10.58l7.153-15.394a1.28 1.28 0 0 1 1.7-.622 1.279 1.279 0 0 1 .621 1.7l-7.5 16.136a1.279 1.279 0 0 1-1.16.74" transform="translate(-2177.72 1613.866)" style="fill:#3e6bab"/>
    <path d="M2187.683-1289.677c4.945.923 6.16 2.058 8.855 2.493 3.055.493 2.692 1.168.423 1.168s-7.971.089-9.927-.347.65-3.314.65-3.314" transform="translate(-2062.736 1413.177)" style="fill:#ebd3c8"/>
    <path d="M1871.532-1619.912c-3.789 12.115-9.161 25.861-8.3 25.861s22.613.88 23.468.147.611-3.544.489-3.91-12.37-2.54-12.37-2.54a28.208 28.208 0 0 0 2.225-9.286c.611-6.142-4.789-12.57-5.508-10.272" transform="translate(-1761.728 1721.211)" style="fill:#131f51"/>
    <path d="m2136.58-1852.182-3.052 11.154s5.157 8.051 6.575 7.335-.792-6.543-.792-7.335 2.211-8.964 2.211-8.964l-4.941-2.19" transform="translate(-2013.578 1937.11)" style="fill:#ebd3c9"/>
    <path d="M2167.148-1840.46a2.978 2.978 0 0 1-.106-.569c0-.792 2.211-8.964 2.211-8.964l-4.941-2.19-1.01 3.691a19.253 19.253 0 0 0 3.846 8.031" transform="translate(-2041.31 1937.11)" style="fill:#ebd3c9"/>
    <path d="M2195.39-1922.427c.582 3.234.2 7.53-2.673 8.622s-6.332-1-7.728-4.667-.2-7.53 2.674-8.623a6.056 6.056 0 0 1 7.727 4.667" transform="translate(-2060.968 2007.17)" style="fill:#ebd3c9"/>
    <path d="M2159.546-1849.791a1.955 1.955 0 0 1-.781 2.585c-.834.3-1.837-.38-2.24-1.51a1.955 1.955 0 0 1 .781-2.585c.834-.3 1.837.379 2.239 1.51" transform="translate(-2034.844 1936.355)" style="fill:#ebd3c8"/>
    <path d="M2166.525-1948.872c-.979 7.59-10.2 6.611-10.2 6.611s-1.9-2.5-2.757-1.188 1.187-7.695 6.478-7.978c1.739-.093 6.479 2.555 6.479 2.555" transform="translate(-2032.07 2029.552)" style="fill:#303c60"/>
    <path d="M2072.717-2024.576a4.847 4.847 0 0 1-4.995 4.686 4.847 4.847 0 0 1-4.994-4.686 4.848 4.848 0 0 1 4.994-4.686 4.848 4.848 0 0 1 4.995 4.686" transform="translate(-1947.634 2102.046)" style="fill:#303c60"/>
    <path d="M1990.488-896.189h1.142l7.37-34.169h-2.512l-6 34.168" transform="translate(-1880.347 1078.497)" style="fill:#2e5b9a"/>
    <path d="M2376.2-912.595h-1.142l-8.582-35.376h2.512l7.212 35.376" transform="translate(-2230.551 1094.903)" style="fill:#2e5b9a"/>
    <path d="M2012.281-1209.988c-4.575 0-7.474-.821-9.323-2.623-2.292-2.234-2.767-5.693-2.774-10.2-.006-3.547-.09-5.858-.281-7.726a1.28 1.28 0 0 1 1.142-1.4 1.28 1.28 0 0 1 1.4 1.142c.2 1.958.29 4.346.3 7.984.007 4.569.587 6.995 2 8.371 1.451 1.413 4.073 2 8.5 1.885a50.327 50.327 0 0 0 9.584-1.185c3.111-.632 5.359-1.089 8.024.185a1.281 1.281 0 0 1 .6 1.707 1.28 1.28 0 0 1-1.707.6c-1.892-.9-3.5-.577-6.41.015a52.554 52.554 0 0 1-10.031 1.235q-.527.012-1.028.013" transform="translate(-1889.11 1359.408)" style="fill:#2e5b9a"/>
    <path d="m2028.928-1234.157 7 .292-1.865 19.334s-5.22-3.332-5.139-6.918 0-12.708 0-12.708" transform="translate(-1916.151 1361.464)" style="fill:#2e5b9a"/>
    <path d="M2519.8-1212.917c5.921-.9 7.933-.615 11.558 6.129s8.447 18.887 11.221 20.456c4.177 2.362 5.562 8.152 7.277 7.892s2.82.5.953 2.049-4.88 2.872-5.911 2.6-1.831-4.729-4.522-6.174-1.882-2.634-1.706-3.913-7.857-7.167-13.915-14.491c-3.7-4.475-5.606-7.428-5.889-10.106a7.02 7.02 0 0 1 .934-4.439" transform="translate(-2372.456 1342.025)" style="fill:#e4d5cb"/>
    <path d="M2534.483-1188.458a135.211 135.211 0 0 1-4.051-14.526c-1.844-7.508-3.777-9.29-5-10.091a14.831 14.831 0 0 0-5.626.162 7.02 7.02 0 0 0-.934 4.439c.282 2.677 2.188 5.63 5.889 10.106a106.345 106.345 0 0 0 9.725 9.911" transform="translate(-2372.456 1342.022)" style="fill:#ebd3c9"/>
    <path d="M2481.411-1206.984s-1.575 11.888-3.043 13.1c-1.049.864-1.792.922-2.526-2.624s1.141-16.778 1.141-16.778l4.428 6.306" transform="translate(-2332.261 1342.028)" style="fill:#2e5b9a"/>
    <path d="m2343-1171.9-14.581 2.45 8.232-11.8 6.265-1.275 3.757.864-3.673 9.761" transform="translate(-2195.107 1313.378)" style="fill:#ebd3c9"/>
    <path d="M2804.2-784.465c-.473 1.906-.416 3.313.406 4.019s3.924 5.949 3.924 5.949l.967-.147-2.239-4.8-3.058-5.023" transform="translate(-2637.98 942.609)" style="fill:#2e5b9a"/>
    <path d="M2811.062-775.582c1.03.275 4.045-1.046 5.911-2.6s.763-2.31-.953-2.049a.743.743 0 0 1-.287-.015c-.856 1.914-3.675 3.349-4.583 1.328a23.144 23.144 0 0 0-6.317-6.844.361.361 0 0 1 0 .089c-.176 1.279-.986 2.467 1.706 3.913s3.492 5.9 4.522 6.174" transform="translate(-2638.616 943.813)" style="fill:#2e5b9a"/>
    <path d="M2065.221-1207.843c-5.173 9.284-1.64 15.184 4.648 15.785s16.213-.547 22-5.355 10.535-9.892 9.873-10.65-36.52.219-36.52.219" transform="translate(-1947.635 1337.427)" style="fill:#ebd3c9"/>
    <path d="M2511.281-1176.845c1.059-3.178 2.28-5.616 4.644-5.661 2.486-.046 4.016 1.247 4.122 5.314.126 4.843.3 20.882.073 28.013-.169 5.4 1.4 7.127 1.271 12.755-.1 4.239 4.419 2.1 2.674 4.3-1.2 1.511-4.774 1.017-6.968.738-1.956-.249 1.013-6.109-1.694-7.677-2.323-1.344-2.368-3.527-.9-5.179s.163-6.542-.814-9.965a75.482 75.482 0 0 1-3.491-15.218 19.371 19.371 0 0 1 1.085-7.416" transform="translate(-2364.357 1313.356)" style="fill:#e7d4ca"/>
    <path d="M2568.384-615.685a10.235 10.235 0 0 1-2.476.507c-1.63.054-2.119-1.739-2.227-4.174a11.673 11.673 0 0 0-3.223-6.833c-.03.038-.059.077-.091.112-1.467 1.652-1.421 3.836.9 5.18 2.706 1.567-.261 7.428 1.694 7.676 2.194.279 5.768.774 6.968-.738 1.135-1.429-.273-1.542-1.546-1.731" transform="translate(-2410.222 795.183)" style="fill:#2e5b9a"/>
    <path d="M2549.669-633.385s-2.377 2.482-2.159 3.515a39.469 39.469 0 0 1 1.073 5.65c.123 2.01.231 4.317.231 4.317s.855 0 .923-.243.544-8.17.544-8.17l-.612-5.069" transform="translate(-2399.159 801.889)" style="fill:#2e5b9a"/>
    <path d="M2047.074-1213.29s-3.068 13.022.808 16.632 19.976.363 23.767.146c2.568-.146 5.053 2.987 5.053 2.987s-1.793-7.266-.57-13.133 3.2-6.262 3.2-6.262l-2.625-.37h-29.628" transform="translate(-1931.98 1342.028)" style="fill:#75a1de"/>
    <path d="M2043.556-1262.943c1.312 2.784-1.412 7.592-.458 8.978s6.422.194 10-2.689 10.362-3.517 10.362-3.517l-19.908-2.771" transform="translate(-1929.156 1388.277)" style="fill:#131f51"/>
    <path d="M2080.582-967.055c10.838.407 22.247.215 22.247-1.4s-.49-2.756-8.883-2.1-14.1 1.549-16.624.978 3.259 2.526 3.259 2.526" transform="translate(-1960.632 1116.116)" style="fill:#2e5b9a"/>
    <path d="M1728.765-1233.353h-152.709a1.18 1.18 0 0 1-1.18-1.181v-.59a1.18 1.18 0 0 1 1.18-1.18h152.708a1.18 1.18 0 0 1 1.18 1.18v.59a1.18 1.18 0 0 1-1.18 1.181" transform="translate(-1493.235 1363.464)" style="fill:#2e5b9a"/>
    <path d="M3971.32-1886.43a7.021 7.021 0 0 1-4.34 8.318c-2.824.8-4.84-1.715-5.891-5.417s.39-7.352 3.214-8.154 5.967 1.55 7.018 5.252" transform="translate(-3715.498 1974.047)" style="fill:#97646b"/>
    <path d="M3839.527-766.9s7.241 11.246 8.218 11.734 3.423.612 2.506 2.445-1.284 9.045-2.14 9.412-8.189 1.222-7.089 0 1.777-.611 2.333-2.811 1.334-6.356.3-7.211-7.4-8.557-7.4-8.557l3.271-5.011" transform="translate(-3599.546 926.253)" style="fill:#97646b"/>
    <path d="M3152.443-696.478s-8.8 14.505-10.431 15.809-7.008 3.26-2.608 3.586 6.52-1.467 9.29-2.282 6.194-1.3 4.89-3.422-.763-6.744 2.048-9.678-3.189-4.013-3.189-4.013" transform="translate(-2948.902 860.656)" style="fill:#97646b"/>
    <path d="M3346.7-1187.145s-21.787-.57-30.425 6.519c-5.053 7.661-17.276 30.262-18.226 32.753a12.233 12.233 0 0 0 5.949 1.665c4.808-5.733 11.163-10.689 13.69-15.186 3.114-5.542 4.074-8.312 9.127-8.8s16.461-2.118 19.884-2.118 0-14.832 0-14.832" transform="translate(-3098.242 1317.686)" style="fill:#131f51"/>
    <path d="M4157.841-877.176h-1.141l-8.189-34.168h2.512l6.819 34.168" transform="translate(-3890.387 1060.788)" style="fill:#2e5b9a"/>
    <path d="M3785.684-893.581h1.143l9.4-35.376h-2.512l-8.027 35.376" transform="translate(-3552.442 1077.193)" style="fill:#2e5b9a"/>
    <path d="m3606.667-1208.757-12.667 2.186s-16.833.155-24.526 1.588c-7 1.3-8.032 9.257 0 20.21 4.562 6.222 8.42 11.185 16.308 16.78 2.007-1.473 2.774-2.031 3.329-5.576-.572-.782-2.049-5.682-2.508-6.641-4.363-9.121-10.187-12.438-10.268-13.335.978-1.589 25.9 8.283 30.858 2.476 4.731-5.544-.527-17.688-.527-17.688" transform="translate(-3345.802 1337.806)" style="fill:#131f51"/>
    <path d="M3976.668-1628.905a13.25 13.25 0 0 0-9.912 2.466 19.931 19.931 0 0 0-5.726 15.2c.244 9.779-1.513 10.406.32 13.1 7.647 3.158 20.725 16.725 17.646 2.18-2.231-10.532 4.891-18.382-.854-30.065-.469-.951-1.053-1.873-1.475-2.874" transform="translate(-3715.275 1729.278)" style="fill:#131f51"/>
    <path d="M3961.028-1574.378c-.148 5.1-.868 6.6-.318 8.2 3.117.318 8.82 1.566 10.245 3.561 1.63 2.281 3.259 2.608 2.5.923s-2.771-4.075.326-12.278 4.563-13.745 1.52-19.449l-14.273 19.045" transform="translate(-3715.276 1696.094)" style="fill:#131f51"/>
    <path d="M4061.568-1767.215a39.8 39.8 0 0 1-2.559-10.327l-5.378 1.589s3.056 6.844.123 9.289a27.9 27.9 0 0 0-2.1 1.915 13.253 13.253 0 0 1 9.912-2.466" transform="translate(-3800.175 1867.588)" style="fill:#97646b"/>
    <path d="m4086.108-1772.348-1.136-1.008-4.387 1.3-.009.024a17.915 17.915 0 0 1 1.37 5.358 15.478 15.478 0 0 0 4.375-4.346 42.82 42.82 0 0 1-.214-1.325" transform="translate(-3827.113 1863.689)" style="fill:#90666b"/>
    <path d="M3697.25-1606.741c-5.538 1.937-4.924 7.773-10.022 16.38-2.639 4.454-5.089 4.387-5.089 4.387a117.989 117.989 0 0 1-13.672-.865c-4.687-.573-4.983.822-1.724 1.987 6.574 2.35 13.4 4.88 18.9 4.269s14.908-14.646 15.394-18.3c.67-5.052-.992-8.835-3.782-7.859" transform="translate(-3439.638 1708.643)" style="fill:#f09959"/>
    <path d="M3836.913-1390.111q-.515 0-1.057-.014a52.566 52.566 0 0 1-10.032-1.235c-2.913-.592-4.519-.918-6.41-.014a1.279 1.279 0 0 1-1.706-.6 1.28 1.28 0 0 1 .6-1.707c2.666-1.274 4.914-.817 8.024-.185a50.3 50.3 0 0 0 9.584 1.185c4.815.119 7.761-.6 9.266-2.272 1.344-1.49 1.74-3.974 1.246-7.819-.167-1.3-.335-2.384-.482-3.339a22.972 22.972 0 0 1-.35-7.18c.315-2.545 1.16-5.939 3.115-12.524a1.28 1.28 0 0 1 1.591-.862 1.28 1.28 0 0 1 .863 1.591c-3.658 12.318-3.473 13.521-2.689 18.584.15.97.32 2.07.491 3.4.6 4.64 0 7.773-1.883 9.86-1.939 2.151-5.1 3.131-10.174 3.131" transform="translate(-3582.153 1540.835)" style="fill:#2e5b9a"/>
    <path d="M3153.039-518.185c-5.839 2.855-8.982 4.493-10.854 4.337a15.695 15.695 0 0 1-1.115-.13c-2.083 1.231-5.407 2.685-1.667 2.962 4.4.326 6.52-1.466 9.29-2.282s6.194-1.3 4.89-3.422a4.468 4.468 0 0 1-.543-1.465" transform="translate(-2948.9 694.589)" style="fill:#7ea0d9"/>
    <path d="M3911.6-592.305c-.144 4.624-.779 9.205-3.607 10.071a4.751 4.751 0 0 1-2.038.182c-.444.55-.987.556-1.716 1.365-1.1 1.222 6.235.367 7.089 0s1.223-7.579 2.139-9.412c.754-1.506-.762-1.858-1.868-2.206" transform="translate(-3662.764 763.626)" style="fill:#7ea0d9"/>
    <path d="M3313.842-1486.445h-18.552a1.278 1.278 0 0 1-1.16-.74l-7.5-16.136a1.279 1.279 0 0 1 .621-1.7 1.28 1.28 0 0 1 1.7.622l7.152 15.394h17.735a1.28 1.28 0 0 1 1.281 1.28 1.28 1.28 0 0 1-1.281 1.28" transform="translate(-3087.5 1613.866)" style="fill:#75a1de"/>
    <path d="M3517.592-1339.17c-3.749-.054-7.466-2.288-9.313-1.962s-7.877 4.509-7.117 4.672 5.541-2.315 5.7-2.353a8.026 8.026 0 0 0 3.749 2.361c2.553.645.018-1.914 7.933.477 5.146 1.554-.957-3.195-.957-3.195" transform="translate(-3287.368 1461.134)" style="fill:#90666b"/>
    <path d="m4015.8-1691.662.551 4.438s-4.851.288-7.265 1.647-5.976 5.282-5.976 5.282l2.91-5.01.418-3.206 9.361-3.151" transform="translate(-3754.958 1787.597)" style="fill:#f2e5de"/>
    <path d="M3774.248-1613.644c-3.6-.676-5.27 2.553-7.606 7.823a75.736 75.736 0 0 1-7.117 12.5c-.793.825-13.364 0-13.364 0s-.38 3.64 0 4.074 2.553.38 2.553.38.87.694 1.684 1.243 7.715 1.582 10.92 1.419 6.138-.435 6.573-.924 9.182-13.961 9.726-18.8-1.53-7.369-3.368-7.714" transform="translate(-3515.471 1715.012)" style="fill:#f2e5de"/>
    <path d="M3924.241-1969.053c-6.814.326-5.746 10.578-5.746 10.578a13.245 13.245 0 0 0 5.478-.065 20.436 20.436 0 0 1-.163-3.911 25.623 25.623 0 0 0 .978 3.667c.784.359 1.67.04 3.178-.324a6.707 6.707 0 0 0 4.46 5.1c1.655.521 3.407 1.14 5.362.163s.881-10.974-.158-12.984c-1.559-3.018-4.15-5.718-8.632-4.293a33.385 33.385 0 0 0-4.757 2.064" transform="translate(-3676.089 2048.254)" style="fill:#303c60"/>
    <path d="m4175.923-1768.1 2.786 4.07s-3.087 7.715 5.892 11.209c7.033 2.737 6.2 7.561 3.026 12.411s1.9 9.086 1.9 9.086.774-5.373 7.607-6.387c9.318-1.382 11.956-13.892 5-20.146-5.76-5.176-7.511-.89-11.41-5.534s-11.256-1.508-11.256-1.508l-2.7-3.933-.848.733" transform="translate(-3915.921 1859.478)" style="fill:#303c60"/>
    <path d="M4250.452-1715.579a.229.229 0 0 1-.107-.027.223.223 0 0 1-.087-.3c2.348-4.292.431-9.491-.533-10.9-.1-.149-.2-.3-.3-.459-.947-1.479-2.125-3.32-8.409-4.451a9.958 9.958 0 0 1-4.02-2.117c-2.68-1.968-5.72-4.2-12.321-1.16a.224.224 0 0 1-.3-.109.223.223 0 0 1 .11-.3c6.84-3.148 9.991-.835 12.77 1.206a9.663 9.663 0 0 0 3.834 2.037c6.475 1.166 7.712 3.1 8.707 4.648.1.156.195.3.293.447a12.082 12.082 0 0 1 1.591 4.622 10.842 10.842 0 0 1-1.037 6.744.223.223 0 0 1-.2.116" transform="translate(-3961.035 1829.774)" style="fill:#303c60"/>
    <path d="M4055.669-1828.676a9.765 9.765 0 0 1-1.443-.116c-2.375-.355-5.561-1.706-5.812-9.3a.222.222 0 0 1 .215-.23.22.22 0 0 1 .23.216c.1 3.142.728 5.467 1.854 6.911a5.219 5.219 0 0 0 3.579 1.958c2.217.333 3.688-.079 4.372-1.222a.223.223 0 0 1 .305-.077.222.222 0 0 1 .077.305 3.612 3.612 0 0 1-3.376 1.551" transform="translate(-3797.155 1924.197)" style="fill:#303c60"/>
    <path d="M823.3-1619.17c-7.909 4.523-18.91 23.322-16.588 26.39s14.79-5 14.79-5l1.8-21.391" transform="translate(-777.453 1720.076)" style="fill:#293052"/>
    <path d="M1068.668-1959.388c-3.02-.082-1.9-2.327-5.372-1.431-1.826.472-.478 1.223-2.85.978s-3.539-.489-3.838 1.059-.444 2.038-1.584 2.282-1.656 2.282 0 3.667.851 1.956.484 3.1.883 1.222 1.562 2.281-.625 1.26.353 2.179a3.465 3.465 0 0 0 2.349.836l4.117-7.893 4.779-7.056" transform="translate(-1008.044 2038.494)" style="fill:#303c60"/>
    <path d="M2097.141-600.74a23.276 23.276 0 0 0 7.823-1.222c3.423-1.345 5.745-3.422 5.134-.978s-3.422 6.639-5.867 7.047-3.3 3.1-4.645 3.1-3.3-3.1-6.723-4.646c-3.12-1.411 4.278-3.3 4.278-3.3" transform="translate(-1974.987 774.586)" style="fill:#2e5b9a"/>
    <path d="M1585.234-601.15a16.94 16.94 0 0 0 5.072 4.327c3.326 1.833 7.165 2.715 4.785 3.545a15.6 15.6 0 0 1-9.252.488c-2.381-.691-5.171-.836-5.908-1.96s.868-3.949.2-8.169c-.535-3.382 5.1 1.769 5.1 1.769" transform="translate(-1497.758 774.584)" style="fill:#2e5b9a"/>
    <path d="M1272.552-1159.7s25.49 9.544 27.544 12.213 28.847 26.974 28.847 28.766-4.563 5.053-4.563 5.053-22.98-14.1-28.684-21.269-19.627-10.629-27.028-11.293 3.885-13.47 3.885-13.47" transform="translate(-1205.68 1292.116)" style="fill:#131f51"/>
    <path d="M1090.258-1163.639s17.439-.652 21.188 0 11.971.645 6.593 15.823c-4.216 11.9-5.606 26.959-5.606 26.959l-8.382 2.059s.333-27.084 4.332-34.3a134.413 134.413 0 0 0-15.667 3.536c-13.745 3.93-21.281 1.962-21.281 1.962l-2.046-7.172 20.87-8.872" transform="translate(-1022.409 1296.052)" style="fill:#131f51"/>
    <path d="m1103.493-1816.316-4.261 12.59 5.383 3.545 3.051-10.878-4.173-5.256" transform="translate(-1050.207 1903.703)" style="fill:#a86b48"/>
    <path d="m1141.8-1801.9 2.569-9.161-4.173-5.256-1.559 4.605a26.216 26.216 0 0 0 3.162 9.812" transform="translate(-1086.914 1903.703)" style="fill:#7a4e34"/>
    <path d="M1172.241-1872.567c.138 3.829-1.743 7.143-4.732 7.438s-5.718-2.557-6.094-6.371 1.743-7.143 4.732-7.438 5.876.328 6.094 6.371" transform="translate(-1108.086 1962.086)" style="fill:#a86b48"/>
    <path d="M971.379-1638.062c-13.079 8.833-4.944 23.107-2.072 33.538 2.446 8.884 2.367 14.254 2.733 14.254s9.362-1.345 14.5-5.99a78.629 78.629 0 0 0 8.6-9.144s-6.577-1.171-8.727-9.68c-1.091-4.319-.595-6.664-3.083-13.51s-11.952-9.469-11.952-9.469" transform="translate(-924.401 1737.673)" style="fill:#273055"/>
    <path d="m1069.388-1684.622 1.4-3.427s4.441 2.934 6.214 4.319a10 10 0 0 0 2.865 1.712s.641 4.914.225 4.467a25.173 25.173 0 0 0-10.705-7.071" transform="translate(-1022.409 1784.232)" style="fill:#a2dff2"/>
    <path d="M984.854-877.176H986l8.19-34.168h-2.512l-6.819 34.168" transform="translate(-943.672 1060.788)" style="fill:#2e5b9a"/>
    <path d="M1340.591-893.581h-1.142l-9.4-35.376h2.512l8.026 35.376" transform="translate(-1265.2 1077.193)" style="fill:#2e5b9a"/>
    <path d="M960.914-1325.475c-4.575 0-7.473-.821-9.323-2.623-2.293-2.234-2.767-5.693-2.774-10.2-.015-9.477-.539-11.436-3.206-17.223a1.28 1.28 0 0 1 .626-1.7 1.28 1.28 0 0 1 1.7.627c2.82 6.116 3.427 8.365 3.442 18.291.007 4.568.587 6.994 2 8.37 1.45 1.413 4.072 2 8.5 1.885a50.316 50.316 0 0 0 9.585-1.185c3.11-.632 5.359-1.089 8.024.185a1.279 1.279 0 0 1 .6 1.707 1.279 1.279 0 0 1-1.706.6c-1.892-.9-3.5-.578-6.41.014a52.53 52.53 0 0 1-10.031 1.235c-.351.009-.694.013-1.028.013" transform="translate(-907.011 1476.199)" style="fill:#2e5b9a"/>
    <path d="M1725.162-1488.6h-18.553a1.28 1.28 0 0 1-1.28-1.28 1.28 1.28 0 0 1 1.28-1.28h17.736l7.153-15.394a1.28 1.28 0 0 1 1.7-.622 1.28 1.28 0 0 1 .622 1.7l-7.5 16.135a1.28 1.28 0 0 1-1.16.741" transform="translate(-1614.742 1615.876)" style="fill:#3e6bab"/>
    <path d="M1076.451-1617.726s3.26 9.942 7.294 14.057 12.152 5.5 14.693 5.337c-2.026-.815-5.885-3.133-7.437-9.276-1.091-4.319-.6-6.664-3.083-13.51-1.847-5.081-7.537-7.836-10.347-8.919 3.508 2.52 7.893 6.668 9.241 9.825 1.5 3.5-10.361 2.485-10.361 2.485" transform="translate(-1028.988 1730.197)" style="fill:#293052"/>
    <path d="M1703.46-1355.043s5.622-2.567 6.234-2.323 6.844 4.009 6.844 4.633-5.5-2.324-5.5-2.324a4.269 4.269 0 0 1 .245 2.411c-.366.781-4.595.781-8.409.537s.587-2.934.587-2.934" transform="translate(-1611.006 1476.24)" style="fill:#a86b48"/>
    <path d="M1066.487-1570.478c-5.183 10.623 12.6 21.392 23.144 22.349s23.08-2.494 23.08-2.494l-1.413-3.449s-21.132-2.758-21.667-3.144-21.246-17.152-23.144-13.262" transform="translate(-1018.844 1675.268)" style="fill:#293052"/>
    <path d="M1129.423-1834.767c.48 1.263.128 2.569-.787 2.917s-2.046-.394-2.527-1.658-.128-2.569.787-2.917 2.046.394 2.526 1.658" transform="translate(-1075.041 1922.513)" style="fill:#a86b48"/>
    <path d="M1160.663-1945.579c1.432-.6 3.045-1.238 2.546 1.195-.217 1.06 0 .761.38 1.739s-.958 1.745-1.392 2.288.632 1.134-.237 1.786-2.015-.241-2.825 0c-2.418.721-2.119-1.18-3.477-1.575s-2.024-.334-2.282.535.951 3.729-.082 3.458-1.265 2.037-1.542 3.342-.986-.9-.94-2.392c.07-2.288-.5-3.248-1.34-3.888s-1.2-6.459 2.873-6.677a20.169 20.169 0 0 0 5.839-.978c1.738-.368 1.827 1.441 2.479 1.168" transform="translate(-1096.5 2025.236)" style="fill:#303c60"/>
    <path d="M4614.474-959.864c2.6 2.372 1.468 4.744-.453 9.15s-2.259 20.672-2.259 20.672l1.582-.226s-.227-16.718 1.919-21.236 3.051-6.777 4.971-5.308-5.76-3.05-5.76-3.05" transform="translate(-4321.873 1105.981)" style="fill:#161f4e"/>
    <path d="M4628.59-1104.218c.315-1.406 2.188-2.927 4.694-4.218-.372 2.074-1.566 5.464-.33 6.16 1.667.937.162-3.8.806-6.4a30.94 30.94 0 0 1 7.789-2.556l-.011.029c-1.469 3.728-3.388 5.2-2.6 5.76.594.425 2.531-3.88 5.091-6.087a6.883 6.883 0 0 1 4.5.919c1.485 1.176 2.483 2.219.99 5.8a6.73 6.73 0 0 1-3.244 1.176c-3.389.339-4.971.452-2.6 1.582 1.162.553 3.108-.031 4.688-.388a60.27 60.27 0 0 1-1.906 3.228 12.034 12.034 0 0 1-1.588 2.021 5.011 5.011 0 0 1-2.549 0c-1.581-.677-5.647-2.824-6.665-1.92-.994.884 7.532 1.445 6.941 3.692-4.134 2.381-8.863 1.248-9.7-.938-1.122-2.936-5.267-3.627-4.317-7.858" transform="translate(-4337.417 1247.263)" style="fill:#161f4e"/>
    <path d="M4581.412-790.067c-4.519-3.389-9.15-.227-11.522 3.388s-.678 11.747-.678 11.747.9 0 .9-.338-2.485-9.6 3.389-13.781c3.675-2.614 6.326-1.355 6.665-.112s-1.469 3.5-1.469 3.5l2.712-4.405" transform="translate(-4281.694 949.173)" style="fill:#161f4e"/>
    <path d="M4600.809-872.011c4.519 0 5.987 7 4.744 11.069s-2.937 11.634-2.937 11.634l-1.129-1.129s4.292-10.618 3.276-15.362-3.5-5.535-3.954-5.535 0-.678 0-.678" transform="translate(-4311.484 1024.152)" style="fill:#161f4e"/>
    <path d="M4643.39-723.7a3.278 3.278 0 0 1 1.188-1 8.717 8.717 0 0 1-.233.968c-.567 1.853-1.226 4.433-1.777 6.692l-.246-1.423a5.906 5.906 0 0 1-.065-.526 43.753 43.753 0 0 0 1.135-4.711" transform="translate(-4350.275 886.947)" style="fill:#74b570"/>
    <path d="M4645.083-796.138c8.583-3.615 4.061-8.575 11.629-5.3a5.618 5.618 0 0 1 1.833 1.615 5.628 5.628 0 0 1-2.4.193c-2.259-.339-1.468 1.468 2.259 1.92a8.4 8.4 0 0 1 1.747.368c1.776 3.411 2.576 7.9-1.182 9.458a8.5 8.5 0 0 1-2.675.549c-1.159-.922.284-6.256-1.5-5.52-1.716.708.538 4.572.23 5.546a24.717 24.717 0 0 1-5.363-.752 2.665 2.665 0 0 1-1.417-1.631c-.565-2.373 3.162-3.841 3.275-5.874.1-1.869-1.367 4.113-5.26 4.993-3.522-1.645-5.187-3.878-1.173-5.567" transform="translate(-4350.732 959.414)" style="fill:#161f4e"/>
    <path d="M4400.421-914.049c.9-1.92-1.468-2.373-1.354-.9.1 1.3.111 4.465-1.224 5.326a20.958 20.958 0 0 1-7.8-2.59.96.96 0 0 1 .1-.589c1.016-2.033 7.568-3.728 5.535-4.405-1.619-.54-4.457 2.646-6.744 4.251a4.864 4.864 0 0 1-2.292-3.67c0-1.877 2.28-4 5.228-5.017 1.328.135 2.561.859 4.486 1.951 2.844 1.612 2.186-.995-.5-2.541a8.1 8.1 0 0 1 6.343 3.482 3.967 3.967 0 0 0 .911 2.58c2.924 4.274-.451 6.77-4.486 6.608a26.7 26.7 0 0 1 1.8-4.481" transform="translate(-4112.19 1070.934)" style="fill:#161f4e"/>
    <path d="M4737.386-773.612a38.318 38.318 0 0 0 7.675 5.058c3.013 1.356 2.41 5.774 2.41 5.774s.451-3.815-2.059-5.121-4.167-2.862-6.074-3.163a27.836 27.836 0 0 1-2.963-.6s.6-1.205.252-1.657.759-.289.759-.289" transform="translate(-4437.941 932.527)" style="fill:#161f4e"/>
    <path d="M4689.631-1065.531a35.428 35.428 0 0 0-15.112 8.585c-1.1 1.254-1.1 1.606-1.1 1.606l.854 1.606.4-.2s-.652-1.355 1.055-3.112a30.869 30.869 0 0 1 8.986-6.477c2.46-1.054 4.92-2.008 4.92-2.008" transform="translate(-4379.298 1204.401)" style="fill:#161f4e"/>
    <path d="M4530.511-563.447h3.089a3.976 3.976 0 0 0 3.977-3.976v-7.1h-11.041v7.1a3.975 3.975 0 0 0 3.976 3.976" transform="translate(-4242.49 747.059)" style="fill:#2f2e3f"/>
    <path d="M4537.576-555.248h-11.041v-.777h11.041v.777" transform="translate(-4242.49 729.834)" style="fill:#fff"/>
    <path d="M4537.576-534.9h-11.041v-.457h11.041v.457" transform="translate(-4242.49 710.584)" style="fill:#fff"/>
    <path d="M2259.68-2942.661a15.27 15.27 0 0 0-15.071-15.27 15.314 15.314 0 0 0-15.468 15.021 15.215 15.215 0 0 0 4.041 10.6 6.927 6.927 0 0 1 1.834 4.7v6.846a8.075 8.075 0 0 0 8.052 8.051h2.684a8.076 8.076 0 0 0 8.053-8.051v-6.845a7 7 0 0 1 1.862-4.728 15.214 15.214 0 0 0 4.014-10.318" transform="translate(-2102.633 2967.035)" style="fill:#bec0c0"/>
    <path d="M2274.542-2872.99h-2.309a6.946 6.946 0 0 1-6.927-6.926v-5.889a5.959 5.959 0 0 0-1.579-4.04 13.093 13.093 0 0 1-3.476-9.116 13.176 13.176 0 0 1 13.138-12.924h.17a13.136 13.136 0 0 1 12.965 13.136 13.09 13.09 0 0 1-3.452 8.877 6.021 6.021 0 0 0-1.6 4.067v5.888a6.947 6.947 0 0 1-6.927 6.926" transform="translate(-2131.61 2924.147)" style="fill:#131f51"/>
    <path d="M2335.513-2663.044h-5.029a.457.457 0 0 1-.456-.415c-.009-.1-.948-9.805-5.288-12.524a.456.456 0 0 1-.146-.63.457.457 0 0 1 .63-.144c4.235 2.651 5.438 10.832 5.67 12.8h4.134a14.954 14.954 0 0 1 .411-3.665 20.145 20.145 0 0 1 4.918-9.056.458.458 0 0 1 .646-.028.458.458 0 0 1 .027.646c-5.708 6.214-5.073 12.446-5.066 12.509a.457.457 0 0 1-.113.355.453.453 0 0 1-.34.153" transform="translate(-2191.479 2705.207)" style="fill:#94bdf2"/>
    <path d="M2318.658-2744.156a1.493 1.493 0 0 0-.77.179c-.449.265-.681.9-.69 1.9-.009 1.054.223 1.732.69 2.015 1.128.684 3.763-.587 6.291-1.921-2.043-1.091-4.188-2.173-5.521-2.173zm7.464 2.174c2.509 1.335 5.136 2.612 6.3 1.928.486-.285.738-.971.751-2.035.014-1.006-.2-1.652-.646-1.922-1.127-.681-3.848.673-6.405 2.03zm5.478 3.031c-1.7 0-4.013-1.206-6.45-2.513-3.149 1.677-6.089 3.181-7.735 2.183-.774-.469-1.144-1.387-1.131-2.806a2.9 2.9 0 0 1 1.139-2.677c1.648-.977 4.6.582 7.729 2.263 3.195-1.7 6.2-3.291 7.847-2.29a2.894 2.894 0 0 1 1.085 2.715 3.058 3.058 0 0 1-1.2 2.812 2.478 2.478 0 0 1-1.281.314" transform="translate(-2183.802 2768.8)" style="fill:#94bdf2"/>
    <path d="M2410.221-2321.571h-2.926a1.88 1.88 0 0 1-1.874-1.875v-.274a1.88 1.88 0 0 1 1.874-1.875h2.926a1.881 1.881 0 0 1 1.874 1.875v.274a1.88 1.88 0 0 1-1.874 1.875" transform="translate(-2266.826 2378.059)" style="fill:#2f2e3f"/>
    <path d="M2308.368-2487.82v4.842a8.457 8.457 0 0 0 8.433 8.432h2.811a8.457 8.457 0 0 0 8.433-8.432v-4.842h-19.676" transform="translate(-2176.429 2529.16)" style="fill:#161f4e"/>
    <path d="M2317.553-2497.051h-19.261a1.1 1.1 0 0 1-1.1-1.1v-.121a1.1 1.1 0 0 1 1.1-1.1h19.261a1.1 1.1 0 0 1 1.1 1.1v.121a1.1 1.1 0 0 1-1.1 1.1" transform="translate(-2166.021 2539.916)" style="fill:#2f2e3f"/>
    <path d="m2318.5-2471.608-19.116 2.362a1.1 1.1 0 0 1-1.223-.955l-.016-.121a1.1 1.1 0 0 1 .955-1.223l19.116-2.362a1.1 1.1 0 0 1 1.224.954l.015.12a1.1 1.1 0 0 1-.955 1.224" transform="translate(-2166.902 2516.208)" style="fill:#2f2e3f"/>
    <path d="m2318.5-2422.822-19.116 2.362a1.1 1.1 0 0 1-1.223-.955l-.016-.121a1.1 1.1 0 0 1 .955-1.223l19.116-2.361a1.1 1.1 0 0 1 1.224.954l.015.12a1.1 1.1 0 0 1-.955 1.224" transform="translate(-2166.902 2470.767)" style="fill:#2f2e3f"/>
    <path d="m2345.772-2370.6-15.921 1.967a1.01 1.01 0 0 1-1.123-.875l-.038-.3a1.01 1.01 0 0 1 .876-1.123l15.922-1.967a1.011 1.011 0 0 1 1.123.876l.037.3a1.01 1.01 0 0 1-.876 1.123" transform="translate(-2195.351 2422.125)" style="fill:#2f2e3f"/>
    <path d="M4463.481-2296.927a10.262 10.262 0 0 0 10.262 10.262 10.312 10.312 0 0 1-10.262-10.262" transform="translate(-4183.761 2351.358)" style="fill:#f39892"/>
    <path d="M4473.745-2446.581a10.262 10.262 0 0 0-10.262 10.262 10.311 10.311 0 0 1 10.262-10.262" transform="translate(-4183.762 2490.749)" style="fill:#f39892"/>
    <path d="M4613.135-2286.665a10.262 10.262 0 0 0 10.262-10.262 10.311 10.311 0 0 1-10.262 10.262" transform="translate(-4323.152 2351.358)" style="fill:#f39892"/>
    <path d="M1661.5-2368.482h-2.241v-6.485h2.241v6.485" transform="translate(-1571.835 2424.046)" style="fill:#9ec8ff"/>
    <path d="M2080.423-2339.819h-2.242v-4.375h2.242v4.375" transform="translate(-1962.027 2395.383)" style="fill:#9ec8ff"/>
    <path d="M1800.01-2486.488h-2.242v-15.173h2.242v15.173" transform="translate(-1700.843 2542.051)" style="fill:#9ec8ff"/>
    <path d="M1869.276-2373.027h-2.241v-6.82h2.241v6.82" transform="translate(-1765.36 2428.591)" style="fill:#9ec8ff"/>
    <path d="M1938.53-2399.244h-2.241v-8.75h2.241v8.75" transform="translate(-1829.864 2454.808)" style="fill:#9ec8ff"/>
    <path d="M1730.757-2426.64h-2.241v-10.767h2.241v10.767" transform="translate(-1636.339 2482.204)" style="fill:#9ec8ff"/>
    <path d="M2008.023-2460.52h-2.241v-13.261h2.241v13.261" transform="translate(-1894.592 2516.084)" style="fill:#9ec8ff"/>
    <path d="M1190.91-2864.534h-37.9a.747.747 0 0 1-.747-.747v-16.311a.747.747 0 0 1 .747-.747h37.9a.747.747 0 0 1 .747.747v16.311a.747.747 0 0 1-.747.747" transform="translate(-1099.599 2896.626)" style="fill:#131f51"/>
    <path d="M1204.609-2801.822h-36.036a.6.6 0 0 1-.6-.6v-11.084a.6.6 0 0 1 .6-.6h36.036a.6.6 0 0 1 .6.6v11.084a.6.6 0 0 1-.6.6" transform="translate(-1114.23 2833.078)" style="fill:#fff"/>
    <path d="M1177.154-2861.844h-.875a.334.334 0 0 1-.334-.334v-.721a.335.335 0 0 1 .334-.334h.875a.335.335 0 0 1 .334.334v.721a.335.335 0 0 1-.334.334" transform="translate(-1121.66 2878.83)" style="fill:#fff"/>
    <path d="M1218.078-2861.844h-.875a.334.334 0 0 1-.334-.334v-.721a.335.335 0 0 1 .334-.334h.875a.335.335 0 0 1 .334.334v.721a.334.334 0 0 1-.334.334" transform="translate(-1159.777 2878.83)" style="fill:#fff"/>
    <path d="M1259-2861.844h-.875a.334.334 0 0 1-.334-.334v-.721a.335.335 0 0 1 .334-.334h.875a.335.335 0 0 1 .334.334v.721a.335.335 0 0 1-.334.334" transform="translate(-1197.895 2878.83)" style="fill:#fff"/>
    <path d="M1413.405-2790.841h-19.7a.591.591 0 0 1-.589-.59.591.591 0 0 1 .589-.589h19.7a.591.591 0 0 1 .59.589.591.591 0 0 1-.59.59" transform="translate(-1323.939 2812.5)" style="fill:#9ec8ff"/>
    <path d="M1197.326-2658.255h-19.7a.591.591 0 0 1-.589-.589.591.591 0 0 1 .589-.589h19.7a.591.591 0 0 1 .589.589.591.591 0 0 1-.589.589" transform="translate(-1122.677 2689.005)" style="fill:#9ec8ff"/>
    <path d="M1495.41-2658.255h-2.039a.2.2 0 0 1-.2-.2v-.775a.2.2 0 0 1 .2-.2h2.039a.2.2 0 0 1 .2.2v.775a.2.2 0 0 1-.2.2" transform="translate(-1417.131 2689.005)" style="fill:#9ec8ff"/>
    <path d="M1540.223-2658.255h-2.039a.2.2 0 0 1-.2-.2v-.775a.2.2 0 0 1 .2-.2h2.039a.2.2 0 0 1 .2.2v.775a.2.2 0 0 1-.2.2" transform="translate(-1458.872 2689.005)" style="fill:#9ec8ff"/>
    <path d="M1243.208-2748.247h-32.623a.4.4 0 0 1-.4-.4.4.4 0 0 1 .4-.4h32.623a.4.4 0 0 1 .4.4.4.4 0 0 1-.4.4" transform="translate(-1153.552 2772.474)" style="fill:#9ec8ff"/>
    <path d="M1243.208-2723.086h-32.623a.4.4 0 0 1-.4-.4.4.4 0 0 1 .4-.4h32.623a.4.4 0 0 1 .4.4.4.4 0 0 1-.4.4" transform="translate(-1153.552 2749.039)" style="fill:#9ec8ff"/>
    <path d="M2912.761-2885.425h-7.5a.3.3 0 0 1-.3-.3.3.3 0 0 1 .3-.3h7.5a.3.3 0 0 1 .3.3.3.3 0 0 1-.3.3" transform="translate(-2732.117 2900.054)" style="fill:#fff"/>
    <path d="M2912.761-2863.251h-7.5a.3.3 0 0 1-.3-.3.3.3 0 0 1 .3-.3h7.5a.3.3 0 0 1 .3.3.3.3 0 0 1-.3.3" transform="translate(-2732.117 2879.401)" style="fill:#fff"/>
    <path d="M2912.761-2839.918h-7.5a.3.3 0 0 1-.3-.3.3.3 0 0 1 .3-.3h7.5a.3.3 0 0 1 .3.3.3.3 0 0 1-.3.3" transform="translate(-2732.117 2857.668)" style="fill:#fff"/>
    <path d="M629.557-2281.519H661.9a1.512 1.512 0 0 0 1.507-1.508v-11.554a1.512 1.512 0 0 0-1.507-1.507h-32.343a1.512 1.512 0 0 0-1.507 1.507v11.554a1.512 1.512 0 0 0 1.507 1.508" transform="translate(-611.336 2350.575)" style="fill:#9ec8ff"/>
    <path d="M955.526-2132.317v8.038l-9.262-9.262s9.074 1.224 9.262 1.224" transform="translate(-907.729 2199.176)" style="fill:#9ec8ff"/>
    <path d="M655.995-2263.342h29.14a1.281 1.281 0 0 0 1.278-1.277v-9.125a1.282 1.282 0 0 0-1.278-1.277h-29.14a1.282 1.282 0 0 0-1.278 1.277v9.125a1.281 1.281 0 0 0 1.278 1.277" transform="translate(-636.174 2330.953)" style="fill:#fff"/>
    <path d="M856.694-2249.964h14.317a.63.63 0 0 0 .628-.628.63.63 0 0 0-.628-.628h-14.317a.63.63 0 0 0-.628.628.63.63 0 0 0 .628.628" transform="translate(-823.716 2308.785)" style="fill:#9ec8ff"/>
    <path d="M686.09-2207.475h26.554a.351.351 0 0 0 .349-.35v-.007a.35.35 0 0 0-.349-.349H686.09a.35.35 0 0 0-.349.349v.007a.351.351 0 0 0 .349.35" transform="translate(-665.07 2268.697)" style="fill:#9ec8ff"/>
    <path d="M686.09-2187.542h26.554a.35.35 0 0 0 .349-.349v-.007a.35.35 0 0 0-.349-.349H686.09a.35.35 0 0 0-.349.349v.007a.35.35 0 0 0 .349.349" transform="translate(-665.07 2250.13)" style="fill:#9ec8ff"/>
    <path d="M4129.184-2268.636h1.694a.648.648 0 0 0 .648-.648v-1.4a.648.648 0 0 0-.648-.648h-1.694a.648.648 0 0 0-.647.648v1.4a.648.648 0 0 0 .647.648" transform="translate(-3871.783 2327.513)" style="fill:#9ec8ff"/>
    <path d="M4049.877-2268.636h1.7a.648.648 0 0 0 .648-.648v-1.4a.648.648 0 0 0-.648-.648h-1.7a.648.648 0 0 0-.647.648v1.4a.648.648 0 0 0 .647.648" transform="translate(-3797.915 2327.513)" style="fill:#9ec8ff"/>
    <path d="M3970.57-2268.636h1.7a.648.648 0 0 0 .648-.648v-1.4a.648.648 0 0 0-.648-.648h-1.7a.647.647 0 0 0-.647.648v1.4a.647.647 0 0 0 .647.648" transform="translate(-3724.047 2327.513)" style="fill:#9ec8ff"/>
</svg>
