<svg xmlns="http://www.w3.org/2000/svg" width="81.1" height="81.1" viewBox="0 0 81.1 81.1">
  <g id="Group_14781" data-name="Group 14781" transform="translate(-59.5 -51.9)" opacity="0.999" style="isolation: isolate">
    <g id="Group_14581" data-name="Group 14581" transform="translate(59.5 51.9)">
      <path id="Path_13689" data-name="Path 13689" d="M40.55,0A40.55,40.55,0,1,1,0,40.55,40.55,40.55,0,0,1,40.55,0Z" transform="translate(0)" fill="none"/>
      <path id="Path_14174" data-name="Path 14174" d="M21,2A19,19,0,1,0,40,21,19.007,19.007,0,0,0,21,2ZM19.1,36.067A15.178,15.178,0,0,1,5.8,21a15.424,15.424,0,0,1,.4-3.4l9.1,9.1v1.9a3.811,3.811,0,0,0,3.8,3.8Zm13.11-4.826A3.77,3.77,0,0,0,28.6,28.6H26.7V22.9A1.906,1.906,0,0,0,24.8,21H13.4V17.2h3.8a1.906,1.906,0,0,0,1.9-1.9V11.5h3.8a3.811,3.811,0,0,0,3.8-3.8V6.921a15.166,15.166,0,0,1,5.51,24.32Z" transform="translate(20.452 20.452)" fill="#1f2251"/>
    </g>
  </g>
</svg>
