<svg id="Group_15061" data-name="Group 15061" xmlns="http://www.w3.org/2000/svg" width="318.787" height="415.789" viewBox="0 0 318.787 415.789">
  <g id="undraw_home_screen_re_640d_1_" data-name="undraw_home_screen_re_640d (1)">
    <rect id="Rectangle_4341" data-name="Rectangle 4341" width="197.251" height="359.409" rx="35" transform="translate(3.328)" fill="#3f3d56"/>
    <path id="Path_14279" data-name="Path 14279" d="M541.116,189.545V477.884a32.245,32.245,0,0,1-32.208,32.208H382.728a32.245,32.245,0,0,1-32.208-32.208V189.545a32.245,32.245,0,0,1,32.208-32.208h16.5v5.7a9.73,9.73,0,0,0,9.729,9.729h73.722a9.73,9.73,0,0,0,9.729-9.729v-5.7h16.5A32.245,32.245,0,0,1,541.116,189.545Z" transform="translate(-343.864 -154.008)" fill="#fff"/>
    <path id="Path_14280" data-name="Path 14280" d="M389.72,309.7c-2.062-.93-4.362,1.175-2.832,3.144a20.785,20.785,0,0,1-19.526,4.4c-.165.4-.338.79-.516,1.183a48.432,48.432,0,0,1-11.187,15.562c6.225-5.177,13.9-.8,20.494.9a2.344,2.344,0,0,1,1.035,4.167,13.48,13.48,0,0,0-2.6-.676,2.044,2.044,0,0,0-1.817,3.4,20.653,20.653,0,0,1-21.436-2.667v-2.827A48.661,48.661,0,0,0,365.926,318a47.926,47.926,0,0,0,2.806-7.836,45.553,45.553,0,0,0,1.42-8.985,12.346,12.346,0,0,1,.947-10.329c.782,1.42,3.035,1.788,3.271-.182.051-.795.089-1.589.135-2.379,8.491-.655,7.041,11.234-3.347,13.093a47.81,47.81,0,0,1-1.479,9.04c-.072.3-.152.587-.237.879a20.31,20.31,0,0,1,7.257-6.145c2.743-1.285,5.938-1.56,8.985-2.054A4.169,4.169,0,0,1,389.72,309.7Z" transform="translate(-346.5 -59.851)" fill="#f2f2f2"/>
    <path id="Path_14281" data-name="Path 14281" d="M341.94,266.016a2.423,2.423,0,0,1-2.42-2.42v-4.841a2.42,2.42,0,1,1,4.841,0V263.6A2.423,2.423,0,0,1,341.94,266.016Z" transform="translate(-339.52 -193.106)" fill="#3f3d56"/>
    <path id="Path_14282" data-name="Path 14282" d="M341.94,301.5a2.423,2.423,0,0,1-2.42-2.42V285.756a2.42,2.42,0,1,1,4.841,0V299.08a2.423,2.423,0,0,1-2.42,2.42Z" transform="translate(-339.52 -203.769)" fill="#3f3d56"/>
    <path id="Path_14283" data-name="Path 14283" d="M341.94,334.479a2.423,2.423,0,0,1-2.42-2.42V318.734a2.42,2.42,0,1,1,4.841,0v13.324A2.423,2.423,0,0,1,341.94,334.479Z" transform="translate(-339.52 -216.794)" fill="#3f3d56"/>
    <path id="Path_14284" data-name="Path 14284" d="M669.94,303.955a2.423,2.423,0,0,1-2.42-2.42V269.022a2.42,2.42,0,1,1,4.841,0v32.512a2.423,2.423,0,0,1-2.42,2.42Z" transform="translate(-469.058 -197.161)" fill="#3f3d56"/>
    <path id="Path_14285" data-name="Path 14285" d="M503.382,168.207H484.625a1.513,1.513,0,1,1,0-3.025h18.757a1.513,1.513,0,0,1,0,3.025Z" transform="translate(-396.229 -157.106)" fill="#fff"/>
    <circle id="Ellipse_3308" data-name="Ellipse 3308" cx="1.21" cy="1.21" r="1.21" transform="translate(115.624 8.378)" fill="#fff"/>
    <path id="Path_14289" data-name="Path 14289" d="M477.795,487.7H418.157c-17.188-.025-31.118-18-31.137-40.185V370.55c.019-22.183,13.949-40.16,31.137-40.185h59.638c17.189.025,31.118,18,31.137,40.185v76.968c-.019,22.183-13.948,40.16-31.137,40.185ZM418.157,334.8c-15.293.023-27.685,16.016-27.7,35.753v76.968c.018,19.736,12.41,35.73,27.7,35.753h59.638c15.293-.023,27.686-16.016,27.7-35.753V370.55c-.018-19.736-12.41-35.73-27.7-35.753Z" transform="translate(-369.694 -167.733)" fill="#e6e6e6"/>
    <path id="Path_14312" data-name="Path 14312" d="M406.468,176.959H390.131a3.025,3.025,0,0,1,0-6.051h16.337a3.025,3.025,0,1,1,0,6.051Z" transform="translate(-358.313 -159.368)" fill="#e6e6e6"/>
    <circle id="Ellipse_3312" data-name="Ellipse 3312" cx="2.723" cy="2.723" r="2.723" transform="translate(152.529 11.843)" fill="#e6e6e6"/>
    <circle id="Ellipse_3313" data-name="Ellipse 3313" cx="2.723" cy="2.723" r="2.723" transform="translate(161 11.843)" fill="#e6e6e6"/>
    <circle id="Ellipse_3314" data-name="Ellipse 3314" cx="2.723" cy="2.723" r="2.723" transform="translate(169.47 11.843)" fill="#e6e6e6"/>
    <circle id="Ellipse_3317" data-name="Ellipse 3317" cx="12.706" cy="12.706" r="12.706" transform="translate(35.484 275.323)" fill="#ccc"/>
    <g id="Group_14885" data-name="Group 14885" transform="translate(108.697 49.422)">
      <g id="Logo" transform="translate(0 0)">
        <path id="Path_1006" data-name="Path 1006" d="M511.266,773.834h-.019A1.177,1.177,0,0,0,510.079,775v5.236a2.283,2.283,0,1,1-4.566,0V775a1.177,1.177,0,0,0-1.158-1.168h-.029a1.111,1.111,0,0,0-.813.345,1.123,1.123,0,0,0-.345.823v5.236a4.628,4.628,0,0,0,9.257,0V775a1.122,1.122,0,0,0-.345-.823A1.071,1.071,0,0,0,511.266,773.834Z" transform="translate(-492.926 -770.147)" fill="#0f1f54"/>
        <path id="Path_1007" data-name="Path 1007" d="M535.349,773.834a4.032,4.032,0,0,0-3.427,1.513,4.06,4.06,0,0,0-3.437-1.513,4.608,4.608,0,0,0-4.6,4.6V783.7a1.073,1.073,0,0,0,.345.814,1.113,1.113,0,0,0,.814.345h.029a1.112,1.112,0,0,0,.813-.345,1.072,1.072,0,0,0,.345-.814v-5.265a2.259,2.259,0,1,1,4.518,0V783.7a1.074,1.074,0,0,0,.345.814,1.124,1.124,0,0,0,.823.345h.019a1.177,1.177,0,0,0,1.158-1.158v-5.265a2.264,2.264,0,1,1,4.528,0V783.7a1.177,1.177,0,0,0,1.158,1.158h.019a1.124,1.124,0,0,0,.823-.345,1.108,1.108,0,0,0,.335-.814v-5.265a4.608,4.608,0,0,0-4.6-4.6Z" transform="translate(-503.938 -770.147)" fill="#0f1f54"/>
        <path id="Path_1008" data-name="Path 1008" d="M564.662,773.834a5.523,5.523,0,0,0-5.514,5.495v8.309a1.177,1.177,0,0,0,1.158,1.158h.029a1.177,1.177,0,0,0,1.159-1.158V783.9a4.642,4.642,0,0,0,3.168.957,5.514,5.514,0,0,0,0-11.027Zm2.24,7.735a3.178,3.178,0,1,1,.928-2.24A3.052,3.052,0,0,1,566.9,781.568Z" transform="translate(-522.688 -770.148)" fill="#0f1f54"/>
        <path id="Path_1009" data-name="Path 1009" d="M588.954,775.021V775a1.141,1.141,0,0,0-.335-.823,1.124,1.124,0,0,0-.823-.345h-.546a4.067,4.067,0,0,0-2.987,1.235,4.168,4.168,0,0,0-1.235,2.987V783.7a1.072,1.072,0,0,0,.345.814,1.111,1.111,0,0,0,.814.345h.029a1.113,1.113,0,0,0,.814-.345,1.072,1.072,0,0,0,.345-.814v-5.648a1.858,1.858,0,0,1,.546-1.331,1.809,1.809,0,0,1,1.331-.546h.546a1.126,1.126,0,0,0,.823-.345A1.11,1.11,0,0,0,588.954,775.021Z" transform="translate(-535.385 -770.147)" fill="#0f1f54"/>
        <path id="Path_1010" data-name="Path 1010" d="M603.8,779.625a1.082,1.082,0,0,0-1.11.785,3.128,3.128,0,0,1-1.139,1.531,3.092,3.092,0,0,1-1.857.6,2.717,2.717,0,0,1-2.269-.919q.469-.22,3.178-1.445,2.183-.986,3.523-1.589a1.1,1.1,0,0,0,.613-.651,1.091,1.091,0,0,0-.038-.89,5.51,5.51,0,1,0-8.9,6.193,5.514,5.514,0,0,0,9.094-2.068,1.2,1.2,0,0,0,.077-.412,1.082,1.082,0,0,0-.221-.641A1.107,1.107,0,0,0,603.8,779.625Zm-7.275-.249a3.153,3.153,0,0,1,3.168-3.178,2.694,2.694,0,0,1,2.183.842l-5.351,2.4Z" transform="translate(-541.311 -770.147)" fill="#0f1f54"/>
        <path id="Path_1011" data-name="Path 1011" d="M627.706,780.123a1.107,1.107,0,0,0-.948-.5,1.082,1.082,0,0,0-1.11.785,3.124,3.124,0,0,1-1.139,1.531,3.09,3.09,0,0,1-1.857.6,2.717,2.717,0,0,1-2.269-.919q.469-.22,3.178-1.445,2.183-.986,3.523-1.589a1.1,1.1,0,0,0,.613-.651,1.133,1.133,0,0,0,.076-.4,1.121,1.121,0,0,0-.115-.488,5.534,5.534,0,0,0-5.006-3.217,5.509,5.509,0,1,0,5.2,7.342,1.212,1.212,0,0,0,.076-.412A1.085,1.085,0,0,0,627.706,780.123Zm-8.223-.747a3.154,3.154,0,0,1,3.169-3.178,2.693,2.693,0,0,1,2.182.842l-5.351,2.4Z" transform="translate(-553.519 -770.147)" fill="#0f1f54"/>
        <path id="Path_1012" data-name="Path 1012" d="M491.09,774.878a1.2,1.2,0,0,0-1-1.18,1.045,1.045,0,0,0-.457.008l-5.754,1.407a1.063,1.063,0,0,0-.778,1.281h0a1.063,1.063,0,0,0,1.281.778l4.311-1.055-.021,8.86c-.067-.032-.136-.063-.2-.1-.256-.129-.5-.261-.727-.4a7.787,7.787,0,0,1-.658-.432c-.2-.153-.411-.3-.6-.46s-.373-.342-.559-.507a7.518,7.518,0,0,1-.536-.535c-.173-.188-.34-.393-.509-.6s-.327-.436-.487-.674-.312-.494-.463-.764-.295-.56-.431-.873a1.125,1.125,0,0,0-.588-.573,1.238,1.238,0,0,0-.877-.051,1.059,1.059,0,0,0-.5.337,1.111,1.111,0,0,0-.237.557,1.253,1.253,0,0,0,.094.648c.144.324.291.626.444.911s.307.557.469.81.326.5.494.725.337.446.511.655.351.408.531.6.36.374.551.551.386.348.581.512.4.32.613.477.429.306.657.454.467.289.715.428.508.271.78.4.561.245.861.367c.283.115.585.21.9.307h0l.055.017a1.238,1.238,0,0,0,.655.008,1.116,1.116,0,0,0,.514-.305,1.06,1.06,0,0,0,.252-.45,1.188,1.188,0,0,0,.074-.407Z" transform="translate(-481.299 -770.064)" fill="#0f1f54"/>
        <path id="Path_1013" data-name="Path 1013" d="M497.648,768.267a1.235,1.235,0,1,0-.448-1.689A1.236,1.236,0,0,0,497.648,768.267Z" transform="translate(-489.664 -765.963)" fill="#0f1f54"/>
      </g>
    </g>
    <path id="Path_14428" data-name="Path 14428" d="M419.4,674.115H398.387a10.379,10.379,0,0,1-10.367-10.367V642.732a10.379,10.379,0,0,1,10.367-10.367H419.4a10.379,10.379,0,0,1,10.367,10.367v21.015A10.379,10.379,0,0,1,419.4,674.115Z" transform="translate(-358.674 -537.289)" fill="#bed4e4"/>
    <path id="Path_14429" data-name="Path 14429" d="M504.9,674.615H483.887a10.379,10.379,0,0,1-10.367-10.367V643.233a10.379,10.379,0,0,1,10.367-10.367H504.9a10.379,10.379,0,0,1,10.367,10.367v21.015A10.379,10.379,0,0,1,504.9,674.615Z" transform="translate(-392.441 -537.487)" fill="#e6e6e6"/>
    <path id="Path_14430" data-name="Path 14430" d="M590.4,675.115H569.387a10.379,10.379,0,0,1-10.367-10.367V643.732a10.379,10.379,0,0,1,10.367-10.367H590.4a10.379,10.379,0,0,1,10.367,10.367v21.015A10.379,10.379,0,0,1,590.4,675.115Z" transform="translate(-426.208 -537.684)" fill="#e6e6e6"/>
    <path id="Path_14431" data-name="Path 14431" d="M525.139,676.532H380.586A12.447,12.447,0,0,1,368.153,664.1V633.3a12.447,12.447,0,0,1,12.433-12.432H525.139A12.447,12.447,0,0,1,537.572,633.3v30.8a12.447,12.447,0,0,1-12.433,12.432ZM380.586,622.076A11.235,11.235,0,0,0,369.364,633.3v30.8a11.235,11.235,0,0,0,11.222,11.222H525.139A11.235,11.235,0,0,0,536.362,664.1V633.3a11.235,11.235,0,0,0-11.222-11.222Z" transform="translate(-350.828 -532.748)" fill="#e6e6e6"/>
    <circle id="Ellipse_3325" data-name="Ellipse 3325" cx="7.261" cy="7.261" r="7.261" transform="translate(112.594 92.682)" fill="#ccc"/>
    <circle id="Ellipse_3326" data-name="Ellipse 3326" cx="12.706" cy="12.706" r="12.706" transform="translate(65.738 275.323)" fill="#ccc"/>
    <circle id="Ellipse_3327" data-name="Ellipse 3327" cx="12.706" cy="12.706" r="12.706" transform="translate(95.991 275.323)" fill="#ccc"/>
    <path id="Path_14432" data-name="Path 14432" d="M477.795,487.7H418.157c-17.188-.025-31.118-18-31.137-40.185V370.55c.019-22.183,13.949-40.16,31.137-40.185h59.638c17.189.025,31.118,18,31.137,40.185v76.968c-.019,22.183-13.948,40.16-31.137,40.185ZM418.157,334.8c-15.293.023-27.685,16.016-27.7,35.753v76.968c.018,19.736,12.41,35.73,27.7,35.753h59.638c15.293-.023,27.686-16.016,27.7-35.753V370.55c-.018-19.736-12.41-35.73-27.7-35.753Z" transform="translate(-235.701 -167.733)" fill="#e6e6e6"/>
  </g>
  <rect id="Rectangle_4347" data-name="Rectangle 4347" width="86.048" height="214.686" transform="translate(200.22 144.723)" fill="#fff"/>
  <g id="Group_14887" data-name="Group 14887" transform="translate(175.527 199.113)">
    <path id="Path_14418" data-name="Path 14418" d="M606.157,706.629h-5.543l-2.637-21.38h8.181Z" transform="translate(-589.697 -495.327)" fill="#a0616a"/>
    <path id="Path_14419" data-name="Path 14419" d="M759.566,812.5H741.693v-.226a6.957,6.957,0,0,1,6.956-6.956h10.917Z" transform="translate(-741.693 -595.824)" fill="#2f2e41"/>
    <path id="Path_14420" data-name="Path 14420" d="M748.789,699.482l-5.4,1.27-7.468-20.206,7.963-1.875Z" transform="translate(-663.471 -491.809)" fill="#a0616a"/>
    <path id="Path_14421" data-name="Path 14421" d="M910.422,803.913l-17.4,4.1-.052-.22a6.957,6.957,0,0,1,5.177-8.366h0l10.626-2.5Z" transform="translate(-822.496 -591.335)" fill="#2f2e41"/>
    <path id="Path_14422" data-name="Path 14422" d="M763.591,572.261c.01-1.114.341-27.408,7.548-37.35l.107-.147,25.118,3.465-.562,5.519c1.1,1.075,9.8,10.156,12.3,31.659l26.66,71.6-12.394,1.127-36.689-78.164-19.416,84.964H753.981Z" transform="translate(-748.265 -451.136)" fill="#2f2e41"/>
    <path id="Path_14423" data-name="Path 14423" d="M784.539,486.887,786.994,474a10.16,10.16,0,0,1-2.136-7.073A8.715,8.715,0,0,1,788.89,461l6.364-14.85.086-.05c.429-.253,10.562-6.112,16.086-.584.138.107,13.739,10.9,8.277,25.468l-6.743,20.23Z" transform="translate(-764.607 -402.142)" fill="#ccc"/>
    <path id="Path_14424" data-name="Path 14424" d="M760.275,553.621a4.558,4.558,0,0,0,3.85-5.834l13.143-9.469-7.868-2.993-11.274,9.451a4.583,4.583,0,0,0,2.149,8.845Z" transform="translate(-748.885 -451.436)" fill="#a0616a"/>
    <path id="Path_14425" data-name="Path 14425" d="M771.369,489.605,791.433,473.8l-5.965-20.38a7.323,7.323,0,0,1,.739-5.8,6.773,6.773,0,0,1,4.441-3.206c3.435-.727,6.553,1.2,9.266,5.717l.021.041c.449,1.1,10.9,26.936,2.92,32.462-7.807,5.405-25.912,13.273-26.094,13.353l-.212.092Z" transform="translate(-757.563 -402.738)" fill="#ccc"/>
    <circle id="Ellipse_3323" data-name="Ellipse 3323" cx="12.155" cy="12.155" r="12.155" transform="translate(28.317 13.69)" fill="#a0616a"/>
    <circle id="Ellipse_3324" data-name="Ellipse 3324" cx="10.753" cy="10.753" r="10.753" transform="translate(48.775)" fill="#2f2e41"/>
    <path id="Path_14426" data-name="Path 14426" d="M870.5,385.695a10.754,10.754,0,0,1-16.606-5.646,10.754,10.754,0,1,0,20.976-4.41A10.75,10.75,0,0,1,870.5,385.695Z" transform="translate(-801.697 -366.037)" fill="#2f2e41"/>
    <path id="Path_14427" data-name="Path 14427" d="M798.37,387.535c1.877-3.361,2.6-4.765,5.016-6.808,2.14-1.807,4.773-2.338,6.9-.626a12.791,12.791,0,1,1-7.587,10.235C800.85,390.077,800.216,387.794,798.37,387.535Z" transform="translate(-772.004 -367.865)" fill="#2f2e41"/>
  </g>
  <g id="Group_14884" data-name="Group 14884" transform="translate(263.452 194.262)">
    <g id="Group_14877" data-name="Group 14877" transform="translate(3.95)">
      <path id="Path_14380" data-name="Path 14380" d="M392.4,117.514l1.671,8.33-4.626,1.618-1.453-8.87a2.844,2.844,0,1,1,4.408-1.078Z" transform="translate(-386.897 -113.545)" fill="#a0616a"/>
      <path id="Path_14381" data-name="Path 14381" d="M416.539,177.514l6.771-7.293-21.706-22.2s-.887-.834-.288-.949-.307-1.013-.307-1.013-1.414-1.343-.28-.924-.3-1-.3-1l-5.084-16.781-.9-2.976-7.592,4.532s.067.576.2,1.559c.677,4.957,3.057,20.264,7.074,24.153C398.939,159.277,416.539,177.514,416.539,177.514Z" transform="translate(-386.849 -119)" fill="#ccc"/>
    </g>
    <g id="Group_14878" data-name="Group 14878" transform="translate(0 195.484)">
      <path id="Path_14382" data-name="Path 14382" d="M401.021,525.946h-4.782L393.964,507.5h7.058Z" transform="translate(-386.483 -507.5)" fill="#a0616a"/>
      <path id="Path_14383" data-name="Path 14383" d="M393.594,546.659H378.888v-.186a5.724,5.724,0,0,1,5.724-5.724h0l2.686-2.038,5.012,2.038h1.284v5.91Z" transform="translate(-378.888 -523.224)" fill="#2f2e41"/>
    </g>
    <g id="Group_14879" data-name="Group 14879" transform="translate(40.878 191.8)">
      <path id="Path_14384" data-name="Path 14384" d="M473.942,517.518l-4.522,1.555-8.151-16.7,6.674-2.3Z" transform="translate(-461.269 -500.075)" fill="#a0616a"/>
      <path id="Path_14385" data-name="Path 14385" d="M475.9,538.951,462,543.733l-.06-.176a5.724,5.724,0,0,1,3.551-7.274h0l1.877-2.8,5.4.3,1.214-.417Z" transform="translate(-461.447 -516.845)" fill="#2f2e41"/>
    </g>
    <path id="Path_14386" data-name="Path 14386" d="M426.955,295.916h-32.07s-1.561,13.885-2.14,13.042-.411.381-.247,1.506-1.469,1.819-.4,2.464.682,1.843-.367,2.236-.553,3.371-.553,3.371l-5.458,53.3,4.466,39.986h7.443l9.924-72.943V376.1L427.4,409.341l6.451-2.481-7.939-35.727,5.954-66-4.907-9.222Z" transform="translate(-382.327 -205.422)" fill="#2f2e41"/>
    <path id="Path_14387" data-name="Path 14387" d="M437.9,238.511l-2.451,2.689-37.245,1.28-1.489-3.473,7.443-16.871L412.1,187.9l3.473-7.443v-.819a.736.736,0,0,0-.078-.329h0a.737.737,0,0,1,.493-1.047l.081-1.278-.992.5,6.451-2.977,5.309.521.149.471,1.107.848a18.247,18.247,0,0,1,7.165,14.827l-.332,18.563,2.977,28.78Z" transform="translate(-387.869 -144.254)" fill="#3f3d56"/>
    <path id="Path_14388" data-name="Path 14388" d="M428.392,150.114c.221.051.443.1.664.129a9.228,9.228,0,0,0,2.047.106,9.659,9.659,0,1,0-9.868-12.068c-.02.078-.041.153-.058.232A9.663,9.663,0,0,0,428.392,150.114Z" transform="translate(-400.065 -122.36)" fill="#a0616a"/>
    <g id="Group_14880" data-name="Group 14880" transform="translate(11.761 39.922)">
      <path id="Path_14389" data-name="Path 14389" d="M404.484,297.516l4.969-6.892,4.333,2.289-5.512,7.1a2.844,2.844,0,1,1-3.789-2.5Z" transform="translate(-402.59 -242.678)" fill="#a0616a"/>
      <path id="Path_14390" data-name="Path 14390" d="M429.524,194h-9.952l-1.5,31.013s-.008,1.217-.5.857-.534.914-.534.914-.022,1.95-.487.834-.527.9-.527.9l-8.84,15.143-1.568,2.686,8.486,2.481s.376-.441,1.005-1.208c3.172-3.869,12.771-16.027,12.889-21.617.141-6.7,1.532-32.005,1.532-32.005Z" transform="translate(-404.113 -194)" fill="#ccc"/>
    </g>
    <path id="Path_14391" data-name="Path 14391" d="M427.715,193.474s7.939-10.42,14.886-.5l-1.489-12.9-7.593-1.4a.737.737,0,0,0-.815.757Z" transform="translate(-403.487 -146.356)" fill="#3f3d56"/>
    <path id="Path_14392" data-name="Path 14392" d="M433.458,177.928l-.025-1.717-.228-.367.253-.4.04-.089.953-3.88,8.485-2.977,2.283,3.5C441.789,174.311,441.01,178.012,433.458,177.928Z" transform="translate(-406.253 -141.231)" fill="#ccc"/>
    <path id="Path_14393" data-name="Path 14393" d="M432,145.384l-.827-6.21a.674.674,0,0,0-1.229-.285h-1.489l-1.489-4.962s-.567,2.246-1.527,1.7c-1.057-.606-2.379-.3-3.555.018l.536-1.425-2.389.653.321-1.011-1.485.476c.255-.19.025-.642-.289-.691s-1.535,1.278-2.032,1.278a2.02,2.02,0,0,1-1.128-.588c-.838-.69-1.255-4.151-.857-4.87.738-1.333,2.413-.89,3.473-1.985.236-.244,2.737-.256,2.977-.5a10.6,10.6,0,0,1,2.858-1.359c.419,0,.815.52.543.839.195-.631,1.006-.794,1.667-.781.464.009,1.912-1.22,2.375-1.179,1,.088,1.009,1.446,2.006,1.535.805.071,1.761.246,2.078.99a3.19,3.19,0,0,1,.12,1.17,1.223,1.223,0,0,0,.451,1.042.967.967,0,0,0,.98-.054,2.847,2.847,0,0,0,.728-.723c.322,1.042,2.133,3.573,2.455,4.616a22.3,22.3,0,0,1,.819,3.2c.507,3.326-3.075,6.86-5.38,9.311" transform="translate(-396.783 -119.063)" fill="#2f2e41"/>
  </g>
</svg>
