<svg xmlns="http://www.w3.org/2000/svg" width="299.682" height="249.199" viewBox="0 0 299.682 249.199">
  <g id="Group_15101" data-name="Group 15101" transform="translate(-5002.756 5021.599)">
    <g id="undraw_photo_session_re_c0cp" transform="translate(5047.55 -5021.599)">
      <path id="Path_13769" data-name="Path 13769" d="M253.46,118.86c0,65.646-39.948,61.411-105.595,61.411-14.592,0-41.832,54.818-54.744,50.008h0c-.475-.174-.947-.357-1.418-.543-.135-.048-.269-.1-.4-.155q-1.111-.428-2.211-.887-2.264-.939-4.477-1.965c-.765-.357-1.525-.717-2.278-1.09a118.871,118.871,0,0,1-19.731-12.2q-4.636-3.53-8.907-7.5-3.53-3.28-6.779-6.834c-.681-.741-1.347-1.49-2-2.246-.269-.305-.531-.61-.788-.915q-2.8-3.275-5.353-6.755-.826-1.123-1.628-2.27A118.863,118.863,0,1,1,253.46,118.86Z" transform="translate(1.428 0)" fill="#f2f2f2"/>
      <g id="Group_14533" data-name="Group 14533" transform="translate(0 21.428)">
        <path id="Path_13783" data-name="Path 13783" d="M558.563,384.96H355.421a14.848,14.848,0,0,1-14.831-14.831V216.52a14.848,14.848,0,0,1,14.831-14.831H558.563a14.848,14.848,0,0,1,14.831,14.831V370.129a14.848,14.848,0,0,1-14.831,14.831Z" transform="translate(-340.59 -201.689)" fill="#fff"/>
        <path id="Path_13784" data-name="Path 13784" d="M558.563,384.96H355.421a14.848,14.848,0,0,1-14.831-14.831V216.52a14.848,14.848,0,0,1,14.831-14.831H558.563a14.848,14.848,0,0,1,14.831,14.831V370.129a14.848,14.848,0,0,1-14.831,14.831ZM355.421,204.166a12.368,12.368,0,0,0-12.354,12.354V370.129a12.368,12.368,0,0,0,12.354,12.354H558.563a12.368,12.368,0,0,0,12.354-12.354V216.52a12.368,12.368,0,0,0-12.354-12.354Z" transform="translate(-340.59 -201.689)" fill="#3f3d56"/>
        <ellipse id="Ellipse_3228" data-name="Ellipse 3228" cx="3.715" cy="3.715" rx="3.715" ry="3.715" transform="translate(191.939 11.145)" fill="#3f3d56"/>
        <ellipse id="Ellipse_3229" data-name="Ellipse 3229" cx="3.715" cy="3.715" rx="3.715" ry="3.715" transform="translate(201.846 11.145)" fill="#3f3d56"/>
        <ellipse id="Ellipse_3230" data-name="Ellipse 3230" cx="3.715" cy="3.715" rx="3.715" ry="3.715" transform="translate(211.752 11.145)" fill="#3f3d56"/>
      </g>
      <path id="Path_14819" data-name="Path 14819" d="M70.9,3H11.488A8.513,8.513,0,0,0,3,11.488V70.9a8.513,8.513,0,0,0,8.488,8.488H70.9A8.513,8.513,0,0,0,79.391,70.9V11.488A8.513,8.513,0,0,0,70.9,3ZM41.238,66.659a5.325,5.325,0,0,1-5.347-5.347,5.263,5.263,0,0,1,5.347-5.3,5.2,5.2,0,0,1,5.3,5.3A5.316,5.316,0,0,1,41.238,66.659ZM54.012,35.254c-3.225,4.711-6.281,6.2-7.936,9.209-.679,1.231-.934,2.037-.934,5.984H37.418c0-2.08-.34-5.475,1.316-8.4,2.08-3.692,6.026-5.9,8.318-9.167,2.419-3.438,1.061-9.888-5.814-9.888-4.5,0-6.705,3.4-7.639,6.281l-7-2.971A15.117,15.117,0,0,1,41.153,15.732c6.281,0,10.567,2.843,12.774,6.451C55.795,25.238,56.9,30.968,54.012,35.254Z" transform="translate(75.208 74.094)" fill="#707070"/>
      <path id="Path_14824" data-name="Path 14824" d="M34.157,3H6.895C4.753,3,3,6.657,3,11.126V68c0,4.469,1.753,8.126,3.895,8.126H34.157c2.142,0,3.895-3.657,3.895-8.126C38.052,6.657,36.3,3,34.157,3Z" transform="translate(94.583 63.253) rotate(8)" fill="#fff"/>
      <path id="Path_14825" data-name="Path 14825" d="M70.9,3H11.488A8.513,8.513,0,0,0,3,11.488V70.9a8.513,8.513,0,0,0,8.488,8.488H70.9A8.513,8.513,0,0,0,79.391,70.9V11.488A8.513,8.513,0,0,0,70.9,3ZM41.238,66.659a5.325,5.325,0,0,1-5.347-5.347,5.263,5.263,0,0,1,5.347-5.3,5.2,5.2,0,0,1,5.3,5.3A5.316,5.316,0,0,1,41.238,66.659ZM54.012,35.254c-3.225,4.711-6.281,6.2-7.936,9.209-.679,1.231-.934,2.037-.934,5.984H37.418c0-2.08-.34-5.475,1.316-8.4,2.08-3.692,6.026-5.9,8.318-9.167,2.419-3.438,1.061-9.888-5.814-9.888-4.5,0-6.705,3.4-7.639,6.281l-7-2.971A15.117,15.117,0,0,1,41.153,15.732c6.281,0,10.567,2.843,12.774,6.451C55.795,25.238,56.9,30.968,54.012,35.254Z" transform="translate(74.34 58.762) rotate(8)" fill="#0f1f54"/>
    </g>
    <g id="undraw_career_development_re_sv91" transform="translate(5002.756 -4924.887)">
      <path id="Path_14039" data-name="Path 14039" d="M282.481,237.3l1.494,13.479,19.086.329-2.3-16.124Z" transform="translate(-249.743 -189.103)" fill="#ffb7b7"/>
      <path id="Path_14040" data-name="Path 14040" d="M354.254,489.492a3.086,3.086,0,0,0-.837-4.657l.886-7-4.12-1.575-1.112,9.9a3.1,3.1,0,0,0,5.183,3.331Z" transform="translate(-330.115 -411.313)" fill="#ffb7b7"/>
      <path id="Path_14041" data-name="Path 14041" d="M351.975,481.578h4.035l1.919-15.561h-5.954Z" transform="translate(-293.128 -333.336)" fill="#ffb7b7"/>
      <path id="Path_14042" data-name="Path 14042" d="M453.032,694.453h7.945a5.063,5.063,0,0,1,5.063,5.063v.165H453.032Z" transform="translate(-395.214 -547.528)" fill="#0f1f54"/>
      <path id="Path_14043" data-name="Path 14043" d="M229.352,481.578h4.034l1.919-15.561h-5.954Z" transform="translate(-216.574 -333.336)" fill="#ffb7b7"/>
      <path id="Path_14044" data-name="Path 14044" d="M330.408,694.453h7.945a5.063,5.063,0,0,1,5.063,5.063v.165H330.409Z" transform="translate(-318.66 -547.528)" fill="#0f1f54"/>
      <path id="Path_14045" data-name="Path 14045" d="M348.605,423.114l1.774-20.526,5.177-18.748a7.081,7.081,0,0,1,6.113-5.134l.169-.016.92,14.071-6.62,13.6-2.188,16.319Z" transform="translate(-330.02 -350.396)" fill="#bfd4e4"/>
      <path id="Path_14046" data-name="Path 14046" d="M349.617,446.677l-2.717,4.891a45.007,45.007,0,0,0-11.413,27.265l-9.839,56.332,9.118-.225,18.462-52.8,13.059,22.4,6.529,29.269,10.357-1.914-4.615-34-8.893-31.633-.9-17.224Z" transform="translate(-315.688 -392.841)" fill="#0f1f54"/>
      <ellipse id="Ellipse_3287" data-name="Ellipse 3287" cx="8.082" cy="8.082" rx="8.082" ry="8.082" transform="translate(35.265 5.338)" fill="#ffb7b7"/>
      <path id="Path_14047" data-name="Path 14047" d="M316.809,335.157c1.5-2.933,2.014-6.264,3.17-9.349s3.255-6.147,6.439-7c1.806-.482,3.724-.188,5.579-.418,1.631-.2,3.387-1.035,4.011-2.483a10.229,10.229,0,0,1,.526-4.244,12.729,12.729,0,0,1,7.173-7.265,11.73,11.73,0,0,1,8.336-.454,8.228,8.228,0,0,1,5.418,6.083,6.375,6.375,0,0,1-3.731,6.935c-1.915.716-4.38.477-5.631,2.094-1.266,1.638-.359,4.026.792,5.747l-.079.08c-3.757.044-7.818-.682-10.406-3.406a8.24,8.24,0,0,1-.773-.951c-.079.127-.162.251-.252.37-1.3,1.73-3.343,2.712-5.287,3.668s-3.959,2.03-5.127,3.854c-2.11,3.3-.725,7.739-1.931,11.463a8.468,8.468,0,0,1-15.925.516C312.4,340.676,315.308,338.09,316.809,335.157Z" transform="translate(-305.365 -303.38)" fill="#2f2e41"/>
      <path id="Path_14048" data-name="Path 14048" d="M451.189,493.555a3.086,3.086,0,0,0-2.9-3.741l-2.45-6.612-4.381.509L445.053,493a3.1,3.1,0,0,0,6.136.556Z" transform="translate(-387.991 -415.643)" fill="#ffb7b7"/>
      <path id="Path_14049" data-name="Path 14049" d="M380.814,394.662l-2.339-11.252-.735-8.571a20.18,20.18,0,0,1,3.825-13.645l.748-1.021,12.587,4.474,6.137,8.09a5.482,5.482,0,0,1,.4,7.834l-.126,11.37-.141.019Z" transform="translate(-348.163 -338.836)" fill="#bfd4e4"/>
      <path id="Path_14050" data-name="Path 14050" d="M429.452,421.876l-9.361-21.57-1.36-19.762-.274-4.153a3.97,3.97,0,0,1,7.9-.788l2.947,22.029,5.072,21.977Z" transform="translate(-373.623 -346.32)" fill="#bfd4e4"/>
      <path id="Path_14051" data-name="Path 14051" d="M190.45,708.009H103.956c-.089,0-.161-.168-.161-.376s.072-.376.161-.376H190.45c.089,0,.161.168.161.376S190.539,708.009,190.45,708.009Z" transform="translate(-103.795 -555.522)" fill="#cbcbcb"/>
    </g>
  </g>
</svg>
