<svg xmlns="http://www.w3.org/2000/svg" width="217.916" height="223.05" viewBox="0 0 217.916 223.05">
  <g id="Group_15099" data-name="Group 15099" transform="translate(-5036.543 4995.049)">
    <g id="undraw_setup_wizard_re_nday" transform="translate(5014.17 -4995.049)">
      <path id="Path_14909" data-name="Path 14909" d="M369.805,314.456a2.269,2.269,0,0,0,0,4.537h28.516V318a4.247,4.247,0,0,1,1.912-3.548Z" transform="translate(-305.297 -252.844)" fill="#e6e6e6"/>
      <path id="Path_14910" data-name="Path 14910" d="M436.951,284.994H427.31a2.269,2.269,0,0,1,0-4.537h9.641a2.269,2.269,0,1,1,0,4.537Z" transform="translate(-346.495 -228.486)" fill="#e6e6e6"/>
      <path id="Path_14911" data-name="Path 14911" d="M290.485,227.994H253.054a2.269,2.269,0,1,1,0-4.537h37.431a2.269,2.269,0,1,1,0,4.537Z" transform="translate(-221.653 -187.649)" fill="#e6e6e6"/>
      <path id="Path_14912" data-name="Path 14912" d="M315.375,193.994h-4.821a2.269,2.269,0,0,1,0-4.537h4.821a2.269,2.269,0,1,1,0,4.537Z" transform="translate(-262.847 -163.29)" fill="#e6e6e6"/>
      <path id="Path_14913" data-name="Path 14913" d="M373.762,309.97H338.475a4.826,4.826,0,0,1-4.821-4.821V249.332a4.826,4.826,0,0,1,4.821-4.821h56.366a4.826,4.826,0,0,1,4.821,4.821v13.835h-.567V249.332a4.258,4.258,0,0,0-4.254-4.254H338.475a4.258,4.258,0,0,0-4.254,4.254v55.817a4.258,4.258,0,0,0,4.254,4.254h35.287Z" transform="translate(-281.022 -202.733)" fill="#ccc"/>
      <path id="Path_14914" data-name="Path 14914" d="M257.488,218.485H231.766a4.826,4.826,0,0,1-4.821-4.821V168.277a4.826,4.826,0,0,1,4.821-4.821h45.848a4.826,4.826,0,0,1,4.821,4.821v18.447h-.567V168.277a4.258,4.258,0,0,0-4.254-4.254H231.766a4.258,4.258,0,0,0-4.254,4.254v45.387a4.258,4.258,0,0,0,4.254,4.254h25.722Z" transform="translate(-204.572 -144.663)" fill="#ccc"/>
      <path id="Path_14915" data-name="Path 14915" d="M739.536,314.457A4.247,4.247,0,0,1,741.448,318v.99h28.516a2.269,2.269,0,1,0,0-4.537Z" transform="translate(-571.809 -252.844)" fill="#e6e6e6"/>
      <path id="Path_14916" data-name="Path 14916" d="M747.331,282.725a2.271,2.271,0,0,1,2.269-2.269h9.641a2.269,2.269,0,0,1,0,4.537H749.6A2.271,2.271,0,0,1,747.331,282.725Z" transform="translate(-577.394 -228.486)" fill="#e6e6e6"/>
      <path id="Path_14917" data-name="Path 14917" d="M823.587,225.725a2.271,2.271,0,0,1,2.269-2.269h37.431a2.269,2.269,0,1,1,0,4.537H825.855a2.271,2.271,0,0,1-2.269-2.269Z" transform="translate(-632.026 -187.649)" fill="#e6e6e6"/>
      <path id="Path_14918" data-name="Path 14918" d="M881.087,191.725a2.271,2.271,0,0,1,2.268-2.269h4.821a2.269,2.269,0,1,1,0,4.537h-4.821A2.271,2.271,0,0,1,881.087,191.725Z" transform="translate(-673.221 -163.29)" fill="#e6e6e6"/>
      <path id="Path_14919" data-name="Path 14919" d="M681.844,309.97h35.287a4.826,4.826,0,0,0,4.821-4.821V249.332a4.826,4.826,0,0,0-4.821-4.821H660.765a4.826,4.826,0,0,0-4.821,4.821v13.835h.567V249.332a4.258,4.258,0,0,1,4.253-4.254h56.366a4.258,4.258,0,0,1,4.253,4.254v55.817a4.258,4.258,0,0,1-4.253,4.254H681.844Z" transform="translate(-511.922 -202.733)" fill="#ccc"/>
      <path id="Path_14920" data-name="Path 14920" d="M824.692,218.485h25.722a4.826,4.826,0,0,0,4.821-4.821V168.277a4.826,4.826,0,0,0-4.821-4.821H804.567a4.826,4.826,0,0,0-4.821,4.821v18.447h.567V168.277a4.258,4.258,0,0,1,4.253-4.254h45.848a4.258,4.258,0,0,1,4.253,4.254v45.387a4.258,4.258,0,0,1-4.253,4.254H824.692Z" transform="translate(-614.946 -144.663)" fill="#ccc"/>
      <path id="Path_14921" data-name="Path 14921" d="M546.905,309.967H478.917a4.83,4.83,0,0,0-4.821,4.821v67.344a4.826,4.826,0,0,0,4.821,4.821h67.988a4.826,4.826,0,0,0,4.821-4.821V314.787a4.826,4.826,0,0,0-4.821-4.821Zm4.253,72.165a4.259,4.259,0,0,1-4.254,4.254H478.917a4.259,4.259,0,0,1-4.254-4.254V314.787a4.26,4.26,0,0,1,4.254-4.254h67.988a4.259,4.259,0,0,1,4.253,4.254Z" transform="translate(-381.64 -249.628)" fill="#3f3d56"/>
      <path id="Path_14922" data-name="Path 14922" d="M561.525,390.994H504.244a2.269,2.269,0,1,1,0-4.537h57.281a2.269,2.269,0,1,1,0,4.537Z" transform="translate(-401.613 -304.427)" fill="#ccc"/>
      <path id="Path_14923" data-name="Path 14923" d="M586.414,356.994h-24.67a2.269,2.269,0,1,1,0-4.537h24.67a2.269,2.269,0,1,1,0,4.537Z" transform="translate(-442.808 -280.069)" fill="#417dcd"/>
      <path id="Path_14924" data-name="Path 14924" d="M528.414,438.994h-24.67a2.269,2.269,0,1,1,0-4.537h24.67a2.269,2.269,0,0,1,0,4.537Z" transform="translate(-401.255 -338.816)" fill="#ccc"/>
      <path id="Path_14925" data-name="Path 14925" d="M528.414,473.994h-24.67a2.269,2.269,0,1,1,0-4.537h24.67a2.269,2.269,0,0,1,0,4.537Z" transform="translate(-401.255 -363.891)" fill="#ccc"/>
      <path id="Path_14926" data-name="Path 14926" d="M528.414,508.994h-24.67a2.269,2.269,0,1,1,0-4.537h24.67a2.269,2.269,0,0,1,0,4.537Z" transform="translate(-401.255 -388.967)" fill="#ccc"/>
      <circle id="Ellipse_44" data-name="Ellipse 44" cx="4.233" cy="4.233" r="4.233" transform="translate(153.695 93.655)" fill="#417dcd"/>
      <path id="Path_395" data-name="Path 395" d="M699.872,439.946a.439.439,0,0,1-.264-.088l0,0-.995-.761a.442.442,0,0,1,.538-.7l.644.494,1.523-1.987a.442.442,0,0,1,.62-.082h0l-.009.013.01-.013a.442.442,0,0,1,.082.62l-1.791,2.336a.442.442,0,0,1-.352.172Z" transform="translate(-542.363 -340.442)" fill="#fff"/>
      <path id="Path_14927" data-name="Path 14927" d="M308.161,110.341a6.58,6.58,0,1,1,6.58-6.58,6.58,6.58,0,0,1-6.58,6.58Zm0-12.593a6.013,6.013,0,1,0,6.013,6.013,6.013,6.013,0,0,0-6.013-6.013Z" transform="translate(-258.044 -97.181)" fill="#ccc"/>
      <path id="Path_395-2" data-name="Path 395" d="M317.186,116.757a.653.653,0,0,1-.393-.131l-.007-.005-1.48-1.132a.658.658,0,0,1,.8-1.044l.958.735,2.265-2.955a.657.657,0,0,1,.922-.122h0l-.014.02.014-.02a.658.658,0,0,1,.122.922l-2.664,3.474a.658.658,0,0,1-.523.256Z" transform="translate(-267.692 -107.775)" fill="#ccc"/>
      <path id="Path_14928" data-name="Path 14928" d="M455.357,191.341a6.58,6.58,0,1,1,6.58-6.58,6.58,6.58,0,0,1-6.58,6.58Zm0-12.593a6.013,6.013,0,1,0,6.013,6.013,6.013,6.013,0,0,0-6.013-6.013Z" transform="translate(-363.5 -155.212)" fill="#ccc"/>
      <path id="Path_395-3" data-name="Path 395" d="M464.382,197.757a.653.653,0,0,1-.393-.131l-.007-.005-1.48-1.132a.658.658,0,0,1,.8-1.044l.958.735,2.265-2.955a.657.657,0,0,1,.922-.122h0l-.014.02.014-.02a.658.658,0,0,1,.122.922l-2.664,3.474a.658.658,0,0,1-.523.256Z" transform="translate(-373.148 -165.806)" fill="#ccc"/>
      <circle id="Ellipse_44-2" data-name="Ellipse 44" cx="4.233" cy="4.233" r="4.233" transform="translate(153.695 103.58)" fill="#417dcd"/>
      <path id="Path_395-4" data-name="Path 395" d="M699.872,474.946a.44.44,0,0,1-.264-.088l0,0-.995-.761a.442.442,0,0,1,.538-.7l.644.494,1.523-1.987a.442.442,0,0,1,.62-.082h0l-.009.013.01-.013a.442.442,0,0,1,.082.62l-1.791,2.336a.442.442,0,0,1-.352.172Z" transform="translate(-542.363 -365.518)" fill="#fff"/>
      <circle id="Ellipse_44-3" data-name="Ellipse 44" cx="4.233" cy="4.233" r="4.233" transform="translate(153.695 113.525)" fill="#417dcd"/>
      <path id="Path_395-5" data-name="Path 395" d="M699.872,510.017a.439.439,0,0,1-.264-.088l0,0-.995-.761a.442.442,0,1,1,.538-.7l.644.494,1.523-1.987a.442.442,0,0,1,.62-.082h0l-.009.013.01-.013a.442.442,0,0,1,.082.62l-1.791,2.336a.442.442,0,0,1-.352.172Z" transform="translate(-542.363 -390.643)" fill="#fff"/>
      <path id="Path_14929" data-name="Path 14929" d="M594.587,256.341a6.581,6.581,0,0,1-.009-13.16h.01a6.581,6.581,0,0,1,0,13.16Zm0-12.593a6.014,6.014,0,1,0,5.924,6.013A5.788,5.788,0,0,0,594.583,243.748Z" transform="translate(-463.31 -201.78)" fill="#417dcd"/>
      <path id="Path_14930" data-name="Path 14930" d="M608.151,260.453c1.138,1.977-1.986,2.75-3.182,1.559l.3-.64c1.943,1.679,3.656-1.229.687-.953v-.7c2.718.219,1.191-2.517-.619-.9l-.293-.64c1.476-1.532,4.789.32,2.45,1.851A1.166,1.166,0,0,1,608.151,260.453Z" transform="translate(-475.401 -212.115)" fill="#417dcd"/>
      <path id="Path_14931" data-name="Path 14931" d="M735.357,191.341a6.58,6.58,0,1,1,6.58-6.58,6.58,6.58,0,0,1-6.58,6.58Zm0-12.593a6.013,6.013,0,1,0,6.013,6.013,6.013,6.013,0,0,0-6.013-6.013Z" transform="translate(-564.101 -155.212)" fill="#ccc"/>
      <path id="Path_14932" data-name="Path 14932" d="M749.192,196.741H748.5v.946h-.857v-.946h-2.11v-.653l2.266-3.246h.7v3.212h.687Zm-1.545-.687V194.21l-1.279,1.844Z" transform="translate(-576.109 -165.716)" fill="#ccc"/>
      <path id="Path_14933" data-name="Path 14933" d="M880.963,110.341a6.58,6.58,0,1,1,6.58-6.58A6.58,6.58,0,0,1,880.963,110.341Zm0-12.593a6.013,6.013,0,1,0,6.013,6.013A6.013,6.013,0,0,0,880.963,97.748Z" transform="translate(-668.418 -97.181)" fill="#ccc"/>
      <path id="Path_14934" data-name="Path 14934" d="M894.251,113.689a1.352,1.352,0,0,1,.538.544,1.663,1.663,0,0,1,.19.806,1.606,1.606,0,0,1-.218.841,1.458,1.458,0,0,1-.626.565,2.118,2.118,0,0,1-.946.2,2.726,2.726,0,0,1-.9-.153,2.086,2.086,0,0,1-.728-.412l.293-.64a2.2,2.2,0,0,0,1.348.5.877.877,0,0,0,.691-1.521.911.911,0,0,0-.664-.242,1.377,1.377,0,0,0-.538.106,1.271,1.271,0,0,0-.442.31h-.531v-2.851h3.035v.681h-2.178v1.32a1.5,1.5,0,0,1,.871-.252,1.619,1.619,0,0,1,.8.194Z" transform="translate(-680.726 -107.616)" fill="#ccc"/>
    </g>
    <g id="Group_14887" data-name="Group 14887" transform="translate(5176.117 -4922.581)">
      <path id="Path_14418" data-name="Path 14418" d="M603.662,700.107H599.81l-1.833-14.858h5.685Z" transform="translate(-592.223 -553.26)" fill="#a0616a"/>
      <path id="Path_14419" data-name="Path 14419" d="M754.114,810.308H741.693v-.157a4.835,4.835,0,0,1,4.834-4.834h7.587Z" transform="translate(-741.693 -659.727)" fill="#2f2e41"/>
      <path id="Path_14420" data-name="Path 14420" d="M744.865,693.134l-3.749.883-5.19-14.042,5.534-1.3Z" transform="translate(-685.573 -548.809)" fill="#a0616a"/>
      <path id="Path_14421" data-name="Path 14421" d="M905.043,801.781l-12.09,2.847-.036-.153a4.835,4.835,0,0,1,3.6-5.814h0l7.384-1.739Z" transform="translate(-843.937 -654.047)" fill="#2f2e41"/>
      <path id="Path_14422" data-name="Path 14422" d="M760.66,560.823c.007-.774.237-19.048,5.246-25.957l.074-.1,17.456,2.408-.39,3.835c.768.747,6.807,7.058,8.551,22l18.528,49.761-8.613.783-25.5-54.321L762.52,618.28h-8.539Z" transform="translate(-750.008 -476.646)" fill="#2f2e41"/>
      <path id="Path_14423" data-name="Path 14423" d="M784.539,473.546l1.706-8.958a7.061,7.061,0,0,1-1.485-4.915,6.056,6.056,0,0,1,2.8-4.117l4.423-10.32.06-.035c.3-.176,7.34-4.248,11.179-.406.1.074,9.548,7.578,5.753,17.7l-4.686,14.059Z" transform="translate(-770.687 -414.651)" fill="#ccc"/>
      <path id="Path_14424" data-name="Path 14424" d="M758.709,548.04a3.168,3.168,0,0,0,2.675-4.054l9.134-6.581-5.468-2.08-7.835,6.568a3.185,3.185,0,0,0,1.494,6.147Z" transform="translate(-750.794 -477.025)" fill="#a0616a"/>
      <path id="Path_14425" data-name="Path 14425" d="M771.369,475.775l13.944-10.986-4.146-14.163a5.089,5.089,0,0,1,.514-4.028,4.707,4.707,0,0,1,3.086-2.228c2.387-.505,4.554.831,6.439,3.973l.014.028c.312.762,7.576,18.72,2.029,22.56-5.426,3.756-18.008,9.225-18.134,9.28l-.148.064Z" transform="translate(-761.774 -415.406)" fill="#ccc"/>
      <circle id="Ellipse_3323" data-name="Ellipse 3323" cx="8.447" cy="8.447" r="8.447" transform="translate(19.679 9.514)" fill="#a0616a"/>
      <circle id="Ellipse_3324" data-name="Ellipse 3324" cx="7.473" cy="7.473" r="7.473" transform="translate(33.897)" fill="#2f2e41"/>
      <path id="Path_14426" data-name="Path 14426" d="M865.435,382.627A7.473,7.473,0,0,1,853.9,378.7a7.473,7.473,0,1,0,14.578-3.065A7.471,7.471,0,0,1,865.435,382.627Z" transform="translate(-817.62 -368.966)" fill="#2f2e41"/>
      <path id="Path_14427" data-name="Path 14427" d="M798.37,384.949c1.3-2.336,1.8-3.311,3.486-4.731,1.487-1.256,3.317-1.625,4.793-.435a8.89,8.89,0,1,1-5.272,7.113C800.094,386.715,799.653,385.129,798.37,384.949Z" transform="translate(-780.047 -371.279)" fill="#2f2e41"/>
    </g>
  </g>
</svg>
