<svg id="undraw_online_organizer_re_156n" xmlns="http://www.w3.org/2000/svg" width="235.551" height="150.704" viewBox="0 0 235.551 150.704">
  <path id="Path_15564" data-name="Path 15564" d="M449.589,255.19H295.056a.6.6,0,1,1,0-1.2H449.589a.6.6,0,1,1,0,1.2Z" transform="translate(-278.158 -243.737)" fill="#cacaca"/>
  <ellipse id="Ellipse_3474" data-name="Ellipse 3474" cx="3.516" cy="3.595" rx="3.516" ry="3.595" transform="translate(23.652 0)" fill="#3f3d56"/>
  <ellipse id="Ellipse_3475" data-name="Ellipse 3475" cx="3.516" cy="3.595" rx="3.516" ry="3.595" transform="translate(35.8 0)" fill="#3f3d56"/>
  <ellipse id="Ellipse_3476" data-name="Ellipse 3476" cx="3.516" cy="3.595" rx="3.516" ry="3.595" transform="translate(47.947 0)" fill="#3f3d56"/>
  <path id="Path_15565" data-name="Path 15565" d="M720.868,225.8h-8.629a.653.653,0,1,0,0,1.307h8.629a.653.653,0,1,0,0-1.307Z" transform="translate(-556.75 -224.911)" fill="#3f3d56"/>
  <path id="Path_15566" data-name="Path 15566" d="M720.868,233.186h-8.629a.653.653,0,1,0,0,1.307h8.629a.653.653,0,1,0,0-1.307Z" transform="translate(-556.75 -229.842)" fill="#3f3d56"/>
  <path id="Path_15567" data-name="Path 15567" d="M720.868,240.561h-8.629a.653.653,0,1,0,0,1.307h8.629a.653.653,0,1,0,0-1.307Z" transform="translate(-556.75 -234.768)" fill="#3f3d56"/>
  <path id="Path_15568" data-name="Path 15568" d="M424.217,420.056l.212-76.361a5.836,5.836,0,0,1,5.846-5.813l57.67.16a5.836,5.836,0,0,1,5.813,5.846l-.212,76.361a5.836,5.836,0,0,1-5.846,5.813l-57.67-.16A5.836,5.836,0,0,1,424.217,420.056Z" transform="translate(-364.823 -299.766)" fill="#e6e6e6"/>
  <path id="Path_15569" data-name="Path 15569" d="M437.729,406.226l.136-49.092a5.466,5.466,0,0,1,5.475-5.444l49.562.137a5.466,5.466,0,0,1,5.445,5.475l-.188,67.951a5.466,5.466,0,0,1-5.475,5.444l-30.7-.085a24.347,24.347,0,0,1-24.252-24.386Z" transform="translate(-373.847 -308.989)" fill="#fff"/>
  <path id="Path_15570" data-name="Path 15570" d="M504.712,457.753H466.066a2.319,2.319,0,1,1,0-4.637h38.646a2.319,2.319,0,1,1,0,4.637Z" transform="translate(-391.224 -376.729)" fill="#3d578b"/>
  <path id="Path_15571" data-name="Path 15571" d="M474.568,419.465h-8.5a2.319,2.319,0,1,1,0-4.637h8.5a2.319,2.319,0,1,1,0,4.637Z" transform="translate(-391.224 -351.157)" fill="#3d578b"/>
  <path id="Path_15572" data-name="Path 15572" d="M504.712,519.14H466.066a2.319,2.319,0,1,1,0-4.637h38.646a2.319,2.319,0,1,1,0,4.638Z" transform="translate(-391.224 -417.728)" fill="#3d578b"/>
  <path id="Path_15573" data-name="Path 15573" d="M504.712,488.446H466.066a2.319,2.319,0,1,1,0-4.637h38.646a2.319,2.319,0,1,1,0,4.637Z" transform="translate(-391.224 -397.228)" fill="#3d578b"/>
  <circle id="Ellipse_3477" data-name="Ellipse 3477" cx="9.226" cy="9.226" r="9.226" transform="translate(0 132.251)" fill="#141f4e"/>
  <path id="Path_15574" data-name="Path 15574" d="M262.249,644.246a1.026,1.026,0,0,1-.821-.411l-2.517-3.356a1.026,1.026,0,1,1,1.642-1.232l1.647,2.2,4.229-6.344a1.026,1.026,0,1,1,1.708,1.139l-5.034,7.551a1.027,1.027,0,0,1-.825.457Z" transform="translate(-254.281 -497.966)" fill="#fff"/>
  <rect id="Rectangle_4589" data-name="Rectangle 4589" width="0.664" height="1.993" transform="translate(8.644 121.261)" fill="#2f2e41"/>
  <path id="Path_15575" data-name="Path 15575" d="M272.076,507.91h-.664v-3.8h.664Zm0-7.61h-.664v-3.8h.664Zm0-7.61h-.664v-3.805h.664Zm0-7.61h-.664v-3.8h.664Zm0-7.61h-.664v-3.8h.664Z" transform="translate(-262.767 -390.454)" fill="#2f2e41"/>
  <path id="Path_15576" data-name="Path 15576" d="M26.692,234.416h-.664v-2.325h2.325v.664H26.692Z" transform="translate(-17.384 -155.009)" fill="#2f2e41"/>
  <path id="Path_15577" data-name="Path 15577" d="M317.646,455.874h-3.919v-.664h3.919Zm-7.838,0h-3.919v-.664h3.919Zm-7.838,0H298.05v-.664h3.919Zm-7.838,0h-3.919v-.664h3.919Z" transform="translate(-275.323 -378.128)" fill="#2f2e41"/>
  <rect id="Rectangle_4590" data-name="Rectangle 4590" width="1.993" height="0.664" transform="translate(46.241 77.082)" fill="#2f2e41"/>
  <rect id="Rectangle_4591" data-name="Rectangle 4591" width="0.664" height="1.993" transform="translate(222.302 101.218)" fill="#2f2e41"/>
  <path id="Path_15578" data-name="Path 15578" d="M915.388,488.431h-.664v-4.362h.664Zm0-8.724h-.664v-4.362h.664Z" transform="translate(-692.422 -391.575)" fill="#2f2e41"/>
  <path id="Path_15579" data-name="Path 15579" d="M666.665,234.416H666v-1.661h-1.66v-.664h2.325Z" transform="translate(-443.699 -155.009)" fill="#2f2e41"/>
  <path id="Path_15580" data-name="Path 15580" d="M756.143,455.874h-4.129v-.664h4.129Zm-8.258,0h-4.129v-.664h4.129Zm-8.258,0H735.5v-.664h4.129Zm-8.258,0h-4.129v-.664h4.129Zm-8.258,0h-4.129v-.664h4.129Zm-8.258,0h-4.129v-.664h4.129Zm-8.258,0h-4.129v-.664H706.6Zm-8.258,0H694.21v-.664h4.129Zm-8.258,0h-4.129v-.664h4.129Z" transform="translate(-539.63 -378.128)" fill="#2f2e41"/>
  <rect id="Rectangle_4592" data-name="Rectangle 4592" width="1.993" height="0.664" transform="translate(140.201 77.082)" fill="#2f2e41"/>
  <circle id="Ellipse_3478" data-name="Ellipse 3478" cx="9.226" cy="9.226" r="9.226" transform="translate(213.616 109.003)" fill="#3d578b"/>
  <path id="Path_15581" data-name="Path 15581" d="M910.111,571.045l1.815-1.815a1.283,1.283,0,0,0-1.815-1.815L908.3,569.23l-1.815-1.815a1.283,1.283,0,0,0-1.815,1.815l1.815,1.815-1.815,1.815a1.283,1.283,0,0,0,1.815,1.815l1.815-1.815,1.815,1.815a1.283,1.283,0,0,0,1.815-1.815Z" transform="translate(-685.453 -452.816)" fill="#fff"/>
  <path id="Path_15582" data-name="Path 15582" d="M593.025,189.762l1.993,11.828,18.931-10.168Z" transform="translate(-396.069 -126.738)" fill="#2f2e41"/>
  <path id="Path_15583" data-name="Path 15583" d="M575.7,379.964l-3.966-.162-1.263-15.373,5.853.239Z" transform="translate(-381.006 -243.394)" fill="#ffb6b6"/>
  <path id="Path_15584" data-name="Path 15584" d="M810.215,434.236c7.194-2.193,8.67-11.57,12.621-13.617-.01-4.952.189-20.31-4.754-20.017-2.753.163-18.093,28.24-18.75,32.892-1.22,8.631,5.294,30.658,4.538,32.171l7.564.479.044-.6c.12-1.615,1.326-6.484-.05-7.339l-.521-.324h0c0-1.679.371-4.539-1.143-5.264h0a.152.152,0,0,1-.064-.217Z" transform="translate(-615.251 -341.653)" fill="#2f2e41"/>
  <path id="Path_15585" data-name="Path 15585" d="M811.511,626.781l-2.652.156-.621-2.476-1.065,2.575-7.034.415a1.584,1.584,0,0,1-1.068-2.829l5.388-4.211-.149-2.531,5.929,0Z" transform="translate(-614.773 -486.772)" fill="#2f2e41"/>
  <path id="Path_15586" data-name="Path 15586" d="M677.229,297.095l3.956.32,3.119-15.106-5.839-.473Z" transform="translate(-452.307 -188.232)" fill="#ffb6b6"/>
  <path id="Path_15587" data-name="Path 15587" d="M875.227,407.623c-3.548,6.235-9.9,7.724-16.477,8.815-2.862-4.042-7.224-9.677-3.026-12.3,2.338-1.463,22.606-13.3,25.735-9.792,8.169,9.15,2.341,38.592,2.843,37.942l-6.47-.094-.381-.46a4.351,4.351,0,0,1-.664-4.458l.237-.566h0a4.35,4.35,0,0,1-.266-4.64l.082-.148Z" transform="translate(-651.856 -337.044)" fill="#2f2e41"/>
  <path id="Path_15588" data-name="Path 15588" d="M917.591,534.31l5.886.715-.455,2.495,4.838,4.833a1.584,1.584,0,0,1-1.4,2.679l-6.932-1.265-.745-2.685-.917,2.382-2.614-.477Z" transform="translate(-692.773 -430.957)" fill="#2f2e41"/>
  <path id="Path_15589" data-name="Path 15589" d="M842.855,285.881H840.14a3.43,3.43,0,0,0-2.82,1.478l-1.966,2.84-4.9.891a8.6,8.6,0,0,0-3.514,10.378c3.466,9.066,5.14,26.059,1.77,33.567,0,0,20.44,1.852,25.573-4.318s1-36.2,1-36.2l-7.639-4.318-1.966-2.84A3.43,3.43,0,0,0,842.855,285.881Z" transform="translate(-633.415 -265.036)" fill="#35588f"/>
  <path id="Path_15590" data-name="Path 15590" d="M906.153,403.061a2.283,2.283,0,0,0-.4-3.478l4.475-14.713-4.982-2.989-2.765,18.477a2.3,2.3,0,0,0,3.671,2.7Z" transform="translate(-684.046 -329.153)" fill="#ffb6b6"/>
  <path id="Path_15591" data-name="Path 15591" d="M900.57,337.55l-5.978-2.325.255-2.985-7.1-15.549a5.756,5.756,0,0,1,3.84-7.976h0a5.762,5.762,0,0,1,6.98,4.189l4.668,18.68C903.773,334.483,903.162,336.648,900.57,337.55Z" transform="translate(-674.055 -280.172)" fill="#35588f"/>
  <path id="Path_15592" data-name="Path 15592" d="M861.7,238.227a10.146,10.146,0,0,0-20.293,0v6.36a1.364,1.364,0,0,0,1.362,1.362h.249a9.732,9.732,0,0,0,.521-2.554,9.121,9.121,0,0,1,1.182,2.554h15.613a1.366,1.366,0,0,0,1.365-1.362A6.988,6.988,0,0,0,861.7,238.227Z" transform="translate(-643.456 -226.433)" fill="#2f2e41"/>
  <circle id="Ellipse_3479" data-name="Ellipse 3479" cx="7.439" cy="7.439" r="7.439" transform="translate(200.251 4.576)" fill="#ffb8b8"/>
  <path id="Path_15593" data-name="Path 15593" d="M847.344,241.308a.757.757,0,0,1-.177-.6l.881-6.136a.758.758,0,0,1,.428-.581,15.357,15.357,0,0,1,13.556-.008.763.763,0,0,1,.433.617l.92,4.815a.759.759,0,0,1-.193.581c-.143.157-.343,3.618-.556,3.618.18-2.062-.255-3.049-1.828-2.041a.76.76,0,0,1-.686-.437l-.644-1.379a.454.454,0,0,0-.862.136l-.127,1.017a.758.758,0,0,1-.751.663c-2.629,1.3-6.076.953-9.821,0a.757.757,0,0,1-.572-.261Z" transform="translate(-647.297 -229.322)" fill="#2f2e41"/>
  <path id="Path_15594" data-name="Path 15594" d="M860.9,351.135H848.713a1.577,1.577,0,0,1-1.575-1.575v-13.1a1.576,1.576,0,0,1,1.575-1.575H860.9a1.576,1.576,0,0,1,1.575,1.575v13.1A1.576,1.576,0,0,1,860.9,351.135Z" transform="translate(-647.283 -297.762)" fill="#3f3d56"/>
  <circle id="Ellipse_3480" data-name="Ellipse 3480" cx="0.913" cy="0.913" r="0.913" transform="translate(200.86 38.123)" fill="#e6e6e6"/>
  <circle id="Ellipse_3481" data-name="Ellipse 3481" cx="0.548" cy="0.548" r="0.548" transform="translate(201.225 38.488)" fill="#3f3d56"/>
  <path id="Path_15595" data-name="Path 15595" d="M861.245,347.853A2.77,2.77,0,0,1,857,347.7l-10.93,3.026-1.661-3.653,13.217-3.4a2.785,2.785,0,0,1,3.619,4.183Z" transform="translate(-645.46 -303.313)" fill="#ffb8b8"/>
  <path id="Path_15596" data-name="Path 15596" d="M825.953,324.685l-3.067.979c-3.335,3.524-4.516.967-8.446.7-.74-.05-1.319-.657-1.72-1.8a7.06,7.06,0,0,1,.154-4.947l5.46-13.685,2.285-1.872,3.191,3.824L821.36,318.4l4.022,2.05Z" transform="translate(-624.045 -277.177)" fill="#35588f"/>
</svg>
