<svg xmlns="http://www.w3.org/2000/svg" width="17.638" height="22.801" viewBox="0 0 17.638 22.801">
  <g id="place" transform="translate(-48.886)">
    <g id="Group_4931" data-name="Group 4931" transform="translate(48.886)">
      <g id="Group_4930" data-name="Group 4930" transform="translate(0)">
        <path id="Path_5771" data-name="Path 5771" d="M64.941,3.964a8.586,8.586,0,0,0-14.472,0,9.565,9.565,0,0,0-1.025,8.483,7.322,7.322,0,0,0,1.278,2.206l6.4,7.866a.74.74,0,0,0,1.161,0l6.4-7.864a7.33,7.33,0,0,0,1.278-2.2A9.567,9.567,0,0,0,64.941,3.964Zm-.4,7.93a5.741,5.741,0,0,1-1.005,1.723l0,0L57.7,20.774l-5.826-7.157a5.745,5.745,0,0,1-1.007-1.728,7.912,7.912,0,0,1,.851-7.018,7.1,7.1,0,0,1,11.964,0A7.913,7.913,0,0,1,64.537,11.894Z" transform="translate(-48.886)" fill="#1f2551"/>
      </g>
    </g>
    <g id="Group_4933" data-name="Group 4933" transform="translate(53.436 4.864)">
      <g id="Group_4932" data-name="Group 4932">
        <path id="Path_5772" data-name="Path 5772" d="M160.023,106.219a4.269,4.269,0,1,0,4.269,4.269A4.274,4.274,0,0,0,160.023,106.219Zm0,7.013a2.744,2.744,0,1,1,2.744-2.744A2.747,2.747,0,0,1,160.023,113.232Z" transform="translate(-155.754 -106.219)" fill="#1f2551"/>
      </g>
    </g>
  </g>
</svg>
