<svg width="315" height="194" viewBox="0 0 315 194" fill="none" xmlns="http://www.w3.org/2000/svg">
<g clip-path="url(#clip0_2406_63527)">
<path d="M263.623 158.509H51.3776C46.8385 158.509 43.1455 154.816 43.1455 150.277V124.732H271.855V150.277C271.855 154.816 268.162 158.509 263.623 158.509Z" fill="#F3F7FA"/>
<path d="M184.97 154.236H130.845V192.897H184.97V154.236Z" fill="#F3F7FA"/>
<path d="M188.224 188.014H127.588V192.897H188.224V188.014Z" fill="#E6E6E6"/>
<path d="M271.651 135.516H43.1455V5.64929C43.1455 2.53433 45.6798 0 48.7948 0H266.002C269.117 0 271.651 2.53433 271.651 5.64929V135.516Z" fill="#3F3D56"/>
<path d="M157.907 4.67996C158.806 4.67996 159.535 3.95116 159.535 3.05214C159.535 2.15312 158.806 1.42432 157.907 1.42432C157.008 1.42432 156.279 2.15312 156.279 3.05214C156.279 3.95116 157.008 4.67996 157.907 4.67996Z" fill="white"/>
<path d="M266.157 5.90088H48.4355V128.395H266.157V5.90088Z" fill="white"/>
<path d="M240.676 98.4467C250.928 98.4467 259.239 90.1358 259.239 79.8837C259.239 69.6317 250.928 61.3208 240.676 61.3208C230.424 61.3208 222.113 69.6317 222.113 79.8837C222.113 90.1358 230.424 98.4467 240.676 98.4467Z" fill="#1F2551"/>
<path d="M315 193.018C315 193.206 314.847 193.359 314.658 193.359H0V192.676H314.658C314.847 192.676 315 192.829 315 193.018Z" fill="#E6E6E6"/>
<path d="M53.2918 77.1847L50.9463 85.3941L60.3284 85.9805L59.742 76.3052L53.2918 77.1847Z" fill="#FFB6B6"/>
<path d="M92.2672 110.696C94.4936 111.456 96.6904 110.924 97.1739 109.507C97.6574 108.09 96.2445 106.325 94.0172 105.565C93.1317 105.25 92.1834 105.15 91.2516 105.276L81.7776 102.175L80.417 106.652L89.9012 109.234C90.5617 109.903 91.373 110.405 92.2672 110.696Z" fill="#FFB6B6"/>
<path d="M60.8301 83.5732C60.8301 83.5732 54.9572 90.6385 58.3548 93.5618C61.7523 96.485 76.9247 107.307 76.9247 107.307L82.8396 108.228L84.3525 102.51L70.9963 92.6132L60.8301 83.5732Z" fill="#86BCE3"/>
<path d="M76.3916 158.786L79.6554 170.882L84.8391 169.922L83.6872 157.442L76.3916 158.786Z" fill="#FFB6B6"/>
<path d="M80.4236 170.113L78.5037 170.497L76.9678 175.681C76.9678 175.681 79.4636 176.641 79.4636 178.561C79.4636 180.481 80.4236 181.825 84.2633 181.633C88.1031 181.441 88.4871 181.633 88.4871 180.097C88.4871 178.561 85.6072 170.497 85.6072 170.497C85.6072 170.497 85.7992 167.234 83.4954 167.426C81.1915 167.618 80.4236 170.113 80.4236 170.113Z" fill="#2F2E41"/>
<path d="M58.8418 158.598L59.0645 171.124L64.326 171.454L66.2451 159.069L58.8418 158.598Z" fill="#FFB6B6"/>
<path d="M59.9957 170.565L58.0401 170.471L55.2891 175.125C55.2891 175.125 57.4763 176.663 57.0092 178.526C56.542 180.388 57.1461 181.925 60.9172 182.673C64.6883 183.421 65.014 183.701 65.3877 182.211C65.7615 180.721 64.9302 172.199 64.9302 172.199C64.9302 172.199 65.9105 169.08 63.6292 168.706C61.3479 168.332 59.9957 170.565 59.9957 170.565Z" fill="#2F2E41"/>
<path d="M61.0331 83.7186L50.6657 82.9507L48.3618 85.8305C48.3618 85.8305 47.2099 105.221 47.9779 107.141C48.7458 109.061 48.1698 120.004 48.1698 120.004L74.3052 118.181L68.5206 104.261L68.7126 96.1979L63.5289 86.4065L61.0331 83.7186Z" fill="#86BCE3"/>
<path d="M49.322 115.973C49.322 115.973 45.0982 122.116 46.6341 125.38C48.17 128.644 58.5882 147.595 58.5882 147.595L57.2443 165.258L66.4597 164.49L67.9957 145.483L61.6092 129.988L62.7611 128.26L72.3606 139.971L75.8163 160.322L85.0318 159.17L80.0401 129.412L74.2063 117.942L49.322 115.973Z" fill="#2F2E41"/>
<path d="M48.4188 71.9611C50.3846 71.9611 51.9782 70.3675 51.9782 68.4017C51.9782 66.4359 50.3846 64.8423 48.4188 64.8423C46.453 64.8423 44.8594 66.4359 44.8594 68.4017C44.8594 70.3675 46.453 71.9611 48.4188 71.9611Z" fill="#2F2E41"/>
<path d="M56.6392 81.5972C60.9202 81.5972 64.3907 78.1268 64.3907 73.8457C64.3907 69.5647 60.9202 66.0942 56.6392 66.0942C52.3582 66.0942 48.8877 69.5647 48.8877 73.8457C48.8877 78.1268 52.3582 81.5972 56.6392 81.5972Z" fill="#FFB6B6"/>
<path d="M54.1809 82.3441C53.357 82.7805 51.0389 81.1782 50.2094 79.0313C49.6758 77.6501 48.3785 77.8799 47.5507 76.1574C47.0683 75.1537 48.5087 74.1719 48.2712 73.3041C47.8407 71.7317 48.3804 70.325 48.4491 70.1527C49.0427 68.665 49.9176 68.6996 50.6232 66.968C51.0479 65.9255 50.7754 65.8034 51.1325 65.2701C52.1629 63.731 55.1527 63.6724 57.2614 64.4003C57.9911 64.6522 59.7487 63.3025 61.1755 64.2803C62.8566 65.4322 63.9749 68.7528 63.7176 69.3612C63.5613 69.7309 62.691 69.3543 60.8809 69.6388C59.2051 69.9022 61.4169 71.1542 59.531 71.581C57.3008 72.0857 56.629 71.6251 56.011 72.3307C55.3577 73.0765 55.2369 74.586 55.833 75.4821C56.1288 75.9268 56.5103 76.0837 56.4625 76.3931C56.3753 76.9581 55.8734 76.651 55.7088 77.2504C55.5174 77.9476 57.1059 78.8616 56.9678 79.0725C56.94 79.115 56.821 79.161 55.2699 78.5632C54.6506 78.3245 54.4117 78.1184 54.3423 78.1946C54.2298 78.3181 53.6729 79.5559 54.3057 80.0824C55.2904 80.9018 54.6079 81.2272 55.0568 81.8688C55.5199 82.5307 54.7045 82.0667 54.1809 82.3441Z" fill="#2F2E41"/>
<path d="M55.9962 127.131C57.2332 129.132 59.2685 130.116 60.5418 129.329C61.8152 128.541 61.8443 126.281 60.6066 124.279C60.1231 123.473 59.4535 122.794 58.6539 122.3L53.3053 113.887L49.4111 116.481L55.0973 124.499C55.1824 125.436 55.4906 126.338 55.9962 127.131Z" fill="#FFB6B6"/>
<path d="M48.9376 86.2148C48.9376 86.2148 39.9142 87.9427 40.6821 92.3585C41.4501 96.7742 46.2975 114.769 46.2975 114.769L50.2815 119.237L55.0812 115.781L51.0495 99.654L48.9376 86.2148Z" fill="#86BCE3"/>
<path d="M262.069 89.9021C261.714 89.3037 260.179 89.9444 259.897 89.4014C259.615 88.8603 261.042 88.0359 261.857 86.1526C262.004 85.813 262.93 83.6728 262.244 83.0124C260.945 81.7607 254.999 86.9264 252.918 85.2359C252.461 84.8649 252.142 84.1243 250.76 82.9219C250.21 82.4436 249.877 82.2276 249.556 82.3079C249.099 82.4219 249.063 83.033 248.573 84.2345C247.839 86.0364 247.405 85.9276 246.977 87.3652C246.659 88.4324 246.732 89.0529 246.358 89.1737C245.83 89.3448 245.343 88.2128 244.673 88.3142C243.989 88.4176 243.575 89.7356 243.445 90.7224C243.2 92.5742 243.88 93.7961 244.257 95.081C244.666 96.4773 244.909 98.6009 243.963 101.607L234.601 127.987C236.668 122.574 242.653 107.735 245.167 102.221C245.893 100.629 246.695 99.0146 248.341 98.3774C249.926 97.7638 252.102 98.1302 254.877 97.4617C255.201 97.3837 256.1 97.1549 256.213 96.626C256.307 96.1887 255.778 95.9447 255.859 95.5352C255.968 94.9859 257.008 94.9791 258.286 94.3454C259.187 93.8985 259.749 93.367 260.232 92.91C260.377 92.7722 262.541 90.6986 262.069 89.9021Z" fill="#E6E6E6"/>
<path d="M225.234 103.789C224.837 103.791 224.709 104.729 224.361 104.711C224.014 104.693 224.021 103.755 223.332 102.811C223.208 102.641 222.425 101.569 221.903 101.715C220.913 101.992 221.733 106.401 220.303 106.934C219.989 107.051 219.534 106.994 218.545 107.326C218.151 107.458 217.949 107.558 217.896 107.74C217.82 107.997 218.11 108.191 218.558 108.778C219.23 109.658 219.052 109.84 219.634 110.464C220.066 110.928 220.392 111.072 220.343 111.29C220.274 111.599 219.578 111.511 219.435 111.869C219.288 112.235 219.816 112.818 220.262 113.167C221.101 113.821 221.897 113.84 222.636 114.026C223.439 114.228 224.552 114.721 225.754 116.053L236 128.259C233.94 125.683 228.384 118.464 226.403 115.639C225.831 114.823 225.27 113.964 225.432 112.972C225.588 112.017 226.396 111.055 226.869 109.5C226.924 109.319 227.071 108.811 226.844 108.603C226.656 108.431 226.384 108.62 226.206 108.462C225.968 108.25 226.265 107.738 226.323 106.928C226.364 106.356 226.265 105.928 226.18 105.559C226.154 105.447 225.761 103.787 225.234 103.789Z" fill="#E6E6E6"/>
<path d="M233.135 105.563L232.896 103.433L233.006 103.271C233.51 102.525 233.767 101.795 233.77 101.103C233.771 100.993 233.766 100.883 233.76 100.771C233.74 100.327 233.714 99.7743 234.002 99.1305C234.164 98.7715 234.617 97.9405 235.299 98.0433C235.483 98.069 235.622 98.1534 235.727 98.2521C235.742 98.2274 235.758 98.2027 235.775 98.176C235.988 97.852 236.156 97.7132 236.318 97.5795C236.442 97.4766 236.571 97.3707 236.772 97.1197C236.861 97.0097 236.93 96.913 236.988 96.8317C237.164 96.5859 237.395 96.2928 237.801 96.2979C238.235 96.3185 238.462 96.6774 238.613 96.915C238.882 97.3388 239.004 97.6443 239.085 97.8469C239.114 97.9209 239.147 98.0042 239.164 98.0299C239.304 98.2356 240.441 98.0433 240.87 97.9734C241.832 97.8129 242.664 97.6741 243.007 98.2809C243.253 98.7149 243.071 99.2888 242.448 100.032C242.254 100.264 242.048 100.44 241.865 100.578C242.017 100.668 242.153 100.807 242.208 101.025C242.337 101.541 241.894 102.059 240.889 102.565C240.64 102.691 240.304 102.86 239.833 102.941C239.612 102.979 239.412 102.988 239.241 102.994C239.238 103.092 239.215 103.199 239.155 103.309C238.978 103.633 238.611 103.788 238.058 103.751C237.449 103.719 236.947 103.602 236.505 103.501C236.119 103.412 235.786 103.337 235.525 103.355C235.04 103.394 234.667 103.781 234.229 104.284L233.135 105.563Z" fill="#E6E6E6"/>
<path d="M234.241 92.8805L232.242 93.6516L232.058 93.5871C231.207 93.2885 230.437 93.2248 229.767 93.3974C229.66 93.4248 229.555 93.4577 229.448 93.4911C229.023 93.6237 228.495 93.7887 227.8 93.6734C227.411 93.6083 226.492 93.3803 226.419 92.6946C226.397 92.5105 226.444 92.3548 226.512 92.2278C226.485 92.2191 226.457 92.21 226.427 92.2003C226.059 92.0771 225.882 91.9496 225.712 91.8268C225.581 91.7325 225.446 91.6351 225.152 91.5037C225.023 91.4461 224.912 91.4039 224.819 91.3683C224.536 91.2601 224.194 91.1116 224.096 90.7173C224.006 90.2922 224.295 89.9813 224.487 89.7753C224.829 89.4076 225.093 89.2123 225.269 89.0828C225.333 89.0356 225.405 88.9822 225.426 88.9592C225.589 88.7717 225.115 87.7207 224.938 87.3241C224.539 86.434 224.194 85.6639 224.694 85.1782C225.051 84.8303 225.653 84.8613 226.53 85.2746C226.803 85.4035 227.025 85.5583 227.205 85.7005C227.254 85.5308 227.354 85.3642 227.551 85.2557C228.017 84.9994 228.63 85.2974 229.375 86.1406C229.56 86.3497 229.809 86.6318 230.007 87.0663C230.1 87.2711 230.159 87.4617 230.207 87.6256C230.304 87.604 230.413 87.5993 230.535 87.6296C230.893 87.718 231.135 88.034 231.24 88.5787C231.364 89.1758 231.378 89.6902 231.392 90.1439C231.404 90.5399 231.416 90.8808 231.499 91.129C231.66 91.5877 232.13 91.8505 232.727 92.1467L234.241 92.8805Z" fill="#E6E6E6"/>
<path d="M233.135 86.6053L232.896 84.4753L233.006 84.3138C233.51 83.5671 233.767 82.8379 233.77 82.1457C233.771 82.0356 233.766 81.9255 233.76 81.8134C233.74 81.3691 233.714 80.8168 234.002 80.173C234.164 79.814 234.617 78.983 235.299 79.0858C235.483 79.1115 235.622 79.1959 235.727 79.2946C235.742 79.2699 235.758 79.2452 235.775 79.2185C235.988 78.8945 236.156 78.7557 236.318 78.6219C236.442 78.5191 236.571 78.4132 236.772 78.1622C236.861 78.0521 236.93 77.9555 236.988 77.8742C237.164 77.6284 237.395 77.3353 237.801 77.3404C238.235 77.361 238.462 77.7199 238.613 77.9575C238.882 78.3813 239.004 78.6867 239.085 78.8894C239.114 78.9634 239.147 79.0467 239.164 79.0724C239.304 79.2781 240.441 79.0858 240.87 79.0158C241.832 78.8554 242.664 78.7166 243.007 79.3234C243.253 79.7574 243.071 80.3313 242.448 81.075C242.254 81.3064 242.048 81.4822 241.865 81.6201C242.017 81.7106 242.153 81.8494 242.208 82.0675C242.337 82.5838 241.894 83.1012 240.889 83.6072C240.64 83.7337 240.304 83.9024 239.833 83.9836C239.612 84.0217 239.412 84.031 239.241 84.0361C239.238 84.1348 239.215 84.2418 239.155 84.3519C238.978 84.6758 238.611 84.8301 238.058 84.7931C237.449 84.7612 236.947 84.645 236.505 84.5432C236.119 84.4547 235.786 84.3796 235.525 84.3971C235.04 84.4362 234.667 84.8239 234.229 85.3269L233.135 86.6053Z" fill="#E6E6E6"/>
<path d="M235.314 127.952L234.867 127.672L234.347 127.732C234.339 127.684 234.31 127.572 234.268 127.399C234.035 126.446 233.325 123.548 232.732 118.983C232.319 115.797 232.085 112.521 232.036 109.245C231.988 105.964 232.143 103.48 232.268 101.484C232.362 99.9782 232.476 98.5445 232.588 97.1477C232.886 93.4163 233.168 89.8915 232.958 85.9893C232.912 85.1182 232.815 83.3049 231.756 81.3754C231.141 80.2563 230.295 79.2628 229.239 78.4235L229.895 77.5986C231.06 78.5264 231.997 79.6269 232.679 80.8693C233.854 83.0087 233.96 84.9845 234.011 85.9338C234.223 89.9049 233.939 93.4636 233.638 97.2311C233.527 98.6227 233.412 100.05 233.319 101.55C233.195 103.528 233.042 105.99 233.09 109.229C233.137 112.466 233.368 115.701 233.776 118.848C234.361 123.355 235.061 126.21 235.291 127.148C235.414 127.649 235.439 127.753 235.314 127.952Z" fill="#E6E6E6"/>
<path d="M227.308 80.0966C227.265 80.0966 227.221 80.0956 227.177 80.0925C226.28 80.0442 225.45 79.5073 224.708 78.4973C224.361 78.0221 224.183 77.4801 223.828 76.3991C223.773 76.2325 223.505 75.387 223.343 74.2238C223.236 73.4637 223.25 73.1459 223.401 72.8651C223.568 72.5524 223.838 72.3344 224.143 72.1873C224.129 72.0865 224.14 71.9826 224.184 71.8767C224.363 71.4375 224.84 71.4951 225.099 71.5229C225.229 71.5393 225.392 71.5609 225.568 71.5517C225.845 71.5383 225.993 71.456 226.219 71.3326C226.434 71.2143 226.702 71.0672 227.1 70.986C227.883 70.8225 228.54 71.0446 228.757 71.1176C229.896 71.4972 230.457 72.3827 231.107 73.4081C231.237 73.6138 231.682 74.3626 231.975 75.3891C232.187 76.1296 232.157 76.4587 232.094 76.7035C231.964 77.2065 231.658 77.4945 230.881 78.1301C230.069 78.7955 229.662 79.1288 229.312 79.3314C228.498 79.8014 227.987 80.0966 227.308 80.0966Z" fill="#E6E6E6"/>
<path d="M180.845 109.35H98.2061C94.8793 109.35 92.1729 106.644 92.1729 103.317V40.8281C92.1729 37.5016 94.8793 34.7949 98.2061 34.7949H180.845C184.172 34.7949 186.878 37.5016 186.878 40.8281V103.317C186.878 106.644 184.172 109.35 180.845 109.35Z" fill="white"/>
<path d="M180.845 109.35H98.2061C94.8793 109.35 92.1729 106.644 92.1729 103.317V40.8281C92.1729 37.5016 94.8793 34.7949 98.2061 34.7949H180.845C184.172 34.7949 186.878 37.5016 186.878 40.8281V103.317C186.878 106.644 184.172 109.35 180.845 109.35ZM98.2061 35.8024C95.4349 35.8024 93.1804 38.057 93.1804 40.8281V103.317C93.1804 106.088 95.4349 108.343 98.2061 108.343H180.845C183.616 108.343 185.871 106.088 185.871 103.317V40.8281C185.871 38.057 183.616 35.8024 180.845 35.8024H98.2061Z" fill="#3F3D56"/>
<path d="M171.765 42.3516C172.6 42.3516 173.276 41.675 173.276 40.8404C173.276 40.0057 172.6 39.3291 171.765 39.3291C170.931 39.3291 170.254 40.0057 170.254 40.8404C170.254 41.675 170.931 42.3516 171.765 42.3516Z" fill="#3F3D56"/>
<path d="M175.795 42.3516C176.63 42.3516 177.307 41.675 177.307 40.8404C177.307 40.0057 176.63 39.3291 175.795 39.3291C174.961 39.3291 174.284 40.0057 174.284 40.8404C174.284 41.675 174.961 42.3516 175.795 42.3516Z" fill="#3F3D56"/>
<path d="M179.827 42.3516C180.661 42.3516 181.338 41.675 181.338 40.8404C181.338 40.0057 180.661 39.3291 179.827 39.3291C178.992 39.3291 178.315 40.0057 178.315 40.8404C178.315 41.675 178.992 42.3516 179.827 42.3516Z" fill="#3F3D56"/>
<path d="M100.736 65.2725C100.319 65.2725 99.9805 65.6114 99.9805 66.0281C99.9805 66.2313 100.059 66.4192 100.201 66.5579C100.345 66.705 100.533 66.7837 100.736 66.7837H178.818C179.234 66.7837 179.573 66.4448 179.573 66.0281C179.573 65.8249 179.495 65.637 179.352 65.4983C179.209 65.3512 179.021 65.2725 178.818 65.2725H100.736Z" fill="#E6E6E6"/>
<path d="M177.559 61.2419H167.484C166.373 61.2419 165.469 60.3382 165.469 59.2269C165.469 58.1156 166.373 57.2119 167.484 57.2119H177.559C178.67 57.2119 179.574 58.1156 179.574 59.2269C179.574 60.3382 178.67 61.2419 177.559 61.2419Z" fill="#E6E6E6"/>
<path d="M111.568 50.6628H101.493C100.381 50.6628 99.4775 49.7591 99.4775 48.6478C99.4775 47.5365 100.381 46.6328 101.493 46.6328H111.568C112.679 46.6328 113.583 47.5365 113.583 48.6478C113.583 49.7591 112.679 50.6628 111.568 50.6628Z" fill="#E6E6E6"/>
<path d="M100.736 87.9409C100.319 87.9409 99.9805 88.2799 99.9805 88.6965C99.9805 88.8997 100.059 89.0876 100.201 89.2264C100.345 89.3735 100.533 89.4522 100.736 89.4522H178.818C179.234 89.4522 179.573 89.1132 179.573 88.6965C179.573 88.4934 179.495 88.3055 179.352 88.1667C179.209 88.0196 179.021 87.9409 178.818 87.9409H100.736Z" fill="#E6E6E6"/>
<path d="M125.925 87.689V89.704H100.737C100.46 89.704 100.208 89.5931 100.027 89.4067C99.8403 89.2254 99.7295 88.9735 99.7295 88.6965C99.7295 88.1423 100.183 87.689 100.737 87.689H125.925Z" fill="#1F2551"/>
<path d="M177.559 83.9109H167.484C166.373 83.9109 165.469 83.0072 165.469 81.8959C165.469 80.7846 166.373 79.8809 167.484 79.8809H177.559C178.67 79.8809 179.574 80.7846 179.574 81.8959C179.574 83.0072 178.67 83.9109 177.559 83.9109Z" fill="#E6E6E6"/>
</g>
<defs>
<clipPath id="clip0_2406_63527">
<rect width="315" height="193.36" fill="white"/>
</clipPath>
</defs>
</svg>
