<svg xmlns="http://www.w3.org/2000/svg" width="17.271" height="25.673" viewBox="0 0 17.271 25.673">
  <g id="Group_15172" data-name="Group 15172" transform="translate(-790.392 -123.417)">
    <g id="notification" transform="translate(791 124.017)">
      <path id="Path_3191" data-name="Path 3191" d="M184.9,465.044a3.7,3.7,0,0,0,6.768,0Z" transform="translate(-180.261 -442.778)" fill="none" stroke="#1f2251" stroke-width="1.2"/>
      <path id="Path_3192" data-name="Path 3192" d="M199.116,2.338a8.316,8.316,0,0,1,2.84.5V2.726A2.729,2.729,0,0,0,199.229,0H199a2.729,2.729,0,0,0-2.726,2.726v.108A8.332,8.332,0,0,1,199.116,2.338Z" transform="translate(-191.089 0)" fill="none" stroke="#1f2251" stroke-width="1.2"/>
      <path id="Path_3193" data-name="Path 3193" d="M68.458,95.891H53.624a.639.639,0,0,1-.6-.56.747.747,0,0,1,.317-.793,3.77,3.77,0,0,0,.958-1.573,21.618,21.618,0,0,0,1-7.194c0-3.823,2.575-6.934,5.739-6.934s5.727,3.1,5.739,6.906c0,.009,0,.018,0,.028a21.618,21.618,0,0,0,1,7.194,3.769,3.769,0,0,0,.958,1.573.746.746,0,0,1,.317.793A.639.639,0,0,1,68.458,95.891Zm.285-1.348h0Z" transform="translate(-53.013 -75.061)" fill="none" stroke="#1f2251" stroke-width="1.2"/>
    </g>
  </g>
</svg>
