<svg xmlns="http://www.w3.org/2000/svg" width="217" height="201.982" viewBox="0 0 217 201.982">
  <g id="undraw_file_manager_re_ms29" transform="translate(0 0.001)">
    <path id="Path_15526" data-name="Path 15526" d="M884.762,133.948h2.155c1.651-12.674-11.051-22.3-25.621-23.474A31.24,31.24,0,0,1,884.762,133.948Z" transform="translate(-675.669 -109.702)" fill="#f2f2f2"/>
    <path id="Path_15527" data-name="Path 15527" d="M818.818,317.816q-1.829-.022-3.505-.123a14.932,14.932,0,0,0,3.505.123Z" transform="translate(-643.259 -255.756)" fill="#f2f2f2"/>
    <path id="Path_15528" data-name="Path 15528" d="M733.278,138.994c.281-16.695,13.584-30.281,30.281-30.281a36.95,36.95,0,0,1,6.9-.084,31.147,31.147,0,0,0-38.04,30.366c0,15.83.566,29.336,24.467,30.8C744.779,167.955,733.057,152.1,733.278,138.994Z" transform="translate(-584.834 -107.857)" fill="#f2f2f2"/>
    <path id="Path_15529" data-name="Path 15529" d="M860.364,215c-5.474,9.364-26.994,16.231-30.011,29.794a13.815,13.815,0,0,1-3.166.642c.992.012,2.015.008,3.078-.016A31.056,31.056,0,0,0,861.485,215Z" transform="translate(-651.628 -183.375)" fill="#f2f2f2"/>
    <path id="Path_15530" data-name="Path 15530" d="M834.525,204.753a51.268,51.268,0,0,1-4.5-28.133,2.351,2.351,0,0,1,1.478-2.657l18.019-5.034a1.788,1.788,0,0,1,2.165,1.639l4.5,28.133a2.351,2.351,0,0,1-1.478,2.657l-18.019,5.034A1.788,1.788,0,0,1,834.525,204.753Z" transform="translate(-653.356 -150.861)" fill="#f2f2f2"/>
    <ellipse id="Ellipse_3464" data-name="Ellipse 3464" cx="3.67" cy="3.063" rx="3.67" ry="3.063" transform="translate(183.157 24.033) rotate(-82.638)" fill="#f2f2f2"/>
    <path id="Path_15531" data-name="Path 15531" d="M751.8,158.143a51.27,51.27,0,0,1-4.5-28.133,2.352,2.352,0,0,1,1.478-2.657l18.019-5.034a1.788,1.788,0,0,1,2.165,1.639l4.5,28.133a2.351,2.351,0,0,1-1.478,2.657l-18.019,5.034A1.788,1.788,0,0,1,751.8,158.143Z" transform="translate(-595.052 -118.009)" fill="#f2f2f2"/>
    <ellipse id="Ellipse_3465" data-name="Ellipse 3465" cx="3.67" cy="3.063" rx="3.67" ry="3.063" transform="translate(158.74 10.276) rotate(-82.638)" fill="#f2f2f2"/>
    <rect id="Rectangle_4588" data-name="Rectangle 4588" width="181.415" height="0.59" transform="translate(0 133.605)" fill="#3f3d56"/>
    <path id="Path_15532" data-name="Path 15532" d="M430.26,293.3c-.214-.749,2.778,6.116,2.066,6.2a76.291,76.291,0,0,0-12.683,2.952c-.1-.012-.2-.024-.3-.038-.242-.027-.479-.065-.712-.109a11.172,11.172,0,0,1-9.342-10.526c-.006-.074-.006-.151-.006-.224a9.9,9.9,0,0,1,.057-1.077,10.133,10.133,0,0,1,.254-1.449l-.012,0c-2.093-1.966-1.211-5.611,1.456-7.149a9.608,9.608,0,0,1,3.774-1.225,10.119,10.119,0,0,1,1.086-.059H419.3a15.832,15.832,0,0,1,2.138-.31h.006c6.857-.522,12.264,3.657,11.759,8.743,0,.006-.009.012-.012.018-.147.218-.275.425-.389.623s-.2.363-.284.531c-.625,1.3.982,2.933-.084,3.238-1.417.406,3.727,13.74-1.882,13.74C433.283,307.948,430.851,295.365,430.26,293.3Z" transform="translate(-356.467 -229.355)" fill="#2f2e41"/>
    <path id="Path_15533" data-name="Path 15533" d="M355.657,611.526l4.423-.037,1.957-17.456-6.527.055Z" transform="translate(-250.573 -418.692)" fill="#ffb6b6"/>
    <path id="Path_15534" data-name="Path 15534" d="M597.792,762.118a1.98,1.98,0,0,1-1.96,1.995l-8.793.073-1.539-3.12-.565,3.136-3.318.03.838-11.185,1.154-.077,4.708-.325,1.519-.1.027,3.165,7.063,4.791A1.977,1.977,0,0,1,597.792,762.118Z" transform="translate(-478.542 -562.251)" fill="#2f2e41"/>
    <path id="Path_15535" data-name="Path 15535" d="M482.615,565.155c-1.759-.213-6.2-.59-6.2-.59s-2.1-4.374-1.756-5.735,1.166-1.644.393-2.358c-1.883-6.96-1.582-18.265-1.582-18.265s-10.136-4.909-20.4-10.591c-10.033-5.558-20.187-11.854-21.1-15.027a40.421,40.421,0,0,1-1.216-6.928c-.153-1.535-.248-3.04-.307-4.389-.139-3.087-.083-5.369-.083-5.369l12.79-.213,8.471-.195h.885v1.476l2.226,3.784s3.846,4.472,3.394,4.888c-.546.5-.381.953,1.559,1.319a6.3,6.3,0,0,0,1.671.068c3.132-.239,4.442,1.553,4.519,1.945.525,2.772,5.794,8.793,10.729,13.932h0c4.555,4.746,8.823,8.737,8.823,8.737l.242,5.092,1.136,23.806s-2.131-1.193-.227,1.378S484.374,565.365,482.615,565.155Z" transform="translate(-371.926 -381.076)" fill="#2f2e41"/>
    <path id="Path_15536" data-name="Path 15536" d="M499.547,404.878l1.806-4.038-15.061-9.04-2.665,5.959Z" transform="translate(-340.874 -276.152)" fill="#ffb6b6"/>
    <path id="Path_15537" data-name="Path 15537" d="M776.674,509.818a1.98,1.98,0,0,1,1,2.612l-3.591,8.027-3.478.1,2.617,1.818-1.353,3.03-9.824-5.414.41-1.082,1.663-4.417.539-1.424,2.889,1.292,7.295-4.431a1.977,1.977,0,0,1,1.833-.115Z" transform="translate(-605.714 -391.049)" fill="#2f2e41"/>
    <path id="Path_15538" data-name="Path 15538" d="M550.733,472.97c-.01.023-.023.044-.033.063-.823,1.51-2.173,5-2.258,5.22a.032.032,0,0,0,0,.013s-4.456-.23-5.594-1.047.585.478-2.045-1.243c-1.36-.895-6.02-2.292-10.194-3.433-3.883-1.062-7.343-1.9-7.343-1.9s-3.058,2.784-7.489,6.63l0,0c-4.116,3.565-9.419,8.048-14.559,12.062-11,3.237-22.617,6.041-25.52,4.465a40.42,40.42,0,0,1-5.785-4l2.99-7.836,7.906-8.28,8.323-3.382,3.256-1.324,4.559-1.85L521.622,457.1l27.334,9.468s-1.9,1.538,1.195.727C553.207,466.5,551.593,471.351,550.733,472.97Z" transform="translate(-399.807 -354.017)" fill="#2f2e41"/>
    <path id="Path_15539" data-name="Path 15539" d="M423.87,356.495h8.855l1.394,3.077,5.93,2.642a5.39,5.39,0,0,1,3.069,3.771c2.135,9.762-.566,11.79-.653,15.008-.3,10.921-1.816,13.094-1.646,15.79.051.807.543,4,2.128,3.7s.73.961,1.105,1.451c.324.424,2.028-.139.958,1.269s3.5,5.245.7,5.245c-5.313,0-15.939,2.657-20.072,2.657s-7.326,1.225-9.15,1.181c-1.112-.027-.764-5.212-.32-9.7.1-1.017,2.053-.99.3-2.875s.31-2.865.314-3.361c0-.527.993-1.855-.241-4.027s-.1-1.273-.15-1.955c-.413-5.256-1.005-11.957-1.005-11.957l-2.61-7.347a7.687,7.687,0,0,1,4.422-9.724l3.062-1.208Z" transform="translate(-359.227 -283.105)" fill="#131f51"/>
    <path id="Path_15540" data-name="Path 15540" d="M615.414,337.226a2.876,2.876,0,0,1-4.281.926l-12.474,7.062-2.8-2.97,14.877-8.28a2.872,2.872,0,0,1,4.68,3.261Z" transform="translate(-488.58 -266.546)" fill="#ffb6b6"/>
    <path id="Path_15541" data-name="Path 15541" d="M471.378,361.993l-.19,2.274,24.834-.319,24.72-13.9-3.614-5.562L495.4,353.624l-15.442.313A8.789,8.789,0,0,0,471.378,361.993Z" transform="translate(-400.71 -274.642)" fill="#131f51"/>
    <circle id="Ellipse_3466" data-name="Ellipse 3466" cx="8.065" cy="8.065" r="8.065" transform="translate(59.607 55.639)" fill="#ffb6b6"/>
    <path id="Path_15542" data-name="Path 15542" d="M435.283,289.1c-.135.071-.266.136-.4.2s-.281.136-.422.2c-2.7,1.225-4.9,1.361-6.232-.4a7.456,7.456,0,0,0-.613-2.686,4.318,4.318,0,0,1-.712,2.686h-2.686c-2.766,1.836-4.187,2.028-2.267,8.055.535,1.68,2.664,11.453,1.826,12.9-.242-.027-2.837-8.073-3.071-8.117a11.172,11.172,0,0,1-9.343-10.526c.006-.266.024-.531.051-.791a14.084,14.084,0,0,1,1.139-1.488,9.031,9.031,0,0,1,.936-4.017,9.24,9.24,0,0,1,3.511-3.82,16.287,16.287,0,0,1,2.805-1.054l.069-.018c.3-.08.6-.153.9-.215a16.555,16.555,0,0,1,1.89-.286c.045,0,.09-.006.132-.006a1.424,1.424,0,0,1,.721.2s0,0,.006,0a1.357,1.357,0,0,1,.4.357,1.373,1.373,0,0,1,.293.853h2.991q.166,0,.332.009a8.019,8.019,0,0,1,7.731,7.539C435.28,288.815,435.283,288.954,435.283,289.1Z" transform="translate(-358.544 -228.988)" fill="#2f2e41"/>
    <circle id="Ellipse_3467" data-name="Ellipse 3467" cx="5.313" cy="5.313" r="5.313" transform="translate(51.36 50.957)" fill="#2f2e41"/>
    <path id="Path_15543" data-name="Path 15543" d="M421.044,269.11a5.25,5.25,0,0,1-5.313,5.313,5.313,5.313,0,0,1-5.313-5.313c0-2.934,3.554-2.965,5.313-5.313C418.22,260.475,420.907,265.155,421.044,269.11Z" transform="translate(-357.877 -216.972)" fill="#2f2e41"/>
    <path id="Path_15544" data-name="Path 15544" d="M469.581,479.228c-.825-12.242,1.59-23.757,8.3-34.309a2.7,2.7,0,0,1,3.253-1.986l25.911,6.267a2.7,2.7,0,0,1,1.986,3.253l-8.3,34.309a2.7,2.7,0,0,1-3.253,1.986l-25.911-6.267A2.7,2.7,0,0,1,469.581,479.228Z" transform="translate(-399.468 -343.975)" fill="#f2f2f2"/>
    <path id="Path_15545" data-name="Path 15545" d="M474.659,481.828a2.7,2.7,0,0,1-1.986-3.253c-.825-12.242,1.59-23.757,8.3-34.309a2.662,2.662,0,0,1,.671-1.21l-.51-.123a2.7,2.7,0,0,0-3.253,1.986c-6.707,10.553-9.123,22.068-8.3,34.309a2.7,2.7,0,0,0,1.986,3.253l25.911,6.267a2.686,2.686,0,0,0,2.582-.776Z" transform="translate(-399.468 -343.975)" opacity="0.2" style="isolation: isolate"/>
    <path id="Path_15546" data-name="Path 15546" d="M523.18,510.99l-17.375-4.151a1.072,1.072,0,0,1,.5-2.085l17.375,4.151a1.072,1.072,0,0,1-.5,2.085Z" transform="translate(-424.529 -387.581)" fill="#fff"/>
    <path id="Path_15547" data-name="Path 15547" d="M514.247,488.382l-3.823-.913a1.072,1.072,0,0,1,.492-2.087l.007,0,3.823.913a1.072,1.072,0,0,1-.5,2.085Z" transform="translate(-427.783 -373.927)" fill="#fff"/>
    <path id="Path_15548" data-name="Path 15548" d="M515.761,542.045l-17.375-4.151a1.072,1.072,0,0,1,.5-2.085l17.375,4.151a1.072,1.072,0,1,1-.492,2.087Z" transform="translate(-419.299 -409.469)" fill="#fff"/>
    <path id="Path_15549" data-name="Path 15549" d="M519.468,526.517l-17.375-4.151a1.072,1.072,0,1,1,.5-2.086h0l17.375,4.151a1.072,1.072,0,0,1-.5,2.085Z" transform="translate(-421.911 -398.524)" fill="#fff"/>
    <circle id="Ellipse_3468" data-name="Ellipse 3468" cx="4.469" cy="4.469" r="4.469" transform="translate(89.414 97.525)" fill="#3f3d56"/>
    <path id="Path_15550" data-name="Path 15550" d="M455.579,527.894a2.876,2.876,0,0,1-.871-4.292l-6.9-12.564,3.006-2.763,8.088,14.982a2.872,2.872,0,0,1-3.321,4.637Z" transform="translate(-384.229 -390.083)" fill="#ffb6b6"/>
    <path id="Path_15551" data-name="Path 15551" d="M422.575,384.592l-7.423-.716a2.5,2.5,0,0,0-2.735,2.484v22.088L426,433.344,431.6,429.8l-8.855-21.843Z" transform="translate(-359.287 -302.395)" fill="#161f4e"/>
    <path id="Path_15552" data-name="Path 15552" d="M644.728,300.527c1.721-12.148,6.462-22.916,15.2-31.856a2.7,2.7,0,0,1,3.593-1.271l24.058,11.483a2.7,2.7,0,0,1,1.271,3.593l-15.2,31.856a2.7,2.7,0,0,1-3.593,1.271L646,304.12A2.7,2.7,0,0,1,644.728,300.527Z" transform="translate(-522.841 -220.123)" fill="#f2f2f2"/>
    <path id="Path_15553" data-name="Path 15553" d="M649.159,304.12a2.7,2.7,0,0,1-1.271-3.593c1.721-12.148,6.462-22.916,15.2-31.856a2.663,2.663,0,0,1,.906-1.045l-.473-.226a2.7,2.7,0,0,0-3.593,1.271c-8.742,8.94-13.484,19.708-15.2,31.856A2.7,2.7,0,0,0,646,304.12L670.057,315.6a2.686,2.686,0,0,0,2.687-.226Z" transform="translate(-522.841 -220.123)" opacity="0.2" style="isolation: isolate"/>
    <path id="Path_15554" data-name="Path 15554" d="M708.228,337.826l-16.143-7.65a1.072,1.072,0,0,1,.918-1.937l16.143,7.65a1.072,1.072,0,1,1-.918,1.937Z" transform="translate(-555.972 -263.116)" fill="#fff"/>
    <path id="Path_15555" data-name="Path 15555" d="M704.157,313.86l-3.552-1.683a1.072,1.072,0,0,1,.912-1.94l.006,0,3.551,1.683a1.072,1.072,0,1,1-.918,1.937Z" transform="translate(-561.975 -250.429)" fill="#fff"/>
    <path id="Path_15556" data-name="Path 15556" d="M694.555,366.678l-16.143-7.65a1.072,1.072,0,0,1,.918-1.937l16.143,7.65a1.072,1.072,0,0,1-.912,1.94Z" transform="translate(-546.335 -283.452)" fill="#fff"/>
    <path id="Path_15557" data-name="Path 15557" d="M701.388,352.251l-16.143-7.65a1.072,1.072,0,1,1,.916-1.938h0l16.143,7.65a1.072,1.072,0,0,1-.918,1.937Z" transform="translate(-551.15 -273.283)" fill="#fff"/>
    <circle id="Ellipse_3469" data-name="Ellipse 3469" cx="4.469" cy="4.469" r="4.469" transform="translate(147.544 48.303)" fill="#3f3d56"/>
    <path id="Path_15558" data-name="Path 15558" d="M863.869,329.224a62.437,62.437,0,0,1-5.483-34.262,2.864,2.864,0,0,1,1.8-3.235l21.944-6.131a2.177,2.177,0,0,1,2.637,2l5.483,34.262a2.864,2.864,0,0,1-1.8,3.235l-21.944,6.131A2.178,2.178,0,0,1,863.869,329.224Z" transform="translate(-673.288 -233.082)" fill="#f2f2f2"/>
    <path id="Path_15559" data-name="Path 15559" d="M868.641,343.766a2.177,2.177,0,0,1-2.637-2,62.437,62.437,0,0,1-5.483-34.262,3.167,3.167,0,0,1,.1-1.379l-.432.121a2.864,2.864,0,0,0-1.8,3.235,62.438,62.438,0,0,0,5.483,34.262,2.177,2.177,0,0,0,2.637,2l21.944-6.131a2.608,2.608,0,0,0,1.7-1.857Z" transform="translate(-673.288 -247.606)" opacity="0.2" style="isolation: isolate"/>
    <path id="Path_15560" data-name="Path 15560" d="M900.425,349.183l-14.7,4.156a.865.865,0,0,1-1.05-.792,1.139,1.139,0,0,1,.712-1.288l14.7-4.156a.865.865,0,0,1,1.048.794,1.139,1.139,0,0,1-.711,1.285Z" transform="translate(-692.133 -276.465)" fill="#fff"/>
    <path id="Path_15561" data-name="Path 15561" d="M885.813,340.85l-3.233.914a.864.864,0,0,1-1.053-.786,1.14,1.14,0,0,1,.71-1.292l.006,0,3.233-.914a.865.865,0,0,1,1.048.794A1.139,1.139,0,0,1,885.813,340.85Z" transform="translate(-689.912 -270.592)" fill="#fff"/>
    <path id="Path_15562" data-name="Path 15562" d="M905.462,380.15l-14.7,4.156a.865.865,0,0,1-1.049-.794,1.139,1.139,0,0,1,.711-1.285l14.7-4.156a.863.863,0,0,1,1.053.786,1.14,1.14,0,0,1-.71,1.292Z" transform="translate(-695.684 -298.29)" fill="#fff"/>
    <path id="Path_15563" data-name="Path 15563" d="M902.936,364.668l-14.7,4.156a.864.864,0,0,1-1.052-.789,1.139,1.139,0,0,1,.712-1.29h0l14.7-4.156a.865.865,0,0,1,1.049.794A1.139,1.139,0,0,1,902.936,364.668Z" transform="translate(-693.901 -287.38)" fill="#fff"/>
    <ellipse id="Ellipse_3470" data-name="Ellipse 3470" cx="4.469" cy="3.73" rx="4.469" ry="3.73" transform="translate(193.001 59.779) rotate(-82.638)" fill="#3f3d56"/>
  </g>
</svg>
