<svg xmlns="http://www.w3.org/2000/svg" width="399.703" height="276.055" viewBox="0 0 399.703 276.055">
  <g id="undraw_subscribe_vspl" transform="translate(0 0)">
    <path id="Path_13826" data-name="Path 13826" d="M704.174,387.837h-.108L642.13,414.284l-84.741,36.185a2.733,2.733,0,0,1-2.094.011l-87.428-36.271L404.41,387.881l-.1-.043H404.2a3.781,3.781,0,0,0-3.777,3.777V555.626A3.781,3.781,0,0,0,404.2,559.4H704.174a3.781,3.781,0,0,0,3.777-3.777V391.614A3.781,3.781,0,0,0,704.174,387.837Z" transform="translate(-308.249 -283.347)" fill="#fff"/>
    <path id="Path_13827" data-name="Path 13827" d="M708.016,299.732a.537.537,0,0,1-.308-.1L558.5,195.723a2.706,2.706,0,0,0-3.091.005L407.278,299.634a.54.54,0,1,1-.62-.884L554.79,194.845a3.789,3.789,0,0,1,4.327-.007L708.324,298.749a.54.54,0,0,1-.309.982Z" transform="translate(-311.011 -194.163)" fill="#0f1f54"/>
    <path id="Path_13828" data-name="Path 13828" d="M194.121,113.083,335.479,8.319,477.911,120.538,342.763,200.655l-73.374-16.725Z" transform="translate(-89.39 -3.831)" fill="#f2f2f2"/>
    <path id="Path_13829" data-name="Path 13829" d="M512.294,645.134H442.459a3.263,3.263,0,0,1,0-6.525h69.835a3.263,3.263,0,0,1,0,6.525Z" transform="translate(-326.101 -398.824)" fill="#bed4e4"/>
    <path id="Path_13830" data-name="Path 13830" d="M467.514,619.134H442.459a3.263,3.263,0,1,1,0-6.525h25.055a3.263,3.263,0,1,1,0,6.525Z" transform="translate(-326.101 -386.852)" fill="#bed4e4"/>
    <path id="Path_13831" data-name="Path 13831" d="M613.657,373.821a4.082,4.082,0,0,1-1.548-.3l-87.18-36.174V224.114a3.781,3.781,0,0,1,3.777-3.777H695.954a3.781,3.781,0,0,1,3.776,3.777V337.423l-.164.07L615.252,373.5A4.108,4.108,0,0,1,613.657,373.821Z" transform="translate(-365.579 -206.216)" fill="#fff"/>
    <path id="Path_13832" data-name="Path 13832" d="M613.427,373.86a4.355,4.355,0,0,1-1.651-.323l-87.347-36.243V223.884a4.051,4.051,0,0,1,4.046-4.046H695.724a4.051,4.051,0,0,1,4.046,4.046V337.37l-84.643,36.147a4.377,4.377,0,0,1-1.7.342Zm-87.919-37.287,86.68,35.966a3.3,3.3,0,0,0,2.519-.015l83.985-35.866V223.884a2.971,2.971,0,0,0-2.967-2.967H528.475a2.971,2.971,0,0,0-2.967,2.967Z" transform="translate(-365.349 -205.985)" fill="#3f3d56"/>
    <path id="Path_13833" data-name="Path 13833" d="M704.174,387.837h-.108L642.13,414.284l-84.741,36.185a2.733,2.733,0,0,1-2.094.011l-87.428-36.271L404.41,387.881l-.1-.043H404.2a3.781,3.781,0,0,0-3.777,3.777V555.626A3.781,3.781,0,0,0,404.2,559.4H704.174a3.781,3.781,0,0,0,3.777-3.777V391.614A3.781,3.781,0,0,0,704.174,387.837Zm2.7,167.789a2.7,2.7,0,0,1-2.7,2.7H404.2a2.7,2.7,0,0,1-2.7-2.7V391.614a2.7,2.7,0,0,1,2.6-2.7l63.765,26.458,87.013,36.1a3.842,3.842,0,0,0,2.935-.016l84.315-36.007,62.152-26.539a2.706,2.706,0,0,1,2.589,2.7Z" transform="translate(-308.249 -283.347)" fill="#0f1f54"/>
    <path id="Path_13834" data-name="Path 13834" d="M609.894,291.421H550.548a4.316,4.316,0,1,1,0-8.632h59.346a4.316,4.316,0,1,1,0,8.632Z" transform="translate(-375.389 -234.974)" fill="#eff5f9"/>
    <path id="Path_13835" data-name="Path 13835" d="M579.142,257.421H550.548a4.316,4.316,0,1,1,0-8.632h28.594a4.316,4.316,0,1,1,0,8.632Z" transform="translate(-375.389 -219.317)" fill="#bed4e4"/>
    <path id="Path_13836" data-name="Path 13836" d="M688.154,371.421H597.516a4.316,4.316,0,0,1,0-8.632h90.638a4.316,4.316,0,0,1,0,8.632Z" transform="translate(-397.018 -271.813)" fill="#ccc"/>
    <path id="Path_13837" data-name="Path 13837" d="M688.154,408.421H597.516a4.316,4.316,0,0,1,0-8.632h90.638a4.316,4.316,0,0,1,0,8.632Z" transform="translate(-397.018 -288.851)" fill="#ccc"/>
    <path id="Path_13838" data-name="Path 13838" d="M266.477,394.731a2.432,2.432,0,0,1-2.38-1.951l-1.963-9.786a19.962,19.962,0,0,1,39.145-7.851l1.963,9.786a2.43,2.43,0,0,1-1.9,2.858l-34.383,6.9A2.431,2.431,0,0,1,266.477,394.731Z" transform="translate(-244.385 -270.115)" fill="#2f2e41"/>
    <path id="Path_13839" data-name="Path 13839" d="M146.321,480.753h-6.168l-2.933-23.79h9.1Z" transform="translate(-63.188 -210.425)" fill="#a0616a"/>
    <path id="Path_13840" data-name="Path 13840" d="M128.1,497.791h11.9v7.489H120.608A7.489,7.489,0,0,1,128.1,497.791Z" transform="translate(-55.538 -229.226)" fill="#2f2e41"/>
    <path id="Path_13841" data-name="Path 13841" d="M30.121,479.216l-5.679-2.405,6.576-23.051,8.382,3.55Z" transform="translate(-11.255 -208.951)" fill="#a0616a"/>
    <path id="Path_13842" data-name="Path 13842" d="M7.49,0h11.9V7.49H0A7.489,7.489,0,0,1,7.49,0Z" transform="matrix(0.921, 0.39, -0.39, 0.921, 2.921, 261.597)" fill="#2f2e41"/>
    <path id="Path_13852" data-name="Path 13852" d="M13.251,0A13.251,13.251,0,1,1,0,13.251,13.251,13.251,0,0,1,13.251,0Z" transform="translate(24.636 95.662)" fill="#f5d0c6"/>
    <path id="Path_13843" data-name="Path 13843" d="M291.3,471.039l-.136-.441c-3.611-11.737-7.343-23.868-11.08-35.406l-.1-.311.23-.233c5.8-5.9,16.669-8.256,25.281-5.474,8.667,2.8,14.639,10.645,13.893,18.254a19.493,19.493,0,0,0,3.468,12.891l.346.5-.541.282a98.12,98.12,0,0,1-30.9,9.871Z" transform="translate(-252.784 -301.846)" fill="#fff"/>
    <path id="Path_13844" data-name="Path 13844" d="M262.923,594.308a2.689,2.689,0,0,1-1.345-.363l-7.158-4.134a2.683,2.683,0,0,1-1.1-3.478l15.905-37.74,12.156-55.043,22.153-8.055.2.093c23.75,10.91,21.914,89.109,21.305,104.674a2.7,2.7,0,0,1-2.459,2.577l-6.661.87a2.722,2.722,0,0,1-2.918-2.232l-13.6-60.779a.54.54,0,0,0-.444-.468.527.527,0,0,0-.562.265l-33.118,62.43a2.687,2.687,0,0,1-1.645,1.287A2.716,2.716,0,0,1,262.923,594.308Z" transform="translate(-240.39 -328.317)" fill="#0f1f54"/>
    <path id="Path_13845" data-name="Path 13845" d="M278.145,566.488a5.059,5.059,0,0,0-2.088-7.471l.362-11.555-6.968-1.933-.282,16.325a5.086,5.086,0,0,0,8.977,4.634Z" transform="translate(-247.656 -355.962)" fill="#a0616a"/>
    <path id="Path_13846" data-name="Path 13846" d="M265.571,505.519l-.409,0a2.681,2.681,0,0,1-2.656-2.485c-.668-8.606-2.721-37.92-1.068-53.814a11.2,11.2,0,0,1,13.048-9.392l.425.094,0,.436c-.151,20.911-.142,41.7-.132,61.8a2.7,2.7,0,0,1-2.107,2.638,34.8,34.8,0,0,1-7.1.722Z" transform="translate(-243.956 -307.207)" fill="#bed4e4"/>
    <path id="Path_13847" data-name="Path 13847" d="M285.074,526.871a7.328,7.328,0,0,1-7.242-6.437l.587-48.26-9.592-24.262a14.246,14.246,0,0,1,9.163-15.141l2.564-.962a3.931,3.931,0,0,1,5.066,2.315l9.891,26.7,0,.039c.686,10.629,3.781,63.527-2.39,65.105a34.057,34.057,0,0,1-7.979.9Z" transform="translate(-247.596 -303.48)" fill="#bed4e4"/>
    <path id="Path_13848" data-name="Path 13848" d="M396.926,531.591a5.059,5.059,0,0,1-2.379-7.383l-6.676-9.438,4.746-5.456,9.241,13.461a5.086,5.086,0,0,1-4.931,8.817Z" transform="translate(-302.466 -339.286)" fill="#a0616a"/>
    <path id="Path_13849" data-name="Path 13849" d="M361.608,480.85a2.178,2.178,0,0,1-1.751-.975l-.035-.053c-11.047-16.72-22.469-34.008-34.046-51.243l-.125-.186.159-.157a10.3,10.3,0,0,1,7.6-2.756,10.154,10.154,0,0,1,7.5,3.519c10.117,12.309,24.555,37.857,28.739,45.395a2.138,2.138,0,0,1-.666,2.822,34.218,34.218,0,0,1-6.563,3.492A2.064,2.064,0,0,1,361.608,480.85Z" transform="translate(-273.814 -300.674)" fill="#bed4e4"/>
    <path id="Path_13850" data-name="Path 13850" d="M351.069,513.094c-6.617,0-30.29-45.579-34.969-54.717l-.04-.111L310.885,430.3a3.93,3.93,0,0,1,3.165-4.582l2.7-.487a14.246,14.246,0,0,1,15.624,8.312l6.763,28.426,22.613,38.42a7.333,7.333,0,0,1-2.955,9.329,34.034,34.034,0,0,1-7.314,3.316,1.443,1.443,0,0,1-.407.057Z" transform="translate(-266.985 -300.46)" fill="#bed4e4"/>
    <path id="Path_13851" data-name="Path 13851" d="M296.077,381.972H269.371v-3.237a13.5,13.5,0,0,1,13.488-13.488h2.158A13.5,13.5,0,0,1,298.5,378.735v.809A2.431,2.431,0,0,1,296.077,381.972Z" transform="translate(-247.899 -272.945)" fill="#2f2e41"/>
    <rect id="Rectangle_9" data-name="Rectangle 9" width="30.213" height="30.213" rx="6" transform="translate(113.095 188.042)" fill="#0f1f54"/>
    <path id="Path_202" data-name="Path 202" d="M250.087,209.584l-3.817-4.91,2.22-1.726,1.807,2.324,6.106-6.445,2.042,1.934Z" transform="translate(-123.302 -1.744)" fill="#fff"/>
  </g>
</svg>
