<svg xmlns="http://www.w3.org/2000/svg" width="89.142" height="89.142" viewBox="0 0 89.142 89.142">
  <g id="Group_14519" data-name="Group 14519" transform="translate(-55.43 -50.678)" style="isolation: isolate">
    <g id="Group_13484" data-name="Group 13484" transform="translate(55.43 50.677)">
      <g id="Group_13535" data-name="Group 13535">
        <path id="Path_13689" data-name="Path 13689" d="M44.571,0A44.571,44.571,0,1,1,0,44.571,44.571,44.571,0,0,1,44.571,0Z" transform="translate(0)" fill="none"/>
      </g>
      <path id="Subtraction_12" data-name="Subtraction 12" d="M41.6,83.2A41.61,41.61,0,0,1,25.407,3.269,41.61,41.61,0,0,1,57.792,79.93,41.338,41.338,0,0,1,41.6,83.2Z" transform="translate(2.971 2.972)" fill="none"/>
      <path id="Path_13815" data-name="Path 13815" d="M0,0H24V24H0Z" transform="translate(32.57 32.571)" fill="none"/>
      <path id="Path_13816" data-name="Path 13816" d="M34.56,12.853H5.618V9.236H34.56ZM30.942,2H9.236V5.618H30.942Zm7.236,18.089V34.56a3.628,3.628,0,0,1-3.618,3.618H5.618A3.628,3.628,0,0,1,2,34.56V20.089a3.628,3.628,0,0,1,3.618-3.618H34.56A3.628,3.628,0,0,1,38.178,20.089ZM27.324,27.324,16.471,21.409V33.221Z" transform="translate(24.482 24.482)" fill="#1f2551"/>
    </g>
  </g>
</svg>
