<svg id="undraw_real_time_analytics_re_yliv_1_" data-name="undraw_real_time_analytics_re_yliv (1)" xmlns="http://www.w3.org/2000/svg" width="284.783" height="248.199" viewBox="0 0 284.783 248.199">
  <path id="Path_14835" data-name="Path 14835" d="M577.151,717.507a.5.5,0,0,0,.36-.86l-.034-.135.013-.032a1.332,1.332,0,0,1,2.457.009,11.83,11.83,0,0,1,1.04,2.961,3.942,3.942,0,0,1-.069,1.355,15.8,15.8,0,0,0,1.437-6.563,15.267,15.267,0,0,0-.095-1.7q-.078-.695-.217-1.379a15.984,15.984,0,0,0-3.17-6.774,4.254,4.254,0,0,1-1.769-1.836,3.246,3.246,0,0,1-.3-.887,4.006,4.006,0,0,0,.26-1.381c.12-.182.335-.273.466-.45.652-.884,1.55-.73,2.019.472,1,.505,1.011,1.344.4,2.15-.391.513-.445,1.207-.788,1.756.035.045.072.089.107.134a16.09,16.09,0,0,1,1.679,2.66,6.687,6.687,0,0,1,.4-3.106,11.2,11.2,0,0,1,1.729-2.5,1.373,1.373,0,0,1,2.445.674l0,.035q-.141.079-.275.168a.673.673,0,0,0,.271,1.225l.014,0a6.713,6.713,0,0,1-.177,1c.809,3.129-.938,4.269-3.432,4.32-.055.028-.109.057-.164.083a16.421,16.421,0,0,1,.884,4.16,15.581,15.581,0,0,1-.011,2.515l0-.03a4.115,4.115,0,0,1,1.4-2.376c1.081-.888,2.609-1.215,3.775-1.929A.772.772,0,0,1,589,712l0,.031a4.52,4.52,0,0,0-.507.244q-.141.079-.275.168a.673.673,0,0,0,.271,1.225l.014,0,.028,0a6.7,6.7,0,0,1-1.233,1.93c-.506,2.732-2.679,2.991-5,2.2h0a16.418,16.418,0,0,1-1.1,3.219H577.25c-.014-.044-.027-.089-.04-.133a4.475,4.475,0,0,0,1.09-.065l-.877-1.079-.018-.021c-.148-.184-.3-.366-.446-.549h0a6.555,6.555,0,0,1,.192-1.67Z" transform="translate(-443.876 -473.51)" fill="#f2f2f2"/>
  <path id="Path_14836" data-name="Path 14836" d="M319.764,717.507a.5.5,0,0,1-.359-.86l.034-.135-.013-.032a1.332,1.332,0,0,0-2.457.009,11.828,11.828,0,0,0-1.04,2.961A3.94,3.94,0,0,0,316,720.8a15.8,15.8,0,0,1-1.437-6.563,15.252,15.252,0,0,1,.095-1.7q.078-.695.217-1.379a15.983,15.983,0,0,1,3.17-6.774,4.253,4.253,0,0,0,1.769-1.836,3.243,3.243,0,0,0,.3-.887,4,4,0,0,1-.26-1.381c-.12-.182-.335-.273-.466-.45-.652-.884-1.55-.73-2.019.472-1,.505-1.011,1.344-.4,2.15.391.513.445,1.207.788,1.756-.035.045-.072.089-.107.134a16.078,16.078,0,0,0-1.679,2.66,6.688,6.688,0,0,0-.4-3.106,11.2,11.2,0,0,0-1.729-2.5,1.373,1.373,0,0,0-2.445.674l0,.035q.14.079.275.168a.673.673,0,0,1-.271,1.225l-.014,0a6.69,6.69,0,0,0,.177,1c-.809,3.129.938,4.269,3.432,4.32.055.028.109.057.164.083a16.421,16.421,0,0,0-.884,4.16,15.574,15.574,0,0,0,.011,2.515l0-.03a4.115,4.115,0,0,0-1.4-2.376c-1.081-.888-2.609-1.215-3.775-1.929a.772.772,0,0,0-1.183.751l0,.031a4.532,4.532,0,0,1,.507.244q.141.079.275.168a.673.673,0,0,1-.271,1.225l-.014,0-.028,0a6.7,6.7,0,0,0,1.233,1.93c.506,2.732,2.679,2.991,5,2.2h0a16.418,16.418,0,0,0,1.1,3.219h3.939c.014-.044.027-.089.04-.133a4.476,4.476,0,0,1-1.09-.065l.877-1.079.018-.021c.148-.183.3-.366.446-.549h0a6.56,6.56,0,0,0-.192-1.67Z" transform="translate(-284.639 -473.51)" fill="#f2f2f2"/>
  <path id="Path_14837" data-name="Path 14837" d="M435.294,195.9c.8-1.6,2.071-2.937,2.85-4.55s.931-3.773-.367-5.008c-1.1-1.049-2.829-1.063-4.147-1.823-3.358-1.935-3.354-8.081-7.193-8.612-1.867-.258-3.556,1.142-4.684,2.651s-2.027,3.271-3.592,4.321c-1.771,1.189-4.062,1.241-6.029,2.066-3.772,1.583-5.749,5.654-7.4,9.4-1.065,2.41-2.155,5.01-1.66,7.6-1.074.668-.6,2.466.477,3.138s2.419.657,3.65.947a8.529,8.529,0,0,1,5.711,5.133A19.829,19.829,0,0,1,414,217.256l.786,10.759a8.361,8.361,0,0,0,1.241,4.563c.971,1.271,3.074,1.8,4.166.635,1.043-1.118.573-2.887.552-4.416s1.361-3.433,2.664-2.633l.46-1.043a16.449,16.449,0,0,0,10.849-14.144C435.052,205.9,433.032,200.46,435.294,195.9Z" transform="translate(-340.634 -163.577)" fill="#e6e6e6"/>
  <path id="Path_14838" data-name="Path 14838" d="M481.73,298.713a2.071,2.071,0,0,0-1.188-3.566l0,.172a3.562,3.562,0,0,1-1.848.486,5.6,5.6,0,0,0-1.9.3,1.6,1.6,0,0,0-1.054,1.474,1.556,1.556,0,0,0,.839,1.169,4.6,4.6,0,0,0,1.427.433C479.288,299.423,480.784,299.6,481.73,298.713Z" transform="translate(-384.028 -234.202)" fill="#e6e6e6"/>
  <path id="Path_14839" data-name="Path 14839" d="M544.987,219.741a4.707,4.707,0,0,0,1.335-1.383,1.605,1.605,0,0,0-.1-1.811,2.15,2.15,0,0,0-1.455-.526,11.32,11.32,0,0,0-4.288.506l4.263,3.777Z" transform="translate(-422.359 -187.328)" fill="#e6e6e6"/>
  <path id="Path_14840" data-name="Path 14840" d="M531.332,225.485a2.833,2.833,0,0,1,.229,2.457c-.163.84-.183,1.889.539,2.347a1.568,1.568,0,0,0,1.963-.51,4.519,4.519,0,0,0,.726-2.077,14.511,14.511,0,0,0,.3-3.278,5.054,5.054,0,0,0-1.113-3.042,3.583,3.583,0,0,0-4.061-.949l.66-.033a6.445,6.445,0,0,0-1.074,2.061,2.189,2.189,0,0,0,.543,2.155C530.438,224.958,530.984,225.1,531.332,225.485Z" transform="translate(-415.81 -189.798)" fill="#e6e6e6"/>
  <path id="Path_14841" data-name="Path 14841" d="M611.912,206.622l.117-.361a2.474,2.474,0,0,0-1.113,2.909A2.7,2.7,0,0,0,611.912,206.622Z" transform="translate(-464 -181.566)" fill="#e6e6e6"/>
  <path id="Path_14842" data-name="Path 14842" d="M596.2,211.746a4.6,4.6,0,0,0,2.3-3.439,2.529,2.529,0,0,0-.149-1.313,1.357,1.357,0,0,0-.989-.816l-.267.421c-.383-.33-1.027.009-1.189.489a2.618,2.618,0,0,0,.124,1.489,1.962,1.962,0,0,1-.023,1.477,5.311,5.311,0,0,1-.723.76.757.757,0,0,0-.138.952C595.394,212.052,595.864,211.931,596.2,211.746Z" transform="translate(-454.667 -181.517)" fill="#e6e6e6"/>
  <path id="Path_14843" data-name="Path 14843" d="M589.1,211.842a2.5,2.5,0,0,0,.311-1.35l-.585-.183a2.5,2.5,0,0,0-.966.7.761.761,0,1,0,1.239.835Z" transform="translate(-450.288 -183.963)" fill="#e6e6e6"/>
  <path id="Path_14844" data-name="Path 14844" d="M661.286,206.814l.158.134c.046-.01.091-.027.138-.033Z" transform="translate(-493.9 -181.894)" fill="#e6e6e6"/>
  <path id="Path_14845" data-name="Path 14845" d="M657.748,212.14l1.61-1.3a2.684,2.684,0,0,0,.716-.752,1.819,1.819,0,0,0-.13-1.752,4.819,4.819,0,0,0-1.1-1.19,1.99,1.99,0,0,0-1.519,2.163c.1.616.484,1.274.168,1.811-.123.209-.334.352-.476.549s-.188.511.007.656C657.239,212.484,657.538,212.309,657.748,212.14Z" transform="translate(-491.299 -182.089)" fill="#e6e6e6"/>
  <path id="Path_14846" data-name="Path 14846" d="M660.877,222.324a1.394,1.394,0,0,0,1.078-.424,9.519,9.519,0,0,0,1.863-2.047L660.2,221l.376.44C660.237,221.658,660.485,222.248,660.877,222.324Z" transform="translate(-493.254 -189.615)" fill="#e6e6e6"/>
  <path id="Path_14847" data-name="Path 14847" d="M670.111,227.779a.925.925,0,0,0,.956.584,1.382,1.382,0,0,0,.985-.631,1.836,1.836,0,0,0-1.443-2.865l.333.509C671.027,226.246,669.845,226.947,670.111,227.779Z" transform="translate(-499.103 -192.584)" fill="#e6e6e6"/>
  <path id="Path_14848" data-name="Path 14848" d="M726.787,251.063a1.883,1.883,0,0,0,2.26-.005,2.016,2.016,0,0,0,.121-2.954l-.617.344a1.571,1.571,0,0,0-2.139.425A1.712,1.712,0,0,0,726.787,251.063Z" transform="translate(-532.323 -206.344)" fill="#e6e6e6"/>
  <path id="Path_14849" data-name="Path 14849" d="M742.25,254.54a1.827,1.827,0,0,0,1.253-1.273l-1.2-.158a2.656,2.656,0,0,0-1.133-.5.91.91,0,0,0-.987.582.985.985,0,0,0,.336.9,1.827,1.827,0,0,0,1.73.444Z" transform="translate(-540.614 -209.009)" fill="#e6e6e6"/>
  <path id="Path_14850" data-name="Path 14850" d="M733.125,262.321a1.034,1.034,0,0,0,.691.866,1.12,1.12,0,0,0,1.243-.193.686.686,0,0,0-.249-1.089l-.9-.164C733.564,261.563,733.12,261.93,733.125,262.321Z" transform="translate(-536.441 -214.393)" fill="#e6e6e6"/>
  <path id="Path_14851" data-name="Path 14851" d="M604.172,277.811l-.7-.636A2.278,2.278,0,0,0,604.172,277.811Z" transform="translate(-459.667 -223.56)" fill="#e6e6e6"/>
  <path id="Path_14852" data-name="Path 14852" d="M592,253.955c.429,1.99,2.572,3.611,4.518,3.013l.1.094a4.561,4.561,0,0,1-.58-3.193,11.245,11.245,0,0,1,6.487-8.643,2.677,2.677,0,0,0,1.217-.793c.277-.406.174-1.1-.3-1.215a1.138,1.138,0,0,0-.742.172l-3.616,1.78a18.486,18.486,0,0,0-5.124,3.268A6.261,6.261,0,0,0,592,253.955Z" transform="translate(-452.808 -203.446)" fill="#e6e6e6"/>
  <path id="Path_14853" data-name="Path 14853" d="M411.981,427.3a44.4,44.4,0,0,0-10.963-5.729,14.432,14.432,0,0,0-7.478-1.019,8.9,8.9,0,0,0-6.3,5.027,9.322,9.322,0,0,0,.3,8.08c1.153,2.16,3.149,3.881,3.817,6.237a12.208,12.208,0,0,1,.02,4.916l-1.328,10.033c-.4,3.045-.8,6.214.168,9.13s3.715,5.487,6.771,5.177l.606-.046c-2.021-1.375-2.588-4.22-1.986-6.59a18.084,18.084,0,0,1,3.621-6.315l13.278-17.242c1.791-2.325,3.685-5.2,2.73-7.975A8.178,8.178,0,0,0,411.981,427.3Z" transform="translate(-331.162 -308.365)" fill="#e6e6e6"/>
  <path id="Path_14854" data-name="Path 14854" d="M301.514,325.311a1.122,1.122,0,0,0-1.185.579,7.943,7.943,0,0,1-.748,1.2,2.027,2.027,0,0,1-2.69-.084,4.27,4.27,0,0,1-1.21-2.645,4.222,4.222,0,0,1,.677-3.387,5.3,5.3,0,0,1,3.319-1.367c1.248-.2,2.645-.365,3.668.378.644.468,1.019,1.222,1.615,1.749s1.657.726,2.106.069a1.617,1.617,0,0,0-.022-1.5,3.666,3.666,0,0,1-.445-1.483,2.4,2.4,0,0,1,1.2-1.709,5.538,5.538,0,0,0,1.653-1.378,11.818,11.818,0,0,0,.725-2.553c.719-2.029,3.285-2.931,4.033-4.949a1.908,1.908,0,0,0,.057-1.338c-.313-.8-1.159-.646-1.21-1.629a2.645,2.645,0,0,1,1.531-2.254,8.578,8.578,0,0,1,3.6-.53,5.165,5.165,0,0,0,3.441-1.028,2.966,2.966,0,0,0-.315-4.412c-.669-.462-1.516-.623-2.167-1.11a12.015,12.015,0,0,1-1.827-2.41,9.274,9.274,0,0,0-1.789-1.584l-1.626-1.207A8.67,8.67,0,0,0,310.718,289a2.96,2.96,0,0,0-3.21,1.172,3.621,3.621,0,0,0-.377,1.524,21.946,21.946,0,0,0,.155,3.733l.3,2.989c.088.893-.006,2.071-.873,2.3-1.923.514-1.274-2.33-1.7-3.2-.653-1.334-3.653-1.974-4.936-2.53a4.6,4.6,0,0,1-2.13-1.457,3.21,3.21,0,0,1-.006-3.114,13.118,13.118,0,0,1,1.94-2.607c.712-.848,1.361-1.747,2.009-2.646l2.254-3.126c.964-1.336,1.977-2.967,1.429-4.521a1.216,1.216,0,0,0-2.226.268c-.24.839.4,1.91-.212,2.531a1.148,1.148,0,0,1-1.473-.028,3.345,3.345,0,0,1-.88-1.331c-.742-1.648-1.464-3.307-2.226-4.946-.241-.518-.492-1.406-1.221-1.318-.633.076-.975,1-.953,1.534a5.97,5.97,0,0,0,.792,2.183,2.6,2.6,0,0,1,.2,2.248,2.722,2.722,0,0,1-2.6,1.043,12.213,12.213,0,0,1-5.331-1.407l-.129,2.744L285.37,279.4l-.764-.32c-1.105-.463-2.212-.926-3.35-1.3-.646-.213-1.3-.4-1.956-.583l-1.194-.337a6.265,6.265,0,0,0-2.451-.35,9.326,9.326,0,0,0-2.462.93c-1.8.783-4.136,0-6.069-.019a8.114,8.114,0,0,0-13.633.378,16.238,16.238,0,0,0-.906,1.822l-.787,1.763a5.706,5.706,0,0,0-.7,2.711,1.96,1.96,0,0,0,1.741,1.894,3.8,3.8,0,0,0-.8,6.083,17.81,17.81,0,0,1,1.636,1.195,2.566,2.566,0,0,1-1.928,4.351,6.249,6.249,0,0,0,7.428-2.327c.808-1.265,1.159-2.846,2.259-3.869a4.677,4.677,0,0,1,5.54-.184,9.561,9.561,0,0,1,3.472,4.727c.958,2.423,1.57,5.193,3.611,6.814a28.145,28.145,0,0,1,3.108,2.134c1.242,1.3,1.456,3.25,1.428,5.044s-.221,3.655.432,5.326,2.527,3.045,4.207,2.415a6.692,6.692,0,0,0,2.8,7.816l-.918-5.7A5.219,5.219,0,0,1,288.2,323.2a26.361,26.361,0,0,0,1.7,4.429,6.836,6.836,0,0,0,6.065,3.037c2.594-.009,3.579-1.245,5.288-3.067a2.789,2.789,0,0,0,.758-1.139A.958.958,0,0,0,301.514,325.311Z" transform="translate(-250.858 -220.904)" fill="#e6e6e6"/>
  <path id="Path_14855" data-name="Path 14855" d="M386.758,400.491l-4.349-.684,2.28,1.371a8.246,8.246,0,0,0,2.048.987,2.781,2.781,0,0,0,2.2-.232l-.186-.355C388.462,400.838,387.544,400.614,386.758,400.491Z" transform="translate(-328.758 -296.178)" fill="#e6e6e6"/>
  <path id="Path_14856" data-name="Path 14856" d="M381.779,415.426l.01-.025a.851.851,0,0,0-.864-.4,3.16,3.16,0,0,1-1.011.016,1.434,1.434,0,0,1-.869-.988c-.144-.434-.187-.9-.351-1.324a1.943,1.943,0,0,0-1.57-1.281,1.357,1.357,0,0,0-1.46,1.225,2.266,2.266,0,0,0,.338,1.03l.469.9a6.066,6.066,0,0,0,.454.776,3.031,3.031,0,0,0,4.854.069Z" transform="translate(-324.764 -303.054)" fill="#e6e6e6"/>
  <path id="Path_14857" data-name="Path 14857" d="M364.909,206.243c1.1.651,2.486,1.1,3.011,2.269l.3.1-.99,1.23a2.856,2.856,0,0,0-.827,1.722,2.1,2.1,0,0,0,1.746,1.783,3.826,3.826,0,0,0,4.423-2.607c.1-.378.146-.769.237-1.15A9.356,9.356,0,0,1,374,207.042l8.794-14.8a2.354,2.354,0,0,0,.467-2.009,1.578,1.578,0,0,0-1.558-.836,4.628,4.628,0,0,0-1.774.6,3.021,3.021,0,0,0-2.363-1.515,8.92,8.92,0,0,0-2.9.253,17.853,17.853,0,0,0-6.084,2.09c-1.031.521-2.166,1.165-2.465,2.281-.368,1.373.818,2.772,2.183,3.166a8.306,8.306,0,0,0,4.2-.269,3.181,3.181,0,0,1-5.318,3c-.99-.964-1.476-2.639-2.835-2.887s-2.433,1.2-2.732,2.543a7.226,7.226,0,0,0,3.292,7.582Z" transform="translate(-316.361 -171.024)" fill="#e6e6e6"/>
  <path id="Path_14858" data-name="Path 14858" d="M389.515,273.861a25.994,25.994,0,0,0-2.558-5.248,15.682,15.682,0,0,0-2.907-3.5,11.233,11.233,0,0,0-3.516-2.06,6.078,6.078,0,0,0-3.905-.263,3.219,3.219,0,0,0-2.313,2.916c.028,1.469,1.314,2.619,2.654,3.223a39.564,39.564,0,0,1,4.095,1.616,6.138,6.138,0,0,1,2.948,4.955l.318.526a6.365,6.365,0,0,0-1.986,1.081,2.16,2.16,0,0,0-.754,2.03c.221.89,1.13,1.4,1.951,1.807L388.1,283.2c-.773-2.3,1.758-4.45,1.9-6.877A6.357,6.357,0,0,0,389.515,273.861Z" transform="translate(-323.965 -214.91)" fill="#e6e6e6"/>
  <path id="Path_14859" data-name="Path 14859" d="M316.791,264.944a2.545,2.545,0,0,0,3.18-.424,7.426,7.426,0,0,0,1.638-3.051,11.781,11.781,0,0,0,.039,3.281,3.974,3.974,0,0,0,1.729,2.687,4.659,4.659,0,0,0,1.331.484,11.2,11.2,0,0,0,6.5-.464l.019-.709c-1.041.119-1.829-1.023-1.9-2.069s.311-2.071.344-3.119-.471-2.271-1.5-2.458a1.994,1.994,0,0,1-2.535,2.735c-1.194-.485-1.627-1.94-2.55-2.839a3.869,3.869,0,0,0-4.246-.6,5.265,5.265,0,0,0-2.729,3.471A2.939,2.939,0,0,0,316.791,264.944Z" transform="translate(-289.413 -212.217)" fill="#e6e6e6"/>
  <path id="Path_14860" data-name="Path 14860" d="M373.028,250.77l.043-.069a2.2,2.2,0,0,0-1.832-1.288,11.9,11.9,0,0,0-2.35.078,3.408,3.408,0,0,1-2.254-.5,8.619,8.619,0,0,1-1.268-1.544,1.651,1.651,0,0,0-1.743-.69,1.362,1.362,0,0,0-.526,1.855,3.28,3.28,0,0,0,1.65,1.347A12.725,12.725,0,0,0,373.028,250.77Z" transform="translate(-317.229 -205.506)" fill="#e6e6e6"/>
  <path id="Path_14861" data-name="Path 14861" d="M365.371,261.883a1.034,1.034,0,0,0,1.152,1.715l.227.224a1.614,1.614,0,0,0,.04-1.75A1.073,1.073,0,0,0,365.371,261.883Z" transform="translate(-318.419 -214.394)" fill="#e6e6e6"/>
  <path id="Path_14862" data-name="Path 14862" d="M357.049,265.58a.957.957,0,0,0-.6-.9.916.916,0,0,0-1.064.788,1.828,1.828,0,0,0,.479,1.376,1.262,1.262,0,0,0,.876.55c.356.012.719-.361.574-.686l-.543-.011A2.806,2.806,0,0,0,357.049,265.58Z" transform="translate(-312.754 -216.151)" fill="#e6e6e6"/>
  <path id="Path_14863" data-name="Path 14863" d="M332.047,248.207l.6.485a7.179,7.179,0,0,0,1.115.792,3.055,3.055,0,0,0,2.273.278,2.339,2.339,0,0,0,1.6-1.578,4.149,4.149,0,0,0-.532-2.682,1.627,1.627,0,0,0-.419-.638.558.558,0,0,0-.706-.028.7.7,0,0,0-.114.671,1.828,1.828,0,0,1,.11.7c-.038.235-.284.457-.5.359l-.035.8c-1.036-.525-1.584-1.92-2.738-2.057a1.423,1.423,0,0,0-1.421,2.089,2.859,2.859,0,0,0,.768.811Z" transform="translate(-298.38 -204.343)" fill="#e6e6e6"/>
  <path id="Path_14864" data-name="Path 14864" d="M324.38,241.5a1.578,1.578,0,0,0,.673-1.5.97.97,0,0,0-1.317-.7,1.562,1.562,0,0,0-.587.9l-.819,2.311.459-.334A4.643,4.643,0,0,0,324.38,241.5Z" transform="translate(-293.181 -201.084)" fill="#e6e6e6"/>
  <path id="Path_14865" data-name="Path 14865" d="M338.219,231.167a.9.9,0,0,0-.279-1.356l-.574-.054a.861.861,0,1,0,.853,1.41Z" transform="translate(-301.7 -195.48)" fill="#e6e6e6"/>
  <path id="Path_14866" data-name="Path 14866" d="M350.659,228.928c.536.256,1.214.5,1.68.132a1.059,1.059,0,0,0,.324-1.009,2.567,2.567,0,0,0-.474-1,9.584,9.584,0,0,0-2.665-2.574l-.259.336a2.586,2.586,0,0,0,1.394,4.112Z" transform="translate(-308.86 -192.355)" fill="#e6e6e6"/>
  <path id="Path_14867" data-name="Path 14867" d="M363.132,237.409l1,.453a.939.939,0,0,0-1-.453Z" transform="translate(-317.343 -200)" fill="#e6e6e6"/>
  <path id="Path_14868" data-name="Path 14868" d="M355.473,245.156l-.473.156a2.985,2.985,0,0,0-.041,2.258c.118.475.374,1.059.862,1.038s.686-.6.778-1.065a3.215,3.215,0,0,0,.045-1.558A1.1,1.1,0,0,0,355.473,245.156Z" transform="translate(-312.383 -204.596)" fill="#e6e6e6"/>
  <path id="Path_14869" data-name="Path 14869" d="M337.892,238.821l.35.141a.377.377,0,1,0-.35-.141Z" transform="translate(-302.35 -200.487)" fill="#e6e6e6"/>
  <path id="Path_14870" data-name="Path 14870" d="M379.786,304.23a1.064,1.064,0,0,0-.974,1.435,1.285,1.285,0,0,0,2.055.12,1.612,1.612,0,0,0-.416-2.334Z" transform="translate(-326.589 -239.119)" fill="#e6e6e6"/>
  <path id="Path_14871" data-name="Path 14871" d="M421.974,348.351a1.066,1.066,0,0,0-.747,1.333l.983.068,1-.5a1.066,1.066,0,0,0-1.235-.9Z" transform="translate(-351.719 -265.698)" fill="#e6e6e6"/>
  <path id="Path_14872" data-name="Path 14872" d="M412.081,350.571a2.032,2.032,0,0,0-.852,1.779,1.626,1.626,0,0,0,1.272,1.437,1.359,1.359,0,0,0,1.536-1.042c.166-1.017-.927-1.762-1.319-2.715Z" transform="translate(-345.822 -266.703)" fill="#e6e6e6"/>
  <path id="Path_14873" data-name="Path 14873" d="M505.4,328.328c.1.764-.584,1.432-.61,2.2a1.682,1.682,0,0,0,1.874,1.535,2.963,2.963,0,0,0,2.129-1.564l.02-.086-1.329-1.5a3.333,3.333,0,0,1-1.1-2.136c.01-.4.17-.8.161-1.2a2.91,2.91,0,0,0-.193-.849c-.12-.358-.283-.762-.641-.882-.448-.151-.9.246-1.114.667a2.64,2.64,0,0,0,.078,2.486A3.9,3.9,0,0,1,505.4,328.328Z" transform="translate(-400.95 -251.176)" fill="#e6e6e6"/>
  <path id="Path_14874" data-name="Path 14874" d="M496.463,337.957a.764.764,0,0,0,.637.041,3.332,3.332,0,0,0,1.12-.407,1.132,1.132,0,0,0,.548-1,1.309,1.309,0,0,0-1.066-.99,1.146,1.146,0,0,0-1.066.163,1.447,1.447,0,0,0-.226,1.284l-.07.117C496.278,337.44,496.238,337.784,496.463,337.957Z" transform="translate(-396.196 -258.118)" fill="#e6e6e6"/>
  <path id="Path_14875" data-name="Path 14875" d="M667.224,420.438l-.288-.715C666.805,420.046,666.854,420.378,667.224,420.438Z" transform="translate(-497.207 -307.971)" fill="#e6e6e6"/>
  <path id="Path_14876" data-name="Path 14876" d="M631.185,263.28a13.173,13.173,0,0,1-2.76-3.758,6.09,6.09,0,0,0-4.607-3.46c-2.552-.42-5.159.245-7.742.112-4.137-.214-7.867-2.432-11.829-3.643a49.5,49.5,0,0,0-6.76-1.394l-3.946-.624a73.816,73.816,0,0,0-13.017-1.275c-1.259.026-3.012-.352-2.911-1.607.125-1.559,2.929-1.354,3.469-2.822.334-.908-.465-1.861-1.341-2.271a17.387,17.387,0,0,1-2.681-1.085c-.795-.551-1.23-1.829-.5-2.463l-6.074,3.114c-1.683.863-3.564,1.986-3.862,3.854a4.466,4.466,0,0,0-2.507,1.742,2.524,2.524,0,0,0-2.222,2.223,7.367,7.367,0,0,0,.491,3.348,5.7,5.7,0,0,0-1.58-2.129,1.953,1.953,0,0,0-2.457.027,2.208,2.208,0,0,0-.037,2.56c.451.8,1.143,1.441,1.568,2.253,1.328,2.534-1.078,6.1-3.925,5.819l.573-7.85a5.253,5.253,0,0,0-.2-2.4,1.8,1.8,0,0,0-1.9-1.187c-1.423.318-1.3,2.4-.709,3.735s1.182,3.185-.026,4a2.739,2.739,0,0,1-2.681-.219,4.256,4.256,0,0,0-2.664-.742c-.921.2-1.5,1.6-.686,2.078l-4.048-.7a2.879,2.879,0,0,1-3.6,2.3l-.4-1.647-.592-.165c.62.173-.35,2.786-1.219,4.783-1.169-.137-2.876-.163-3.071-.5-.933-1.6-.822-5.423-2.444-6.325q-1.22-.679-2.5-1.237a5.868,5.868,0,0,0-1.411-.463,6.56,6.56,0,0,0-2.96.457,7.594,7.594,0,0,0-5.276,3.891l-5.568,8.24a8.832,8.832,0,0,0-1.29,2.416,3.157,3.157,0,0,0,.294,2.616,2.024,2.024,0,0,0,2.371.81c.538-.233,1.077-.761,1.61-.517a1.11,1.11,0,0,1,.462,1.157,3.09,3.09,0,0,0-.024,1.318,1.381,1.381,0,0,0,1.842.63,2.847,2.847,0,0,0,1.353-1.648,18.914,18.914,0,0,0,.736-5.225c.16-1.759.641-3.64,2.027-4.734a1.263,1.263,0,0,1,1.452-.252,1.038,1.038,0,0,1,.255,1.179,4.614,4.614,0,0,1-.692,1.087,5.96,5.96,0,0,0-.98,4.652l.283.175c1.081-.28,2.528.222,3.964.7a5.16,5.16,0,0,0-2.622,1.8c-1.659,2.328-2.86,4.531-6.143,4.5-.779-.007-1.551-.161-2.33-.162a3.045,3.045,0,0,0-2.16.719c-.59.578-.773,1.458-1.278,2.112a6.035,6.035,0,0,1-2.788,1.6,3.179,3.179,0,0,0-1.862,1.388,3.438,3.438,0,0,0-.143,1.838c.114,1.086.316,2.322,1.238,2.908a2.932,2.932,0,0,0,2.256.191,9.758,9.758,0,0,1,2.88-.607,3.224,3.224,0,0,1,2.834,3.135c.008.784-.221,1.683.3,2.27a1.388,1.388,0,0,0,1.963-.082,2.262,2.262,0,0,0,.426-2.076,6.677,6.677,0,0,0-.978-1.97,2.3,2.3,0,0,1,2.646,1.223,8.664,8.664,0,0,1,.342,2.472c.11.829.614,1.751,1.449,1.8a1.17,1.17,0,0,0,1.176-.923,8.413,8.413,0,0,0-.069-1.259,1.613,1.613,0,0,1,1.629-1.5,2.3,2.3,0,0,0,.563,2.87,4.991,4.991,0,0,0,2.267.739,3.439,3.439,0,0,1,2.147.975c.851,1.033-.19,1.5-.352,2.373-.2,1.074.7,2.66,1.042,3.687l4.75,6.645a8.037,8.037,0,0,0,1.242,1.472,4.366,4.366,0,0,0,5.639-.2,4.834,4.834,0,0,0,.821-5.685c-.926-1.686-2.762-2.73-3.668-4.427a9.675,9.675,0,0,0,5.311,2.184,26.781,26.781,0,0,1,9.649,4.047,13.456,13.456,0,0,0,3.318,8.259,11.892,11.892,0,0,1,3.451-6.853,5.418,5.418,0,0,1,4.56-1.829c1.674.32,2.943,2.454,1.931,3.825l2.544.189,1.141,2.837a.983.983,0,0,1,.958-.665c.794.12,1.351.859,2.106,1.131,1.424.514,2.946-.91,3.13-2.413a7.662,7.662,0,0,0-1.225-4.3,8.022,8.022,0,0,0,8.243-12.172,20.428,20.428,0,0,1,5.739-4.225c1.986-.981,4.158-1.654,5.893-3.03s2.952-3.766,2.118-5.817c-.59-1.449-2.069-2.433-2.511-3.933-.641-2.172,1.306-4.419,3.5-4.962s4.5.124,6.661.786a3.427,3.427,0,0,1,4.361-3.527l2.651-1.073c-1.024,2.258-3.244,3.7-4.876,5.562s-2.6,4.908-.9,6.708l7.332-6.645,7.669-6.951-.366-1.076C626.267,265.181,628.872,264.421,631.185,263.28Z" transform="translate(-403.632 -200.947)" fill="#e6e6e6"/>
  <path id="Path_14877" data-name="Path 14877" d="M497.354,364.784a.842.842,0,0,0,0,.967.741.741,0,0,0,.943.013,2.159,2.159,0,0,0,.6-.827,1.346,1.346,0,0,0,1.369.717,3.367,3.367,0,0,0,1.51-.63,3.312,3.312,0,0,0,.917-.8,1.31,1.31,0,0,0,.23-1.153,1.987,1.987,0,0,0-.6-.769l-1.94-1.792-.219-.066a1.236,1.236,0,0,0-1.783-.019,2.212,2.212,0,0,0-.342,1.721,3.257,3.257,0,0,1-.11,1.779C497.783,364.238,497.524,364.483,497.354,364.784Z" transform="translate(-396.736 -272.64)" fill="#e6e6e6"/>
  <path id="Path_14878" data-name="Path 14878" d="M527.872,393.967a13.484,13.484,0,0,1-10.247-10.3,7.162,7.162,0,0,0-1.136-3.4,4.15,4.15,0,0,0-3.186-1.209c-1.172,0-2.328.27-3.5.343a7.438,7.438,0,0,1-5.676-1.849,15.342,15.342,0,0,0-2.026-2.079,4.4,4.4,0,0,0-3.768-.312c-1.38.455-2.484,1.7-3.993,1.528-1.569-.178-3.388-.733-4,1.334-.177.595-.117,1.247-.341,1.826-.346.892-1.264,1.395-1.99,2.018a8.059,8.059,0,0,0-2.5,5.071,23.964,23.964,0,0,0,.144,5.765,4.878,4.878,0,0,0,.963,2.905c.99,1.058,2.651,1.017,4.095.9l5.033-.416a3.211,3.211,0,0,1,2.579.533,14.278,14.278,0,0,1,.888,1.362,2.092,2.092,0,0,0,2.552.515,4.237,4.237,0,0,0,3.2,6.277l.129.082c-1.074,1.839-2.188,3.9-1.743,5.987.382,1.786,1.861,3.218,2.1,5.028.222,1.661-.645,3.359-.261,4.99a4.131,4.131,0,0,0,3.749,2.926,6.773,6.773,0,0,0,4.666-1.705,20.12,20.12,0,0,0,3.323-3.837,7.419,7.419,0,0,0,1.461-2.755c.225-1.092-.036-2.3.495-3.282.612-1.131,2.066-1.554,2.8-2.61.95-1.367.39-3.229.6-4.881C522.8,400.633,527.991,398.086,527.872,393.967Z" transform="translate(-389.736 -281.419)" fill="#e6e6e6"/>
  <path id="Path_14879" data-name="Path 14879" d="M583.415,455.527a2.38,2.38,0,0,1-1.309,1.38,3.32,3.32,0,0,0-1.486,1.231,2.931,2.931,0,0,0-.006,1.967q.485,2.032,1.143,4.019a40.92,40.92,0,0,0,2.221-4.97,6.529,6.529,0,0,0,.487-1.993,2.464,2.464,0,0,0-.67-1.883Z" transform="translate(-446.028 -329.025)" fill="#e6e6e6"/>
  <path id="Path_14880" data-name="Path 14880" d="M667.277,433.044l-2.141-2.471a3.105,3.105,0,0,0-1.784-1.259l-.3.194,1.856,4.42a4.2,4.2,0,0,0,1.121,1.763,1.442,1.442,0,0,0,1.914-.013,1.419,1.419,0,0,0,.168-1.408,4.184,4.184,0,0,0-.829-1.226Z" transform="translate(-494.944 -313.651)" fill="#e6e6e6"/>
  <path id="Path_14881" data-name="Path 14881" d="M686.368,434.921a2.052,2.052,0,0,0,1.213-1.131,6.078,6.078,0,0,0,.434-1.647l.366-2.213-.159-.041a.711.711,0,0,0-.9.25,3.528,3.528,0,0,0-.4.943,1.142,1.142,0,0,1-.652.75c-.573.173-1.115-.434-1.713-.41a1.077,1.077,0,0,0-.936.96,2.088,2.088,0,0,0,.391,1.372A2.276,2.276,0,0,0,686.368,434.921Z" transform="translate(-507.12 -313.951)" fill="#e6e6e6"/>
  <path id="Path_14882" data-name="Path 14882" d="M699.9,439.468l1.644-4.331A4.224,4.224,0,0,0,699.9,439.468Z" transform="translate(-516.708 -317.099)" fill="#e6e6e6"/>
  <path id="Path_14883" data-name="Path 14883" d="M719.807,437.2l-.333.014a2.146,2.146,0,0,0-.018,1.9,4.281,4.281,0,0,0,1.241,1.508,8.715,8.715,0,0,0,2.737,1.528,17.415,17.415,0,0,0,4.5.693l2.612.171c.415.027.951-.025,1.066-.425.1-.33-.186-.64-.448-.861a16.411,16.411,0,0,0-8.071-3.663A8.1,8.1,0,0,1,719.807,437.2Z" transform="translate(-528.22 -318.318)" fill="#e6e6e6"/>
  <path id="Path_14884" data-name="Path 14884" d="M710.922,460.022l-1.878-1.821c-.609-.59-1.521-1.216-2.219-.734-.4.277-.525.818-.865,1.167a1.67,1.67,0,0,1-1.549.369,4.928,4.928,0,0,1-1.5-.709l-1.554-.964-1.608-1-1.21,1.176c.053-.579-.719-.955-1.253-.726a1.935,1.935,0,0,0-.964,1.378,7.543,7.543,0,0,1-.462,1.675c-.614,1.176-2.106,1.524-3.418,1.721s-2.8.474-3.5,1.6a4.573,4.573,0,0,0-.214,3.229l.739,4.115a2.249,2.249,0,0,0,.568,1.344c.65.573,1.656.225,2.449-.125a16.559,16.559,0,0,1,5.263-1.525,7.6,7.6,0,0,1,5.214,1.335c.94.716,1.658,1.707,2.654,2.343a5.264,5.264,0,0,0,4.6.4,6.855,6.855,0,0,0,3.5-3.123,8.2,8.2,0,0,0-.177-8.12A16.1,16.1,0,0,0,710.922,460.022Z" transform="translate(-510.043 -329.65)" fill="#e6e6e6"/>
  <path id="Path_14885" data-name="Path 14885" d="M738.517,506.076a1.106,1.106,0,0,0-.07,1.311,1.812,1.812,0,0,0,1.158.745,5.379,5.379,0,0,0,1.407.064l.014-.351a3.606,3.606,0,0,0-.824-1.661A1.241,1.241,0,0,0,738.517,506.076Z" transform="translate(-539.484 -358.939)" fill="#e6e6e6"/>
  <path id="Path_14886" data-name="Path 14886" d="M775.089,507.29l-.224-.082-1.6,2.416a1.715,1.715,0,0,0-.412,1.443,1.3,1.3,0,0,0,1.571.6,2.478,2.478,0,0,0,1.792-1.967A2.433,2.433,0,0,0,775.089,507.29Z" transform="translate(-559.933 -359.777)" fill="#e6e6e6"/>
  <path id="Path_14887" data-name="Path 14887" d="M786.094,499.441l-1.475-1.172q-.029.816-.059,1.632H784.5a10.832,10.832,0,0,1,.961.956c.345.294.924.428,1.22.084a.771.771,0,0,0,.032-.851A2.265,2.265,0,0,0,786.094,499.441Z" transform="translate(-566.866 -354.484)" fill="#e6e6e6"/>
  <path id="Path_14888" data-name="Path 14888" d="M718.425,370.076a2.634,2.634,0,0,0-1.783.335,2.4,2.4,0,0,0-.412.48l-.169.237a6.5,6.5,0,0,0-.659,1.06,1.4,1.4,0,0,0-.09,1.156.67.67,0,0,0,.989.284c.265-.245.2-.689.4-.989a.924.924,0,0,1,.745-.356,4.89,4.89,0,0,1,.85.1,4.1,4.1,0,0,0,4.015-6.272l-.05-.152a1.833,1.833,0,0,0-1.859,1.433c-.138.721.155,1.559-.282,2.149A1.969,1.969,0,0,1,718.425,370.076Z" transform="translate(-525.842 -276.13)" fill="#e6e6e6"/>
  <path id="Path_14889" data-name="Path 14889" d="M733.694,357.307l-.094-.008a4.783,4.783,0,0,0-1.569.585.728.728,0,0,0-.358.363.528.528,0,0,0,.125.485,1.555,1.555,0,0,0,.416.313,2.478,2.478,0,0,0,.756.338.839.839,0,0,0,.772-.2,1.116,1.116,0,0,0,.181-.924,4.859,4.859,0,0,0-.229-.952Z" transform="translate(-535.571 -271.006)" fill="#e6e6e6"/>
  <path id="Path_14890" data-name="Path 14890" d="M711.358,373.925a2.381,2.381,0,0,0,.311-.772l.173-.637-.617-.375a3.574,3.574,0,0,0-.808.576,1.2,1.2,0,0,0-.37.892.737.737,0,0,0,.606.687.809.809,0,0,0,.706-.372Z" transform="translate(-522.774 -279.796)" fill="#e6e6e6"/>
  <path id="Path_14891" data-name="Path 14891" d="M548.235,235.785c-.244.152-.175.52-.076.79l.341.93.159-.6a1.278,1.278,0,0,0,.176-.776C548.779,235.863,548.464,235.642,548.235,235.785Z" transform="translate(-426.856 -199.023)" fill="#e6e6e6"/>
  <path id="Path_14892" data-name="Path 14892" d="M762.7,238.289H659.522a9.391,9.391,0,0,1-9.38-9.38V155.091a9.391,9.391,0,0,1,9.38-9.38H762.7a9.391,9.391,0,0,1,9.38,9.38v73.818a9.391,9.391,0,0,1-9.38,9.38Z" transform="translate(-487.301 -145.711)" fill="#fff"/>
  <path id="Path_14893" data-name="Path 14893" d="M762.7,238.289H659.522a9.391,9.391,0,0,1-9.38-9.38V155.091a9.391,9.391,0,0,1,9.38-9.38H762.7a9.391,9.391,0,0,1,9.38,9.38v73.818a9.391,9.391,0,0,1-9.38,9.38ZM659.522,146.526a8.574,8.574,0,0,0-8.564,8.565v73.818a8.574,8.574,0,0,0,8.564,8.565H762.7a8.574,8.574,0,0,0,8.564-8.565V155.091a8.574,8.574,0,0,0-8.564-8.564Z" transform="translate(-487.301 -145.711)" fill="#3f3d56"/>
  <path id="Path_14894" data-name="Path 14894" d="M715.921,168.532H699.608a1.631,1.631,0,0,1,0-3.263h16.313a1.631,1.631,0,1,1,0,3.263Z" transform="translate(-515.627 -157.293)" fill="#ccc"/>
  <path id="Path_14895" data-name="Path 14895" d="M751.4,258.532H699.608a1.631,1.631,0,0,1,0-3.263H751.4a1.631,1.631,0,0,1,0,3.263Z" transform="translate(-515.627 -210.588)" fill="#ccc"/>
  <circle id="Ellipse_3368" data-name="Ellipse 3368" cx="10.938" cy="10.938" r="10.938" transform="translate(182.218 15.771)" fill="#f2f2f2"/>
  <rect id="Rectangle_4498" data-name="Rectangle 4498" width="2.447" height="0.816" transform="translate(182.35 79.098)" fill="#3f3d56"/>
  <path id="Path_14896" data-name="Path 14896" d="M783.276,340.473h-5.132v-.816h5.132Zm-10.264,0H767.88v-.816h5.132Zm-10.264,0h-5.132v-.816h5.132Zm-10.264,0h-5.132v-.816h5.132Zm-10.264,0h-5.132v-.816h5.132Zm-10.264,0h-5.132v-.816h5.132Zm-10.264,0H716.56v-.816h5.132Z" transform="translate(-526.631 -260.559)" fill="#3f3d56"/>
  <rect id="Rectangle_4499" data-name="Rectangle 4499" width="2.447" height="0.816" transform="translate(261.776 79.098)" fill="#3f3d56"/>
  <rect id="Rectangle_4500" data-name="Rectangle 4500" width="2.039" height="13.866" transform="translate(221.844 64.666)" fill="#0f1f54"/>
  <rect id="Rectangle_4501" data-name="Rectangle 4501" width="2.039" height="13.866" transform="translate(242.643 64.666)" fill="#0f1f54"/>
  <rect id="Rectangle_4502" data-name="Rectangle 4502" width="2.039" height="6.117" transform="translate(252.839 72.415)" fill="#0f1f54"/>
  <rect id="Rectangle_4503" data-name="Rectangle 4503" width="2.039" height="19.984" transform="translate(232.039 58.548)" fill="#0f1f54"/>
  <circle id="Ellipse_3369" data-name="Ellipse 3369" cx="2.447" cy="2.447" r="2.447" transform="translate(34.24 87.504)" fill="#0f1f54"/>
  <circle id="Ellipse_3370" data-name="Ellipse 3370" cx="2.447" cy="2.447" r="2.447" transform="translate(40.766 75.677)" fill="#0f1f54"/>
  <circle id="Ellipse_3371" data-name="Ellipse 3371" cx="2.447" cy="2.447" r="2.447" transform="translate(112.544 66.297)" fill="#0f1f54"/>
  <path id="Path_14897" data-name="Path 14897" d="M144.23,576.8h3.691l1.756-14.236h-5.447Z" transform="translate(-85.408 -333.129)" fill="#ffb6b6"/>
  <path id="Path_14898" data-name="Path 14898" d="M394.77,743.711h11.35v-.143a4.418,4.418,0,0,0-4.417-4.418h0l-2.073-1.573-3.868,1.573h-.991Z" transform="translate(-336.078 -496.194)" fill="#2f2e41"/>
  <path id="Path_14899" data-name="Path 14899" d="M212.23,576.8h3.691l1.756-14.236h-5.447Z" transform="translate(-125.675 -333.129)" fill="#ffb6b6"/>
  <path id="Path_14900" data-name="Path 14900" d="M462.77,743.711h11.35v-.143a4.418,4.418,0,0,0-4.417-4.418h0l-2.073-1.573-3.868,1.573h-.991Z" transform="translate(-376.346 -496.194)" fill="#2f2e41"/>
  <path id="Path_14901" data-name="Path 14901" d="M394.737,457.854l6.55-.938c2.215,3.7,3,13.564,3,13.564l6.41,15.236a2.921,2.921,0,1,1-4.554,2.194l-10.525-17.734Z" transform="translate(-336.059 -329.996)" fill="#ffb6b6"/>
  <path id="Path_14902" data-name="Path 14902" d="M394.857,414.508h0a6.981,6.981,0,0,0-5.515,9.222l1.39,3.94s-1.751,11.863,1.135,15.211l8.855-.8s-1.619-5.985-.376-8.881c.761-1.773.719-7.9-.031-12.881C399.741,416.513,398.659,413.919,394.857,414.508Z" transform="translate(-332.628 -304.834)" fill="#bfd4e4"/>
  <path id="Path_14903" data-name="Path 14903" d="M424.871,502.27s6.825,6.656,5.368,8.193-4.791,3.691-1.7,4.042,4.378,1.111,1.7,1.75-2.267,2.281-2.267,2.281,4.036,19.215.977,31.858c0,0-1.7,34.532-2.771,37.221s-1.476,1.058-1.068,2.689,1.224-1.223.408,1.631a37.732,37.732,0,0,0-1.055,4.543l-7.978-1.224s-1.284-4.049,0-5.112,2.437-.408,1.045-2.775-1.8.9-1.392-2.367-1.295-20.909,1.392-30.234L412.565,528.6l-7.882,27.1s-4.181,33.092-5.539,34.258-3.4-.873-1.358,1.166,2,1.688,2.039,2.039c.38,3.741-11.3-.351-11.3-.351a20.961,20.961,0,0,0,0-2.855c-.123-.873,1.346-1.152,0-2.032s.657-.007.657-.007,3.011-24.413,5.3-31.811l2.651-36.027s.168.719,0-1.028-1.392-.523-.168-1.747,2.039-1.847,1.223-2.759-3.066-2.756-1.737-3.873,3.944-8.4,3.944-8.4l25.49.2" transform="translate(-332.106 -356.853)" fill="#0f1f54"/>
  <path id="Path_14904" data-name="Path 14904" d="M419.661,395.582l-4.6-5.175-7.262.807-4.65,6.507h0a9.926,9.926,0,0,0-7.556,11.37c1.8,10.39,7.936,20.466,5.911,25.592-3.073,7.782-3.261,10.955,4.1,9.864s32-3.606,27.226-8.385S427,423.4,427,423.4l-.192-18.269a8.119,8.119,0,0,0-7.149-9.549Z" transform="translate(-336.48 -290.611)" fill="#bfd4e4"/>
  <path id="Path_14905" data-name="Path 14905" d="M451.737,450.854l6.55-.938c2.215,3.7,3,13.564,3,13.564l6.41,15.236a2.921,2.921,0,1,1-4.554,2.194l-10.525-17.734Z" transform="translate(-369.812 -325.851)" fill="#ffb6b6"/>
  <path id="Path_14906" data-name="Path 14906" d="M451.857,407.508h0a6.981,6.981,0,0,0-5.515,9.222l1.39,3.94s-1.751,11.863,1.135,15.211l8.854-.8s-1.619-5.985-.376-8.881c.761-1.773.719-7.9-.031-12.881C456.741,409.513,455.659,406.919,451.857,407.508Z" transform="translate(-366.382 -300.689)" fill="#bfd4e4"/>
  <circle id="Ellipse_3372" data-name="Ellipse 3372" cx="8.778" cy="8.778" r="8.778" transform="translate(64.179 81.794)" fill="#ffb6b6"/>
  <path id="Path_14907" data-name="Path 14907" d="M412.762,359.46c2.445-.612,2.528-1.311,4.973-1.924.778-.2,1.68-.5,1.911-1.271a1.851,1.851,0,0,0-.44-1.591,15.051,15.051,0,0,1-1.081-1.328,2.666,2.666,0,0,1,1.84-3.993c.756-.129,1.536.071,2.3-.026,1.044-.133,2.579-4.006,1.91-4.818-.651-.79-1.721-1.262-2.08-2.221a10.056,10.056,0,0,1-.211-1.991c-.155-.981-2.14,1.735-1.876.778.648-2.349-10.32-2.719-11.462.295-.427,1.126-1.582,1.305-2.471,2.118a9.3,9.3,0,0,0-2.177,3.157,6.66,6.66,0,0,0,.094,2.8c.911,4.293,2.416,8.1,6.424,9.886" transform="translate(-341.42 -260.295)" fill="#2f2e41"/>
  <path id="Path_14908" data-name="Path 14908" d="M255.355,752.572,414.3,752.7a.486.486,0,0,0,0-.971L255.355,751.6a.486.486,0,0,0,0,.971Z" transform="translate(-253.234 -504.498)" fill="#cacaca"/>
</svg>
