<svg xmlns="http://www.w3.org/2000/svg" width="318.699" height="220.112" viewBox="0 0 318.699 220.112">
  <g id="undraw_subscribe_vspl" transform="translate(-0.002)">
    <path id="Path_13826" data-name="Path 13826" d="M642.62,387.837h-.086l-49.385,21.087-67.568,28.852a2.179,2.179,0,0,1-1.669.009L454.2,408.865l-50.6-20.993-.077-.034h-.086a3.015,3.015,0,0,0-3.011,3.011V521.623a3.015,3.015,0,0,0,3.011,3.011H642.62a3.015,3.015,0,0,0,3.011-3.011V390.849A3.015,3.015,0,0,0,642.62,387.837Z" transform="translate(-326.929 -304.522)" fill="#fff"/>
    <path id="Path_13827" data-name="Path 13827" d="M646.9,278.338a.429.429,0,0,1-.245-.077l-118.97-82.854a2.157,2.157,0,0,0-2.464,0L407.105,278.26a.43.43,0,1,1-.494-.7l118.113-82.849a3.021,3.021,0,0,1,3.45-.006l118.97,82.854a.43.43,0,0,1-.246.783Z" transform="translate(-330.348 -194.163)" fill="#0f1f54"/>
    <path id="Path_13828" data-name="Path 13828" d="M194.121,91.853,306.833,8.319,420.4,97.8,312.64,161.678l-58.5-13.336Z" transform="translate(-110.614 -4.74)" fill="#f2f2f2"/>
    <path id="Path_13829" data-name="Path 13829" d="M497.48,643.812H441.8a2.6,2.6,0,0,1,0-5.2H497.48a2.6,2.6,0,0,1,0,5.2Z" transform="translate(-349.02 -447.417)" fill="#bed4e4"/>
    <path id="Path_13830" data-name="Path 13830" d="M461.775,617.812H441.8a2.6,2.6,0,1,1,0-5.2h19.978a2.6,2.6,0,0,1,0,5.2Z" transform="translate(-349.02 -432.602)" fill="#bed4e4"/>
    <path id="Path_13831" data-name="Path 13831" d="M595.676,342.717a3.254,3.254,0,0,1-1.234-.242l-69.513-28.843V223.349a3.015,3.015,0,0,1,3.011-3.011H661.3a3.015,3.015,0,0,1,3.011,3.011V313.7l-.131.056-67.229,28.71a3.276,3.276,0,0,1-1.272.256Z" transform="translate(-397.872 -209.077)" fill="#fff"/>
    <path id="Path_13832" data-name="Path 13832" d="M595.391,342.647a3.472,3.472,0,0,1-1.316-.258l-69.646-28.9V223.064a3.23,3.23,0,0,1,3.226-3.226H661.011a3.23,3.23,0,0,1,3.226,3.226v90.489l-67.49,28.822a3.49,3.49,0,0,1-1.356.273Zm-70.1-29.731L594.4,341.594a2.633,2.633,0,0,0,2.008-.012l66.966-28.6V223.064a2.369,2.369,0,0,0-2.366-2.366H527.655a2.369,2.369,0,0,0-2.366,2.366Z" transform="translate(-397.587 -208.792)" fill="#3f3d56"/>
    <path id="Path_13833" data-name="Path 13833" d="M642.62,387.837h-.086l-49.385,21.087-67.568,28.852a2.179,2.179,0,0,1-1.669.009L454.2,408.865l-50.6-20.993-.077-.034h-.086a3.015,3.015,0,0,0-3.011,3.011V521.623a3.015,3.015,0,0,0,3.011,3.011H642.62a3.015,3.015,0,0,0,3.011-3.011V390.849A3.015,3.015,0,0,0,642.62,387.837Zm2.151,133.786a2.152,2.152,0,0,1-2.151,2.151H403.44a2.152,2.152,0,0,1-2.151-2.151V390.849a2.156,2.156,0,0,1,2.069-2.151l50.843,21.1,69.38,28.788a3.063,3.063,0,0,0,2.34-.013l67.228-28.71L642.706,388.7a2.158,2.158,0,0,1,2.065,2.151Z" transform="translate(-326.929 -304.522)" fill="#0f1f54"/>
    <path id="Path_13834" data-name="Path 13834" d="M596.993,289.672h-47.32a3.441,3.441,0,1,1,0-6.883h47.32a3.441,3.441,0,1,1,0,6.883Z" transform="translate(-410.01 -244.664)" fill="#eff5f9"/>
    <path id="Path_13835" data-name="Path 13835" d="M572.473,255.672h-22.8a3.441,3.441,0,1,1,0-6.883h22.8a3.441,3.441,0,0,1,0,6.883Z" transform="translate(-410.01 -225.29)" fill="#bed4e4"/>
    <path id="Path_13836" data-name="Path 13836" d="M668.912,369.672h-72.27a3.441,3.441,0,0,1,0-6.883h72.27a3.441,3.441,0,0,1,0,6.883Z" transform="translate(-436.774 -290.249)" fill="#ccc"/>
    <path id="Path_13837" data-name="Path 13837" d="M668.912,406.672h-72.27a3.441,3.441,0,0,1,0-6.883h72.27a3.441,3.441,0,0,1,0,6.883Z" transform="translate(-436.774 -311.333)" fill="#ccc"/>
    <path id="Path_13838" data-name="Path 13838" d="M265.517,387.511a1.939,1.939,0,0,1-1.9-1.555l-1.565-7.8a15.917,15.917,0,0,1,31.212-6.26l1.565,7.8a1.938,1.938,0,0,1-1.517,2.279l-27.416,5.5A1.938,1.938,0,0,1,265.517,387.511Z" transform="translate(-247.902 -288.149)" fill="#2f2e41"/>
    <path id="Path_13839" data-name="Path 13839" d="M144.476,475.932h-4.918l-2.338-18.969h7.258Z" transform="translate(-78.19 -260.386)" fill="#a0616a"/>
    <path id="Path_13840" data-name="Path 13840" d="M126.58,497.791h9.485v5.972H120.608A5.972,5.972,0,0,1,126.58,497.791Z" transform="translate(-68.725 -283.651)" fill="#2f2e41"/>
    <path id="Path_13841" data-name="Path 13841" d="M28.971,474.058l-4.529-1.918,5.243-18.38,6.683,2.831Z" transform="translate(-13.927 -258.562)" fill="#a0616a"/>
    <path id="Path_13842" data-name="Path 13842" d="M5.972,0h9.485V5.972H0A5.972,5.972,0,0,1,5.972,0Z" transform="matrix(0.921, 0.39, -0.39, 0.921, 2.33, 208.584)" fill="#2f2e41"/>
    <path id="Path_13852" data-name="Path 13852" d="M10.566,0A10.566,10.566,0,1,1,0,10.566,10.566,10.566,0,0,1,10.566,0Z" transform="translate(19.643 76.276)" fill="#f5d0c6"/>
    <path id="Path_13843" data-name="Path 13843" d="M289,462.319l-.108-.352c-2.879-9.358-5.855-19.031-8.835-28.231l-.081-.248.183-.186c4.626-4.706,13.291-6.583,20.158-4.365,6.91,2.231,11.673,8.488,11.077,14.555a15.543,15.543,0,0,0,2.765,10.278l.276.4-.431.225a78.237,78.237,0,0,1-24.639,7.871Z" transform="translate(-258.295 -327.413)" fill="#fff"/>
    <path id="Path_13844" data-name="Path 13844" d="M260.925,572.257a2.145,2.145,0,0,1-1.073-.289l-5.707-3.3a2.139,2.139,0,0,1-.873-2.773l12.682-30.092,9.692-43.889,17.664-6.423.161.074c18.937,8.7,17.473,71.051,16.988,83.462a2.153,2.153,0,0,1-1.961,2.055l-5.311.694A2.171,2.171,0,0,1,300.859,570l-10.844-48.462a.431.431,0,0,0-.354-.373.42.42,0,0,0-.448.212l-26.407,49.778a2.142,2.142,0,0,1-1.312,1.026A2.167,2.167,0,0,1,260.925,572.257Z" transform="translate(-242.959 -360.169)" fill="#0f1f54"/>
    <path id="Path_13845" data-name="Path 13845" d="M276.26,562.24a4.034,4.034,0,0,0-1.665-5.957l.289-9.213-5.556-1.541-.225,13.017a4.056,4.056,0,0,0,7.157,3.695Z" transform="translate(-251.949 -394.378)" fill="#a0616a"/>
    <path id="Path_13846" data-name="Path 13846" d="M264.606,492.171l-.326,0a2.138,2.138,0,0,1-2.118-1.982c-.533-6.862-2.169-30.236-.851-42.908a8.932,8.932,0,0,1,10.4-7.489l.339.075,0,.348c-.121,16.673-.113,33.249-.105,49.279a2.15,2.15,0,0,1-1.68,2.1,27.75,27.75,0,0,1-5.66.576Z" transform="translate(-247.371 -334.047)" fill="#bed4e4"/>
    <path id="Path_13847" data-name="Path 13847" d="M281.758,507.555a5.843,5.843,0,0,1-5.774-5.133l.468-38.48L268.8,444.6a11.359,11.359,0,0,1,7.306-12.072l2.045-.767a3.134,3.134,0,0,1,4.039,1.846L290.08,454.9l0,.031c.547,8.475,3.015,50.653-1.906,51.911a27.154,27.154,0,0,1-6.362.715Z" transform="translate(-251.875 -329.436)" fill="#bed4e4"/>
    <path id="Path_13848" data-name="Path 13848" d="M395.09,527.077a4.034,4.034,0,0,1-1.9-5.887l-5.323-7.525,3.784-4.35,7.368,10.733a4.056,4.056,0,0,1-3.932,7.03Z" transform="translate(-319.773 -373.742)" fill="#a0616a"/>
    <path id="Path_13849" data-name="Path 13849" d="M354.321,469.627a1.737,1.737,0,0,1-1.4-.778l-.028-.042c-8.808-13.331-17.916-27.116-27.147-40.859l-.1-.148.127-.125a8.216,8.216,0,0,1,6.059-2.2,8.1,8.1,0,0,1,5.983,2.806c8.066,9.815,19.579,30.185,22.915,36.2a1.7,1.7,0,0,1-.531,2.25,27.282,27.282,0,0,1-5.233,2.784A1.646,1.646,0,0,1,354.321,469.627Z" transform="translate(-284.319 -325.963)" fill="#bed4e4"/>
    <path id="Path_13850" data-name="Path 13850" d="M342.913,495.242c-5.276,0-24.152-36.343-27.882-43.629l-.032-.088-4.127-22.3a3.133,3.133,0,0,1,2.524-3.654l2.149-.389A11.359,11.359,0,0,1,328,431.815l5.392,22.665,18.03,30.634a5.847,5.847,0,0,1-2.356,7.439,27.135,27.135,0,0,1-5.831,2.644,1.15,1.15,0,0,1-.325.045Z" transform="translate(-275.868 -325.698)" fill="#bed4e4"/>
    <path id="Path_13851" data-name="Path 13851" d="M290.665,378.583H269.371V376a10.767,10.767,0,0,1,10.754-10.754h1.721A10.767,10.767,0,0,1,292.6,376v.645A1.938,1.938,0,0,1,290.665,378.583Z" transform="translate(-252.25 -291.65)" fill="#2f2e41"/>
    <rect id="Rectangle_9" data-name="Rectangle 9" width="24.09" height="24.09" rx="6" transform="translate(90.177 149.935)" fill="#0f1f54"/>
    <path id="Path_202" data-name="Path 202" d="M249.314,207.4l-3.044-3.915,1.77-1.377,1.441,1.853,4.869-5.139,1.628,1.542Z" transform="translate(-148.222 -41.683)" fill="#fff"/>
  </g>
</svg>
