<svg xmlns="http://www.w3.org/2000/svg" width="234.525" height="148.118" viewBox="0 0 234.525 148.118">
  <g id="_111" data-name="111" transform="translate(0 0)">
    <path id="Path_17033" data-name="Path 17033" d="M688.106,340.758a43.7,43.7,0,0,1,3.617-13.791q.816-1.823,1.8-3.567a.266.266,0,0,0-.46-.269,44.3,44.3,0,0,0-4.93,13.6q-.37,2-.556,4.027C687.542,341.1,688.075,341.1,688.106,340.758Z" transform="translate(-538.955 -294.418)" fill="#e6e6e6"/>
    <circle id="Ellipse_3796" data-name="Ellipse 3796" cx="3.371" cy="3.371" r="3.371" transform="translate(152.483 23.094)" fill="#e6e6e6"/>
    <path id="Path_17034" data-name="Path 17034" d="M689.405,352.187a28.344,28.344,0,0,1,2.346-8.947q.529-1.183,1.166-2.314a.173.173,0,0,0-.3-.174,28.741,28.741,0,0,0-3.2,8.823q-.24,1.3-.361,2.612C689.039,352.408,689.385,352.407,689.405,352.187Z" transform="translate(-539.909 -305.757)" fill="#e6e6e6"/>
    <circle id="Ellipse_3797" data-name="Ellipse 3797" cx="2.187" cy="2.187" r="2.187" transform="translate(151.658 31.349)" fill="#e6e6e6"/>
    <path id="Path_17035" data-name="Path 17035" d="M680.741,352.207a28.35,28.35,0,0,1-3.653-8.5q-.31-1.258-.5-2.541a.173.173,0,0,0-.342.046,28.744,28.744,0,0,0,2.9,8.924q.608,1.17,1.322,2.282c.12.187.391-.027.272-.212Z" transform="translate(-531.68 -305.984)" fill="#e6e6e6"/>
    <circle id="Ellipse_3798" data-name="Ellipse 3798" cx="2.187" cy="2.187" r="2.187" transform="translate(142.372 31.196)" fill="#e6e6e6"/>
    <path id="Path_17036" data-name="Path 17036" d="M670.059,367.068v-4.3a1.613,1.613,0,0,1,1.611-1.611H681.7a1.613,1.613,0,0,1,1.611,1.611v4.3a1.613,1.613,0,0,1-1.611,1.611H671.67A1.613,1.613,0,0,1,670.059,367.068Z" transform="translate(-527.712 -318.91)" fill="#f2f2f2" style="isolation: isolate"/>
    <path id="Path_17037" data-name="Path 17037" d="M690.967,263.927h-4.3a1.613,1.613,0,0,1-1.611-1.611V244.771a1.613,1.613,0,0,1,1.611-1.611h4.3a1.613,1.613,0,0,1,1.611,1.611v17.545A1.613,1.613,0,0,1,690.967,263.927Z" transform="translate(-537.341 -243.16)" fill="#f2f2f2" style="isolation: isolate"/>
    <rect id="Rectangle_4796" data-name="Rectangle 4796" width="7.161" height="1.432" transform="translate(147.897 3.402)" fill="#ccc"/>
    <rect id="Rectangle_4797" data-name="Rectangle 4797" width="7.161" height="1.432" transform="translate(147.897 14.501)" fill="#ccc"/>
    <path id="Path_17038" data-name="Path 17038" d="M720.967,263.927h-4.3a1.613,1.613,0,0,1-1.611-1.611V244.771a1.613,1.613,0,0,1,1.611-1.611h4.3a1.613,1.613,0,0,1,1.611,1.611v17.545A1.613,1.613,0,0,1,720.967,263.927Z" transform="translate(-556.599 -243.16)" fill="#f2f2f2" style="isolation: isolate"/>
    <rect id="Rectangle_4798" data-name="Rectangle 4798" width="7.161" height="1.432" transform="translate(158.639 3.402)" fill="#ccc"/>
    <rect id="Rectangle_4799" data-name="Rectangle 4799" width="7.161" height="1.432" transform="translate(158.639 14.501)" fill="#ccc"/>
    <path id="Path_17039" data-name="Path 17039" d="M750.967,263.927h-4.3a1.613,1.613,0,0,1-1.611-1.611V244.771a1.613,1.613,0,0,1,1.611-1.611h4.3a1.613,1.613,0,0,1,1.611,1.611v17.545A1.613,1.613,0,0,1,750.967,263.927Z" transform="translate(-575.858 -243.16)" fill="#f2f2f2" style="isolation: isolate"/>
    <rect id="Rectangle_4800" data-name="Rectangle 4800" width="7.161" height="1.432" transform="translate(169.38 3.402)" fill="#ccc"/>
    <rect id="Rectangle_4801" data-name="Rectangle 4801" width="7.161" height="1.432" transform="translate(169.38 14.501)" fill="#ccc"/>
    <path id="Path_17040" data-name="Path 17040" d="M766.967,344.927h-4.3a1.613,1.613,0,0,1-1.611-1.611V325.771a1.613,1.613,0,0,1,1.611-1.611h4.3a1.613,1.613,0,0,1,1.611,1.611v17.545a1.613,1.613,0,0,1-1.611,1.611Z" transform="translate(-586.129 -295.158)" fill="#f2f2f2" style="isolation: isolate"/>
    <rect id="Rectangle_4802" data-name="Rectangle 4802" width="7.161" height="1.432" transform="translate(175.109 32.404)" fill="#ccc"/>
    <rect id="Rectangle_4803" data-name="Rectangle 4803" width="7.161" height="1.432" transform="translate(175.109 43.503)" fill="#ccc"/>
    <path id="Path_17041" data-name="Path 17041" d="M796.967,344.927h-4.3a1.613,1.613,0,0,1-1.611-1.611V325.771a1.613,1.613,0,0,1,1.611-1.611h4.3a1.613,1.613,0,0,1,1.611,1.611v17.545A1.613,1.613,0,0,1,796.967,344.927Z" transform="translate(-605.387 -295.158)" fill="#f2f2f2" style="isolation: isolate"/>
    <rect id="Rectangle_4804" data-name="Rectangle 4804" width="7.161" height="1.432" transform="translate(185.851 32.404)" fill="#ccc"/>
    <rect id="Rectangle_4805" data-name="Rectangle 4805" width="7.161" height="1.432" transform="translate(185.851 43.503)" fill="#ccc"/>
    <path id="Path_17042" data-name="Path 17042" d="M826.967,344.927h-4.3a1.613,1.613,0,0,1-1.611-1.611V325.771a1.613,1.613,0,0,1,1.611-1.611h4.3a1.613,1.613,0,0,1,1.611,1.611v17.545A1.613,1.613,0,0,1,826.967,344.927Z" transform="translate(-624.646 -295.158)" fill="#f2f2f2" style="isolation: isolate"/>
    <rect id="Rectangle_4806" data-name="Rectangle 4806" width="7.161" height="1.432" transform="translate(196.592 32.404)" fill="#ccc"/>
    <rect id="Rectangle_4807" data-name="Rectangle 4807" width="7.161" height="1.432" transform="translate(196.592 43.503)" fill="#ccc"/>
    <path id="Path_17043" data-name="Path 17043" d="M687.967,425.927h-4.3a1.613,1.613,0,0,1-1.611-1.611V406.771a1.613,1.613,0,0,1,1.611-1.611h4.3a1.613,1.613,0,0,1,1.611,1.611v17.545A1.613,1.613,0,0,1,687.967,425.927Z" transform="translate(-535.415 -347.156)" fill="#f2f2f2" style="isolation: isolate"/>
    <rect id="Rectangle_4808" data-name="Rectangle 4808" width="7.161" height="1.432" transform="translate(146.823 61.406)" fill="#ccc"/>
    <rect id="Rectangle_4809" data-name="Rectangle 4809" width="7.161" height="1.432" transform="translate(146.823 72.506)" fill="#ccc"/>
    <path id="Path_17044" data-name="Path 17044" d="M717.967,425.927h-4.3a1.613,1.613,0,0,1-1.611-1.611V406.771a1.613,1.613,0,0,1,1.611-1.611h4.3a1.613,1.613,0,0,1,1.611,1.611v17.545A1.613,1.613,0,0,1,717.967,425.927Z" transform="translate(-554.674 -347.156)" fill="#f2f2f2" style="isolation: isolate"/>
    <rect id="Rectangle_4810" data-name="Rectangle 4810" width="7.161" height="1.432" transform="translate(157.564 61.406)" fill="#ccc"/>
    <rect id="Rectangle_4811" data-name="Rectangle 4811" width="7.161" height="1.432" transform="translate(157.564 72.506)" fill="#ccc"/>
    <path id="Path_17045" data-name="Path 17045" d="M747.967,425.927h-4.3a1.613,1.613,0,0,1-1.611-1.611V406.771a1.613,1.613,0,0,1,1.611-1.611h4.3a1.613,1.613,0,0,1,1.611,1.611v17.545A1.613,1.613,0,0,1,747.967,425.927Z" transform="translate(-573.932 -347.156)" fill="#f2f2f2" style="isolation: isolate"/>
    <rect id="Rectangle_4812" data-name="Rectangle 4812" width="7.161" height="1.432" transform="translate(168.306 61.406)" fill="#ccc"/>
    <rect id="Rectangle_4813" data-name="Rectangle 4813" width="7.161" height="1.432" transform="translate(168.306 72.506)" fill="#ccc"/>
    <path id="Path_17046" data-name="Path 17046" d="M780.967,263.927h-4.3a1.613,1.613,0,0,1-1.611-1.611V244.771a1.613,1.613,0,0,1,1.611-1.611h4.3a1.613,1.613,0,0,1,1.611,1.611v17.545A1.613,1.613,0,0,1,780.967,263.927Z" transform="translate(-595.116 -243.16)" fill="#f2f2f2" style="isolation: isolate"/>
    <rect id="Rectangle_4814" data-name="Rectangle 4814" width="7.161" height="1.432" transform="translate(180.122 3.402)" fill="#ccc"/>
    <rect id="Rectangle_4815" data-name="Rectangle 4815" width="7.161" height="1.432" transform="translate(180.122 14.501)" fill="#ccc"/>
    <path id="Path_17047" data-name="Path 17047" d="M810.967,263.927h-4.3a1.613,1.613,0,0,1-1.611-1.611V244.771a1.613,1.613,0,0,1,1.611-1.611h4.3a1.613,1.613,0,0,1,1.611,1.611v17.545A1.613,1.613,0,0,1,810.967,263.927Z" transform="translate(-614.375 -243.16)" fill="#f2f2f2" style="isolation: isolate"/>
    <rect id="Rectangle_4816" data-name="Rectangle 4816" width="7.161" height="1.432" transform="translate(190.863 3.402)" fill="#ccc"/>
    <rect id="Rectangle_4817" data-name="Rectangle 4817" width="7.161" height="1.432" transform="translate(190.863 14.501)" fill="#ccc"/>
    <path id="Path_17048" data-name="Path 17048" d="M840.967,263.927h-4.3a1.613,1.613,0,0,1-1.611-1.611V244.771a1.613,1.613,0,0,1,1.611-1.611h4.3a1.613,1.613,0,0,1,1.611,1.611v17.545A1.613,1.613,0,0,1,840.967,263.927Z" transform="translate(-633.633 -243.16)" fill="#f2f2f2" style="isolation: isolate"/>
    <rect id="Rectangle_4818" data-name="Rectangle 4818" width="7.161" height="1.432" transform="translate(201.605 3.402)" fill="#ccc"/>
    <rect id="Rectangle_4819" data-name="Rectangle 4819" width="7.161" height="1.432" transform="translate(201.605 14.501)" fill="#ccc"/>
    <path id="Path_17049" data-name="Path 17049" d="M870.967,263.927h-4.3a1.613,1.613,0,0,1-1.611-1.611V244.771a1.613,1.613,0,0,1,1.611-1.611h4.3a1.613,1.613,0,0,1,1.611,1.611v17.545A1.613,1.613,0,0,1,870.967,263.927Z" transform="translate(-652.891 -243.16)" fill="#f2f2f2" style="isolation: isolate"/>
    <rect id="Rectangle_4820" data-name="Rectangle 4820" width="7.161" height="1.432" transform="translate(212.347 3.402)" fill="#ccc"/>
    <rect id="Rectangle_4821" data-name="Rectangle 4821" width="7.161" height="1.432" transform="translate(212.347 14.501)" fill="#ccc"/>
    <path id="Path_17050" data-name="Path 17050" d="M742.9,301.376H640.858a.358.358,0,0,1,0-.716H742.9a.358.358,0,1,1,0,.716Z" transform="translate(-508.736 -280.072)" fill="#ccc"/>
    <path id="Path_17051" data-name="Path 17051" d="M742.9,382.376H640.858a.358.358,0,0,1,0-.716H742.9a.358.358,0,1,1,0,.716Z" transform="translate(-508.736 -332.07)" fill="#ccc"/>
    <path id="Path_17052" data-name="Path 17052" d="M742.9,463.376H640.858a.358.358,0,0,1,0-.716H742.9a.358.358,0,1,1,0,.716Z" transform="translate(-508.736 -384.068)" fill="#ccc"/>
    <path id="Path_17053" data-name="Path 17053" d="M853.106,421.758a43.7,43.7,0,0,1,3.616-13.791q.816-1.823,1.8-3.566a.266.266,0,0,0-.46-.269,44.3,44.3,0,0,0-4.93,13.6q-.37,2-.556,4.027C852.542,422.1,853.075,422.1,853.106,421.758Z" transform="translate(-644.876 -346.415)" fill="#e6e6e6"/>
    <circle id="Ellipse_3799" data-name="Ellipse 3799" cx="3.371" cy="3.371" r="3.371" transform="translate(211.562 52.097)" fill="#e6e6e6"/>
    <path id="Path_17054" data-name="Path 17054" d="M854.405,433.187a28.342,28.342,0,0,1,2.346-8.947q.53-1.183,1.166-2.314a.173.173,0,0,0-.3-.174,28.743,28.743,0,0,0-3.2,8.823q-.24,1.3-.361,2.612C854.04,433.408,854.385,433.407,854.405,433.187Z" transform="translate(-645.83 -357.755)" fill="#e6e6e6"/>
    <circle id="Ellipse_3800" data-name="Ellipse 3800" cx="2.187" cy="2.187" r="2.187" transform="translate(210.736 60.351)" fill="#e6e6e6"/>
    <path id="Path_17055" data-name="Path 17055" d="M845.74,433.206a28.352,28.352,0,0,1-3.653-8.5q-.31-1.258-.5-2.541a.173.173,0,0,0-.342.046,28.742,28.742,0,0,0,2.9,8.924q.608,1.17,1.322,2.282C845.588,433.606,845.859,433.392,845.74,433.206Z" transform="translate(-637.601 -357.981)" fill="#e6e6e6"/>
    <circle id="Ellipse_3801" data-name="Ellipse 3801" cx="2.187" cy="2.187" r="2.187" transform="translate(201.451 60.198)" fill="#e6e6e6"/>
    <path id="Path_17056" data-name="Path 17056" d="M835.059,448.068v-4.3a1.613,1.613,0,0,1,1.611-1.611H846.7a1.613,1.613,0,0,1,1.611,1.611v4.3a1.613,1.613,0,0,1-1.611,1.611H836.67A1.613,1.613,0,0,1,835.059,448.068Z" transform="translate(-633.633 -370.908)" fill="#f2f2f2" style="isolation: isolate"/>
    <path id="Path_17057" data-name="Path 17057" d="M409.276,605.376H272.858a.358.358,0,1,1,0-.716H409.276a.358.358,0,1,1,0,.716Z" transform="translate(-272.5 -475.224)" fill="#3f3d56"/>
    <circle id="Ellipse_3802" data-name="Ellipse 3802" cx="9.667" cy="9.667" r="9.667" transform="translate(61.606 63.912)" fill="#2f2e41"/>
    <path id="Path_17058" data-name="Path 17058" d="M172.946,365.459l-.256-4.382L189.471,358l.378,6.468Z" transform="translate(-110.858 -229.819)" fill="#ffb8b8"/>
    <path id="Path_17059" data-name="Path 17059" d="M5.33,0H13.8V5.33H0A5.33,5.33,0,0,1,5.33,0Z" transform="translate(62.588 122.733) rotate(86.655)" fill="#2f2e41"/>
    <path id="Path_17060" data-name="Path 17060" d="M162.962,359.439l-2.787,3.391-14.407-9.137,4.114-5Z" transform="translate(-93.575 -223.839)" fill="#ffb8b8"/>
    <path id="Path_17061" data-name="Path 17061" d="M5.33,0H13.8V5.33H0A5.33,5.33,0,0,1,5.33,0Z" transform="matrix(0.635, -0.773, 0.773, 0.635, 60.256, 144.734)" fill="#2f2e41"/>
    <path id="Path_17062" data-name="Path 17062" d="M440.416,575.8l-1.9,8.98a1.432,1.432,0,0,0,1.378,1.729l18.725.3a1.432,1.432,0,0,0,1.434-1.681l-1.638-9.281A1.432,1.432,0,0,0,457,574.66H441.817A1.432,1.432,0,0,0,440.416,575.8Z" transform="translate(-379.05 -455.966)" fill="#2f2e41"/>
    <path id="Path_17063" data-name="Path 17063" d="M411.6,573.836s-18.261-11.458-21.841-5.371c-1.79,3.043-.9,6,.448,8.19a12.4,12.4,0,0,0,5.157,4.616l14.8,7.245,5.371-5.729-3.581-3.222Z" transform="translate(-347.132 -450.845)" fill="#2f2e41"/>
    <path id="Path_17064" data-name="Path 17064" d="M469.572,578.444s23.631-6.8,18.977,6.087-22.2,7.877-22.2,7.877l-1.79-5.371,6.087-4.3Z" transform="translate(-395.792 -457.243)" fill="#2f2e41"/>
    <circle id="Ellipse_3803" data-name="Ellipse 3803" cx="8.794" cy="8.794" r="8.794" transform="translate(62.601 66.993)" fill="#ffb8b8"/>
    <path id="Path_17065" data-name="Path 17065" d="M444.417,522.216a47.265,47.265,0,0,1-10.834-1.427l-.1-.029-4.907-22.573a8.316,8.316,0,0,1,5.347-9.647,28.809,28.809,0,0,1,18.368-.367h0a8.4,8.4,0,0,1,5.6,9.941L452.4,520.741l-.077.037A18.9,18.9,0,0,1,444.417,522.216Z" transform="translate(-372.561 -399.594)" fill="#424e8b"/>
    <path id="Path_17066" data-name="Path 17066" d="M454.375,572.079a3.6,3.6,0,0,1,5.183-1.9l9.663-8.387.874,6.591-9.31,6.954a3.62,3.62,0,0,1-6.41-3.256Z" transform="translate(-389.112 -447.704)" fill="#ffb8b8"/>
    <path id="Path_17067" data-name="Path 17067" d="M475.519,528.695a1.625,1.625,0,0,1-.464-.068,1.594,1.594,0,0,1-1.061-1.008l-1.166-3.3a1.6,1.6,0,0,1,.466-1.755l13.165-7.9L481.27,491.5l.132-.032c.054-.013,5.371-1.224,7.55,4.587,1.526,4.069,7.172,12.917,6.774,18.9a5.33,5.33,0,0,1-4.412,4.915l-14.819,8.491A1.6,1.6,0,0,1,475.519,528.695Z" transform="translate(-401.04 -402.49)" fill="#424e8b"/>
    <path id="Path_17068" data-name="Path 17068" d="M456.452,569.885a3.6,3.6,0,0,0-5.183-1.9l-9.663-8.387-.874,6.591,9.31,6.954a3.62,3.62,0,0,0,6.41-3.256Z" transform="translate(-380.496 -446.295)" fill="#ffb8b8"/>
    <path id="Path_17069" data-name="Path 17069" d="M423.422,528.694a1.6,1.6,0,0,1-.975-.335l-15.893-7.774a5.329,5.329,0,0,1-4.412-4.915c-.4-5.979,6.322-15.544,7.848-19.613,2.179-5.81,7.5-4.6,7.55-4.587l.132.032-6.264,23.868,14.239,7.188a1.6,1.6,0,0,1,.466,1.755l-1.166,3.3a1.6,1.6,0,0,1-1.061,1.008,1.624,1.624,0,0,1-.464.068Z" transform="translate(-355.712 -402.489)" fill="#424e8b"/>
    <path id="Path_17070" data-name="Path 17070" d="M452.932,565.217H421.065a2.509,2.509,0,0,1-2.506-2.506V545.166a2.509,2.509,0,0,1,2.506-2.506h31.867a2.509,2.509,0,0,1,2.506,2.506v17.545A2.509,2.509,0,0,1,452.932,565.217Z" transform="translate(-366.262 -435.423)" fill="#131f51"/>
    <circle id="Ellipse_3804" data-name="Ellipse 3804" cx="2.148" cy="2.148" r="2.148" transform="translate(68.588 116.367)" fill="#fff"/>
    <path id="Path_17071" data-name="Path 17071" d="M446.812,436.47a2.988,2.988,0,0,1,1.6-3.538,5.613,5.613,0,0,1,4.156-.1c1.14.355,2.209.9,3.322,1.339a7.434,7.434,0,0,0,3.492.622,3.517,3.517,0,0,0,2.853-1.89,3.467,3.467,0,0,0-.614-3.476,6.731,6.731,0,0,0-3.083-1.982,10.013,10.013,0,0,0-8.068.391,6.85,6.85,0,0,0-3.578,6.921" transform="translate(-384.299 -361.04)" fill="#2f2e41"/>
    <path id="Path_17072" data-name="Path 17072" d="M304.206,563.154a43.7,43.7,0,0,1,3.617-13.791q.816-1.823,1.8-3.566a.266.266,0,0,0-.46-.269,44.3,44.3,0,0,0-4.93,13.6q-.37,2-.556,4.027C303.642,563.5,304.174,563.493,304.206,563.154Z" transform="translate(-292.511 -437.185)" fill="#e6e6e6"/>
    <circle id="Ellipse_3805" data-name="Ellipse 3805" cx="3.371" cy="3.371" r="3.371" transform="translate(15.026 102.724)" fill="#131f51"/>
    <path id="Path_17073" data-name="Path 17073" d="M305.5,574.583a28.35,28.35,0,0,1,2.346-8.947q.53-1.183,1.166-2.314a.173.173,0,0,0-.3-.174,28.742,28.742,0,0,0-3.2,8.823q-.24,1.3-.361,2.612C305.139,574.8,305.484,574.8,305.5,574.583Z" transform="translate(-293.465 -448.523)" fill="#e6e6e6"/>
    <circle id="Ellipse_3806" data-name="Ellipse 3806" cx="2.187" cy="2.187" r="2.187" transform="translate(14.201 110.979)" fill="#131f51"/>
    <path id="Path_17074" data-name="Path 17074" d="M296.84,574.6a28.349,28.349,0,0,1-3.653-8.5q-.31-1.258-.5-2.541a.173.173,0,0,0-.342.046,28.741,28.741,0,0,0,2.9,8.924q.608,1.17,1.322,2.282C296.688,575,296.959,574.789,296.84,574.6Z" transform="translate(-285.236 -448.75)" fill="#e6e6e6"/>
    <circle id="Ellipse_3807" data-name="Ellipse 3807" cx="2.187" cy="2.187" r="2.187" transform="translate(4.915 110.825)" fill="#131f51"/>
    <path id="Path_17075" data-name="Path 17075" d="M286.159,589.464v-4.3a1.613,1.613,0,0,1,1.611-1.611H297.8a1.613,1.613,0,0,1,1.611,1.611v4.3a1.613,1.613,0,0,1-1.611,1.611H287.77A1.613,1.613,0,0,1,286.159,589.464Z" transform="translate(-281.268 -461.676)" fill="#f2f2f2" style="isolation: isolate"/>
    <path id="Path_17076" data-name="Path 17076" d="M571.619,605.985c0,2.355-1.909,3.425-4.264,3.425s-4.264-1.07-4.264-3.425.948-5.1,4.264-4.155C570.672,600.408,571.619,603.63,571.619,605.985Z" transform="translate(-459.044 -473.183)" fill="#161f4e"/>
    <path id="Path_17077" data-name="Path 17077" d="M570.906,595.109a.681.681,0,0,1-.677-.594,28.605,28.605,0,0,0-1.247-4.411h0a.61.61,0,0,1,.079-.561.639.639,0,0,1,.953-.069.61.61,0,0,1,.168.457,10.69,10.69,0,0,0,1.337,4.187.683.683,0,0,1-.541.987A.607.607,0,0,1,570.906,595.109Z" transform="translate(-462.802 -465.359)" fill="#3f3d56"/>
    <path id="Path_17078" data-name="Path 17078" d="M576.933,592.275a1.833,1.833,0,0,0-1.534-3.215,1.5,1.5,0,0,0-.667.356c-1.136,1.073-1.312,3.82-1.312,3.82A5.029,5.029,0,0,0,576.933,592.275Z" transform="translate(-465.674 -465.171)" fill="#3f3d56"/>
  </g>
</svg>
