<svg xmlns="http://www.w3.org/2000/svg" xmlns:xlink="http://www.w3.org/1999/xlink" width="57" height="57" viewBox="0 0 57 57">
  <defs>
    <filter id="Ellipse_3791" x="0" y="0" width="57" height="57" filterUnits="userSpaceOnUse">
      <feOffset dy="3" input="SourceAlpha"/>
      <feGaussianBlur stdDeviation="3" result="blur"/>
      <feFlood flood-opacity="0.161"/>
      <feComposite operator="in" in2="blur"/>
      <feComposite in="SourceGraphic"/>
    </filter>
  </defs>
  <g id="Group_16417" data-name="Group 16417" transform="translate(-671 -121)">
    <g id="Group_16380" data-name="Group 16380" transform="translate(186 -1)">
      <g transform="matrix(1, 0, 0, 1, 485, 122)" filter="url(#Ellipse_3791)">
        <circle id="Ellipse_3791-2" data-name="Ellipse 3791" cx="19.5" cy="19.5" r="19.5" transform="translate(9 6)" fill="#fff"/>
      </g>
    </g>
    <path id="_1" data-name="1" d="M4,19v0ZM2,21V6H8V2h8V6h6v6.275a6.091,6.091,0,0,0-.95-.563A8.382,8.382,0,0,0,20,11.3V8H4V19h7.075a7.013,7.013,0,0,0,.225,1.025,6.922,6.922,0,0,0,.375.975ZM10,6h4V4H10Zm8,17a4.993,4.993,0,0,1-5-5,4.993,4.993,0,0,1,5-5,4.992,4.992,0,0,1,5,5,4.992,4.992,0,0,1-5,5Zm1.65-2.65.7-.7L18.5,17.8V15h-1v3.2Z" transform="translate(687 134)" fill="#161f4e"/>
  </g>
</svg>
