<svg width="75" height="75" viewBox="0 0 75 75" fill="none" xmlns="http://www.w3.org/2000/svg">
<g filter="url(#filter0_d_162_8974)">
<circle cx="37.5" cy="33.5" r="22.5" fill="white"/>
</g>
<path d="M31 43C30.45 43 29.979 42.804 29.587 42.412C29.195 42.02 28.9993 41.5493 29 41V27C29 26.45 29.196 25.979 29.588 25.587C29.98 25.195 30.4507 24.9993 31 25H32V24C32 23.7167 32.096 23.479 32.288 23.287C32.48 23.095 32.7173 22.9993 33 23C33.2833 23 33.521 23.096 33.713 23.288C33.905 23.48 34.0007 23.7173 34 24V25H42V24C42 23.7167 42.096 23.479 42.288 23.287C42.48 23.095 42.7173 22.9993 43 23C43.2833 23 43.521 23.096 43.713 23.288C43.905 23.48 44.0007 23.7173 44 24V25H45C45.55 25 46.021 25.196 46.413 25.588C46.805 25.98 47.0007 26.4507 47 27V41C47 41.55 46.804 42.021 46.412 42.413C46.02 42.805 45.5493 43.0007 45 43H31ZM31 41H45V31H31V41ZM38 35C37.7167 35 37.479 34.904 37.287 34.712C37.095 34.52 36.9993 34.2827 37 34C37 33.7167 37.096 33.479 37.288 33.287C37.48 33.095 37.7173 32.9993 38 33C38.2833 33 38.521 33.096 38.713 33.288C38.905 33.48 39.0007 33.7173 39 34C39 34.2833 38.904 34.521 38.712 34.713C38.52 34.905 38.2827 35.0007 38 35ZM34 35C33.7167 35 33.479 34.904 33.287 34.712C33.095 34.52 32.9993 34.2827 33 34C33 33.7167 33.096 33.479 33.288 33.287C33.48 33.095 33.7173 32.9993 34 33C34.2833 33 34.521 33.096 34.713 33.288C34.905 33.48 35.0007 33.7173 35 34C35 34.2833 34.904 34.521 34.712 34.713C34.52 34.905 34.2827 35.0007 34 35ZM42 35C41.7167 35 41.479 34.904 41.287 34.712C41.095 34.52 40.9993 34.2827 41 34C41 33.7167 41.096 33.479 41.288 33.287C41.48 33.095 41.7173 32.9993 42 33C42.2833 33 42.521 33.096 42.713 33.288C42.905 33.48 43.0007 33.7173 43 34C43 34.2833 42.904 34.521 42.712 34.713C42.52 34.905 42.2827 35.0007 42 35ZM38 39C37.7167 39 37.479 38.904 37.287 38.712C37.095 38.52 36.9993 38.2827 37 38C37 37.7167 37.096 37.479 37.288 37.287C37.48 37.095 37.7173 36.9993 38 37C38.2833 37 38.521 37.096 38.713 37.288C38.905 37.48 39.0007 37.7173 39 38C39 38.2833 38.904 38.521 38.712 38.713C38.52 38.905 38.2827 39.0007 38 39ZM34 39C33.7167 39 33.479 38.904 33.287 38.712C33.095 38.52 32.9993 38.2827 33 38C33 37.7167 33.096 37.479 33.288 37.287C33.48 37.095 33.7173 36.9993 34 37C34.2833 37 34.521 37.096 34.713 37.288C34.905 37.48 35.0007 37.7173 35 38C35 38.2833 34.904 38.521 34.712 38.713C34.52 38.905 34.2827 39.0007 34 39ZM42 39C41.7167 39 41.479 38.904 41.287 38.712C41.095 38.52 40.9993 38.2827 41 38C41 37.7167 41.096 37.479 41.288 37.287C41.48 37.095 41.7173 36.9993 42 37C42.2833 37 42.521 37.096 42.713 37.288C42.905 37.48 43.0007 37.7173 43 38C43 38.2833 42.904 38.521 42.712 38.713C42.52 38.905 42.2827 39.0007 42 39Z" fill="#5C5D5D"/>
<defs>
<filter id="filter0_d_162_8974" x="0" y="0" width="75" height="75" filterUnits="userSpaceOnUse" color-interpolation-filters="sRGB">
<feFlood flood-opacity="0" result="BackgroundImageFix"/>
<feColorMatrix in="SourceAlpha" type="matrix" values="0 0 0 0 0 0 0 0 0 0 0 0 0 0 0 0 0 0 127 0" result="hardAlpha"/>
<feMorphology radius="1" operator="erode" in="SourceAlpha" result="effect1_dropShadow_162_8974"/>
<feOffset dy="4"/>
<feGaussianBlur stdDeviation="8"/>
<feComposite in2="hardAlpha" operator="out"/>
<feColorMatrix type="matrix" values="0 0 0 0 0 0 0 0 0 0 0 0 0 0 0 0 0 0 0.1 0"/>
<feBlend mode="normal" in2="BackgroundImageFix" result="effect1_dropShadow_162_8974"/>
<feBlend mode="normal" in="SourceGraphic" in2="effect1_dropShadow_162_8974" result="shape"/>
</filter>
</defs>
</svg>
