<svg xmlns="http://www.w3.org/2000/svg" width="22.178" height="22.237" viewBox="0 0 22.178 22.237">
    <g data-name="Group 9413">
        <path data-name="Path 8614" d="M21.432 8.7H11.089a.762.762 0 0 0-.746.778v7.464a.762.762 0 0 0 .746.778h4.426v1.089H2.362v-6.658H3.58a3.413 3.413 0 0 0 .845 3.266l.05.078a.849.849 0 0 0 .547.207.826.826 0 0 0 .522-.207L9.1 11.762a.774.774 0 0 0 .025-1.062l-.025-.026-.075-.074a3.164 3.164 0 0 0-4.6 0H1.616a.734.734 0 0 0-.746.725v7.491H.746a.788.788 0 0 0-.746.773v11.352h1.492v-7.775h18.821v7.775H21.8V19.589a.762.762 0 0 0-.746-.778h-4.048v-1.088h4.426a.762.762 0 0 0 .746-.778V9.482a.762.762 0 0 0-.746-.782z" transform="translate(0 -8.704)" style="fill:#131f51"/>
    </g>
    <path data-name="Rectangle 4311" transform="translate(11.271 1.008)" style="fill:#131f51" d="M0 0h10v7H0z"/>
</svg>
