<svg id="public_black_24dp_1_" data-name="public_black_24dp (1)" xmlns="http://www.w3.org/2000/svg" width="24" height="24" viewBox="0 0 24 24">
  <path id="Path_13811" data-name="Path 13811" d="M0,0H24V24H0Z" fill="none"/>
  <path id="Path_14995" data-name="Path 14995" d="M12.913,2.239h-.62V1H11.055V2.239H6.1V1H4.859V2.239h-.62A1.234,1.234,0,0,0,3.006,3.478L3,12.152a1.239,1.239,0,0,0,1.239,1.239h8.674a1.243,1.243,0,0,0,1.239-1.239V3.478A1.243,1.243,0,0,0,12.913,2.239Zm0,9.913H4.239V5.337h8.674ZM5.478,6.576h3.1v3.1h-3.1Z" transform="translate(1.365 4.451)" fill="#fff"/>
</svg>
