<svg id="add_link_black_24dp" xmlns="http://www.w3.org/2000/svg" width="24" height="24" viewBox="0 0 24 24">
  <path id="Path_13805" data-name="Path 13805" d="M0,0H24V24H0" fill="none"/>
  <path id="Path_14165" data-name="Path 14165" d="M12.842,3H4.23A1.234,1.234,0,0,0,3,4.23v8.612a1.234,1.234,0,0,0,1.23,1.23h8.612a1.234,1.234,0,0,0,1.23-1.23V4.23A1.234,1.234,0,0,0,12.842,3Zm-4.3,9.227a.772.772,0,0,1-.775-.775.763.763,0,0,1,.775-.769.754.754,0,0,1,.769.769A.771.771,0,0,1,8.542,12.227Zm1.852-4.552c-.467.683-.91.9-1.15,1.335-.1.178-.135.3-.135.867H7.989a2.344,2.344,0,0,1,.191-1.218c.3-.535.873-.855,1.206-1.329A.913.913,0,0,0,8.542,5.9a1.17,1.17,0,0,0-1.107.91L6.42,6.377A2.191,2.191,0,0,1,8.53,4.845a2.075,2.075,0,0,1,1.852.935A1.856,1.856,0,0,1,10.394,7.675Z" transform="translate(2.464 4.464)" fill="#fff"/>
</svg>
