<svg id="groups_black_24dp_3_" data-name="groups_black_24dp (3)" xmlns="http://www.w3.org/2000/svg" width="24" height="24" viewBox="0 0 24 24">
  <rect id="Rectangle_4262" data-name="Rectangle 4262" width="24" height="24" fill="none"/>
  <g id="Group_14590" data-name="Group 14590" transform="translate(4.403 2)">
    <path id="Path_13810" data-name="Path 13810" d="M7.6,11.063a5.846,5.846,0,0,1,2.684.675A2.292,2.292,0,0,1,11.4,13.785V15H3.8V13.793a2.275,2.275,0,0,1,1.114-2.048A5.756,5.756,0,0,1,7.6,11.063Zm-5.065.188A1.4,1.4,0,0,0,3.8,9.75a1.4,1.4,0,0,0-1.266-1.5,1.4,1.4,0,0,0-1.266,1.5A1.4,1.4,0,0,0,2.532,11.25Zm.715.825A3.751,3.751,0,0,0,2.532,12a3.823,3.823,0,0,0-1.76.435A1.537,1.537,0,0,0,0,13.823V15H2.849V13.793A3.858,3.858,0,0,1,3.248,12.075Zm9.414-.825a1.4,1.4,0,0,0,1.266-1.5,1.4,1.4,0,0,0-1.266-1.5A1.4,1.4,0,0,0,11.4,9.75,1.4,1.4,0,0,0,12.662,11.25Zm2.532,2.573a1.537,1.537,0,0,0-.772-1.388A3.823,3.823,0,0,0,12.662,12a3.751,3.751,0,0,0-.715.075,3.858,3.858,0,0,1,.4,1.718V15h2.849ZM7.6,6A2.094,2.094,0,0,1,9.5,8.25,2.094,2.094,0,0,1,7.6,10.5,2.094,2.094,0,0,1,5.7,8.25,2.094,2.094,0,0,1,7.6,6Z" fill="#fff"/>
  </g>
</svg>
