<svg xmlns="http://www.w3.org/2000/svg" width="69.597" height="69.171" viewBox="0 0 69.597 69.171">
  <g id="Group_16450" data-name="Group 16450" transform="translate(471.934 -1672)">
    <path id="Path_17203" data-name="Path 17203" d="M194.2,225.68h-1.77a14.534,14.534,0,0,1-17.983,0H173.1c-6.584,0-11.823,4.036-11.823,8.992H205.53c0-4.956-5.1-8.992-11.328-8.992Z" transform="translate(-622.382 1473.932)" fill="#1f2551"/>
    <path id="Path_17204" data-name="Path 17204" d="M244.03,21.281a13.31,13.31,0,1,0,13.31,13.31A13.295,13.295,0,0,0,244.03,21.281Zm0,23.647a10.349,10.349,0,0,1-10.337-10.337,10.532,10.532,0,0,1,.354-2.549,14.308,14.308,0,0,0,5.947,1.416,9.3,9.3,0,0,0,5.593-1.77c.212-.142,4.744-3.4,8.354-.142a10.072,10.072,0,0,1,.425,2.974A10.318,10.318,0,0,1,244.03,44.928Z" transform="translate(-683.042 1652.489)" fill="#1f2551"/>
    <path id="Path_17205" data-name="Path 17205" d="M139.742,337.6H132.45a3.459,3.459,0,0,0,.779-2.195V311.613A3.626,3.626,0,0,0,129.618,308h-42.2a3.626,3.626,0,0,0-3.611,3.611V335.4a3.319,3.319,0,0,0,.779,2.195H76.306a.709.709,0,0,0-.708.708v.142a.709.709,0,0,0,.708.708h63.436a.709.709,0,0,0,.708-.708v-.071a.729.729,0,0,0-.709-.779ZM108.52,327.4a4.106,4.106,0,1,1,4.106-4.106A4.109,4.109,0,0,1,108.52,327.4Z" transform="translate(-547.531 1402.017)" fill="#1f2551"/>
    <path id="Path_17206" data-name="Path 17206" d="M483.389,26.537a9.629,9.629,0,1,1,9.629-9.629A9.639,9.639,0,0,1,483.389,26.537Zm0-17.275a7.576,7.576,0,1,0,7.576,7.575A7.584,7.584,0,0,0,483.389,9.262Z" transform="translate(-895.355 1664.72)" fill="#1f2551"/>
    <path id="Path_17207" data-name="Path 17207" d="M548.513,44.3H544.9V40.053a.849.849,0,1,0-1.7,0v5.168a.818.818,0,0,0,.849.849h4.46a.818.818,0,0,0,.849-.849.836.836,0,0,0-.849-.921Z" transform="translate(-956.019 1636.833)" fill="#1f2551"/>
  </g>
</svg>
