<svg xmlns="http://www.w3.org/2000/svg" width="65.375" height="63.404" viewBox="0 0 65.375 63.404">
  <g id="Group_16449" data-name="Group 16449" transform="translate(708.726 -750)">
    <path id="Path_17199" data-name="Path 17199" d="M102.633,302.718h-1.05a.772.772,0,0,1-.763-.773v-10.6h-8.1v10.6a.774.774,0,0,1-.773.773H89.557a.772.772,0,0,1-.763-.773v-10.6H88.12a2.082,2.082,0,0,1-2.081-2.09V271.363a1.61,1.61,0,0,1,1.05-1.535,1.57,1.57,0,0,1,2.07,1.486v.01h.822A1.417,1.417,0,0,1,91.4,272.74V281.3a1.417,1.417,0,0,1-1.417,1.417h-.822v5.5h.5V286.49a1.97,1.97,0,0,1,1.971-1.971h8.639a2.971,2.971,0,0,0,2.189.971h.069v16.455a2.882,2.882,0,0,0,.109.773Z" transform="translate(-794.766 510.686)" fill="#1f2551"/>
    <path id="Path_17200" data-name="Path 17200" d="M495.641,271.357v17.892a2.082,2.082,0,0,1-2.081,2.09h-.674v10.6a.772.772,0,0,1-.763.773h-2.388a.774.774,0,0,1-.773-.773v-10.6h-8.1v10.6a.772.772,0,0,1-.763.773h-1.179a2.863,2.863,0,0,0,.109-.773V285.485h.069a2.97,2.97,0,0,0,2.189-.971h8.768a1.97,1.97,0,0,1,1.971,1.971v1.724h.5v-5.5H491.7a1.417,1.417,0,0,1-1.417-1.417v-8.56a1.417,1.417,0,0,1,1.417-1.417h.822v-.01a1.57,1.57,0,0,1,2.07-1.486,1.612,1.612,0,0,1,1.05,1.536Z" transform="translate(-1138.991 510.691)" fill="#1f2551"/>
    <path id="Path_17201" data-name="Path 17201" d="M223.243,332.75H185.924a1.828,1.828,0,0,0,0,3.656h1.471v1.33a.98.98,0,0,0,.98.98h2.049v18.432a.774.774,0,0,0,.773.773h2.774a.774.774,0,0,0,.773-.773V338.715h19.675v18.432a.776.776,0,0,0,.783.773h2.764a.774.774,0,0,0,.773-.773V338.715h2.054a.98.98,0,0,0,.98-.98v-1.33h1.471a1.828,1.828,0,0,0,0-3.655Z" transform="translate(-880.684 455.484)" fill="#1f2551"/>
    <path id="Path_17202" data-name="Path 17202" d="M234.03,48.549h-.882V26.209h.882a1.1,1.1,0,1,0,0-2.209H196.989a1.1,1.1,0,1,0,0,2.209h.882v22.34h-.882a1.1,1.1,0,1,0,0,2.209H234.03a1.1,1.1,0,1,0,0-2.209Zm-7.52-15.774-1.474,3.776a.436.436,0,0,1-.729.1l-.943-1.211-7.139,5.137a2.243,2.243,0,0,1-2.553,0l-2.3-1.657a.774.774,0,0,0-.777-.068c-.17.078.371-.3-5,3.57a.7.7,0,0,1-.82-1.14l4.866-3.5a2.185,2.185,0,0,1,2.552,0l2.3,1.657a.781.781,0,0,0,.913,0l7.1-5.106-.74-.95a.423.423,0,0,1,.281-.679l4.019-.508a.428.428,0,0,1,.45.576Z" transform="translate(-891.003 726)" fill="#1f2551"/>
  </g>
</svg>
