<svg xmlns="http://www.w3.org/2000/svg" width="57.522" height="57.675" viewBox="0 0 57.522 57.675">
  <g id="Group_9413" data-name="Group 9413" transform="translate(0 0)">
    <path id="Path_8614" data-name="Path 8614" d="M55.587,8.7H28.761a1.977,1.977,0,0,0-1.935,2.017V30.08A1.977,1.977,0,0,0,28.761,32.1H40.24V34.92H6.126V17.644h3.16a8.853,8.853,0,0,0,2.193,8.47l.129.2a2.2,2.2,0,0,0,1.419.538,2.141,2.141,0,0,0,1.354-.538l9.222-9.68a2.008,2.008,0,0,0,.064-2.756c-.021-.023-.042-.045-.064-.067l-.193-.2a8.207,8.207,0,0,0-11.93,0H4.192a1.9,1.9,0,0,0-1.935,1.88c0,.046,0,.091,0,.137V34.92H1.935A2.043,2.043,0,0,0,0,36.937V66.379H3.869V46.213H52.685V66.379h3.869V36.937A1.977,1.977,0,0,0,54.62,34.92H44.109V32.1H55.587a1.977,1.977,0,0,0,1.935-2.017V10.721A1.977,1.977,0,0,0,55.587,8.7Z" transform="translate(0 -8.704)" fill="#131f51"/>
  </g>
</svg>
