<svg width="12" height="19" viewBox="0 0 12 19" fill="none" xmlns="http://www.w3.org/2000/svg">
<path d="M9.1258 18.5999L0.700797 10.1999C0.600797 10.0999 0.529797 9.99157 0.487797 9.8749C0.445797 9.75824 0.42513 9.63324 0.425797 9.4999C0.425797 9.36657 0.446797 9.24157 0.488797 9.1249C0.530797 9.00824 0.601464 8.8999 0.700797 8.7999L9.1258 0.374902C9.35913 0.141569 9.6508 0.0249023 10.0008 0.0249023C10.3508 0.0249023 10.6508 0.149902 10.9008 0.399902C11.1508 0.649902 11.2758 0.941569 11.2758 1.2749C11.2758 1.60824 11.1508 1.8999 10.9008 2.1499L3.5508 9.4999L10.9008 16.8499C11.1341 17.0832 11.2508 17.3709 11.2508 17.7129C11.2508 18.0549 11.1258 18.3506 10.8758 18.5999C10.6258 18.8499 10.3341 18.9749 10.0008 18.9749C9.66746 18.9749 9.3758 18.8499 9.1258 18.5999Z" fill="#1F2551"/>
</svg>
