<svg width="58" height="58" viewBox="0 0 58 58" fill="none" xmlns="http://www.w3.org/2000/svg">
<g filter="url(#filter0_d_3594_124685)">
<circle cx="27" cy="27" r="25" fill="#F3F7FA"/>
</g>
<path d="M29.1258 36.1004L20.7008 27.7004C20.6008 27.6004 20.5298 27.4921 20.4878 27.3754C20.4458 27.2587 20.4251 27.1337 20.4258 27.0004C20.4258 26.8671 20.4465 26.7421 20.4878 26.6254C20.5291 26.5087 20.6001 26.4004 20.7008 26.3004L29.1258 17.8754C29.3591 17.6421 29.6508 17.5254 30.0008 17.5254C30.3508 17.5254 30.6508 17.6504 30.9008 17.9004C31.1508 18.1504 31.2758 18.4421 31.2758 18.7754C31.2758 19.1087 31.1508 19.4004 30.9008 19.6504L23.5508 27.0004L30.9008 34.3504C31.1341 34.5837 31.2508 34.8714 31.2508 35.2134C31.2508 35.5554 31.1258 35.8511 30.8758 36.1004C30.6258 36.3504 30.3341 36.4754 30.0008 36.4754C29.6675 36.4754 29.3758 36.3504 29.1258 36.1004Z" fill="#1F2551"/>
<defs>
<filter id="filter0_d_3594_124685" x="0" y="0" width="58" height="58" filterUnits="userSpaceOnUse" color-interpolation-filters="sRGB">
<feFlood flood-opacity="0" result="BackgroundImageFix"/>
<feColorMatrix in="SourceAlpha" type="matrix" values="0 0 0 0 0 0 0 0 0 0 0 0 0 0 0 0 0 0 127 0" result="hardAlpha"/>
<feOffset dx="2" dy="2"/>
<feGaussianBlur stdDeviation="2"/>
<feComposite in2="hardAlpha" operator="out"/>
<feColorMatrix type="matrix" values="0 0 0 0 0.0980392 0 0 0 0 0.12549 0 0 0 0 0.282353 0 0 0 0.15 0"/>
<feBlend mode="normal" in2="BackgroundImageFix" result="effect1_dropShadow_3594_124685"/>
<feBlend mode="normal" in="SourceGraphic" in2="effect1_dropShadow_3594_124685" result="shape"/>
</filter>
</defs>
</svg>
