<svg width="81" height="80" viewBox="0 0 81 80" fill="none" xmlns="http://www.w3.org/2000/svg">
<g filter="url(#filter0_d_2234_107361)">
<circle cx="36.5" cy="36" r="25" transform="rotate(180 36.5 36)" fill="white"/>
</g>
<path d="M46.1478 40.1249C46.2469 40.2968 46.2738 40.501 46.2226 40.6927C46.1715 40.8844 46.0465 41.048 45.875 41.1477L36.875 46.3977C36.7603 46.4646 36.6299 46.4999 36.4972 46.4999C36.3644 46.4999 36.2341 46.4646 36.1194 46.3977L27.1194 41.1477C26.9503 41.0462 26.8281 40.8821 26.7792 40.6911C26.7302 40.5 26.7585 40.2974 26.8578 40.127C26.9572 39.9567 27.1196 39.8323 27.31 39.7809C27.5004 39.7294 27.7034 39.755 27.875 39.8521L36.5 44.8818L45.125 39.8521C45.2969 39.7531 45.5011 39.7261 45.6927 39.7773C45.8844 39.8284 46.0481 39.9534 46.1478 40.1249ZM45.125 35.3521L36.5 40.3818L27.875 35.3521C27.7042 35.2671 27.5075 35.2503 27.3248 35.3053C27.1421 35.3602 26.9872 35.4827 26.8916 35.6478C26.7961 35.8129 26.767 36.0082 26.8103 36.1939C26.8537 36.3797 26.9662 36.542 27.125 36.6477L36.125 41.8977C36.2397 41.9646 36.3701 41.9999 36.5028 41.9999C36.6356 41.9999 36.7659 41.9646 36.8806 41.8977L45.8806 36.6477C45.9671 36.5988 46.0429 36.5332 46.1038 36.4548C46.1647 36.3763 46.2094 36.2865 46.2353 36.1907C46.2612 36.0948 46.2679 35.9947 46.2548 35.8963C46.2417 35.7978 46.2092 35.7029 46.1592 35.6171C46.1091 35.5313 46.0426 35.4563 45.9633 35.3965C45.884 35.3366 45.7937 35.2931 45.6975 35.2684C45.6013 35.2438 45.5011 35.2385 45.4028 35.2529C45.3046 35.2672 45.2101 35.301 45.125 35.3521ZM26.75 31.4999C26.7503 31.3686 26.7851 31.2396 26.8509 31.1259C26.9167 31.0122 27.0112 30.9178 27.125 30.8521L36.125 25.6021C36.2397 25.5352 36.3701 25.5 36.5028 25.5C36.6356 25.5 36.7659 25.5352 36.8806 25.6021L45.8806 30.8521C45.9938 30.9182 46.0878 31.0127 46.1531 31.1264C46.2183 31.2401 46.2527 31.3688 46.2527 31.4999C46.2527 31.631 46.2183 31.7598 46.1531 31.8735C46.0878 31.9871 45.9938 32.0817 45.8806 32.1477L36.8806 37.3977C36.7659 37.4646 36.6356 37.4999 36.5028 37.4999C36.3701 37.4999 36.2397 37.4646 36.125 37.3977L27.125 32.1477C27.0112 32.0821 26.9167 31.9876 26.8509 31.874C26.7851 31.7603 26.7503 31.6313 26.75 31.4999ZM28.9887 31.4999L36.5 35.8818L44.0112 31.4999L36.5 27.1181L28.9887 31.4999Z" fill="#1F2551"/>
<defs>
<filter id="filter0_d_2234_107361" x="0.5" y="0" width="80" height="80" filterUnits="userSpaceOnUse" color-interpolation-filters="sRGB">
<feFlood flood-opacity="0" result="BackgroundImageFix"/>
<feColorMatrix in="SourceAlpha" type="matrix" values="0 0 0 0 0 0 0 0 0 0 0 0 0 0 0 0 0 0 127 0" result="hardAlpha"/>
<feOffset dx="4" dy="4"/>
<feGaussianBlur stdDeviation="7.5"/>
<feComposite in2="hardAlpha" operator="out"/>
<feColorMatrix type="matrix" values="0 0 0 0 0.254902 0 0 0 0 0.360784 0 0 0 0 0.670588 0 0 0 0.15 0"/>
<feBlend mode="normal" in2="BackgroundImageFix" result="effect1_dropShadow_2234_107361"/>
<feBlend mode="normal" in="SourceGraphic" in2="effect1_dropShadow_2234_107361" result="shape"/>
</filter>
</defs>
</svg>
