<svg width="81" height="80" viewBox="0 0 81 80" fill="none" xmlns="http://www.w3.org/2000/svg">
<g filter="url(#filter0_d_2234_107368)">
<circle cx="36.5" cy="36" r="25" transform="rotate(180 36.5 36)" fill="white"/>
</g>
<path d="M25.6249 33.4078L36.1249 39.4079C36.2382 39.4726 36.3665 39.5067 36.4971 39.5067C36.6276 39.5067 36.7559 39.4726 36.8693 39.4079L47.3693 33.4078C47.4842 33.3423 47.5798 33.2475 47.6463 33.1331C47.7128 33.0186 47.7478 32.8886 47.7478 32.7563C47.7478 32.6239 47.7128 32.4939 47.6463 32.3795C47.5798 32.2651 47.4842 32.1703 47.3693 32.1047L36.8693 26.1047C36.7559 26.0399 36.6276 26.0059 36.4971 26.0059C36.3665 26.0059 36.2382 26.0399 36.1249 26.1047L25.6249 32.1047C25.5099 32.1703 25.4143 32.2651 25.3478 32.3795C25.2814 32.4939 25.2463 32.6239 25.2463 32.7563C25.2463 32.8886 25.2814 33.0186 25.3478 33.1331C25.4143 33.2475 25.5099 33.3423 25.6249 33.4078ZM36.4999 27.615L45.4877 32.7516L36.4999 37.8882L27.5121 32.7516L36.4999 27.615ZM47.6505 36.1266C47.7008 36.2122 47.7335 36.307 47.7469 36.4054C47.7602 36.5038 47.7539 36.6039 47.7282 36.6998C47.7026 36.7958 47.6582 36.8856 47.5975 36.9643C47.5368 37.0429 47.4612 37.1087 47.3749 37.1579L36.8749 43.1579C36.7616 43.2226 36.6333 43.2567 36.5027 43.2567C36.3722 43.2567 36.2439 43.2226 36.1305 43.1579L25.6249 37.1579C25.539 37.1086 25.4637 37.0429 25.4032 36.9646C25.3427 36.8862 25.2982 36.7967 25.2723 36.7012C25.2465 36.6056 25.2396 36.5059 25.2523 36.4077C25.2649 36.3095 25.2967 36.2148 25.346 36.1289C25.3952 36.0431 25.4609 35.9677 25.5393 35.9072C25.6176 35.8468 25.7071 35.8023 25.8027 35.7764C25.9956 35.7241 26.2015 35.7506 26.3749 35.85L36.4999 41.6382L46.6249 35.85C46.7104 35.8007 46.8047 35.7687 46.9026 35.7559C47.0004 35.7431 47.0998 35.7498 47.1951 35.7755C47.2904 35.8011 47.3797 35.8454 47.4578 35.9056C47.536 35.9659 47.6014 36.041 47.6505 36.1266Z" fill="black"/>
<defs>
<filter id="filter0_d_2234_107368" x="0.5" y="0" width="80" height="80" filterUnits="userSpaceOnUse" color-interpolation-filters="sRGB">
<feFlood flood-opacity="0" result="BackgroundImageFix"/>
<feColorMatrix in="SourceAlpha" type="matrix" values="0 0 0 0 0 0 0 0 0 0 0 0 0 0 0 0 0 0 127 0" result="hardAlpha"/>
<feOffset dx="4" dy="4"/>
<feGaussianBlur stdDeviation="7.5"/>
<feComposite in2="hardAlpha" operator="out"/>
<feColorMatrix type="matrix" values="0 0 0 0 0.254902 0 0 0 0 0.360784 0 0 0 0 0.670588 0 0 0 0.15 0"/>
<feBlend mode="normal" in2="BackgroundImageFix" result="effect1_dropShadow_2234_107368"/>
<feBlend mode="normal" in="SourceGraphic" in2="effect1_dropShadow_2234_107368" result="shape"/>
</filter>
</defs>
</svg>
