<svg width="80" height="80" viewBox="0 0 80 80" fill="none" xmlns="http://www.w3.org/2000/svg">
<g filter="url(#filter0_d_2234_107375)">
<circle cx="36" cy="36" r="25" transform="rotate(180 36 36)" fill="white"/>
</g>
<path d="M31.0078 36.0008C31.0078 35.8019 31.0868 35.6111 31.2275 35.4705C31.3681 35.3298 31.5589 35.2508 31.7578 35.2508H35.2508V31.7578C35.2508 31.5589 35.3298 31.3681 35.4705 31.2275C35.6111 31.0868 35.8019 31.0078 36.0008 31.0078C36.1997 31.0078 36.3905 31.0868 36.5311 31.2275C36.6718 31.3681 36.7508 31.5589 36.7508 31.7578V35.2508H40.2438C40.4427 35.2508 40.6335 35.3298 40.7741 35.4705C40.9148 35.6111 40.9938 35.8019 40.9938 36.0008C40.9938 36.1997 40.9148 36.3905 40.7741 36.5311C40.6335 36.6718 40.4427 36.7508 40.2438 36.7508H36.7508V40.2438C36.7508 40.4427 36.6718 40.6335 36.5311 40.7741C36.3905 40.9148 36.1997 40.9938 36.0008 40.9938C35.8019 40.9938 35.6111 40.9148 35.4705 40.7741C35.3298 40.6335 35.2508 40.4427 35.2508 40.2438V36.7508H31.7578C31.5589 36.7508 31.3681 36.6718 31.2275 36.5311C31.0868 36.3905 31.0078 36.1997 31.0078 36.0008Z" fill="#1F2551"/>
<path d="M31.3108 27.7189L31.3108 27.7189C29.4621 27.9254 27.9674 29.3822 27.7507 31.2428C27.381 34.4035 27.381 37.5966 27.7507 40.7573C27.9674 42.6179 29.4611 44.0737 31.3108 44.2812L31.3108 44.2812C34.427 44.6267 37.5717 44.6267 40.6879 44.2812L40.6879 44.2812C42.5366 44.0737 44.0303 42.6179 44.248 40.7574C44.6185 37.5965 44.6185 34.4036 44.248 31.2427C44.0313 29.3822 42.5376 27.9254 40.6879 27.7189L40.6879 27.7189C37.5717 27.3734 34.427 27.3734 31.3108 27.7189ZM31.4879 42.6919L31.4879 42.6919C30.9434 42.6315 30.4352 42.3894 30.0453 42.0046C29.6555 41.6199 29.4066 41.1151 29.339 40.5716C28.9838 37.5346 28.9838 34.4665 29.339 31.4295C29.4064 30.8858 29.6552 30.3807 30.0451 29.9958C30.435 29.6109 30.9433 29.3687 31.4879 29.3082C34.4715 28.9775 37.4824 28.9759 40.4664 29.3033V29.3053L40.5108 29.3102C41.0549 29.3708 41.5628 29.6128 41.9525 29.9974C42.3421 30.3819 42.5909 30.8864 42.6587 31.4296C43.0139 34.4666 43.0139 37.5346 42.6587 40.5716C42.5911 41.1149 42.3424 41.6197 41.9528 42.0044C41.5631 42.3891 41.0551 42.6313 40.5108 42.6919C37.5375 43.0234 34.4612 43.0234 31.4879 42.6919Z" fill="#1F2551" stroke="#1F2551" stroke-width="0.1"/>
<defs>
<filter id="filter0_d_2234_107375" x="0" y="0" width="80" height="80" filterUnits="userSpaceOnUse" color-interpolation-filters="sRGB">
<feFlood flood-opacity="0" result="BackgroundImageFix"/>
<feColorMatrix in="SourceAlpha" type="matrix" values="0 0 0 0 0 0 0 0 0 0 0 0 0 0 0 0 0 0 127 0" result="hardAlpha"/>
<feOffset dx="4" dy="4"/>
<feGaussianBlur stdDeviation="7.5"/>
<feComposite in2="hardAlpha" operator="out"/>
<feColorMatrix type="matrix" values="0 0 0 0 0.254902 0 0 0 0 0.360784 0 0 0 0 0.670588 0 0 0 0.15 0"/>
<feBlend mode="normal" in2="BackgroundImageFix" result="effect1_dropShadow_2234_107375"/>
<feBlend mode="normal" in="SourceGraphic" in2="effect1_dropShadow_2234_107375" result="shape"/>
</filter>
</defs>
</svg>
