<svg width="626" height="216" viewBox="0 0 626 216" fill="none" xmlns="http://www.w3.org/2000/svg">
<rect x="257.466" y="0.466102" width="138.068" height="62.0678" rx="4.5339" fill="#F3F7FA" stroke="#1F2551" stroke-width="0.932203"/>
<path d="M309.407 17.5791H313.085V22.5967C312.483 22.7926 311.905 22.9316 311.349 23.0137C310.797 23.0957 310.2 23.1367 309.558 23.1367C308.045 23.1367 306.878 22.6901 306.058 21.7969C305.237 20.8991 304.827 19.6344 304.827 18.0029C304.827 16.3942 305.29 15.1364 306.215 14.2295C307.14 13.318 308.414 12.8623 310.036 12.8623C311.08 12.8623 312.069 13.0628 313.003 13.4639L312.429 14.8242C311.618 14.4505 310.806 14.2637 309.995 14.2637C308.929 14.2637 308.086 14.5986 307.466 15.2686C306.846 15.9385 306.536 16.8545 306.536 18.0166C306.536 19.238 306.814 20.1676 307.37 20.8057C307.931 21.4391 308.735 21.7559 309.783 21.7559C310.312 21.7559 310.877 21.6898 311.479 21.5576V18.9805H309.407V17.5791ZM319.155 15.3027C319.479 15.3027 319.745 15.3255 319.955 15.3711L319.798 16.8682C319.57 16.8135 319.333 16.7861 319.087 16.7861C318.444 16.7861 317.923 16.9958 317.521 17.415C317.125 17.8343 316.927 18.3789 316.927 19.0488V23H315.32V15.4395H316.578L316.79 16.7725H316.872C317.123 16.3213 317.449 15.9635 317.85 15.6992C318.255 15.4349 318.69 15.3027 319.155 15.3027ZM328.069 19.2061C328.069 20.4411 327.753 21.4049 327.119 22.0977C326.486 22.7904 325.604 23.1367 324.474 23.1367C323.767 23.1367 323.143 22.9772 322.601 22.6582C322.058 22.3392 321.641 21.8812 321.35 21.2842C321.058 20.6872 320.912 19.9945 320.912 19.2061C320.912 17.9801 321.227 17.0231 321.855 16.335C322.484 15.6468 323.371 15.3027 324.515 15.3027C325.608 15.3027 326.474 15.6559 327.112 16.3623C327.75 17.0641 328.069 18.012 328.069 19.2061ZM322.566 19.2061C322.566 20.9515 323.211 21.8242 324.501 21.8242C325.777 21.8242 326.415 20.9515 326.415 19.2061C326.415 17.4788 325.772 16.6152 324.487 16.6152C323.813 16.6152 323.323 16.8385 323.018 17.2852C322.717 17.7318 322.566 18.3721 322.566 19.2061ZM335.254 23L335.028 22.0088H334.946C334.723 22.3597 334.404 22.6354 333.989 22.8359C333.579 23.0365 333.11 23.1367 332.581 23.1367C331.665 23.1367 330.981 22.9089 330.53 22.4531C330.079 21.9974 329.854 21.307 329.854 20.3818V15.4395H331.474V20.1016C331.474 20.6803 331.592 21.1156 331.829 21.4072C332.066 21.6943 332.438 21.8379 332.943 21.8379C333.618 21.8379 334.112 21.6374 334.427 21.2363C334.746 20.8307 334.905 20.154 334.905 19.2061V15.4395H336.519V23H335.254ZM342.644 23.1367C341.687 23.1367 340.944 22.7926 340.415 22.1045H340.319C340.383 22.7425 340.415 23.1299 340.415 23.2666V26.3633H338.809V15.4395H340.107C340.144 15.5807 340.219 15.918 340.333 16.4512H340.415C340.916 15.6855 341.668 15.3027 342.671 15.3027C343.614 15.3027 344.348 15.6445 344.872 16.3281C345.401 17.0117 345.665 17.971 345.665 19.2061C345.665 20.4411 345.396 21.4049 344.858 22.0977C344.325 22.7904 343.587 23.1367 342.644 23.1367ZM342.254 16.6152C341.616 16.6152 341.149 16.8021 340.853 17.1758C340.561 17.5495 340.415 18.1465 340.415 18.9668V19.2061C340.415 20.1266 340.561 20.7943 340.853 21.209C341.144 21.6191 341.62 21.8242 342.281 21.8242C342.837 21.8242 343.266 21.5964 343.566 21.1406C343.867 20.6849 344.018 20.0355 344.018 19.1924C344.018 18.3447 343.867 17.7044 343.566 17.2715C343.27 16.834 342.833 16.6152 342.254 16.6152Z" fill="#1F2551"/>
<path d="M305.57 45H304.193V39.4688C304.193 38.8086 304.209 38.2852 304.24 37.8984C304.15 37.9922 304.039 38.0957 303.906 38.209C303.777 38.3223 303.34 38.6816 302.594 39.2871L301.902 38.4141L304.422 36.4336H305.57V45ZM310.27 43.7402C310.082 44.4668 309.738 45.4023 309.238 46.5469H308.225C308.494 45.4922 308.695 44.5117 308.828 43.6055H310.182L310.27 43.7402ZM320.518 45H314.711V43.957L316.92 41.7363C317.572 41.0684 318.004 40.5957 318.215 40.3184C318.43 40.0371 318.586 39.7734 318.684 39.5273C318.781 39.2812 318.83 39.0176 318.83 38.7363C318.83 38.3496 318.713 38.0449 318.479 37.8223C318.248 37.5996 317.928 37.4883 317.518 37.4883C317.189 37.4883 316.871 37.5488 316.562 37.6699C316.258 37.791 315.904 38.0098 315.502 38.3262L314.758 37.418C315.234 37.0156 315.697 36.7305 316.146 36.5625C316.596 36.3945 317.074 36.3105 317.582 36.3105C318.379 36.3105 319.018 36.5195 319.498 36.9375C319.979 37.3516 320.219 37.9102 320.219 38.6133C320.219 39 320.148 39.3672 320.008 39.7148C319.871 40.0625 319.658 40.4219 319.369 40.793C319.084 41.1602 318.607 41.6582 317.939 42.2871L316.451 43.7285V43.7871H320.518V45ZM323.453 43.7402C323.266 44.4668 322.922 45.4023 322.422 46.5469H321.408C321.678 45.4922 321.879 44.5117 322.012 43.6055H323.365L323.453 43.7402ZM333.379 38.4023C333.379 38.9453 333.221 39.3984 332.904 39.7617C332.588 40.1211 332.143 40.3633 331.568 40.4883V40.5352C332.256 40.6211 332.771 40.8359 333.115 41.1797C333.459 41.5195 333.631 41.9727 333.631 42.5391C333.631 43.3633 333.34 44 332.758 44.4492C332.176 44.8945 331.348 45.1172 330.273 45.1172C329.324 45.1172 328.523 44.9629 327.871 44.6543V43.4297C328.234 43.6094 328.619 43.748 329.025 43.8457C329.432 43.9434 329.822 43.9922 330.197 43.9922C330.861 43.9922 331.357 43.8691 331.686 43.623C332.014 43.377 332.178 42.9961 332.178 42.4805C332.178 42.0234 331.996 41.6875 331.633 41.4727C331.27 41.2578 330.699 41.1504 329.922 41.1504H329.178V40.0312H329.934C331.301 40.0312 331.984 39.5586 331.984 38.6133C331.984 38.2461 331.865 37.9629 331.627 37.7637C331.389 37.5645 331.037 37.4648 330.572 37.4648C330.248 37.4648 329.936 37.5117 329.635 37.6055C329.334 37.6953 328.979 37.873 328.568 38.1387L327.895 37.1777C328.68 36.5996 329.592 36.3105 330.631 36.3105C331.494 36.3105 332.168 36.4961 332.652 36.8672C333.137 37.2383 333.379 37.75 333.379 38.4023ZM336.637 43.7402C336.449 44.4668 336.105 45.4023 335.605 46.5469H334.592C334.861 45.4922 335.062 44.5117 335.195 43.6055H336.549L336.637 43.7402ZM347.189 43.1309H346.035V45H344.693V43.1309H340.779V42.0703L344.693 36.4102H346.035V41.9883H347.189V43.1309ZM344.693 41.9883V39.8379C344.693 39.0723 344.713 38.4453 344.752 37.957H344.705C344.596 38.2148 344.424 38.5273 344.189 38.8945L342.062 41.9883H344.693Z" fill="#1F2551"/>
<rect x="0.466102" y="163.466" width="60.0678" height="52.0678" rx="4.5339" fill="#F3F7FA" stroke="#1F2551" stroke-width="0.932203"/>
<rect x="198.466" y="163.466" width="60.0678" height="52.0678" rx="4.5339" fill="#F3F7FA" stroke="#1F2551" stroke-width="0.932203"/>
<rect x="386.466" y="163.466" width="60.0678" height="52.0678" rx="4.5339" fill="#F3F7FA" stroke="#1F2551" stroke-width="0.932203"/>
<rect x="565.466" y="163.466" width="60.0678" height="52.0678" rx="4.5339" fill="#F3F7FA" stroke="#1F2551" stroke-width="0.932203"/>
<path d="M29.5703 195H28.1934V189.469C28.1934 188.809 28.209 188.285 28.2402 187.898C28.1504 187.992 28.0391 188.096 27.9062 188.209C27.7773 188.322 27.3398 188.682 26.5938 189.287L25.9023 188.414L28.4219 186.434H29.5703V195Z" fill="#1F2551"/>
<path d="M232.334 195H226.527V193.957L228.736 191.736C229.389 191.068 229.82 190.596 230.031 190.318C230.246 190.037 230.402 189.773 230.5 189.527C230.598 189.281 230.646 189.018 230.646 188.736C230.646 188.35 230.529 188.045 230.295 187.822C230.064 187.6 229.744 187.488 229.334 187.488C229.006 187.488 228.688 187.549 228.379 187.67C228.074 187.791 227.721 188.01 227.318 188.326L226.574 187.418C227.051 187.016 227.514 186.73 227.963 186.562C228.412 186.395 228.891 186.311 229.398 186.311C230.195 186.311 230.834 186.52 231.314 186.938C231.795 187.352 232.035 187.91 232.035 188.613C232.035 189 231.965 189.367 231.824 189.715C231.688 190.062 231.475 190.422 231.186 190.793C230.9 191.16 230.424 191.658 229.756 192.287L228.268 193.729V193.787H232.334V195Z" fill="#1F2551"/>
<path d="M417.012 188.402C417.012 188.945 416.854 189.398 416.537 189.762C416.221 190.121 415.775 190.363 415.201 190.488V190.535C415.889 190.621 416.404 190.836 416.748 191.18C417.092 191.52 417.264 191.973 417.264 192.539C417.264 193.363 416.973 194 416.391 194.449C415.809 194.895 414.98 195.117 413.906 195.117C412.957 195.117 412.156 194.963 411.504 194.654V193.43C411.867 193.609 412.252 193.748 412.658 193.846C413.064 193.943 413.455 193.992 413.83 193.992C414.494 193.992 414.99 193.869 415.318 193.623C415.646 193.377 415.811 192.996 415.811 192.48C415.811 192.023 415.629 191.688 415.266 191.473C414.902 191.258 414.332 191.15 413.555 191.15H412.811V190.031H413.566C414.934 190.031 415.617 189.559 415.617 188.613C415.617 188.246 415.498 187.963 415.26 187.764C415.021 187.564 414.67 187.465 414.205 187.465C413.881 187.465 413.568 187.512 413.268 187.605C412.967 187.695 412.611 187.873 412.201 188.139L411.527 187.178C412.312 186.6 413.225 186.311 414.264 186.311C415.127 186.311 415.801 186.496 416.285 186.867C416.77 187.238 417.012 187.75 417.012 188.402Z" fill="#1F2551"/>
<path d="M596.639 193.131H595.484V195H594.143V193.131H590.229V192.07L594.143 186.41H595.484V191.988H596.639V193.131ZM594.143 191.988V189.838C594.143 189.072 594.162 188.445 594.201 187.957H594.154C594.045 188.215 593.873 188.527 593.639 188.895L591.512 191.988H594.143Z" fill="#1F2551"/>
<line x1="324.5" y1="62" x2="324.5" y2="111" stroke="#5C5D5D" stroke-dasharray="2 2"/>
<line x1="29.5" y1="112" x2="29.5" y2="161" stroke="#5C5D5D" stroke-dasharray="2 2"/>
<line x1="228.5" y1="112" x2="228.5" y2="161" stroke="#5C5D5D" stroke-dasharray="2 2"/>
<line x1="417.5" y1="112" x2="417.5" y2="161" stroke="#5C5D5D" stroke-dasharray="2 2"/>
<line x1="596.5" y1="112" x2="596.5" y2="161" stroke="#5C5D5D" stroke-dasharray="2 2"/>
<line x1="30" y1="111.5" x2="367" y2="111.5" stroke="#5C5D5D" stroke-dasharray="2 2"/>
<line x1="365" y1="111.5" x2="596" y2="111.5" stroke="#5C5D5D" stroke-dasharray="2 2"/>
<path d="M6 161L6.00001 39C6.00001 32.3726 11.3726 27 18 27L245 27" stroke="#1F2551" stroke-width="2" stroke-linecap="round"/>
<path d="M244 27L229 27" stroke="#1F2551" stroke-width="2" stroke-linecap="round"/>
<path d="M237 35L245 27L237 19" stroke="#1F2551" stroke-width="2" stroke-linecap="round" stroke-linejoin="round"/>
<path d="M207 163L207 39C207 32.3726 212.373 27 219 27L245 27" stroke="#1F2551" stroke-width="2" stroke-linecap="round"/>
<path d="M244 27L229 27" stroke="#1F2551" stroke-width="2" stroke-linecap="round"/>
<path d="M237 35L245 27L237 19" stroke="#1F2551" stroke-width="2" stroke-linecap="round" stroke-linejoin="round"/>
<path d="M618 163L618 35C618 28.3726 612.627 23 606 23L411 23" stroke="#1F2551" stroke-width="2" stroke-linecap="round"/>
<path d="M412 23L427 23" stroke="#1F2551" stroke-width="2" stroke-linecap="round"/>
<path d="M419 15L411 23L419 31" stroke="#1F2551" stroke-width="2" stroke-linecap="round" stroke-linejoin="round"/>
<path d="M440 163L440 35C440 28.3726 434.627 23 428 23L411 23" stroke="#1F2551" stroke-width="2" stroke-linecap="round"/>
<path d="M412 23L427 23" stroke="#1F2551" stroke-width="2" stroke-linecap="round"/>
<path d="M419 15L411 23L419 31" stroke="#1F2551" stroke-width="2" stroke-linecap="round" stroke-linejoin="round"/>
</svg>
