<svg width="718" height="357" viewBox="0 0 718 357" fill="none" xmlns="http://www.w3.org/2000/svg">
<rect x="301.466" y="0.466102" width="138.068" height="62.0678" rx="4.5339" fill="#F3F7FA" stroke="#1F2551" stroke-width="0.932203"/>
<path d="M353.407 17.5791H357.085V22.5967C356.483 22.7926 355.905 22.9316 355.349 23.0137C354.797 23.0957 354.2 23.1367 353.558 23.1367C352.045 23.1367 350.878 22.6901 350.058 21.7969C349.237 20.8991 348.827 19.6344 348.827 18.0029C348.827 16.3942 349.29 15.1364 350.215 14.2295C351.14 13.318 352.414 12.8623 354.036 12.8623C355.08 12.8623 356.069 13.0628 357.003 13.4639L356.429 14.8242C355.618 14.4505 354.806 14.2637 353.995 14.2637C352.929 14.2637 352.086 14.5986 351.466 15.2686C350.846 15.9385 350.536 16.8545 350.536 18.0166C350.536 19.238 350.814 20.1676 351.37 20.8057C351.931 21.4391 352.735 21.7559 353.783 21.7559C354.312 21.7559 354.877 21.6898 355.479 21.5576V18.9805H353.407V17.5791ZM363.155 15.3027C363.479 15.3027 363.745 15.3255 363.955 15.3711L363.798 16.8682C363.57 16.8135 363.333 16.7861 363.087 16.7861C362.444 16.7861 361.923 16.9958 361.521 17.415C361.125 17.8343 360.927 18.3789 360.927 19.0488V23H359.32V15.4395H360.578L360.79 16.7725H360.872C361.123 16.3213 361.449 15.9635 361.85 15.6992C362.255 15.4349 362.69 15.3027 363.155 15.3027ZM372.069 19.2061C372.069 20.4411 371.753 21.4049 371.119 22.0977C370.486 22.7904 369.604 23.1367 368.474 23.1367C367.767 23.1367 367.143 22.9772 366.601 22.6582C366.058 22.3392 365.641 21.8812 365.35 21.2842C365.058 20.6872 364.912 19.9945 364.912 19.2061C364.912 17.9801 365.227 17.0231 365.855 16.335C366.484 15.6468 367.371 15.3027 368.515 15.3027C369.608 15.3027 370.474 15.6559 371.112 16.3623C371.75 17.0641 372.069 18.012 372.069 19.2061ZM366.566 19.2061C366.566 20.9515 367.211 21.8242 368.501 21.8242C369.777 21.8242 370.415 20.9515 370.415 19.2061C370.415 17.4788 369.772 16.6152 368.487 16.6152C367.813 16.6152 367.323 16.8385 367.018 17.2852C366.717 17.7318 366.566 18.3721 366.566 19.2061ZM379.254 23L379.028 22.0088H378.946C378.723 22.3597 378.404 22.6354 377.989 22.8359C377.579 23.0365 377.11 23.1367 376.581 23.1367C375.665 23.1367 374.981 22.9089 374.53 22.4531C374.079 21.9974 373.854 21.307 373.854 20.3818V15.4395H375.474V20.1016C375.474 20.6803 375.592 21.1156 375.829 21.4072C376.066 21.6943 376.438 21.8379 376.943 21.8379C377.618 21.8379 378.112 21.6374 378.427 21.2363C378.746 20.8307 378.905 20.154 378.905 19.2061V15.4395H380.519V23H379.254ZM386.644 23.1367C385.687 23.1367 384.944 22.7926 384.415 22.1045H384.319C384.383 22.7425 384.415 23.1299 384.415 23.2666V26.3633H382.809V15.4395H384.107C384.144 15.5807 384.219 15.918 384.333 16.4512H384.415C384.916 15.6855 385.668 15.3027 386.671 15.3027C387.614 15.3027 388.348 15.6445 388.872 16.3281C389.401 17.0117 389.665 17.971 389.665 19.2061C389.665 20.4411 389.396 21.4049 388.858 22.0977C388.325 22.7904 387.587 23.1367 386.644 23.1367ZM386.254 16.6152C385.616 16.6152 385.149 16.8021 384.853 17.1758C384.561 17.5495 384.415 18.1465 384.415 18.9668V19.2061C384.415 20.1266 384.561 20.7943 384.853 21.209C385.144 21.6191 385.62 21.8242 386.281 21.8242C386.837 21.8242 387.266 21.5964 387.566 21.1406C387.867 20.6849 388.018 20.0355 388.018 19.1924C388.018 18.3447 387.867 17.7044 387.566 17.2715C387.27 16.834 386.833 16.6152 386.254 16.6152Z" fill="#1F2551"/>
<path d="M327.57 45H326.193V39.4688C326.193 38.8086 326.209 38.2852 326.24 37.8984C326.15 37.9922 326.039 38.0957 325.906 38.209C325.777 38.3223 325.34 38.6816 324.594 39.2871L323.902 38.4141L326.422 36.4336H327.57V45ZM332.27 43.7402C332.082 44.4668 331.738 45.4023 331.238 46.5469H330.225C330.494 45.4922 330.695 44.5117 330.828 43.6055H332.182L332.27 43.7402ZM342.518 45H336.711V43.957L338.92 41.7363C339.572 41.0684 340.004 40.5957 340.215 40.3184C340.43 40.0371 340.586 39.7734 340.684 39.5273C340.781 39.2812 340.83 39.0176 340.83 38.7363C340.83 38.3496 340.713 38.0449 340.479 37.8223C340.248 37.5996 339.928 37.4883 339.518 37.4883C339.189 37.4883 338.871 37.5488 338.562 37.6699C338.258 37.791 337.904 38.0098 337.502 38.3262L336.758 37.418C337.234 37.0156 337.697 36.7305 338.146 36.5625C338.596 36.3945 339.074 36.3105 339.582 36.3105C340.379 36.3105 341.018 36.5195 341.498 36.9375C341.979 37.3516 342.219 37.9102 342.219 38.6133C342.219 39 342.148 39.3672 342.008 39.7148C341.871 40.0625 341.658 40.4219 341.369 40.793C341.084 41.1602 340.607 41.6582 339.939 42.2871L338.451 43.7285V43.7871H342.518V45ZM345.453 43.7402C345.266 44.4668 344.922 45.4023 344.422 46.5469H343.408C343.678 45.4922 343.879 44.5117 344.012 43.6055H345.365L345.453 43.7402ZM355.379 38.4023C355.379 38.9453 355.221 39.3984 354.904 39.7617C354.588 40.1211 354.143 40.3633 353.568 40.4883V40.5352C354.256 40.6211 354.771 40.8359 355.115 41.1797C355.459 41.5195 355.631 41.9727 355.631 42.5391C355.631 43.3633 355.34 44 354.758 44.4492C354.176 44.8945 353.348 45.1172 352.273 45.1172C351.324 45.1172 350.523 44.9629 349.871 44.6543V43.4297C350.234 43.6094 350.619 43.748 351.025 43.8457C351.432 43.9434 351.822 43.9922 352.197 43.9922C352.861 43.9922 353.357 43.8691 353.686 43.623C354.014 43.377 354.178 42.9961 354.178 42.4805C354.178 42.0234 353.996 41.6875 353.633 41.4727C353.27 41.2578 352.699 41.1504 351.922 41.1504H351.178V40.0312H351.934C353.301 40.0312 353.984 39.5586 353.984 38.6133C353.984 38.2461 353.865 37.9629 353.627 37.7637C353.389 37.5645 353.037 37.4648 352.572 37.4648C352.248 37.4648 351.936 37.5117 351.635 37.6055C351.334 37.6953 350.979 37.873 350.568 38.1387L349.895 37.1777C350.68 36.5996 351.592 36.3105 352.631 36.3105C353.494 36.3105 354.168 36.4961 354.652 36.8672C355.137 37.2383 355.379 37.75 355.379 38.4023ZM358.637 43.7402C358.449 44.4668 358.105 45.4023 357.605 46.5469H356.592C356.861 45.4922 357.062 44.5117 357.195 43.6055H358.549L358.637 43.7402ZM369.189 43.1309H368.035V45H366.693V43.1309H362.779V42.0703L366.693 36.4102H368.035V41.9883H369.189V43.1309ZM366.693 41.9883V39.8379C366.693 39.0723 366.713 38.4453 366.752 37.957H366.705C366.596 38.2148 366.424 38.5273 366.189 38.8945L364.062 41.9883H366.693ZM371.82 43.7402C371.633 44.4668 371.289 45.4023 370.789 46.5469H369.775C370.045 45.4922 370.246 44.5117 370.379 43.6055H371.732L371.82 43.7402ZM379.168 39.6504C380.031 39.6504 380.715 39.8789 381.219 40.3359C381.723 40.793 381.975 41.416 381.975 42.2051C381.975 43.1191 381.688 43.834 381.113 44.3496C380.543 44.8613 379.73 45.1172 378.676 45.1172C377.719 45.1172 376.967 44.9629 376.42 44.6543V43.4062C376.736 43.5859 377.1 43.7246 377.51 43.8223C377.92 43.9199 378.301 43.9688 378.652 43.9688C379.273 43.9688 379.746 43.8301 380.07 43.5527C380.395 43.2754 380.557 42.8691 380.557 42.334C380.557 41.3105 379.904 40.7988 378.6 40.7988C378.416 40.7988 378.189 40.8184 377.92 40.8574C377.65 40.8926 377.414 40.9336 377.211 40.9805L376.596 40.6172L376.924 36.4336H381.377V37.6582H378.137L377.943 39.7793C378.08 39.7559 378.246 39.7285 378.441 39.6973C378.641 39.666 378.883 39.6504 379.168 39.6504ZM385.004 43.7402C384.816 44.4668 384.473 45.4023 383.973 46.5469H382.959C383.229 45.4922 383.43 44.5117 383.562 43.6055H384.916L385.004 43.7402ZM389.469 41.3496C389.469 37.998 390.834 36.3223 393.564 36.3223C393.994 36.3223 394.357 36.3555 394.654 36.4219V37.5703C394.357 37.4844 394.014 37.4414 393.623 37.4414C392.705 37.4414 392.016 37.6875 391.555 38.1797C391.094 38.6719 390.844 39.4609 390.805 40.5469H390.875C391.059 40.2305 391.316 39.9863 391.648 39.8145C391.98 39.6387 392.371 39.5508 392.82 39.5508C393.598 39.5508 394.203 39.7891 394.637 40.2656C395.07 40.7422 395.287 41.3887 395.287 42.2051C395.287 43.1035 395.035 43.8145 394.531 44.3379C394.031 44.8574 393.348 45.1172 392.48 45.1172C391.867 45.1172 391.334 44.9707 390.881 44.6777C390.428 44.3809 390.078 43.9512 389.832 43.3887C389.59 42.8223 389.469 42.1426 389.469 41.3496ZM392.457 43.9805C392.93 43.9805 393.293 43.8281 393.547 43.5234C393.805 43.2188 393.934 42.7832 393.934 42.2168C393.934 41.7246 393.812 41.3379 393.57 41.0566C393.332 40.7754 392.973 40.6348 392.492 40.6348C392.195 40.6348 391.922 40.6992 391.672 40.8281C391.422 40.9531 391.225 41.127 391.08 41.3496C390.936 41.5684 390.863 41.793 390.863 42.0234C390.863 42.5742 391.012 43.0391 391.309 43.418C391.609 43.793 391.992 43.9805 392.457 43.9805ZM398.188 43.7402C398 44.4668 397.656 45.4023 397.156 46.5469H396.143C396.412 45.4922 396.613 44.5117 396.746 43.6055H398.1L398.188 43.7402ZM403.602 45L406.988 37.6582H402.535V36.4453H408.459V37.4062L405.09 45H403.602ZM411.371 43.7402C411.184 44.4668 410.84 45.4023 410.34 46.5469H409.326C409.596 45.4922 409.797 44.5117 409.93 43.6055H411.283L411.371 43.7402ZM418.707 36.3223C419.52 36.3223 420.162 36.5098 420.635 36.8848C421.107 37.2559 421.344 37.7539 421.344 38.3789C421.344 39.2578 420.816 39.957 419.762 40.4766C420.434 40.8125 420.91 41.166 421.191 41.5371C421.477 41.9082 421.619 42.3223 421.619 42.7793C421.619 43.4863 421.359 44.0527 420.84 44.4785C420.32 44.9043 419.617 45.1172 418.73 45.1172C417.801 45.1172 417.08 44.918 416.568 44.5195C416.057 44.1211 415.801 43.5566 415.801 42.8262C415.801 42.3496 415.934 41.9219 416.199 41.543C416.469 41.1602 416.908 40.8203 417.518 40.5234C416.994 40.2109 416.621 39.8809 416.398 39.5332C416.176 39.1855 416.064 38.7949 416.064 38.3613C416.064 37.7402 416.309 37.2461 416.797 36.8789C417.285 36.5078 417.922 36.3223 418.707 36.3223ZM417.119 42.7793C417.119 43.1855 417.262 43.502 417.547 43.7285C417.832 43.9512 418.219 44.0625 418.707 44.0625C419.211 44.0625 419.602 43.9473 419.879 43.7168C420.16 43.4824 420.301 43.166 420.301 42.7676C420.301 42.4512 420.172 42.1621 419.914 41.9004C419.656 41.6387 419.266 41.3965 418.742 41.1738L418.572 41.0977C418.057 41.3242 417.686 41.5742 417.459 41.8477C417.232 42.1172 417.119 42.4277 417.119 42.7793ZM418.695 37.3828C418.305 37.3828 417.99 37.4805 417.752 37.6758C417.514 37.8672 417.395 38.1289 417.395 38.4609C417.395 38.6641 417.438 38.8457 417.523 39.0059C417.609 39.166 417.734 39.3125 417.898 39.4453C418.062 39.5742 418.34 39.7305 418.73 39.9141C419.199 39.707 419.529 39.4902 419.721 39.2637C419.916 39.0332 420.014 38.7656 420.014 38.4609C420.014 38.1289 419.893 37.8672 419.65 37.6758C419.412 37.4805 419.094 37.3828 418.695 37.3828Z" fill="#1F2551"/>
<rect x="17.4661" y="163.466" width="115.068" height="62.0678" rx="4.5339" fill="#F3F7FA" stroke="#1F2551" stroke-width="0.932203"/>
<path d="M61.4072 180.579H65.085V185.597C64.4834 185.793 63.9046 185.932 63.3486 186.014C62.7972 186.096 62.2002 186.137 61.5576 186.137C60.0446 186.137 58.8779 185.69 58.0576 184.797C57.2373 183.899 56.8271 182.634 56.8271 181.003C56.8271 179.394 57.2897 178.136 58.2148 177.229C59.14 176.318 60.4137 175.862 62.0361 175.862C63.0798 175.862 64.0687 176.063 65.0029 176.464L64.4287 177.824C63.6175 177.451 62.8063 177.264 61.9951 177.264C60.9287 177.264 60.0856 177.599 59.4658 178.269C58.846 178.938 58.5361 179.854 58.5361 181.017C58.5361 182.238 58.8141 183.168 59.3701 183.806C59.9307 184.439 60.735 184.756 61.7832 184.756C62.3118 184.756 62.877 184.69 63.4785 184.558V181.98H61.4072V180.579ZM71.1553 178.303C71.4788 178.303 71.7454 178.326 71.9551 178.371L71.7979 179.868C71.57 179.813 71.333 179.786 71.0869 179.786C70.4443 179.786 69.9225 179.996 69.5215 180.415C69.125 180.834 68.9268 181.379 68.9268 182.049V186H67.3203V178.439H68.5781L68.79 179.772H68.8721C69.1227 179.321 69.4486 178.964 69.8496 178.699C70.2552 178.435 70.6904 178.303 71.1553 178.303ZM80.0693 182.206C80.0693 183.441 79.7526 184.405 79.1191 185.098C78.4857 185.79 77.6038 186.137 76.4736 186.137C75.7673 186.137 75.1429 185.977 74.6006 185.658C74.0583 185.339 73.6413 184.881 73.3496 184.284C73.0579 183.687 72.9121 182.994 72.9121 182.206C72.9121 180.98 73.2266 180.023 73.8555 179.335C74.4844 178.647 75.3708 178.303 76.5146 178.303C77.6084 178.303 78.4743 178.656 79.1123 179.362C79.7503 180.064 80.0693 181.012 80.0693 182.206ZM74.5664 182.206C74.5664 183.951 75.2113 184.824 76.501 184.824C77.777 184.824 78.415 183.951 78.415 182.206C78.415 180.479 77.7725 179.615 76.4873 179.615C75.8128 179.615 75.3229 179.839 75.0176 180.285C74.7168 180.732 74.5664 181.372 74.5664 182.206ZM87.2539 186L87.0283 185.009H86.9463C86.723 185.36 86.404 185.635 85.9893 185.836C85.5791 186.036 85.1097 186.137 84.5811 186.137C83.665 186.137 82.9814 185.909 82.5303 185.453C82.0791 184.997 81.8535 184.307 81.8535 183.382V178.439H83.4736V183.102C83.4736 183.68 83.5921 184.116 83.8291 184.407C84.0661 184.694 84.4375 184.838 84.9434 184.838C85.6178 184.838 86.1123 184.637 86.4268 184.236C86.7458 183.831 86.9053 183.154 86.9053 182.206V178.439H88.5186V186H87.2539ZM94.6436 186.137C93.6865 186.137 92.9437 185.793 92.415 185.104H92.3193C92.3831 185.743 92.415 186.13 92.415 186.267V189.363H90.8086V178.439H92.1074C92.1439 178.581 92.2191 178.918 92.333 179.451H92.415C92.9163 178.686 93.6683 178.303 94.6709 178.303C95.6143 178.303 96.348 178.645 96.8721 179.328C97.4007 180.012 97.665 180.971 97.665 182.206C97.665 183.441 97.3962 184.405 96.8584 185.098C96.3252 185.79 95.5869 186.137 94.6436 186.137ZM94.2539 179.615C93.6159 179.615 93.1488 179.802 92.8525 180.176C92.5609 180.549 92.415 181.146 92.415 181.967V182.206C92.415 183.127 92.5609 183.794 92.8525 184.209C93.1442 184.619 93.6204 184.824 94.2812 184.824C94.8372 184.824 95.2656 184.596 95.5664 184.141C95.8672 183.685 96.0176 183.035 96.0176 182.192C96.0176 181.345 95.8672 180.704 95.5664 180.271C95.2702 179.834 94.8327 179.615 94.2539 179.615Z" fill="#1F2551"/>
<path d="M68.5703 208H67.1934V202.469C67.1934 201.809 67.209 201.285 67.2402 200.898C67.1504 200.992 67.0391 201.096 66.9062 201.209C66.7773 201.322 66.3398 201.682 65.5938 202.287L64.9023 201.414L67.4219 199.434H68.5703V208ZM73.2695 206.74C73.082 207.467 72.7383 208.402 72.2383 209.547H71.2246C71.4941 208.492 71.6953 207.512 71.8281 206.605H73.1816L73.2695 206.74ZM83.5176 208H77.7109V206.957L79.9199 204.736C80.5723 204.068 81.0039 203.596 81.2148 203.318C81.4297 203.037 81.5859 202.773 81.6836 202.527C81.7812 202.281 81.8301 202.018 81.8301 201.736C81.8301 201.35 81.7129 201.045 81.4785 200.822C81.248 200.6 80.9277 200.488 80.5176 200.488C80.1895 200.488 79.8711 200.549 79.5625 200.67C79.2578 200.791 78.9043 201.01 78.502 201.326L77.7578 200.418C78.2344 200.016 78.6973 199.73 79.1465 199.562C79.5957 199.395 80.0742 199.311 80.582 199.311C81.3789 199.311 82.0176 199.52 82.498 199.938C82.9785 200.352 83.2188 200.91 83.2188 201.613C83.2188 202 83.1484 202.367 83.0078 202.715C82.8711 203.062 82.6582 203.422 82.3691 203.793C82.084 204.16 81.6074 204.658 80.9395 205.287L79.4512 206.729V206.787H83.5176V208Z" fill="#1F2551"/>
<rect x="0.466102" y="304.466" width="58.0678" height="52.0678" rx="4.5339" fill="#F3F7FA" stroke="#1F2551" stroke-width="0.932203"/>
<path d="M30.5703 336H29.1934V330.469C29.1934 329.809 29.209 329.285 29.2402 328.898C29.1504 328.992 29.0391 329.096 28.9062 329.209C28.7773 329.322 28.3398 329.682 27.5938 330.287L26.9023 329.414L29.4219 327.434H30.5703V336Z" fill="#1F2551"/>
<rect x="173.466" y="304.466" width="58.0678" height="52.0678" rx="4.5339" fill="#F3F7FA" stroke="#1F2551" stroke-width="0.932203"/>
<path d="M205.012 329.402C205.012 329.945 204.854 330.398 204.537 330.762C204.221 331.121 203.775 331.363 203.201 331.488V331.535C203.889 331.621 204.404 331.836 204.748 332.18C205.092 332.52 205.264 332.973 205.264 333.539C205.264 334.363 204.973 335 204.391 335.449C203.809 335.895 202.98 336.117 201.906 336.117C200.957 336.117 200.156 335.963 199.504 335.654V334.43C199.867 334.609 200.252 334.748 200.658 334.846C201.064 334.943 201.455 334.992 201.83 334.992C202.494 334.992 202.99 334.869 203.318 334.623C203.646 334.377 203.811 333.996 203.811 333.48C203.811 333.023 203.629 332.688 203.266 332.473C202.902 332.258 202.332 332.15 201.555 332.15H200.811V331.031H201.566C202.934 331.031 203.617 330.559 203.617 329.613C203.617 329.246 203.498 328.963 203.26 328.764C203.021 328.564 202.67 328.465 202.205 328.465C201.881 328.465 201.568 328.512 201.268 328.605C200.967 328.695 200.611 328.873 200.201 329.139L199.527 328.178C200.312 327.6 201.225 327.311 202.264 327.311C203.127 327.311 203.801 327.496 204.285 327.867C204.77 328.238 205.012 328.75 205.012 329.402Z" fill="#1F2551"/>
<rect x="570.466" y="304.466" width="58.0678" height="52.0678" rx="4.5339" fill="#F3F7FA" stroke="#1F2551" stroke-width="0.932203"/>
<path d="M596.551 332.35C596.551 328.998 597.916 327.322 600.646 327.322C601.076 327.322 601.439 327.355 601.736 327.422V328.57C601.439 328.484 601.096 328.441 600.705 328.441C599.787 328.441 599.098 328.688 598.637 329.18C598.176 329.672 597.926 330.461 597.887 331.547H597.957C598.141 331.23 598.398 330.986 598.73 330.814C599.062 330.639 599.453 330.551 599.902 330.551C600.68 330.551 601.285 330.789 601.719 331.266C602.152 331.742 602.369 332.389 602.369 333.205C602.369 334.104 602.117 334.814 601.613 335.338C601.113 335.857 600.43 336.117 599.562 336.117C598.949 336.117 598.416 335.971 597.963 335.678C597.51 335.381 597.16 334.951 596.914 334.389C596.672 333.822 596.551 333.143 596.551 332.35ZM599.539 334.98C600.012 334.98 600.375 334.828 600.629 334.523C600.887 334.219 601.016 333.783 601.016 333.217C601.016 332.725 600.895 332.338 600.652 332.057C600.414 331.775 600.055 331.635 599.574 331.635C599.277 331.635 599.004 331.699 598.754 331.828C598.504 331.953 598.307 332.127 598.162 332.35C598.018 332.568 597.945 332.793 597.945 333.023C597.945 333.574 598.094 334.039 598.391 334.418C598.691 334.793 599.074 334.98 599.539 334.98Z" fill="#1F2551"/>
<rect x="89.4661" y="304.466" width="58.0678" height="52.0678" rx="4.5339" fill="#F3F7FA" stroke="#1F2551" stroke-width="0.932203"/>
<path d="M121.334 336H115.527V334.957L117.736 332.736C118.389 332.068 118.82 331.596 119.031 331.318C119.246 331.037 119.402 330.773 119.5 330.527C119.598 330.281 119.646 330.018 119.646 329.736C119.646 329.35 119.529 329.045 119.295 328.822C119.064 328.6 118.744 328.488 118.334 328.488C118.006 328.488 117.688 328.549 117.379 328.67C117.074 328.791 116.721 329.01 116.318 329.326L115.574 328.418C116.051 328.016 116.514 327.73 116.963 327.562C117.412 327.395 117.891 327.311 118.398 327.311C119.195 327.311 119.834 327.52 120.314 327.938C120.795 328.352 121.035 328.91 121.035 329.613C121.035 330 120.965 330.367 120.824 330.715C120.688 331.062 120.475 331.422 120.186 331.793C119.9 332.16 119.424 332.658 118.756 333.287L117.268 334.729V334.787H121.334V336Z" fill="#1F2551"/>
<rect x="332.466" y="304.466" width="58.0678" height="52.0678" rx="4.5339" fill="#F3F7FA" stroke="#1F2551" stroke-width="0.932203"/>
<path d="M361.434 330.65C362.297 330.65 362.98 330.879 363.484 331.336C363.988 331.793 364.24 332.416 364.24 333.205C364.24 334.119 363.953 334.834 363.379 335.35C362.809 335.861 361.996 336.117 360.941 336.117C359.984 336.117 359.232 335.963 358.686 335.654V334.406C359.002 334.586 359.365 334.725 359.775 334.822C360.186 334.92 360.566 334.969 360.918 334.969C361.539 334.969 362.012 334.83 362.336 334.553C362.66 334.275 362.822 333.869 362.822 333.334C362.822 332.311 362.17 331.799 360.865 331.799C360.682 331.799 360.455 331.818 360.186 331.857C359.916 331.893 359.68 331.934 359.477 331.98L358.861 331.617L359.189 327.434H363.643V328.658H360.402L360.209 330.779C360.346 330.756 360.512 330.729 360.707 330.697C360.906 330.666 361.148 330.65 361.434 330.65Z" fill="#1F2551"/>
<rect x="253.466" y="304.466" width="58.0678" height="52.0678" rx="4.5339" fill="#F3F7FA" stroke="#1F2551" stroke-width="0.932203"/>
<path d="M285.639 334.131H284.484V336H283.143V334.131H279.229V333.07L283.143 327.41H284.484V332.988H285.639V334.131ZM283.143 332.988V330.838C283.143 330.072 283.162 329.445 283.201 328.957H283.154C283.045 329.215 282.873 329.527 282.639 329.895L280.512 332.988H283.143Z" fill="#1F2551"/>
<rect x="659.466" y="304.466" width="58.0678" height="52.0678" rx="4.5339" fill="#F3F7FA" stroke="#1F2551" stroke-width="0.932203"/>
<path d="M686.5 336L689.887 328.658H685.434V327.445H691.357V328.406L687.988 336H686.5Z" fill="#1F2551"/>
<rect x="229.466" y="163.466" width="115.068" height="62.0678" rx="4.5339" fill="#F3F7FA" stroke="#1F2551" stroke-width="0.932203"/>
<path d="M270.407 180.579H274.085V185.597C273.483 185.793 272.905 185.932 272.349 186.014C271.797 186.096 271.2 186.137 270.558 186.137C269.045 186.137 267.878 185.69 267.058 184.797C266.237 183.899 265.827 182.634 265.827 181.003C265.827 179.394 266.29 178.136 267.215 177.229C268.14 176.318 269.414 175.862 271.036 175.862C272.08 175.862 273.069 176.063 274.003 176.464L273.429 177.824C272.618 177.451 271.806 177.264 270.995 177.264C269.929 177.264 269.086 177.599 268.466 178.269C267.846 178.938 267.536 179.854 267.536 181.017C267.536 182.238 267.814 183.168 268.37 183.806C268.931 184.439 269.735 184.756 270.783 184.756C271.312 184.756 271.877 184.69 272.479 184.558V181.98H270.407V180.579ZM280.155 178.303C280.479 178.303 280.745 178.326 280.955 178.371L280.798 179.868C280.57 179.813 280.333 179.786 280.087 179.786C279.444 179.786 278.923 179.996 278.521 180.415C278.125 180.834 277.927 181.379 277.927 182.049V186H276.32V178.439H277.578L277.79 179.772H277.872C278.123 179.321 278.449 178.964 278.85 178.699C279.255 178.435 279.69 178.303 280.155 178.303ZM289.069 182.206C289.069 183.441 288.753 184.405 288.119 185.098C287.486 185.79 286.604 186.137 285.474 186.137C284.767 186.137 284.143 185.977 283.601 185.658C283.058 185.339 282.641 184.881 282.35 184.284C282.058 183.687 281.912 182.994 281.912 182.206C281.912 180.98 282.227 180.023 282.855 179.335C283.484 178.647 284.371 178.303 285.515 178.303C286.608 178.303 287.474 178.656 288.112 179.362C288.75 180.064 289.069 181.012 289.069 182.206ZM283.566 182.206C283.566 183.951 284.211 184.824 285.501 184.824C286.777 184.824 287.415 183.951 287.415 182.206C287.415 180.479 286.772 179.615 285.487 179.615C284.813 179.615 284.323 179.839 284.018 180.285C283.717 180.732 283.566 181.372 283.566 182.206ZM296.254 186L296.028 185.009H295.946C295.723 185.36 295.404 185.635 294.989 185.836C294.579 186.036 294.11 186.137 293.581 186.137C292.665 186.137 291.981 185.909 291.53 185.453C291.079 184.997 290.854 184.307 290.854 183.382V178.439H292.474V183.102C292.474 183.68 292.592 184.116 292.829 184.407C293.066 184.694 293.438 184.838 293.943 184.838C294.618 184.838 295.112 184.637 295.427 184.236C295.746 183.831 295.905 183.154 295.905 182.206V178.439H297.519V186H296.254ZM303.644 186.137C302.687 186.137 301.944 185.793 301.415 185.104H301.319C301.383 185.743 301.415 186.13 301.415 186.267V189.363H299.809V178.439H301.107C301.144 178.581 301.219 178.918 301.333 179.451H301.415C301.916 178.686 302.668 178.303 303.671 178.303C304.614 178.303 305.348 178.645 305.872 179.328C306.401 180.012 306.665 180.971 306.665 182.206C306.665 183.441 306.396 184.405 305.858 185.098C305.325 185.79 304.587 186.137 303.644 186.137ZM303.254 179.615C302.616 179.615 302.149 179.802 301.853 180.176C301.561 180.549 301.415 181.146 301.415 181.967V182.206C301.415 183.127 301.561 183.794 301.853 184.209C302.144 184.619 302.62 184.824 303.281 184.824C303.837 184.824 304.266 184.596 304.566 184.141C304.867 183.685 305.018 183.035 305.018 182.192C305.018 181.345 304.867 180.704 304.566 180.271C304.27 179.834 303.833 179.615 303.254 179.615Z" fill="#1F2551"/>
<path d="M274.129 201.402C274.129 201.945 273.971 202.398 273.654 202.762C273.338 203.121 272.893 203.363 272.318 203.488V203.535C273.006 203.621 273.521 203.836 273.865 204.18C274.209 204.52 274.381 204.973 274.381 205.539C274.381 206.363 274.09 207 273.508 207.449C272.926 207.895 272.098 208.117 271.023 208.117C270.074 208.117 269.273 207.963 268.621 207.654V206.43C268.984 206.609 269.369 206.748 269.775 206.846C270.182 206.943 270.572 206.992 270.947 206.992C271.611 206.992 272.107 206.869 272.436 206.623C272.764 206.377 272.928 205.996 272.928 205.48C272.928 205.023 272.746 204.688 272.383 204.473C272.02 204.258 271.449 204.15 270.672 204.15H269.928V203.031H270.684C272.051 203.031 272.734 202.559 272.734 201.613C272.734 201.246 272.615 200.963 272.377 200.764C272.139 200.564 271.787 200.465 271.322 200.465C270.998 200.465 270.686 200.512 270.385 200.605C270.084 200.695 269.729 200.873 269.318 201.139L268.645 200.178C269.43 199.6 270.342 199.311 271.381 199.311C272.244 199.311 272.918 199.496 273.402 199.867C273.887 200.238 274.129 200.75 274.129 201.402ZM277.387 206.74C277.199 207.467 276.855 208.402 276.355 209.547H275.342C275.611 208.492 275.812 207.512 275.945 206.605H277.299L277.387 206.74ZM287.939 206.131H286.785V208H285.443V206.131H281.529V205.07L285.443 199.41H286.785V204.988H287.939V206.131ZM285.443 204.988V202.838C285.443 202.072 285.463 201.445 285.502 200.957H285.455C285.346 201.215 285.174 201.527 284.939 201.895L282.812 204.988H285.443ZM290.57 206.74C290.383 207.467 290.039 208.402 289.539 209.547H288.525C288.795 208.492 288.996 207.512 289.129 206.605H290.482L290.57 206.74ZM297.918 202.65C298.781 202.65 299.465 202.879 299.969 203.336C300.473 203.793 300.725 204.416 300.725 205.205C300.725 206.119 300.438 206.834 299.863 207.35C299.293 207.861 298.48 208.117 297.426 208.117C296.469 208.117 295.717 207.963 295.17 207.654V206.406C295.486 206.586 295.85 206.725 296.26 206.822C296.67 206.92 297.051 206.969 297.402 206.969C298.023 206.969 298.496 206.83 298.82 206.553C299.145 206.275 299.307 205.869 299.307 205.334C299.307 204.311 298.654 203.799 297.35 203.799C297.166 203.799 296.939 203.818 296.67 203.857C296.4 203.893 296.164 203.934 295.961 203.98L295.346 203.617L295.674 199.434H300.127V200.658H296.887L296.693 202.779C296.83 202.756 296.996 202.729 297.191 202.697C297.391 202.666 297.633 202.65 297.918 202.65Z" fill="#1F2551"/>
<rect x="407.466" y="163.466" width="115.068" height="62.0678" rx="4.5339" fill="#F3F7FA" stroke="#1F2551" stroke-width="0.932203"/>
<path d="M449.407 180.579H453.085V185.597C452.483 185.793 451.905 185.932 451.349 186.014C450.797 186.096 450.2 186.137 449.558 186.137C448.045 186.137 446.878 185.69 446.058 184.797C445.237 183.899 444.827 182.634 444.827 181.003C444.827 179.394 445.29 178.136 446.215 177.229C447.14 176.318 448.414 175.862 450.036 175.862C451.08 175.862 452.069 176.063 453.003 176.464L452.429 177.824C451.618 177.451 450.806 177.264 449.995 177.264C448.929 177.264 448.086 177.599 447.466 178.269C446.846 178.938 446.536 179.854 446.536 181.017C446.536 182.238 446.814 183.168 447.37 183.806C447.931 184.439 448.735 184.756 449.783 184.756C450.312 184.756 450.877 184.69 451.479 184.558V181.98H449.407V180.579ZM459.155 178.303C459.479 178.303 459.745 178.326 459.955 178.371L459.798 179.868C459.57 179.813 459.333 179.786 459.087 179.786C458.444 179.786 457.923 179.996 457.521 180.415C457.125 180.834 456.927 181.379 456.927 182.049V186H455.32V178.439H456.578L456.79 179.772H456.872C457.123 179.321 457.449 178.964 457.85 178.699C458.255 178.435 458.69 178.303 459.155 178.303ZM468.069 182.206C468.069 183.441 467.753 184.405 467.119 185.098C466.486 185.79 465.604 186.137 464.474 186.137C463.767 186.137 463.143 185.977 462.601 185.658C462.058 185.339 461.641 184.881 461.35 184.284C461.058 183.687 460.912 182.994 460.912 182.206C460.912 180.98 461.227 180.023 461.855 179.335C462.484 178.647 463.371 178.303 464.515 178.303C465.608 178.303 466.474 178.656 467.112 179.362C467.75 180.064 468.069 181.012 468.069 182.206ZM462.566 182.206C462.566 183.951 463.211 184.824 464.501 184.824C465.777 184.824 466.415 183.951 466.415 182.206C466.415 180.479 465.772 179.615 464.487 179.615C463.813 179.615 463.323 179.839 463.018 180.285C462.717 180.732 462.566 181.372 462.566 182.206ZM475.254 186L475.028 185.009H474.946C474.723 185.36 474.404 185.635 473.989 185.836C473.579 186.036 473.11 186.137 472.581 186.137C471.665 186.137 470.981 185.909 470.53 185.453C470.079 184.997 469.854 184.307 469.854 183.382V178.439H471.474V183.102C471.474 183.68 471.592 184.116 471.829 184.407C472.066 184.694 472.438 184.838 472.943 184.838C473.618 184.838 474.112 184.637 474.427 184.236C474.746 183.831 474.905 183.154 474.905 182.206V178.439H476.519V186H475.254ZM482.644 186.137C481.687 186.137 480.944 185.793 480.415 185.104H480.319C480.383 185.743 480.415 186.13 480.415 186.267V189.363H478.809V178.439H480.107C480.144 178.581 480.219 178.918 480.333 179.451H480.415C480.916 178.686 481.668 178.303 482.671 178.303C483.614 178.303 484.348 178.645 484.872 179.328C485.401 180.012 485.665 180.971 485.665 182.206C485.665 183.441 485.396 184.405 484.858 185.098C484.325 185.79 483.587 186.137 482.644 186.137ZM482.254 179.615C481.616 179.615 481.149 179.802 480.853 180.176C480.561 180.549 480.415 181.146 480.415 181.967V182.206C480.415 183.127 480.561 183.794 480.853 184.209C481.144 184.619 481.62 184.824 482.281 184.824C482.837 184.824 483.266 184.596 483.566 184.141C483.867 183.685 484.018 183.035 484.018 182.192C484.018 181.345 483.867 180.704 483.566 180.271C483.27 179.834 482.833 179.615 482.254 179.615Z" fill="#1F2551"/>
<path d="M462.422 199.322C463.234 199.322 463.877 199.51 464.35 199.885C464.822 200.256 465.059 200.754 465.059 201.379C465.059 202.258 464.531 202.957 463.477 203.477C464.148 203.812 464.625 204.166 464.906 204.537C465.191 204.908 465.334 205.322 465.334 205.779C465.334 206.486 465.074 207.053 464.555 207.479C464.035 207.904 463.332 208.117 462.445 208.117C461.516 208.117 460.795 207.918 460.283 207.52C459.771 207.121 459.516 206.557 459.516 205.826C459.516 205.35 459.648 204.922 459.914 204.543C460.184 204.16 460.623 203.82 461.232 203.523C460.709 203.211 460.336 202.881 460.113 202.533C459.891 202.186 459.779 201.795 459.779 201.361C459.779 200.74 460.023 200.246 460.512 199.879C461 199.508 461.637 199.322 462.422 199.322ZM460.834 205.779C460.834 206.186 460.977 206.502 461.262 206.729C461.547 206.951 461.934 207.062 462.422 207.062C462.926 207.062 463.316 206.947 463.594 206.717C463.875 206.482 464.016 206.166 464.016 205.768C464.016 205.451 463.887 205.162 463.629 204.9C463.371 204.639 462.98 204.396 462.457 204.174L462.287 204.098C461.771 204.324 461.4 204.574 461.174 204.848C460.947 205.117 460.834 205.428 460.834 205.779ZM462.41 200.383C462.02 200.383 461.705 200.48 461.467 200.676C461.229 200.867 461.109 201.129 461.109 201.461C461.109 201.664 461.152 201.846 461.238 202.006C461.324 202.166 461.449 202.312 461.613 202.445C461.777 202.574 462.055 202.73 462.445 202.914C462.914 202.707 463.244 202.49 463.436 202.264C463.631 202.033 463.729 201.766 463.729 201.461C463.729 201.129 463.607 200.867 463.365 200.676C463.127 200.48 462.809 200.383 462.41 200.383Z" fill="#1F2551"/>
<rect x="587.466" y="163.466" width="115.068" height="62.0678" rx="4.5339" fill="#F3F7FA" stroke="#1F2551" stroke-width="0.932203"/>
<path d="M628.407 180.579H632.085V185.597C631.483 185.793 630.905 185.932 630.349 186.014C629.797 186.096 629.2 186.137 628.558 186.137C627.045 186.137 625.878 185.69 625.058 184.797C624.237 183.899 623.827 182.634 623.827 181.003C623.827 179.394 624.29 178.136 625.215 177.229C626.14 176.318 627.414 175.862 629.036 175.862C630.08 175.862 631.069 176.063 632.003 176.464L631.429 177.824C630.618 177.451 629.806 177.264 628.995 177.264C627.929 177.264 627.086 177.599 626.466 178.269C625.846 178.938 625.536 179.854 625.536 181.017C625.536 182.238 625.814 183.168 626.37 183.806C626.931 184.439 627.735 184.756 628.783 184.756C629.312 184.756 629.877 184.69 630.479 184.558V181.98H628.407V180.579ZM638.155 178.303C638.479 178.303 638.745 178.326 638.955 178.371L638.798 179.868C638.57 179.813 638.333 179.786 638.087 179.786C637.444 179.786 636.923 179.996 636.521 180.415C636.125 180.834 635.927 181.379 635.927 182.049V186H634.32V178.439H635.578L635.79 179.772H635.872C636.123 179.321 636.449 178.964 636.85 178.699C637.255 178.435 637.69 178.303 638.155 178.303ZM647.069 182.206C647.069 183.441 646.753 184.405 646.119 185.098C645.486 185.79 644.604 186.137 643.474 186.137C642.767 186.137 642.143 185.977 641.601 185.658C641.058 185.339 640.641 184.881 640.35 184.284C640.058 183.687 639.912 182.994 639.912 182.206C639.912 180.98 640.227 180.023 640.855 179.335C641.484 178.647 642.371 178.303 643.515 178.303C644.608 178.303 645.474 178.656 646.112 179.362C646.75 180.064 647.069 181.012 647.069 182.206ZM641.566 182.206C641.566 183.951 642.211 184.824 643.501 184.824C644.777 184.824 645.415 183.951 645.415 182.206C645.415 180.479 644.772 179.615 643.487 179.615C642.813 179.615 642.323 179.839 642.018 180.285C641.717 180.732 641.566 181.372 641.566 182.206ZM654.254 186L654.028 185.009H653.946C653.723 185.36 653.404 185.635 652.989 185.836C652.579 186.036 652.11 186.137 651.581 186.137C650.665 186.137 649.981 185.909 649.53 185.453C649.079 184.997 648.854 184.307 648.854 183.382V178.439H650.474V183.102C650.474 183.68 650.592 184.116 650.829 184.407C651.066 184.694 651.438 184.838 651.943 184.838C652.618 184.838 653.112 184.637 653.427 184.236C653.746 183.831 653.905 183.154 653.905 182.206V178.439H655.519V186H654.254ZM661.644 186.137C660.687 186.137 659.944 185.793 659.415 185.104H659.319C659.383 185.743 659.415 186.13 659.415 186.267V189.363H657.809V178.439H659.107C659.144 178.581 659.219 178.918 659.333 179.451H659.415C659.916 178.686 660.668 178.303 661.671 178.303C662.614 178.303 663.348 178.645 663.872 179.328C664.401 180.012 664.665 180.971 664.665 182.206C664.665 183.441 664.396 184.405 663.858 185.098C663.325 185.79 662.587 186.137 661.644 186.137ZM661.254 179.615C660.616 179.615 660.149 179.802 659.853 180.176C659.561 180.549 659.415 181.146 659.415 181.967V182.206C659.415 183.127 659.561 183.794 659.853 184.209C660.144 184.619 660.62 184.824 661.281 184.824C661.837 184.824 662.266 184.596 662.566 184.141C662.867 183.685 663.018 183.035 663.018 182.192C663.018 181.345 662.867 180.704 662.566 180.271C662.27 179.834 661.833 179.615 661.254 179.615Z" fill="#1F2551"/>
<path d="M633.551 204.35C633.551 200.998 634.916 199.322 637.646 199.322C638.076 199.322 638.439 199.355 638.736 199.422V200.57C638.439 200.484 638.096 200.441 637.705 200.441C636.787 200.441 636.098 200.688 635.637 201.18C635.176 201.672 634.926 202.461 634.887 203.547H634.957C635.141 203.23 635.398 202.986 635.73 202.814C636.062 202.639 636.453 202.551 636.902 202.551C637.68 202.551 638.285 202.789 638.719 203.266C639.152 203.742 639.369 204.389 639.369 205.205C639.369 206.104 639.117 206.814 638.613 207.338C638.113 207.857 637.43 208.117 636.562 208.117C635.949 208.117 635.416 207.971 634.963 207.678C634.51 207.381 634.16 206.951 633.914 206.389C633.672 205.822 633.551 205.143 633.551 204.35ZM636.539 206.98C637.012 206.98 637.375 206.828 637.629 206.523C637.887 206.219 638.016 205.783 638.016 205.217C638.016 204.725 637.895 204.338 637.652 204.057C637.414 203.775 637.055 203.635 636.574 203.635C636.277 203.635 636.004 203.699 635.754 203.828C635.504 203.953 635.307 204.127 635.162 204.35C635.018 204.568 634.945 204.793 634.945 205.023C634.945 205.574 635.094 206.039 635.391 206.418C635.691 206.793 636.074 206.98 636.539 206.98ZM642.27 206.74C642.082 207.467 641.738 208.402 641.238 209.547H640.225C640.494 208.492 640.695 207.512 640.828 206.605H642.182L642.27 206.74ZM647.684 208L651.07 200.658H646.617V199.445H652.541V200.406L649.172 208H647.684Z" fill="#1F2551"/>
<line x1="368.5" y1="62" x2="368.5" y2="111" stroke="#5C5D5D" stroke-dasharray="2 2"/>
<line x1="30.5" y1="265" x2="30.5" y2="304" stroke="#5C5D5D" stroke-dasharray="2 2"/>
<line x1="600.5" y1="265" x2="600.5" y2="304" stroke="#5C5D5D" stroke-dasharray="2 2"/>
<line x1="203.5" y1="265" x2="203.5" y2="304" stroke="#5C5D5D" stroke-dasharray="2 2"/>
<line x1="119.5" y1="265" x2="119.5" y2="304" stroke="#5C5D5D" stroke-dasharray="2 2"/>
<line x1="689.5" y1="265" x2="689.5" y2="304" stroke="#5C5D5D" stroke-dasharray="2 2"/>
<line x1="362.5" y1="265" x2="362.5" y2="304" stroke="#5C5D5D" stroke-dasharray="2 2"/>
<line x1="282.5" y1="265" x2="282.5" y2="304" stroke="#5C5D5D" stroke-dasharray="2 2"/>
<line x1="73.5" y1="226" x2="73.5" y2="265" stroke="#5C5D5D" stroke-dasharray="2 2"/>
<line x1="643.5" y1="226" x2="643.5" y2="265" stroke="#5C5D5D" stroke-dasharray="2 2"/>
<line x1="282.5" y1="226" x2="282.5" y2="265" stroke="#5C5D5D" stroke-dasharray="2 2"/>
<line x1="75" y1="264.5" x2="119" y2="264.5" stroke="#5C5D5D" stroke-dasharray="2 2"/>
<line x1="645" y1="264.5" x2="689" y2="264.5" stroke="#5C5D5D" stroke-dasharray="2 2"/>
<line x1="248" y1="264.5" x2="363" y2="264.5" stroke="#5C5D5D" stroke-dasharray="2 2"/>
<line x1="30" y1="264.5" x2="74" y2="264.5" stroke="#5C5D5D" stroke-dasharray="2 2"/>
<line x1="600" y1="264.5" x2="644" y2="264.5" stroke="#5C5D5D" stroke-dasharray="2 2"/>
<line x1="203" y1="264.5" x2="247" y2="264.5" stroke="#5C5D5D" stroke-dasharray="2 2"/>
<line x1="73.5" y1="112" x2="73.5" y2="161" stroke="#5C5D5D" stroke-dasharray="2 2"/>
<line x1="282.5" y1="112" x2="282.5" y2="161" stroke="#5C5D5D" stroke-dasharray="2 2"/>
<line x1="461.5" y1="112" x2="461.5" y2="161" stroke="#5C5D5D" stroke-dasharray="2 2"/>
<line x1="640.5" y1="112" x2="640.5" y2="161" stroke="#5C5D5D" stroke-dasharray="2 2"/>
<line x1="74" y1="111.5" x2="411" y2="111.5" stroke="#5C5D5D" stroke-dasharray="2 2"/>
<line x1="409" y1="111.5" x2="640" y2="111.5" stroke="#5C5D5D" stroke-dasharray="2 2"/>
</svg>
