<svg width="626" height="216" viewBox="0 0 626 216" fill="none" xmlns="http://www.w3.org/2000/svg">
<rect x="257.466" y="0.466102" width="138.068" height="62.0678" rx="4.5339" fill="#F3F7FA" stroke="#1F2551" stroke-width="0.932203"/>
<path d="M309.407 17.5791H313.085V22.5967C312.483 22.7926 311.905 22.9316 311.349 23.0137C310.797 23.0957 310.2 23.1367 309.558 23.1367C308.045 23.1367 306.878 22.6901 306.058 21.7969C305.237 20.8991 304.827 19.6344 304.827 18.0029C304.827 16.3942 305.29 15.1364 306.215 14.2295C307.14 13.318 308.414 12.8623 310.036 12.8623C311.08 12.8623 312.069 13.0628 313.003 13.4639L312.429 14.8242C311.618 14.4505 310.806 14.2637 309.995 14.2637C308.929 14.2637 308.086 14.5986 307.466 15.2686C306.846 15.9385 306.536 16.8545 306.536 18.0166C306.536 19.238 306.814 20.1676 307.37 20.8057C307.931 21.4391 308.735 21.7559 309.783 21.7559C310.312 21.7559 310.877 21.6898 311.479 21.5576V18.9805H309.407V17.5791ZM319.155 15.3027C319.479 15.3027 319.745 15.3255 319.955 15.3711L319.798 16.8682C319.57 16.8135 319.333 16.7861 319.087 16.7861C318.444 16.7861 317.923 16.9958 317.521 17.415C317.125 17.8343 316.927 18.3789 316.927 19.0488V23H315.32V15.4395H316.578L316.79 16.7725H316.872C317.123 16.3213 317.449 15.9635 317.85 15.6992C318.255 15.4349 318.69 15.3027 319.155 15.3027ZM328.069 19.2061C328.069 20.4411 327.753 21.4049 327.119 22.0977C326.486 22.7904 325.604 23.1367 324.474 23.1367C323.767 23.1367 323.143 22.9772 322.601 22.6582C322.058 22.3392 321.641 21.8812 321.35 21.2842C321.058 20.6872 320.912 19.9945 320.912 19.2061C320.912 17.9801 321.227 17.0231 321.855 16.335C322.484 15.6468 323.371 15.3027 324.515 15.3027C325.608 15.3027 326.474 15.6559 327.112 16.3623C327.75 17.0641 328.069 18.012 328.069 19.2061ZM322.566 19.2061C322.566 20.9515 323.211 21.8242 324.501 21.8242C325.777 21.8242 326.415 20.9515 326.415 19.2061C326.415 17.4788 325.772 16.6152 324.487 16.6152C323.813 16.6152 323.323 16.8385 323.018 17.2852C322.717 17.7318 322.566 18.3721 322.566 19.2061ZM335.254 23L335.028 22.0088H334.946C334.723 22.3597 334.404 22.6354 333.989 22.8359C333.579 23.0365 333.11 23.1367 332.581 23.1367C331.665 23.1367 330.981 22.9089 330.53 22.4531C330.079 21.9974 329.854 21.307 329.854 20.3818V15.4395H331.474V20.1016C331.474 20.6803 331.592 21.1156 331.829 21.4072C332.066 21.6943 332.438 21.8379 332.943 21.8379C333.618 21.8379 334.112 21.6374 334.427 21.2363C334.746 20.8307 334.905 20.154 334.905 19.2061V15.4395H336.519V23H335.254ZM342.644 23.1367C341.687 23.1367 340.944 22.7926 340.415 22.1045H340.319C340.383 22.7425 340.415 23.1299 340.415 23.2666V26.3633H338.809V15.4395H340.107C340.144 15.5807 340.219 15.918 340.333 16.4512H340.415C340.916 15.6855 341.668 15.3027 342.671 15.3027C343.614 15.3027 344.348 15.6445 344.872 16.3281C345.401 17.0117 345.665 17.971 345.665 19.2061C345.665 20.4411 345.396 21.4049 344.858 22.0977C344.325 22.7904 343.587 23.1367 342.644 23.1367ZM342.254 16.6152C341.616 16.6152 341.149 16.8021 340.853 17.1758C340.561 17.5495 340.415 18.1465 340.415 18.9668V19.2061C340.415 20.1266 340.561 20.7943 340.853 21.209C341.144 21.6191 341.62 21.8242 342.281 21.8242C342.837 21.8242 343.266 21.5964 343.566 21.1406C343.867 20.6849 344.018 20.0355 344.018 19.1924C344.018 18.3447 343.867 17.7044 343.566 17.2715C343.27 16.834 342.833 16.6152 342.254 16.6152Z" fill="#1F2551"/>
<path d="M313.57 45H312.193V39.4688C312.193 38.8086 312.209 38.2852 312.24 37.8984C312.15 37.9922 312.039 38.0957 311.906 38.209C311.777 38.3223 311.34 38.6816 310.594 39.2871L309.902 38.4141L312.422 36.4336H313.57V45ZM318.27 43.7402C318.082 44.4668 317.738 45.4023 317.238 46.5469H316.225C316.494 45.4922 316.695 44.5117 316.828 43.6055H318.182L318.27 43.7402ZM328.518 45H322.711V43.957L324.92 41.7363C325.572 41.0684 326.004 40.5957 326.215 40.3184C326.43 40.0371 326.586 39.7734 326.684 39.5273C326.781 39.2812 326.83 39.0176 326.83 38.7363C326.83 38.3496 326.713 38.0449 326.479 37.8223C326.248 37.5996 325.928 37.4883 325.518 37.4883C325.189 37.4883 324.871 37.5488 324.562 37.6699C324.258 37.791 323.904 38.0098 323.502 38.3262L322.758 37.418C323.234 37.0156 323.697 36.7305 324.146 36.5625C324.596 36.3945 325.074 36.3105 325.582 36.3105C326.379 36.3105 327.018 36.5195 327.498 36.9375C327.979 37.3516 328.219 37.9102 328.219 38.6133C328.219 39 328.148 39.3672 328.008 39.7148C327.871 40.0625 327.658 40.4219 327.369 40.793C327.084 41.1602 326.607 41.6582 325.939 42.2871L324.451 43.7285V43.7871H328.518V45ZM331.453 43.7402C331.266 44.4668 330.922 45.4023 330.422 46.5469H329.408C329.678 45.4922 329.879 44.5117 330.012 43.6055H331.365L331.453 43.7402ZM341.379 38.4023C341.379 38.9453 341.221 39.3984 340.904 39.7617C340.588 40.1211 340.143 40.3633 339.568 40.4883V40.5352C340.256 40.6211 340.771 40.8359 341.115 41.1797C341.459 41.5195 341.631 41.9727 341.631 42.5391C341.631 43.3633 341.34 44 340.758 44.4492C340.176 44.8945 339.348 45.1172 338.273 45.1172C337.324 45.1172 336.523 44.9629 335.871 44.6543V43.4297C336.234 43.6094 336.619 43.748 337.025 43.8457C337.432 43.9434 337.822 43.9922 338.197 43.9922C338.861 43.9922 339.357 43.8691 339.686 43.623C340.014 43.377 340.178 42.9961 340.178 42.4805C340.178 42.0234 339.996 41.6875 339.633 41.4727C339.27 41.2578 338.699 41.1504 337.922 41.1504H337.178V40.0312H337.934C339.301 40.0312 339.984 39.5586 339.984 38.6133C339.984 38.2461 339.865 37.9629 339.627 37.7637C339.389 37.5645 339.037 37.4648 338.572 37.4648C338.248 37.4648 337.936 37.5117 337.635 37.6055C337.334 37.6953 336.979 37.873 336.568 38.1387L335.895 37.1777C336.68 36.5996 337.592 36.3105 338.631 36.3105C339.494 36.3105 340.168 36.4961 340.652 36.8672C341.137 37.2383 341.379 37.75 341.379 38.4023Z" fill="#1F2551"/>
<rect x="0.466102" y="163.466" width="60.0678" height="52.0678" rx="4.5339" fill="#F3F7FA" stroke="#1F2551" stroke-width="0.932203"/>
<rect x="198.466" y="163.466" width="60.0678" height="52.0678" rx="4.5339" fill="#F3F7FA" stroke="#1F2551" stroke-width="0.932203"/>
<rect x="384.466" y="163.466" width="60.0678" height="52.0678" rx="4.5339" fill="#F3F7FA" stroke="#1F2551" stroke-width="0.932203"/>
<rect x="565.466" y="163.466" width="60.0678" height="52.0678" rx="4.5339" fill="#F3F7FA" stroke="#1F2551" stroke-width="0.932203"/>
<path d="M29.5703 195H28.1934V189.469C28.1934 188.809 28.209 188.285 28.2402 187.898C28.1504 187.992 28.0391 188.096 27.9062 188.209C27.7773 188.322 27.3398 188.682 26.5938 189.287L25.9023 188.414L28.4219 186.434H29.5703V195Z" fill="#1F2551"/>
<path d="M232.334 195H226.527V193.957L228.736 191.736C229.389 191.068 229.82 190.596 230.031 190.318C230.246 190.037 230.402 189.773 230.5 189.527C230.598 189.281 230.646 189.018 230.646 188.736C230.646 188.35 230.529 188.045 230.295 187.822C230.064 187.6 229.744 187.488 229.334 187.488C229.006 187.488 228.688 187.549 228.379 187.67C228.074 187.791 227.721 188.01 227.318 188.326L226.574 187.418C227.051 187.016 227.514 186.73 227.963 186.562C228.412 186.395 228.891 186.311 229.398 186.311C230.195 186.311 230.834 186.52 231.314 186.938C231.795 187.352 232.035 187.91 232.035 188.613C232.035 189 231.965 189.367 231.824 189.715C231.688 190.062 231.475 190.422 231.186 190.793C230.9 191.16 230.424 191.658 229.756 192.287L228.268 193.729V193.787H232.334V195Z" fill="#1F2551"/>
<path d="M415.012 188.402C415.012 188.945 414.854 189.398 414.537 189.762C414.221 190.121 413.775 190.363 413.201 190.488V190.535C413.889 190.621 414.404 190.836 414.748 191.18C415.092 191.52 415.264 191.973 415.264 192.539C415.264 193.363 414.973 194 414.391 194.449C413.809 194.895 412.98 195.117 411.906 195.117C410.957 195.117 410.156 194.963 409.504 194.654V193.43C409.867 193.609 410.252 193.748 410.658 193.846C411.064 193.943 411.455 193.992 411.83 193.992C412.494 193.992 412.99 193.869 413.318 193.623C413.646 193.377 413.811 192.996 413.811 192.48C413.811 192.023 413.629 191.688 413.266 191.473C412.902 191.258 412.332 191.15 411.555 191.15H410.811V190.031H411.566C412.934 190.031 413.617 189.559 413.617 188.613C413.617 188.246 413.498 187.963 413.26 187.764C413.021 187.564 412.67 187.465 412.205 187.465C411.881 187.465 411.568 187.512 411.268 187.605C410.967 187.695 410.611 187.873 410.201 188.139L409.527 187.178C410.312 186.6 411.225 186.311 412.264 186.311C413.127 186.311 413.801 186.496 414.285 186.867C414.77 187.238 415.012 187.75 415.012 188.402Z" fill="#1F2551"/>
<path d="M596.639 193.131H595.484V195H594.143V193.131H590.229V192.07L594.143 186.41H595.484V191.988H596.639V193.131ZM594.143 191.988V189.838C594.143 189.072 594.162 188.445 594.201 187.957H594.154C594.045 188.215 593.873 188.527 593.639 188.895L591.512 191.988H594.143Z" fill="#1F2551"/>
<line x1="324.5" y1="62" x2="324.5" y2="111" stroke="#5C5D5D" stroke-dasharray="2 2"/>
<line x1="29.5" y1="112" x2="29.5" y2="161" stroke="#5C5D5D" stroke-dasharray="2 2"/>
<line x1="228.5" y1="112" x2="228.5" y2="161" stroke="#5C5D5D" stroke-dasharray="2 2"/>
<line x1="417.5" y1="112" x2="417.5" y2="161" stroke="#5C5D5D" stroke-dasharray="2 2"/>
<line x1="596.5" y1="112" x2="596.5" y2="161" stroke="#5C5D5D" stroke-dasharray="2 2"/>
<line x1="30" y1="111.5" x2="367" y2="111.5" stroke="#5C5D5D" stroke-dasharray="2 2"/>
<line x1="365" y1="111.5" x2="596" y2="111.5" stroke="#5C5D5D" stroke-dasharray="2 2"/>
<path d="M68.2929 188.293C67.9024 188.683 67.9024 189.317 68.2929 189.707L74.6569 196.071C75.0474 196.462 75.6805 196.462 76.0711 196.071C76.4616 195.681 76.4616 195.047 76.0711 194.657L70.4142 189L76.0711 183.343C76.4616 182.953 76.4616 182.319 76.0711 181.929C75.6805 181.538 75.0474 181.538 74.6569 181.929L68.2929 188.293ZM178.707 189.707C179.098 189.317 179.098 188.683 178.707 188.293L172.343 181.929C171.953 181.538 171.319 181.538 170.929 181.929C170.538 182.319 170.538 182.953 170.929 183.343L176.586 189L170.929 194.657C170.538 195.047 170.538 195.681 170.929 196.071C171.319 196.462 171.953 196.462 172.343 196.071L178.707 189.707ZM69 190H178V188H69V190Z" fill="#1F2551"/>
<path d="M269.293 188.293C268.902 188.683 268.902 189.317 269.293 189.707L275.657 196.071C276.047 196.462 276.681 196.462 277.071 196.071C277.462 195.681 277.462 195.047 277.071 194.657L271.414 189L277.071 183.343C277.462 182.953 277.462 182.319 277.071 181.929C276.681 181.538 276.047 181.538 275.657 181.929L269.293 188.293ZM379.707 189.707C380.098 189.317 380.098 188.683 379.707 188.293L373.343 181.929C372.953 181.538 372.319 181.538 371.929 181.929C371.538 182.319 371.538 182.953 371.929 183.343L377.586 189L371.929 194.657C371.538 195.047 371.538 195.681 371.929 196.071C372.319 196.462 372.953 196.462 373.343 196.071L379.707 189.707ZM270 190H379V188H270V190Z" fill="#1F2551"/>
<path d="M449.293 188.293C448.902 188.683 448.902 189.317 449.293 189.707L455.657 196.071C456.047 196.462 456.681 196.462 457.071 196.071C457.462 195.681 457.462 195.047 457.071 194.657L451.414 189L457.071 183.343C457.462 182.953 457.462 182.319 457.071 181.929C456.681 181.538 456.047 181.538 455.657 181.929L449.293 188.293ZM559.707 189.707C560.098 189.317 560.098 188.683 559.707 188.293L553.343 181.929C552.953 181.538 552.319 181.538 551.929 181.929C551.538 182.319 551.538 182.953 551.929 183.343L557.586 189L551.929 194.657C551.538 195.047 551.538 195.681 551.929 196.071C552.319 196.462 552.953 196.462 553.343 196.071L559.707 189.707ZM450 190H559V188H450V190Z" fill="#1F2551"/>
</svg>
