<svg width="68" height="68" viewBox="0 0 68 68" fill="none" xmlns="http://www.w3.org/2000/svg">
<g filter="url(#filter0_d_3601_3534)">
<circle cx="34" cy="30" r="19" fill="white"/>
</g>
<path d="M29 39C28.45 39 27.979 38.804 27.587 38.412C27.195 38.02 26.9993 37.5493 27 37V24H26V22H31V21H37V22H42V24H41V37C41 37.55 40.804 38.021 40.412 38.413C40.02 38.805 39.5493 39.0007 39 39H29ZM39 24H29V37H39V24ZM31 35H33V26H31V35ZM35 35H37V26H35V35Z" fill="#1F2551"/>
<defs>
<filter id="filter0_d_3601_3534" x="0" y="0" width="68" height="68" filterUnits="userSpaceOnUse" color-interpolation-filters="sRGB">
<feFlood flood-opacity="0" result="BackgroundImageFix"/>
<feColorMatrix in="SourceAlpha" type="matrix" values="0 0 0 0 0 0 0 0 0 0 0 0 0 0 0 0 0 0 127 0" result="hardAlpha"/>
<feMorphology radius="1" operator="erode" in="SourceAlpha" result="effect1_dropShadow_3601_3534"/>
<feOffset dy="4"/>
<feGaussianBlur stdDeviation="8"/>
<feComposite in2="hardAlpha" operator="out"/>
<feColorMatrix type="matrix" values="0 0 0 0 0 0 0 0 0 0 0 0 0 0 0 0 0 0 0.1 0"/>
<feBlend mode="normal" in2="BackgroundImageFix" result="effect1_dropShadow_3601_3534"/>
<feBlend mode="normal" in="SourceGraphic" in2="effect1_dropShadow_3601_3534" result="shape"/>
</filter>
</defs>
</svg>
