<svg width="652" height="291" viewBox="0 0 652 291" fill="none" xmlns="http://www.w3.org/2000/svg">
<path d="M271.192 289.901H275.767L285.288 209.003H276.499L271.192 289.901Z" fill="#8E9AEE"/>
<path d="M336.174 289.901H331.598L322.078 209.003H330.867L336.174 289.901Z" fill="#8E9AEE"/>
<path d="M259.389 105.391H235.218C229.477 105.391 225.092 110.551 225.979 116.262L240.778 211.481H268.73L259.389 105.391Z" fill="#C4C9FC"/>
<path d="M235.479 289.901H240.054L249.575 209.003H240.786L235.479 289.901Z" fill="#C4C9FC"/>
<path d="M300.462 289.901H295.887L286.366 209.003H295.155L300.462 289.901Z" fill="#C4C9FC"/>
<path d="M245.103 215.834H329.214C331.603 215.834 333.538 213.885 333.538 211.48C333.538 209.076 331.602 207.127 329.214 207.127H245.103C242.715 207.127 240.778 209.076 240.778 211.48C240.778 213.885 242.715 215.834 245.103 215.834Z" fill="#C4C9FC"/>
<path d="M321.698 289.997H294.768C294.768 289.997 293.262 285.168 296.524 279.187C296.524 279.187 298.691 280.937 305.184 279.753C305.184 279.753 307.894 282.069 309.765 282.975C311.647 283.891 322.423 286.023 321.698 289.997Z" fill="#525BAD"/>
<path d="M370.409 289.997H343.479C343.479 289.997 341.974 285.168 345.235 279.187C345.235 279.187 347.403 280.937 353.895 279.753C353.895 279.753 356.605 282.069 358.476 282.975C360.357 283.891 371.135 286.023 370.409 289.997Z" fill="#525BAD"/>
<path d="M280.365 182.492C280.739 178.777 281.457 176.893 281.457 176.893C281.457 176.893 328.691 185.86 341.253 190.108C347.495 192.219 352.258 196.097 352.848 201.769L352.876 201.763C352.938 202.357 354.459 259.001 354.675 279.619C349.529 280.901 345.801 280.777 344.037 280.576C342.605 272.182 338.29 253.87 336.441 245.17C334.249 234.863 331.473 222.572 330.941 214.084C311.845 212.411 286.633 209.585 283.607 208.046C278.618 205.509 277.116 196.54 280.365 182.492Z" fill="#24315D"/>
<path d="M249.693 179.852C250.068 176.137 251.4 174.79 251.4 174.79L270.893 181.204L288.613 185.269C295.182 186.743 303.118 188.517 310.114 190.108C317.964 191.904 323.176 197.909 321.457 205.823L319.49 215.425C317.239 227.718 309.873 260.453 306.605 280.229C300.299 280.77 297.271 280.041 295.666 279.669C295.98 272.387 295.739 255.366 295.666 247.727C295.572 237.555 295.323 222.81 297.752 213.193C281.402 212.56 262.661 211.162 254.142 206.525C244.063 201.04 249.693 179.852 249.693 179.852Z" fill="#2D3A70"/>
<path d="M304.372 121.817L306.871 132.868L307.711 136.613V136.623L310.78 150.17C312.079 151.831 319.457 161.333 324.335 169.164C329.701 177.76 336.01 184.2 336.038 184.228H336.039C336.804 185.036 340.658 186.927 342.626 188.331C344.594 189.735 346.577 192.596 346.577 192.596C346.577 192.596 342.197 190.418 338.736 189.506C337.039 189.058 334.175 188.61 334.129 189.119C334.12 189.221 334.817 190.178 335.067 190.65C335.317 191.122 337.009 191.96 337.447 192.432C337.885 192.904 338.082 193.952 337.587 193.921C337.093 193.89 334.286 192.967 333.067 192.432C331.849 191.898 330.919 190.584 330.255 188.972C329.35 186.77 327.373 184.603 327.373 184.603L327.379 184.602C314.039 173.554 302.697 160.188 300.492 157.347C299.613 156.22 298.873 155.163 298.243 154.136V154.126C296.224 150.865 295.274 147.936 294.304 144.041C294.304 144.031 294.304 144.031 294.304 144.021C293.655 142.018 293.095 140.015 292.605 138.142C291.235 132.828 290.516 128.601 290.516 128.601L304.372 121.817Z" fill="#E6E9FF"/>
<path d="M249.94 151.731C250.36 158.686 253.739 163.9 250.53 174.498C249.77 177.035 249.58 178.343 249.58 179.39C249.58 180.125 250.5 180.88 250.88 181.091C254.849 183.396 270.293 183.738 278.061 183.738C284.958 183.738 295.325 182.631 296.625 180.88C297.824 179.269 296.724 176.944 296.155 173.723C293.616 159.199 294.515 151.63 294.675 141.142C294.675 140.88 294.685 140.619 294.685 140.347V140.146H294.695C295.515 140.025 296.295 139.874 296.974 139.733C298.094 139.481 298.954 139.23 299.324 139.109C307.701 136.462 308.95 133.754 308.95 133.754C306.581 123.377 303.722 116.412 301.173 111.812C301.113 111.701 301.053 111.591 300.983 111.47C300.923 111.359 300.853 111.238 300.783 111.128C299.414 108.843 297.444 106.92 295.255 105.34C295.035 105.179 294.825 105.028 294.595 104.867C288.297 100.579 280.55 98.8682 279.89 98.7273C279.86 98.7172 279.85 98.7172 279.85 98.7172C277.861 98.5864 275.692 98.5461 273.332 98.6267C269.334 98.7374 262.856 99.7238 257.088 101.304C257.088 101.304 257.048 101.314 257.018 101.324C256.458 101.505 252.709 102.914 248.821 107.112C247.511 108.491 246.182 110.202 244.982 112.295C245.252 118.797 246.651 130.503 247.441 140.619C247.571 142.148 249.85 150.281 249.94 151.731Z" fill="white"/>
<path d="M294.695 140.144C295.515 140.024 296.295 139.873 296.975 139.732L295.035 121.816C294.965 124.746 294.725 138.324 294.695 140.144Z" fill="#E3E6ED"/>
<path d="M289.661 66.3005C289.661 66.3005 291.497 78.4623 286.106 79.7225C282.637 80.5328 283.056 76.2621 283.056 76.2621L282.965 71.2063L289.661 66.3005Z" fill="#192C51"/>
<path d="M276.966 102.854C276.738 104.175 276.242 110.382 275.822 110.403L274.28 103.11C274.28 103.11 271.361 107.197 271.441 107.811C267.265 105.84 263.174 100.332 264.703 99.6076C265.933 99.4264 266.303 98.4501 266.473 97.8059C268.092 91.4548 266.073 81.3895 266.073 81.3895L273.68 87.4186L277.269 90.257C277.369 90.6294 277.479 91.032 277.589 91.4447V92.0989C277.589 92.0989 277.589 92.0989 277.589 92.109C277.569 92.3304 277.259 95.8432 277.939 97.6046C278.059 97.9468 278.229 98.2286 278.459 98.3998C278.698 98.5809 279.848 98.7219 279.848 98.7219L279.858 98.7118C280.198 99.7686 281.265 102.149 276.966 102.854Z" fill="#E6E9FF"/>
<path d="M270.629 87.7942C270.629 87.7942 270.693 94.5117 277.935 97.6008C277.262 95.8474 277.572 92.3306 277.593 92.1051L274.559 89.7066L270.629 87.7942Z" fill="#C2CBF9"/>
<path d="M288.782 71.1063C288.853 74.7801 288.836 84.6501 286.845 90.3198C285.915 92.9659 283.297 94.6126 280.523 94.3288C277.813 94.052 273.953 92.9196 270.469 89.1895C268.685 87.2791 266.68 87.0365 265.751 84.5856C264.244 80.6048 261.911 73.2109 263.249 68.434C265.074 61.9147 284.911 54.5369 288.384 67.823C288.664 68.8929 288.76 69.9991 288.782 71.1063Z" fill="#E6E9FF"/>
<path d="M266.43 60.4178C272.949 56.8678 292.879 56.3021 291.754 67.7513C291.21 73.2862 279.123 71.9324 275.352 71.1212C274.786 73.7985 275.31 77.3676 273.37 79.4662C272.266 80.662 270.138 80.9408 267.93 80.8301C267.722 81.3716 266.667 81.9282 266.65 82.6629C266.59 85.1893 267.193 88.5279 267.102 91.5475L266.02 91.163C265.878 90.6829 259.081 80.7254 259.025 73.0627C258.974 65.8218 264.541 61.4465 266.43 60.4178Z" fill="#192C51"/>
<path d="M270.621 85.1874C266.64 87.2809 264.148 77.107 268.053 76.187C271.014 75.4895 271.622 79.6907 271.622 79.6907C271.622 79.6907 272.895 83.9916 270.621 85.1874Z" fill="#E6E9FF"/>
<path d="M270.466 80.8661C270.476 80.5712 270.46 80.2642 270.401 79.9572C270.318 79.5647 270.169 79.1792 269.963 78.8581C269.764 78.533 269.503 78.2824 269.265 78.1052C268.768 77.758 268.369 77.7278 268.369 77.7278C268.369 77.7278 268.671 77.9754 268.971 78.4072C269.269 78.8319 269.556 79.4258 269.676 80.0841C269.567 80.0126 269.459 79.9391 269.337 79.8888C268.994 79.7418 268.633 79.6985 268.372 79.7096C268.11 79.7157 267.944 79.765 267.944 79.765C267.944 79.765 268.117 79.763 268.36 79.8254C268.603 79.8817 268.91 80.0126 269.153 80.2099C269.401 80.4031 269.575 80.6568 269.671 80.8591C269.772 81.0594 269.813 81.2043 269.813 81.2043L269.815 81.2033C269.834 81.4942 269.836 81.778 269.844 82.0246C269.847 82.3034 269.849 82.5359 269.851 82.698C269.854 82.8641 269.865 82.9627 269.865 82.9627C269.865 82.9627 269.916 82.8812 269.99 82.7312C270.05 82.5782 270.186 82.3679 270.261 82.0901C270.348 81.8153 270.434 81.4851 270.459 81.1177C270.468 81.0413 270.462 80.9587 270.465 80.8802L270.472 80.8762C270.472 80.8762 270.468 80.8681 270.466 80.8661Z" fill="#C2CBF9"/>
<path d="M260.088 121.817C260.088 121.817 257.885 135.122 256.302 141.161C256.302 141.161 255.275 141.536 251.428 141.497L260.088 121.817Z" fill="#E3E6ED"/>
<path d="M217.072 250.994V286.665C217.072 288.376 218.452 289.765 220.151 289.765H273.563C275.263 289.765 276.642 288.376 276.642 286.665V250.994C276.642 249.283 275.263 247.894 273.563 247.894H220.151C218.452 247.894 217.072 249.283 217.072 250.994Z" fill="#3C4888"/>
<path d="M213.823 250.994V286.665C213.823 288.376 215.203 289.765 216.902 289.765H270.314C272.014 289.765 273.393 288.376 273.393 286.665V250.994C273.393 249.283 272.014 247.894 270.314 247.894H216.902C215.203 247.894 213.823 249.283 213.823 250.994Z" fill="#525BAD"/>
<path d="M234.024 249.206H237.324V248.414C237.324 246.705 238.705 245.315 240.402 245.315H246.816C248.514 245.315 249.894 246.705 249.894 248.414V249.206H253.194V248.414C253.194 244.873 250.333 241.993 246.816 241.993H240.402C236.885 241.993 234.024 244.873 234.024 248.414V249.206Z" fill="#3C4888"/>
<path d="M216.878 247.894H243.608H270.338C272.025 247.894 273.393 249.283 273.393 250.994V258.855L243.608 268.205L213.823 258.855V250.994C213.823 249.283 215.192 247.894 216.878 247.894Z" fill="#46509B"/>
<path d="M239.309 269.665H247.804C248.145 269.665 248.421 269.387 248.421 269.044V265.908C248.421 265.565 248.145 265.287 247.804 265.287H239.309C238.968 265.287 238.692 265.565 238.692 265.908V269.044C238.692 269.387 238.968 269.665 239.309 269.665Z" fill="#3C4888"/>
<path d="M254.777 131.686C254.777 131.686 254.667 132.431 254.457 133.679C254.087 135.863 253.437 139.607 252.607 143.553C252.038 146.25 251.388 149.038 250.698 151.504L235.453 149.874C235.653 147.81 235.913 145.505 236.193 143.17C236.213 143.009 236.223 142.919 236.223 142.919C236.483 140.745 236.753 138.53 237.023 136.447C237.153 135.36 237.283 134.313 237.412 133.316C238.032 128.515 238.522 124.942 238.522 124.942L254.777 131.686Z" fill="#E6E9FF"/>
<path d="M240.599 116.817C243.138 111.064 245.136 108.345 246.222 107.191C249.653 103.546 253.941 102.438 253.941 102.438C255.687 101.728 257.015 101.322 257.015 101.322C257.015 101.322 262.216 105.095 260.387 119.959C259.591 126.421 254.783 139.718 254.783 139.718C251.454 140.275 246.512 139.049 242.816 137.702C238.067 135.972 236.145 133.696 236.145 133.696C236.145 133.696 237.77 123.224 240.599 116.817Z" fill="white"/>
<path d="M266.74 96.553C266.74 96.553 268.054 101.765 274.281 103.105L271.375 108.303C271.375 108.303 265.263 106.377 263.538 99.8212L266.74 96.553Z" fill="white"/>
<path d="M276.966 102.854L280.226 106.797C280.226 106.797 281.675 103.19 279.89 98.7273L277.747 96.9648C277.747 96.9648 278.572 98.5843 276.966 102.854Z" fill="white"/>
<path d="M279.661 152.749L293.506 121.971C293.722 121.49 294.197 121.182 294.721 121.182H321.906C322.695 121.182 323.186 122.044 322.787 122.73L304.578 153.984C304.338 154.396 303.9 154.649 303.426 154.649H280.875C279.907 154.648 279.261 153.639 279.661 152.749Z" fill="#2D3A70"/>
<path d="M281.924 139.855C281.924 139.855 252.415 143.156 247.135 144.499C241.855 145.841 235.453 149.874 235.453 149.874C235.453 149.874 234.023 157.332 241.771 158.339C249.518 159.345 282.924 144.079 282.924 144.079L281.924 139.855Z" fill="#E6E9FF"/>
<path d="M294.858 137.201C294.634 137.201 294.125 137.368 293.535 137.596C293.549 137.57 293.58 137.538 293.587 137.515C293.795 136.886 293.171 136.865 292.796 136.948C292.421 137.032 291.463 137.62 290.255 137.787C289.047 137.955 286.506 137.556 286.506 137.556L287.244 135.917C287.244 135.917 285.006 136.319 284.507 136.738C284.007 137.158 283.34 137.87 282.09 138.751C280.841 139.632 279.37 140.143 279.37 140.143L280.598 142.725L278.16 143.368L278.72 144.295C278.72 144.295 286.052 144.052 287.04 143.836C288.027 143.621 290.834 142.31 291.699 141.821C292.233 141.52 292.406 141.187 292.308 140.949C292.937 140.557 293.493 140.187 293.792 139.967C294.371 139.539 294.45 139.133 294.2 138.925C294.498 138.709 294.757 138.514 294.924 138.378C295.696 137.752 295.524 137.201 294.858 137.201Z" fill="#E6E9FF"/>
<path d="M432.502 90.0839C432.502 90.0839 434.194 89.6431 434.652 86.7916C435.11 83.9401 431.195 83.8555 431.07 83.9401C430.945 84.0236 429.113 85.0724 429.113 85.0724C429.113 85.0724 428.946 86.8761 429.113 87.0432C429.279 87.2103 430.461 90.7915 432.502 90.0839Z" fill="#86BCE3"/>
<path d="M458.318 50.6747C458.155 50.109 457.461 50.7934 457.224 51.1507C457.19 51.2021 457.112 51.3259 457.009 51.4909C457.391 50.6505 458.124 48.7814 457.957 48.1996C457.799 47.648 457.245 48.0285 456.857 48.4412C457.14 47.6531 457.373 46.8217 457.271 46.4694C457.064 45.7477 456.177 46.6214 455.876 47.0773C455.737 47.2887 455.069 48.3748 454.394 49.4779C454.786 48.5418 455.294 47.1176 455.152 46.6244C454.944 45.9027 454.058 46.7764 453.756 47.2323C453.454 47.6883 450.702 52.2056 450.702 52.2056L450.002 53.2705C450.002 53.2705 449.731 50.5629 449.449 49.6047C449.167 48.6455 448.355 48.6103 448.179 49.3913C448.003 50.1724 447.65 52.3505 447.544 53.3087C447.438 54.2669 447.474 56.1018 447.403 57.2382C447.364 57.8632 447.291 58.9694 446.546 59.8612C444.872 61.6266 442.032 64.621 439.839 66.9109C436.536 70.3592 432.499 75.4704 432.499 75.4704L427.933 69.0598L417.989 79.9041C417.989 79.9041 429.441 90.1263 434.09 88.1556C437.981 86.5059 447.264 68.6169 450.188 62.8274C450.301 62.6301 451.208 61.3287 452.287 60.1984C453.373 59.059 454.632 58.0907 454.632 58.0907C454.632 58.0907 455.658 56.8396 456.416 55.6056C457.002 54.6534 457.356 53.66 457.415 53.5765C457.55 53.3822 458.481 51.2393 458.318 50.6747Z" fill="#E6E9FF"/>
<path d="M420.625 277.198L421.754 289.819H422.561L423.792 277.198H420.625Z" fill="#AF2536"/>
<path d="M376.817 277.198L377.946 289.819H378.753L379.984 277.198H376.817Z" fill="#86BCE3"/>
<path d="M421.876 269.845C421.876 269.845 418.555 271.56 420.306 276.387C421.661 280.119 422.776 281.388 423.579 284.105C424.383 286.823 426.218 288.974 429.436 289.857C431.58 290.446 435.136 289.115 434.346 287.632C432.45 284.076 431.576 281.683 431.576 281.683L421.876 269.845Z" fill="#86BCE3"/>
<path d="M370.079 261.527C370.079 261.527 370.456 265.142 370.941 270.346C370.941 270.346 370.202 272.639 369.219 275.492C368.118 278.685 365.895 284.566 365.895 284.566C365.895 284.566 366.478 287.082 368.134 286.229C368.648 285.964 369.158 285.629 369.609 285.204C371.515 283.412 378.492 273.265 378.492 273.265L377.975 270.345L379.316 258.801L370.079 261.527Z" fill="#E6E9FF"/>
<path d="M420.008 262.359L421.94 270.216C421.94 270.216 420.906 272.123 422.016 274.738C422.772 276.518 423.93 277.203 424.69 279.654C425.159 281.167 426.196 282.379 426.443 282.662C428.044 284.497 430.486 284.196 431.252 283.759C432.573 283.007 431.288 281.286 431.16 280.695C430.293 276.706 428.959 271.433 428.346 269.691C427.982 266.916 427.731 262.179 427.731 262.179L420.008 262.359Z" fill="#E6E9FF"/>
<path d="M373.506 117.738C373.506 117.738 367.447 125.955 365.893 145.404C364.737 159.866 364.289 183.286 364.385 189.421C364.444 193.222 365.505 196.922 366.464 205.968C367.424 215.014 370.078 261.527 370.078 261.527C370.078 261.527 372.946 263.903 378.981 261.688C378.981 261.688 385.939 214.787 385.413 206.073C384.887 197.358 383.556 195.021 384.464 189.744C385.417 184.213 391.184 148.714 390.937 148.617L391.883 148.988C391.883 148.988 396.579 168.69 400.113 180.18C403.646 191.67 405.182 198.612 405.182 198.612C405.182 198.612 405.608 211.433 407.784 220.402C409.958 229.371 420.009 262.357 420.009 262.357C420.009 262.357 423.57 264.052 427.732 262.177C427.732 262.177 426.985 223.121 426.188 216.37C425.391 209.62 422.984 198.573 422.984 198.573C422.984 198.573 420.214 157.621 418.77 144.708C416.714 126.329 410.317 118.66 410.317 118.66L373.506 117.738Z" fill="#18004D"/>
<path d="M377.667 21.1631C377.667 21.1631 375.412 34.6535 384.795 37.2141C390.465 38.7611 382.985 24.384 382.985 24.384L377.667 21.1631Z" fill="#18004D"/>
<path d="M403.06 16.1322C403.06 16.1322 408.081 28.8134 401.115 33.9809C396.387 37.4886 397.963 21.4164 397.963 21.4164L403.06 16.1322Z" fill="#18004D"/>
<path d="M379.771 28.1648C379.771 28.1648 377.833 26.9549 376.747 28.0863C375.662 29.2176 377.197 35.2517 381.877 34.684L379.771 28.1648Z" fill="#E6E9FF"/>
<path d="M402.466 23.6694C402.466 23.6694 403.804 21.8093 405.235 22.4434C406.665 23.0765 407.514 29.2465 402.97 30.5057L402.466 23.6694Z" fill="#E6E9FF"/>
<path d="M404.858 48.8189C403.755 51.2607 400.374 56.7463 392.289 57.172C384.333 56.7553 380.943 51.4369 379.775 48.9296C381.209 48.4666 383.248 47.6443 384.296 46.515C385.215 45.5256 385.922 43.4813 386.381 41.8065C386.776 40.354 386.978 39.1794 386.978 39.1794L386.059 37.2831V37.2741C386.077 37.0708 386.096 36.8856 386.114 36.7285C386.141 36.4507 386.16 36.2293 386.169 36.0813C386.178 35.9334 386.187 35.8499 386.187 35.8499H398.397C398.397 35.8499 398.406 35.9334 398.415 36.0813C398.424 36.2293 398.443 36.4518 398.47 36.7195C398.47 36.7376 398.47 36.7467 398.479 36.7658L397.771 38.3752C397.771 38.3752 397.872 39.9484 398.184 41.7149C398.46 43.3062 398.91 45.0454 399.609 45.9241C400.41 46.9407 402.827 48.0318 404.858 48.8189Z" fill="#E6E9FF"/>
<path d="M397.774 38.3742C397.774 38.3742 397.875 39.9474 398.187 41.7139C397.364 42.9167 396.141 44.7727 393.963 45.275C391.934 45.744 387.502 43.1009 386.381 41.8055C386.776 40.3531 386.978 39.1785 386.978 39.1785L386.059 37.2822V37.2731C386.077 37.0698 386.096 36.8846 386.114 36.7276C386.141 36.4498 386.16 36.2283 386.169 36.0804C386.178 35.9324 386.187 35.8489 386.187 35.8489H398.397C398.397 35.8489 398.406 35.9324 398.415 36.0804C398.424 36.2283 398.443 36.4508 398.47 36.7185C398.47 36.7366 398.47 36.7457 398.479 36.7648L397.774 38.3742Z" fill="#E6E9FF"/>
<path d="M401.655 18.4153L389.126 15.7189L378.545 22.994C378.545 22.994 379.772 30.6557 381.998 35.1206C384.088 39.3118 389.042 42.2961 393.548 42.7742C394.121 42.8346 394.706 42.7189 395.213 42.4441C399.202 40.2831 402.665 35.6319 403.022 30.9556C403.402 25.9733 401.655 18.4153 401.655 18.4153Z" fill="#E6E9FF"/>
<path d="M384.812 13.4078C384.812 13.4078 381.222 9.43102 381.524 5.61529C381.878 1.15539 385.569 -0.317156 388.593 0.0552574C391.462 0.408547 392.064 3.08289 392.064 3.08289C392.064 3.08289 394.204 0.365277 396.699 2.66418C398.262 4.10451 398.538 10.7999 394.814 13.2035C391.09 15.6081 388.105 16.1445 384.812 13.4078Z" fill="#210866"/>
<path d="M381.951 10.7134C381.951 10.7134 381.67 7.45634 388.46 6.75882C393.557 6.23543 398.198 7.6969 398.265 10.4105C398.359 14.197 382.416 14.497 381.951 10.7134Z" fill="#86BCE3"/>
<path d="M388.327 11.0938C388.327 11.0938 387.983 10.96 387.33 10.7879C386.68 10.6208 385.731 10.4185 384.581 10.3621C383.439 10.3118 382.068 10.4054 380.767 10.9801C379.461 11.5337 378.31 12.6378 377.641 14.0329C377.283 14.7294 377.072 15.4551 376.94 16.219C376.816 16.976 376.78 17.7389 376.805 18.4777C376.85 19.9573 377.098 21.3312 377.328 22.4998C377.563 23.6693 377.788 24.6406 377.9 25.3301C378.02 26.0186 378.015 26.4192 378.015 26.4192C378.015 26.4192 378.005 26.0186 377.857 25.3381C377.718 24.6557 377.455 23.6965 377.173 22.534C376.896 21.3714 376.59 20.0005 376.484 18.4938C376.429 17.7409 376.434 16.9548 376.532 16.1587C376.631 15.3746 376.839 14.5432 377.186 13.8114C377.85 12.3097 379.084 11.0425 380.504 10.3953C381.917 9.72396 383.39 9.58605 384.605 9.60417C385.829 9.62833 386.833 9.81353 387.527 9.97054C388.218 10.1306 388.618 10.2725 388.618 10.2725L388.327 11.0938Z" fill="#210866"/>
<path d="M390.571 1.6567C390.571 1.6567 391.495 0.526379 393.352 0.576705C395.244 0.628038 397.658 2.11668 397.228 6.78191" stroke="#210866" stroke-width="0.8664" stroke-miterlimit="10"/>
<path d="M396.411 18.7203C396.413 18.7072 396.362 18.9689 396.233 19.3594C396.098 19.75 395.9 20.3046 395.573 20.9226C395.426 21.2406 395.215 21.5557 395.018 21.9019C394.783 22.224 394.571 22.5894 394.283 22.9155C394.018 23.2597 393.72 23.5919 393.395 23.9089C393.092 24.2471 392.718 24.5209 392.376 24.8249C392.019 25.1117 391.63 25.3553 391.265 25.617C390.874 25.8354 390.489 26.0498 390.117 26.2582C389.726 26.4262 389.349 26.5893 388.991 26.7433C388.633 26.8943 388.273 26.9798 387.953 27.0896C387.316 27.318 386.753 27.3905 386.371 27.4821C385.986 27.5626 385.767 27.6089 385.767 27.6089C385.767 27.6089 385.984 27.5495 386.363 27.4458C386.739 27.3321 387.292 27.2264 387.91 26.9607C388.22 26.8329 388.57 26.7282 388.913 26.5571C389.255 26.385 389.616 26.2028 389.989 26.0146C390.34 25.7901 390.701 25.5576 391.07 25.3221C391.409 25.0453 391.77 24.7876 392.097 24.4907C392.409 24.1767 392.752 23.8959 393.021 23.5536C393.314 23.2336 393.577 22.8994 393.809 22.5572C394.063 22.2331 394.242 21.8727 394.446 21.5577C394.612 21.2185 394.793 20.9125 394.912 20.6055C395.184 20.0087 395.335 19.4843 395.437 19.1229C395.534 18.7555 395.556 18.5703 395.56 18.5573L396.411 18.7203Z" fill="#210866"/>
<path d="M399.908 9.35956C397.052 8.33693 394.661 9.47833 393.625 10.4295C391.282 7.95949 386.05 8.39128 383.833 9.01834C377.495 10.813 376.947 16.1496 377.277 22.7181C377.496 27.0844 377.157 27.3119 377.157 27.3119C388.812 29.3602 394.523 22.3266 395.776 18.7987C396.961 20.6316 400.037 24.8721 404.886 24.09C404.886 24.09 404.874 22.2521 404.631 20.1153C404.33 17.4731 403.738 10.7314 399.908 9.35956Z" fill="#210866"/>
<path d="M410.297 118.606C410.306 118.624 410.306 118.643 410.315 118.661C406.897 119.91 400.246 121.399 392.408 121.399C384.443 121.399 377.029 119.244 373.51 117.736C373.731 117.125 375.761 114.119 375.972 107.283C376.294 96.5619 373.629 76.4878 372.242 72.0943C371.277 69.0415 367.851 53.9165 367.851 53.9165L381.761 48.0143C381.807 48.0696 381.844 48.134 381.89 48.1904C387.154 55.1374 397.675 55.1374 402.93 48.1904C402.976 48.1351 403.022 48.0696 403.068 48.0143L416.472 52.5134C416.472 52.5134 411.263 76.0993 409.389 93.2132C407.689 108.727 409.829 117.024 410.252 118.44C410.27 118.513 410.288 118.569 410.297 118.606Z" fill="white"/>
<path d="M430.82 89.0777C428.257 84.964 431.086 78.3421 432.14 76.1781C432.357 75.7332 432.622 75.3185 432.932 74.933C433.118 74.7015 433.308 74.465 433.372 74.3835C433.038 74.0734 432.195 74.0734 431.557 74.1439C428.721 69.7846 420.15 56.5438 417.476 53.1186C417.237 52.8117 416.471 52.5127 416.471 52.5127L404.068 48.3497C404.068 48.3497 396.051 72.8465 396.051 90.4949C396.051 106.005 400.826 122.045 403.036 124.954C408.452 132.083 416.967 134.397 416.967 134.397C416.967 134.397 414.033 117.736 411.534 107.759C410.611 99.5254 410.744 88.0581 412.039 76.3311C416.143 79.5046 422.355 84.2937 425.383 86.5583C426.345 87.278 427.168 87.8346 427.87 88.2644C428.705 88.7757 429.928 90.1174 430.443 90.3328C431.578 90.8069 432.499 90.0812 432.499 90.0812C431.864 90.1466 431.168 89.6353 430.82 89.0777Z" fill="#86BCE3"/>
<path d="M412.041 76.3325C412.041 76.3325 412.785 71.3573 413.451 68.9255C413.451 68.9255 413.703 76.3366 414.035 77.8735L412.041 76.3325Z" fill="#AF2536"/>
<path d="M358.339 78.9357C358.339 78.9357 354.976 89.8323 355.036 94.9273C355.113 101.496 358.423 101.904 360.761 101.931C363.531 101.963 367.852 96.9404 367.852 96.9404L371.684 86.8097L358.339 78.9357Z" fill="#86BCE3"/>
<path d="M386.71 72.4063C385 58.5938 380.121 48.7087 380.121 48.7087L367.85 53.9155C367.85 53.9155 363.601 61.3758 358.337 78.9356C358.337 78.9356 356.629 85.6069 356.173 90.8589C355.213 91.8996 354.024 93.5161 353.907 95.3681C353.511 101.638 359.737 101.881 359.737 101.881C359.737 101.881 357.406 101.218 357.687 97.8361C357.572 96.6464 357.673 95.5463 358.217 94.4663C361.786 87.3884 370.078 86.8459 371.681 86.8107C372.426 85.0009 373.187 83.164 373.906 81.4368L374.133 82.4675C374.133 82.4675 376.734 101.671 374.545 108.304C369.629 123.194 367.326 134.826 367.326 134.826C367.326 134.826 378.211 131.101 381.947 124.943C388.224 114.604 390.652 104.271 386.71 72.4063Z" fill="#86BCE3"/>
<path d="M373.909 81.4357C373.909 81.4357 372.506 74.1676 371.923 71.2316C371.923 71.2316 372.997 81.9148 372.793 84.1221L373.909 81.4357Z" fill="#86BCE3"/>
<path d="M378.545 51.0598C378.211 53.1171 377.84 55.1684 377.48 57.2207C377.127 59.275 376.738 61.3213 376.354 63.3696L376.225 63.0455L382.035 66.9488L382.433 67.2165L382.11 67.5849L378.409 71.8093L378.474 71.298C379.248 72.8772 379.951 74.4615 380.605 76.0779C380.945 76.8791 381.245 77.6964 381.561 78.5077C381.882 79.3169 382.139 80.1503 382.431 80.9696C382.725 81.7889 382.961 82.6284 383.229 83.4568C383.501 84.2841 383.724 85.1266 383.959 85.964C384.199 86.8014 384.427 87.6409 384.62 88.4914C384.816 89.3399 385.048 90.1803 385.213 91.0359L385.716 93.6005C385.865 94.4591 385.968 95.3257 386.096 96.1873C386.234 97.0478 386.323 97.9145 386.39 98.7841C386.456 99.6527 386.571 100.517 386.597 101.388L386.669 104C386.704 104.87 386.608 105.74 386.584 106.609C386.546 107.477 386.517 108.346 386.383 109.208L386.042 111.788L386.203 109.193C386.29 108.332 386.272 107.465 386.263 106.601C386.24 105.736 386.289 104.873 386.208 104.011L386.036 101.427C385.982 100.567 385.84 99.7121 385.746 98.8556C385.651 97.998 385.535 97.1445 385.37 96.297C385.215 95.4485 385.086 94.5959 384.91 93.7525L384.368 91.2241C384.197 90.3796 383.957 89.5503 383.754 88.7128C383.554 87.8744 383.318 87.045 383.071 86.2187C382.829 85.3913 382.599 84.5609 382.321 83.7446C382.047 82.9273 381.804 82.1 381.504 81.2917C380.927 79.6682 380.344 78.0457 379.707 76.4443C379.079 74.8419 378.393 73.2516 377.661 71.7127L377.525 71.4268L377.728 71.2003L381.474 67.0172L381.55 67.6533L375.865 63.5679L375.691 63.4431L375.735 63.2438C376.185 61.2096 376.629 59.1744 377.109 57.1463C377.585 55.1151 378.048 53.0839 378.545 51.0598Z" fill="#86BCE3"/>
<path d="M407.135 51.0598C407.633 53.0839 408.096 55.1151 408.567 57.1452C409.047 59.1734 409.491 61.2086 409.941 63.2428L409.985 63.442L409.812 63.5669L404.127 67.6523L404.203 67.0162L407.95 71.1993L408.153 71.4258L408.017 71.7116C407.284 73.2506 406.598 74.8409 405.97 76.4433C405.334 78.0447 404.75 79.6662 404.173 81.2907C403.873 82.099 403.63 82.9263 403.356 83.7436C403.078 84.5599 402.848 85.3903 402.607 86.2177C402.36 87.044 402.125 87.8734 401.924 88.7118C401.721 89.5492 401.482 90.3786 401.309 91.2231L400.767 93.7515C400.591 94.5949 400.462 95.4475 400.307 96.296C400.142 97.1435 400.026 97.998 399.931 98.8545C399.837 99.7111 399.695 100.566 399.642 101.426L399.47 104.01C399.389 104.872 399.437 105.735 399.415 106.6C399.406 107.464 399.388 108.331 399.475 109.192L399.637 111.787L399.296 109.207C399.162 108.346 399.133 107.477 399.095 106.608C399.071 105.739 398.976 104.869 399.01 103.999L399.082 101.387C399.108 100.515 399.223 99.6517 399.289 98.7831C399.356 97.9134 399.445 97.0468 399.583 96.1863C399.71 95.3247 399.813 94.4581 399.962 93.5995L400.465 91.0349C400.63 90.1793 400.863 89.3389 401.058 88.4904C401.251 87.6409 401.48 86.8004 401.72 85.963C401.956 85.1246 402.179 84.2821 402.45 83.4557C402.717 82.6274 402.954 81.789 403.247 80.9686C403.539 80.1493 403.796 79.3159 404.117 78.5067C404.434 77.6954 404.734 76.8781 405.074 76.0769C405.727 74.4605 406.43 72.8762 407.204 71.297L407.27 71.8083L403.568 67.5839L403.245 67.2155L403.643 66.9478L409.453 63.0445L409.324 63.3686C408.941 61.3203 408.552 59.274 408.199 57.2197C407.841 55.1674 407.47 53.1171 407.135 51.0598Z" fill="#86BCE3"/>
<path d="M378.081 270.943C378.081 270.943 378.464 273.064 376.55 274.682C375.088 275.918 370.423 281.159 368.399 284.113C367.834 284.938 366.712 285.14 365.894 284.567C365.894 284.567 364.261 285.687 362.193 287.036C361.176 287.7 360.434 288.69 360.493 289.059C360.575 289.569 361.009 289.818 361.308 289.817C363.255 289.813 365.772 289.82 365.772 289.82C367.669 289.82 369.643 289.906 370.666 288.299L372.605 285.281C374.24 282.709 375.739 280.792 378.438 279.398C378.446 279.394 378.454 279.39 378.462 279.385C380.307 278.382 381.907 275.547 378.081 270.943Z" fill="#86BCE3"/>
<path d="M417.416 107.28H387.378C386.601 107.28 385.986 106.619 386.038 105.839L388.969 61.3947C389.016 60.6841 389.602 60.1326 390.309 60.1326H424.376C425.201 60.1326 425.832 60.8744 425.703 61.6957L418.742 106.14C418.638 106.796 418.076 107.28 417.416 107.28Z" fill="#218AFF"/>
<path d="M402.544 62.8131C402.391 63.3868 401.846 63.8508 401.325 63.8508C400.804 63.8508 400.506 63.3858 400.659 62.8131C400.812 62.2394 401.357 61.7754 401.878 61.7754C402.399 61.7754 402.697 62.2394 402.544 62.8131Z" fill="#5AB8FF"/>
<path d="M401.602 62.8127H414.389" stroke="#5AB8FF" stroke-width="0.5" stroke-miterlimit="10"/>
<path d="M415.331 62.8131C415.178 63.3868 414.633 63.8508 414.112 63.8508C413.591 63.8508 413.293 63.3858 413.446 62.8131C413.599 62.2394 414.144 61.7754 414.665 61.7754C415.185 61.7754 415.484 62.2394 415.331 62.8131Z" fill="#5AB8FF"/>
<path d="M396.907 83.7646C397.277 84.0565 396.247 84.7711 395.547 85.2039C395.527 85.2241 395.487 85.2341 395.467 85.2442C395.487 85.2643 395.517 85.2744 395.537 85.2844C395.907 85.5763 394.887 86.2809 394.178 86.7238C393.468 87.1667 391.359 87.9618 391.359 87.9618L388.759 88.616V88.606C388.22 88.767 387.51 88.9985 386.85 89.23C386.19 89.4514 385.59 89.6829 385.281 89.8239C379.223 93.4574 361.759 103.362 358.34 98.9228C358.08 98.5907 357.86 98.2183 357.69 97.8056C357.57 96.628 357.68 95.5308 358.22 94.4639C361.789 87.3881 370.076 86.8446 371.685 86.8144C371.685 86.8144 377.083 86.3916 382.252 85.3146C382.911 85.1737 384.151 84.7913 385.081 84.4893C385.081 84.4792 385.091 84.4591 385.091 84.4591C385.091 84.4591 386.08 82.0736 386.31 81.6509C386.54 81.2282 387.72 80.3625 387.72 80.3625L387.59 82.2447C387.59 82.2447 389.709 82.0938 390.749 81.973C391.778 81.8421 394.417 80.8054 395.167 80.8054C395.917 80.8054 396.027 81.3389 395.167 81.9025C394.667 82.2347 391.209 83.825 391.209 83.825C391.379 83.7847 394.018 82.7581 394.957 82.2951C395.897 81.8321 396.667 81.4496 397.167 81.7616C397.566 82.0032 396.637 82.8285 395.987 83.3519C395.817 83.4828 395.557 83.6438 395.277 83.825C395.967 83.5935 396.537 83.4828 396.907 83.7646Z" fill="#E6E9FF"/>
<path d="M354.727 92.8098C354.727 92.8098 355.015 92.0811 355.781 91.1973C356.169 90.7665 356.647 90.2794 357.222 89.8315C357.795 89.3826 358.45 88.9649 359.134 88.6035C359.483 88.4374 359.822 88.2472 360.178 88.1123C360.531 87.9714 360.871 87.8174 361.218 87.7137C361.901 87.4762 362.557 87.3212 363.119 87.2004C363.675 87.0535 364.16 87.0374 364.488 86.978C364.82 86.9397 365.01 86.9176 365.01 86.9176C365.01 86.9176 364.827 86.975 364.508 87.0746C364.189 87.1743 363.729 87.287 363.192 87.4752C362.922 87.5638 362.631 87.6594 362.322 87.7611C362.02 87.8788 361.701 88.0026 361.371 88.1304C361.036 88.2432 360.716 88.4213 360.373 88.5582C360.028 88.6941 359.704 88.8853 359.367 89.0504C358.029 89.7328 356.81 90.6206 355.984 91.3946C355.581 91.7902 355.247 92.1284 355.043 92.3921C354.834 92.6497 354.727 92.8098 354.727 92.8098Z" fill="#86BCE3"/>
<path d="M431.32 74.6088C431.32 74.6088 430.86 75.0919 430.336 75.9223C430.058 76.3259 429.798 76.8392 429.51 77.3767C429.245 77.9273 428.96 78.5151 428.724 79.125C428.47 79.7269 428.254 80.3459 428.055 80.9277C427.858 81.5105 427.676 82.057 427.543 82.5341C427.404 83.0112 427.288 83.4078 427.207 83.6856C427.121 83.9644 427.071 84.1234 427.071 84.1234C427.071 84.1234 427.086 83.9574 427.111 83.6675C427.154 83.3806 427.164 82.9579 427.268 82.4697C427.359 81.9785 427.461 81.4008 427.633 80.7979C427.795 80.1919 428.009 79.5558 428.261 78.9338C428.513 78.3128 428.814 77.7099 429.126 77.1643C429.451 76.6248 429.789 76.1437 430.11 75.7562C430.75 74.9721 431.32 74.6088 431.32 74.6088Z" fill="#86BCE3"/>
<path d="M230.285 163.685L202.328 289.803H197.718L221.598 163.685H230.285Z" fill="#3945BA"/>
<path d="M437.505 163.685L465.462 289.803H470.072L446.192 163.685H437.505Z" fill="#3945BA"/>
<path d="M446.192 173.996H219.843V178.553H446.192V173.996Z" fill="#3945BA"/>
<path d="M476.48 163.685H198.577C196.88 163.685 195.504 162.3 195.504 160.591C195.504 158.883 196.88 157.498 198.577 157.498H476.48C478.177 157.498 479.553 158.883 479.553 160.591C479.552 162.3 478.176 163.685 476.48 163.685Z" fill="#F5F7FF"/>
<path d="M131.239 289.901H135.814L145.336 209.002H136.545L131.239 289.901Z" fill="#8E9AEE"/>
<path d="M196.221 289.901H191.646L182.125 209.002H190.914L196.221 289.901Z" fill="#8E9AEE"/>
<path d="M119.436 105.39H95.265C89.524 105.39 85.1385 110.551 86.0262 116.262L100.825 211.481H128.777L119.436 105.39Z" fill="#C4C9FC"/>
<path d="M95.5264 289.901H100.102L109.624 209.002H100.834L95.5264 289.901Z" fill="#C4C9FC"/>
<path d="M160.509 289.901H155.934L146.413 209.002H155.202L160.509 289.901Z" fill="#C4C9FC"/>
<path d="M105.15 215.833H189.261C191.65 215.833 193.585 213.885 193.585 211.48C193.585 209.075 191.649 207.127 189.261 207.127H105.15C102.762 207.127 100.825 209.075 100.825 211.48C100.825 213.885 102.762 215.833 105.15 215.833Z" fill="#C4C9FC"/>
<path d="M183.547 289.765H156.391C156.391 289.765 154.874 284.896 158.162 278.864C158.162 278.864 160.348 280.628 166.895 279.436C166.895 279.436 169.628 281.771 171.515 282.685C173.412 283.609 184.28 285.757 183.547 289.765Z" fill="white"/>
<path d="M181.653 212.668C179.899 223.205 171.807 258.854 168.327 279.916C161.968 280.461 158.915 279.726 157.295 279.351C157.612 272.007 158.24 254.44 158.166 246.737C158.045 233.717 157.438 216.548 163.13 207.126L182.271 208.643C182.155 209.66 182.049 210.488 181.955 211.079C181.864 211.647 181.758 212.172 181.653 212.668Z" fill="#0D1D30"/>
<path d="M232.665 289.765H205.509C205.509 289.765 203.992 284.896 207.281 278.864C207.281 278.864 209.466 280.628 216.014 279.436C216.014 279.436 218.746 281.771 220.633 282.685C222.529 283.609 233.397 285.757 232.665 289.765Z" fill="white"/>
<path d="M216.801 279.3C211.612 280.593 207.854 280.466 206.074 280.265C204.63 271.8 202.349 253.175 200.296 244.444C197.111 230.873 193.993 212.211 196.16 205.552L214.987 200.791C215.05 201.39 216.583 258.508 216.801 279.3Z" fill="#0D1D30"/>
<path d="M141.868 181.358C142.246 177.612 142.681 174.875 142.681 174.875L163.717 180.059L181.585 184.158C188.21 185.644 196.212 187.433 203.267 189.038C211.183 190.849 216.44 196.904 214.705 204.884L212.721 214.566C201.649 214.414 149.59 209.39 145.138 207.125C140.106 204.568 138.592 195.524 141.868 181.358Z" fill="#0D1D30"/>
<path d="M110.467 181.358C110.845 177.612 112.659 173.592 112.659 173.592L132.315 180.059L150.184 184.158C156.808 185.644 164.811 187.434 171.865 189.038C179.781 190.849 185.037 196.904 183.303 204.885L181.319 214.566C170.247 214.414 123.967 212.79 113.736 207.125C108.797 204.392 107.191 195.524 110.467 181.358Z" fill="#0D1D30"/>
<path d="M169.343 151.004C169.343 151.004 160 146.755 157.429 151.017C156.022 153.351 156.995 157.685 160.182 159.503C163.368 161.322 181.375 168.991 198.37 173.267C198.37 173.267 199.097 170.886 200.267 168.385C200.267 168.385 192.642 165.2 185.063 159.841C177.482 154.481 169.343 151.004 169.343 151.004Z" fill="#E5918F"/>
<path d="M164.592 123.14L172.599 155.342C172.599 155.342 171.771 163.483 163.606 159.487C155.44 155.491 150.029 129.837 150.029 129.837L164.592 123.14Z" fill="#E6E9FF"/>
<path d="M168.418 133.698C168.418 133.698 166.603 135.349 159.045 137.976C158.175 138.278 157.266 138.58 156.306 138.862C155.396 139.134 154.457 139.395 153.457 139.637L155.176 120.905L155.266 119.909L156.216 103.09C156.446 103.251 156.656 103.402 156.886 103.563C159.095 105.153 161.074 107.086 162.454 109.401C162.534 109.512 166.14 122.649 168.418 133.698Z" fill="#1F2551"/>
<path d="M159.045 137.976C158.175 138.278 157.266 138.58 156.306 138.862C155.396 139.134 154.457 139.396 153.457 139.637L155.176 120.906L155.976 119.718C155.976 119.718 158.015 130.286 159.045 137.976Z" fill="#1F2551"/>
<path d="M157.862 68.4675C157.862 68.4675 157.322 71.3794 156.769 73.9098L154.384 75.4226C154.284 72.6043 154.843 68.8299 154.843 68.8299L157.862 68.4675Z" fill="#182B51"/>
<path d="M158.265 179.737C156.955 181.498 146.499 182.605 139.541 182.605C131.714 182.605 116.139 182.273 112.13 179.938C111.761 179.737 110.821 178.962 110.821 178.227C110.821 177.18 111.011 175.851 111.78 173.295C112.86 169.722 112.63 162.243 111.82 153.637C111.491 150.185 111.081 146.541 110.621 142.908C108.811 128.515 106.332 114.051 106.192 110.568C107.392 108.465 108.742 106.744 110.051 105.344C113.98 101.117 117.758 99.6878 118.328 99.5066C118.358 99.4966 118.388 99.4865 118.388 99.4865C124.206 97.8962 130.744 96.9098 134.773 96.789C137.152 96.7085 139.341 96.7488 141.341 96.8796C141.341 96.8796 141.351 96.8796 141.391 96.8897C142.05 97.0306 149.868 98.7618 156.216 103.09C156.445 103.251 156.655 103.402 156.885 103.563C157.635 108.596 156.575 122.556 156.306 138.862C156.306 139.133 156.295 139.395 156.295 139.667C156.136 150.235 155.226 157.875 157.795 172.51C158.365 175.771 159.474 178.106 158.265 179.737Z" fill="#1F2551"/>
<path d="M119.078 126.884C119.078 126.884 114.07 151.876 114.07 155.902L111.821 153.638C111.491 150.185 111.081 146.542 110.621 142.908L119.078 126.884Z" fill="#1F2551"/>
<path d="M142.272 107.018C130.955 108.377 128.387 98.0462 130.257 97.1604C131.496 96.9692 131.835 96.326 132.005 95.6819C133.645 89.2804 131.255 82.2277 131.255 82.2277L138.923 88.297L143.171 92.3332L144.011 93.1283C144.011 93.1283 143.921 95.6849 143.991 96.8323C144.011 97.1343 144.041 97.3456 144.091 97.3758C144.341 97.557 145.777 98.1166 145.777 98.1166C145.777 98.1166 149.539 106.142 142.272 107.018Z" fill="#E6E9FF"/>
<path d="M143.991 96.8329C138.203 95.313 136.643 88.5291 136.643 88.5291L143.171 92.3337L144.011 93.1289C144.011 93.1289 143.921 95.6854 143.991 96.8329Z" fill="#C2CBF9"/>
<path d="M156.461 71.7965C156.461 71.7965 154.868 93.9712 148.921 95.8554C148.921 95.8554 141.345 96.5741 135.905 89.2063C134.337 87.0836 132.357 86.6065 131.71 84.0429C130.66 79.8799 129.177 72.2001 131.068 67.5721C133.761 60.9804 157.862 55.5261 156.461 71.7965Z" fill="#E6E9FF"/>
<path d="M130.568 55.6728C135.448 53.4424 138.747 55.4433 138.747 55.4433C138.747 55.4433 141.364 49.8783 147.722 51.1858C154.078 52.4942 153.118 58.009 153.118 58.009C153.118 58.009 159.736 55.7644 161.858 61.8801C163.978 67.9957 158.365 70.207 155.037 70.3489C153.437 70.4174 146.441 70.0792 141.666 70.1627C140.713 70.1788 139.922 70.9015 139.805 71.8537C139.678 72.8864 139.529 73.8144 139.383 74.0509C139.017 74.6468 137.109 75.9764 137.058 76.9668C137.058 76.9699 137.057 76.9688 137.057 76.9688C137.115 78.2371 137.095 79.2436 136.801 79.4278C135.968 79.9522 132.541 79.8586 130.81 79.6885C129.573 79.5667 128.566 74.1214 128.013 70.3137C127.71 68.2554 124.733 58.3401 130.568 55.6728Z" fill="#182B51"/>
<path d="M134.061 83.7943C130.196 86.1737 127.003 76.1075 130.869 74.9147C133.8 74.0099 134.695 78.195 134.695 78.195C134.695 78.195 136.267 82.4365 134.061 83.7943Z" fill="#E6E9FF"/>
<path d="M133.613 79.4722L133.62 79.4682C133.62 79.4682 133.614 79.4601 133.613 79.4581C133.603 79.1602 133.566 78.8532 133.486 78.5472C133.376 78.1577 133.2 77.7803 132.971 77.4713C132.749 77.1572 132.469 76.9237 132.218 76.7617C131.695 76.4466 131.291 76.4436 131.291 76.4436C131.291 76.4436 131.612 76.6721 131.943 77.0858C132.272 77.4924 132.6 78.0701 132.766 78.7244C132.652 78.661 132.538 78.5935 132.412 78.5513C132.057 78.4264 131.691 78.4073 131.429 78.4365C131.165 78.4607 131.002 78.5211 131.002 78.5211C131.002 78.5211 131.176 78.507 131.425 78.5533C131.674 78.5935 131.991 78.7043 132.249 78.8864C132.511 79.0636 132.703 79.3072 132.814 79.5044C132.929 79.6997 132.98 79.8426 132.98 79.8426L132.983 79.8406C133.022 80.1345 133.041 80.4163 133.066 80.665C133.088 80.9448 133.106 81.1783 133.118 81.3424C133.132 81.5094 133.15 81.6081 133.15 81.6081C133.15 81.6081 133.196 81.5225 133.26 81.3665C133.31 81.2085 133.432 80.987 133.489 80.7032C133.558 80.4204 133.622 80.0832 133.622 79.7118C133.626 79.6333 133.615 79.5517 133.613 79.4722Z" fill="#C2CBF9"/>
<path d="M94.1379 155.248C94.1379 155.248 94.1379 155.248 94.1389 155.259C95.9983 157.431 103.053 159.014 106.448 156.01C107.514 155.053 108.718 152.532 109.901 149.403C112.911 141.403 115.76 129.437 115.76 129.437L99.9719 121.314C99.9719 121.314 97.9406 130.484 96.1912 139.197C96.1912 139.197 96.1762 139.285 96.1432 139.44C95.5734 142.231 95.0436 144.977 94.6267 147.332C94.6097 147.398 94.6027 147.454 94.5967 147.519C94.1799 150.331 93.912 153.264 94.1379 155.248Z" fill="#E6E9FF"/>
<path d="M121.722 118.301C120.197 124.685 115.405 136.781 115.405 136.781C112.048 137.342 107.785 136.047 104.135 134.49C99.7679 132.599 97.0269 130.842 97.0269 130.842C97.0269 130.842 99.615 121.551 102.467 115.09C105.027 109.289 106.68 107.226 107.672 105.975C111.242 101.477 116.652 99.9737 118.391 99.4866L121.722 118.301Z" fill="#1F2551"/>
<path d="M94.1379 155.248C94.1379 155.248 94.1379 155.248 94.1389 155.259C94.2749 156.423 94.5928 157.26 95.1646 157.556C95.2555 157.615 96.5521 158.392 96.6421 158.45C98.5724 159.638 102.073 161.66 106.428 163.545C116.988 168.139 132.33 173.467 140.6 175.909C140.6 175.909 141.417 173.556 142.691 171.105C142.691 171.105 135.209 167.608 127.856 161.936C120.492 156.276 109.9 149.402 109.9 149.402L107.226 146.233C107.226 146.233 97.7167 137.422 96.1902 139.195C96.1902 139.195 96.1752 139.282 96.1422 139.437C95.9153 140.356 95.1606 143.736 94.6258 147.329C94.6088 147.396 94.6018 147.451 94.5958 147.517C94.1799 150.331 93.912 153.264 94.1379 155.248Z" fill="#E6E9FF"/>
<path d="M122.781 184.925H140.68L134.37 188.975L122.781 184.925Z" fill="#218AFF"/>
<path d="M122.28 187.236L134.977 190.024L135.478 187.712L122.781 184.924C122.146 184.785 121.521 185.189 121.383 185.828C121.245 186.467 121.647 187.097 122.28 187.236Z" fill="#76BEFF"/>
<path d="M135.188 190.057H195.322C196.041 190.057 196.673 189.573 196.866 188.875L209.174 144.265C209.446 143.277 208.709 142.3 207.691 142.3H149.541C148.185 142.3 146.997 143.21 146.634 144.524L134.371 188.974C134.22 189.518 134.626 190.057 135.188 190.057Z" fill="#76BEFF"/>
<path d="M137.363 190.057H197.497C198.216 190.057 198.848 189.573 199.041 188.875L211.349 144.265C211.621 143.277 210.884 142.3 209.866 142.3H151.716C150.36 142.3 149.172 143.21 148.809 144.524L136.546 188.974C136.396 189.518 136.802 190.057 137.363 190.057Z" fill="#218AFF"/>
<path d="M446.358 157.498L435.864 130.409C435.335 129.043 434.028 128.143 432.571 128.143H387.709C386.539 128.143 385.735 129.328 386.16 130.426L396.646 157.498H446.358Z" fill="#218AFF"/>
<path d="M444.774 156.114H399.109L389.692 131.796C389.302 130.79 390.032 129.703 391.112 129.703H432.318C433.657 129.703 434.857 130.528 435.347 131.786L444.774 156.114Z" fill="#43A6FF"/>
<path d="M413.266 140.41H395.966L392.507 131.582H409.807L413.266 140.41Z" fill="#5AB8FF"/>
<path d="M437.133 142.138H416.449L412.313 131.582H432.998L437.133 142.138Z" fill="#5AB8FF"/>
<path d="M438.544 145.723H417.861L417.021 143.58H437.704L438.544 145.723Z" fill="#5AB8FF"/>
<path d="M439.897 149.408H419.214L418.375 147.264H439.058L439.897 149.408Z" fill="#5AB8FF"/>
<path d="M417.179 150.711H399.879L396.421 141.883H413.722L417.179 150.711Z" fill="#5AB8FF"/>
<path d="M505.094 102.117C503.865 101.936 503.495 100.96 503.325 100.316C501.705 93.9644 503.725 83.8992 503.725 83.8992L496.117 89.9282C496.117 89.9282 490.335 94.0439 490.225 94.4566L489.949 101.231L489.939 101.221C489.387 112.702 506.624 102.842 505.094 102.117Z" fill="#E6E9FF"/>
<path d="M481.016 73.6144C480.945 77.2882 480.962 87.1582 482.954 92.8279C483.883 95.4741 486.501 97.1208 489.275 96.8369C491.985 96.5601 495.845 95.4278 499.329 91.6976C501.113 89.7872 503.119 89.5447 504.047 87.0948C505.555 83.114 507.887 75.7201 506.55 70.9431C504.724 64.4239 484.888 57.0461 481.414 70.3322C481.134 71.4011 481.037 72.5073 481.016 73.6144Z" fill="#E6E9FF"/>
<path d="M501.195 61.9817C494.677 58.4317 483.743 62.4044 475.246 66.4305C475.79 71.9654 481.156 74.4414 484.928 73.6312C485.494 76.3085 484.97 79.8777 486.909 81.9763C488.014 83.172 490.141 83.4508 492.349 83.3401C492.557 83.8816 493.623 91.0279 494.678 94.0586H503.757C503.899 93.5784 509.853 83.1811 510.771 75.5738C511.609 68.6318 509.748 61.9817 501.195 61.9817Z" fill="#192C51"/>
<path d="M489.199 87.6965C492.462 89.7901 494.504 79.6162 491.304 78.6962C488.878 77.9987 488.379 82.1999 488.379 82.1999C488.379 82.1999 487.336 86.5008 489.199 87.6965Z" fill="#E6E9FF"/>
<path d="M491.016 82.2269C490.784 82.2228 490.465 82.2933 490.177 82.4573C490.114 82.4936 490.064 82.5439 490.006 82.5872C490.101 81.9571 490.295 81.3663 490.533 80.9435C490.77 80.4926 491.045 80.236 491.045 80.236C491.045 80.236 490.661 80.3054 490.235 80.706C489.806 81.0965 489.436 81.8212 489.333 82.5781C489.292 82.858 489.287 83.1337 489.296 83.4015C489.294 83.4045 489.283 83.4236 489.283 83.4236L489.297 83.4286C489.314 83.8725 489.382 84.2882 489.478 84.6143C489.545 84.8821 489.659 85.0914 489.71 85.2414C489.773 85.3894 489.818 85.4709 489.818 85.4709C489.818 85.4709 489.831 85.3763 489.837 85.2162C489.842 85.0592 489.848 84.8337 489.856 84.564C489.871 84.2973 489.865 83.9923 489.89 83.6702L489.898 83.6732C489.898 83.6732 489.927 83.5414 489.997 83.3522C490.062 83.1599 490.189 82.9214 490.377 82.7231C490.565 82.5288 490.819 82.3849 491.029 82.3285C491.239 82.2661 491.391 82.2711 491.391 82.2711C491.391 82.2711 491.248 82.2248 491.016 82.2269Z" fill="#C2CBF9"/>
<path d="M421.076 149.071C421.076 149.071 419.077 148.987 417.328 148.693C415.578 148.399 413.996 147.435 411.08 147.267C408.164 147.099 399.959 153.935 399.376 154.858C398.793 155.781 400.001 156.242 400.875 156.074C401.75 155.906 405.416 154.438 405.416 154.438C405.416 154.438 404.958 154.858 408.79 155.822C412.621 156.787 415.162 155.068 416.37 155.11C417.578 155.152 420.327 155.53 420.327 155.53L421.076 149.071Z" fill="#E6E9FF"/>
<path d="M448.099 289.996H475.029C475.029 289.996 476.534 285.168 473.272 279.186C473.272 279.186 471.105 280.937 464.612 279.753C464.612 279.753 461.902 282.069 460.032 282.975C458.151 283.891 447.373 286.023 448.099 289.996Z" fill="#18004D"/>
<path d="M399.39 289.996H426.319C426.319 289.996 427.824 285.168 424.563 279.186C424.563 279.186 422.396 280.937 415.903 279.753C415.903 279.753 413.193 282.069 411.322 282.975C409.441 283.891 398.664 286.023 399.39 289.996Z" fill="#18004D"/>
<path d="M520.104 179.852C519.729 176.137 518.398 174.79 518.398 174.79L498.905 181.204L481.185 185.269C474.616 186.743 466.68 188.517 459.684 190.108C451.834 191.904 446.621 197.909 448.341 205.823L450.308 215.424H450.309C452.559 227.718 459.925 260.453 463.193 280.229C469.499 280.77 472.527 280.041 474.132 279.669C473.818 272.387 474.059 255.366 474.132 247.727C474.226 237.555 474.475 222.81 472.046 213.193C488.397 212.56 507.137 211.162 515.656 206.525C525.735 201.04 520.104 179.852 520.104 179.852Z" fill="#2D3A70"/>
<path d="M502.689 182.492C502.314 178.777 501.596 176.893 501.596 176.893C501.596 176.893 480.828 178.319 470.999 180.303C456.181 183.294 436.097 187.554 428.545 190.107C422.303 192.218 417.539 196.096 416.949 201.768L416.921 201.762C416.859 202.357 415.339 259 415.123 279.619C420.268 280.901 423.996 280.776 425.76 280.576C427.193 272.181 431.508 253.87 433.357 245.169C435.548 234.863 438.324 222.572 438.857 214.084C457.953 212.41 491.416 208.591 494.802 208.413C506.797 207.784 502.689 182.492 502.689 182.492Z" fill="#24315D"/>
<path d="M519.853 151.725C519.434 158.68 516.055 163.894 519.264 174.493C520.023 177.029 520.213 178.338 520.213 179.384C520.213 180.119 519.294 180.874 518.914 181.085C514.945 183.39 499.5 183.733 491.733 183.733C485.665 183.733 476.928 182.877 474.019 181.478C473.619 181.287 473.329 181.085 473.169 180.874C471.969 179.264 473.069 176.939 473.639 173.718C476.178 159.194 475.278 151.625 475.118 141.137C475.118 140.875 475.108 140.613 475.108 140.341V140.14C475.098 140.14 475.098 140.14 475.098 140.14C474.279 140.019 473.499 139.868 472.819 139.727C471.7 139.476 470.84 139.224 470.47 139.103C462.093 136.456 460.843 133.749 460.843 133.749C463.212 123.371 466.071 116.406 468.621 111.806C468.681 111.696 468.741 111.585 468.811 111.464C468.871 111.354 468.941 111.233 469.011 111.122C470.38 108.837 472.349 106.915 474.539 105.335C474.759 105.173 474.969 105.022 475.198 104.861C475.198 104.861 475.238 104.831 475.328 104.771C475.458 104.69 475.588 104.6 475.718 104.519C475.778 104.489 475.838 104.449 475.908 104.409C477.618 103.402 482.446 101.047 491.053 100.211C501.54 99.1947 511.716 101.107 512.706 101.298C512.706 101.298 512.746 101.308 512.776 101.319C512.786 101.319 512.786 101.319 512.786 101.319C513.366 101.51 517.104 102.929 520.973 107.106C522.283 108.485 523.612 110.196 524.812 112.29C525.955 115.876 526.304 123.236 522.353 140.613C522.013 142.11 519.944 150.276 519.853 151.725Z" fill="white"/>
<path d="M477.307 156.326C476.727 163.176 473.229 180.301 474.018 181.479C473.618 181.287 473.328 181.086 473.169 180.875C471.969 179.264 473.069 176.939 473.638 173.718C476.178 159.194 475.278 151.625 475.118 141.137C475.118 140.875 475.108 140.614 475.108 140.342V140.141C475.238 140.161 476.507 140.312 478.557 140.553C478.557 140.553 477.766 150.915 477.307 156.326Z" fill="#E3E6ED"/>
<path d="M461.835 129.705C461.835 129.705 457.045 146.8 456.315 148.651C449.817 148.525 420.202 148.651 420.202 148.651L418.952 156.2C418.952 156.2 458.917 164.203 465.644 164.209C470.56 164.213 478.557 140.553 478.557 140.553L469.31 133.749L461.835 129.705Z" fill="white"/>
<path d="M498.606 289.901H494.032L484.51 209.003H493.299L498.606 289.901Z" fill="#8E9AEE"/>
<path d="M433.624 289.901H438.199L447.72 209.003H438.93L433.624 289.901Z" fill="#8E9AEE"/>
<path d="M534.732 105.39H510.561H488.274C483.697 105.39 479.987 109.126 479.987 113.733V211.481H501.22H529.172L543.971 116.262C544.858 110.55 540.473 105.39 534.732 105.39Z" fill="#C4C9FC"/>
<path d="M534.318 289.901H529.744L520.222 209.003H529.012L534.318 289.901Z" fill="#C4C9FC"/>
<path d="M469.336 289.901H473.911L483.433 209.003H474.643L469.336 289.901Z" fill="#C4C9FC"/>
<path d="M524.696 215.834H440.584C438.197 215.834 436.261 213.885 436.261 211.48C436.261 209.076 438.197 207.127 440.584 207.127H524.696C527.084 207.127 529.019 209.076 529.019 211.48C529.019 213.885 527.084 215.834 524.696 215.834Z" fill="#C4C9FC"/>
<path d="M1 289.804H651" stroke="white" stroke-width="1.1144" stroke-miterlimit="10" stroke-linecap="round"/>
</svg>
