<svg width="423" height="367" viewBox="0 0 423 367" fill="none" xmlns="http://www.w3.org/2000/svg">
<g clip-path="url(#clip0_15_6663)">
<path d="M290.762 113.265C290.747 121.545 288.277 129.634 283.665 136.51C279.053 143.386 272.506 148.74 264.851 151.895C257.196 155.05 248.778 155.864 240.66 154.234C232.543 152.605 225.091 148.604 219.247 142.739C213.402 136.875 209.429 129.408 207.828 121.285C206.227 113.162 207.071 104.746 210.253 97.1028C213.435 89.4591 218.812 82.9307 225.704 78.3431C232.597 73.7555 240.695 71.3147 248.974 71.3293C254.475 71.3248 259.923 72.4075 265.005 74.5152C270.087 76.6229 274.702 79.7141 278.585 83.6111C282.468 87.5081 285.543 92.134 287.633 97.2231C289.722 102.312 290.786 107.764 290.762 113.265Z" fill="#F2F2F2"/>
<path d="M360.433 137.668L366.319 126.429C361.041 120.055 343.723 112.324 343.723 112.324L320.285 90.9911C320.036 90.0393 319.54 89.17 318.847 88.4708C318.155 87.7716 317.291 87.2671 316.341 87.0081C315.392 86.7492 314.391 86.7448 313.44 86.9955C312.488 87.2463 311.62 87.7433 310.921 88.4364C310.223 89.1296 309.719 89.9945 309.462 90.9441C309.204 91.8937 309.201 92.8945 309.452 93.8457C309.704 94.7969 310.202 95.6649 310.896 96.3625C311.59 97.06 312.456 97.5624 313.406 97.8192L338.727 128.188L360.433 137.668Z" fill="#9E616A"/>
<path d="M357.582 136.892L365.893 139.538C371.937 141.463 378.449 141.318 384.402 139.126C386.202 138.456 387.779 137.295 388.955 135.776C390.13 134.256 390.857 132.438 391.054 130.527C391.303 127.934 390.558 125.344 388.97 123.28C387.382 121.215 385.069 119.831 382.5 119.407C374.706 118.126 364.663 117.494 361.08 121.758L361.044 121.801L357.582 136.892Z" fill="#3F3D56"/>
<path d="M297.801 171.299C320.921 171.299 339.663 152.557 339.663 129.437C339.663 106.317 320.921 87.5752 297.801 87.5752C274.681 87.5752 255.939 106.317 255.939 129.437C255.939 152.557 274.681 171.299 297.801 171.299Z" fill="white"/>
<path d="M280.716 113.063C280.142 116.15 279.2 119.157 277.91 122.02C270.526 137.641 291.555 132.55 299.071 132.55C307.287 132.55 315.149 136.87 313.949 117.672C313.436 109.471 307.287 102.794 299.071 102.794C292.052 102.794 282.184 105.913 280.716 113.063Z" fill="#2F2E41"/>
<path d="M297.84 132.546C304.517 132.546 309.93 127.133 309.93 120.456C309.93 113.779 304.517 108.366 297.84 108.366C291.162 108.366 285.75 113.779 285.75 120.456C285.75 127.133 291.162 132.546 297.84 132.546Z" fill="#FFB6B6"/>
<path d="M289.629 108.132C291.748 106.84 294.174 106.142 296.655 106.109C299.136 106.076 301.581 106.711 303.732 107.946C305.884 109.181 307.665 110.972 308.888 113.131C310.111 115.29 310.731 117.737 310.684 120.218C304.524 121.765 298.052 122.948 291.482 120.588L289.931 116.791L289.016 120.591C287.015 121.409 285.009 122.1 283.003 120.583C282.921 118.109 283.49 115.657 284.653 113.472C285.816 111.287 287.532 109.446 289.629 108.132Z" fill="#2F2E41"/>
<path d="M330.351 157.273C323.098 165.525 312.892 170.594 301.934 171.386C290.976 172.178 280.147 168.629 271.783 161.505L275.374 151.486C276.185 149.707 277.466 148.182 279.078 147.075C280.69 145.968 282.573 145.32 284.526 145.202L286.81 145.062L292.257 140.364C292.257 140.364 306.933 139.84 306.715 139.589L315.605 144.936L315.597 144.899L319.092 145.113C321.044 145.231 322.928 145.878 324.54 146.985C326.152 148.093 327.433 149.618 328.244 151.398L330.351 157.273Z" fill="#1F2551"/>
<path d="M294.128 329.768L293.088 315.301C286.274 311.894 278.732 310.203 271.116 310.373C281.831 318.655 280.972 335.208 288.393 346.536C290.734 350.051 293.837 352.995 297.47 355.148C301.104 357.302 305.175 358.61 309.383 358.976L318.3 364.106C319.32 357.364 318.867 350.481 316.971 343.932C315.074 337.382 311.781 331.321 307.317 326.167C304.784 323.301 301.9 320.764 298.734 318.618C296.785 324.214 294.128 329.768 294.128 329.768Z" fill="#F2F2F2"/>
<path d="M23.012 73.3351L21.9719 58.8676C15.1581 55.4615 7.61581 53.7701 0 53.9404C10.7144 62.2223 9.85621 78.7749 17.2765 90.103C19.6179 93.6185 22.7204 96.5619 26.354 98.7153C29.9876 100.869 34.0592 102.177 38.2671 102.543L47.1841 107.673C48.2041 100.931 47.7505 94.0482 45.8544 87.4986C43.9583 80.9491 40.6648 74.8884 36.2009 69.7343C33.668 66.8676 30.7842 64.3314 27.6175 62.1853C25.6685 67.7813 23.012 73.3351 23.012 73.3351Z" fill="#F2F2F2"/>
<path d="M333.136 359.214L326.181 359.214L322.872 332.386H333.137L333.136 359.214Z" fill="#9E616A"/>
<path d="M334.91 365.957L312.483 365.956V365.672C312.483 363.357 313.403 361.137 315.04 359.5C316.677 357.863 318.897 356.943 321.212 356.943H321.213L325.309 353.835L332.953 356.943L334.91 356.943L334.91 365.957Z" fill="#2F2E41"/>
<path d="M394.437 359.214L387.482 359.214L384.173 332.386H394.439L394.437 359.214Z" fill="#9E616A"/>
<path d="M396.212 365.957L373.784 365.956V365.672C373.784 363.357 374.704 361.137 376.341 359.5C377.978 357.863 380.198 356.943 382.514 356.943H382.514L386.611 353.835L394.254 356.943L396.212 356.943L396.212 365.957Z" fill="#2F2E41"/>
<path d="M383.859 215.627L389.709 271.204C389.709 271.204 397.497 326.852 396.034 334.53C394.572 342.208 396.4 343.305 396.4 343.305L383.055 342.355C383.055 342.355 383.42 337.601 381.227 335.408C379.033 333.214 380.13 326.632 380.13 326.632L354.242 236.103L338.52 283.635C338.52 283.635 335.961 335.921 335.595 336.652C335.229 337.384 334.132 347.256 334.132 347.256H320.604C320.604 347.256 322.432 341.406 319.873 339.577C317.313 337.749 315.119 339.212 317.313 335.921C319.507 332.63 320.238 328.608 319.507 326.78C318.776 324.952 318.776 317.639 318.776 317.639C318.776 317.639 319.873 218.918 326.088 215.627C332.304 212.336 383.859 215.627 383.859 215.627Z" fill="#2F2E41"/>
<path d="M356.154 103.099C364.1 103.099 370.543 96.6564 370.543 88.7096C370.543 80.7629 364.1 74.3207 356.154 74.3207C348.207 74.3207 341.765 80.7629 341.765 88.7096C341.765 96.6564 348.207 103.099 356.154 103.099Z" fill="#9E616A"/>
<path d="M388.832 221.684C360.966 227.439 324.037 217.545 324.037 217.545L333.888 174.843L330.386 130.155C329.958 124.69 333.071 119.568 337.913 117.752L344.6 115.248L350.126 107.336L365.912 107.854L372.223 116.16L377.203 118.802L388 124.529L388.048 124.552V124.576L384.659 157.441L382.616 177.257C382.616 177.257 388.822 199.545 387.549 202.5C386.275 205.451 387.382 204.026 387.691 205.603C388 207.181 388.946 207.281 389.088 210.389C389.235 213.492 388.832 221.684 388.832 221.684Z" fill="#3F3D56"/>
<path d="M422.518 366.435H207.266C207.138 366.434 207.016 366.383 206.926 366.293C206.836 366.203 206.785 366.08 206.785 365.953C206.785 365.825 206.836 365.703 206.926 365.612C207.016 365.522 207.138 365.471 207.266 365.471H422.518C422.646 365.471 422.768 365.521 422.859 365.612C422.949 365.702 423 365.825 423 365.953C423 366.081 422.949 366.203 422.859 366.294C422.768 366.384 422.646 366.435 422.518 366.435Z" fill="#CCCCCC"/>
<path d="M355.454 102.407C357.977 102.381 360.494 102.14 362.977 101.686C365.434 101.12 370.857 96.9267 372.335 94.4495C373.433 92.609 374.092 89.7622 374.452 87.6983C374.937 84.9668 374.844 82.1638 374.177 79.4707C373.51 76.7777 372.286 74.2547 370.582 72.0651C369.925 71.1478 369.033 70.4251 367.999 69.9733C367.908 69.9403 367.814 69.9113 367.719 69.8869C366.22 69.5337 364.862 68.7407 363.817 67.6097C363.614 67.3808 363.395 67.1667 363.162 66.9692C361.99 66.031 360.613 65.3835 359.143 65.0795C356.768 64.5092 353.371 65.2238 349.046 67.2054C346.874 68.201 344.462 67.9233 342.603 67.5701C342.499 67.5527 342.392 67.563 342.293 67.5998C342.194 67.6366 342.107 67.6987 342.039 67.7799C341.272 68.5384 340.246 68.9785 339.167 69.0115C338.507 69.0575 337.838 69.9902 337.031 71.2047C336.848 71.4804 336.634 71.8022 336.479 71.9985L336.448 71.6298L336.085 72.0514C335.514 72.7141 335.12 73.5104 334.94 74.3662C334.76 75.222 334.799 76.1094 335.055 76.9459C335.31 77.7824 335.773 78.5407 336.4 79.1502C337.027 79.7597 337.798 80.2005 338.642 80.4317C339.311 80.5914 339.995 80.6823 340.682 80.7031C341.099 80.7297 341.53 80.7573 341.944 80.8182C343.274 81.055 344.521 81.6327 345.561 82.4948C346.601 83.3569 347.4 84.4741 347.88 85.7372C347.993 86.0291 348.172 86.291 348.402 86.5029C348.633 86.7147 348.909 86.8707 349.209 86.9588C349.51 87.047 349.827 87.0649 350.135 87.0113C350.443 86.9576 350.735 86.8338 350.988 86.6493C351.409 86.3038 351.907 86.0652 352.44 85.9539C352.973 85.8425 353.525 85.8618 354.049 86.0099C354.505 86.2481 354.865 86.6357 355.069 87.1077C355.315 87.633 355.712 88.0731 356.21 88.3717C357.907 89.1917 358.121 93.0129 357.602 96.2163C357.101 99.3041 356.013 101.557 354.955 101.694C354.14 101.8 354.049 101.86 353.993 102.006L353.944 102.137L354.038 102.255C354.494 102.407 354.976 102.459 355.454 102.407Z" fill="#2F2E41"/>
<path d="M297.801 171.823C289.418 171.823 281.223 169.337 274.253 164.68C267.282 160.023 261.85 153.403 258.642 145.658C255.433 137.913 254.594 129.39 256.229 121.168C257.865 112.946 261.902 105.393 267.83 99.4655C273.758 93.5377 281.31 89.5008 289.532 87.8653C297.754 86.2298 306.277 87.0692 314.022 90.2773C321.767 93.4854 328.387 98.9182 333.044 105.889C337.702 112.859 340.188 121.054 340.188 129.437C340.175 140.675 335.705 151.448 327.759 159.395C319.813 167.341 309.039 171.811 297.801 171.823ZM297.801 88.0997C289.626 88.0997 281.633 90.5241 274.835 95.0663C268.038 99.6085 262.739 106.065 259.61 113.618C256.482 121.171 255.663 129.483 257.258 137.502C258.853 145.52 262.79 152.886 268.571 158.667C274.352 164.448 281.718 168.385 289.737 169.98C297.755 171.575 306.067 170.757 313.62 167.628C321.174 164.499 327.63 159.201 332.172 152.403C336.714 145.605 339.139 137.613 339.139 129.437C339.126 118.478 334.767 107.97 327.018 100.221C319.268 92.4713 308.761 88.1121 297.801 88.0997Z" fill="#3F3D56"/>
<path d="M151.493 84.2482C174.612 84.2482 193.355 65.506 193.355 42.3863C193.355 19.2666 174.612 0.524353 151.493 0.524353C128.373 0.524353 109.631 19.2666 109.631 42.3863C109.631 65.506 128.373 84.2482 151.493 84.2482Z" fill="white"/>
<path d="M153.43 46.6564C160.969 46.6564 167.081 40.5449 167.081 33.006C167.081 25.467 160.969 19.3555 153.43 19.3555C145.891 19.3555 139.78 25.467 139.78 33.006C139.78 40.5449 145.891 46.6564 153.43 46.6564Z" fill="#FFB8B8"/>
<path d="M165.449 23.9882C165.449 23.9882 169.003 17.1939 161.184 16.5762C161.184 16.5762 154.518 10.5294 147.724 15.4708C147.724 15.4708 144.018 15.4708 141.991 19.6645C141.991 19.6645 139.076 18.5591 138.436 21.5176C138.436 21.5176 136.303 27.6942 138.436 33.2533C140.569 38.8123 141.277 39.43 141.277 39.43C141.277 39.43 139.781 32.5315 148.311 31.9138C156.842 31.2962 164.668 25.9521 165.379 32.7464C166.09 39.5408 166.871 36.4715 166.871 36.4715C166.871 36.4715 173.624 26.7678 165.449 23.9882Z" fill="#2F2E41"/>
<path d="M182.975 70.2218C175.722 78.4739 165.515 83.5431 154.558 84.335C143.6 85.127 132.771 81.5781 124.407 74.4545L127.998 64.4355C128.809 62.656 130.089 61.1309 131.702 60.0238C133.314 58.9167 135.197 58.2693 137.149 58.1511L139.434 58.0108L144.88 53.3132C144.88 53.3132 159.556 52.7891 159.339 52.5382L168.228 57.8853L168.221 57.8485L171.716 58.0625C173.668 58.1802 175.551 58.8274 177.164 59.9346C178.776 61.0418 180.056 62.5671 180.867 64.3469L182.975 70.2218Z" fill="#1F2551"/>
<path d="M151.493 84.7725C143.11 84.7725 134.915 82.2866 127.944 77.6291C120.974 72.9717 115.541 66.3518 112.333 58.6068C109.125 50.8617 108.286 42.3392 109.921 34.1171C111.557 25.895 115.593 18.3425 121.521 12.4146C127.449 6.48681 135.002 2.44991 143.224 0.81443C151.446 -0.821054 159.968 0.018332 167.713 3.22645C175.458 6.43456 182.078 11.8673 186.736 18.8377C191.393 25.8081 193.879 34.003 193.879 42.3862C193.866 53.6238 189.397 64.3976 181.45 72.3438C173.504 80.29 162.73 84.7597 151.493 84.7725ZM151.493 1.04879C143.317 1.04879 135.325 3.47319 128.527 8.0154C121.729 12.5576 116.431 19.0136 113.302 26.5671C110.173 34.1205 109.355 42.4321 110.95 50.4508C112.545 58.4694 116.482 65.8351 122.263 71.6162C128.044 77.3974 135.41 81.3344 143.428 82.9294C151.447 84.5244 159.759 83.7058 167.312 80.577C174.865 77.4483 181.321 72.15 185.864 65.3521C190.406 58.5542 192.83 50.562 192.83 42.3862C192.818 31.4267 188.459 20.9196 180.709 13.17C172.96 5.4204 162.452 1.06123 151.493 1.04879Z" fill="#3F3D56"/>
<path d="M53.7843 150.323C76.904 150.323 95.6462 131.581 95.6462 108.461C95.6462 85.3413 76.904 66.5991 53.7843 66.5991C30.6646 66.5991 11.9224 85.3413 11.9224 108.461C11.9224 131.581 30.6646 150.323 53.7843 150.323Z" fill="white"/>
<path d="M34.3817 94.8433C36.1126 89.3268 40.0489 84.2672 45.4927 82.4023C50.9368 80.5374 58.9084 83.3782 63.0012 87.4571C70.4876 94.9183 72.3146 120.55 67.1711 128.65C66.148 128.596 62.6178 128.556 61.5824 128.517L60.1176 123.635V128.469C58.468 128.418 56.8054 128.383 55.13 128.363C49.5126 128.294 44.1409 126.049 40.1444 122.101C36.1478 118.152 33.8376 112.809 33.6994 107.192C33.5654 101.82 33.6995 97.0172 34.3817 94.8433Z" fill="#2F2E41"/>
<path d="M53.1633 113.126C59.7522 113.126 65.0936 107.785 65.0936 101.196C65.0936 94.6072 59.7522 89.2657 53.1633 89.2657C46.5743 89.2657 41.2329 94.6072 41.2329 101.196C41.2329 107.785 46.5743 113.126 53.1633 113.126Z" fill="#9E616A"/>
<path d="M42.8671 90.7184L56.6037 83.8401C59.4121 85.1056 61.8308 87.0994 63.6089 89.6147C65.3871 92.13 66.4599 95.0752 66.7161 98.1449L67.0585 102.246L61.3063 100.782L60.6761 95.5376L59.6993 100.373L57.0447 99.6974L57.0699 91.5557L54.4136 99.6915L44.9325 97.5132L42.8671 90.7184Z" fill="#2F2E41"/>
<path d="M84.8485 136.163C77.5961 144.416 67.3894 149.485 56.4318 150.277C45.4742 151.069 34.6447 147.52 26.281 140.396L29.8716 130.377C30.683 128.598 31.9635 127.073 33.5757 125.965C35.188 124.858 37.0712 124.211 39.0233 124.093L41.3076 123.952L46.7544 119.255C46.7544 119.255 61.4304 118.731 61.2127 118.48L70.1024 123.827L70.0951 123.79L73.5897 124.004C75.542 124.122 77.4254 124.769 79.0377 125.876C80.6501 126.983 81.9304 128.509 82.7414 130.289L84.8485 136.163Z" fill="#1F2551"/>
<path d="M53.7843 150.847C45.4011 150.847 37.2062 148.361 30.2358 143.704C23.2654 139.046 17.8327 132.427 14.6245 124.681C11.4164 116.936 10.577 108.414 12.2125 100.192C13.848 91.9697 17.8849 84.4172 23.8127 78.4894C29.7406 72.5615 37.2931 68.5246 45.5152 66.8891C53.7373 65.2537 62.2598 66.0931 70.0049 69.3012C77.7499 72.5093 84.3698 77.942 89.0272 84.9124C93.6847 91.8828 96.1706 100.078 96.1706 108.461C96.1578 119.699 91.6881 130.472 83.7419 138.418C75.7957 146.365 65.022 150.834 53.7843 150.847ZM53.7843 67.1235C45.6086 67.1235 37.6164 69.5479 30.8185 74.0901C24.0206 78.6323 18.7223 85.0884 15.5935 92.6418C12.4648 100.195 11.6462 108.507 13.2412 116.525C14.8362 124.544 18.7732 131.91 24.5543 137.691C30.3355 143.472 37.7011 147.409 45.7198 149.004C53.7385 150.599 62.0501 149.781 69.6035 146.652C77.1569 143.523 83.6129 138.225 88.1552 131.427C92.6974 124.629 95.1218 116.637 95.1218 108.461C95.1094 97.5014 90.7502 86.9943 83.0006 79.2447C75.251 71.4951 64.7439 67.136 53.7843 67.1235Z" fill="#3F3D56"/>
<path d="M336.463 151.154L330.126 140.164C321.916 141.207 306.112 151.689 306.112 151.689L275.542 160.053C274.605 159.754 273.605 159.707 272.644 159.918C271.683 160.128 270.794 160.587 270.067 161.25C269.339 161.913 268.8 162.756 268.502 163.694C268.204 164.631 268.158 165.631 268.369 166.592C268.581 167.553 269.041 168.442 269.705 169.168C270.369 169.894 271.212 170.433 272.15 170.73C273.088 171.027 274.088 171.071 275.049 170.859C276.01 170.646 276.898 170.185 277.623 169.52L316.831 164.406L336.463 151.154Z" fill="#9E616A"/>
<path d="M334.281 153.147L348.47 141.262L350.535 131.696C350.933 129.817 350.798 127.863 350.144 126.056C349.491 124.25 348.345 122.662 346.836 121.472C344.78 119.873 342.194 119.115 339.6 119.35C337.007 119.585 334.599 120.796 332.864 122.739C327.607 128.634 321.694 136.776 323.375 142.086L323.392 142.139L334.281 153.147Z" fill="#3F3D56"/>
<path d="M116.809 194.433H63.4953C62.0665 194.431 60.6967 193.863 59.6864 192.853C58.6761 191.842 58.1078 190.472 58.1062 189.044V156.208C58.1078 154.779 58.6761 153.409 59.6864 152.399C60.6967 151.388 62.0665 150.82 63.4953 150.818H116.809C118.238 150.82 119.607 151.388 120.618 152.399C121.628 153.409 122.196 154.779 122.198 156.208V189.044C122.196 190.472 121.628 191.842 120.618 192.853C119.607 193.863 118.238 194.431 116.809 194.433Z" fill="#E6E6E6"/>
<path d="M95.6266 190.203H67.2431C65.9049 190.202 64.622 189.67 63.6757 188.723C62.7295 187.777 62.1972 186.494 62.1957 185.156V160.095C62.1972 158.757 62.7295 157.474 63.6757 156.528C64.622 155.581 65.9049 155.049 67.2431 155.048H113.061C114.4 155.049 115.682 155.582 116.629 156.528C117.575 157.474 118.107 158.757 118.109 160.095V167.722C118.102 173.682 115.731 179.396 111.516 183.611C107.302 187.826 101.587 190.197 95.6266 190.203Z" fill="white"/>
<path d="M108.491 168.771H71.8136C71.4964 168.771 71.1921 168.645 70.9678 168.42C70.7435 168.196 70.6174 167.892 70.6174 167.575C70.6174 167.257 70.7435 166.953 70.9678 166.729C71.1921 166.504 71.4964 166.378 71.8136 166.378H108.491C108.808 166.378 109.112 166.504 109.336 166.729C109.561 166.953 109.687 167.257 109.687 167.575C109.687 167.892 109.561 168.196 109.336 168.42C109.112 168.645 108.808 168.771 108.491 168.771Z" fill="#1F2551"/>
<path d="M77.5508 173.497H71.8135C71.4963 173.497 71.192 173.371 70.9677 173.147C70.7433 172.923 70.6173 172.618 70.6173 172.301C70.6173 171.984 70.7433 171.68 70.9677 171.455C71.192 171.231 71.4963 171.105 71.8135 171.105H77.5508C77.868 171.105 78.1723 171.231 78.3966 171.455C78.6209 171.68 78.747 171.984 78.747 172.301C78.747 172.618 78.6209 172.923 78.3966 173.147C78.1723 173.371 77.868 173.497 77.5508 173.497Z" fill="#1F2551"/>
<path d="M87.7122 178.224H71.8136C71.4968 178.223 71.1932 178.097 70.9694 177.873C70.7456 177.648 70.6199 177.345 70.6199 177.028C70.6199 176.711 70.7456 176.407 70.9694 176.183C71.1932 175.959 71.4968 175.832 71.8136 175.832H87.7122C88.029 175.832 88.3326 175.959 88.5564 176.183C88.7802 176.407 88.9059 176.711 88.9059 177.028C88.9059 177.345 88.7802 177.648 88.5564 177.873C88.3326 178.097 88.029 178.223 87.7122 178.224Z" fill="#1F2551"/>
<path d="M56.2457 161.442C62.4743 161.442 67.5236 156.393 67.5236 150.164C67.5236 143.936 62.4743 138.886 56.2457 138.886C50.0171 138.886 44.9678 143.936 44.9678 150.164C44.9678 156.393 50.0171 161.442 56.2457 161.442Z" fill="#3F3D56"/>
<path d="M255.251 45.5024H201.938C200.509 45.5008 199.139 44.9324 198.129 43.9221C197.118 42.9118 196.55 41.542 196.549 40.1132V7.27711C196.55 5.84831 197.118 4.4785 198.129 3.46819C199.139 2.45787 200.509 1.88956 201.938 1.88794H255.251C256.68 1.88955 258.05 2.45786 259.06 3.46818C260.07 4.47849 260.639 5.84831 260.64 7.27711V40.1132C260.639 41.542 260.07 42.9118 259.06 43.9221C258.05 44.9325 256.68 45.5008 255.251 45.5024Z" fill="#E6E6E6"/>
<path d="M234.069 41.2729H205.685C204.347 41.2714 203.064 40.7392 202.118 39.793C201.172 38.8468 200.639 37.5639 200.638 36.2257V11.1645C200.639 9.82637 201.172 8.54348 202.118 7.59729C203.064 6.65109 204.347 6.11888 205.685 6.1174H251.504C252.842 6.11889 254.125 6.65111 255.071 7.59731C256.017 8.54351 256.549 9.8264 256.551 11.1645V18.7912C256.544 24.7516 254.173 30.4661 249.959 34.6807C245.744 38.8954 240.029 41.2662 234.069 41.2729Z" fill="white"/>
<path d="M246.933 19.8403H210.256C209.939 19.8403 209.634 19.7143 209.41 19.49C209.186 19.2657 209.06 18.9614 209.06 18.6442C209.06 18.3269 209.186 18.0227 209.41 17.7984C209.634 17.574 209.939 17.448 210.256 17.448H246.933C247.25 17.448 247.554 17.574 247.779 17.7984C248.003 18.0227 248.129 18.3269 248.129 18.6442C248.129 18.9614 248.003 19.2657 247.779 19.49C247.554 19.7143 247.25 19.8403 246.933 19.8403Z" fill="#1F2551"/>
<path d="M215.993 24.5669H210.256C209.939 24.5669 209.634 24.4409 209.41 24.2166C209.186 23.9923 209.06 23.688 209.06 23.3707C209.06 23.0535 209.186 22.7492 209.41 22.5249C209.634 22.3005 209.939 22.1745 210.256 22.1745H215.993C216.31 22.1745 216.615 22.3005 216.839 22.5249C217.063 22.7492 217.189 23.0535 217.189 23.3707C217.189 23.688 217.063 23.9923 216.839 24.2166C216.615 24.4409 216.31 24.5669 215.993 24.5669Z" fill="#1F2551"/>
<path d="M226.155 29.2936H210.256C209.939 29.2929 209.636 29.1666 209.412 28.9423C209.188 28.7181 209.062 28.4142 209.062 28.0974C209.062 27.7805 209.188 27.4766 209.412 27.2524C209.636 27.0281 209.939 26.9018 210.256 26.9011H226.155C226.472 26.9011 226.776 27.0272 227 27.2515C227.225 27.4758 227.351 27.7801 227.351 28.0974C227.351 28.4146 227.225 28.7189 227 28.9432C226.776 29.1675 226.472 29.2936 226.155 29.2936Z" fill="#1F2551"/>
<path d="M194.688 51.8421C200.917 51.8421 205.966 46.7928 205.966 40.5642C205.966 34.3356 200.917 29.2863 194.688 29.2863C188.459 29.2863 183.41 34.3356 183.41 40.5642C183.41 46.7928 188.459 51.8421 194.688 51.8421Z" fill="#3F3D56"/>
</g>
<defs>
<clipPath id="clip0_15_6663">
<rect width="423" height="366.435" fill="white"/>
</clipPath>
</defs>
</svg>
