<svg width="69" height="68" viewBox="0 0 69 68" fill="none" xmlns="http://www.w3.org/2000/svg">
<g filter="url(#filter0_d_322_12941)">
<circle cx="34.0459" cy="30" r="19" fill="white"/>
</g>
<path d="M30.8318 22.8569C29.9793 22.8569 29.1617 23.1956 28.5589 23.7984C27.9561 24.4012 27.6175 25.2187 27.6175 26.0712C27.6175 26.9237 27.9561 27.7413 28.5589 28.3441C29.1617 28.9469 29.9793 29.2855 30.8318 29.2855C31.6842 29.2855 32.5018 28.9469 33.1046 28.3441C33.7074 27.7413 34.046 26.9237 34.046 26.0712C34.046 25.2187 33.7074 24.4012 33.1046 23.7984C32.5018 23.1956 31.6842 22.8569 30.8318 22.8569ZM28.6889 26.0712C28.6889 25.7898 28.7443 25.5112 28.852 25.2512C28.9597 24.9912 29.1175 24.755 29.3165 24.556C29.5155 24.357 29.7517 24.1992 30.0117 24.0915C30.2717 23.9838 30.5503 23.9284 30.8318 23.9284C31.1132 23.9284 31.3918 23.9838 31.6518 24.0915C31.9118 24.1992 32.148 24.357 32.347 24.556C32.546 24.755 32.7038 24.9912 32.8115 25.2512C32.9192 25.5112 32.9746 25.7898 32.9746 26.0712C32.9746 26.6395 32.7488 27.1846 32.347 27.5864C31.9451 27.9883 31.4001 28.2141 30.8318 28.2141C30.2634 28.2141 29.7184 27.9883 29.3165 27.5864C28.9147 27.1846 28.6889 26.6395 28.6889 26.0712ZM38.3318 24.2855C38.0034 24.2855 37.6784 24.3502 37.375 24.4758C37.0717 24.6014 36.7961 24.7856 36.564 25.0177C36.3318 25.2499 36.1477 25.5255 36.0221 25.8288C35.8964 26.1321 35.8318 26.4572 35.8318 26.7855C35.8318 27.1138 35.8964 27.4389 36.0221 27.7422C36.1477 28.0455 36.3318 28.3211 36.564 28.5533C36.7961 28.7854 37.0717 28.9696 37.375 29.0952C37.6784 29.2208 38.0034 29.2855 38.3318 29.2855C38.9948 29.2855 39.6307 29.0221 40.0995 28.5533C40.5684 28.0844 40.8318 27.4485 40.8318 26.7855C40.8318 26.1225 40.5684 25.4866 40.0995 25.0177C39.6307 24.5489 38.9948 24.2855 38.3318 24.2855ZM36.9032 26.7855C36.9032 26.4066 37.0537 26.0433 37.3216 25.7754C37.5895 25.5074 37.9529 25.3569 38.3318 25.3569C38.7106 25.3569 39.074 25.5074 39.3419 25.7754C39.6098 26.0433 39.7603 26.4066 39.7603 26.7855C39.7603 27.1644 39.6098 27.5277 39.3419 27.7957C39.074 28.0636 38.7106 28.2141 38.3318 28.2141C37.9529 28.2141 37.5895 28.0636 37.3216 27.7957C37.0537 27.5277 36.9032 27.1644 36.9032 26.7855ZM27.0818 30.7141C26.6555 30.7141 26.2467 30.8834 25.9453 31.1848C25.6439 31.4862 25.4746 31.895 25.4746 32.3212V32.7005C25.4755 32.7583 25.4795 32.816 25.4868 32.8734C25.4989 32.9826 25.5218 33.1326 25.5653 33.3105C25.6838 33.7794 25.8943 34.2201 26.1846 34.6069C26.9089 35.5734 28.2903 36.4284 30.8318 36.4284C31.9253 36.4284 32.8046 36.2698 33.5082 36.0126C33.415 35.658 33.3585 35.2946 33.3396 34.9284C32.7425 35.1819 31.9325 35.3569 30.8318 35.3569C28.5518 35.3569 27.5225 34.6048 27.0418 33.9641C26.8372 33.6915 26.6891 33.381 26.606 33.0505C26.576 32.9315 26.5562 32.8101 26.5468 32.6876L26.546 32.6748V32.3212C26.546 32.1791 26.6025 32.0429 26.7029 31.9424C26.8034 31.8419 26.9397 31.7855 27.0818 31.7855H34.1568C34.3921 31.4131 34.6723 31.071 34.991 30.7669C34.8574 30.7318 34.7199 30.7141 34.5818 30.7141H27.0818ZM43.3318 34.6426C43.3318 35.874 42.8426 37.0549 41.9719 37.9256C41.1012 38.7963 39.9203 39.2855 38.6889 39.2855C37.4575 39.2855 36.2766 38.7963 35.4059 37.9256C34.5352 37.0549 34.046 35.874 34.046 34.6426C34.046 33.4113 34.5352 32.2304 35.4059 31.3597C36.2766 30.4889 37.4575 29.9998 38.6889 29.9998C39.9203 29.9998 41.1012 30.4889 41.9719 31.3597C42.8426 32.2304 43.3318 33.4113 43.3318 34.6426ZM39.046 31.7855C39.046 31.6908 39.0084 31.5999 38.9414 31.533C38.8745 31.466 38.7836 31.4284 38.6889 31.4284C38.5942 31.4284 38.5033 31.466 38.4364 31.533C38.3694 31.5999 38.3318 31.6908 38.3318 31.7855V34.2855H35.8318C35.737 34.2855 35.6462 34.3231 35.5792 34.3901C35.5122 34.4571 35.4746 34.5479 35.4746 34.6426C35.4746 34.7374 35.5122 34.8282 35.5792 34.8952C35.6462 34.9622 35.737 34.9998 35.8318 34.9998H38.3318V37.4998C38.3318 37.5945 38.3694 37.6854 38.4364 37.7523C38.5033 37.8193 38.5942 37.8569 38.6889 37.8569C38.7836 37.8569 38.8745 37.8193 38.9414 37.7523C39.0084 37.6854 39.046 37.5945 39.046 37.4998V34.9998H41.546C41.6408 34.9998 41.7316 34.9622 41.7986 34.8952C41.8656 34.8282 41.9032 34.7374 41.9032 34.6426C41.9032 34.5479 41.8656 34.4571 41.7986 34.3901C41.7316 34.3231 41.6408 34.2855 41.546 34.2855H39.046V31.7855Z" fill="#1F2551"/>
<defs>
<filter id="filter0_d_322_12941" x="0.0458984" y="0" width="68" height="68" filterUnits="userSpaceOnUse" color-interpolation-filters="sRGB">
<feFlood flood-opacity="0" result="BackgroundImageFix"/>
<feColorMatrix in="SourceAlpha" type="matrix" values="0 0 0 0 0 0 0 0 0 0 0 0 0 0 0 0 0 0 127 0" result="hardAlpha"/>
<feMorphology radius="1" operator="erode" in="SourceAlpha" result="effect1_dropShadow_322_12941"/>
<feOffset dy="4"/>
<feGaussianBlur stdDeviation="8"/>
<feComposite in2="hardAlpha" operator="out"/>
<feColorMatrix type="matrix" values="0 0 0 0 0 0 0 0 0 0 0 0 0 0 0 0 0 0 0.1 0"/>
<feBlend mode="normal" in2="BackgroundImageFix" result="effect1_dropShadow_322_12941"/>
<feBlend mode="normal" in="SourceGraphic" in2="effect1_dropShadow_322_12941" result="shape"/>
</filter>
</defs>
</svg>
