<svg width="38" height="38" viewBox="0 0 38 38" fill="none" xmlns="http://www.w3.org/2000/svg">
<circle cx="19" cy="19" r="19" fill="#1F2551"/>
<path d="M11.5 25.7308V12.8458C11.5 12.4625 11.6286 12.1425 11.8858 11.8858C12.1425 11.6286 12.4625 11.5 12.8458 11.5H25.1542C25.5375 11.5 25.8575 11.6286 26.1142 11.8858C26.3714 12.1425 26.5 12.4625 26.5 12.8458V21.8208C26.5 22.2042 26.3717 22.5244 26.115 22.7817C25.8578 23.0383 25.5375 23.1667 25.1542 23.1667H14.0642L11.5 25.7308ZM14.4167 20.25H20.25V19.4167H14.4167V20.25ZM14.4167 17.75H23.5833V16.9167H14.4167V17.75ZM14.4167 15.25H23.5833V14.4167H14.4167V15.25Z" fill="white"/>
</svg>
