<svg width="13" height="13" viewBox="0 0 13 13" fill="none" xmlns="http://www.w3.org/2000/svg">
<path d="M0.594199 0.606075C0.76149 0.43869 0.988355 0.344658 1.2249 0.344658C1.46145 0.344658 1.68832 0.43869 1.85561 0.606075L6.57743 5.33197L11.2993 0.606075C11.3815 0.520798 11.48 0.452778 11.5888 0.405984C11.6977 0.359191 11.8147 0.33456 11.9332 0.33353C12.0516 0.3325 12.1691 0.35509 12.2787 0.399984C12.3884 0.444878 12.488 0.511175 12.5717 0.595008C12.6555 0.678841 12.7217 0.77853 12.7666 0.888259C12.8114 0.997988 12.834 1.11556 12.833 1.23411C12.8319 1.35266 12.8073 1.46983 12.7606 1.57876C12.7138 1.68769 12.6459 1.78621 12.5607 1.86857L7.83884 6.59447L12.5607 11.3204C12.7232 11.4888 12.8131 11.7143 12.811 11.9484C12.809 12.1825 12.7152 12.4064 12.5498 12.572C12.3844 12.7375 12.1606 12.8314 11.9267 12.8335C11.6928 12.8355 11.4675 12.7455 11.2993 12.5829L6.57743 7.85697L1.85561 12.5829C1.68736 12.7455 1.46202 12.8355 1.22812 12.8335C0.994213 12.8314 0.770466 12.7375 0.605066 12.572C0.439666 12.4064 0.345845 12.1825 0.343813 11.9484C0.34178 11.7143 0.431698 11.4888 0.594199 11.3204L5.31602 6.59447L0.594199 1.86857C0.426959 1.70114 0.333008 1.47408 0.333008 1.23733C0.333008 1.00057 0.426959 0.773511 0.594199 0.606075Z" fill="#192048"/>
</svg>
