<svg width="319" height="416" viewBox="0 0 319 416" fill="none" xmlns="http://www.w3.org/2000/svg">
<g clip-path="url(#clip0_6508_113931)">
<path d="M165.579 0H38.3281C18.9982 0 3.32812 15.67 3.32812 35V324.409C3.32812 343.739 18.9982 359.409 38.3281 359.409H165.579C184.909 359.409 200.579 343.739 200.579 324.409V35C200.579 15.67 184.909 0 165.579 0Z" fill="#3F3D56"/>
<path d="M197.252 35.5371V323.876C197.242 332.415 193.846 340.602 187.808 346.64C181.77 352.678 173.583 356.074 165.044 356.084H38.8643C30.3252 356.074 22.1386 352.678 16.1006 346.64C10.0625 340.602 6.66604 332.415 6.65625 323.876V35.5371C6.66604 26.998 10.0625 18.8115 16.1006 12.7734C22.1386 6.73537 30.3252 3.33889 38.8643 3.3291H55.3643V9.0291C55.3645 11.6093 56.3896 14.0838 58.2141 15.9082C60.0386 17.7327 62.5131 18.7578 65.0933 18.7581H138.815C141.395 18.7578 143.87 17.7327 145.694 15.9082C147.519 14.0838 148.544 11.6093 148.544 9.0291V3.3291H165.044C173.583 3.33889 181.77 6.73537 187.808 12.7734C193.846 18.8115 197.242 26.998 197.252 35.5371Z" fill="white"/>
<path d="M43.2209 249.849C41.1589 248.919 38.8589 251.024 40.3889 252.993C37.7677 255.311 34.6038 256.929 31.1905 257.698C27.7771 258.467 24.2249 258.363 20.8629 257.393C20.6979 257.793 20.525 258.183 20.347 258.576C17.6918 264.457 13.8883 269.748 9.15994 274.138C15.3849 268.961 23.06 273.338 29.654 275.038C30.1029 275.115 30.5197 275.321 30.8534 275.631C31.1871 275.941 31.4232 276.341 31.533 276.783C31.6428 277.226 31.6215 277.69 31.4716 278.12C31.3217 278.55 31.0497 278.927 30.6889 279.205C29.8469 278.894 28.976 278.667 28.089 278.529C27.6709 278.465 27.2433 278.533 26.8652 278.722C26.487 278.911 26.1769 279.213 25.9776 279.586C25.7782 279.959 25.6995 280.385 25.7522 280.805C25.805 281.224 25.9865 281.617 26.2719 281.929C22.8009 283.507 18.9609 284.092 15.1775 283.622C11.394 283.151 7.81465 281.642 4.83594 279.262V276.435C11.1142 271.617 16.1226 265.34 19.4269 258.149C20.5877 255.623 21.5266 253.002 22.2329 250.313C23.0049 247.373 23.4806 244.363 23.653 241.328C23.0521 239.641 22.8256 237.843 22.9891 236.059C23.1526 234.276 23.7023 232.549 24.5999 230.999C25.3819 232.419 27.6349 232.787 27.8709 230.817C27.9219 230.022 27.96 229.228 28.006 228.438C36.497 227.783 35.0469 239.672 24.6589 241.531C24.4564 244.585 23.9611 247.612 23.1799 250.571C23.1079 250.871 23.0279 251.158 22.9429 251.45C24.8416 248.856 27.3288 246.75 30.2 245.305C32.943 244.02 36.1379 243.745 39.1849 243.251C40.0051 243.114 40.8476 243.224 41.6042 243.569C42.3609 243.915 42.997 244.478 43.431 245.187C43.8649 245.897 44.0768 246.72 44.0393 247.55C44.0019 248.381 43.7169 249.182 43.2209 249.849Z" fill="#F2F2F2"/>
<path d="M2.42001 72.91C1.77843 72.9092 1.16335 72.654 0.709686 72.2003C0.25602 71.7467 0.000793872 71.1316 0 70.49V65.649C0 65.0071 0.255022 64.3914 0.708954 63.9375C1.16289 63.4835 1.77855 63.2285 2.4205 63.2285C3.06246 63.2285 3.67812 63.4835 4.13205 63.9375C4.58598 64.3914 4.841 65.0071 4.841 65.649V70.494C4.83915 71.1351 4.58335 71.7493 4.12958 72.2021C3.67581 72.6549 3.06108 72.9095 2.42001 72.91Z" fill="#3F3D56"/>
<path d="M2.42001 97.7309C1.77843 97.7301 1.16335 97.4749 0.709686 97.0212C0.25602 96.5675 0.000793872 95.9525 0 95.3109V81.9869C0 81.345 0.255022 80.7293 0.708954 80.2753C1.16289 79.8214 1.77855 79.5664 2.4205 79.5664C3.06246 79.5664 3.67812 79.8214 4.13205 80.2753C4.58598 80.7293 4.841 81.345 4.841 81.9869V95.3109C4.84021 95.9525 4.58501 96.5675 4.13135 97.0212C3.67768 97.4749 3.0626 97.7301 2.42102 97.7309H2.42001Z" fill="#3F3D56"/>
<path d="M2.42001 117.685C1.77843 117.684 1.16335 117.429 0.709686 116.975C0.25602 116.522 0.000793872 115.907 0 115.265V101.94C0 101.298 0.255022 100.682 0.708954 100.228C1.16289 99.7746 1.77855 99.5195 2.4205 99.5195C3.06246 99.5195 3.67812 99.7746 4.13205 100.228C4.58598 100.682 4.841 101.298 4.841 101.94V115.264C4.84047 115.906 4.58523 116.521 4.13132 116.975C3.67741 117.429 3.06194 117.684 2.42001 117.685Z" fill="#3F3D56"/>
<path d="M200.881 106.794C200.239 106.793 199.624 106.538 199.171 106.084C198.717 105.631 198.462 105.016 198.461 104.374V71.8609C198.461 71.219 198.716 70.6033 199.17 70.1494C199.624 69.6955 200.239 69.4404 200.881 69.4404C201.523 69.4404 202.139 69.6955 202.593 70.1494C203.047 70.6033 203.302 71.219 203.302 71.8609V104.373C203.301 105.015 203.046 105.63 202.592 106.083C202.139 106.537 201.523 106.792 200.882 106.793L200.881 106.794Z" fill="#3F3D56"/>
<path d="M107.153 11.1007H88.3956C88.1937 11.1059 87.9929 11.0706 87.8048 10.9969C87.6168 10.9233 87.4454 10.8127 87.3007 10.6717C87.1561 10.5307 87.0411 10.3622 86.9626 10.1762C86.8842 9.99007 86.8438 9.79016 86.8438 9.58819C86.8438 9.38623 86.8842 9.1863 86.9626 9.00021C87.0411 8.81412 87.1561 8.64563 87.3007 8.50467C87.4454 8.3637 87.6168 8.25313 87.8048 8.17946C87.9929 8.10578 88.1937 8.0705 88.3956 8.0757H107.153C107.547 8.08584 107.922 8.24963 108.197 8.53218C108.473 8.81472 108.627 9.19366 108.627 9.58819C108.627 9.98273 108.473 10.3617 108.197 10.6442C107.922 10.9268 107.547 11.0905 107.153 11.1007Z" fill="white"/>
<path d="M116.835 10.7979C117.503 10.7979 118.045 10.2562 118.045 9.58793C118.045 8.91967 117.503 8.37793 116.835 8.37793C116.167 8.37793 115.625 8.91967 115.625 9.58793C115.625 10.2562 116.167 10.7979 116.835 10.7979Z" fill="white"/>
<path d="M108.099 319.967H48.4612C31.2732 319.942 17.3432 301.967 17.3242 279.782V202.817C17.3432 180.634 31.2732 162.657 48.4612 162.632H108.099C125.288 162.657 139.217 180.632 139.236 202.817V279.785C139.217 301.968 125.288 319.945 108.099 319.97V319.967ZM48.4612 167.067C33.1682 167.09 20.7762 183.083 20.7612 202.82V279.788C20.7792 299.524 33.1712 315.518 48.4612 315.541H108.099C123.392 315.518 135.785 299.525 135.799 279.788V202.817C135.781 183.081 123.389 167.087 108.099 167.064L48.4612 167.067Z" fill="#E6E6E6"/>
<path d="M48.1555 17.591H31.8185C31.0161 17.591 30.2465 17.2723 29.6791 16.7049C29.1117 16.1375 28.793 15.3679 28.793 14.5655C28.793 13.7631 29.1117 12.9936 29.6791 12.4262C30.2465 11.8588 31.0161 11.54 31.8185 11.54H48.1555C48.9579 11.54 49.7274 11.8588 50.2948 12.4262C50.8622 12.9936 51.181 13.7631 51.181 14.5655C51.181 15.3679 50.8622 16.1375 50.2948 16.7049C49.7274 17.2723 48.9579 17.591 48.1555 17.591Z" fill="#E6E6E6"/>
<path d="M155.25 17.2888C156.754 17.2888 157.973 16.0696 157.973 14.5658C157.973 13.0619 156.754 11.8428 155.25 11.8428C153.746 11.8428 152.527 13.0619 152.527 14.5658C152.527 16.0696 153.746 17.2888 155.25 17.2888Z" fill="#E6E6E6"/>
<path d="M163.723 17.2888C165.227 17.2888 166.446 16.0696 166.446 14.5658C166.446 13.0619 165.227 11.8428 163.723 11.8428C162.219 11.8428 161 13.0619 161 14.5658C161 16.0696 162.219 17.2888 163.723 17.2888Z" fill="#E6E6E6"/>
<path d="M172.192 17.2888C173.696 17.2888 174.915 16.0696 174.915 14.5658C174.915 13.0619 173.696 11.8428 172.192 11.8428C170.688 11.8428 169.469 13.0619 169.469 14.5658C169.469 16.0696 170.688 17.2888 172.192 17.2888Z" fill="#E6E6E6"/>
<path d="M48.1904 300.735C55.2077 300.735 60.8964 295.047 60.8964 288.029C60.8964 281.012 55.2077 275.323 48.1904 275.323C41.173 275.323 35.4844 281.012 35.4844 288.029C35.4844 295.047 41.173 300.735 48.1904 300.735Z" fill="#CCCCCC"/>
<path d="M127.036 53.1095H127.017C126.708 53.1118 126.412 53.2354 126.194 53.4535C125.976 53.6716 125.851 53.9668 125.849 54.2755V59.5115C125.849 60.117 125.608 60.6977 125.18 61.1258C124.752 61.554 124.171 61.7945 123.566 61.7945C122.96 61.7945 122.379 61.554 121.951 61.1258C121.523 60.6977 121.283 60.117 121.283 59.5115V54.2755C121.28 53.9681 121.158 53.6739 120.941 53.4557C120.725 53.2374 120.432 53.1124 120.125 53.1075H120.096C119.944 53.1063 119.793 53.1364 119.653 53.1957C119.514 53.255 119.387 53.3425 119.283 53.4525C119.172 53.5588 119.084 53.6867 119.025 53.8282C118.965 53.9698 118.936 54.122 118.938 54.2755V59.5115C118.938 60.7391 119.425 61.9163 120.293 62.7843C121.161 63.6523 122.339 64.14 123.566 64.14C124.794 64.14 125.971 63.6523 126.839 62.7843C127.707 61.9163 128.195 60.7391 128.195 59.5115V54.2755C128.196 54.122 128.167 53.9698 128.107 53.8282C128.048 53.6867 127.96 53.5588 127.85 53.4525C127.746 53.3407 127.62 53.2523 127.48 53.1931C127.339 53.134 127.188 53.1055 127.036 53.1095Z" fill="#0F1F54"/>
<path d="M140.105 53.1088C139.454 53.0648 138.802 53.1796 138.205 53.4431C137.608 53.7066 137.084 54.1111 136.678 54.6218C136.269 54.1115 135.743 53.7074 135.145 53.444C134.546 53.1806 133.893 53.0656 133.241 53.1088C132.022 53.1109 130.853 53.5962 129.991 54.4584C129.128 55.3206 128.643 56.4894 128.641 57.7088V62.9748C128.637 63.1272 128.666 63.2786 128.726 63.4189C128.785 63.5593 128.874 63.6854 128.986 63.7887C129.091 63.8988 129.217 63.9862 129.357 64.0456C129.497 64.1049 129.648 64.1349 129.8 64.1338H129.829C129.981 64.1349 130.131 64.1048 130.271 64.0455C130.411 63.9861 130.537 63.8987 130.642 63.7887C130.754 63.6854 130.843 63.5594 130.902 63.419C130.962 63.2786 130.991 63.1272 130.987 62.9748V57.7098C130.987 57.1106 131.225 56.5361 131.649 56.1124C132.072 55.6888 132.647 55.4508 133.246 55.4508C133.845 55.4508 134.42 55.6888 134.843 56.1124C135.267 56.5361 135.505 57.1106 135.505 57.7098V62.9748C135.501 63.1272 135.53 63.2786 135.59 63.4189C135.649 63.5593 135.738 63.6853 135.85 63.7887C135.956 63.8994 136.084 63.9871 136.226 64.0464C136.367 64.1058 136.519 64.1355 136.673 64.1338H136.692C136.997 64.1289 137.289 64.0053 137.505 63.7892C137.721 63.5731 137.845 63.2814 137.85 62.9758V57.7107C137.85 57.1103 138.088 56.5344 138.513 56.1099C138.938 55.6853 139.513 55.4468 140.114 55.4468C140.714 55.4468 141.29 55.6853 141.715 56.1099C142.139 56.5344 142.378 57.1103 142.378 57.7107V62.9748C142.383 63.2804 142.506 63.5721 142.723 63.7882C142.939 64.0043 143.23 64.1278 143.536 64.1327H143.555C143.708 64.1345 143.861 64.1048 144.002 64.0455C144.144 63.9861 144.272 63.8984 144.378 63.7878C144.486 63.6822 144.572 63.5555 144.63 63.4155C144.687 63.2755 144.716 63.1251 144.713 62.9737V57.7088C144.711 56.4894 144.225 55.3206 143.363 54.4584C142.501 53.5962 141.332 53.1109 140.113 53.1088H140.105Z" fill="#0F1F54"/>
<path d="M150.67 53.1085C149.212 53.1108 147.814 53.6899 146.781 54.7194C145.748 55.7488 145.164 57.1451 145.156 58.6035V66.9125C145.161 67.2181 145.285 67.5098 145.501 67.7259C145.717 67.942 146.009 68.0656 146.314 68.0705H146.343C146.649 68.0659 146.941 67.9424 147.157 67.7263C147.374 67.5101 147.497 67.2182 147.502 66.9125V63.1745C148.405 63.8719 149.533 64.2125 150.67 64.1315C152.12 64.1119 153.503 63.5225 154.521 62.4906C155.539 61.4587 156.11 60.0675 156.11 58.618C156.11 57.1684 155.539 55.7772 154.521 54.7453C153.503 53.7134 152.12 53.124 150.67 53.1045V53.1085ZM152.91 60.8434C152.391 61.3642 151.707 61.6888 150.975 61.7615C150.243 61.8343 149.508 61.6509 148.896 61.2426C148.284 60.8342 147.833 60.2263 147.619 59.5225C147.406 58.8186 147.443 58.0623 147.724 57.3828C148.006 56.7032 148.514 56.1423 149.163 55.7958C149.812 55.4493 150.561 55.3386 151.282 55.4826C152.004 55.6266 152.653 56.0165 153.119 56.5856C153.585 57.1547 153.839 57.8678 153.838 58.6035C153.844 59.0204 153.765 59.4342 153.605 59.8193C153.445 60.2044 153.208 60.5526 152.908 60.8425L152.91 60.8434Z" fill="#0F1F54"/>
<path d="M162.266 54.296V54.275C162.268 54.1224 162.24 53.971 162.182 53.8296C162.125 53.6882 162.039 53.5598 161.931 53.452C161.825 53.3414 161.697 53.2537 161.555 53.1943C161.414 53.135 161.262 53.1053 161.108 53.107H160.562C160.006 53.0978 159.454 53.2026 158.941 53.415C158.427 53.6275 157.962 53.943 157.575 54.3421C157.181 54.7326 156.868 55.198 156.656 55.7109C156.444 56.2239 156.337 56.774 156.34 57.3291V62.975C156.336 63.1275 156.365 63.2789 156.425 63.4193C156.484 63.5596 156.573 63.6857 156.685 63.789C156.79 63.8992 156.916 63.9866 157.056 64.046C157.196 64.1053 157.347 64.1353 157.499 64.134H157.528C157.68 64.1352 157.831 64.1052 157.971 64.0458C158.111 63.9865 158.237 63.8991 158.342 63.789C158.454 63.6857 158.543 63.5596 158.602 63.4193C158.662 63.2789 158.691 63.1275 158.687 62.975V57.327C158.685 57.08 158.732 56.8351 158.826 56.6065C158.92 56.378 159.058 56.1705 159.233 55.996C159.406 55.8188 159.613 55.6789 159.842 55.585C160.071 55.4911 160.317 55.4452 160.564 55.45H161.11C161.264 55.4516 161.416 55.4219 161.557 55.3626C161.699 55.3032 161.827 55.2156 161.933 55.1051C162.041 54.9998 162.125 54.8738 162.183 54.7348C162.24 54.5957 162.268 54.4464 162.266 54.296Z" fill="#0F1F54"/>
<path d="M171.184 58.9002C170.937 58.8844 170.692 58.9538 170.49 59.0966C170.288 59.2395 170.141 59.4472 170.074 59.6852C169.863 60.3017 169.465 60.8369 168.935 61.2162C168.397 61.6114 167.745 61.8219 167.078 61.8162C166.654 61.8513 166.228 61.7863 165.834 61.6267C165.44 61.4671 165.089 61.2173 164.809 60.8972C165.121 60.7506 166.181 60.2689 167.987 59.4522C169.442 58.7949 170.616 58.2652 171.51 57.8632C171.652 57.8037 171.78 57.7149 171.885 57.6028C171.991 57.4906 172.072 57.3576 172.123 57.2122C172.179 57.0695 172.205 56.9165 172.199 56.7631C172.192 56.6098 172.153 56.4595 172.085 56.3222C171.75 55.5881 171.257 54.9366 170.643 54.4138C170.028 53.8909 169.306 53.5094 168.528 53.2963C167.749 53.0831 166.934 53.0435 166.139 53.1803C165.343 53.3171 164.588 53.6269 163.925 54.0878C163.263 54.5487 162.71 55.1495 162.305 55.8477C161.901 56.5458 161.654 57.3244 161.584 58.1283C161.513 58.9322 161.62 59.7417 161.896 60.4998C162.173 61.2578 162.613 61.9458 163.185 62.5152C163.844 63.1729 164.659 63.6529 165.554 63.9105C166.449 64.1681 167.394 64.1949 168.302 63.9885C169.21 63.782 170.051 63.3489 170.746 62.7297C171.442 62.1105 171.969 61.3252 172.279 60.4472C172.328 60.3155 172.355 60.176 172.356 60.0352C172.353 59.8034 172.275 59.5787 172.135 59.3942C172.031 59.2381 171.889 59.1109 171.723 59.0245C171.557 58.9381 171.371 58.8953 171.184 58.9002ZM163.909 58.6512C163.906 58.2338 163.985 57.8199 164.143 57.4335C164.301 57.0471 164.534 56.6958 164.829 56.4002C165.123 56.1046 165.474 55.8704 165.86 55.7112C166.246 55.5521 166.659 55.4712 167.077 55.4732C167.481 55.4404 167.887 55.4991 168.265 55.6448C168.642 55.7906 168.983 56.0197 169.26 56.3152L163.909 58.7152V58.6512Z" fill="#0F1F54"/>
<path d="M182.882 59.3984C182.78 59.2416 182.639 59.1135 182.473 59.0261C182.307 58.9386 182.122 58.8947 181.934 58.8984C181.687 58.8827 181.443 58.952 181.241 59.0948C181.039 59.2377 180.892 59.4454 180.824 59.6835C180.614 60.3001 180.215 60.8354 179.685 61.2145C179.147 61.6098 178.496 61.8203 177.828 61.8145C177.405 61.8495 176.979 61.7846 176.584 61.625C176.19 61.4654 175.839 61.2155 175.559 60.8954C175.872 60.7488 176.931 60.2671 178.737 59.4504C180.193 58.7931 181.367 58.2635 182.26 57.8615C182.402 57.8019 182.53 57.7132 182.636 57.6011C182.742 57.4889 182.822 57.3558 182.873 57.2104C182.923 57.0828 182.948 56.9473 182.949 56.8104C182.948 56.6412 182.909 56.4743 182.834 56.3224C182.393 55.3651 181.687 54.5537 180.801 53.9838C179.914 53.4139 178.882 53.1092 177.828 53.1055C176.818 53.1064 175.828 53.3849 174.966 53.9105C174.103 54.4362 173.402 55.1887 172.939 56.086C172.475 56.9833 172.267 57.9907 172.338 58.9982C172.408 60.0056 172.754 60.9744 173.338 61.7985C173.921 62.6227 174.72 63.2705 175.647 63.6712C176.574 64.0719 177.594 64.2101 178.594 64.0707C179.594 63.9312 180.537 63.5195 181.319 62.8805C182.101 62.2415 182.692 61.3998 183.028 60.4474C183.077 60.3156 183.103 60.1762 183.104 60.0355C183.1 59.8049 183.022 59.5818 182.882 59.3984ZM174.659 58.6514C174.656 58.234 174.736 57.82 174.894 57.4336C175.052 57.0472 175.285 56.696 175.58 56.4004C175.875 56.1048 176.225 55.8706 176.611 55.7115C176.997 55.5524 177.411 55.4715 177.828 55.4734C178.232 55.4407 178.638 55.4994 179.016 55.6452C179.393 55.791 179.733 56.0201 180.01 56.3154L174.659 58.7155V58.6514Z" fill="#0F1F54"/>
<path d="M118.487 54.2366C118.486 53.9536 118.385 53.6799 118.202 53.464C118.019 53.2481 117.766 53.1038 117.487 53.0566C117.336 53.0255 117.179 53.0282 117.03 53.0646L111.276 54.4716C111.003 54.5391 110.768 54.7117 110.622 54.9517C110.477 55.1917 110.432 55.4796 110.498 55.7526C110.565 56.0252 110.738 56.26 110.978 56.4058C111.218 56.5516 111.506 56.5964 111.779 56.5306L116.09 55.4756L116.069 64.3356C116.002 64.3036 115.933 64.2726 115.869 64.2356C115.613 64.1066 115.369 63.9746 115.142 63.8356C114.915 63.7028 114.695 63.5586 114.484 63.4036C114.284 63.2506 114.073 63.1036 113.884 62.9436C113.695 62.7836 113.511 62.6016 113.325 62.4366C113.137 62.2674 112.958 62.0889 112.789 61.9016C112.616 61.7136 112.449 61.5086 112.28 61.3016C112.111 61.0946 111.953 60.8656 111.793 60.6276C111.633 60.3896 111.481 60.1336 111.33 59.8636C111.179 59.5936 111.035 59.3036 110.899 58.9906C110.782 58.7324 110.572 58.5277 110.311 58.4176C110.034 58.294 109.722 58.2758 109.434 58.3666C109.238 58.4281 109.064 58.5452 108.934 58.7036C108.805 58.8637 108.722 59.0566 108.697 59.2606C108.67 59.4811 108.702 59.7047 108.791 59.9086C108.935 60.2326 109.082 60.5346 109.235 60.8196C109.388 61.1046 109.542 61.3766 109.704 61.6296C109.866 61.8826 110.03 62.1296 110.198 62.3546C110.366 62.5796 110.535 62.8006 110.709 63.0096C110.883 63.2186 111.06 63.4176 111.24 63.6096C111.42 63.8016 111.6 63.9836 111.791 64.1606C111.982 64.3376 112.177 64.5086 112.372 64.6726C112.567 64.8366 112.772 64.9926 112.985 65.1496C113.198 65.3066 113.414 65.4556 113.642 65.6036C113.87 65.7516 114.109 65.8926 114.357 66.0316C114.605 66.1706 114.865 66.3026 115.137 66.4316C115.409 66.5606 115.698 66.6766 115.998 66.7986C116.281 66.9136 116.583 67.0086 116.898 67.1056L116.953 67.1226C117.166 67.184 117.392 67.1868 117.608 67.1306C117.803 67.0775 117.981 66.9721 118.122 66.8256C118.241 66.6986 118.328 66.5441 118.374 66.3756C118.422 66.2453 118.447 66.1075 118.448 65.9686L118.487 54.2366Z" fill="#0F1F54"/>
<path d="M116.681 51.7262C116.893 51.8487 117.135 51.9059 117.379 51.8904C117.623 51.875 117.857 51.7876 118.051 51.6394C118.245 51.4912 118.391 51.2887 118.47 51.0577C118.549 50.8266 118.557 50.5773 118.495 50.3412C118.432 50.1052 118.301 49.893 118.118 49.7315C117.935 49.57 117.708 49.4664 117.466 49.4339C117.224 49.4013 116.977 49.4412 116.758 49.5486C116.539 49.656 116.356 49.826 116.233 50.0371C116.069 50.3206 116.024 50.6577 116.108 50.9744C116.192 51.2911 116.398 51.5615 116.681 51.7262Z" fill="#0F1F54"/>
<path d="M60.7277 136.826H39.7147C36.9661 136.823 34.3311 135.73 32.3876 133.786C30.4441 131.843 29.3508 129.208 29.3477 126.459V105.443C29.3508 102.695 30.4441 100.06 32.3876 98.1161C34.3311 96.1726 36.9661 95.0793 39.7147 95.0762H60.7277C63.4762 95.0793 66.1112 96.1726 68.0547 98.1161C69.9982 100.06 71.0915 102.695 71.0947 105.443V126.458C71.0918 129.207 69.9986 131.842 68.0551 133.786C66.1116 135.73 63.4764 136.823 60.7277 136.826Z" fill="#BED4E4"/>
<path d="M112.458 137.128H91.4451C88.6966 137.125 86.0616 136.031 84.1181 134.088C82.1746 132.144 81.0813 129.509 81.0781 126.761V105.746C81.0813 102.997 82.1746 100.362 84.1181 98.4188C86.0616 96.4753 88.6966 95.3821 91.4451 95.3789H112.458C115.207 95.3821 117.842 96.4753 119.785 98.4188C121.729 100.362 122.822 102.997 122.825 105.746V126.761C122.822 129.509 121.729 132.144 119.785 134.088C117.842 136.031 115.207 137.125 112.458 137.128Z" fill="#E6E6E6"/>
<path d="M164.193 137.431H143.18C140.431 137.427 137.796 136.334 135.852 134.391C133.909 132.447 132.816 129.812 132.812 127.064V106.048C132.816 103.299 133.909 100.664 135.852 98.7206C137.796 96.7771 140.431 95.6838 143.18 95.6807H164.193C166.941 95.6838 169.576 96.7771 171.52 98.7206C173.463 100.664 174.556 103.299 174.56 106.048V127.063C174.557 129.811 173.463 132.447 171.52 134.39C169.576 136.334 166.941 137.427 164.193 137.431Z" fill="#E6E6E6"/>
<path d="M174.31 143.784H29.7572C26.4611 143.78 23.301 142.469 20.9702 140.139C18.6394 137.808 17.3282 134.648 17.3242 131.352V100.552C17.3282 97.256 18.6394 94.0961 20.9702 91.7654C23.301 89.4348 26.4611 88.1238 29.7572 88.1201H174.31C177.606 88.1238 180.766 89.4348 183.097 91.7654C185.428 94.0961 186.739 97.256 186.743 100.552V131.352C186.739 134.648 185.428 137.808 183.097 140.139C180.766 142.469 177.606 143.78 174.31 143.784ZM29.7572 89.3281C26.7817 89.3316 23.929 90.5153 21.8251 92.6195C19.7213 94.7237 18.5381 97.5766 18.5352 100.552V131.352C18.5387 134.327 19.722 137.18 21.8258 139.284C23.9296 141.387 26.782 142.571 29.7572 142.574H174.31C177.286 142.571 180.138 141.388 182.242 139.284C184.346 137.18 185.53 134.327 185.533 131.352V100.552C185.53 97.5769 184.346 94.7246 182.243 92.6208C180.139 90.517 177.286 89.3336 174.311 89.3301L29.7572 89.3281Z" fill="#E6E6E6"/>
<path d="M119.855 107.204C123.865 107.204 127.116 103.953 127.116 99.9426C127.116 95.9325 123.865 92.6816 119.855 92.6816C115.845 92.6816 112.594 95.9325 112.594 99.9426C112.594 103.953 115.845 107.204 119.855 107.204Z" fill="#CCCCCC"/>
<path d="M78.4443 300.735C85.4616 300.735 91.1503 295.047 91.1503 288.029C91.1503 281.012 85.4616 275.323 78.4443 275.323C71.427 275.323 65.7383 281.012 65.7383 288.029C65.7383 295.047 71.427 300.735 78.4443 300.735Z" fill="#CCCCCC"/>
<path d="M108.698 300.735C115.716 300.735 121.404 295.047 121.404 288.029C121.404 281.012 115.716 275.323 108.698 275.323C101.681 275.323 95.9922 281.012 95.9922 288.029C95.9922 295.047 101.681 300.735 108.698 300.735Z" fill="#CCCCCC"/>
<path d="M242.095 319.967H182.457C165.269 319.942 151.339 301.967 151.32 279.782V202.817C151.339 180.634 165.269 162.657 182.457 162.632H242.095C259.284 162.657 273.213 180.632 273.232 202.817V279.785C273.213 301.968 259.284 319.945 242.095 319.97V319.967ZM182.457 167.067C167.164 167.09 154.772 183.083 154.757 202.82V279.788C154.775 299.524 167.167 315.518 182.457 315.541H242.095C257.388 315.518 269.781 299.525 269.795 279.788V202.817C269.777 183.081 257.385 167.087 242.095 167.064L182.457 167.067Z" fill="#E6E6E6"/>
<path d="M286.267 144.723H200.219V359.409H286.267V144.723Z" fill="white"/>
<path d="M191.989 410.415H186.446L183.809 389.035H191.99L191.989 410.415Z" fill="#A0616A"/>
<path d="M193.4 415.789H175.527V415.563C175.528 413.719 176.261 411.95 177.565 410.645C178.869 409.341 180.639 408.608 182.483 408.607H193.4V415.789Z" fill="#2F2E41"/>
<path d="M260.845 406.787L255.445 408.057L247.977 387.851L255.94 385.976L260.845 406.787Z" fill="#A0616A"/>
<path d="M263.454 411.691L246.054 415.791L246.002 415.571C245.579 413.775 245.887 411.885 246.858 410.316C247.828 408.747 249.383 407.628 251.179 407.205L261.805 404.705L263.454 411.691Z" fill="#2F2E41"/>
<path d="M190.852 320.238C190.862 319.124 191.193 292.83 198.4 282.888L198.507 282.741L223.625 286.206L223.063 291.725C224.163 292.8 232.863 301.881 235.363 323.384L262.023 394.984L249.629 396.111L212.94 317.947L193.524 402.911H181.242L190.852 320.238Z" fill="#2F2E41"/>
<path d="M195.461 283.859L197.916 270.972C196.342 268.966 195.579 266.441 195.78 263.899C195.993 262.681 196.463 261.523 197.158 260.501C197.853 259.48 198.758 258.617 199.812 257.972L206.176 243.122L206.262 243.072C206.691 242.819 216.824 236.96 222.348 242.488C222.486 242.595 236.087 253.388 230.625 267.956L223.882 288.186L195.461 283.859Z" fill="#CCCCCC"/>
<path d="M186.919 301.298C187.581 301.222 188.218 301.002 188.786 300.654C189.354 300.305 189.839 299.836 190.206 299.28C190.573 298.724 190.814 298.094 190.911 297.434C191.008 296.775 190.959 296.102 190.769 295.464L203.912 285.995L196.044 283.002L184.77 292.453C183.718 292.844 182.846 293.608 182.32 294.599C181.794 295.59 181.65 296.74 181.915 297.83C182.18 298.921 182.835 299.876 183.758 300.515C184.68 301.154 185.805 301.433 186.919 301.298Z" fill="#A0616A"/>
<path d="M189.332 285.98L209.396 270.175L203.431 249.795C203.149 248.83 203.069 247.816 203.197 246.818C203.324 245.82 203.655 244.859 204.17 243.995C204.646 243.181 205.287 242.475 206.052 241.923C206.817 241.371 207.688 240.985 208.611 240.789C212.046 240.062 215.164 241.989 217.877 246.506L217.898 246.547C218.347 247.647 228.798 273.483 220.818 279.009C213.011 284.414 194.906 292.282 194.724 292.362L194.512 292.454L189.332 285.98Z" fill="#CCCCCC"/>
<path d="M215.999 237.114C222.712 237.114 228.154 231.672 228.154 224.959C228.154 218.246 222.712 212.804 215.999 212.804C209.286 212.804 203.844 218.246 203.844 224.959C203.844 231.672 209.286 237.114 215.999 237.114Z" fill="#A0616A"/>
<path d="M235.054 220.619C240.993 220.619 245.807 215.805 245.807 209.866C245.807 203.928 240.993 199.113 235.054 199.113C229.115 199.113 224.301 203.928 224.301 209.866C224.301 215.805 229.115 220.619 235.054 220.619Z" fill="#2F2E41"/>
<path d="M244.329 218.771C242.937 219.777 241.324 220.435 239.626 220.69C237.928 220.945 236.193 220.789 234.568 220.237C232.942 219.684 231.472 218.75 230.281 217.512C229.09 216.275 228.213 214.771 227.723 213.125C227.907 214.6 228.396 216.022 229.158 217.299C229.92 218.576 230.939 219.681 232.149 220.544C233.36 221.408 234.737 222.011 236.192 222.315C237.648 222.619 239.151 222.619 240.606 222.313C242.061 222.007 243.437 221.402 244.647 220.538C245.857 219.673 246.874 218.567 247.635 217.289C248.395 216.011 248.882 214.589 249.065 213.113C249.249 211.638 249.124 210.14 248.699 208.715C248.94 210.629 248.661 212.573 247.892 214.342C247.123 216.111 245.892 217.641 244.329 218.771Z" fill="#2F2E41"/>
<path d="M201.895 218.783C203.772 215.422 204.495 214.018 206.911 211.975C209.051 210.168 211.684 209.637 213.811 211.349C216.393 210.222 219.276 209.979 222.011 210.659C224.747 211.338 227.181 212.902 228.936 215.107C230.691 217.312 231.668 220.035 231.717 222.853C231.765 225.67 230.882 228.425 229.203 230.689C227.525 232.953 225.146 234.6 222.436 235.373C219.726 236.146 216.836 236.002 214.216 234.964C211.596 233.926 209.392 232.051 207.947 229.632C206.502 227.213 205.896 224.384 206.224 221.584C204.375 221.325 203.741 219.042 201.895 218.783Z" fill="#2F2E41"/>
<path d="M272.905 198.231L274.576 206.561L269.95 208.179L268.497 199.309C268.086 198.975 267.778 198.533 267.605 198.033C267.432 197.533 267.403 196.995 267.519 196.479C267.635 195.963 267.894 195.489 268.264 195.112C268.635 194.734 269.104 194.468 269.618 194.342C270.132 194.216 270.67 194.237 271.173 194.4C271.676 194.564 272.124 194.865 272.465 195.269C272.807 195.673 273.029 196.164 273.106 196.688C273.184 197.211 273.114 197.746 272.905 198.231Z" fill="#A0616A"/>
<path d="M297.092 252.777L303.863 245.484L282.157 223.284C282.157 223.284 281.27 222.45 281.869 222.335C282.468 222.22 281.562 221.322 281.562 221.322C281.562 221.322 280.148 219.979 281.282 220.398C282.416 220.817 280.982 219.398 280.982 219.398L275.898 202.617L274.998 199.641L267.406 204.173C267.406 204.173 267.473 204.749 267.606 205.732C268.283 210.689 270.663 225.996 274.68 229.885C279.492 234.54 297.092 252.777 297.092 252.777Z" fill="#CCCCCC"/>
<path d="M277.991 408.192H273.209L270.934 389.746H277.992L277.991 408.192Z" fill="#A0616A"/>
<path d="M278.159 413.181H263.453V412.995C263.453 411.477 264.056 410.021 265.13 408.948C266.203 407.874 267.659 407.271 269.177 407.271L271.863 405.233L276.875 407.271H278.159V413.181Z" fill="#2F2E41"/>
<path d="M317.005 403.506L312.483 405.061L304.332 388.361L311.006 386.061L317.005 403.506Z" fill="#A0616A"/>
<path d="M318.787 408.169L304.887 412.951L304.827 412.775C304.333 411.339 304.43 409.767 305.096 408.403C305.762 407.038 306.942 405.995 308.378 405.501L310.255 402.701L315.655 403.001L316.869 402.584L318.787 408.169Z" fill="#2F2E41"/>
<path d="M308.083 284.756H276.013C276.013 284.756 274.452 298.641 273.873 297.798C273.294 296.955 273.462 298.179 273.626 299.304C273.79 300.429 272.157 301.123 273.226 301.768C274.295 302.413 273.908 303.611 272.859 304.004C271.81 304.397 272.306 307.375 272.306 307.375L266.848 360.675L271.314 400.661H278.757L288.681 327.718V364.94L308.528 398.181L314.979 395.7L307.04 359.973L312.994 293.973L308.087 284.751L308.083 284.756Z" fill="#2F2E41"/>
<path d="M313.486 288.52L311.035 291.209L273.79 292.489L272.301 289.016L279.744 272.145L287.686 237.909L291.159 230.466V229.647C291.159 229.532 291.132 229.42 291.081 229.318C291.031 229.218 291.005 229.108 291.003 228.997C291.002 228.886 291.026 228.775 291.073 228.675C291.121 228.574 291.191 228.485 291.277 228.415C291.364 228.345 291.465 228.296 291.574 228.271L291.655 226.993L290.663 227.493L297.114 224.516L302.423 225.037L302.572 225.508L303.679 226.356C305.952 228.092 307.784 230.339 309.029 232.915C310.274 235.49 310.895 238.323 310.844 241.183L310.512 259.746L313.489 288.526L313.486 288.52Z" fill="#3F3D56"/>
<path d="M291.779 222.016C292 222.067 292.222 222.116 292.443 222.145C293.119 222.257 293.806 222.292 294.49 222.251C296.272 222.156 297.992 221.568 299.46 220.555C300.929 219.541 302.087 218.14 302.808 216.508C303.529 214.876 303.784 213.076 303.544 211.308C303.304 209.54 302.579 207.873 301.45 206.492C300.32 205.111 298.83 204.069 297.145 203.483C295.46 202.897 293.645 202.789 291.903 203.172C290.16 203.554 288.557 204.411 287.272 205.649C285.987 206.887 285.07 208.456 284.622 210.183C284.602 210.261 284.581 210.336 284.564 210.415C283.983 212.91 284.417 215.534 285.77 217.71C287.123 219.885 289.284 221.434 291.779 222.016Z" fill="#A0616A"/>
<path d="M277.107 289.023L282.076 282.131L286.409 284.42L280.897 291.52C280.931 292.048 280.816 292.575 280.567 293.041C280.318 293.507 279.943 293.895 279.486 294.16C279.028 294.426 278.506 294.558 277.977 294.543C277.448 294.528 276.934 294.365 276.493 294.074C276.051 293.783 275.7 293.374 275.478 292.894C275.255 292.414 275.172 291.881 275.236 291.356C275.3 290.831 275.509 290.335 275.84 289.922C276.17 289.509 276.61 289.197 277.108 289.02L277.107 289.023Z" fill="#A0616A"/>
<path d="M300.623 234.185H290.671L289.171 265.198C289.171 265.198 289.163 266.415 288.671 266.055C288.179 265.695 288.137 266.969 288.137 266.969C288.137 266.969 288.115 268.919 287.65 267.803C287.185 266.687 287.123 268.703 287.123 268.703L278.283 283.846L276.715 286.532L285.201 289.013C285.201 289.013 285.577 288.572 286.206 287.805C289.378 283.936 298.977 271.778 299.095 266.188C299.236 259.488 300.627 234.183 300.627 234.183L300.623 234.185Z" fill="#CCCCCC"/>
<path d="M287.68 241.38C287.68 241.38 295.619 230.96 302.566 240.88L301.077 227.98L293.484 226.58C293.379 226.569 293.273 226.581 293.173 226.614C293.073 226.647 292.981 226.701 292.904 226.773C292.826 226.845 292.766 226.932 292.725 227.03C292.684 227.127 292.665 227.232 292.669 227.337L287.68 241.38Z" fill="#3F3D56"/>
<path d="M290.659 230.959L290.634 229.242L290.406 228.875L290.659 228.475L290.699 228.386L291.652 224.506L300.137 221.529L302.42 225.029C298.99 227.342 298.211 231.043 290.659 230.959Z" fill="#CCCCCC"/>
<path d="M298.669 220.583L297.842 214.373C297.824 214.237 297.765 214.11 297.673 214.009C297.581 213.907 297.46 213.836 297.326 213.805C297.193 213.774 297.053 213.785 296.926 213.835C296.798 213.886 296.689 213.974 296.613 214.088H295.124L293.635 209.126C293.635 209.126 293.068 211.372 292.108 210.826C291.051 210.22 289.729 210.526 288.553 210.844L289.089 209.419L286.7 210.072L287.021 209.061L285.536 209.537C285.791 209.347 285.561 208.895 285.247 208.846C284.933 208.797 283.712 210.124 283.215 210.124C282.786 210.055 282.39 209.849 282.087 209.536C281.249 208.846 280.832 205.385 281.23 204.666C281.968 203.333 283.643 203.776 284.703 202.681C284.939 202.437 287.44 202.425 287.68 202.181C288.559 201.588 289.523 201.13 290.538 200.822C290.957 200.822 291.353 201.342 291.081 201.661C291.276 201.03 292.087 200.867 292.748 200.88C293.212 200.889 294.66 199.66 295.123 199.701C296.123 199.789 296.132 201.147 297.129 201.236C297.934 201.307 298.89 201.482 299.207 202.226C299.319 202.605 299.36 203.002 299.327 203.396C299.313 203.593 299.346 203.791 299.424 203.973C299.503 204.154 299.624 204.314 299.778 204.438C299.932 204.517 300.103 204.554 300.276 204.545C300.448 204.535 300.615 204.48 300.758 204.384C301.043 204.189 301.289 203.944 301.486 203.661C301.808 204.703 303.619 207.234 303.941 208.277C304.293 209.322 304.567 210.392 304.76 211.477C305.267 214.803 301.685 218.337 299.38 220.788" fill="#2F2E41"/>
</g>
<defs>
<clipPath id="clip0_6508_113931">
<rect width="318.785" height="415.788" fill="white"/>
</clipPath>
</defs>
</svg>
