<svg width="289" height="225" viewBox="0 0 289 225" fill="none" xmlns="http://www.w3.org/2000/svg">
<g clip-path="url(#clip0_1144_8416)">
<rect width="288.127" height="224.128" fill="#AFAEAE"/>
<path d="M0 114.227V1.84436C0.000535022 1.35537 0.195021 0.886559 0.54079 0.54079C0.886559 0.195021 1.35537 0.000535022 1.84436 0H163.044C163.533 0.000535022 164.001 0.195021 164.347 0.54079C164.693 0.886559 164.888 1.35537 164.888 1.84436V114.227C164.888 114.716 164.693 115.185 164.347 115.531C164.001 115.877 163.533 116.071 163.044 116.072H1.84436C1.35537 116.071 0.886559 115.877 0.54079 115.531C0.195021 115.185 0.000533 114.716 0 114.227Z" fill="#AFAEAE"/>
<path d="M0 114.227V1.84436C0.000535022 1.35537 0.195021 0.886559 0.54079 0.54079C0.886559 0.195021 1.35537 0.000535022 1.84436 0H163.044C163.533 0.000535022 164.001 0.195021 164.347 0.54079C164.693 0.886559 164.888 1.35537 164.888 1.84436V114.227C164.888 114.716 164.693 115.185 164.347 115.531C164.001 115.877 163.533 116.071 163.044 116.072H1.84436C1.35537 116.071 0.886559 115.877 0.54079 115.531C0.195021 115.185 0.000533 114.716 0 114.227ZM1.84436 0.737773C1.55097 0.738095 1.26968 0.854784 1.06222 1.06225C0.854754 1.26971 0.738065 1.551 0.737744 1.84439V114.227C0.738065 114.521 0.854754 114.802 1.06222 115.009C1.26968 115.217 1.55097 115.334 1.84436 115.334H163.044C163.337 115.334 163.618 115.217 163.826 115.009C164.033 114.802 164.15 114.521 164.15 114.227V1.84436C164.15 1.55097 164.033 1.26968 163.826 1.06222C163.618 0.854755 163.337 0.738065 163.044 0.737744L1.84436 0.737773Z" fill="#E6E6E6"/>
<path d="M68.4183 11.4338C68.802 11.4401 69.1678 11.5969 69.4369 11.8704C69.706 12.144 69.8568 12.5123 69.8568 12.896C69.8568 13.2797 69.706 13.6481 69.4369 13.9216C69.1678 14.1951 68.802 14.352 68.4183 14.3582H31.7559C31.5639 14.3614 31.3732 14.3267 31.1945 14.2561C31.0159 14.1855 30.853 14.0805 30.715 13.9469C30.577 13.8134 30.4666 13.654 30.3902 13.4778C30.3138 13.3016 30.2729 13.112 30.2697 12.92C30.2666 12.728 30.3013 12.5372 30.3718 12.3586C30.4424 12.18 30.5475 12.0171 30.681 11.879C30.8146 11.741 30.974 11.6307 31.1502 11.5543C31.3264 11.4779 31.5159 11.437 31.7079 11.4338C31.7239 11.4335 31.7399 11.4335 31.7559 11.4338H68.4183Z" fill="#E4E4E4"/>
<path d="M23.4422 11.0257C23.4689 11.0524 23.4901 11.0841 23.5046 11.1191C23.5191 11.154 23.5265 11.1914 23.5265 11.2292C23.5265 11.2669 23.5191 11.3044 23.5046 11.3393C23.4902 11.3742 23.469 11.4059 23.4422 11.4326L22.207 12.6678H25.2529C25.3291 12.6679 25.4021 12.6981 25.456 12.7519C25.5099 12.8057 25.5403 12.8787 25.5405 12.9549C25.5407 13.0311 25.5106 13.1042 25.457 13.1583C25.4033 13.2123 25.3304 13.2429 25.2542 13.2433H22.207L23.4422 14.4785C23.469 14.5052 23.4902 14.5369 23.5047 14.5718C23.5192 14.6067 23.5267 14.6441 23.5267 14.6819C23.5267 14.7197 23.5193 14.7571 23.5049 14.792C23.4904 14.8269 23.4693 14.8587 23.4426 14.8854C23.4159 14.9122 23.3842 14.9334 23.3493 14.9479C23.3144 14.9624 23.277 14.9698 23.2392 14.9699C23.2014 14.9699 23.164 14.9625 23.1291 14.9481C23.0942 14.9337 23.0624 14.9125 23.0357 14.8858L23.0353 14.8854L21.3089 13.159C21.2822 13.1323 21.261 13.1006 21.2465 13.0657C21.2321 13.0307 21.2246 12.9933 21.2246 12.9555C21.2246 12.9178 21.2321 12.8803 21.2465 12.8454C21.261 12.8105 21.2822 12.7788 21.3089 12.7521L23.0353 11.0257C23.0892 10.9717 23.1624 10.9414 23.2387 10.9414C23.3151 10.9414 23.3883 10.9718 23.4422 11.0257Z" fill="#E6E6E6"/>
<path d="M76.7483 11.0257C76.7216 11.0524 76.7004 11.0842 76.686 11.1191C76.6715 11.154 76.664 11.1914 76.664 11.2292C76.664 11.2669 76.6715 11.3044 76.686 11.3393C76.7004 11.3742 76.7216 11.4059 76.7483 11.4326L77.9835 12.6678H74.9377C74.8998 12.6676 74.8623 12.6749 74.8272 12.6892C74.7922 12.7036 74.7603 12.7247 74.7335 12.7513C74.7066 12.778 74.6853 12.8097 74.6707 12.8446C74.6561 12.8796 74.6485 12.917 74.6484 12.9549C74.6483 12.9927 74.6557 13.0302 74.6702 13.0652C74.6846 13.1002 74.7058 13.132 74.7325 13.1588C74.7593 13.1856 74.791 13.2069 74.826 13.2214C74.861 13.2359 74.8985 13.2433 74.9363 13.2433H77.9835L76.7483 14.4785C76.6943 14.5324 76.6639 14.6056 76.6639 14.6819C76.6638 14.7582 76.694 14.8314 76.748 14.8854C76.8019 14.9394 76.875 14.9698 76.9513 14.9699C77.0276 14.9699 77.1009 14.9397 77.1549 14.8858L77.1553 14.8854L78.8817 13.159C78.9084 13.1323 78.9296 13.1006 78.944 13.0657C78.9585 13.0307 78.9659 12.9933 78.9659 12.9555C78.9659 12.9178 78.9585 12.8803 78.944 12.8454C78.9296 12.8105 78.9084 12.7788 78.8817 12.7521L77.1553 11.0257C77.1013 10.9717 77.0281 10.9414 76.9518 10.9414C76.8755 10.9414 76.8023 10.9718 76.7483 11.0257Z" fill="#E6E6E6"/>
<path d="M68.4183 97.4494C68.802 97.4557 69.1678 97.6125 69.4369 97.886C69.706 98.1596 69.8568 98.5279 69.8568 98.9116C69.8568 99.2953 69.706 99.6637 69.4369 99.9372C69.1678 100.211 68.802 100.368 68.4183 100.374H31.7559C31.5639 100.377 31.3732 100.342 31.1945 100.272C31.0159 100.201 30.853 100.096 30.715 99.9625C30.577 99.829 30.4666 99.6696 30.3902 99.4934C30.3138 99.3172 30.2729 99.1277 30.2697 98.9356C30.2666 98.7436 30.3013 98.5529 30.3718 98.3742C30.4424 98.1956 30.5475 98.0327 30.681 97.8947C30.8146 97.7567 30.974 97.6463 31.1502 97.5699C31.3264 97.4935 31.5159 97.4526 31.7079 97.4494C31.7239 97.4492 31.7399 97.4492 31.7559 97.4494H68.4183Z" fill="#E4E4E4"/>
<path d="M148.047 41.9338C148.431 41.9401 148.797 42.0969 149.066 42.3704C149.335 42.644 149.486 43.0123 149.486 43.396C149.486 43.7797 149.335 44.1481 149.066 44.4216C148.797 44.6951 148.431 44.8519 148.047 44.8582H111.385C111.193 44.8614 111.002 44.8267 110.823 44.7561C110.645 44.6855 110.482 44.5805 110.344 44.4469C110.206 44.3134 110.096 44.1539 110.019 43.9777C109.943 43.8015 109.902 43.612 109.899 43.42C109.895 43.228 109.93 43.0372 110.001 42.8586C110.071 42.68 110.176 42.517 110.31 42.379C110.443 42.241 110.603 42.1307 110.779 42.0543C110.955 41.9779 111.145 41.9369 111.337 41.9338C111.353 41.9335 111.369 41.9335 111.385 41.9338H148.047Z" fill="#E4E4E4"/>
<path d="M148.047 52.2697C148.431 52.276 148.797 52.4328 149.066 52.7064C149.335 52.9799 149.486 53.3482 149.486 53.7319C149.486 54.1157 149.335 54.484 149.066 54.7575C148.797 55.0311 148.431 55.1879 148.047 55.1942H111.385C111.193 55.1973 111.002 55.1626 110.823 55.092C110.645 55.0215 110.482 54.9164 110.344 54.7829C110.206 54.6493 110.096 54.4899 110.019 54.3137C109.943 54.1375 109.902 53.948 109.899 53.7559C109.895 53.5639 109.93 53.3732 110.001 53.1946C110.071 53.0159 110.176 52.853 110.31 52.715C110.443 52.577 110.603 52.4666 110.779 52.3902C110.955 52.3138 111.145 52.2729 111.337 52.2697C111.353 52.2695 111.369 52.2695 111.385 52.2697H148.047Z" fill="#E4E4E4"/>
<path d="M148.045 62.6057C148.429 62.6119 148.795 62.7688 149.064 63.0423C149.333 63.3158 149.484 63.6842 149.484 64.0679C149.484 64.4516 149.333 64.8199 149.064 65.0935C148.795 65.367 148.429 65.5238 148.045 65.5301H111.383C110.995 65.5365 110.621 65.3885 110.342 65.1188C110.063 64.8491 109.903 64.4797 109.897 64.0919C109.89 63.7041 110.038 63.3296 110.308 63.0509C110.578 62.7722 110.947 62.612 111.335 62.6057C111.351 62.6054 111.367 62.6054 111.383 62.6057H148.045Z" fill="#E4E4E4"/>
<path d="M123.887 78.5846C123.887 77.5944 124.18 76.6265 124.73 75.8032C125.281 74.9799 126.062 74.3382 126.977 73.9592C127.892 73.5803 128.899 73.4811 129.87 73.6743C130.841 73.8675 131.733 74.3443 132.433 75.0445C133.133 75.7447 133.61 76.6367 133.803 77.6079C133.997 78.5791 133.898 79.5857 133.519 80.5005C133.14 81.4153 132.498 82.1972 131.675 82.7473C130.851 83.2975 129.883 83.5911 128.893 83.5911C127.565 83.5911 126.292 83.0636 125.353 82.1247C124.414 81.1858 123.887 79.9124 123.887 78.5846Z" fill="#1F2551"/>
<path d="M126.921 78.0896H128.402V76.608C128.402 76.477 128.454 76.3513 128.546 76.2585C128.639 76.1658 128.764 76.1135 128.895 76.1133C129.026 76.1131 129.152 76.1649 129.245 76.2573C129.337 76.3498 129.39 76.4753 129.39 76.6063V78.0896H130.871C131.002 78.0896 131.128 78.1416 131.221 78.2342C131.313 78.3268 131.365 78.4525 131.365 78.5834C131.365 78.7144 131.313 78.84 131.221 78.9326C131.128 79.0253 131.002 79.0773 130.871 79.0773H129.39V80.5589C129.39 80.6898 129.338 80.8155 129.245 80.9081C129.153 81.0007 129.027 81.0527 128.896 81.0527C128.765 81.0527 128.639 81.0007 128.547 80.9081C128.454 80.8155 128.402 80.6898 128.402 80.5589V79.0773H126.921C126.856 79.0774 126.791 79.0648 126.731 79.0401C126.672 79.0153 126.617 78.9791 126.571 78.9333C126.525 78.8875 126.489 78.8331 126.464 78.7733C126.439 78.7134 126.426 78.6492 126.426 78.5844C126.426 78.5195 126.438 78.4553 126.463 78.3953C126.488 78.3353 126.524 78.2808 126.57 78.2349C126.616 78.1889 126.67 78.1525 126.73 78.1275C126.79 78.1026 126.854 78.0897 126.919 78.0896L126.921 78.0896Z" fill="white"/>
<path d="M83.2071 28.9668L23.0547 78.2578L23.3664 78.6382L83.5188 29.3472L83.2071 28.9668Z" fill="#E6E6E6"/>
<path d="M23.3733 28.9564L23.0605 29.3359L83.1974 78.8917L83.5101 78.5122L23.3733 28.9564Z" fill="#E6E6E6"/>
<path d="M22.2227 77.4642V30.0026C22.2232 29.5463 22.4047 29.1087 22.7274 28.786C23.0501 28.4633 23.4877 28.2818 23.9441 28.2812H82.4717C82.9281 28.2818 83.3657 28.4633 83.6884 28.786C84.0111 29.1087 84.1926 29.5463 84.1931 30.0026V77.4642C84.1926 77.9205 84.0111 78.3581 83.6884 78.6808C83.3657 79.0035 82.9281 79.185 82.4717 79.1856H23.9441C23.4877 79.185 23.0502 79.0035 22.7275 78.6808C22.4048 78.3581 22.2232 77.9205 22.2227 77.4642ZM23.9441 28.7731C23.6181 28.7734 23.3055 28.9031 23.075 29.1336C22.8445 29.3641 22.7149 29.6767 22.7145 30.0026V77.4642C22.7149 77.7901 22.8445 78.1027 23.075 78.3332C23.3056 78.5637 23.6181 78.6933 23.9441 78.6937H82.4717C82.7977 78.6933 83.1103 78.5637 83.3408 78.3332C83.5713 78.1027 83.7009 77.7901 83.7013 77.4642V30.0026C83.7009 29.6767 83.5713 29.3641 83.3408 29.1336C83.1102 28.9031 82.7977 28.7735 82.4717 28.7731L23.9441 28.7731Z" fill="#3F3D56"/>
<path d="M15.9961 86.0735V38.612C15.9966 38.1556 16.1782 37.7181 16.5009 37.3954C16.8236 37.0727 17.2611 36.8912 17.7175 36.8906H76.2452C76.7016 36.8912 77.1391 37.0727 77.4618 37.3954C77.7845 37.7181 77.966 38.1556 77.9666 38.612V86.0735C77.966 86.5299 77.7845 86.9674 77.4618 87.2902C77.1391 87.6129 76.7016 87.7944 76.2452 87.7949H17.7175C17.2611 87.7944 16.8236 87.6129 16.5009 87.2901C16.1782 86.9674 15.9966 86.5299 15.9961 86.0735Z" fill="#1F2551"/>
<path d="M40.3047 76.1145H70.1847C70.2221 76.115 70.2594 76.112 70.2963 76.1056L56.1645 51.6273C56.0782 51.4748 55.9531 51.348 55.8017 51.2597C55.6504 51.1715 55.4784 51.125 55.3033 51.125C55.1281 51.125 54.9561 51.1715 54.8048 51.2597C54.6535 51.348 54.5283 51.4748 54.4421 51.6273L44.9578 68.0541L44.5034 68.8402L40.3047 76.1145Z" fill="white"/>
<path opacity="0.2" d="M40.3047 76.1146H50.5061L45.498 68.8406L45.1378 68.3165L44.9575 68.0547L44.5031 68.8406L40.3047 76.1146Z" fill="black"/>
<path d="M23.668 76.1117H49.5117L44.5037 68.8374L44.1433 68.3134L37.6174 58.8336C37.502 58.6887 37.3574 58.5698 37.1931 58.4845C37.0287 58.3992 36.8483 58.3493 36.6635 58.3383C36.4786 58.3272 36.2935 58.3552 36.1202 58.4203C35.9468 58.4855 35.7891 58.5863 35.6573 58.7164C35.6235 58.7534 35.5921 58.7925 35.5633 58.8336L23.668 76.1117Z" fill="white"/>
<path d="M43.1452 57.4232C45.5899 57.4232 47.5717 55.4414 47.5717 52.9968C47.5717 50.5521 45.5899 48.5703 43.1452 48.5703C40.7005 48.5703 38.7188 50.5521 38.7188 52.9968C38.7188 55.4414 40.7005 57.4232 43.1452 57.4232Z" fill="white"/>
<path d="M74.7695 40.332H69.3594V45.7422H74.7695V40.332Z" fill="#3F3D56"/>
<path d="M226.511 219.286L222.218 219.285L220.176 202.727L226.512 202.727L226.511 219.286Z" fill="#A0616A"/>
<path d="M227.604 223.45L213.762 223.45V223.274C213.762 221.846 214.33 220.475 215.34 219.465C216.35 218.454 217.721 217.887 219.15 217.887L227.604 217.887L227.604 223.45Z" fill="#2F2E41"/>
<path d="M260.624 215.762L256.517 217.009L249.75 201.759L255.813 199.918L260.624 215.762Z" fill="#A0616A"/>
<path d="M262.882 219.424L249.637 223.447L249.586 223.28C249.171 221.912 249.316 220.436 249.989 219.176C250.662 217.915 251.808 216.974 253.175 216.559L261.265 214.102L262.882 219.424Z" fill="#2F2E41"/>
<path d="M288.127 223.344H174.662V224.128H288.127V223.344Z" fill="#CACACA"/>
<path d="M217.923 63.2866C222.855 63.2866 226.853 59.2884 226.853 54.3562C226.853 49.4241 222.855 45.4258 217.923 45.4258C212.99 45.4258 208.992 49.4241 208.992 54.3562C208.992 59.2884 212.99 63.2866 217.923 63.2866Z" fill="#A0616A"/>
<path d="M258.783 202.447L249.971 206.224L229.577 158.134L227.94 211.637L219.128 211.134L209.309 127.292L210.064 122.508L243.424 129.935L243.928 156.875L258.783 202.447Z" fill="#2F2E41"/>
<path d="M207.797 51.7621C207.797 51.7621 213.588 46.4748 215.35 48.7408C217.113 51.0068 217.616 51.5103 218.624 51.5103C219.631 51.5103 222.148 54.2799 222.148 54.2799C222.148 54.2799 223.407 51.7621 224.918 53.7763C226.429 55.7906 226.68 58.8119 226.68 58.8119C226.68 58.8119 232.22 45.9712 222.4 43.4534C212.581 40.9356 205.531 48.7408 207.797 51.7621Z" fill="#2F2E41"/>
<path d="M245.692 133.968C240.908 131.873 240.767 133.517 233.859 136.234C225.157 137.314 219.626 137.452 216.864 133.842C215.733 126.674 214.807 119.8 214.235 113.264C214.117 111.917 214.014 110.583 213.928 109.263C212.921 93.8871 214.154 80.5202 219.759 69.7643L229.83 62.2109L233.116 64.5953C240.964 70.2905 239.743 79.0398 240.785 88.6804L245.692 133.968Z" fill="#E6E6E6"/>
<path opacity="0.2" d="M229.181 86.2539C229.181 86.2539 244.056 105.641 233.431 114.453C222.806 123.265 216.863 128.804 216.863 128.804C216.863 128.804 217.494 90.7859 229.181 86.2539Z" fill="black"/>
<path opacity="0.2" d="M223.408 105.639L214.233 113.261C214.115 111.914 214.012 110.58 213.926 109.26L220.135 81.4688L223.408 105.639Z" fill="black"/>
<path d="M212.672 134.373C213.199 134.104 213.66 133.724 214.024 133.258C214.387 132.792 214.644 132.253 214.777 131.677C214.909 131.101 214.914 130.503 214.79 129.925C214.667 129.347 214.418 128.804 214.061 128.332L218.73 120.362L214.579 116.344L208.143 127.691C207.391 128.343 206.905 129.247 206.775 130.234C206.645 131.22 206.882 132.22 207.44 133.043C207.998 133.867 208.839 134.457 209.804 134.702C210.768 134.947 211.788 134.83 212.672 134.373Z" fill="#A0616A"/>
<path d="M216.735 128.679L209.434 122.888L219.001 98.7178L219.218 73.5233C219.228 72.3472 219.6 71.2026 220.282 70.2446C220.965 69.2866 221.925 68.5615 223.033 68.1674C223.892 67.8619 224.812 67.7656 225.716 67.8867C226.62 68.0077 227.482 68.3426 228.231 68.8635C228.98 69.3844 229.594 70.0762 230.021 70.8818C230.449 71.6873 230.679 72.5832 230.691 73.4952L231.086 102.746L216.735 128.679Z" fill="#E6E6E6"/>
</g>
<rect width="288" height="31" transform="translate(0.226562 115.461)" fill="white"/>
<path d="M78.875 137.461H76.5859L70.9688 128.359H70.9062L70.9453 128.867C71.0182 129.836 71.0547 130.721 71.0547 131.523V137.461H69.3594V126.039H71.625L77.2266 135.094H77.2734C77.263 134.974 77.2422 134.539 77.2109 133.789C77.1797 133.034 77.1641 132.445 77.1641 132.023V126.039H78.875V137.461ZM89.3594 133.125C89.3594 134.536 88.9974 135.638 88.2734 136.43C87.5495 137.221 86.5417 137.617 85.25 137.617C84.4427 137.617 83.7292 137.435 83.1094 137.07C82.4896 136.706 82.013 136.182 81.6797 135.5C81.3464 134.818 81.1797 134.026 81.1797 133.125C81.1797 131.724 81.5391 130.63 82.2578 129.844C82.9766 129.057 83.9896 128.664 85.2969 128.664C86.5469 128.664 87.5365 129.068 88.2656 129.875C88.9948 130.677 89.3594 131.76 89.3594 133.125ZM83.0703 133.125C83.0703 135.12 83.8073 136.117 85.2812 136.117C86.7396 136.117 87.4688 135.12 87.4688 133.125C87.4688 131.151 86.7344 130.164 85.2656 130.164C84.4948 130.164 83.9349 130.419 83.5859 130.93C83.2422 131.44 83.0703 132.172 83.0703 133.125ZM95.8281 137.461V126.039H97.6953V137.461H95.8281ZM107.805 137.461H105.961V132.133C105.961 131.471 105.836 130.979 105.586 130.656C105.336 130.328 104.945 130.164 104.414 130.164C103.706 130.164 103.185 130.396 102.852 130.859C102.523 131.318 102.359 132.083 102.359 133.156V137.461H100.523V128.82H101.961L102.219 129.953H102.312C102.552 129.542 102.898 129.224 103.352 129C103.81 128.776 104.312 128.664 104.859 128.664C106.188 128.664 107.068 129.117 107.5 130.023H107.625C107.88 129.596 108.24 129.263 108.703 129.023C109.167 128.784 109.698 128.664 110.297 128.664C111.328 128.664 112.078 128.924 112.547 129.445C113.021 129.966 113.258 130.76 113.258 131.828V137.461H111.422V132.133C111.422 131.471 111.294 130.979 111.039 130.656C110.789 130.328 110.398 130.164 109.867 130.164C109.154 130.164 108.63 130.388 108.297 130.836C107.969 131.279 107.805 131.961 107.805 132.883V137.461ZM121.227 137.461L120.859 136.258H120.797C120.38 136.784 119.961 137.143 119.539 137.336C119.117 137.523 118.576 137.617 117.914 137.617C117.065 137.617 116.401 137.388 115.922 136.93C115.448 136.471 115.211 135.823 115.211 134.984C115.211 134.094 115.542 133.422 116.203 132.969C116.865 132.516 117.872 132.268 119.227 132.227L120.719 132.18V131.719C120.719 131.167 120.589 130.755 120.328 130.484C120.073 130.208 119.674 130.07 119.133 130.07C118.69 130.07 118.266 130.135 117.859 130.266C117.453 130.396 117.062 130.549 116.688 130.727L116.094 129.414C116.562 129.169 117.076 128.984 117.633 128.859C118.19 128.729 118.716 128.664 119.211 128.664C120.31 128.664 121.138 128.904 121.695 129.383C122.258 129.862 122.539 130.615 122.539 131.641V137.461H121.227ZM118.492 136.211C119.159 136.211 119.693 136.026 120.094 135.656C120.5 135.281 120.703 134.758 120.703 134.086V133.336L119.594 133.383C118.729 133.414 118.099 133.56 117.703 133.82C117.312 134.076 117.117 134.469 117.117 135C117.117 135.385 117.232 135.685 117.461 135.898C117.69 136.107 118.034 136.211 118.492 136.211ZM132.398 128.82V129.828L130.922 130.102C131.057 130.284 131.169 130.508 131.258 130.773C131.346 131.039 131.391 131.32 131.391 131.617C131.391 132.508 131.083 133.208 130.469 133.719C129.854 134.229 129.008 134.484 127.93 134.484C127.654 134.484 127.404 134.464 127.18 134.422C126.784 134.667 126.586 134.953 126.586 135.281C126.586 135.479 126.677 135.628 126.859 135.727C127.047 135.826 127.388 135.875 127.883 135.875H129.391C130.344 135.875 131.068 136.078 131.562 136.484C132.057 136.891 132.305 137.477 132.305 138.242C132.305 139.221 131.901 139.977 131.094 140.508C130.286 141.039 129.12 141.305 127.594 141.305C126.417 141.305 125.518 141.096 124.898 140.68C124.279 140.263 123.969 139.669 123.969 138.898C123.969 138.367 124.135 137.919 124.469 137.555C124.807 137.195 125.279 136.945 125.883 136.805C125.638 136.701 125.435 136.534 125.273 136.305C125.117 136.07 125.039 135.826 125.039 135.57C125.039 135.247 125.13 134.974 125.312 134.75C125.495 134.526 125.766 134.305 126.125 134.086C125.677 133.893 125.312 133.581 125.031 133.148C124.755 132.711 124.617 132.201 124.617 131.617C124.617 130.68 124.911 129.953 125.5 129.438C126.094 128.922 126.938 128.664 128.031 128.664C128.276 128.664 128.531 128.682 128.797 128.719C129.068 128.75 129.271 128.784 129.406 128.82H132.398ZM125.609 138.805C125.609 139.201 125.786 139.505 126.141 139.719C126.5 139.932 127.003 140.039 127.648 140.039C128.648 140.039 129.393 139.896 129.883 139.609C130.372 139.323 130.617 138.943 130.617 138.469C130.617 138.094 130.482 137.826 130.211 137.664C129.945 137.508 129.448 137.43 128.719 137.43H127.328C126.802 137.43 126.383 137.552 126.07 137.797C125.763 138.047 125.609 138.383 125.609 138.805ZM126.398 131.617C126.398 132.159 126.536 132.576 126.812 132.867C127.094 133.159 127.495 133.305 128.016 133.305C129.078 133.305 129.609 132.737 129.609 131.602C129.609 131.039 129.477 130.607 129.211 130.305C128.951 129.997 128.552 129.844 128.016 129.844C127.484 129.844 127.081 129.995 126.805 130.297C126.534 130.599 126.398 131.039 126.398 131.617ZM137.781 137.617C136.438 137.617 135.385 137.227 134.625 136.445C133.87 135.659 133.492 134.578 133.492 133.203C133.492 131.792 133.844 130.682 134.547 129.875C135.25 129.068 136.216 128.664 137.445 128.664C138.586 128.664 139.487 129.01 140.148 129.703C140.81 130.396 141.141 131.349 141.141 132.562V133.555H135.383C135.409 134.393 135.635 135.039 136.062 135.492C136.49 135.94 137.091 136.164 137.867 136.164C138.378 136.164 138.852 136.117 139.289 136.023C139.732 135.924 140.206 135.763 140.711 135.539V137.031C140.263 137.245 139.81 137.396 139.352 137.484C138.893 137.573 138.37 137.617 137.781 137.617ZM137.445 130.055C136.862 130.055 136.393 130.24 136.039 130.609C135.69 130.979 135.482 131.518 135.414 132.227H139.336C139.326 131.513 139.154 130.974 138.82 130.609C138.487 130.24 138.029 130.055 137.445 130.055ZM156.531 126.039V133.43C156.531 134.273 156.349 135.013 155.984 135.648C155.625 136.279 155.102 136.766 154.414 137.109C153.732 137.448 152.914 137.617 151.961 137.617C150.544 137.617 149.443 137.242 148.656 136.492C147.87 135.742 147.477 134.711 147.477 133.398V126.039H149.352V133.266C149.352 134.208 149.57 134.904 150.008 135.352C150.445 135.799 151.117 136.023 152.023 136.023C153.784 136.023 154.664 135.099 154.664 133.25V126.039H156.531ZM163.641 137.617C162.547 137.617 161.698 137.224 161.094 136.438H160.984C161.057 137.167 161.094 137.609 161.094 137.766V141.305H159.258V128.82H160.742C160.784 128.982 160.87 129.367 161 129.977H161.094C161.667 129.102 162.526 128.664 163.672 128.664C164.75 128.664 165.589 129.055 166.188 129.836C166.792 130.617 167.094 131.714 167.094 133.125C167.094 134.536 166.786 135.638 166.172 136.43C165.562 137.221 164.719 137.617 163.641 137.617ZM163.195 130.164C162.466 130.164 161.932 130.378 161.594 130.805C161.26 131.232 161.094 131.914 161.094 132.852V133.125C161.094 134.177 161.26 134.94 161.594 135.414C161.927 135.883 162.471 136.117 163.227 136.117C163.862 136.117 164.352 135.857 164.695 135.336C165.039 134.815 165.211 134.073 165.211 133.109C165.211 132.141 165.039 131.409 164.695 130.914C164.357 130.414 163.857 130.164 163.195 130.164ZM171.062 137.461H169.227V125.305H171.062V137.461ZM181.359 133.125C181.359 134.536 180.997 135.638 180.273 136.43C179.549 137.221 178.542 137.617 177.25 137.617C176.443 137.617 175.729 137.435 175.109 137.07C174.49 136.706 174.013 136.182 173.68 135.5C173.346 134.818 173.18 134.026 173.18 133.125C173.18 131.724 173.539 130.63 174.258 129.844C174.977 129.057 175.99 128.664 177.297 128.664C178.547 128.664 179.536 129.068 180.266 129.875C180.995 130.677 181.359 131.76 181.359 133.125ZM175.07 133.125C175.07 135.12 175.807 136.117 177.281 136.117C178.74 136.117 179.469 135.12 179.469 133.125C179.469 131.151 178.734 130.164 177.266 130.164C176.495 130.164 175.935 130.419 175.586 130.93C175.242 131.44 175.07 132.172 175.07 133.125ZM188.883 137.461L188.516 136.258H188.453C188.036 136.784 187.617 137.143 187.195 137.336C186.773 137.523 186.232 137.617 185.57 137.617C184.721 137.617 184.057 137.388 183.578 136.93C183.104 136.471 182.867 135.823 182.867 134.984C182.867 134.094 183.198 133.422 183.859 132.969C184.521 132.516 185.529 132.268 186.883 132.227L188.375 132.18V131.719C188.375 131.167 188.245 130.755 187.984 130.484C187.729 130.208 187.331 130.07 186.789 130.07C186.346 130.07 185.922 130.135 185.516 130.266C185.109 130.396 184.719 130.549 184.344 130.727L183.75 129.414C184.219 129.169 184.732 128.984 185.289 128.859C185.846 128.729 186.372 128.664 186.867 128.664C187.966 128.664 188.794 128.904 189.352 129.383C189.914 129.862 190.195 130.615 190.195 131.641V137.461H188.883ZM186.148 136.211C186.815 136.211 187.349 136.026 187.75 135.656C188.156 135.281 188.359 134.758 188.359 134.086V133.336L187.25 133.383C186.385 133.414 185.755 133.56 185.359 133.82C184.969 134.076 184.773 134.469 184.773 135C184.773 135.385 184.888 135.685 185.117 135.898C185.346 136.107 185.69 136.211 186.148 136.211ZM195.672 137.617C194.594 137.617 193.753 137.227 193.148 136.445C192.544 135.664 192.242 134.568 192.242 133.156C192.242 131.74 192.547 130.638 193.156 129.852C193.771 129.06 194.62 128.664 195.703 128.664C196.839 128.664 197.703 129.083 198.297 129.922H198.391C198.302 129.302 198.258 128.812 198.258 128.453V125.305H200.102V137.461H198.664L198.344 136.328H198.258C197.669 137.188 196.807 137.617 195.672 137.617ZM196.164 136.133C196.919 136.133 197.469 135.922 197.812 135.5C198.156 135.073 198.333 134.383 198.344 133.43V133.172C198.344 132.083 198.167 131.31 197.812 130.852C197.458 130.393 196.904 130.164 196.148 130.164C195.503 130.164 195.005 130.427 194.656 130.953C194.307 131.474 194.133 132.219 194.133 133.188C194.133 134.146 194.302 134.878 194.641 135.383C194.979 135.883 195.487 136.133 196.164 136.133ZM206.5 137.617C205.156 137.617 204.104 137.227 203.344 136.445C202.589 135.659 202.211 134.578 202.211 133.203C202.211 131.792 202.562 130.682 203.266 129.875C203.969 129.068 204.935 128.664 206.164 128.664C207.305 128.664 208.206 129.01 208.867 129.703C209.529 130.396 209.859 131.349 209.859 132.562V133.555H204.102C204.128 134.393 204.354 135.039 204.781 135.492C205.208 135.94 205.81 136.164 206.586 136.164C207.096 136.164 207.57 136.117 208.008 136.023C208.451 135.924 208.924 135.763 209.43 135.539V137.031C208.982 137.245 208.529 137.396 208.07 137.484C207.612 137.573 207.089 137.617 206.5 137.617ZM206.164 130.055C205.581 130.055 205.112 130.24 204.758 130.609C204.409 130.979 204.201 131.518 204.133 132.227H208.055C208.044 131.513 207.872 130.974 207.539 130.609C207.206 130.24 206.747 130.055 206.164 130.055ZM214.859 137.617C213.781 137.617 212.94 137.227 212.336 136.445C211.732 135.664 211.43 134.568 211.43 133.156C211.43 131.74 211.734 130.638 212.344 129.852C212.958 129.06 213.807 128.664 214.891 128.664C216.026 128.664 216.891 129.083 217.484 129.922H217.578C217.49 129.302 217.445 128.812 217.445 128.453V125.305H219.289V137.461H217.852L217.531 136.328H217.445C216.857 137.188 215.995 137.617 214.859 137.617ZM215.352 136.133C216.107 136.133 216.656 135.922 217 135.5C217.344 135.073 217.521 134.383 217.531 133.43V133.172C217.531 132.083 217.354 131.31 217 130.852C216.646 130.393 216.091 130.164 215.336 130.164C214.69 130.164 214.193 130.427 213.844 130.953C213.495 131.474 213.32 132.219 213.32 133.188C213.32 134.146 213.49 134.878 213.828 135.383C214.167 135.883 214.674 136.133 215.352 136.133Z" fill="#1F2551"/>
<defs>
<clipPath id="clip0_1144_8416">
<rect width="288.127" height="224.128" fill="white"/>
</clipPath>
</defs>
</svg>
