<svg width="200" height="260" viewBox="0 0 200 260" fill="none" xmlns="http://www.w3.org/2000/svg">
<g clip-path="url(#clip0_322_14056)">
<path d="M103.881 0H24.0463C11.919 0 2.08789 9.79877 2.08789 21.8862V202.859C2.08789 214.946 11.919 224.745 24.0463 224.745H103.881C116.009 224.745 125.84 214.946 125.84 202.859V21.8862C125.84 9.79877 116.009 0 103.881 0Z" fill="#3F3D56"/>
<path d="M123.752 22.2218V202.526C123.746 207.865 121.615 212.984 117.827 216.76C114.039 220.536 108.903 222.66 103.546 222.666H24.3825C19.0252 222.66 13.8892 220.536 10.101 216.76C6.31282 212.984 4.18193 207.865 4.17578 202.526V22.2218C4.18193 16.8822 6.31282 11.763 10.101 7.98725C13.8892 4.21155 19.0252 2.08767 24.3825 2.08154H34.7343V5.64586C34.7345 7.25931 35.3776 8.80663 36.5223 9.94752C37.6669 11.0884 39.2193 11.7294 40.8381 11.7296H87.09C88.7087 11.7294 90.2612 11.0884 91.4058 9.94752C92.5505 8.80663 93.1936 7.25931 93.1938 5.64586V2.08154H103.546C108.903 2.08767 114.039 4.21155 117.827 7.98725C121.615 11.763 123.746 16.8822 123.752 22.2218Z" fill="white"/>
<path d="M27.1162 156.236C25.8226 155.654 24.3796 156.97 25.3395 158.202C23.695 159.651 21.71 160.663 19.5685 161.144C17.4271 161.625 15.1985 161.559 13.0892 160.953C12.9857 161.203 12.8772 161.447 12.7655 161.693C11.0997 165.37 8.71349 168.679 5.74698 171.424C9.65244 168.187 14.4676 170.924 18.6046 171.987C18.8862 172.035 19.1477 172.164 19.357 172.357C19.5664 172.551 19.7146 172.802 19.7834 173.078C19.8523 173.354 19.8389 173.645 19.7449 173.914C19.6508 174.183 19.4802 174.419 19.2539 174.592C18.7256 174.398 18.1792 174.256 17.6227 174.17C17.3604 174.13 17.0922 174.172 16.8549 174.29C16.6177 174.409 16.4231 174.598 16.2981 174.831C16.173 175.064 16.1236 175.33 16.1567 175.593C16.1898 175.855 16.3037 176.101 16.4827 176.296C14.3051 177.282 11.896 177.648 9.52226 177.354C7.14858 177.06 4.90297 176.116 3.03418 174.628V172.86C6.97306 169.847 10.1152 165.922 12.1883 161.426C12.9166 159.846 13.5056 158.207 13.9487 156.526C14.433 154.687 14.7315 152.805 14.8396 150.907C14.4627 149.852 14.3206 148.728 14.4232 147.613C14.5257 146.497 14.8706 145.418 15.4338 144.448C15.9244 145.336 17.3379 145.566 17.4859 144.334C17.5179 143.837 17.5418 143.341 17.5706 142.847C22.8977 142.437 21.988 149.872 15.4708 151.034C15.3437 152.944 15.033 154.837 14.5429 156.687C14.4977 156.875 14.4475 157.054 14.3942 157.237C15.5854 155.615 17.1458 154.298 18.9471 153.394C20.668 152.591 22.6725 152.419 24.5841 152.11C25.0987 152.024 25.6273 152.093 26.102 152.309C26.5767 152.525 26.9758 152.877 27.248 153.32C27.5203 153.764 27.6532 154.279 27.6297 154.798C27.6062 155.318 27.4274 155.818 27.1162 156.236Z" fill="#F2F2F2"/>
<path d="M1.51827 45.5921C1.11576 45.5916 0.729866 45.432 0.445244 45.1483C0.160622 44.8647 0.000498061 44.48 0 44.0788V41.0517C0 40.6502 0.159996 40.2653 0.444785 39.9814C0.729574 39.6976 1.11583 39.5381 1.51858 39.5381C1.92133 39.5381 2.30759 39.6976 2.59237 39.9814C2.87716 40.2653 3.03716 40.6502 3.03716 41.0517V44.0813C3.036 44.4822 2.87551 44.8663 2.59082 45.1494C2.30614 45.4326 1.92046 45.5918 1.51827 45.5921Z" fill="#3F3D56"/>
<path d="M1.51827 61.113C1.11576 61.1125 0.729866 60.9529 0.445244 60.6692C0.160622 60.3855 0.000498061 60.0009 0 59.5997V51.268C0 50.8666 0.159996 50.4815 0.444785 50.1977C0.729574 49.9138 1.11583 49.7544 1.51858 49.7544C1.92133 49.7544 2.30759 49.9138 2.59237 50.1977C2.87716 50.4815 3.03716 50.8666 3.03716 51.268V59.5997C3.03666 60.0009 2.87656 60.3855 2.59193 60.6692C2.30731 60.9529 1.92142 61.1125 1.5189 61.113H1.51827Z" fill="#3F3D56"/>
<path d="M1.51827 73.5907C1.11576 73.5902 0.729866 73.4306 0.445244 73.1469C0.160622 72.8632 0.000498061 72.4786 0 72.0774V63.745C0 63.3436 0.159996 62.9586 0.444785 62.6748C0.729574 62.3909 1.11583 62.2314 1.51858 62.2314C1.92133 62.2314 2.30759 62.3909 2.59237 62.6748C2.87716 62.9586 3.03716 63.3436 3.03716 63.745V72.0768C3.03683 72.4782 2.87669 72.8631 2.59191 73.1469C2.30714 73.4307 1.92101 73.5903 1.51827 73.5907Z" fill="#3F3D56"/>
<path d="M126.029 66.7802C125.626 66.7797 125.241 66.6201 124.956 66.3364C124.671 66.0527 124.511 65.6681 124.511 65.2669V44.9359C124.511 44.5345 124.671 44.1495 124.956 43.8657C125.24 43.5818 125.627 43.4224 126.029 43.4224C126.432 43.4224 126.818 43.5818 127.103 43.8657C127.388 44.1495 127.548 44.5345 127.548 44.9359V65.2663C127.547 65.6675 127.387 66.0521 127.103 66.3358C126.818 66.6195 126.432 66.7791 126.03 66.7796L126.029 66.7802Z" fill="#3F3D56"/>
<path d="M67.2258 6.9417H55.458C55.3313 6.94495 55.2053 6.92289 55.0873 6.87682C54.9694 6.83075 54.8618 6.7616 54.7711 6.67345C54.6803 6.5853 54.6082 6.47994 54.559 6.36358C54.5097 6.24721 54.4844 6.1222 54.4844 5.99591C54.4844 5.86962 54.5097 5.7446 54.559 5.62823C54.6082 5.51187 54.6803 5.40651 54.7711 5.31836C54.8618 5.23021 54.9694 5.16107 55.0873 5.115C55.2053 5.06893 55.3313 5.04687 55.458 5.05012H67.2258C67.4732 5.05646 67.7084 5.15888 67.8812 5.33556C68.054 5.51224 68.1506 5.7492 68.1506 5.99591C68.1506 6.24262 68.054 6.47958 67.8812 6.65626C67.7084 6.83294 67.4732 6.93536 67.2258 6.9417Z" fill="white"/>
<path d="M73.3001 6.75204C73.7194 6.75204 74.0593 6.41328 74.0593 5.99541C74.0593 5.57753 73.7194 5.23877 73.3001 5.23877C72.8809 5.23877 72.541 5.57753 72.541 5.99541C72.541 6.41328 72.8809 6.75204 73.3001 6.75204Z" fill="white"/>
<path d="M67.8198 200.081H30.4039C19.6205 200.066 10.8811 188.826 10.8691 174.953V126.825C10.8811 112.954 19.6205 101.712 30.4039 101.697H67.8198C78.6038 101.712 87.3426 112.953 87.3546 126.825V174.955C87.3426 188.826 78.6038 200.068 67.8198 200.083V200.081ZM30.4039 104.47C20.8094 104.484 13.0349 114.485 13.0255 126.827V174.957C13.0368 187.298 20.8113 197.299 30.4039 197.314H67.8198C77.4143 197.299 85.1894 187.299 85.1982 174.957V126.825C85.1869 114.484 77.4124 104.483 67.8198 104.468L30.4039 104.47Z" fill="#E6E6E6"/>
<path d="M30.2116 11.0001H19.9621C19.4587 11.0001 18.9759 10.8008 18.6199 10.446C18.2639 10.0912 18.064 9.60997 18.064 9.10821C18.064 8.60645 18.2639 8.12523 18.6199 7.77043C18.9759 7.41563 19.4587 7.21631 19.9621 7.21631H30.2116C30.7151 7.21631 31.1979 7.41563 31.5538 7.77043C31.9098 8.12523 32.1098 8.60645 32.1098 9.10821C32.1098 9.60997 31.9098 10.0912 31.5538 10.446C31.1979 10.8008 30.7151 11.0001 30.2116 11.0001Z" fill="#E6E6E6"/>
<path d="M97.4012 10.8108C98.3447 10.8108 99.1096 10.0484 99.1096 9.10802C99.1096 8.16762 98.3447 7.40527 97.4012 7.40527C96.4577 7.40527 95.6929 8.16762 95.6929 9.10802C95.6929 10.0484 96.4577 10.8108 97.4012 10.8108Z" fill="#E6E6E6"/>
<path d="M102.717 10.8112C103.66 10.8112 104.425 10.0489 104.425 9.1085C104.425 8.16811 103.66 7.40576 102.717 7.40576C101.773 7.40576 101.008 8.16811 101.008 9.1085C101.008 10.0489 101.773 10.8112 102.717 10.8112Z" fill="#E6E6E6"/>
<path d="M108.03 10.8108C108.974 10.8108 109.738 10.0484 109.738 9.10802C109.738 8.16762 108.974 7.40527 108.03 7.40527C107.087 7.40527 106.322 8.16762 106.322 9.10802C106.322 10.0484 107.087 10.8108 108.03 10.8108Z" fill="#E6E6E6"/>
<path d="M30.2337 188.055C34.6363 188.055 38.2052 184.498 38.2052 180.11C38.2052 175.722 34.6363 172.165 30.2337 172.165C25.8312 172.165 22.2622 175.722 22.2622 180.11C22.2622 184.498 25.8312 188.055 30.2337 188.055Z" fill="#CCCCCC"/>
<path d="M79.6997 33.2108H79.6878C79.4941 33.2122 79.3088 33.2895 79.1717 33.4259C79.0347 33.5622 78.9568 33.7468 78.955 33.9399V37.2141C78.955 37.5927 78.8041 37.9558 78.5355 38.2235C78.2669 38.4913 77.9026 38.6416 77.5227 38.6416C77.1428 38.6416 76.7785 38.4913 76.5099 38.2235C76.2413 37.9558 76.0904 37.5927 76.0904 37.2141V33.9399C76.089 33.7477 76.0121 33.5637 75.8764 33.4272C75.7406 33.2908 75.5567 33.2126 75.3639 33.2095H75.3457C75.2504 33.2088 75.156 33.2276 75.0682 33.2647C74.9805 33.3018 74.9013 33.3564 74.8356 33.4252C74.7662 33.4917 74.7112 33.5717 74.6739 33.6602C74.6367 33.7487 74.6181 33.8439 74.6192 33.9399V37.2141C74.6192 37.9817 74.9251 38.7178 75.4697 39.2606C76.0143 39.8034 76.7529 40.1083 77.523 40.1083C78.2932 40.1083 79.0318 39.8034 79.5763 39.2606C80.1209 38.7178 80.4269 37.9817 80.4269 37.2141V33.9399C80.428 33.8439 80.4094 33.7487 80.3722 33.6602C80.3349 33.5717 80.2799 33.4917 80.2104 33.4252C80.1455 33.3554 80.0664 33.3001 79.9783 33.2631C79.8902 33.2261 79.7953 33.2082 79.6997 33.2108Z" fill="#0F1F54"/>
<path d="M87.899 33.2103C87.4906 33.1828 87.0816 33.2546 86.7071 33.4194C86.3326 33.5842 86.0038 33.8371 85.749 34.1564C85.4926 33.8373 85.1626 33.5847 84.7872 33.42C84.4117 33.2552 84.002 33.1833 83.5927 33.2103C82.8277 33.2116 82.0944 33.5151 81.5535 34.0543C81.0125 34.5934 80.7081 35.3243 80.7067 36.0868V39.3797C80.7045 39.475 80.7226 39.5697 80.7599 39.6575C80.7972 39.7452 80.8529 39.8241 80.9232 39.8887C80.989 39.9575 81.0683 40.0122 81.1561 40.0493C81.2439 40.0864 81.3385 40.1052 81.4339 40.1045H81.4521C81.5473 40.1051 81.6418 40.0863 81.7295 40.0492C81.8172 40.0121 81.8964 39.9575 81.9621 39.8887C82.0324 39.8241 82.0881 39.7453 82.1254 39.6575C82.1628 39.5697 82.1809 39.475 82.1786 39.3797V36.0874C82.1786 35.7128 82.3279 35.3535 82.5937 35.0886C82.8595 34.8236 83.2199 34.6748 83.5958 34.6748C83.9717 34.6748 84.3322 34.8236 84.598 35.0886C84.8638 35.3535 85.0131 35.7128 85.0131 36.0874V39.3797C85.0109 39.475 85.029 39.5697 85.0663 39.6575C85.1036 39.7452 85.1593 39.824 85.2295 39.8887C85.2962 39.9579 85.3765 40.0127 85.4653 40.0498C85.5541 40.087 85.6496 40.1055 85.7459 40.1045H85.7578C85.9495 40.1014 86.1325 40.0241 86.2681 39.889C86.4037 39.7538 86.4812 39.5714 86.4843 39.3803V36.088C86.4843 35.7125 86.6339 35.3525 86.9003 35.087C87.1667 34.8215 87.528 34.6723 87.9047 34.6723C88.2814 34.6723 88.6427 34.8215 88.909 35.087C89.1754 35.3525 89.3251 35.7125 89.3251 36.088V39.3797C89.3282 39.5708 89.4057 39.7532 89.5413 39.8884C89.6769 40.0235 89.8599 40.1008 90.0516 40.1038H90.0635C90.1598 40.1049 90.2553 40.0863 90.3441 40.0492C90.4329 40.0121 90.5131 39.9573 90.5798 39.8881C90.6479 39.8221 90.7017 39.7428 90.7378 39.6553C90.7739 39.5677 90.7917 39.4737 90.79 39.3791V36.0868C90.7887 35.3243 90.4842 34.5934 89.9433 34.0543C89.4023 33.5151 88.669 33.2116 87.9041 33.2103H87.899Z" fill="#0F1F54"/>
<path d="M94.5277 33.21C93.6128 33.2115 92.7355 33.5736 92.0874 34.2173C91.4393 34.8611 91.073 35.7342 91.0684 36.6461V41.8419C91.0714 42.033 91.149 42.2154 91.2846 42.3506C91.4201 42.4857 91.6032 42.563 91.7949 42.566H91.8131C92.0049 42.5631 92.1881 42.4859 92.3238 42.3508C92.4595 42.2156 92.5371 42.0331 92.5402 41.8419V39.5045C93.1065 39.9406 93.814 40.1536 94.5277 40.1029C95.4371 40.0907 96.305 39.7221 96.9437 39.0768C97.5824 38.4316 97.9405 37.5616 97.9405 36.6552C97.9405 35.7488 97.5824 34.8788 96.9437 34.2335C96.305 33.5883 95.4371 33.2197 94.5277 33.2075V33.21ZM95.9331 38.0468C95.6071 38.3725 95.178 38.5754 94.7187 38.6209C94.2595 38.6664 93.7986 38.5517 93.4148 38.2964C93.0309 38.0411 92.7477 37.6609 92.6136 37.2208C92.4796 36.7807 92.5028 36.3078 92.6795 35.8828C92.8561 35.4578 93.1752 35.1071 93.5823 34.8904C93.9893 34.6738 94.4593 34.6045 94.9118 34.6946C95.3644 34.7847 95.7716 35.0284 96.064 35.3843C96.3564 35.7402 96.5159 36.1861 96.5153 36.6461C96.5192 36.9068 96.4694 37.1656 96.369 37.4064C96.2687 37.6472 96.1199 37.865 95.9318 38.0462L95.9331 38.0468Z" fill="#0F1F54"/>
<path d="M101.803 33.9524V33.9392C101.804 33.8438 101.786 33.7491 101.75 33.6607C101.714 33.5723 101.66 33.492 101.592 33.4246C101.526 33.3554 101.445 33.3006 101.357 33.2635C101.268 33.2264 101.172 33.2078 101.076 33.2088H100.733C100.385 33.2031 100.039 33.2686 99.7162 33.4015C99.3939 33.5343 99.1023 33.7316 98.8595 33.9811C98.6121 34.2254 98.4161 34.5164 98.283 34.8371C98.15 35.1579 98.0825 35.5019 98.0847 35.849V39.3795C98.0824 39.4748 98.1005 39.5695 98.1378 39.6573C98.1751 39.7451 98.2308 39.8239 98.3011 39.8885C98.3669 39.9574 98.4461 40.0121 98.534 40.0492C98.6218 40.0863 98.7164 40.1051 98.8118 40.1043H98.83C98.9254 40.105 99.0199 40.0862 99.1078 40.0491C99.1956 40.012 99.2749 39.9573 99.3407 39.8885C99.411 39.8239 99.4667 39.7451 99.504 39.6573C99.5413 39.5695 99.5594 39.4748 99.5571 39.3795V35.8477C99.5558 35.6932 99.5855 35.5401 99.6443 35.3972C99.7031 35.2542 99.7899 35.1245 99.8997 35.0154C100.008 34.9046 100.138 34.8171 100.282 34.7584C100.425 34.6997 100.58 34.6709 100.735 34.674H101.077C101.174 34.675 101.269 34.6564 101.358 34.6193C101.447 34.5822 101.527 34.5274 101.594 34.4583C101.661 34.3924 101.714 34.3137 101.75 34.2267C101.786 34.1397 101.804 34.0464 101.803 33.9524Z" fill="#0F1F54"/>
<path d="M107.398 36.8317C107.243 36.8218 107.089 36.8652 106.962 36.9545C106.836 37.0438 106.743 37.1737 106.701 37.3226C106.569 37.7081 106.319 38.0428 105.987 38.2799C105.649 38.5271 105.24 38.6587 104.822 38.6551C104.556 38.677 104.288 38.6364 104.041 38.5366C103.794 38.4368 103.574 38.2806 103.398 38.0805C103.594 37.9887 104.259 37.6875 105.392 37.1769C106.305 36.7658 107.042 36.4346 107.602 36.1832C107.691 36.146 107.772 36.0905 107.838 36.0204C107.904 35.9503 107.955 35.8671 107.987 35.7762C108.022 35.6869 108.038 35.5912 108.034 35.4953C108.03 35.3994 108.006 35.3055 107.963 35.2196C107.753 34.7606 107.444 34.3532 107.058 34.0262C106.672 33.6993 106.22 33.4607 105.731 33.3274C105.243 33.1942 104.731 33.1694 104.232 33.2549C103.733 33.3405 103.259 33.5342 102.844 33.8224C102.428 34.1106 102.081 34.4863 101.827 34.9229C101.573 35.3595 101.419 35.8463 101.375 36.349C101.33 36.8517 101.397 37.3579 101.571 37.8319C101.744 38.3059 102.02 38.7362 102.379 39.0922C102.793 39.5035 103.304 39.8036 103.865 39.9647C104.427 40.1258 105.02 40.1426 105.59 40.0135C106.159 39.8844 106.687 39.6135 107.123 39.2263C107.559 38.8391 107.89 38.3481 108.085 37.7991C108.116 37.7167 108.132 37.6295 108.133 37.5414C108.131 37.3965 108.082 37.256 107.994 37.1406C107.929 37.043 107.84 36.9634 107.736 36.9094C107.632 36.8554 107.515 36.8286 107.398 36.8317ZM102.833 36.676C102.831 36.415 102.881 36.1561 102.98 35.9145C103.079 35.6729 103.226 35.4533 103.41 35.2684C103.595 35.0835 103.815 34.9371 104.057 34.8376C104.299 34.7381 104.559 34.6875 104.821 34.6887C105.074 34.6682 105.329 34.7049 105.566 34.796C105.803 34.8872 106.017 35.0305 106.19 35.2152L102.833 36.716V36.676Z" fill="#0F1F54"/>
<path d="M114.737 37.1431C114.672 37.0451 114.584 36.965 114.48 36.9103C114.376 36.8556 114.26 36.8281 114.142 36.8305C113.987 36.8206 113.834 36.864 113.707 36.9533C113.58 37.0426 113.488 37.1725 113.446 37.3214C113.313 37.7069 113.064 38.0417 112.731 38.2787C112.394 38.5259 111.985 38.6576 111.566 38.6539C111.3 38.6758 111.033 38.6352 110.786 38.5354C110.538 38.4356 110.318 38.2794 110.142 38.0792C110.339 37.9875 111.003 37.6863 112.136 37.1756C113.049 36.7646 113.786 36.4334 114.347 36.182C114.436 36.1448 114.516 36.0893 114.582 36.0192C114.648 35.9491 114.699 35.8658 114.731 35.7749C114.762 35.6951 114.778 35.6103 114.779 35.5248C114.778 35.4189 114.754 35.3146 114.707 35.2196C114.43 34.621 113.987 34.1136 113.431 33.7573C112.874 33.4009 112.227 33.2103 111.566 33.208C110.932 33.2086 110.311 33.3827 109.77 33.7114C109.229 34.0401 108.789 34.5107 108.498 35.0718C108.208 35.6329 108.077 36.2628 108.121 36.8928C108.165 37.5228 108.382 38.1286 108.749 38.6439C109.115 39.1593 109.616 39.5644 110.198 39.815C110.779 40.0655 111.419 40.152 112.046 40.0648C112.674 39.9776 113.265 39.7201 113.756 39.3205C114.247 38.9209 114.618 38.3946 114.828 37.7991C114.859 37.7166 114.875 37.6294 114.876 37.5415C114.873 37.3973 114.824 37.2578 114.737 37.1431ZM109.578 36.676C109.576 36.4149 109.626 36.1561 109.725 35.9145C109.824 35.6728 109.97 35.4532 110.155 35.2684C110.34 35.0835 110.56 34.9371 110.802 34.8376C111.044 34.7381 111.304 34.6875 111.566 34.6888C111.819 34.6683 112.074 34.705 112.311 34.7962C112.548 34.8873 112.761 35.0306 112.935 35.2153L109.578 36.716V36.676Z" fill="#0F1F54"/>
<path d="M74.3362 33.9153C74.3358 33.7384 74.2725 33.5673 74.1577 33.4322C74.0429 33.2972 73.8839 33.207 73.7088 33.1775C73.6141 33.158 73.5162 33.1597 73.4221 33.1825L69.8122 34.0623C69.6412 34.1045 69.4938 34.2124 69.4024 34.3625C69.3109 34.5126 69.2828 34.6926 69.3241 34.8633C69.3664 35.0338 69.4747 35.1806 69.6253 35.2718C69.7758 35.3629 69.9565 35.391 70.1277 35.3498L72.8324 34.6901L72.8192 40.2304C72.7772 40.2104 72.7339 40.1911 72.6937 40.1679C72.5331 40.0873 72.3801 40.0047 72.2376 39.9178C72.0956 39.8347 71.9578 39.7446 71.8248 39.6476C71.6994 39.552 71.567 39.4601 71.4484 39.36C71.3298 39.26 71.2144 39.1461 71.0977 39.043C70.98 38.9372 70.8678 38.8255 70.7614 38.7084C70.6529 38.5909 70.5481 38.4627 70.4421 38.3332C70.336 38.2038 70.2369 38.0606 70.1365 37.9118C70.0362 37.7629 69.9408 37.6029 69.8461 37.434C69.7513 37.2652 69.661 37.0839 69.5757 36.8881C69.5024 36.7266 69.3706 36.5987 69.2068 36.5298C69.0334 36.4525 68.8377 36.4412 68.6565 36.4979C68.5337 36.5364 68.4247 36.6096 68.3428 36.7086C68.2619 36.8088 68.2104 36.9294 68.1942 37.0569C68.1774 37.1948 68.1978 37.3347 68.2531 37.4622C68.3435 37.6648 68.4357 37.8536 68.5317 38.0318C68.6277 38.21 68.7243 38.3801 68.8259 38.5383C68.9276 38.6965 69.0305 38.851 69.1359 38.9917C69.2413 39.1324 69.3473 39.2706 69.4565 39.4013C69.5656 39.532 69.6767 39.6564 69.7896 39.7765C69.9025 39.8965 70.0155 40.0103 70.1353 40.121C70.2551 40.2317 70.3775 40.3386 70.4998 40.4412C70.6221 40.5437 70.7508 40.6413 70.8844 40.7395C71.018 40.8376 71.1535 40.9308 71.2966 41.0233C71.4396 41.1159 71.5896 41.2041 71.7451 41.291C71.9007 41.3779 72.0639 41.4604 72.2345 41.5411C72.4051 41.6218 72.5865 41.6943 72.7747 41.7706C72.9522 41.8425 73.1417 41.9019 73.3393 41.9626L73.3738 41.9732C73.5079 42.0116 73.6498 42.0133 73.7848 41.9782C73.9077 41.945 74.0191 41.8791 74.1072 41.7875C74.1824 41.7081 74.2367 41.6115 74.2653 41.5061C74.2956 41.4246 74.3113 41.3385 74.3118 41.2516L74.3362 33.9153Z" fill="#0F1F54"/>
<path d="M73.2037 32.3456C73.3362 32.4222 73.4886 32.4579 73.6415 32.4483C73.7944 32.4386 73.941 32.384 74.0627 32.2913C74.1845 32.1986 74.276 32.072 74.3256 31.9275C74.3752 31.7831 74.3807 31.6272 74.3414 31.4795C74.3021 31.3319 74.2198 31.1993 74.1049 31.0983C73.9899 30.9973 73.8476 30.9325 73.6957 30.9122C73.5439 30.8918 73.3894 30.9168 73.2518 30.9839C73.1142 31.0511 72.9996 31.1574 72.9226 31.2894C72.8195 31.4666 72.7911 31.6774 72.8438 31.8755C72.8965 32.0735 73.026 32.2426 73.2037 32.3456Z" fill="#0F1F54"/>
<path d="M38.0994 85.5602H24.9162C23.1918 85.5582 21.5386 84.8746 20.3193 83.6593C19.1 82.444 18.4141 80.7962 18.4121 79.0775V65.9358C18.4141 64.2171 19.1 62.5693 20.3193 61.354C21.5386 60.1387 23.1918 59.4551 24.9162 59.4531H38.0994C39.8237 59.4551 41.4769 60.1387 42.6962 61.354C43.9156 62.5693 44.6014 64.2171 44.6034 65.9358V79.0769C44.6016 80.7957 43.9158 82.4436 42.6965 83.659C41.4771 84.8745 39.8238 85.5582 38.0994 85.5602Z" fill="#BED4E4"/>
<path d="M70.5544 85.7485H57.3713C55.6469 85.7465 53.9937 85.0629 52.7744 83.8476C51.5551 82.6323 50.8692 80.9845 50.8672 79.2658V66.1247C50.8692 64.406 51.5551 62.7583 52.7744 61.543C53.9937 60.3277 55.6469 59.6441 57.3713 59.6421H70.5544C72.2788 59.6441 73.932 60.3277 75.1513 61.543C76.3706 62.7583 77.0565 64.406 77.0585 66.1247V79.2658C77.0565 80.9845 76.3706 82.6323 75.1513 83.8476C73.932 85.0629 72.2788 85.7465 70.5544 85.7485Z" fill="#E6E6E6"/>
<path d="M103.011 85.9381H89.8283C88.1039 85.9361 86.4507 85.2525 85.2314 84.0372C84.0121 82.8219 83.3262 81.1741 83.3242 79.4554V66.3137C83.3262 64.595 84.0121 62.9473 85.2314 61.732C86.4507 60.5167 88.1039 59.833 89.8283 59.8311H103.011C104.736 59.833 106.389 60.5167 107.608 61.732C108.828 62.9473 109.514 64.595 109.516 66.3137V79.4548C109.514 81.1736 108.828 82.8215 107.609 84.037C106.389 85.2524 104.736 85.9361 103.011 85.9381Z" fill="#E6E6E6"/>
<path d="M109.359 89.9108H18.6694C16.6014 89.9084 14.6189 89.0887 13.1566 87.6313C11.6942 86.1739 10.8716 84.1979 10.8691 82.1368V62.877C10.8716 60.8159 11.6942 58.8399 13.1566 57.3825C14.6189 55.9251 16.6014 55.1053 18.6694 55.103H109.359C111.427 55.1053 113.41 55.9251 114.872 57.3825C116.334 58.8399 117.157 60.8159 117.16 62.877V82.1368C117.157 84.1979 116.334 86.1739 114.872 87.6313C113.41 89.0887 111.427 89.9084 109.359 89.9108ZM18.6694 55.8584C16.8026 55.8606 15.0128 56.6008 13.6929 57.9166C12.373 59.2324 11.6307 61.0163 11.6289 62.877V82.1368C11.6311 83.9972 12.3735 85.7809 13.6934 87.0964C15.0133 88.412 16.8028 89.152 18.6694 89.1542H109.359C111.226 89.1522 113.016 88.4122 114.336 87.0966C115.656 85.7811 116.398 83.9974 116.4 82.1368V62.877C116.398 61.0165 115.656 59.2329 114.336 57.9174C113.016 56.6018 111.227 55.8618 109.36 55.8597L18.6694 55.8584Z" fill="#E6E6E6"/>
<path d="M75.1946 67.0364C77.7105 67.0364 79.75 65.0036 79.75 62.496C79.75 59.9884 77.7105 57.9556 75.1946 57.9556C72.6787 57.9556 70.6392 59.9884 70.6392 62.496C70.6392 65.0036 72.6787 67.0364 75.1946 67.0364Z" fill="#CCCCCC"/>
<path d="M49.2147 188.055C53.6172 188.055 57.1862 184.498 57.1862 180.11C57.1862 175.722 53.6172 172.165 49.2147 172.165C44.8121 172.165 41.2432 175.722 41.2432 180.11C41.2432 184.498 44.8121 188.055 49.2147 188.055Z" fill="#CCCCCC"/>
<path d="M68.1951 188.055C72.5977 188.055 76.1667 184.498 76.1667 180.11C76.1667 175.722 72.5977 172.165 68.1951 172.165C63.7926 172.165 60.2236 175.722 60.2236 180.11C60.2236 184.498 63.7926 188.055 68.1951 188.055Z" fill="#CCCCCC"/>
<path d="M151.886 200.081H114.47C103.687 200.066 94.9475 188.826 94.9355 174.953V126.825C94.9475 112.954 103.687 101.712 114.47 101.697H151.886C162.67 101.712 171.409 112.953 171.421 126.825V174.955C171.409 188.826 162.67 200.068 151.886 200.083V200.081ZM114.47 104.47C104.876 104.484 97.1013 114.485 97.0919 126.827V174.957C97.1032 187.298 104.878 197.299 114.47 197.314H151.886C161.481 197.299 169.256 187.299 169.265 174.957V126.825C169.253 114.484 161.479 104.483 151.886 104.468L114.47 104.47Z" fill="#E6E6E6"/>
<path d="M179.599 90.4976H125.614V224.745H179.599V90.4976Z" fill="white"/>
<path d="M120.45 256.64H116.972L115.318 243.271H120.451L120.45 256.64Z" fill="#A0616A"/>
<path d="M121.336 260.001H110.123V259.859C110.123 258.706 110.583 257.6 111.401 256.784C112.219 255.968 113.329 255.51 114.487 255.51H121.336V260.001Z" fill="#2F2E41"/>
<path d="M163.649 254.371L160.261 255.166L155.576 242.53L160.571 241.358L163.649 254.371Z" fill="#A0616A"/>
<path d="M165.286 257.438L154.369 260.002L154.337 259.865C154.072 258.742 154.265 257.559 154.874 256.578C155.483 255.597 156.458 254.898 157.585 254.633L164.251 253.07L165.286 257.438Z" fill="#2F2E41"/>
<path d="M119.737 200.251C119.743 199.554 119.951 183.112 124.473 176.895L124.54 176.803L140.298 178.97L139.946 182.421C140.636 183.093 146.094 188.772 147.663 202.218L164.389 246.991L156.613 247.696L133.595 198.818L121.414 251.948H113.708L119.737 200.251Z" fill="#2F2E41"/>
<path d="M122.628 177.502L124.169 169.444C123.181 168.189 122.703 166.611 122.829 165.021C122.962 164.26 123.257 163.535 123.693 162.896C124.129 162.257 124.697 161.718 125.358 161.315L129.351 152.029L129.405 151.997C129.674 151.839 136.031 148.175 139.497 151.632C139.583 151.699 148.116 158.448 144.69 167.558L140.459 180.208L122.628 177.502Z" fill="#CCCCCC"/>
<path d="M117.269 188.407C117.685 188.36 118.085 188.222 118.441 188.004C118.797 187.786 119.101 187.493 119.332 187.145C119.562 186.797 119.713 186.403 119.774 185.991C119.835 185.579 119.805 185.158 119.685 184.759L127.931 178.838L122.994 176.966L115.921 182.876C115.261 183.121 114.715 183.598 114.385 184.218C114.054 184.838 113.964 185.557 114.13 186.239C114.296 186.92 114.708 187.518 115.286 187.918C115.865 188.317 116.571 188.491 117.269 188.407Z" fill="#A0616A"/>
<path d="M118.783 178.829L131.371 168.946L127.629 156.202C127.452 155.598 127.402 154.964 127.482 154.34C127.561 153.716 127.769 153.115 128.092 152.575C128.391 152.066 128.793 151.624 129.273 151.279C129.753 150.934 130.3 150.692 130.878 150.57C133.034 150.115 134.99 151.32 136.692 154.145L136.705 154.171C136.987 154.858 143.543 171.014 138.537 174.47C133.639 177.85 122.28 182.77 122.166 182.82L122.033 182.877L118.783 178.829Z" fill="#CCCCCC"/>
<path d="M135.514 148.272C139.725 148.272 143.139 144.869 143.139 140.671C143.139 136.473 139.725 133.07 135.514 133.07C131.302 133.07 127.888 136.473 127.888 140.671C127.888 144.869 131.302 148.272 135.514 148.272Z" fill="#A0616A"/>
<path d="M147.468 137.957C151.194 137.957 154.215 134.947 154.215 131.233C154.215 127.52 151.194 124.509 147.468 124.509C143.743 124.509 140.722 127.52 140.722 131.233C140.722 134.947 143.743 137.957 147.468 137.957Z" fill="#2F2E41"/>
<path d="M153.287 136.801C152.414 137.43 151.403 137.842 150.337 138.001C149.272 138.161 148.184 138.064 147.163 137.718C146.143 137.372 145.221 136.788 144.474 136.014C143.727 135.241 143.177 134.3 142.869 133.271C142.985 134.194 143.292 135.082 143.77 135.881C144.248 136.679 144.887 137.37 145.646 137.91C146.406 138.45 147.27 138.827 148.183 139.018C149.096 139.208 150.039 139.207 150.952 139.016C151.865 138.825 152.728 138.447 153.487 137.906C154.246 137.365 154.884 136.674 155.361 135.875C155.839 135.075 156.144 134.186 156.259 133.264C156.374 132.341 156.296 131.404 156.029 130.513C156.18 131.71 156.005 132.925 155.523 134.032C155.041 135.138 154.268 136.095 153.287 136.801Z" fill="#2F2E41"/>
<path d="M126.665 136.809C127.843 134.708 128.296 133.83 129.812 132.552C131.155 131.422 132.806 131.09 134.141 132.161C135.761 131.456 137.57 131.304 139.286 131.729C141.002 132.153 142.529 133.131 143.63 134.51C144.731 135.889 145.345 137.592 145.375 139.354C145.405 141.116 144.851 142.839 143.798 144.254C142.745 145.67 141.253 146.7 139.552 147.183C137.852 147.666 136.039 147.576 134.395 146.927C132.752 146.278 131.369 145.106 130.462 143.593C129.555 142.08 129.175 140.311 129.381 138.561C128.221 138.399 127.823 136.971 126.665 136.809Z" fill="#2F2E41"/>
<path d="M171.215 123.958L172.263 129.167L169.361 130.179L168.45 124.632C168.192 124.423 167.999 124.147 167.89 123.834C167.782 123.521 167.763 123.185 167.836 122.862C167.909 122.539 168.071 122.243 168.304 122.007C168.536 121.771 168.83 121.605 169.153 121.526C169.475 121.447 169.813 121.46 170.129 121.562C170.445 121.665 170.725 121.853 170.94 122.106C171.154 122.358 171.293 122.665 171.342 122.993C171.39 123.32 171.347 123.654 171.215 123.958Z" fill="#A0616A"/>
<path d="M186.39 158.066L190.638 153.506L177.02 139.624C177.02 139.624 176.464 139.102 176.839 139.03C177.215 138.958 176.647 138.397 176.647 138.397C176.647 138.397 175.76 137.557 176.471 137.819C177.183 138.081 176.283 137.194 176.283 137.194L173.093 126.7L172.529 124.839L167.766 127.673C167.766 127.673 167.808 128.033 167.891 128.648C168.316 131.748 169.809 141.32 172.329 143.751C175.348 146.662 186.39 158.066 186.39 158.066Z" fill="#CCCCCC"/>
<path d="M174.406 255.25H171.406L169.979 243.716H174.407L174.406 255.25Z" fill="#A0616A"/>
<path d="M174.512 258.37H165.286V258.254C165.286 257.305 165.664 256.394 166.337 255.723C167.011 255.052 167.924 254.675 168.877 254.675L170.562 253.4L173.706 254.675H174.512V258.37Z" fill="#2F2E41"/>
<path d="M198.883 252.32L196.046 253.292L190.932 242.849L195.119 241.411L198.883 252.32Z" fill="#A0616A"/>
<path d="M200.001 255.236L191.28 258.226L191.243 258.116C190.933 257.219 190.994 256.235 191.411 255.382C191.829 254.529 192.57 253.876 193.47 253.568L194.648 251.817L198.036 252.004L198.797 251.744L200.001 255.236Z" fill="#2F2E41"/>
<path d="M193.286 178.064H173.165C173.165 178.064 172.186 186.746 171.823 186.219C171.46 185.692 171.565 186.457 171.668 187.161C171.771 187.864 170.746 188.298 171.417 188.702C172.088 189.105 171.845 189.854 171.187 190.1C170.529 190.346 170.84 192.208 170.84 192.208L167.416 225.537L170.217 250.541H174.887L181.113 204.929V228.204L193.565 248.99L197.612 247.439L192.631 225.098L196.367 183.827L193.288 178.061L193.286 178.064Z" fill="#2F2E41"/>
<path d="M196.675 180.417L195.137 182.098L171.771 182.899L170.836 180.727L175.506 170.177L180.489 148.769L182.668 144.115V143.603C182.668 143.531 182.651 143.461 182.619 143.397C182.587 143.335 182.571 143.266 182.57 143.196C182.569 143.127 182.584 143.058 182.614 142.995C182.644 142.932 182.688 142.876 182.742 142.833C182.796 142.789 182.86 142.758 182.928 142.742L182.979 141.943L182.356 142.256L186.404 140.394L189.734 140.72L189.828 141.014L190.522 141.545C191.948 142.631 193.098 144.036 193.879 145.646C194.66 147.257 195.05 149.028 195.018 150.816L194.809 162.424L196.677 180.421L196.675 180.417Z" fill="#3F3D56"/>
<path d="M183.057 138.831C183.196 138.863 183.335 138.894 183.474 138.912C183.898 138.981 184.329 139.003 184.758 138.978C185.876 138.918 186.955 138.551 187.876 137.917C188.797 137.283 189.524 136.407 189.976 135.387C190.429 134.366 190.588 133.241 190.438 132.135C190.287 131.029 189.833 129.987 189.124 129.123C188.416 128.26 187.481 127.608 186.424 127.242C185.366 126.875 184.228 126.808 183.135 127.047C182.041 127.286 181.036 127.822 180.229 128.596C179.423 129.37 178.848 130.352 178.567 131.432C178.554 131.48 178.541 131.527 178.53 131.577C178.166 133.137 178.438 134.778 179.287 136.138C180.136 137.498 181.492 138.467 183.057 138.831Z" fill="#A0616A"/>
<path d="M173.852 180.732L176.969 176.422L179.688 177.853L176.23 182.293C176.251 182.623 176.179 182.952 176.022 183.244C175.866 183.536 175.631 183.778 175.344 183.944C175.057 184.11 174.729 184.193 174.397 184.183C174.066 184.174 173.743 184.072 173.466 183.89C173.189 183.708 172.969 183.452 172.829 183.152C172.69 182.852 172.638 182.519 172.678 182.191C172.718 181.862 172.849 181.552 173.056 181.294C173.264 181.036 173.54 180.84 173.852 180.73L173.852 180.732Z" fill="#A0616A"/>
<path d="M188.605 146.44H182.361L181.42 165.833C181.42 165.833 181.415 166.594 181.106 166.369C180.798 166.144 180.771 166.941 180.771 166.941C180.771 166.941 180.758 168.16 180.466 167.462C180.174 166.764 180.135 168.025 180.135 168.025L174.589 177.494L173.605 179.174L178.929 180.725C178.929 180.725 179.165 180.449 179.56 179.97C181.55 177.55 187.572 169.948 187.646 166.452C187.735 162.263 188.607 146.439 188.607 146.439L188.605 146.44Z" fill="#CCCCCC"/>
<path d="M180.485 150.94C180.485 150.94 185.466 144.424 189.824 150.627L188.89 142.561L184.126 141.685C184.06 141.678 183.994 141.685 183.931 141.706C183.868 141.727 183.811 141.761 183.762 141.806C183.714 141.851 183.676 141.905 183.65 141.966C183.625 142.027 183.613 142.093 183.615 142.159L180.485 150.94Z" fill="#3F3D56"/>
<path d="M182.354 144.424L182.338 143.35L182.195 143.12L182.354 142.87L182.379 142.815L182.977 140.388L188.3 138.527L189.733 140.715C187.581 142.162 187.092 144.476 182.354 144.424Z" fill="#CCCCCC"/>
<path d="M187.38 137.935L186.861 134.052C186.849 133.967 186.812 133.887 186.755 133.824C186.697 133.76 186.621 133.716 186.537 133.697C186.453 133.677 186.366 133.684 186.286 133.715C186.206 133.747 186.137 133.802 186.09 133.874H185.156L184.221 130.771C184.221 130.771 183.866 132.175 183.263 131.834C182.6 131.455 181.771 131.646 181.033 131.845L181.369 130.954L179.87 131.362L180.072 130.73L179.14 131.028C179.3 130.909 179.156 130.626 178.959 130.596C178.762 130.565 177.996 131.395 177.684 131.395C177.415 131.351 177.166 131.222 176.976 131.027C176.451 130.596 176.189 128.431 176.439 127.982C176.902 127.148 177.953 127.425 178.618 126.741C178.766 126.588 180.335 126.58 180.485 126.428C181.037 126.057 181.641 125.77 182.278 125.578C182.541 125.578 182.79 125.903 182.619 126.103C182.741 125.708 183.25 125.606 183.665 125.614C183.956 125.62 184.864 124.851 185.155 124.877C185.782 124.932 185.788 125.781 186.413 125.837C186.918 125.881 187.518 125.991 187.717 126.456C187.787 126.693 187.813 126.941 187.792 127.188C187.783 127.311 187.804 127.435 187.853 127.548C187.903 127.662 187.979 127.762 188.075 127.839C188.172 127.889 188.279 127.912 188.387 127.906C188.496 127.9 188.6 127.865 188.69 127.805C188.869 127.684 189.023 127.53 189.147 127.353C189.349 128.005 190.485 129.588 190.687 130.24C190.908 130.893 191.08 131.562 191.201 132.241C191.519 134.321 189.272 136.531 187.826 138.063" fill="#2F2E41"/>
</g>
<defs>
<clipPath id="clip0_322_14056">
<rect width="200" height="260" fill="white"/>
</clipPath>
</defs>
</svg>
