<svg width="158" height="217" viewBox="0 0 158 217" fill="none" xmlns="http://www.w3.org/2000/svg">
<g clip-path="url(#clip0_322_14470)">
<path d="M139.854 215.925H71.0648C61.0591 215.925 52.9199 207.786 52.9199 197.781V18.1449C52.9199 8.13919 61.0591 0 71.0648 0H139.854C149.86 0 157.999 8.13919 157.999 18.1449V197.781C157.999 207.786 149.86 215.925 139.854 215.925Z" fill="#DADBDC"/>
<path d="M139.906 211.014H71.0163C63.6109 211.014 57.584 204.987 57.584 197.581V17.9919C57.584 10.5865 63.6109 4.55957 71.0163 4.55957H139.906C147.311 4.55957 153.338 10.5865 153.338 17.9919V197.581C153.338 204.987 147.311 211.014 139.906 211.014Z" fill="#1F2551"/>
<path d="M115.202 16.5138H95.7213C93.1495 16.5138 91.0586 14.4229 91.0586 11.8511C91.0586 9.27938 93.1495 7.18848 95.7213 7.18848H115.202C117.774 7.18848 119.865 9.27938 119.865 11.8511C119.865 14.4229 117.774 16.5138 115.202 16.5138Z" fill="#DADBDC"/>
<path d="M135.082 71.3539H78.0794C76.9502 71.3539 76.0312 70.1855 76.0312 68.7536C76.0312 67.3217 76.9502 66.1533 78.0794 66.1533H135.082C136.211 66.1533 137.13 67.3217 137.13 68.7536C137.13 70.1855 136.211 71.3539 135.082 71.3539Z" fill="#DADBDC"/>
<path d="M135.082 82.8773H78.0794C76.9502 82.8773 76.0312 81.7089 76.0312 80.277C76.0312 78.8451 76.9502 77.6768 78.0794 77.6768H135.082C136.211 77.6768 137.13 78.8451 137.13 80.277C137.13 81.7089 136.211 82.8773 135.082 82.8773Z" fill="#DADBDC"/>
<path d="M118.736 94.4007H78.0794C76.9502 94.4007 76.0312 93.2324 76.0312 91.8005C76.0312 90.3685 76.9502 89.2002 78.0794 89.2002H118.736C119.865 89.2002 120.784 90.3685 120.784 91.8005C120.784 93.2324 119.865 94.4007 118.736 94.4007Z" fill="#DADBDC"/>
<path d="M105.461 162.15C118.899 162.15 129.793 151.256 129.793 137.817C129.793 124.379 118.899 113.485 105.461 113.485C92.0228 113.485 81.1289 124.379 81.1289 137.817C81.1289 151.256 92.0228 162.15 105.461 162.15Z" fill="#1F2551"/>
<path d="M95.1973 146.399V129.919C95.1973 129.428 95.3618 129.019 95.6908 128.691C96.0191 128.362 96.4283 128.197 96.9187 128.197H112.662C113.152 128.197 113.561 128.362 113.889 128.691C114.218 129.019 114.383 129.428 114.383 129.919V141.398C114.383 141.888 114.219 142.298 113.891 142.627C113.562 142.955 113.152 143.119 112.662 143.119H98.477L95.1973 146.399ZM98.9278 139.389H106.389V138.323H98.9278V139.389ZM98.9278 136.191H110.652V135.125H98.9278V136.191ZM98.9278 132.994H110.652V131.928H98.9278V132.994Z" fill="white"/>
<path d="M39.8663 108.385L33.9676 110.398L33.875 101.881L39.2429 101.82L39.8663 108.385Z" fill="#F3A3A6"/>
<path d="M34.5647 104.232C37.8225 104.232 40.4634 101.591 40.4634 98.3333C40.4634 95.0755 37.8225 92.4346 34.5647 92.4346C31.3069 92.4346 28.666 95.0755 28.666 98.3333C28.666 101.591 31.3069 104.232 34.5647 104.232Z" fill="#F3A3A6"/>
<path d="M36.1793 97.7308C35.1927 97.713 34.5337 96.7228 34.1383 95.8145C33.7429 94.9097 33.3369 93.8661 32.4214 93.4992C31.6698 93.2 30.3733 95.2909 29.7748 94.7459C29.1515 94.176 29.7214 91.2052 30.3697 90.6674C31.018 90.1295 31.9121 90.0155 32.7527 89.9657C34.808 89.8481 36.8739 89.9906 38.8936 90.3896C40.1403 90.6353 41.4297 91.0129 42.3381 91.9034C43.4886 93.0326 43.7985 94.753 43.8982 96.363C44.0015 98.0087 43.9231 99.7363 43.1395 101.19C42.3523 102.639 40.6888 103.722 39.0753 103.373C38.9043 102.5 39.0574 101.603 39.1109 100.712C39.1643 99.8253 39.0859 98.8671 38.5374 98.1654C37.9888 97.4637 36.8276 97.1965 36.2043 97.8306" fill="#2F2E43"/>
<path d="M43.4565 99.6932C44.0407 99.255 44.7424 98.8846 45.4691 98.9665C46.2563 99.052 46.9259 99.6932 47.1361 100.455C47.3463 101.218 47.129 102.062 46.6517 102.692C46.1744 103.323 45.4584 103.743 44.6961 103.957C44.2544 104.082 43.7736 104.135 43.3497 103.957C42.7263 103.697 42.3844 102.91 42.6195 102.276" fill="#2F2E43"/>
<path d="M21.5078 155.421C21.1374 157.363 21.8747 159.126 23.1606 159.357C24.4429 159.589 25.7858 158.2 26.1562 156.258C26.3165 155.485 26.2809 154.684 26.0529 153.925L30.5909 123.502L24.4785 122.423L22.466 153.281C21.9744 153.911 21.6432 154.645 21.5078 155.425V155.421Z" fill="#F3A3A6"/>
<path d="M33.8609 106.49L29.6969 106.537C26.7582 107.014 25.9746 108.595 25.3406 111.502C24.3681 115.937 23.1286 121.846 23.3886 121.928C23.8053 122.063 30.9294 125.319 34.5341 124.514L33.8609 106.49Z" fill="#1F2551"/>
<path d="M38.9738 203.181L33.4316 203.243L33.5195 211.104L39.0616 211.042L38.9738 203.181Z" fill="#F3A3A6"/>
<path d="M28.1607 215.925C27.5765 215.933 27.06 215.925 26.6682 215.893C25.1935 215.776 23.7794 214.704 23.0634 214.077C22.7429 213.795 22.636 213.339 22.7963 212.948C22.9103 212.666 23.1454 212.453 23.4375 212.363L27.3165 211.209L33.5678 206.889L33.6391 207.013C33.6675 207.06 34.298 208.167 34.5117 208.919C34.5937 209.204 34.5759 209.443 34.4583 209.628C34.3764 209.756 34.2624 209.831 34.1698 209.877C34.2838 209.995 34.6435 210.233 35.7478 210.397C37.3542 210.636 37.6784 208.965 37.6891 208.894L37.6997 208.837L37.746 208.805C38.5048 208.303 38.9714 208.075 39.1352 208.121C39.2385 208.15 39.4059 208.199 39.9117 212.73C39.9581 212.873 40.2893 213.913 40.0827 214.914C39.8583 216.004 35.1102 215.68 34.1627 215.605C34.1342 215.608 30.5864 215.901 28.1536 215.925H28.1607Z" fill="#2F2E43"/>
<path d="M54.6854 196.815L50.0156 199.801L54.2499 206.424L58.9197 203.439L54.6854 196.815Z" fill="#F3A3A6"/>
<path d="M48.6251 214.618C47.9733 214.626 47.3749 214.554 46.9474 214.483C46.5271 214.412 46.1959 214.084 46.1246 213.664C46.0712 213.361 46.1602 213.058 46.3597 212.83L49.0383 209.799L52.0554 202.825L52.1836 202.892C52.2299 202.917 53.3519 203.523 53.9325 204.046C54.1534 204.246 54.2638 204.456 54.2638 204.677C54.2638 204.83 54.2068 204.955 54.1498 205.04C54.3101 205.079 54.7411 205.09 55.7634 204.645C57.2523 203.997 56.6432 202.408 56.6147 202.344L56.5934 202.29L56.6183 202.241C56.9959 201.414 57.2737 200.972 57.434 200.923C57.5373 200.894 57.7047 200.844 60.5329 204.42C60.6469 204.517 61.4804 205.222 61.8331 206.18C62.2178 207.224 58.0217 209.461 57.174 209.899C57.149 209.92 52.7642 213.179 50.9618 214.113C50.2459 214.483 49.3945 214.604 48.618 214.611L48.6251 214.618Z" fill="#2F2E43"/>
<path d="M42.3136 137.379L26.7975 137.55L25.5508 151.998L32.3043 205.264L40.2263 205.175L36.7177 174.406L49.8757 202.076L56.8608 197.068L46.5381 171.215C46.5381 171.215 49.8722 148.557 46.9941 142.954C44.116 137.351 42.3172 137.372 42.3172 137.372V137.379H42.3136Z" fill="#2F2E43"/>
<path d="M50.0385 138.174L25.3965 138.448L32.435 106.508L43.1745 106.387L50.0385 138.174Z" fill="#1F2551"/>
<path d="M52.4463 155.08C52.8595 157.014 52.1613 158.791 50.8825 159.051C49.6038 159.311 48.2324 157.954 47.8192 156.02C47.6411 155.251 47.6589 154.449 47.8691 153.683L42.6543 123.367L48.7418 122.152L51.4382 152.96C51.944 153.58 52.2895 154.307 52.4463 155.083V155.08Z" fill="#F3A3A6"/>
<path d="M39.0109 106.433L43.1749 106.387C46.1243 106.8 46.94 108.364 47.6417 111.256C48.7103 115.669 50.0817 121.547 49.8252 121.636C49.4085 121.778 42.3628 125.191 38.7402 124.467L39.0145 106.433H39.0109Z" fill="#1F2551"/>
<path d="M76.6117 215.925C76.6117 216.118 76.4549 216.274 76.2626 216.274H0.349077C0.156728 216.274 0 216.118 0 215.925C0 215.733 0.156728 215.576 0.349077 215.576H76.2626C76.4549 215.576 76.6117 215.733 76.6117 215.925Z" fill="#3F3D58"/>
</g>
<defs>
<clipPath id="clip0_322_14470">
<rect width="158" height="216.274" fill="white"/>
</clipPath>
</defs>
</svg>
