<svg width="38" height="38" viewBox="0 0 38 38" fill="none" xmlns="http://www.w3.org/2000/svg">
<circle cx="19" cy="19" r="19" fill="#1F2551"/>
<path d="M25.692 21.904C24.9833 21.904 24.3863 21.658 23.901 21.166C23.4157 20.6747 23.173 20.0747 23.173 19.366C23.173 18.6567 23.4157 18.056 23.901 17.564C24.3863 17.0727 24.9833 16.827 25.692 16.827C26.3887 16.827 26.9827 17.0727 27.474 17.564C27.966 18.056 28.212 18.6563 28.212 19.365C28.212 20.0743 27.966 20.6747 27.474 21.166C26.982 21.6573 26.388 21.9033 25.692 21.904ZM16.327 23.712L15.619 23.017L18.713 19.865H9.76999V18.865H18.734L15.619 15.727L16.327 15L20.654 19.365L16.327 23.712Z" fill="white"/>
</svg>
