<svg width="13" height="14" viewBox="0 0 13 14" fill="none" xmlns="http://www.w3.org/2000/svg">
<path d="M2.33333 6.33333L6 0.333328L9.66667 6.33333H2.33333ZM9.66667 13.6667C8.83333 13.6667 8.12489 13.3749 7.54133 12.7913C6.95778 12.2078 6.66622 11.4995 6.66667 10.6667C6.66667 9.83333 6.95844 9.12488 7.542 8.54133C8.12556 7.95777 8.83378 7.66622 9.66667 7.66666C10.5 7.66666 11.2084 7.95844 11.792 8.54199C12.3756 9.12555 12.6671 9.83377 12.6667 10.6667C12.6667 11.5 12.3749 12.2084 11.7913 12.792C11.2078 13.3755 10.4996 13.6671 9.66667 13.6667ZM0 13.3333V7.99999H5.33333V13.3333H0ZM9.66667 12.3333C10.1333 12.3333 10.5278 12.1722 10.85 11.85C11.1722 11.5278 11.3333 11.1333 11.3333 10.6667C11.3333 10.2 11.1722 9.80555 10.85 9.48333C10.5278 9.16111 10.1333 8.99999 9.66667 8.99999C9.2 8.99999 8.80556 9.16111 8.48333 9.48333C8.16111 9.80555 8 10.2 8 10.6667C8 11.1333 8.16111 11.5278 8.48333 11.85C8.80556 12.1722 9.2 12.3333 9.66667 12.3333ZM1.33333 12H4V9.33333H1.33333V12ZM4.7 4.99999H7.3L6 2.89999L4.7 4.99999Z" fill="#1F2551"/>
</svg>
