<svg id="domain_add_black_24dp" xmlns="http://www.w3.org/2000/svg" width="24" height="24" viewBox="0 0 24 24">
  <g id="Group_13269" data-name="Group 13269">
    <rect id="Rectangle_4104" data-name="Rectangle 4104" width="24" height="24" fill="none"/>
  </g>
  <g id="Group_13270" data-name="Group 13270">
    <path id="Path_13060" data-name="Path 13060" d="M12,7V3H2V21H16V19H12V17h2V15H12V13h2V11H12V9h8v6h2V7ZM6,19H4V17H6Zm0-4H4V13H6Zm0-4H4V9H6ZM6,7H4V5H6Zm4,12H8V17h2Zm0-4H8V13h2Zm0-4H8V9h2Zm0-4H8V5h2ZM24,19v2H22v2H20V21H18V19h2V17h2v2Zm-6-8H16v2h2Zm0,4H16v2h2Z" fill="#fff"/>
  </g>
</svg>
