<svg id="group_add_black_24dp" xmlns="http://www.w3.org/2000/svg" width="24" height="24" viewBox="0 0 24 24">
  <g id="Group_13400" data-name="Group 13400">
    <rect id="Rectangle_4157" data-name="Rectangle 4157" width="24" height="24" fill="none"/>
    <rect id="Rectangle_4158" data-name="Rectangle 4158" width="24" height="24" fill="none"/>
  </g>
  <g id="Group_13402" data-name="Group 13402">
    <g id="Group_13401" data-name="Group 13401">
      <path id="Path_13132" data-name="Path 13132" d="M22,9V7H20V9H18v2h2v2h2V11h2V9Z" fill="#fff"/>
      <path id="Path_13133" data-name="Path 13133" d="M8,12A4,4,0,1,0,4,8,4,4,0,0,0,8,12Z" fill="#fff"/>
      <path id="Path_13134" data-name="Path 13134" d="M8,13c-2.67,0-8,1.34-8,4v3H16V17C16,14.34,10.67,13,8,13Z" fill="#fff"/>
      <path id="Path_13135" data-name="Path 13135" d="M12.51,4.05a5.981,5.981,0,0,1,0,7.9,3.98,3.98,0,0,0,0-7.9Z" fill="#fff"/>
      <path id="Path_13136" data-name="Path 13136" d="M16.53,13.83A4.237,4.237,0,0,1,18,17v3h2V17C20,15.55,18.41,14.49,16.53,13.83Z" fill="#fff"/>
    </g>
  </g>
</svg>
