<svg width="24" height="24" viewBox="0 0 24 24" fill="none" xmlns="http://www.w3.org/2000/svg">
<circle cx="12" cy="12" r="12" fill="#1F2551"/>
<path d="M13.3711 15.7412C13.3711 15.6322 13.3955 15.55 13.4443 15.4946C13.4948 15.4377 13.5664 15.4092 13.6592 15.4092C13.7536 15.4092 13.8268 15.4377 13.8789 15.4946C13.9326 15.55 13.9595 15.6322 13.9595 15.7412C13.9595 15.847 13.9326 15.9284 13.8789 15.9854C13.8252 16.0423 13.752 16.0708 13.6592 16.0708C13.5762 16.0708 13.507 16.0456 13.4517 15.9951C13.3979 15.943 13.3711 15.8584 13.3711 15.7412ZM16.4082 16L16.3276 15.6191H16.3081C16.1746 15.7868 16.0412 15.9007 15.9077 15.9609C15.7759 16.0195 15.6107 16.0488 15.4121 16.0488C15.1468 16.0488 14.9385 15.9805 14.7871 15.8438C14.6374 15.707 14.5625 15.5125 14.5625 15.2603C14.5625 14.7199 14.9946 14.4367 15.8589 14.4106L16.313 14.396V14.23C16.313 14.02 16.2674 13.8654 16.1763 13.7661C16.0868 13.6652 15.9427 13.6147 15.7441 13.6147C15.5212 13.6147 15.2689 13.6831 14.9873 13.8198L14.8628 13.5098C14.9946 13.4382 15.1387 13.382 15.2949 13.3413C15.4528 13.3006 15.6107 13.2803 15.7686 13.2803C16.0876 13.2803 16.3236 13.3511 16.4766 13.4927C16.6312 13.6343 16.7085 13.8613 16.7085 14.1738V16H16.4082ZM15.4927 15.7144C15.745 15.7144 15.9427 15.6452 16.0859 15.5068C16.2308 15.3685 16.3032 15.1748 16.3032 14.9258V14.6841L15.8979 14.7012C15.5757 14.7126 15.3429 14.763 15.1997 14.8525C15.0581 14.9404 14.9873 15.078 14.9873 15.2651C14.9873 15.4116 15.0312 15.5231 15.1191 15.5996C15.2087 15.6761 15.3332 15.7144 15.4927 15.7144ZM17.9512 16H17.5459V13.3242H17.9512V16ZM17.5117 12.5991C17.5117 12.5063 17.5345 12.4388 17.5801 12.3965C17.6257 12.3525 17.6826 12.3306 17.751 12.3306C17.8161 12.3306 17.8722 12.3525 17.9194 12.3965C17.9666 12.4404 17.9902 12.508 17.9902 12.5991C17.9902 12.6903 17.9666 12.7586 17.9194 12.8042C17.8722 12.8481 17.8161 12.8701 17.751 12.8701C17.6826 12.8701 17.6257 12.8481 17.5801 12.8042C17.5345 12.7586 17.5117 12.6903 17.5117 12.5991Z" fill="white"/>
<path d="M12.1113 9.23776C12.1111 9.07469 12.0533 8.91693 11.948 8.79239C11.8427 8.66785 11.6968 8.58454 11.536 8.5572C11.4489 8.53931 11.3589 8.54099 11.2725 8.56212L7.95353 9.37396C7.79629 9.41285 7.66084 9.51238 7.57674 9.65081C7.49264 9.78924 7.46673 9.95531 7.50466 10.1128C7.54371 10.27 7.64336 10.4054 7.78186 10.4895C7.92035 10.5735 8.08646 10.5994 8.24396 10.5614L10.7305 9.95295L10.7183 15.0644C10.6795 15.0459 10.6397 15.0281 10.6013 15.0091C10.4536 14.9347 10.3139 14.8586 10.1819 14.7784C10.0513 14.7019 9.92457 14.6188 9.80235 14.5294C9.68674 14.4414 9.56551 14.3571 9.45763 14.2642C9.34974 14.1713 9.24256 14.0667 9.13537 13.9719C9.02721 13.8744 8.92402 13.7714 8.82622 13.6635C8.72652 13.5549 8.62987 13.4365 8.53275 13.318C8.43563 13.1996 8.34389 13.0667 8.25191 12.9295C8.15994 12.7924 8.07195 12.6447 7.98465 12.4889C7.89736 12.333 7.81475 12.1657 7.73588 11.9855C7.66849 11.8364 7.54729 11.7183 7.39654 11.6548C7.23713 11.5836 7.05714 11.5731 6.89057 11.6256C6.77821 11.6613 6.67857 11.7287 6.60365 11.8198C6.52932 11.9123 6.48209 12.0236 6.46722 12.1413C6.4517 12.2687 6.47036 12.398 6.52128 12.5158C6.60436 12.703 6.68931 12.8769 6.77707 13.0414C6.86484 13.2059 6.95423 13.3627 7.04784 13.5095C7.14145 13.6562 7.23507 13.7957 7.33266 13.9277C7.43025 14.0597 7.52713 14.1851 7.62776 14.3054C7.72839 14.4257 7.8302 14.5406 7.93387 14.6504C8.03755 14.7601 8.14169 14.8659 8.25191 14.9682C8.36214 15.0704 8.47448 15.1692 8.58728 15.2635C8.70008 15.3578 8.81944 15.4484 8.94066 15.5387C9.06189 15.6291 9.18779 15.7154 9.31932 15.8006C9.45084 15.8858 9.58892 15.967 9.73168 16.0473C9.87444 16.1275 10.0244 16.2036 10.1817 16.2778C10.339 16.352 10.5051 16.4182 10.6783 16.4884C10.8421 16.5549 11.0158 16.6094 11.1979 16.6658H11.1997L11.2316 16.6759C11.3548 16.7113 11.4854 16.7129 11.6095 16.6806C11.7225 16.6498 11.825 16.5889 11.906 16.5043C11.9751 16.431 12.0251 16.3418 12.0514 16.2446C12.0793 16.1697 12.0938 16.0905 12.0944 16.0105L12.1113 9.23776Z" fill="white"/>
<path d="M11.0689 7.79041C11.1907 7.86132 11.3308 7.89451 11.4715 7.88579C11.6121 7.87707 11.7471 7.82683 11.8592 7.74142C11.9713 7.65601 12.0556 7.53927 12.1014 7.40596C12.1471 7.27265 12.1523 7.12875 12.1163 6.99248C12.0803 6.85621 12.0047 6.73368 11.8991 6.64038C11.7934 6.54709 11.6625 6.48721 11.5228 6.46833C11.3831 6.44946 11.241 6.47243 11.1144 6.53434C10.9877 6.59625 10.8823 6.69432 10.8114 6.81615C10.7165 6.9795 10.6902 7.17388 10.7385 7.35657C10.7868 7.53925 10.9056 7.6953 11.0689 7.79041Z" fill="white"/>
</svg>
