<svg id="Announcement" xmlns="http://www.w3.org/2000/svg" width="129.583" height="129.583" viewBox="0 0 129.583 129.583">
  <path id="Path_16526" data-name="Path 16526" d="M391.583,176.792a64.687,64.687,0,0,1-3.422,20.833q-.2.575-.4,1.146a64.866,64.866,0,0,1-10.307,18.412q-1.978,2.481-4.192,4.758t-4.649,4.338a64.456,64.456,0,0,1-31.779,14.53h0q-2.243.348-4.53.542-2.723.23-5.511.232a64.588,64.588,0,0,1-46.372-19.543q-.635-.65-1.252-1.319-1.535-1.665-2.954-3.433-.8-.995-1.555-2.02a64.544,64.544,0,0,1-7.714-13.606,63.694,63.694,0,0,1-2.243-6.3c-.046-.151-.09-.3-.134-.454q-.144-.489-.278-.983a64.8,64.8,0,1,1,127.292-17.137Z" transform="translate(-262 -112)" fill="#f2f2f2"/>
  <path id="Path_16527" data-name="Path 16527" d="M640.938,753.02l-1.311,4.614a64.709,64.709,0,0,1-6.345,1.317h0q-2.243.348-4.53.543l4.265-6.094.606-.054Z" transform="translate(-558.447 -630.142)" fill="#2f2e41"/>
  <path id="Path_16528" data-name="Path 16528" d="M437.39,660.71q-1.978,2.481-4.192,4.758l-5.057,0-27.2.031-4.9.006-3.255,0-4.842,0-3.725,0-6.88.008-4.058.006-8.546.008-4.079.006-11.3.011-7.1.008-1.905,0q-.635-.65-1.252-1.319-1.535-1.665-2.954-3.433l3.945,0,2.688,0L349,660.8l12.008-.011,4.058,0,1.641,0h.006l1.288,0,.577,0,1.478,0h.625l4.382,0,9.452-.012,4.16,0,3.983,0,3.734,0,5.358-.006,28.616-.029Z" transform="translate(-321.936 -555.527)" fill="#ccc"/>
  <ellipse id="Ellipse_3746" data-name="Ellipse 3746" cx="3.859" cy="1.232" rx="3.859" ry="1.232" transform="translate(42.917 105.901)" fill="#3f3d56"/>
  <ellipse id="Ellipse_3747" data-name="Ellipse 3747" cx="3.859" cy="1.232" rx="3.859" ry="1.232" transform="translate(42.917 105.08)" fill="#3f3d56"/>
  <path id="Path_16529" data-name="Path 16529" d="M501.807,559.064l.575-.009-.159-10.738a10.017,10.017,0,0,1,4.863-8.722l10.976-6.561-.295-.494L506.792,539.1a10.594,10.594,0,0,0-5.143,9.224Z" transform="translate(-455.709 -451.927)" fill="#3f3d56"/>
  <rect id="Rectangle_4737" data-name="Rectangle 4737" width="2.792" height="11.495" rx="1.396" transform="translate(63.464 85.948) rotate(180)" fill="#5a7bc1"/>
  <path id="Path_16530" data-name="Path 16530" d="M575.144,401.682,590.2,419.469l12.834,5.494,3.421-6.649c-3.138-3.734-13.378-8.215-13.378-8.215l-13.9-12.471c-.025-.092-.052-.183-.085-.274a3.3,3.3,0,1,0-3.94,4.329Z" transform="translate(-513.124 -340.9)" fill="#a0616a"/>
  <path id="Path_16531" data-name="Path 16531" d="M727.863,505.307l-3.32,8.5,0,.033c.331,3.266,5.433,6.29,9.655,8.251a6.057,6.057,0,0,0,7.856-2.579h0a6.07,6.07,0,0,0-.388-6.4l-3.352-4.694Z" transform="translate(-635.877 -429.914)" fill="#6c63ff"/>
  <path id="Path_16532" data-name="Path 16532" d="M673.727,487.031l-1.766,6.355-1.031,7.344-.318,2.258-.008.048-1.961,1.863.057.585.153,1.558.255,2.776a64.5,64.5,0,0,1-31.779,14.53s0,0,0,0a13.1,13.1,0,0,1-3.289-1.29c-.2-.138-.284-.261-.28-.385.021-.83,2.377-3.809,2.734-4.256l.935-3.872,1.909-.759-.471-2.724,2.553-2.7.073-2.774.013-.079.809-4.756,1.614-9.471.165-.97-.15-7.48-.044-2.266-.052-2.584a10.626,10.626,0,0,1,.146-1.984,10.216,10.216,0,0,1,.353-1.457,10.59,10.59,0,0,1,5.252-6.19c.1-.05.2-.1.3-.146,0,0,0,0,0,0a10.524,10.524,0,0,1,2.406-.8l.242-.429,2.365-4.2,7.25.186,4.325,6.769,3.61,3.583A14.053,14.053,0,0,1,673.727,487.031Z" transform="translate(-562.496 -395.539)" fill="#131f51"/>
  <circle id="Ellipse_3748" data-name="Ellipse 3748" cx="9.604" cy="9.604" r="9.604" transform="translate(85.8 45.957)" fill="#a0616a"/>
  <path id="Path_16533" data-name="Path 16533" d="M704.072,359.529a26.123,26.123,0,0,0,4.443-.311,13.249,13.249,0,0,0,5.624-4.121h0a12.834,12.834,0,0,0,1.35-3.946,11.677,11.677,0,0,0-2.042-9.27,3.689,3.689,0,0,0-1.49-1.272c-.053-.021-.108-.039-.164-.055a4.552,4.552,0,0,1-2.264-1.4,3.757,3.757,0,0,0-.376-.387,5.607,5.607,0,0,0-2.339-1.175c-1.391-.372-3.4,0-5.981,1.1a6.291,6.291,0,0,1-3.8.117.356.356,0,0,0-.336.115,2.517,2.517,0,0,1-1.711.682c-.389.017-.8.556-1.292,1.26-.112.16-.243.346-.337.459l-.013-.218-.22.243a3.055,3.055,0,0,0,1.379,4.977,5.957,5.957,0,0,0,1.2.191c.245.022.5.045.742.087a4.605,4.605,0,0,1,3.422,2.989,1.2,1.2,0,0,0,1.818.585,1.99,1.99,0,0,1,1.813-.33,1.321,1.321,0,0,1,.584.662,1.721,1.721,0,0,0,.653.762c.987.509,1.055,2.764.7,4.643-.342,1.812-1.017,3.122-1.643,3.187-.482.05-.537.084-.571.169l-.031.076.054.071A1.966,1.966,0,0,0,704.072,359.529Z" transform="translate(-609.839 -294.235)" fill="#2f2e41"/>
  <path id="Path_16534" data-name="Path 16534" d="M531.858,559.992l-3.7-7.383c-5.375.367-16.044,6.582-16.044,6.582l-20.185,4.28a3.647,3.647,0,1,0,.994,6.232l25.676-1.84Z" transform="translate(-443.846 -468.148)" fill="#a0616a"/>
  <path id="Path_16535" data-name="Path 16535" d="M684.7,505.658l9.672-7.187,1.7-6.139a6.706,6.706,0,0,0-2.017-6.785h0a6.69,6.69,0,0,0-9.129.294c-3.64,3.633-7.791,8.7-6.9,12.215l.009.036Z" transform="translate(-598.183 -412.602)" fill="#131f51"/>
  <path id="Path_16536" data-name="Path 16536" d="M289.975,537.43l-.036.054a9.212,9.212,0,0,0-1.15,0q-.328.02-.656.063a1.376,1.376,0,0,0-.59,2.5l.023.015.048.033a13.52,13.52,0,0,1-9.27,3.4,63.688,63.688,0,0,1-2.243-6.3,8.336,8.336,0,0,1,3.705-2.015c2.78-.671,5.881.086,8.663-.19A1.579,1.579,0,0,1,289.975,537.43Z" transform="translate(-273.397 -453.832)" fill="#fff"/>
  <path id="Path_16537" data-name="Path 16537" d="M290.669,389.257c-.008.021-.015.044-.025.067-.219.013-.437.036-.656.065a1.375,1.375,0,0,0-.59,2.494l.023.017a13.593,13.593,0,0,1-1.215,1.683,14.091,14.091,0,0,1-10.162,4.894c-.127,0-.249.008-.374.008a33.465,33.465,0,0,1-2.078,8.438,30.717,30.717,0,0,1-1.365,3.006q-.144-.489-.278-.983c.023-.044.044-.086.065-.13a31.043,31.043,0,0,0,1.34-3.215q.474-1.349.828-2.732a32.676,32.676,0,0,0,.2-15.285,8.7,8.7,0,0,1-1.622-4.951,6.642,6.642,0,0,1,.247-1.894c.148.1.3.19.456.276l.148.081.017.01a1,1,0,0,0,1.455-1.114c-.027-.117-.056-.234-.082-.351-.042-.18-.086-.36-.127-.541a.3.3,0,0,1-.015-.056c-.048-.205-.1-.408-.146-.613a2.9,2.9,0,0,1,1.259-.414,3.346,3.346,0,0,1,3.293,2.664,5.248,5.248,0,0,1-1.183,4.309,11.692,11.692,0,0,1-3.013,2.53c.025.115.054.228.079.341a33.056,33.056,0,0,1,.721,6.389,13.673,13.673,0,0,1,3.5-5.36,22.911,22.911,0,0,1,5.4-3.052A2.806,2.806,0,0,1,290.669,389.257Z" transform="translate(-271.659 -327.016)" fill="#fff"/>
  <path id="Path_16538" data-name="Path 16538" d="M878.066,587.069c.32.406.652.811.983,1.217a64.245,64.245,0,0,1-3.845,6.809l-.316-.224a.4.4,0,0,1-.048-.031c-.393-.28-.788-.556-1.181-.836v0a13.418,13.418,0,0,1-.539-3.393,1.014,1.014,0,0,0,.236-1.89c-.052-.09-.088-.155-.14-.247,0-.023.006-.048.008-.071A2.723,2.723,0,0,1,878.066,587.069Z" transform="translate(-755.974 -495.159)" fill="#fff"/>
  <path id="Path_16539" data-name="Path 16539" d="M840.953,443.476q.345.949.629,1.919-.2.575-.4,1.146-.078-.3-.161-.6a31.055,31.055,0,0,0-1.121-3.3q-.535-1.326-1.185-2.6a32.656,32.656,0,0,0-9.96-11.6,8.693,8.693,0,0,1-4.491-2.642,6.682,6.682,0,0,1-1.068-1.583c.176-.025.353-.059.525-.1l.163-.036.021,0a1,1,0,0,0,.355-1.8c-.1-.071-.2-.14-.3-.209-.15-.109-.3-.213-.452-.32a.474.474,0,0,1-.046-.033c-.173-.123-.345-.242-.516-.366a2.912,2.912,0,0,1,.669-1.142,3.352,3.352,0,0,1,4.234-.18,5.249,5.249,0,0,1,1.961,4.016,11.641,11.641,0,0,1-.587,3.891c.094.069.192.134.286.205a32.844,32.844,0,0,1,4.765,4.315,13.684,13.684,0,0,1-.92-6.335,22.911,22.911,0,0,1,2.036-5.862,2.8,2.8,0,0,1,5.181-.015c.01.023.019.044.027.067q-.233.233-.449.483a1.375,1.375,0,0,0,1.206,2.262l.029,0a13.813,13.813,0,0,1,.2,2.068,14.091,14.091,0,0,1-4.386,10.39c-.092.086-.182.171-.276.253a33.589,33.589,0,0,1,4.024,7.7Z" transform="translate(-715.421 -359.771)" fill="#fff"/>
</svg>
