<svg id="Buildings" xmlns="http://www.w3.org/2000/svg" width="153.744" height="116.36" viewBox="0 0 153.744 116.36">
  <rect id="Rectangle_4738" data-name="Rectangle 4738" width="13.133" height="8.399" transform="translate(95.807 45.048)" fill="#131f51"/>
  <rect id="Rectangle_4739" data-name="Rectangle 4739" width="13.133" height="8.399" transform="translate(75.345 58.18)" fill="#131f51"/>
  <path id="Path_16540" data-name="Path 16540" d="M295.45,116.8V98.93h-9.926V87.324h-6.719V98.93h-9.926V116.8h-5.5V76.635H252.235V72.818H237.422V69h-14.66v3.818h-13.9v3.818H196.8v40.008H190.39V98.777h-9.926V87.172h-6.719V98.777h-9.926v17.866h-6.414v63.372h14.66V157.568h10.078v22.447h39.4V153.9h17.1v26.112h23.822v.153h14.66V157.721H287.2v22.447h14.66V116.8Zm-132.776,7.635h5.8v4.581h-5.8Zm.076,12.827h5.8v4.581h-5.8Zm5.879,17.408h-5.8v-4.581h5.8Zm15.194-41.383H170.386v-2.749h13.438Zm0-3.97H170.386v-2.749h13.438Zm0-3.97H170.386v-2.749h13.438Zm1.909,19.088h5.8v4.581h-5.8Zm.076,12.827h5.8v4.581h-5.8Zm5.879,17.408h-5.8v-4.581h5.8Zm23.745-7.635H204.744V142.3h10.689Zm0-13.591H204.744v-4.734h10.689Zm0-13.591H204.744v-4.734h10.689Zm0-13.591H204.744v-4.734h10.689Zm0-13.591H204.744V87.935h10.689Zm20,54.362H224.748V142.3h10.689Zm0-13.591H224.748v-4.734h10.689Zm0-13.591H224.748v-4.734h10.689Zm0-13.591H224.748v-4.734h10.689Zm0-13.591H224.748V87.935h10.689Zm20,54.362H244.752V142.3h10.689Zm0-13.591H244.752v-4.734h10.689Zm0-13.591H244.752v-4.734h10.689Zm0-13.591H244.752v-4.734h10.689Zm0-13.591H244.752V87.935h10.689Zm12.293,31.915h5.8v4.581h-5.8Zm.076,12.827h5.8v4.581h-5.8Zm5.879,17.408h-5.8v-4.581h5.8Zm15.194-41.383H275.446v-2.749h13.438Zm0-3.97H275.446v-2.749h13.438Zm0-3.97H275.446v-2.749h13.438Zm1.909,19.088h5.8v4.581h-5.8Zm.076,12.827h5.8v4.581h-5.8Zm5.879,17.408h-5.8v-4.581h5.8Z" transform="translate(-148.119 -69)" fill="#f2f2f2"/>
  <path id="Path_16541" data-name="Path 16541" d="M215.413,686.547c-.043.6-.11,1.28-.213,1.99l1.867-2.07.01.035a5.441,5.441,0,0,0-.546-1.425l.012.033Z" transform="translate(-197.088 -591)" fill="#6c63ff"/>
  <path id="Path_16542" data-name="Path 16542" d="M216.642,680.305l1.095-1.393a2.865,2.865,0,0,0-.979-1.043l-.06-.034C216.7,678,216.732,678.965,216.642,680.305Z" transform="translate(-198.31 -584.863)" fill="#6c63ff"/>
  <path id="Path_16543" data-name="Path 16543" d="M209.347,719.284q-.072.22-.149.432l2.749-1.612,0,.041q.086-.376.144-.752l-2.745,1.91Z" transform="translate(-192.003 -618.381)" fill="#6c63ff"/>
  <path id="Path_16544" data-name="Path 16544" d="M212.678,698.664l2.476-2.042.007.038a8.553,8.553,0,0,0-.212-2.008l-1.9,2.11Q212.9,697.76,212.678,698.664Z" transform="translate(-194.952 -599.113)" fill="#6c63ff"/>
  <path id="Path_16545" data-name="Path 16545" d="M194.516,689.655l-2.963-3.306.016-.037a7.139,7.139,0,0,0-.711,1.251l3.381,3.6C194.355,690.638,194.445,690.129,194.516,689.655Z" transform="translate(-176.463 -592.046)" fill="#6c63ff"/>
  <path id="Path_16546" data-name="Path 16546" d="M190.649,694.786h0c.005-.012.01-.026.015-.038Z" transform="translate(-176.286 -599.194)" fill="#6c63ff"/>
  <path id="Path_16547" data-name="Path 16547" d="M189.484,697.651l-.015.038c0-.013.01-.025.015-.038Z" transform="translate(-175.287 -601.653)" fill="#6c63ff"/>
  <path id="Path_16548" data-name="Path 16548" d="M193.128,698.609,189.734,695q-.086.2-.165.405l3.468,3.59Q193.085,698.8,193.128,698.609Z" transform="translate(-175.372 -599.404)" fill="#6c63ff"/>
  <path id="Path_16549" data-name="Path 16549" d="M213.081,709.462a10.213,10.213,0,0,0,.11-1.372l-2.51,2.07q-.149.6-.328,1.158l2.722-1.895Z" transform="translate(-192.981 -610.498)" fill="#6c63ff"/>
  <path id="Path_16550" data-name="Path 16550" d="M186.423,711.648l2.747,3.584a12.284,12.284,0,0,0,.6-1.346l-3.352-3.521a9.878,9.878,0,0,0-.011,1.323Z" transform="translate(-172.675 -612.427)" fill="#6c63ff"/>
  <path id="Path_16551" data-name="Path 16551" d="M206.4,676.51l.025-.011a1.938,1.938,0,0,0-1.877.039l1.8,2.444C206.44,677.532,206.4,676.525,206.4,676.51Z" transform="translate(-188.059 -583.542)" fill="#6c63ff"/>
  <path id="Path_16552" data-name="Path 16552" d="M205.621,724.4a12.209,12.209,0,0,1-.54,1.214l2.763-1.43,0,.04a4.838,4.838,0,0,0,.484-1.121q.066-.232.12-.465l-2.782,1.631C205.654,724.315,205.638,724.359,205.621,724.4Z" transform="translate(-188.515 -622.827)" fill="#6c63ff"/>
  <path id="Path_16553" data-name="Path 16553" d="M198.807,680.64l-1.84-2.5.017-.036a4.118,4.118,0,0,0-1.325,1.223l2.939,3.279C198.7,681.9,198.765,681.237,198.807,680.64Z" transform="translate(-180.531 -585.092)" fill="#6c63ff"/>
  <path id="Path_16554" data-name="Path 16554" d="M190,703.457a16.583,16.583,0,0,0,.523-1.706l-3.477-3.6q-.124.337-.228.7a5.938,5.938,0,0,0-.192,1.064L190,703.459Z" transform="translate(-172.876 -602.079)" fill="#6c63ff"/>
  <path id="Path_16555" data-name="Path 16555" d="M224.153,755.986c-.418.438-.9.916-1.433,1.4l2.758-.4-.014.033a5.441,5.441,0,0,0,.488-1.446l-.012.033Z" transform="translate(-203.46 -650.726)" fill="#6c63ff"/>
  <path id="Path_16556" data-name="Path 16556" d="M234.227,745.644c-.008-.022-.016-.044-.025-.065-.1.131-.694.893-1.618,1.868l1.732-.375A2.866,2.866,0,0,0,234.227,745.644Z" transform="translate(-211.818 -642.263)" fill="#6c63ff"/>
  <path id="Path_16557" data-name="Path 16557" d="M202.626,781.234q-.2.123-.39.237l3.146.512-.023.034q.306-.235.59-.488l-3.333-.28Z" transform="translate(-186.103 -672.473)" fill="#6c63ff"/>
  <path id="Path_16558" data-name="Path 16558" d="M212.37,766.9l3.21.007-.019.034a8.549,8.549,0,0,0,1.117-1.682l-2.811.412Q213.115,766.343,212.37,766.9Z" transform="translate(-194.69 -658.938)" fill="#6c63ff"/>
  <path id="Path_16559" data-name="Path 16559" d="M205.283,777.132l3.305.277-.021.034a10.2,10.2,0,0,0,.96-.987l-3.253-.007Q205.776,776.819,205.283,777.132Z" transform="translate(-188.686 -668.42)" fill="#6c63ff"/>
  <path id="Path_16560" data-name="Path 16560" d="M159.609,729.524l.073-.074a8.5,8.5,0,0,0,1.961-.56l.09-2.382q.04-.091.078-.183l-.1,2.535a12.275,12.275,0,0,0,1.318-.656l-.307-4.428.072-.038.307,4.422h0a16.581,16.581,0,0,0,1.491-.98l-.334-4.358.071-.052.334,4.357q.159-.118.313-.237l-.276-4.411.071-.058.276,4.414c.424-.331.818-.665,1.175-.985l-.173-4.436.036-.019c-.123.032-.248.07-.375.112a6.26,6.26,0,0,0,.638-.87l-2.79,1.443a9.386,9.386,0,0,1-.65,1.059c-.05.047-.1.094-.149.143l0,.053-.068.09,0-.071c-.035.036-.07.074-.1.111a8.82,8.82,0,0,0,.926-1.415l-2.727-3.558c.019.318.05.638.09.956a5.381,5.381,0,0,0-.914-1.117l.021.027-.63,1.717c.146.588.291,1.251.413,1.958l1.12-2.511c.005.039.011.078.016.117l-1.117,2.505q.166.995.237,1.922l1.341-2.106.023.09-1.355,2.129q.044.619.046,1.2l1.639-2.163.026.083-1.656,2.185-.008-.017q0,.231-.008.456l1.849-2.082.027.08-1.881,2.118c0,.047,0,.093-.006.139a12.2,12.2,0,0,1-.138,1.321l.178-.181-.1.207-.1.1c-.012.067-.025.132-.038.2q-.056.123-.108.241c.034-.15.065-.3.092-.454l-3.693-2.541a22.781,22.781,0,0,0,2.894,4.958c.094-.176.18-.357.259-.542l.069-.007-.029.068-.035,0,.029.008c-.055.129-.113.256-.174.379.081-.072.2-.187.35-.332a9.747,9.747,0,0,0,5.211,0l-3.069-.668A8.582,8.582,0,0,1,159.609,729.524Zm2.157-3.883.074-.075,0,.112-.074.074Z" transform="translate(-147.06 -619.176)" fill="#6c63ff"/>
  <path id="Path_16561" data-name="Path 16561" d="M233.967,738.918l.026.007a1.938,1.938,0,0,0-1.471-1.167l-.173,3.029C233.35,739.732,233.959,738.93,233.967,738.918Z" transform="translate(-211.619 -635.636)" fill="#6c63ff"/>
  <path id="Path_16562" data-name="Path 16562" d="M194.185,783.239a12.212,12.212,0,0,1-1.189.59l3.04.661-.023.032a4.84,4.84,0,0,0,1.088-.554q.2-.137.389-.281l-3.183-.518Z" transform="translate(-178.274 -674.113)" fill="#6c63ff"/>
  <path id="Path_16563" data-name="Path 16563" d="M221.635,741.887c.526-.476,1-.948,1.416-1.381l.177-3.1.036-.016a4.118,4.118,0,0,0-1.8.1Z" transform="translate(-202.394 -635.276)" fill="#6c63ff"/>
  <path id="Path_16564" data-name="Path 16564" d="M173.627,714.284a2.865,2.865,0,0,0-1.254-.69l-.068-.014c.057.155.382,1.064.711,2.367Z" transform="translate(-160.743 -615.151)" fill="#6c63ff"/>
  <path id="Path_16565" data-name="Path 16565" d="M156.719,730.555l-3.84-2.228,0-.04a7.14,7.14,0,0,0-.289,1.41l4.328,2.378C156.87,731.539,156.8,731.027,156.719,730.555Z" transform="translate(-144.042 -627.611)" fill="#6c63ff"/>
  <path id="Path_16566" data-name="Path 16566" d="M152.545,737.822h0c0-.013,0-.027,0-.041Z" transform="translate(-144.001 -635.656)" fill="#6c63ff"/>
  <path id="Path_16567" data-name="Path 16567" d="M152.323,740.906l0,.041c0-.014,0-.027,0-.041Z" transform="translate(-143.811 -638.304)" fill="#6c63ff"/>
  <path id="Path_16568" data-name="Path 16568" d="M156.715,740.435l-4.344-2.387q-.021.214-.031.437l4.408,2.342Q156.733,740.629,156.715,740.435Z" transform="translate(-143.827 -635.882)" fill="#6c63ff"/>
  <path id="Path_16569" data-name="Path 16569" d="M157.693,756.238l-4.276-2.312a9.881,9.881,0,0,0,.4,1.261l.006-.044,3.72,2.559A12.284,12.284,0,0,0,157.693,756.238Z" transform="translate(-144.74 -649.335)" fill="#6c63ff"/>
  <path id="Path_16570" data-name="Path 16570" d="M162.259,713.392l.02-.018a1.938,1.938,0,0,0-1.773.617l2.466,1.768C162.616,714.35,162.264,713.406,162.259,713.392Z" transform="translate(-150.746 -614.95)" fill="#6c63ff"/>
  <path id="Path_16571" data-name="Path 16571" d="M157.964,719.6l-2.523-1.808.005-.039a4.118,4.118,0,0,0-.882,1.573l3.808,2.21C158.253,720.837,158.109,720.181,157.964,719.6Z" transform="translate(-145.712 -618.686)" fill="#6c63ff"/>
  <path id="Path_16572" data-name="Path 16572" d="M156.719,745.576a16.575,16.575,0,0,0-.03-1.784l-4.419-2.348q-.014.359,0,.738a5.941,5.941,0,0,0,.147,1.071l4.3,2.325Z" transform="translate(-143.762 -638.76)" fill="#6c63ff"/>
  <path id="Path_16573" data-name="Path 16573" d="M1071.413,683.547c-.043.6-.109,1.28-.213,1.99l1.867-2.07.01.035a5.44,5.44,0,0,0-.546-1.425l.012.033Z" transform="translate(-922.374 -588.458)" fill="#6c63ff"/>
  <path id="Path_16574" data-name="Path 16574" d="M1072.642,677.305l1.095-1.393a2.866,2.866,0,0,0-.979-1.043l-.06-.034C1072.7,675,1072.732,675.965,1072.642,677.305Z" transform="translate(-923.596 -582.321)" fill="#6c63ff"/>
  <path id="Path_16575" data-name="Path 16575" d="M1065.347,716.284q-.072.22-.149.432l2.749-1.612,0,.04q.086-.376.143-.752l-2.745,1.911Z" transform="translate(-917.289 -615.839)" fill="#6c63ff"/>
  <path id="Path_16576" data-name="Path 16576" d="M1068.678,695.664l2.476-2.042.007.038a8.55,8.55,0,0,0-.212-2.008l-1.9,2.11Q1068.9,694.76,1068.678,695.664Z" transform="translate(-920.237 -596.571)" fill="#6c63ff"/>
  <path id="Path_16577" data-name="Path 16577" d="M1050.516,686.655l-2.963-3.306.016-.037a7.141,7.141,0,0,0-.711,1.251l3.381,3.6C1050.355,687.638,1050.445,687.129,1050.516,686.655Z" transform="translate(-901.749 -589.504)" fill="#6c63ff"/>
  <path id="Path_16578" data-name="Path 16578" d="M1046.649,691.786h0c.005-.012.01-.026.015-.038Z" transform="translate(-901.572 -596.652)" fill="#6c63ff"/>
  <path id="Path_16579" data-name="Path 16579" d="M1049.128,695.609,1045.734,692q-.086.2-.165.405l3.468,3.59Q1049.085,695.8,1049.128,695.609Z" transform="translate(-900.657 -596.862)" fill="#6c63ff"/>
  <path id="Path_16580" data-name="Path 16580" d="M1045.484,694.651l-.015.038.015-.038Z" transform="translate(-900.572 -599.111)" fill="#6c63ff"/>
  <path id="Path_16581" data-name="Path 16581" d="M1069.081,706.462a10.228,10.228,0,0,0,.11-1.372l-2.51,2.07q-.149.6-.328,1.158l2.722-1.895Z" transform="translate(-918.267 -607.957)" fill="#6c63ff"/>
  <path id="Path_16582" data-name="Path 16582" d="M1042.423,708.648l2.747,3.584a12.273,12.273,0,0,0,.6-1.346l-3.352-3.52a9.88,9.88,0,0,0-.011,1.323Z" transform="translate(-897.961 -609.885)" fill="#6c63ff"/>
  <path id="Path_16583" data-name="Path 16583" d="M1062.4,673.51l.025-.011a1.938,1.938,0,0,0-1.877.039l1.8,2.444C1062.44,674.532,1062.4,673.525,1062.4,673.51Z" transform="translate(-913.345 -581)" fill="#6c63ff"/>
  <path id="Path_16584" data-name="Path 16584" d="M1061.621,721.4a12.2,12.2,0,0,1-.54,1.213l2.763-1.43,0,.04a4.84,4.84,0,0,0,.484-1.121q.066-.232.12-.465l-2.782,1.631Z" transform="translate(-913.801 -620.285)" fill="#6c63ff"/>
  <path id="Path_16585" data-name="Path 16585" d="M1054.807,677.64l-1.84-2.5.017-.036a4.12,4.12,0,0,0-1.325,1.223l2.939,3.279C1054.7,678.9,1054.765,678.237,1054.807,677.64Z" transform="translate(-905.817 -582.55)" fill="#6c63ff"/>
  <path id="Path_16586" data-name="Path 16586" d="M1046,700.457a16.581,16.581,0,0,0,.523-1.706l-3.477-3.6q-.124.337-.228.7a5.94,5.94,0,0,0-.192,1.064l3.371,3.541Z" transform="translate(-898.162 -599.537)" fill="#6c63ff"/>
  <path id="Path_16587" data-name="Path 16587" d="M1080.153,752.986c-.418.438-.9.916-1.433,1.4l2.758-.4-.014.033a5.444,5.444,0,0,0,.488-1.446l-.012.033Z" transform="translate(-928.745 -648.184)" fill="#6c63ff"/>
  <path id="Path_16588" data-name="Path 16588" d="M1090.227,742.644c-.008-.022-.016-.044-.025-.065-.1.131-.694.893-1.619,1.868l1.732-.375A2.864,2.864,0,0,0,1090.227,742.644Z" transform="translate(-937.103 -639.721)" fill="#6c63ff"/>
  <path id="Path_16589" data-name="Path 16589" d="M1058.626,778.234q-.2.123-.39.237l3.146.512-.023.034q.306-.235.59-.488l-3.333-.28Z" transform="translate(-911.389 -669.931)" fill="#6c63ff"/>
  <path id="Path_16590" data-name="Path 16590" d="M1068.37,763.9l3.21.006-.019.034a8.557,8.557,0,0,0,1.117-1.682l-2.811.412Q1069.114,763.343,1068.37,763.9Z" transform="translate(-919.976 -656.396)" fill="#6c63ff"/>
  <path id="Path_16591" data-name="Path 16591" d="M1061.283,774.132l3.305.277-.021.034a10.227,10.227,0,0,0,.96-.987l-3.253-.007Q1061.776,773.819,1061.283,774.132Z" transform="translate(-913.972 -665.878)" fill="#6c63ff"/>
  <path id="Path_16592" data-name="Path 16592" d="M1015.609,726.524l.073-.074a8.5,8.5,0,0,0,1.961-.56l.09-2.382q.04-.091.078-.183l-.1,2.535a12.286,12.286,0,0,0,1.318-.656l-.307-4.428.072-.038.307,4.422h0a16.586,16.586,0,0,0,1.491-.98l-.334-4.358.071-.052.334,4.357q.159-.118.313-.237l-.276-4.411.071-.058.276,4.414c.424-.331.818-.665,1.175-.985l-.173-4.436.036-.019c-.123.032-.248.07-.375.112a6.253,6.253,0,0,0,.638-.87l-2.789,1.443a9.389,9.389,0,0,1-.65,1.059c-.05.047-.1.094-.149.143l0,.053-.068.09-.005-.071c-.035.036-.07.074-.1.111a8.816,8.816,0,0,0,.926-1.415l-2.727-3.557c.019.318.05.638.09.956a5.379,5.379,0,0,0-.914-1.117l.021.027-.63,1.717c.146.588.291,1.251.413,1.958l1.12-2.511c.005.039.011.078.016.117l-1.117,2.505q.166.995.237,1.922l1.341-2.106.023.09-1.355,2.129q.044.619.046,1.2l1.639-2.163.026.083-1.656,2.185-.008-.017q0,.231-.008.456l1.849-2.082.027.08-1.881,2.118c0,.047,0,.093-.006.139a12.209,12.209,0,0,1-.138,1.321l.178-.181-.1.207-.1.1c-.012.067-.025.132-.038.2q-.056.123-.108.241c.034-.15.065-.3.091-.454l-3.693-2.541a22.78,22.78,0,0,0,2.894,4.958c.094-.176.18-.357.259-.542l.069-.007-.029.068-.035,0,.029.008c-.055.129-.113.256-.174.379.081-.072.2-.187.35-.332a9.747,9.747,0,0,0,5.211,0l-3.069-.668a8.584,8.584,0,0,1-2.051.581Zm2.157-3.883.074-.075,0,.112-.074.075Z" transform="translate(-872.346 -616.634)" fill="#6c63ff"/>
  <path id="Path_16593" data-name="Path 16593" d="M1089.968,735.918l.026.007a1.938,1.938,0,0,0-1.471-1.167l-.173,3.03C1089.35,736.732,1089.959,735.93,1089.968,735.918Z" transform="translate(-936.905 -633.094)" fill="#6c63ff"/>
  <path id="Path_16594" data-name="Path 16594" d="M1050.185,780.239a12.245,12.245,0,0,1-1.189.59l3.04.661-.023.032a4.834,4.834,0,0,0,1.088-.554q.2-.136.389-.281l-3.183-.518Z" transform="translate(-903.56 -671.571)" fill="#6c63ff"/>
  <path id="Path_16595" data-name="Path 16595" d="M1077.635,738.887c.526-.476,1-.948,1.416-1.381l.177-3.1.036-.016a4.119,4.119,0,0,0-1.8.1Z" transform="translate(-927.68 -632.735)" fill="#6c63ff"/>
  <path id="Path_16596" data-name="Path 16596" d="M1029.627,711.284a2.865,2.865,0,0,0-1.254-.69l-.068-.014c.057.155.382,1.064.711,2.367Z" transform="translate(-886.029 -612.609)" fill="#6c63ff"/>
  <path id="Path_16597" data-name="Path 16597" d="M1012.719,727.555l-3.84-2.228,0-.04a7.14,7.14,0,0,0-.289,1.41l4.328,2.378C1012.87,728.539,1012.8,728.027,1012.719,727.555Z" transform="translate(-869.328 -625.069)" fill="#6c63ff"/>
  <path id="Path_16598" data-name="Path 16598" d="M1008.323,737.906l0,.041c0-.014,0-.027,0-.041Z" transform="translate(-869.096 -635.762)" fill="#6c63ff"/>
  <path id="Path_16599" data-name="Path 16599" d="M1008.545,734.822h0c0-.013,0-.027,0-.041Z" transform="translate(-869.287 -633.114)" fill="#6c63ff"/>
  <path id="Path_16600" data-name="Path 16600" d="M1012.715,737.435l-4.344-2.387q-.021.214-.031.437l4.408,2.342Q1012.733,737.629,1012.715,737.435Z" transform="translate(-869.113 -633.34)" fill="#6c63ff"/>
  <path id="Path_16601" data-name="Path 16601" d="M1013.693,753.238l-4.276-2.312a9.851,9.851,0,0,0,.4,1.261l.006-.044,3.72,2.559A12.274,12.274,0,0,0,1013.693,753.238Z" transform="translate(-870.026 -646.793)" fill="#6c63ff"/>
  <path id="Path_16602" data-name="Path 16602" d="M1018.259,710.392l.02-.018a1.938,1.938,0,0,0-1.773.617l2.466,1.768C1018.616,711.35,1018.264,710.406,1018.259,710.392Z" transform="translate(-876.032 -612.408)" fill="#6c63ff"/>
  <path id="Path_16603" data-name="Path 16603" d="M1013.964,716.6l-2.523-1.808.005-.039a4.119,4.119,0,0,0-.882,1.573l3.808,2.21C1014.253,717.837,1014.109,717.181,1013.964,716.6Z" transform="translate(-870.997 -616.144)" fill="#6c63ff"/>
  <path id="Path_16604" data-name="Path 16604" d="M1012.719,742.576a16.587,16.587,0,0,0-.03-1.784l-4.419-2.348q-.014.359,0,.738a5.941,5.941,0,0,0,.147,1.071l4.3,2.325Z" transform="translate(-869.048 -636.218)" fill="#6c63ff"/>
  <path id="Path_16605" data-name="Path 16605" d="M60.812,727H205.269v2.067a3.278,3.278,0,0,1-3.278,3.278H64.089a3.278,3.278,0,0,1-3.278-3.278Z" transform="translate(-51.525 -615.984)" fill="#2f2e41"/>
  <rect id="Rectangle_4740" data-name="Rectangle 4740" width="144.458" height="2.901" transform="translate(9.286 109.336)" fill="#3f3d56"/>
  <path id="Path_16606" data-name="Path 16606" d="M888.124,114.732l1.659,1.052-1.007-1.831a1.64,1.64,0,0,1,1-.358h.027a1.923,1.923,0,0,0,.344-.025l.562.357-.241-.438a2,2,0,0,0,.984-.746l1.006.638-.636-1.156a2.945,2.945,0,0,1,2.255-1.14,3.09,3.09,0,0,1,2.58,1.592,1.929,1.929,0,0,0,1.706.92h.056c1.155,0,2.092,1.31,2.092,2.926s-.937,2.926-2.092,2.926a1.57,1.57,0,0,1-.729-.182,3.019,3.019,0,0,0-2.532-.049,2.639,2.639,0,0,1-2.153,0,3.021,3.021,0,0,0-2.509.049,1.569,1.569,0,0,1-.721.178c-1.155,0-2.092-1.31-2.092-2.926a3.715,3.715,0,0,1,.437-1.788Z" transform="translate(-766.884 -104.657)" fill="#f2f2f2"/>
  <path id="Path_16607" data-name="Path 16607" d="M336.248,178.367l1.055.669-.641-1.165a1.043,1.043,0,0,1,.638-.228h.017a1.222,1.222,0,0,0,.219-.016l.358.227-.153-.279a1.273,1.273,0,0,0,.626-.475l.64.406-.4-.735a1.873,1.873,0,0,1,1.434-.725,1.966,1.966,0,0,1,1.642,1.013,1.227,1.227,0,0,0,1.085.585h.036c.735,0,1.331.833,1.331,1.861s-.6,1.861-1.331,1.861a1,1,0,0,1-.463-.116,1.92,1.92,0,0,0-1.611-.031,1.679,1.679,0,0,1-1.369,0,1.922,1.922,0,0,0-1.6.031,1,1,0,0,1-.459.113c-.735,0-1.331-.833-1.331-1.861a2.363,2.363,0,0,1,.278-1.138Z" transform="translate(-299.417 -159.7)" fill="#f2f2f2"/>
  <path id="Path_16608" data-name="Path 16608" d="M150.249,201.862l1.055.669-.641-1.165a1.044,1.044,0,0,1,.638-.228h.017a1.222,1.222,0,0,0,.219-.016l.358.227-.153-.279a1.273,1.273,0,0,0,.626-.475l.64.406-.4-.735a1.873,1.873,0,0,1,1.434-.725,1.966,1.966,0,0,1,1.642,1.013,1.227,1.227,0,0,0,1.085.585h.036c.735,0,1.331.833,1.331,1.861s-.6,1.861-1.331,1.861a1,1,0,0,1-.463-.116,1.92,1.92,0,0,0-1.611-.031,1.679,1.679,0,0,1-1.369,0,1.922,1.922,0,0,0-1.6.031,1,1,0,0,1-.459.113c-.735,0-1.331-.833-1.331-1.861A2.363,2.363,0,0,1,150.249,201.862Z" transform="translate(-141.82 -179.607)" fill="#f2f2f2"/>
  <path id="Path_16609" data-name="Path 16609" d="M400.292,665.864l-.184.184s.061,2.028.123,2.458a3.946,3.946,0,0,1,.123,1.72,2.1,2.1,0,0,0-.184,1.044c.061.061-.061.307-.061.307l.492-.307.8-1.843-.369-1.966Z" transform="translate(-353.759 -574.72)" fill="#6c63ff"/>
  <path id="Path_16610" data-name="Path 16610" d="M400.292,665.864l-.184.184s.061,2.028.123,2.458a3.946,3.946,0,0,1,.123,1.72,2.1,2.1,0,0,0-.184,1.044c.061.061-.061.307-.061.307l.492-.307.8-1.843-.369-1.966Z" transform="translate(-353.759 -574.72)" opacity="0.1"/>
  <path id="Path_16611" data-name="Path 16611" d="M409.747,783.5s0-.676-.123-.8-.307-.553-.553-.553a3.467,3.467,0,0,0-1.106.307,1.122,1.122,0,0,1-.123.553c-.123.184-.8.922-.123,1.045a1.717,1.717,0,0,0,1.29-.307c.061-.061.307-.123.369-.061S409.747,783.5,409.747,783.5Z" transform="translate(-359.958 -673.249)" fill="#6c63ff"/>
  <path id="Path_16612" data-name="Path 16612" d="M433.906,783.417l.369.676s.123.614.307.676h.184s.184.676.614.614.922-.307.922-.43,0-.492-.184-.615a8.744,8.744,0,0,1-.737-.676l-.307-.307Z" transform="translate(-382.397 -674.271)" fill="#6c63ff"/>
  <path id="Path_16613" data-name="Path 16613" d="M399.714,634.366a.829.829,0,0,0-.444.62c-.034.439.4.852.26,1.269-.079.237-.326.39-.4.63a.867.867,0,0,0,.08.562,4.288,4.288,0,0,0,.353.682,3.447,3.447,0,0,1,.665,1.27.542.542,0,0,1-.12.478,1.146,1.146,0,0,1,.419-.2,5.334,5.334,0,0,0,1.72-.958,1.075,1.075,0,0,0,.4-.529c.094-.378-.193-.755-.165-1.143a2.875,2.875,0,0,1,.242-.7,1.815,1.815,0,0,0-.157-1.414,1.688,1.688,0,0,0-1-.874,1.993,1.993,0,0,0-1.015.029A3.727,3.727,0,0,0,399.714,634.366Z" transform="translate(-352.921 -547.727)" fill="#2f2e41"/>
  <path id="Path_16614" data-name="Path 16614" d="M405.291,653.687a1.594,1.594,0,0,1,1.39-.838c.983,0,.8-.061.8-.061l-.307,1.229-.614.614Z" transform="translate(-358.152 -563.64)" fill="#6c63ff"/>
  <path id="Path_16615" data-name="Path 16615" d="M406.73,649.355s.553.922.184,1.29a.6.6,0,0,0-.123.8c.061.061,1.782.184,1.782.184l.061-.86.184-.737s-.983-.184-.86-.615S406.73,649.355,406.73,649.355Z" transform="translate(-359.338 -560.608)" fill="#fbbebe"/>
  <path id="Path_16616" data-name="Path 16616" d="M406.73,649.355s.553.922.184,1.29a.6.6,0,0,0-.123.8c.061.061,1.782.184,1.782.184l.061-.86.184-.737s-.983-.184-.86-.615S406.73,649.355,406.73,649.355Z" transform="translate(-359.338 -560.608)" opacity="0.1"/>
  <path id="Path_16617" data-name="Path 16617" d="M432.386,705.944a4.234,4.234,0,0,1-.246.614c-.061.061-.246-.43-.246-.43l.184-.43Z" transform="translate(-380.693 -608.472)" fill="#fbbebe"/>
  <path id="Path_16618" data-name="Path 16618" d="M314.8,620l.246,1.413h-3.687l.184-1.413Z" transform="translate(-263.813 -525.324)" fill="#fbbebe"/>
  <circle id="Ellipse_3749" data-name="Ellipse 3749" cx="1.167" cy="1.167" r="1.167" transform="translate(46.901 86.904)" fill="#fbbebe"/>
  <path id="Path_16619" data-name="Path 16619" d="M402,653.256s-.676.061-.676-.061-.061-.492-.184-.43-.922.123-.86.307.184.553.061.553a.4.4,0,0,0-.307.492c.061.307.737,2.151.737,2.151a1.852,1.852,0,0,0,.246.8.551.551,0,0,1,0,.676c-.123.123.307.246.492.492s1.6.061,1.659,0,1.536-.061,1.659-.184-.061-.492-.061-.492a2.858,2.858,0,0,1,0-.737,15.913,15.913,0,0,0-.43-3.379c-.184-.184.553-.737.553-.737s-.123-.492-.922-.553c0,0-.246-.369-.492-.369a2.614,2.614,0,0,0-.779.286s-.142.82-.327.882A1.013,1.013,0,0,0,402,653.256Z" transform="translate(-353.689 -562.788)" fill="#6c63ff"/>
  <path id="Path_16620" data-name="Path 16620" d="M426.009,656.609l.43.184s1.229,3.809,1.106,4.547a18.132,18.132,0,0,1-.614,3.257c-.184,0-.553-.369-.553-.369v-.614c0-.123-.184-.492-.061-.492s.307-.123.184-.246-.246-.307-.123-.492.184-.246.123-.43-.184-.369-.061-.492-.307-.737-.307-.737l-.676-2.7.123-1.106Z" transform="translate(-375.238 -566.879)" fill="#6c63ff"/>
  <path id="Path_16621" data-name="Path 16621" d="M403.375,692.206s-2.335-.184-2.642-.184a4.016,4.016,0,0,1-1-.289,5.242,5.242,0,0,0-1.154,4.652c.614,2.888.737,6.452,1.106,7.5a19.45,19.45,0,0,1,.614,2.273s.614-1.106,1.782.123a3.213,3.213,0,0,0-.061-1.29,16.176,16.176,0,0,1-.43-2.335s-.43-3.134-.43-3.5-.246-3.5-.184-3.564.369,2.4.43,2.826.246,3.748.43,4.117,1.045,3.318,1.536,3.5a4.06,4.06,0,0,0,2.089-.184c-.061-.123-.492-.8-.614-.983l-.492-.737-1.167-3.994.553-4.854S404.051,692.145,403.375,692.206Z" transform="translate(-352.358 -596.639)" fill="#2f2e41"/>
  <path id="Path_16622" data-name="Path 16622" d="M405.437,638.262h-1.5a.267.267,0,0,1-.263-.225l-.149-.942h2.335l-.209.992A.222.222,0,0,1,405.437,638.262Z" transform="translate(-356.657 -550.344)" fill="#2f2e41"/>
  <path id="Path_16623" data-name="Path 16623" d="M824.715,573.834h2.362v3.374h0a2.362,2.362,0,0,1-2.362-2.362Z" transform="translate(-698.778 -486.208)" fill="#2f2e41"/>
  <path id="Path_16624" data-name="Path 16624" d="M814.756,703.292l-.169.844h1.181l.056-.844Z" transform="translate(-690.196 -595.897)" fill="#a0616a"/>
  <path id="Path_16625" data-name="Path 16625" d="M899.473,776.088s-.225-.169-.338-.056-.506,2.306-.562,2.362-1.743.9-1.35.956a9.029,9.029,0,0,0,2.137,0,5.916,5.916,0,0,0,.844-1.181v.956h.113a3.17,3.17,0,0,1,.394-1.294c.281-.281-.225-1.237-.225-1.237s.112-.619.056-.619S899.473,776.088,899.473,776.088Z" transform="translate(-774.914 -668.018)" fill="#6c63ff"/>
  <path id="Path_16626" data-name="Path 16626" d="M837.59,699.425l-.169.844H838.6l.056-.844Z" transform="translate(-709.544 -592.62)" fill="#a0616a"/>
  <path id="Path_16627" data-name="Path 16627" d="M926.281,715.591s.563,1.687.675,1.856.506,3.318.506,3.318-.394.619.112.675.281-.112.619,0a.635.635,0,0,0,.562-.056s.169-.337.056-.45a26.427,26.427,0,0,1,.113-3.037l-.338-1.012-.281-3.206s.337-.844.169-1.069-.731.169-.731.169Z" transform="translate(-799.585 -614.27)" fill="#2f2e41"/>
  <path id="Path_16628" data-name="Path 16628" d="M911.068,703.788a13.111,13.111,0,0,1-.281,1.912c-.112.112-1.35,3.262-1.35,3.262s-.338.394-.225,1.856.394,2.925.394,2.925-.225.844.169.844.562-.225.731-.056.281,0,.338-.112a3.009,3.009,0,0,0,.281-.619c0-.112.225-2.981.225-2.981s1.856-4.106,2.025-4.331a4.639,4.639,0,0,0,1.069-2.306Z" transform="translate(-785.103 -606.854)" fill="#2f2e41"/>
  <circle id="Ellipse_3750" data-name="Ellipse 3750" cx="1.181" cy="1.181" r="1.181" transform="translate(126.19 86.98)" fill="#a0616a"/>
  <path id="Path_16629" data-name="Path 16629" d="M929.228,649.218a12.563,12.563,0,0,1,.506,1.294c.056.281,1.125-.562,1.125-.562s-.562-.956-.394-1.406Z" transform="translate(-802.081 -560.045)" fill="#a0616a"/>
  <path id="Path_16630" data-name="Path 16630" d="M923.316,655.825s-.844-.619-1.462.675-.787,1.237-.787,1.237-.731.225-.506,1.8-.731,3.656-.337,3.768,4.049.731,4.049.281a11.971,11.971,0,0,1-.056-3.262C924.5,659.256,923.822,655.544,923.316,655.825Z" transform="translate(-794.37 -566.09)" fill="#3f3d56"/>
  <path id="Path_16631" data-name="Path 16631" d="M927.21,658.487a3.654,3.654,0,0,0-.619,1.8c.056.787.056,1.294.056,1.294s-1.125,5.4-.9,5.4.9.281.956.112,1.462-3.6,1.462-3.6.337-3.431-.056-4.218S927.21,658.487,927.21,658.487Z" transform="translate(-799.108 -568.47)" fill="#3f3d56"/>
  <path id="Path_16632" data-name="Path 16632" d="M925.57,713s-.562,1.912.225,1.968.337-1.856.337-1.856Z" transform="translate(-798.817 -614.655)" fill="#a0616a"/>
  <path id="Path_16633" data-name="Path 16633" d="M925.232,770.534s-.2-.148-.3-.049-.443,2.019-.493,2.069-1.527.788-1.182.837a7.9,7.9,0,0,0,1.872,0,5.176,5.176,0,0,0,.739-1.034v.837h.1a2.777,2.777,0,0,1,.345-1.133c.246-.246-.2-1.084-.2-1.084s.1-.542.049-.542S925.232,770.534,925.232,770.534Z" transform="translate(-796.982 -663.324)" fill="#6c63ff"/>
  <path id="Path_16634" data-name="Path 16634" d="M918.74,632.528a.329.329,0,0,1,.142-.1.3.3,0,0,1,.155.013,1.582,1.582,0,0,1,.865.629.485.485,0,0,0,.174.189,1.029,1.029,0,0,1,.141.054c.131.087.053.288-.023.427a2.154,2.154,0,0,0-.258,1.163.333.333,0,0,0,.059.2.351.351,0,0,0,.234.093,5.779,5.779,0,0,0,.823.044.969.969,0,0,0,.742-.248.781.781,0,0,0,.036-.821c-.122-.262-.32-.482-.461-.735a4.313,4.313,0,0,1-.315-.836,3.5,3.5,0,0,0-.465-1.037,1.391,1.391,0,0,0-.934-.6,2.912,2.912,0,0,0-2.382,1.92,3.706,3.706,0,0,0,.4,1.333,4.805,4.805,0,0,1,.034,2.146c.416-.249.888-.6.86-1.08a2.3,2.3,0,0,0-.419-.877C917.726,633.606,918.207,633.072,918.74,632.528Z" transform="translate(-791.952 -545.141)" fill="#2f2e41"/>
  <path id="Path_16635" data-name="Path 16635" d="M1010.164,648.911a4.045,4.045,0,0,0,.535-2.051c0-1.853-1.148-3.356-2.563-3.356s-2.563,1.5-2.563,3.356a4.045,4.045,0,0,0,.535,2.051,275590.138,275590.138,0,0,0,0,8.2,4.2,4.2,0,0,0,0,4.1,4.045,4.045,0,0,0-.535,2.051c0,1.853,1.148,3.356,2.563,3.356s2.563-1.5,2.563-3.356a4.045,4.045,0,0,0-.535-2.051,4.2,4.2,0,0,0,0-4.1,4.2,4.2,0,0,0,0-4.1A4.2,4.2,0,0,0,1010.164,648.911Z" transform="translate(-866.768 -555.776)" fill="#3f3d56"/>
  <ellipse id="Ellipse_3751" data-name="Ellipse 3751" cx="2.563" cy="3.356" rx="2.563" ry="3.356" transform="translate(138.805 83.628)" fill="#3f3d56"/>
  <ellipse id="Ellipse_3752" data-name="Ellipse 3752" cx="2.563" cy="3.356" rx="2.563" ry="3.356" transform="translate(138.805 79.526)" fill="#3f3d56"/>
  <path id="Path_16636" data-name="Path 16636" d="M963.522,317.714a12.3,12.3,0,0,0,.955-1.405l-6.735-1.106,7.284.054a12.3,12.3,0,0,0,.234-9.729l-9.773,5.07,9.013-6.625a12.279,12.279,0,1,0-20.279,13.741,12.281,12.281,0,0,0-1.4,2.239l8.743,4.542-9.322-3.129a12.285,12.285,0,0,0,1.98,11.53,12.278,12.278,0,1,0,19.3,0A12.28,12.28,0,0,0,963.522,317.714Z" transform="translate(-812.558 -262.898)" fill="#f2f2f2"/>
  <path id="Path_16637" data-name="Path 16637" d="M941.593,476.677a12.226,12.226,0,0,0,2.628,7.591,12.278,12.278,0,1,0,19.3,0C965.168,482.179,941.593,475.3,941.593,476.677Z" transform="translate(-812.558 -414.27)" fill="#f2f2f2"/>
  <path id="Path_16638" data-name="Path 16638" d="M963.522,317.714a12.3,12.3,0,0,0,.955-1.405l-6.735-1.106,7.284.054a12.3,12.3,0,0,0,.234-9.729l-9.773,5.07,9.013-6.625a12.279,12.279,0,1,0-20.279,13.741,12.281,12.281,0,0,0-1.4,2.239l8.743,4.542-9.322-3.129a12.285,12.285,0,0,0,1.98,11.53,12.278,12.278,0,1,0,19.3,0A12.28,12.28,0,0,0,963.522,317.714Z" transform="translate(-812.558 -262.898)" fill="#e6e6e6"/>
  <path id="Path_16639" data-name="Path 16639" d="M941.593,476.677a12.226,12.226,0,0,0,2.628,7.591,12.278,12.278,0,1,0,19.3,0C965.168,482.179,941.593,475.3,941.593,476.677Z" transform="translate(-812.558 -414.27)" fill="#e6e6e6" opacity="0.1"/>
  <path id="Path_16640" data-name="Path 16640" d="M165.164,648.911a4.045,4.045,0,0,0,.535-2.051c0-1.853-1.148-3.356-2.563-3.356s-2.563,1.5-2.563,3.356a4.045,4.045,0,0,0,.535,2.051,4.2,4.2,0,0,0,0,4.1,4.2,4.2,0,0,0,0,4.1,4.2,4.2,0,0,0,0,4.1,4.045,4.045,0,0,0-.535,2.051c0,1.853,1.148,3.356,2.563,3.356s2.563-1.5,2.563-3.356a4.045,4.045,0,0,0-.535-2.051,4.2,4.2,0,0,0,0-4.1,4.2,4.2,0,0,0,0-4.1A4.2,4.2,0,0,0,165.164,648.911Z" transform="translate(-150.802 -555.776)" fill="#3f3d56"/>
  <ellipse id="Ellipse_3753" data-name="Ellipse 3753" cx="2.563" cy="3.356" rx="2.563" ry="3.356" transform="translate(9.77 83.628)" fill="#3f3d56"/>
  <ellipse id="Ellipse_3754" data-name="Ellipse 3754" cx="2.563" cy="3.356" rx="2.563" ry="3.356" transform="translate(9.77 79.526)" fill="#3f3d56"/>
  <path id="Path_16641" data-name="Path 16641" d="M118.522,317.714a12.3,12.3,0,0,0,.955-1.405l-6.735-1.106,7.284.054a12.3,12.3,0,0,0,.234-9.729l-9.773,5.07,9.013-6.625a12.279,12.279,0,1,0-20.279,13.741,12.286,12.286,0,0,0-1.4,2.239l8.743,4.542-9.322-3.129a12.285,12.285,0,0,0,1.98,11.53,12.278,12.278,0,1,0,19.3,0A12.28,12.28,0,0,0,118.522,317.714Z" transform="translate(-96.593 -262.898)" fill="#f2f2f2"/>
  <path id="Path_16642" data-name="Path 16642" d="M96.593,476.677a12.226,12.226,0,0,0,2.628,7.591,12.278,12.278,0,1,0,19.3,0C120.168,482.179,96.593,475.3,96.593,476.677Z" transform="translate(-96.593 -414.27)" fill="#f2f2f2"/>
  <path id="Path_16643" data-name="Path 16643" d="M118.522,317.714a12.3,12.3,0,0,0,.955-1.405l-6.735-1.106,7.284.054a12.3,12.3,0,0,0,.234-9.729l-9.773,5.07,9.013-6.625a12.279,12.279,0,1,0-20.279,13.741,12.286,12.286,0,0,0-1.4,2.239l8.743,4.542-9.322-3.129a12.285,12.285,0,0,0,1.98,11.53,12.278,12.278,0,1,0,19.3,0A12.28,12.28,0,0,0,118.522,317.714Z" transform="translate(-96.593 -262.898)" fill="#e6e6e6"/>
  <path id="Path_16644" data-name="Path 16644" d="M96.593,476.677a12.226,12.226,0,0,0,2.628,7.591,12.278,12.278,0,1,0,19.3,0C120.168,482.179,96.593,475.3,96.593,476.677Z" transform="translate(-96.593 -414.27)" fill="#e8e8e8" opacity="0.1"/>
  <path id="Path_16645" data-name="Path 16645" d="M523.4,354.556l-6.092,6.092-2.887-2.886-1.124,1.124,4.007,4.006,7.22-7.212Z" transform="translate(-434.912 -300.414)" fill="#57b894"/>
  <path id="Path_16646" data-name="Path 16646" d="M650.4,263.556l-6.092,6.092-2.887-2.886-1.124,1.124,4.007,4.006,7.22-7.212Z" transform="translate(-542.518 -223.31)" fill="#57b894"/>
</svg>
