<svg id="employees" xmlns="http://www.w3.org/2000/svg" width="142.923" height="135.44" viewBox="0 0 142.923 135.44">
  <path id="Path_16668" data-name="Path 16668" d="M330.612,171.605A25.79,25.79,0,0,1,319.55,192.8a25.475,25.475,0,0,1-3.016,1.814c-.347.178-.7.347-1.053.508-.321.147-.643.285-.971.416a25.916,25.916,0,0,1-12.815,1.71q-1.129-.134-2.228-.367l-.1-.02a25.226,25.226,0,0,1-4.486-1.4,25.825,25.825,0,1,1,35.726-23.854Z" transform="translate(-278.957 -145.781)" fill="#f1f1f1"/>
  <path id="Path_16669" data-name="Path 16669" d="M371.59,232.171c-.022-.027-.047-.051-.071-.076a7.445,7.445,0,0,0-10.471-.107c-.016.013-.029.027-.042.04s-.033.031-.049.047a7.441,7.441,0,0,0-2.186,5.271v4.675a1,1,0,0,0,1,1h12.911a1,1,0,0,0,1-1v-4.675a7.424,7.424,0,0,0-2.095-5.176Z" transform="translate(-341.003 -211.167)" fill="#2f2e41"/>
  <circle id="Ellipse_3758" data-name="Ellipse 3758" cx="5.467" cy="5.467" r="5.467" transform="translate(20.056 20.876)" fill="#ffb7b7"/>
  <path id="Path_16670" data-name="Path 16670" d="M378.647,240.733l-.646-4.51a.565.565,0,0,0-.2-.354.586.586,0,0,0-.118-.073,11.29,11.29,0,0,0-9.964,0,.545.545,0,0,0-.122.078c-.013.011-.027.025-.04.038a.564.564,0,0,0-.156.336l-.432,4.517a.558.558,0,0,0,.143.427.552.552,0,0,0,.321.174.41.41,0,0,0,.091.009h1.1a.562.562,0,0,0,.505-.321l.474-1.015a.332.332,0,0,1,.632.1l.093.748a.559.559,0,0,0,.552.487H378.1a.535.535,0,0,0,.269-.071.564.564,0,0,0,.151-.12.558.558,0,0,0,.129-.445Z" transform="translate(-347.377 -214.855)" fill="#2f2e41"/>
  <path id="Path_16671" data-name="Path 16671" d="M437.768,325l1.549,5.187A25.479,25.479,0,0,1,436.3,332c-.347.178-.7.347-1.053.508l-1.605-6.881-.623-2.669,4.007-.445Z" transform="translate(-398.725 -283.169)" fill="#ffb7b7"/>
  <path id="Path_16672" data-name="Path 16672" d="M355.187,329.81l-.134,7.008-.058,3.1a25.221,25.221,0,0,1-4.486-1.4l.532-6.638.134-1.674Z" transform="translate(-334.582 -288.844)" fill="#ffb7b7"/>
  <path id="Path_16673" data-name="Path 16673" d="M371.884,308.01l-4.025.6.049.661.485,6.66a25.916,25.916,0,0,1-12.815,1.71q-1.129-.134-2.228-.367c.329-1.385.614-2.631.263-2.876a2.671,2.671,0,0,1-.3-.245c-1.641-1.565-1.035-5.1-1.035-5.1l-2.976.165-1.031.058s.445-7.123,2.449-7.123h2.449l11.8-1.113s3.339-1.113,4.23.445c.467.817,1.3,2.549,1.988,4.014.623,1.331,1.129,2.442,1.129,2.442Z" transform="translate(-332.841 -266.183)" fill="#2f2e41"/>
  <path id="Path_16674" data-name="Path 16674" d="M740.637,171.9a25.788,25.788,0,0,1-10.882,20.781l-.178.125c-.062.045-.127.089-.191.131q-.561.387-1.144.741-.821.5-1.681.942l-.056.027q-.494.254-1,.481l-.031.013c-.078.036-.16.073-.24.107-.621.276-1.256.528-1.9.75q-.825.29-1.674.521a25.315,25.315,0,0,1-3.528.708,25.731,25.731,0,0,1-3.063.209c-.085,0-.169,0-.254,0-.559,0-1.115-.018-1.665-.053-.481-.031-.957-.073-1.429-.131-.728-.087-1.447-.2-2.155-.354-.031,0-.062-.011-.094-.018l-.076-.016c-.712-.149-1.414-.332-2.1-.541q-.972-.294-1.908-.663c-.16-.062-.318-.125-.476-.191-.394-.165-.783-.336-1.166-.521-.111-.051-.22-.1-.329-.158-.37-.18-.735-.37-1.091-.57q-.645-.357-1.267-.75c-.523-.329-1.035-.677-1.532-1.044A25.823,25.823,0,1,1,740.637,171.9Z" transform="translate(-597.716 -145.788)" fill="#f1f1f1"/>
  <path id="Path_16675" data-name="Path 16675" d="M773.322,321.183c-.712-.149-1.414-.332-2.1-.541L773.582,306l2.446-.076,4.437-.14,2.275-.071s1.614,7.092,2.845,15.126a25.318,25.318,0,0,1-3.528.708,25.714,25.714,0,0,1-3.063.209c-.085,0-.169,0-.254,0-.559,0-1.115-.018-1.665-.053-.481-.031-.957-.073-1.429-.131-.728-.087-1.447-.2-2.155-.354-.031,0-.062-.011-.093-.018Z" transform="translate(-661.639 -270.108)" fill="#cbcbcb"/>
  <path id="Path_16676" data-name="Path 16676" d="M759.257,320.719c-.031,0-.062-.011-.094-.018l-.076-.016c-.712-.149-1.414-.332-2.1-.541q-.972-.294-1.908-.663c-.16-.062-.318-.125-.476-.191-.394-.165-.783-.336-1.166-.521-.111-.051-.22-.1-.329-.158l-.2-10.966,6.01-2.576s.02.16,2.874.354C762.338,307.2,759.257,320.719,759.257,320.719Z" transform="translate(-647.405 -269.611)" fill="#2f2e41"/>
  <path id="Path_16677" data-name="Path 16677" d="M818.033,305.129l-1.133,5.955.107,5.385q-.494.254-1,.481l-.031.013c-.078.036-.16.073-.24.107-.621.276-1.256.528-1.9.75q-.825.29-1.674.521a25.317,25.317,0,0,1-3.528.708,25.715,25.715,0,0,1-3.063.209l-.118-9.543a8.975,8.975,0,0,1,1.589-6.429,48.275,48.275,0,0,0,5.278-.786l5.723,2.576Z" transform="translate(-688.217 -267.613)" fill="#2f2e41"/>
  <path id="Path_16678" data-name="Path 16678" d="M747.937,317.5l-.407,10.977c-.16-.062-.318-.125-.476-.191-.394-.165-.784-.336-1.166-.521-.111-.051-.22-.1-.329-.158-.37-.18-.735-.37-1.091-.57q-.645-.357-1.267-.75l2.162-9.646Z" transform="translate(-639.857 -278.606)" fill="#2f2e41"/>
  <path id="Path_16679" data-name="Path 16679" d="M855.746,323.551l-.178.125c-.062.045-.127.089-.191.131q-.561.387-1.144.741-.821.5-1.681.942l-.056.027q-.509.261-1.028.495h0L851.06,315l2.462-.819.113-.038Z" transform="translate(-723.706 -276.662)" fill="#2f2e41"/>
  <ellipse id="Ellipse_3759" data-name="Ellipse 3759" cx="6.367" cy="6.351" rx="6.367" ry="6.351" transform="translate(109.265 29.859) rotate(-73.66)" fill="#9f616a"/>
  <path id="Path_16680" data-name="Path 16680" d="M773.587,235.111v-2.478s-2-2.353.2-2.946c0,0,.6-5.928,5.795-3.162,0,0,7.194-1.186,6.394,2.964,0,0,1.8-1.083,1.2,1.683l-1.159,4.456s.56-2.944-1.239-3.339l-1-.593s-2.8,2.767-6.994-.593c0,0-1.8-.429-1.6,1.349A2.853,2.853,0,0,1,773.587,235.111Z" transform="translate(-662.833 -207.979)" fill="#2f2e41"/>
  <path id="Path_16681" data-name="Path 16681" d="M535.619,521.6a25.79,25.79,0,0,1-11.061,21.19c-.062.045-.127.089-.191.131q-.561.387-1.144.741-.821.5-1.681.942c-.347.178-.7.347-1.053.508-.089.04-.18.082-.272.12q-.932.414-1.9.75a25.418,25.418,0,0,1-5.2,1.229,25.876,25.876,0,0,1-3.317.211c-.559,0-1.115-.018-1.665-.053-.481-.031-.957-.073-1.429-.131-.759-.091-1.509-.214-2.248-.372l-.076-.016a25.22,25.22,0,0,1-4.486-1.4c-.394-.165-.784-.336-1.166-.521q-.725-.34-1.42-.728A25.824,25.824,0,1,1,535.619,521.6Z" transform="translate(-438.331 -417.867)" fill="#f1f1f1"/>
  <circle id="Ellipse_3760" data-name="Ellipse 3760" cx="5.766" cy="5.766" r="5.766" transform="translate(64.991 98.568)" fill="#ffb8b8"/>
  <path id="Path_16682" data-name="Path 16682" d="M578.248,664.9c-.759-.091-1.509-.214-2.248-.372l.7-15.778.1-.1,1.436-1.516H582.8l1.685,1.632.143.14,3.6,3.453,1.627,11.291a25.418,25.418,0,0,1-5.2,1.229,25.889,25.889,0,0,1-3.317.212c-.559,0-1.115-.018-1.665-.053C579.2,665,578.72,664.958,578.248,664.9Z" transform="translate(-509.876 -535.526)" fill="#cbcbcb"/>
  <path id="Path_16683" data-name="Path 16683" d="M545.038,667.626q-.725-.341-1.42-.728c-.047-4.274-.078-7.112-.078-7.112l.543-.332.02-.009,6.164-3.744,1.293-2.1.007.076.381,4.43a77.185,77.185,0,0,1,2.5,11.956c-.481-.031-.957-.073-1.429-.131-.759-.091-1.509-.214-2.248-.372l-.076-.016a25.218,25.218,0,0,1-4.486-1.4C545.811,667.982,545.421,667.811,545.038,667.626Z" transform="translate(-484.642 -540.556)" fill="#2f2e41"/>
  <path id="Path_16684" data-name="Path 16684" d="M618.216,668.675a25.425,25.425,0,0,1-5.2,1.229,20.316,20.316,0,0,1-.269-4.352c.481-7.687-.628-11.952-.147-11.952l.245.191,3.025,2.391,3.982,1.46h0l2.74,1,.483.178v.229c0,.792.007,3.566.047,7.3q-.821.5-1.681.942c-.347.178-.7.347-1.053.507-.089.04-.18.082-.272.12C619.5,668.2,618.862,668.452,618.216,668.675Z" transform="translate(-538.231 -540.556)" fill="#2f2e41"/>
  <path id="Path_16685" data-name="Path 16685" d="M567.135,587.76s.49-.86.376-3.735,4.263-1.249,7.92-1.523,2.883,4.8,2.883,4.8a9.566,9.566,0,0,0,.829-2.75,7.993,7.993,0,0,0-.718-4.888c-.378-2.573-2.414-1.748-2.414-1.748a1.068,1.068,0,0,1,.792,1.2c-.83-1.455-2.866-.63-2.866-.63-2.715-1.7-5.467.54-5.467.54-3.28.744-1.356,3.353-1.356,3.353C563.816,584.043,567.135,587.76,567.135,587.76Z" transform="translate(-501.834 -481.622)" fill="#2f2e41"/>
  <path id="Path_16686" data-name="Path 16686" d="M531.32,685.518c.085-1.957.122-3.219.078-3.395-.229-.917,2.9-2.146,3.186-2.255l.02-.009.637.341.3,7.84q-.725-.341-1.42-.728A25.637,25.637,0,0,1,531.32,685.518Z" transform="translate(-475.142 -560.97)" fill="#2f2e41"/>
  <path id="Path_16687" data-name="Path 16687" d="M646.317,680.348q-.821.5-1.681.942c-.347.178-.7.347-1.053.508-.089.04-.18.082-.272.12l-1-9.89.585-.427.149.036h0a11.587,11.587,0,0,1,2.74,1,1.716,1.716,0,0,1,.483.407.5.5,0,0,1,.113.352c-.027.258.419,2.707,1.078,6.208Q646.9,679.994,646.317,680.348Z" transform="translate(-561.426 -554.549)" fill="#2f2e41"/>
  <path id="Path_16688" data-name="Path 16688" d="M124.576,339.717H115V296.788h.445v42.483h9.13Z" transform="translate(-89.391 -230.719)" fill="#f1f1f1"/>
  <path id="Path_16689" data-name="Path 16689" d="M493.568,338.327h-9.576v-.445h9.13V295h.445Z" transform="translate(-376.243 -229.329)" fill="#f1f1f1"/>
  <circle id="Ellipse_3761" data-name="Ellipse 3761" cx="5.885" cy="5.885" r="5.885" transform="translate(111.216 44.854)" fill="#131f51"/>
  <path id="Path_16690" data-name="Path 16690" d="M517.329,221.748l-1.761-2.265,1.024-.8.834,1.072,2.818-2.974.942.892Z" transform="translate(-400.79 -168.525)" fill="#fff"/>
  <circle id="Ellipse_3762" data-name="Ellipse 3762" cx="5.885" cy="5.885" r="5.885" transform="translate(19.947 45.313)" fill="#131f51"/>
  <path id="Path_16691" data-name="Path 16691" d="M107.329,223.811l-1.761-2.265,1.024-.8.834,1.072,2.818-2.974.942.892Z" transform="translate(-82.058 -170.129)" fill="#fff"/>
  <circle id="Ellipse_3763" data-name="Ellipse 3763" cx="5.885" cy="5.885" r="5.885" transform="translate(65.581 123.67)" fill="#131f51"/>
  <path id="Path_16692" data-name="Path 16692" d="M312.329,575.811l-1.762-2.265,1.024-.8.834,1.072,2.818-2.974.942.892Z" transform="translate(-241.424 -443.772)" fill="#fff"/>
</svg>
