<svg id="undraw_invite_re_rrcp" xmlns="http://www.w3.org/2000/svg" width="159.4" height="100.953" viewBox="0 0 159.4 100.953">
  <path id="Path_16781" data-name="Path 16781" d="M226.508,246.636H165.1a3.1,3.1,0,0,1-3.1-3.1V209.1a3.1,3.1,0,0,1,3.1-3.1h61.41a3.1,3.1,0,0,1,3.1,3.1v34.441A3.1,3.1,0,0,1,226.508,246.636ZM165.1,206.364a2.736,2.736,0,0,0-2.733,2.733v34.441a2.736,2.736,0,0,0,2.733,2.733h61.41a2.736,2.736,0,0,0,2.733-2.733V209.1a2.736,2.736,0,0,0-2.733-2.733Z" transform="translate(-162 -199.987)" fill="#e6e6e6"/>
  <path id="Path_16782" data-name="Path 16782" d="M373.765,281.313H361.92a.82.82,0,0,0,0,1.64h11.845a.82.82,0,0,0,0-1.64Z" transform="translate(-324.819 -261.576)" fill="#e6e6e6"/>
  <path id="Path_16783" data-name="Path 16783" d="M385.311,309.813H361.764a.839.839,0,0,0,0,1.64h23.547a.839.839,0,0,0,0-1.64Z" transform="translate(-324.819 -284.882)" fill="#e6e6e6"/>
  <path id="Path_16784" data-name="Path 16784" d="M385.311,339H361.764a.839.839,0,0,0,0,1.64h23.547a.839.839,0,0,0,0-1.64Z" transform="translate(-324.819 -308.75)" fill="#e6e6e6"/>
  <path id="Path_16785" data-name="Path 16785" d="M215.823,268.105H195.413a1.916,1.916,0,0,1-1.913-1.913V243.413a1.916,1.916,0,0,1,1.913-1.913h20.409a1.916,1.916,0,0,1,1.913,1.913v22.778A1.916,1.916,0,0,1,215.823,268.105Z" transform="translate(-187.76 -229.018)" fill="#e6e6e6"/>
  <ellipse id="Ellipse_3770" data-name="Ellipse 3770" cx="6.292" cy="6.712" rx="6.292" ry="6.712" transform="translate(59.565)" fill="#e6e6e6"/>
  <path id="Path_16786" data-name="Path 16786" d="M704.508,246.636H643.1a3.1,3.1,0,0,1-3.1-3.1V209.1a3.1,3.1,0,0,1,3.1-3.1h61.41a3.1,3.1,0,0,1,3.1,3.1v34.441A3.1,3.1,0,0,1,704.508,246.636ZM643.1,206.364a2.736,2.736,0,0,0-2.733,2.733v34.441a2.736,2.736,0,0,0,2.733,2.733h61.41a2.737,2.737,0,0,0,2.733-2.733V209.1a2.736,2.736,0,0,0-2.733-2.733Z" transform="translate(-552.896 -199.987)" fill="#3f3d56"/>
  <path id="Path_16787" data-name="Path 16787" d="M851.765,281.313H839.92a.82.82,0,1,0,0,1.64h11.845a.82.82,0,0,0,0-1.64Z" transform="translate(-715.715 -261.576)" fill="#3f3d56"/>
  <path id="Path_16788" data-name="Path 16788" d="M863.311,309.813H839.764a.839.839,0,0,0,0,1.64h23.547a.839.839,0,0,0,0-1.64Z" transform="translate(-715.715 -284.882)" fill="#3f3d56"/>
  <path id="Path_16789" data-name="Path 16789" d="M863.311,339H839.764a.839.839,0,0,0,0,1.64h23.547a.839.839,0,0,0,0-1.64Z" transform="translate(-715.715 -308.75)" fill="#3f3d56"/>
  <path id="Path_16790" data-name="Path 16790" d="M693.823,268.105H673.413a1.916,1.916,0,0,1-1.913-1.913V243.413a1.916,1.916,0,0,1,1.913-1.913h20.409a1.916,1.916,0,0,1,1.913,1.913v22.778A1.916,1.916,0,0,1,693.823,268.105Z" transform="translate(-578.656 -229.018)" fill="#131f51"/>
  <ellipse id="Ellipse_3771" data-name="Ellipse 3771" cx="6.292" cy="6.712" rx="6.292" ry="6.712" transform="translate(146.816)" fill="#131f51"/>
  <path id="Path_16791" data-name="Path 16791" d="M987.865,196.437a.825.825,0,0,1-.5-.165l-.009-.007-1.868-1.431a.83.83,0,1,1,1.01-1.318l1.21.928,2.86-3.73a.83.83,0,0,1,1.164-.154l-.018.024.018-.024a.831.831,0,0,1,.154,1.164l-3.364,4.387A.83.83,0,0,1,987.865,196.437Z" transform="translate(-835.164 -187.221)" fill="#fff"/>
  <path id="Path_16792" data-name="Path 16792" d="M226.508,544.636H165.1a3.1,3.1,0,0,1-3.1-3.1V507.1a3.1,3.1,0,0,1,3.1-3.1h61.41a3.1,3.1,0,0,1,3.1,3.1v34.441A3.1,3.1,0,0,1,226.508,544.636ZM165.1,504.364a2.736,2.736,0,0,0-2.733,2.733v34.441a2.736,2.736,0,0,0,2.733,2.733h61.41a2.736,2.736,0,0,0,2.733-2.733V507.1a2.736,2.736,0,0,0-2.733-2.733Z" transform="translate(-162 -443.683)" fill="#3f3d56"/>
  <path id="Path_16793" data-name="Path 16793" d="M373.765,579.313H361.92a.82.82,0,0,0,0,1.64h11.845a.82.82,0,0,0,0-1.64Z" transform="translate(-324.819 -505.272)" fill="#3f3d56"/>
  <path id="Path_16794" data-name="Path 16794" d="M385.311,607.813H361.764a.839.839,0,0,0,0,1.64h23.547a.839.839,0,0,0,0-1.64Z" transform="translate(-324.819 -528.579)" fill="#3f3d56"/>
  <path id="Path_16795" data-name="Path 16795" d="M385.311,637H361.764a.839.839,0,0,0,0,1.64h23.547a.839.839,0,0,0,0-1.64Z" transform="translate(-324.819 -552.447)" fill="#3f3d56"/>
  <path id="Path_16796" data-name="Path 16796" d="M215.823,566.1H195.413a1.916,1.916,0,0,1-1.913-1.913V541.413a1.916,1.916,0,0,1,1.913-1.913h20.409a1.916,1.916,0,0,1,1.913,1.913v22.778A1.916,1.916,0,0,1,215.823,566.1Z" transform="translate(-187.76 -472.714)" fill="#131f51"/>
  <circle id="Ellipse_3772" data-name="Ellipse 3772" cx="6.292" cy="6.292" r="6.292" transform="translate(59.565 54.532)" fill="#131f51"/>
  <path id="Path_16797" data-name="Path 16797" d="M509.865,494.437a.824.824,0,0,1-.5-.165l-.009-.007-1.868-1.431a.83.83,0,0,1,1.01-1.318l1.21.928,2.86-3.73a.83.83,0,0,1,1.164-.154l-.018.024.018-.024a.831.831,0,0,1,.154,1.164l-3.364,4.387A.83.83,0,0,1,509.865,494.437Z" transform="translate(-444.268 -430.918)" fill="#fff"/>
  <path id="Path_16798" data-name="Path 16798" d="M704.508,544.636H643.1a3.1,3.1,0,0,1-3.1-3.1V507.1a3.1,3.1,0,0,1,3.1-3.1h61.41a3.1,3.1,0,0,1,3.1,3.1v34.441A3.1,3.1,0,0,1,704.508,544.636ZM643.1,504.364a2.736,2.736,0,0,0-2.733,2.733v34.441a2.736,2.736,0,0,0,2.733,2.733h61.41a2.737,2.737,0,0,0,2.733-2.733V507.1a2.736,2.736,0,0,0-2.733-2.733Z" transform="translate(-552.896 -443.683)" fill="#3f3d56"/>
  <path id="Path_16799" data-name="Path 16799" d="M851.765,579.313H839.92a.82.82,0,1,0,0,1.64h11.845a.82.82,0,0,0,0-1.64Z" transform="translate(-715.715 -505.272)" fill="#3f3d56"/>
  <path id="Path_16800" data-name="Path 16800" d="M863.311,607.813H839.764a.838.838,0,0,0,0,1.64h23.547a.839.839,0,0,0,0-1.64Z" transform="translate(-715.715 -528.579)" fill="#3f3d56"/>
  <path id="Path_16801" data-name="Path 16801" d="M863.311,637H839.764a.838.838,0,0,0,0,1.64h23.547a.839.839,0,0,0,0-1.64Z" transform="translate(-715.715 -552.447)" fill="#3f3d56"/>
  <path id="Path_16802" data-name="Path 16802" d="M693.823,566.1H673.413a1.915,1.915,0,0,1-1.913-1.913V541.413a1.916,1.916,0,0,1,1.913-1.913h20.409a1.916,1.916,0,0,1,1.913,1.913v22.778A1.916,1.916,0,0,1,693.823,566.1Z" transform="translate(-578.656 -472.714)" fill="#131f51"/>
  <circle id="Ellipse_3773" data-name="Ellipse 3773" cx="6.292" cy="6.292" r="6.292" transform="translate(146.816 54.532)" fill="#131f51"/>
  <path id="Path_16803" data-name="Path 16803" d="M987.865,494.437a.825.825,0,0,1-.5-.165l-.009-.007-1.868-1.431a.83.83,0,1,1,1.01-1.318l1.21.928,2.86-3.73a.83.83,0,0,1,1.164-.154l-.018.024.018-.024a.831.831,0,0,1,.154,1.164l-3.364,4.387A.83.83,0,0,1,987.865,494.437Z" transform="translate(-835.164 -430.918)" fill="#fff"/>
  <path id="Path_16804" data-name="Path 16804" d="M733.093,341.424a2.558,2.558,0,0,1-1.472-.351,1.13,1.13,0,0,1-.445-.844.76.76,0,0,1,.259-.624.981.981,0,0,1,.928-.134l-.375-2.742.275-.038.441,3.224-.23-.106a.842.842,0,0,0-.86.008.488.488,0,0,0-.16.4.854.854,0,0,0,.331.629,2.3,2.3,0,0,0,1.316.3Z" transform="translate(-627.456 -306.862)" fill="#fff"/>
  <rect id="Rectangle_4763" data-name="Rectangle 4763" width="1.497" height="0.278" transform="translate(101.672 30.103)" fill="#fff"/>
  <rect id="Rectangle_4764" data-name="Rectangle 4764" width="1.497" height="0.278" transform="translate(106.398 30.103)" fill="#fff"/>
  <path id="Path_16805" data-name="Path 16805" d="M693.686,282.871a2.731,2.731,0,0,1-2.242-2.465,4.009,4.009,0,0,1,1.8-3.5,7.7,7.7,0,0,1,4.022-1.235,11.052,11.052,0,0,1,7.555,2.49,6.969,6.969,0,0,1,2.408,3.333,3.228,3.228,0,0,1-.879,3.309,2.221,2.221,0,0,1-1.7.525,4.236,4.236,0,0,1-1.984-.882c-1.132-.823-2.062-1.97-3.442-2.4a2.676,2.676,0,0,0-2.943.877,1.666,1.666,0,0,0-.266.7.216.216,0,0,0,.146.257.21.21,0,0,0,.257-.146c.162-1.152,1.579-1.582,2.573-1.319,1.45.384,2.423,1.677,3.612,2.5a4.39,4.39,0,0,0,2.1.84,2.612,2.612,0,0,0,1.835-.564,3.569,3.569,0,0,0,1.18-3.425,6.723,6.723,0,0,0-2.291-3.627,11.46,11.46,0,0,0-7.832-2.893,8.569,8.569,0,0,0-4.27,1.114,4.663,4.663,0,0,0-2.3,3.48,3.285,3.285,0,0,0,1.771,3.2,2.772,2.772,0,0,0,.888.251c.266.03.264-.387,0-.417Z" transform="translate(-594.615 -256.607)" fill="#fff"/>
  <path id="Path_16806" data-name="Path 16806" d="M733.093,635.424a2.558,2.558,0,0,1-1.472-.351,1.13,1.13,0,0,1-.445-.844.76.76,0,0,1,.259-.625.981.981,0,0,1,.928-.134l-.375-2.742.275-.038.441,3.224-.23-.106a.842.842,0,0,0-.86.008.488.488,0,0,0-.16.4.854.854,0,0,0,.331.629,2.3,2.3,0,0,0,1.316.3Z" transform="translate(-627.456 -547.288)" fill="#fff"/>
  <rect id="Rectangle_4765" data-name="Rectangle 4765" width="1.497" height="0.278" transform="translate(101.672 83.677)" fill="#fff"/>
  <rect id="Rectangle_4766" data-name="Rectangle 4766" width="1.497" height="0.278" transform="translate(106.398 83.677)" fill="#fff"/>
  <path id="Path_16807" data-name="Path 16807" d="M693.686,576.871a2.731,2.731,0,0,1-2.242-2.465,4.009,4.009,0,0,1,1.8-3.5,7.7,7.7,0,0,1,4.022-1.235,11.052,11.052,0,0,1,7.555,2.49,6.969,6.969,0,0,1,2.408,3.333,3.228,3.228,0,0,1-.879,3.309,2.221,2.221,0,0,1-1.7.525,4.236,4.236,0,0,1-1.984-.882c-1.132-.823-2.062-1.971-3.442-2.4a2.676,2.676,0,0,0-2.943.877,1.667,1.667,0,0,0-.266.7.216.216,0,0,0,.146.256.21.21,0,0,0,.257-.146c.162-1.152,1.579-1.582,2.573-1.319,1.45.384,2.423,1.677,3.612,2.5a4.388,4.388,0,0,0,2.1.84,2.612,2.612,0,0,0,1.835-.564,3.569,3.569,0,0,0,1.18-3.425,6.723,6.723,0,0,0-2.291-3.627,11.461,11.461,0,0,0-7.832-2.893,8.568,8.568,0,0,0-4.27,1.114,4.663,4.663,0,0,0-2.3,3.48,3.285,3.285,0,0,0,1.771,3.2,2.773,2.773,0,0,0,.888.251c.266.03.264-.387,0-.417Z" transform="translate(-594.615 -497.033)" fill="#fff"/>
  <path id="Path_16808" data-name="Path 16808" d="M250.093,635.424a2.559,2.559,0,0,1-1.472-.351,1.131,1.131,0,0,1-.445-.844.76.76,0,0,1,.259-.625.981.981,0,0,1,.928-.134l-.375-2.742.275-.038.441,3.224-.23-.106a.842.842,0,0,0-.86.008.488.488,0,0,0-.16.4.854.854,0,0,0,.331.629,2.3,2.3,0,0,0,1.316.3Z" transform="translate(-232.471 -547.288)" fill="#fff"/>
  <rect id="Rectangle_4767" data-name="Rectangle 4767" width="1.497" height="0.278" transform="translate(13.657 83.677)" fill="#fff"/>
  <rect id="Rectangle_4768" data-name="Rectangle 4768" width="1.497" height="0.278" transform="translate(18.383 83.677)" fill="#fff"/>
  <path id="Path_16809" data-name="Path 16809" d="M210.686,576.871a2.731,2.731,0,0,1-2.242-2.465,4.009,4.009,0,0,1,1.8-3.5,7.7,7.7,0,0,1,4.022-1.235,11.053,11.053,0,0,1,7.555,2.49,6.97,6.97,0,0,1,2.408,3.333,3.228,3.228,0,0,1-.879,3.309,2.221,2.221,0,0,1-1.7.525,4.236,4.236,0,0,1-1.984-.882c-1.132-.823-2.062-1.971-3.442-2.4a2.676,2.676,0,0,0-2.943.877,1.665,1.665,0,0,0-.266.7.216.216,0,0,0,.146.256.21.21,0,0,0,.257-.146c.162-1.152,1.579-1.582,2.573-1.319,1.45.384,2.423,1.677,3.612,2.5a4.388,4.388,0,0,0,2.1.84,2.612,2.612,0,0,0,1.835-.564,3.569,3.569,0,0,0,1.18-3.425,6.723,6.723,0,0,0-2.291-3.627,11.461,11.461,0,0,0-7.832-2.893,8.568,8.568,0,0,0-4.27,1.114,4.663,4.663,0,0,0-2.3,3.48,3.285,3.285,0,0,0,1.771,3.2,2.773,2.773,0,0,0,.889.251c.266.03.264-.387,0-.417Z" transform="translate(-199.63 -497.033)" fill="#fff"/>
  <path id="Path_16810" data-name="Path 16810" d="M250.093,343.424a2.559,2.559,0,0,1-1.472-.351,1.131,1.131,0,0,1-.445-.844.76.76,0,0,1,.259-.625.981.981,0,0,1,.928-.134l-.375-2.742.275-.038.441,3.224-.23-.106a.842.842,0,0,0-.86.008.488.488,0,0,0-.16.4.854.854,0,0,0,.331.629,2.3,2.3,0,0,0,1.316.3Z" transform="translate(-232.471 -308.498)" fill="#3f3d56"/>
  <rect id="Rectangle_4769" data-name="Rectangle 4769" width="1.497" height="0.278" transform="translate(13.657 30.467)" fill="#3f3d56"/>
  <rect id="Rectangle_4770" data-name="Rectangle 4770" width="1.497" height="0.278" transform="translate(18.383 30.467)" fill="#3f3d56"/>
  <path id="Path_16811" data-name="Path 16811" d="M210.686,284.871a2.731,2.731,0,0,1-2.242-2.465,4.009,4.009,0,0,1,1.8-3.5,7.7,7.7,0,0,1,4.022-1.235,11.053,11.053,0,0,1,7.555,2.49,6.97,6.97,0,0,1,2.408,3.333,3.228,3.228,0,0,1-.879,3.309,2.221,2.221,0,0,1-1.7.525,4.235,4.235,0,0,1-1.984-.882c-1.132-.823-2.062-1.97-3.442-2.4a2.676,2.676,0,0,0-2.943.877,1.665,1.665,0,0,0-.266.7.216.216,0,0,0,.146.256.21.21,0,0,0,.257-.146c.162-1.152,1.579-1.582,2.573-1.319,1.45.384,2.423,1.677,3.612,2.5a4.389,4.389,0,0,0,2.1.84,2.612,2.612,0,0,0,1.835-.564,3.569,3.569,0,0,0,1.18-3.425,6.723,6.723,0,0,0-2.291-3.627,11.461,11.461,0,0,0-7.832-2.893,8.569,8.569,0,0,0-4.27,1.114,4.663,4.663,0,0,0-2.3,3.48,3.285,3.285,0,0,0,1.771,3.2,2.773,2.773,0,0,0,.889.251C210.952,285.318,210.95,284.9,210.686,284.871Z" transform="translate(-199.63 -258.243)" fill="#3f3d56"/>
</svg>
