<svg id="undraw_events_re_98ue" xmlns="http://www.w3.org/2000/svg" width="159.68" height="122.426" viewBox="0 0 159.68 122.426">
  <path id="Path_16721" data-name="Path 16721" d="M642.382,626.989c-.156.133-.316.262-.479.39H622.2c-.113-.128-.226-.257-.338-.39a21.791,21.791,0,0,1-2.391-3.516c-1.618-2.914-2.175-6.735-2.175-10.626,0-.238,0-.475.007-.713.018-1.092.079-2.185.169-3.26.016-.187.033-.372.051-.557.146-1.542.351-3.044.584-4.447.029-.179.059-.356.09-.531a72.943,72.943,0,0,1,1.9-8.256l.077.02c.146.041.5.138,1.008.29,1.413.42,4.067,1.265,7.127,2.523.167.067.336.138.506.21a56.455,56.455,0,0,1,7.5,3.765c.149.09.3.182.444.274v.013l-.323,10.453,2.885-8.7q.882.671,1.687,1.392c.148.131.295.266.438.4a16.149,16.149,0,0,1,3.081,3.844C648.842,617.347,647.031,623.068,642.382,626.989Z" transform="translate(-534.007 -504.954)" fill="#f2f2f2"/>
  <path id="Path_16722" data-name="Path 16722" d="M649.706,624.448h-.525c0-.13-.008-.259-.016-.39-.211-3.932-1.9-8.274-4.194-12.465-.082-.152-.166-.308-.254-.461-1.115-1.993-2.357-3.944-3.641-5.8-.1-.144-.2-.29-.3-.434-1.708-2.437-3.472-4.693-5.065-6.619-.111-.138-.226-.272-.339-.4-2.362-2.832-4.311-4.9-5.093-5.706l-.269-.275c-.057-.062-.092-.1-.1-.1l.184-.184,0,0,.187-.184c.007.008.12.116.32.325.169.172.4.413.684.715.99,1.049,2.628,2.834,4.522,5.1l.336.4c1.293,1.562,2.695,3.332,4.083,5.235q.524.718,1.016,1.424c.1.144.2.288.3.433q2.083,3,3.637,5.779l.259.464c2.642,4.819,4.065,9.087,4.249,12.76C649.7,624.189,649.7,624.319,649.706,624.448Z" transform="translate(-544.109 -502.023)" fill="#fff"/>
  <path id="Path_16723" data-name="Path 16723" d="M631.062,607.369c-.093.13-.188.257-.288.384a14,14,0,0,1-2.6,2.575c-.143.1-.289.213-.438.318a14.357,14.357,0,0,1-1.262.787,14.115,14.115,0,0,1-5.812,1.744c-.065.007-.133.011-.2.015-.03.175-.057.351-.089.529.065,0,.131-.007.2-.013a14.612,14.612,0,0,0,6.158-1.814,14.983,14.983,0,0,0,1.346-.843c.148-.1.292-.211.434-.32a14.6,14.6,0,0,0,2.775-2.768c.1-.126.188-.254.28-.382Z" transform="translate(-536.47 -514.792)" fill="#fff"/>
  <path id="Path_16724" data-name="Path 16724" d="M636.631,627.378c-.057.125-.118.248-.179.371a14.12,14.12,0,0,1-5.173,5.663c-.154.1-.31.19-.469.279-.048.028-.1.057-.146.083a14.206,14.206,0,0,1-13.006.4l-.144-.069c-.018.187-.034.374-.047.562.046.021.093.044.141.064a14.725,14.725,0,0,0,13.311-.5c.066-.036.13-.072.194-.11.159-.092.316-.185.47-.28a14.628,14.628,0,0,0,5.314-5.809c.064-.123.125-.248.184-.374C636.932,627.567,636.782,627.472,636.631,627.378Z" transform="translate(-534.146 -530.813)" fill="#fff"/>
  <path id="Path_16725" data-name="Path 16725" d="M640.678,644.575c-.028.124-.056.249-.087.372a14.166,14.166,0,0,1-5.925,8.446c-.152.1-.31.2-.467.3s-.338.2-.511.3a14.242,14.242,0,0,1-16.8-2.227c-.038-.034-.074-.07-.11-.107,0,.244,0,.485,0,.728.033.031.067.062.1.092a14.765,14.765,0,0,0,17.065,1.975c.174-.1.344-.193.51-.3s.316-.193.472-.3a14.711,14.711,0,0,0,6.1-8.505c.031-.118.062-.236.09-.356C640.976,644.852,640.827,644.716,640.678,644.575Z" transform="translate(-533.591 -544.583)" fill="#fff"/>
  <path id="Path_16726" data-name="Path 16726" d="M292.746,229.3H199.4V159.263h93.344Z" transform="translate(-199.401 -155.994)" fill="#fff"/>
  <circle id="Ellipse_3768" data-name="Ellipse 3768" cx="3.716" cy="3.716" r="3.716" transform="translate(18.904 10.454)" fill="#e6e6e6"/>
  <path id="Path_16727" data-name="Path 16727" d="M353.461,201.529a.619.619,0,0,0,0,1.239h45.213a.619.619,0,0,0,0-1.239Z" transform="translate(-322.261 -189.837)" fill="#e6e6e6"/>
  <path id="Path_16728" data-name="Path 16728" d="M353.456,220.172a.619.619,0,1,0,0,1.239h28.584a.619.619,0,0,0,0-1.239Z" transform="translate(-322.256 -204.764)" fill="#e6e6e6"/>
  <path id="Path_16729" data-name="Path 16729" d="M292.746,229.3H199.4V159.263h93.344Zm-92.3-1.045H291.7V160.308H200.446Z" transform="translate(-199.401 -155.994)" fill="#e6e6e6"/>
  <path id="Path_16730" data-name="Path 16730" d="M225.579,266.422v41.654h82.91V266.422Zm82.511,10.314H287.861V266.82H308.09Zm-40.857,0V266.82h20.229v9.915Zm20.229.4v9.915H267.233v-9.915Zm-20.628-.4H246.605V266.82h20.229Zm0,.4v9.915H246.605v-9.915Zm-20.628,9.915H225.978v-9.915h20.229Zm0,.4v9.915H225.978v-9.915Zm.4,0h20.229v9.915H246.605Zm20.229,10.314v9.915H246.605v-9.915Zm.4,0h20.229v9.915H267.233Zm0-.4v-9.915h20.229v9.915Zm20.628-9.915H308.09v9.915H287.861Zm0-.4v-9.915H308.09v9.915ZM246.207,266.82v9.915H225.978V266.82Zm-20.229,30.942h20.229v9.915H225.978Zm61.883,9.915v-9.915H308.09v9.915Z" transform="translate(-220.362 -241.796)" fill="#e4e4e4"/>
  <path id="Path_16731" data-name="Path 16731" d="M361.3,285.561l-8.25-.187a18.549,18.549,0,0,1,.2-9.045l8.25.187A18.063,18.063,0,0,0,361.3,285.561Z" transform="translate(-322.05 -249.73)" fill="#131f51"/>
  <path id="Path_16732" data-name="Path 16732" d="M163.676,142.235l0-.314,4.274.153,0,.314Z" transform="translate(-131.055 -113.636)" fill="#fff"/>
  <path id="Path_16733" data-name="Path 16733" d="M163.586,148.535l0-.314,4.274.153,0,.314Z" transform="translate(-130.983 -118.68)" fill="#fff"/>
  <path id="Path_16734" data-name="Path 16734" d="M163.495,154.835l0-.314,4.274.153,0,.314Z" transform="translate(-130.91 -123.725)" fill="#fff"/>
  <path id="Path_16735" data-name="Path 16735" d="M163.4,161.135l0-.314,4.274.153,0,.314Z" transform="translate(-130.838 -128.769)" fill="#fff"/>
  <path id="Path_16736" data-name="Path 16736" d="M163.315,167.435l0-.314,4.274.153,0,.314Z" transform="translate(-130.766 -133.813)" fill="#fff"/>
  <path id="Path_16737" data-name="Path 16737" d="M271.3,401.561l-8.25-.187a18.549,18.549,0,0,1,.2-9.045l8.25.187A18.063,18.063,0,0,0,271.3,401.561Z" transform="translate(-249.988 -342.611)" fill="#f0f0f0"/>
  <path id="Path_16738" data-name="Path 16738" d="M73.676,258.235l0-.314,4.274.153,0,.314Z" transform="translate(-58.992 -206.517)" fill="#fff"/>
  <path id="Path_16739" data-name="Path 16739" d="M73.586,264.535l0-.314,4.274.153,0,.314Z" transform="translate(-58.92 -211.561)" fill="#fff"/>
  <path id="Path_16740" data-name="Path 16740" d="M73.495,270.835l0-.314,4.274.153,0,.314Z" transform="translate(-58.847 -216.605)" fill="#fff"/>
  <path id="Path_16741" data-name="Path 16741" d="M73.4,277.135l0-.314,4.274.153,0,.314Z" transform="translate(-58.775 -221.65)" fill="#fff"/>
  <path id="Path_16742" data-name="Path 16742" d="M73.315,283.435l0-.314,4.274.153,0,.314Z" transform="translate(-58.703 -226.694)" fill="#fff"/>
  <path id="Path_16743" data-name="Path 16743" d="M487.3,348.561l-8.25-.187a18.548,18.548,0,0,1,.2-9.045l8.25.187a18.062,18.062,0,0,0-.2,9.045Z" transform="translate(-422.938 -300.174)" fill="#f0f0f0"/>
  <path id="Path_16744" data-name="Path 16744" d="M289.676,205.235l0-.314,4.274.153,0,.314Z" transform="translate(-231.943 -164.08)" fill="#fff"/>
  <path id="Path_16745" data-name="Path 16745" d="M289.586,211.535l0-.314,4.274.153,0,.314Z" transform="translate(-231.871 -169.124)" fill="#fff"/>
  <path id="Path_16746" data-name="Path 16746" d="M289.495,217.835l0-.314,4.274.153,0,.314Z" transform="translate(-231.798 -174.168)" fill="#fff"/>
  <path id="Path_16747" data-name="Path 16747" d="M289.4,224.135l0-.314,4.274.153,0,.314Z" transform="translate(-231.726 -179.213)" fill="#fff"/>
  <path id="Path_16748" data-name="Path 16748" d="M289.315,230.435l0-.314,4.274.153,0,.314Z" transform="translate(-231.654 -184.257)" fill="#fff"/>
  <path id="Path_16749" data-name="Path 16749" d="M469.3,338.561l-8.25-.187a18.549,18.549,0,0,1,.2-9.045l8.25.187A18.063,18.063,0,0,0,469.3,338.561Z" transform="translate(-408.526 -292.167)" fill="#131f51"/>
  <path id="Path_16750" data-name="Path 16750" d="M271.676,195.235l0-.314,4.274.153,0,.314Z" transform="translate(-217.531 -156.073)" fill="#fff"/>
  <path id="Path_16751" data-name="Path 16751" d="M271.586,201.535l0-.314,4.274.153,0,.314Z" transform="translate(-217.458 -161.117)" fill="#fff"/>
  <path id="Path_16752" data-name="Path 16752" d="M271.495,207.835l0-.314,4.274.153,0,.314Z" transform="translate(-217.385 -166.162)" fill="#fff"/>
  <path id="Path_16753" data-name="Path 16753" d="M271.4,214.135l0-.314,4.274.153,0,.314Z" transform="translate(-217.313 -171.206)" fill="#fff"/>
  <path id="Path_16754" data-name="Path 16754" d="M271.315,220.435l0-.314,4.274.153,0,.314Z" transform="translate(-217.241 -176.25)" fill="#fff"/>
  <path id="Path_16755" data-name="Path 16755" d="M621.969,429.911l-8.25-.187a18.549,18.549,0,0,1,.2-9.045l8.25.187A18.062,18.062,0,0,0,621.969,429.911Z" transform="translate(-530.765 -365.31)" fill="#131f51"/>
  <path id="Path_16756" data-name="Path 16756" d="M424.342,286.584l0-.314,4.274.153,0,.314Z" transform="translate(-339.77 -229.216)" fill="#fff"/>
  <path id="Path_16757" data-name="Path 16757" d="M424.252,292.884l0-.314,4.274.153,0,.314Z" transform="translate(-339.698 -234.26)" fill="#fff"/>
  <path id="Path_16758" data-name="Path 16758" d="M424.161,299.185l0-.314,4.274.153,0,.314Z" transform="translate(-339.625 -239.305)" fill="#fff"/>
  <path id="Path_16759" data-name="Path 16759" d="M424.071,305.485l0-.314,4.274.153,0,.314Z" transform="translate(-339.553 -244.35)" fill="#fff"/>
  <path id="Path_16760" data-name="Path 16760" d="M423.981,311.785l0-.314,4.274.153,0,.314Z" transform="translate(-339.481 -249.394)" fill="#fff"/>
  <path id="Path_16761" data-name="Path 16761" d="M577.3,293.561l-8.25-.187a18.547,18.547,0,0,1,.2-9.045l8.25.187A18.063,18.063,0,0,0,577.3,293.561Z" transform="translate(-495.001 -256.135)" fill="#f0f0f0"/>
  <path id="Path_16762" data-name="Path 16762" d="M379.676,150.235l0-.314,4.274.153,0,.314Z" transform="translate(-304.006 -120.042)" fill="#fff"/>
  <path id="Path_16763" data-name="Path 16763" d="M379.586,156.535l0-.314,4.274.153,0,.314Z" transform="translate(-303.934 -125.086)" fill="#fff"/>
  <path id="Path_16764" data-name="Path 16764" d="M379.495,162.835l0-.314,4.274.153,0,.314Z" transform="translate(-303.861 -130.13)" fill="#fff"/>
  <path id="Path_16765" data-name="Path 16765" d="M379.4,169.135l0-.314,4.274.153,0,.314Z" transform="translate(-303.789 -135.175)" fill="#fff"/>
  <path id="Path_16766" data-name="Path 16766" d="M379.315,175.435l0-.314,4.274.153,0,.314Z" transform="translate(-303.717 -140.219)" fill="#fff"/>
  <path id="Path_16767" data-name="Path 16767" d="M644.7,399.449a2,2,0,0,0,1.352-2.759l5.2-4.865-3.6-.865-4.388,4.752a2.015,2.015,0,0,0,1.432,3.737Z" transform="translate(-553.943 -341.513)" fill="#ffb6b6"/>
  <path id="Path_16768" data-name="Path 16768" d="M658.522,285.171l-2.426-3.42,9.112-9.424,2.116-14.855a5.053,5.053,0,0,1,6.616-4.076h0a5.058,5.058,0,0,1,3.174,6.4l-5.4,16.016Z" transform="translate(-565.076 -231.154)" fill="#e4e4e4"/>
  <path id="Path_16769" data-name="Path 16769" d="M538.742,546.886h-2.693L534.768,536.5h3.975Z" transform="translate(-428.188 -429.574)" fill="#ffb6b6"/>
  <path id="Path_16770" data-name="Path 16770" d="M723.883,730.236h-1.911l-.341-1.8-.874,1.8H715.69a1.139,1.139,0,0,1-.647-2.077l4.047-2.8V723.54l4.257.254Z" transform="translate(-611.88 -607.81)" fill="#2f2e41"/>
  <path id="Path_16771" data-name="Path 16771" d="M604.1,538.212l-2.365,1.287-6.09-8.511,3.491-1.9Z" transform="translate(-476.93 -423.64)" fill="#ffb6b6"/>
  <path id="Path_16772" data-name="Path 16772" d="M820.438,715.091,818.76,716l-1.162-1.422.1,2-4.452,2.422a1.139,1.139,0,0,1-1.561-1.515l2.219-4.39-.872-1.6,3.861-1.811Z" transform="translate(-689.553 -596.719)" fill="#2f2e41"/>
  <path id="Path_16773" data-name="Path 16773" d="M713.5,451.583h-5.565V431.765l-3.445-12.92a73.964,73.964,0,0,1-1.935-28.361l0-.039.03-.025c.089-.074,8.907-7.366,14.484-1.788,3.76,3.76.227,17.279.029,18.021v23.305Z" transform="translate(-601.811 -337.969)" fill="#2f2e41"/>
  <path id="Path_16774" data-name="Path 16774" d="M696.378,279.893l1.794-17.937c-.233-.489-3.587-3.587-.08-9.035l3.789-8.892,7.095-.11.03.03a14.291,14.291,0,0,1,3.916,12.934l-2.091,10.453,1.811,7.245Z" transform="translate(-597.33 -223.778)" fill="#e4e4e4"/>
  <path id="Path_16775" data-name="Path 16775" d="M543.742,444.386l11.433,16.081,4.386-3.118-9.548-19.621Z" transform="translate(-435.373 -350.488)" fill="#2f2e41"/>
  <circle id="Ellipse_3769" data-name="Ellipse 3769" cx="6.551" cy="6.551" r="6.551" transform="translate(100.884 5.341)" fill="#ffb6b6"/>
  <path id="Path_16776" data-name="Path 16776" d="M516.564,178.558l1.794,10.762-1.794,8.969h-3.587l1.631-8.969Z" transform="translate(-410.74 -142.971)" opacity="0.1"/>
  <path id="Path_16777" data-name="Path 16777" d="M725.422,427.366a2,2,0,0,0-.106-3.071l2.3-6.741-3.582.931-1.633,6.258a2.015,2.015,0,0,0,3.023,2.622Z" transform="translate(-617.886 -362.808)" fill="#ffb6b6"/>
  <path id="Path_16778" data-name="Path 16778" d="M719.179,301.03l-3.751-1.875,3.6-12.6-5.128-14.1a5.053,5.053,0,0,1,3.918-6.711h0a5.058,5.058,0,0,1,5.815,4.153l2.779,16.671Z" transform="translate(-611.117 -241.194)" fill="#e4e4e4"/>
  <path id="Path_16779" data-name="Path 16779" d="M480.409,754.989a.236.236,0,0,1-.237.237H351.166a.237.237,0,1,1,0-.474H480.172A.238.238,0,0,1,480.409,754.989Z" transform="translate(-320.729 -632.801)" fill="#cacaca"/>
  <path id="Path_16780" data-name="Path 16780" d="M734.247,154.435a4.075,4.075,0,0,1-4.13,1.665,6.683,6.683,0,0,1-3.9-2.492,19.757,19.757,0,0,1-2.364-4.08,20.108,20.108,0,0,0-2.356-4.085,6.721,6.721,0,0,0-3.884-2.516,2.759,2.759,0,0,0-2.415.545,2.352,2.352,0,0,0-.646,1.66,1.735,1.735,0,0,0-2.308,1.721l-.069,0c-2.889-1.643-7.274-.688-7.274,1.105a3.862,3.862,0,0,0-3.523,3.943h0c3.278,0,5.207,4.2,3.294,7.212a20.592,20.592,0,0,1-1.63,2.2h4.1a3.415,3.415,0,0,0,.6-1.668,7.673,7.673,0,0,1,.268,1.668s11.2,1.443,8.308-9.719a1.171,1.171,0,0,0,.542-.164,1.743,1.743,0,0,0,.716-1.384l.323.086a4.143,4.143,0,0,1,2.1,1.075c.894,1.01.706,2.543,1.03,3.852a7.209,7.209,0,0,0,2.863,3.832,9.6,9.6,0,0,0,4.769,2.012,5.889,5.889,0,0,0,4.8-1.629A4.279,4.279,0,0,0,734.247,154.435Z" transform="translate(-601.333 -142.864)" fill="#2f2e41"/>
</svg>
