<svg id="public_black_24dp_1_" data-name="public_black_24dp (1)" xmlns="http://www.w3.org/2000/svg" width="24" height="24" viewBox="0 0 24 24">
  <path id="Path_13811" data-name="Path 13811" d="M0,0H24V24H0Z" fill="none"/>
  <path id="Path_13812" data-name="Path 13812" d="M8.275,2A6.275,6.275,0,1,0,14.55,8.275,6.277,6.277,0,0,0,8.275,2ZM7.648,13.251A5.013,5.013,0,0,1,3.255,8.275a5.094,5.094,0,0,1,.132-1.123l3.006,3.006v.628A1.259,1.259,0,0,0,7.648,12.04Zm4.33-1.594a1.245,1.245,0,0,0-1.192-.872h-.628V8.9a.629.629,0,0,0-.628-.628H5.765V7.02H7.02a.629.629,0,0,0,.628-.628V5.138H8.9a1.259,1.259,0,0,0,1.255-1.255V3.625a5.009,5.009,0,0,1,1.82,8.032Z" transform="translate(2 4)" fill="#131f51"/>
</svg>
