<svg xmlns="http://www.w3.org/2000/svg" width="11.656" height="11.657" viewBox="0 0 11.656 11.657">
  <path id="Icon_ionic-ios-help-buoy" data-name="Icon ionic-ios-help-buoy" d="M9.2,3.375A5.828,5.828,0,1,0,15.032,9.2,5.828,5.828,0,0,0,9.2,3.375Zm1.53,1.02a5.057,5.057,0,0,1,3.279,3.279l-2.488.168a2.691,2.691,0,0,0-.95-.953Zm-5.1,1.241A5.008,5.008,0,0,1,7.674,4.395l.16,2.494a2.752,2.752,0,0,0-.95.95L4.392,7.674A5.063,5.063,0,0,1,5.636,5.636Zm2.037,8.376a5.057,5.057,0,0,1-3.279-3.279l2.494-.16a2.713,2.713,0,0,0,.947.947Zm1.53-2.9A1.905,1.905,0,1,1,11.109,9.2,1.907,1.907,0,0,1,9.2,11.109Zm3.567,1.662a5.026,5.026,0,0,1-2.037,1.241l-.165-2.491a2.7,2.7,0,0,0,.956-.958l2.488.168A5.018,5.018,0,0,1,12.771,12.771Z" transform="translate(-3.375 -3.375)"/>
</svg>
