<svg xmlns="http://www.w3.org/2000/svg" width="15.053" height="11.526" viewBox="0 0 15.053 11.526">
  <path id="Icon_awesome-sign-in-alt" data-name="Icon awesome-sign-in-alt" d="M12.23,15.789H9.761a.354.354,0,0,1-.353-.353V14.261a.354.354,0,0,1,.353-.353h2.47a.94.94,0,0,0,.941-.941V7.322a.94.94,0,0,0-.941-.941H9.761a.354.354,0,0,1-.353-.353V4.853A.354.354,0,0,1,9.761,4.5h2.47a2.823,2.823,0,0,1,2.822,2.822v5.645A2.823,2.823,0,0,1,12.23,15.789ZM10.848,9.88,5.909,4.941a.707.707,0,0,0-1.205.5V8.263h-4A.7.7,0,0,0,0,8.969v2.822a.7.7,0,0,0,.706.706h4v2.822a.707.707,0,0,0,1.205.5l4.939-4.939A.712.712,0,0,0,10.848,9.88Z" transform="translate(0 -4.5)" fill="#161f4e"/>
</svg>
