<svg xmlns="http://www.w3.org/2000/svg" width="10.133" height="13.333" viewBox="0 0 10.133 13.333">
  <g id="Icon_ionic-ios-document" data-name="Icon ionic-ios-document" transform="translate(-7.313 -3.938)">
    <path id="Path_15060" data-name="Path 15060" d="M21.235,7.241h3.033a.165.165,0,0,0,.167-.167h0a.986.986,0,0,0-.357-.763l-2.543-2.12a1.071,1.071,0,0,0-.687-.247h0a.246.246,0,0,0-.247.247V6.608A.633.633,0,0,0,21.235,7.241Z" transform="translate(-6.989 -0.004)" fill="#161f4e"/>
    <path id="Path_15061" data-name="Path 15061" d="M12.746,6.6V3.938H8.379A1.07,1.07,0,0,0,7.313,5V16.2A1.07,1.07,0,0,0,8.379,17.27h8A1.07,1.07,0,0,0,17.445,16.2V8.1h-3.2A1.5,1.5,0,0,1,12.746,6.6Z" transform="translate(0 0)" fill="#161f4e"/>
  </g>
</svg>
