<svg id="log-in" xmlns="http://www.w3.org/2000/svg" width="10.728" height="11.444" viewBox="0 0 10.728 11.444">
  <path id="Path_37" data-name="Path 37" d="M150.5.335V3.1a.968.968,0,0,1,.893.1l1.371,1.027a.985.985,0,0,1,.417.815,1,1,0,0,1-.448.837l-1.31.984A.97.97,0,0,1,150.5,7V9.1a.335.335,0,0,0,.335.335h3.017V2.347a1.011,1.011,0,0,1,.451-.839L156.314,0h-5.479A.335.335,0,0,0,150.5.335Zm0,0" transform="translate(-147.148)" fill="#0f1f54"/>
  <path id="Path_38" data-name="Path 38" d="M333.852.336a.335.335,0,0,0-.508-.287L330.663,2.06a.335.335,0,0,0-.163.287v8.762a.335.335,0,0,0,.508.288l2.682-2.012a.335.335,0,0,0,.163-.288Zm-2.346,6.393a.335.335,0,1,1,.335-.335A.335.335,0,0,1,331.506,6.728Zm0,0" transform="translate(-323.125 0)" fill="#0f1f54"/>
  <path id="Path_39" data-name="Path 39" d="M.835,168.013H3.852v.335a.335.335,0,0,0,.521.279l1.341-1.006a.335.335,0,0,0,0-.558l-1.341-1.006a.335.335,0,0,0-.521.279v.335H.835a.335.335,0,0,0-.335.335v.671A.335.335,0,0,0,.835,168.013Zm0,0" transform="translate(-0.5 -162.291)" fill="#0f1f54"/>
</svg>
