<svg width="72" height="72" viewBox="0 0 72 72" fill="none" xmlns="http://www.w3.org/2000/svg">
<g filter="url(#filter0_d_105_42421)">
<circle cx="34" cy="34" r="32" fill="#F3F7FA"/>
</g>
<g clip-path="url(#clip0_105_42421)">
<g clip-path="url(#clip1_105_42421)">
<path d="M35.9685 29.4844H34.0327V33.0327H30.4844V34.9685H34.0327V38.5169H35.9685V34.9685H39.5169V33.0327H35.9685V29.4844Z" fill="#1F2551"/>
<path d="M43.5788 28.9993C43.6745 29.1651 43.7189 29.3554 43.7064 29.5464C43.6939 29.7373 43.625 29.9203 43.5085 30.0721C43.3921 30.2239 43.2332 30.3378 43.052 30.3993C42.8708 30.4608 42.6754 30.4672 42.4906 30.4177C42.3057 30.3682 42.1397 30.2649 42.0135 30.1211C41.8874 29.9772 41.8067 29.7991 41.7817 29.6094C41.7567 29.4197 41.7886 29.2268 41.8732 29.0552C41.9578 28.8836 42.0915 28.7409 42.2572 28.6452C42.4794 28.517 42.7435 28.4822 42.9913 28.5486C43.2392 28.615 43.4505 28.7771 43.5788 28.9993Z" fill="#1F2551"/>
<path d="M39.9981 25.4226C40.1639 25.5183 40.2975 25.6609 40.3821 25.8326C40.4668 26.0042 40.4986 26.197 40.4736 26.3868C40.4486 26.5765 40.368 26.7545 40.2418 26.8984C40.1156 27.0423 39.9496 27.1455 39.7648 27.195C39.5799 27.2445 39.3846 27.2381 39.2034 27.1766C39.0222 27.1151 38.8633 27.0013 38.7468 26.8494C38.6303 26.6976 38.5615 26.5147 38.5489 26.3237C38.5364 26.1328 38.5808 25.9424 38.6765 25.7767C38.8048 25.5545 39.0161 25.3923 39.264 25.3259C39.5118 25.2595 39.7759 25.2943 39.9981 25.4226Z" fill="#1F2551"/>
<path d="M43.0689 34.0003C43.0689 35.5954 42.5959 37.1547 41.7097 38.481C40.8235 39.8073 39.5639 40.841 38.0902 41.4514C36.6166 42.0618 34.995 42.2215 33.4305 41.9104C31.8661 41.5992 30.429 40.831 29.3011 39.7031C28.1732 38.5752 27.4051 37.1382 27.0939 35.5737C26.7827 34.0093 26.9424 32.3877 27.5528 30.914C28.1633 29.4403 29.197 28.1807 30.5232 27.2945C31.8495 26.4084 33.4088 25.9353 35.0039 25.9353H35.9714V24.002H35.0039C33.0261 24.002 31.0927 24.5884 29.4482 25.6873C27.8037 26.7861 26.522 28.3479 25.7651 30.1751C25.0082 32.0024 24.8102 34.013 25.1961 35.9529C25.5819 37.8927 26.5343 39.6745 27.9328 41.073C29.3314 42.4715 31.1132 43.4239 33.053 43.8098C34.9928 44.1957 37.0035 43.9976 38.8307 43.2407C40.658 42.4839 42.2198 41.2021 43.3186 39.5577C44.4174 37.9132 45.0039 35.9798 45.0039 34.002V33.0344H43.0689V34.0003Z" fill="#1F2551"/>
</g>
</g>
<defs>
<filter id="filter0_d_105_42421" x="0" y="0" width="72" height="72" filterUnits="userSpaceOnUse" color-interpolation-filters="sRGB">
<feFlood flood-opacity="0" result="BackgroundImageFix"/>
<feColorMatrix in="SourceAlpha" type="matrix" values="0 0 0 0 0 0 0 0 0 0 0 0 0 0 0 0 0 0 127 0" result="hardAlpha"/>
<feOffset dx="2" dy="2"/>
<feGaussianBlur stdDeviation="2"/>
<feComposite in2="hardAlpha" operator="out"/>
<feColorMatrix type="matrix" values="0 0 0 0 0.0980392 0 0 0 0 0.12549 0 0 0 0 0.282353 0 0 0 0.15 0"/>
<feBlend mode="normal" in2="BackgroundImageFix" result="effect1_dropShadow_105_42421"/>
<feBlend mode="normal" in="SourceGraphic" in2="effect1_dropShadow_105_42421" result="shape"/>
</filter>
<clipPath id="clip0_105_42421">
<rect width="24" height="24" fill="white" transform="translate(23 22)"/>
</clipPath>
<clipPath id="clip1_105_42421">
<rect width="20" height="20" fill="white" transform="translate(25 24)"/>
</clipPath>
</defs>
</svg>
