<svg xmlns="http://www.w3.org/2000/svg" width="48" height="48" viewBox="0 0 48 48">
    <defs>
        <filter id="Ellipse_1291" width="48" height="48" x="0" y="0" filterUnits="userSpaceOnUse">
            <feOffset/>
            <feGaussianBlur result="blur" stdDeviation="3"/>
            <feFlood flood-opacity=".161"/>
            <feComposite in2="blur" operator="in"/>
            <feComposite in="SourceGraphic"/>
        </filter>
    </defs>
    <g id="Group_9306" data-name="Group 9306" transform="translate(-1234 -332)">
        <g filter="url(#Ellipse_1291)" transform="translate(1234 332)">
            <circle id="Ellipse_1291-2" cx="15" cy="15" r="15" fill="#fff" data-name="Ellipse 1291" transform="translate(9 9)"/>
        </g>
        <g id="like" transform="translate(1249.267 348)">
            <path id="Path_7852" fill="#6d547c" d="M15.784 7.97a3.446 3.446 0 0 0-1.906-.733l-.3-.052c-.073-.019-.166-.04-.26-.063-.86-.2-1.468-.4-1.471-1.1a4 4 0 0 1 .312-1.349 4.314 4.314 0 0 0 .347-1.69A3.352 3.352 0 0 0 11.234.375 1.729 1.729 0 0 0 10.182 0a1.121 1.121 0 0 0-1.125.819 2.706 2.706 0 0 0-.077 1.052c0 .089.011.18.013.275a3.2 3.2 0 0 1-.184 1.3 7.177 7.177 0 0 1-1.278 2.038l-.246.309A9.842 9.842 0 0 1 6.18 7.038a1.541 1.541 0 0 1-.684.273c-.077.005-4.763.051-4.763.051v6.888s3.676 0 3.882-.017c.181-.011.356-.021.516-.021h.074c.151.032.3.048.464.066.142.015.288.031.442.06a1.284 1.284 0 0 1 .525.366 2.879 2.879 0 0 0 .3.255c.1.07.2.14.294.211a5.487 5.487 0 0 0 .964.6 5.124 5.124 0 0 0 1.382.308c.226.03.451.057.666.1l.384.044a10.071 10.071 0 0 0 1.119.085 3.507 3.507 0 0 0 .688-.062 1.587 1.587 0 0 0 1.219-1.509 1.876 1.876 0 0 0 .931-.872 1.659 1.659 0 0 0 .186-1.092 2 2 0 0 0 .89-2.109 1.534 1.534 0 0 0 .612-1.03 1.942 1.942 0 0 0-.487-1.663zM15.3 9.35a.549.549 0 0 1-.444.533.5.5 0 0 0-.346.293.656.656 0 0 0 .069.571.823.823 0 0 1 .066.68.956.956 0 0 1-.652.626.451.451 0 0 0-.345.271.456.456 0 0 0 .048.493.786.786 0 0 1-.054.7.509.509 0 0 1-.4.322.259.259 0 0 1-.062-.008h-.047a.638.638 0 0 0-.524.255.406.406 0 0 0-.029.389.662.662 0 0 1-.025.553.389.389 0 0 1-.3.186 2.752 2.752 0 0 1-.721.065c-.7-.063-1.44-.13-2.157-.259l-.342-.077c-.177-.04-.353-.078-.509-.117a5.63 5.63 0 0 1-.82-.553c-.092-.069-.182-.138-.271-.2-.065-.051-.135-.118-.206-.185a1.637 1.637 0 0 0-.642-.435 1.264 1.264 0 0 0-.7-.148 1.1 1.1 0 0 1-1.145-.888 6.834 6.834 0 0 1-.156-1.846v-.13A3.728 3.728 0 0 1 4.88 8.7c.14-.238.419-.288.743-.351a2.4 2.4 0 0 0 1.129-.473.242.242 0 0 0 .13-.117 1.784 1.784 0 0 0 .344-.347 16.6 16.6 0 0 0 1.4-1.727c.089-.133.179-.26.267-.386A5.761 5.761 0 0 0 9.9 3.375 5.352 5.352 0 0 0 9.989 1.8v-.084c-.026-.344-.031-.716.161-.738a.305.305 0 0 1 .045 0c.312 0 .706.394.94.758a2.85 2.85 0 0 1 .358 1.386 4.552 4.552 0 0 1-.319 1.344 4.269 4.269 0 0 0-.333 1.707 2.09 2.09 0 0 0 1.636 1.782c.267.069.551.116.825.16a4.49 4.49 0 0 1 1.47.411.852.852 0 0 1 .528.824z" data-name="Path 7852"/>
        </g>
    </g>
</svg>
