<svg xmlns="http://www.w3.org/2000/svg" id="calendar_4_" width="24" height="24" data-name="calendar (4)" viewBox="0 0 24 24">
    <path id="Path_7836" fill="#6d547c" d="M20.906 1.875H18.75V.75a.75.75 0 0 0-1.5 0v1.125H6.75V.75a.75.75 0 0 0-1.5 0v1.125H3.094A3.1 3.1 0 0 0 0 4.969v15.937A3.1 3.1 0 0 0 3.094 24h17.812A3.1 3.1 0 0 0 24 20.906V4.969a3.1 3.1 0 0 0-3.094-3.094zM22.5 20.906a1.594 1.594 0 0 1-1.594 1.594H3.094A1.594 1.594 0 0 1 1.5 20.906V8.484a.234.234 0 0 1 .234-.234h20.532a.234.234 0 0 1 .234.234z" data-name="Path 7836"/>
</svg>
