<svg xmlns="http://www.w3.org/2000/svg" xmlns:xlink="http://www.w3.org/1999/xlink" width="62" height="62" viewBox="0 0 62 62">
  <defs>
    <filter id="Ellipse_1290" x="0" y="0" width="62" height="62" filterUnits="userSpaceOnUse">
      <feOffset input="SourceAlpha"/>
      <feGaussianBlur stdDeviation="3" result="blur"/>
      <feFlood flood-opacity="0.161"/>
      <feComposite operator="in" in2="blur"/>
      <feComposite in="SourceGraphic"/>
    </filter>
  </defs>
  <g id="Component_12_9" data-name="Component 12 – 9" transform="translate(9 9)">
    <g transform="matrix(1, 0, 0, 1, -9, -9)" filter="url(#Ellipse_1290)">
      <circle id="Ellipse_1290-2" data-name="Ellipse 1290" cx="22" cy="22" r="22" transform="translate(9 9)" fill="#fff"/>
    </g>
    <g id="calendar_4_" data-name="calendar (4)" transform="translate(10 10)">
      <path id="Path_7836" data-name="Path 7836" d="M20.906,1.875H18.75V.75a.75.75,0,0,0-1.5,0V1.875H6.75V.75a.75.75,0,0,0-1.5,0V1.875H3.094A3.1,3.1,0,0,0,0,4.969V20.906A3.1,3.1,0,0,0,3.094,24H20.906A3.1,3.1,0,0,0,24,20.906V4.969A3.1,3.1,0,0,0,20.906,1.875ZM22.5,20.906A1.594,1.594,0,0,1,20.906,22.5H3.094A1.594,1.594,0,0,1,1.5,20.906V8.484a.234.234,0,0,1,.234-.234H22.266a.234.234,0,0,1,.234.234Z" fill="#0f1f54"/>
    </g>
  </g>
</svg>
