<svg xmlns="http://www.w3.org/2000/svg" xmlns:xlink="http://www.w3.org/1999/xlink" width="50" height="50" viewBox="0 0 50 50">
  <defs>
    <filter id="Rectangle_2235" x="0" y="0" width="50" height="50" filterUnits="userSpaceOnUse">
      <feOffset dy="3" input="SourceAlpha"/>
      <feGaussianBlur stdDeviation="3" result="blur"/>
      <feFlood flood-opacity="0.161"/>
      <feComposite operator="in" in2="blur"/>
      <feComposite in="SourceGraphic"/>
    </filter>
  </defs>
  <g id="Group_13900" data-name="Group 13900" transform="translate(-613 -809.74)">
    <g id="Group_3072" data-name="Group 3072" transform="translate(622 816)">
      <g transform="matrix(1, 0, 0, 1, -9, -6.26)" filter="url(#Rectangle_2235)">
        <rect id="Rectangle_2235-2" data-name="Rectangle 2235" width="32" height="32" rx="16" transform="translate(9 6)" fill="#0f1f54"/>
      </g>
      <g id="Group_13812" data-name="Group 13812" transform="translate(-8378.305 3535.283)">
        <g id="Path_13300" data-name="Path 13300" transform="translate(8396.603 -3528.884) rotate(43)" fill="none" stroke-linecap="round">
          <path d="M1.908,0H7.942A1.509,1.509,0,0,1,9.451,1.509c0,2.851-.473,10.561-.473,10.561L5.807,15.026S4.125,15,2.645,14.971A3.208,3.208,0,0,1,.032,11.126L.4,1.509A1.509,1.509,0,0,1,1.908,0Z" stroke="none"/>
          <path d="M 1.908222198486328 0.9999961853027344 C 1.627821922302246 0.9999961853027344 1.399692058563232 1.228126525878906 1.399692058563232 1.508525848388672 L 1.398962020874023 1.546706199645996 L 1.030132293701172 11.20104598999023 L 1.025952339172363 11.23800659179688 C 0.8288393020629883 12.9821662902832 1.770588874816895 13.7900333404541 2.740103244781494 13.97246837615967 C 3.749011039733887 13.99120807647705 4.845275402069092 14.00984954833984 5.41971492767334 14.01946926116943 L 8.003198623657227 11.61032199859619 C 8.099213600158691 9.998188018798828 8.450852394104004 3.928055763244629 8.450852394104004 1.508525848388672 C 8.450852394104004 1.228126525878906 8.222732543945312 0.9999961853027344 7.94233226776123 0.9999961853027344 L 1.908222198486328 0.9999961853027344 M 1.908222198486328 -3.814697265625e-06 L 7.94233226776123 -3.814697265625e-06 C 8.77546215057373 -3.814697265625e-06 9.450852394104004 0.6753864288330078 9.450852394104004 1.508525848388672 C 9.450852394104004 4.359725952148438 8.977392196655273 12.0691967010498 8.977392196655273 12.0691967010498 L 5.806582450866699 15.02603626251221 C 5.806582450866699 15.02603626251221 4.125492095947266 14.99849605560303 2.645051956176758 14.97087669372559 C 1.12473201751709 14.72729587554932 -0.2279081344604492 13.42796611785889 0.03228187561035156 11.12570571899414 L 0.3996925354003906 1.508525848388672 C 0.3996925354003906 0.6753864288330078 1.075081825256348 -3.814697265625e-06 1.908222198486328 -3.814697265625e-06 Z" stroke="none" fill="#fff"/>
        </g>
        <line id="Line_552" data-name="Line 552" x2="15.085" transform="translate(8389.025 -3513.22)" fill="none" stroke="#fff" stroke-linecap="round" stroke-width="1"/>
        <line id="Line_553" data-name="Line 553" x2="1.855" transform="translate(8384.5 -3513.22)" fill="none" stroke="#fff" stroke-linecap="round" stroke-width="1"/>
        <line id="Line_554" data-name="Line 554" y1="1.246" x2="1.117" transform="translate(8386.009 -3511.448)" fill="none" stroke="#fff" stroke-linecap="round" stroke-width="1"/>
        <line id="Line_555" data-name="Line 555" x2="4.526" y2="4.526" transform="translate(8390.534 -3520.762)" fill="none" stroke="#fff" stroke-linecap="round" stroke-width="1"/>
      </g>
    </g>
  </g>
</svg>
