<svg width="72" height="72" viewBox="0 0 72 72" fill="none" xmlns="http://www.w3.org/2000/svg">
<g filter="url(#filter0_d_105_42472)">
<circle cx="34" cy="34" r="32" fill="#F3F7FA"/>
</g>
<g clip-path="url(#clip0_105_42472)">
<path d="M34 29V25H24V43H38V41H34V39H36V37H34V35H36V33H34V31H42V37H44V29H34ZM28 41H26V39H28V41ZM28 37H26V35H28V37ZM28 33H26V31H28V33ZM28 29H26V27H28V29ZM32 41H30V39H32V41ZM32 37H30V35H32V37ZM32 33H30V31H32V33ZM32 29H30V27H32V29ZM46 41V43H44V45H42V43H40V41H42V39H44V41H46ZM40 33H38V35H40V33ZM40 37H38V39H40V37Z" fill="#1F2551"/>
</g>
<defs>
<filter id="filter0_d_105_42472" x="0" y="0" width="72" height="72" filterUnits="userSpaceOnUse" color-interpolation-filters="sRGB">
<feFlood flood-opacity="0" result="BackgroundImageFix"/>
<feColorMatrix in="SourceAlpha" type="matrix" values="0 0 0 0 0 0 0 0 0 0 0 0 0 0 0 0 0 0 127 0" result="hardAlpha"/>
<feOffset dx="2" dy="2"/>
<feGaussianBlur stdDeviation="2"/>
<feComposite in2="hardAlpha" operator="out"/>
<feColorMatrix type="matrix" values="0 0 0 0 0.0980392 0 0 0 0 0.12549 0 0 0 0 0.282353 0 0 0 0.15 0"/>
<feBlend mode="normal" in2="BackgroundImageFix" result="effect1_dropShadow_105_42472"/>
<feBlend mode="normal" in="SourceGraphic" in2="effect1_dropShadow_105_42472" result="shape"/>
</filter>
<clipPath id="clip0_105_42472">
<rect width="24" height="24" fill="white" transform="translate(22 22)"/>
</clipPath>
</defs>
</svg>
