<svg width="20" height="21" viewBox="0 0 20 21" fill="none" xmlns="http://www.w3.org/2000/svg">
<g clip-path="url(#clip0_2186_73051)">
<path d="M11.7466 6.07066L14.5417 8.86577L7.46685 15.9406L4.67336 13.1455L11.7466 6.07066ZM16.6621 5.39679L15.4156 4.15029C15.1837 3.91897 14.8696 3.78906 14.5421 3.78906C14.2146 3.78906 13.9004 3.91897 13.6686 4.15029L12.4747 5.34415L15.2706 8.13925L16.6621 6.74615C16.7509 6.65766 16.8214 6.55252 16.8694 6.43674C16.9175 6.32096 16.9423 6.19683 16.9423 6.07147C16.9423 5.94611 16.9175 5.82198 16.8694 5.70621C16.8214 5.59043 16.7509 5.48528 16.6621 5.39679ZM3.21061 17.0737C3.19898 17.1264 3.20093 17.1811 3.21626 17.2328C3.23159 17.2845 3.25981 17.3315 3.29827 17.3693C3.33673 17.4071 3.38417 17.4345 3.43613 17.449C3.48809 17.4635 3.54287 17.4645 3.59533 17.4519L6.70956 16.6971L3.91688 13.902L3.21061 17.0737Z" fill="#1F2251"/>
</g>
<defs>
<clipPath id="clip0_2186_73051">
<rect width="14.2161" height="14.1667" fill="white" transform="translate(3 3.5)"/>
</clipPath>
</defs>
</svg>
