<svg xmlns="http://www.w3.org/2000/svg" xmlns:xlink="http://www.w3.org/1999/xlink" width="51" height="51" viewBox="0 0 51 51">
  <defs>
    <filter id="Ellipse_3161" x="0" y="0" width="51" height="51" filterUnits="userSpaceOnUse">
      <feOffset dy="3" input="SourceAlpha"/>
      <feGaussianBlur stdDeviation="3" result="blur"/>
      <feFlood flood-opacity="0.161"/>
      <feComposite operator="in" in2="blur"/>
      <feComposite in="SourceGraphic"/>
    </filter>
    <filter id="Path_13258" x="14.622" y="14.349" width="26.296" height="24.26" filterUnits="userSpaceOnUse">
      <feOffset dy="3" input="SourceAlpha"/>
      <feGaussianBlur stdDeviation="3" result="blur-2"/>
      <feFlood flood-opacity="0.161"/>
      <feComposite operator="in" in2="blur-2"/>
      <feComposite in="SourceGraphic"/>
    </filter>
    <filter id="Ellipse_3162" x="7" y="7" width="37" height="37" filterUnits="userSpaceOnUse">
      <feOffset dy="3" input="SourceAlpha"/>
      <feGaussianBlur stdDeviation="3" result="blur-3"/>
      <feFlood flood-opacity="0.161"/>
      <feComposite operator="in" in2="blur-3"/>
      <feComposite in="SourceGraphic"/>
    </filter>
  </defs>
  <g id="Group_14300" data-name="Group 14300" transform="translate(9.313 6.251)">
    <g transform="matrix(1, 0, 0, 1, -9.31, -6.25)" filter="url(#Ellipse_3161)">
      <circle id="Ellipse_3161-2" data-name="Ellipse 3161" cx="16.5" cy="16.5" r="16.5" transform="translate(9 6)" fill="#fff"/>
    </g>
    <g transform="matrix(1, 0, 0, 1, -9.31, -6.25)" filter="url(#Path_13258)">
      <path id="Path_13258-2" data-name="Path 13258" d="M101.45,58.506h0a.4.4,0,0,1-.308-.142l-2.115-2.328a.429.429,0,0,1,.028-.6.415.415,0,0,1,.588.028l1.821,2,5.043-5.1a.4.4,0,0,1,.588,0,.428.428,0,0,1,0,.6l-5.351,5.409A.379.379,0,0,1,101.45,58.506Z" transform="translate(-75.3 -31.9)" fill="#ea6920"/>
    </g>
    <g transform="matrix(1, 0, 0, 1, -9.31, -6.25)" filter="url(#Ellipse_3162)">
      <g id="Ellipse_3162-2" data-name="Ellipse 3162" transform="translate(16 13)" fill="#0f1f54" stroke="#fdfdfd" stroke-width="1">
        <circle cx="9.5" cy="9.5" r="9.5" stroke="none"/>
        <circle cx="9.5" cy="9.5" r="9" fill="none"/>
      </g>
    </g>
  </g>
</svg>
