<svg width="20" height="20" viewBox="0 0 20 20" fill="none" xmlns="http://www.w3.org/2000/svg">
<path d="M17.5765 6.28155L14.3421 3.04718C13.9905 2.69557 13.5136 2.49805 13.0163 2.49805C12.5191 2.49805 12.0422 2.69557 11.6905 3.04718L2.42022 12.3175C2.06862 12.6691 1.87109 13.146 1.87109 13.6433C1.87109 14.1405 2.06862 14.6174 2.42022 14.9691L4.76866 17.3175C4.82693 17.3757 4.89614 17.4218 4.97229 17.4532C5.04844 17.4846 5.13005 17.5006 5.21241 17.5003H16.8733C17.0391 17.5003 17.1981 17.4345 17.3153 17.3172C17.4325 17.2 17.4983 17.0411 17.4983 16.8753C17.4983 16.7095 17.4325 16.5506 17.3153 16.4334C17.1981 16.3161 17.0391 16.2503 16.8733 16.2503H10.2562L17.5765 8.93312C17.9281 8.58149 18.1256 8.10459 18.1256 7.60733C18.1256 7.11007 17.9281 6.63318 17.5765 6.28155ZM8.48897 16.2503H5.47101L3.30538 14.0847C3.18826 13.9675 3.12247 13.8086 3.12247 13.6429C3.12247 13.4772 3.18826 13.3183 3.30538 13.2011L7.49835 9.0089L11.6148 13.1253L8.48897 16.2503ZM16.6921 8.04718L12.4983 12.2417L8.38194 8.1253L12.5765 3.93312C12.6345 3.87501 12.7035 3.82891 12.7793 3.79745C12.8552 3.766 12.9365 3.74981 13.0187 3.74981C13.1008 3.74981 13.1821 3.766 13.258 3.79745C13.3339 3.82891 13.4028 3.87501 13.4608 3.93312L16.6937 7.16593C16.8108 7.28313 16.8766 7.44204 16.8766 7.60772C16.8766 7.77341 16.8108 7.93232 16.6937 8.04952L16.6921 8.04718Z" fill="#1F2551"/>
</svg>
