<svg width="80" height="80" viewBox="0 0 80 80" fill="none" xmlns="http://www.w3.org/2000/svg">
<g filter="url(#filter0_d_4715_4935)">
<circle cx="36" cy="36" r="25" transform="rotate(180 36 36)" fill="white"/>
</g>
<path d="M43.5765 32.2816L40.3421 29.0472C39.9905 28.6956 39.5136 28.498 39.0163 28.498C38.5191 28.498 38.0422 28.6956 37.6905 29.0472L28.4202 38.3175C28.0686 38.6691 27.8711 39.146 27.8711 39.6433C27.8711 40.1405 28.0686 40.6174 28.4202 40.9691L30.7687 43.3175C30.8269 43.3757 30.8961 43.4218 30.9723 43.4532C31.0484 43.4846 31.13 43.5006 31.2124 43.5003H42.8733C43.0391 43.5003 43.1981 43.4345 43.3153 43.3172C43.4325 43.2 43.4983 43.0411 43.4983 42.8753C43.4983 42.7095 43.4325 42.5506 43.3153 42.4334C43.1981 42.3161 43.0391 42.2503 42.8733 42.2503H36.2562L43.5765 34.9331C43.9281 34.5815 44.1256 34.1046 44.1256 33.6073C44.1256 33.1101 43.9281 32.6332 43.5765 32.2816ZM34.489 42.2503H31.471L29.3054 40.0847C29.1883 39.9675 29.1225 39.8086 29.1225 39.6429C29.1225 39.4772 29.1883 39.3183 29.3054 39.2011L33.4983 35.0089L37.6148 39.1253L34.489 42.2503ZM42.6921 34.0472L38.4983 38.2417L34.3819 34.1253L38.5765 29.9331C38.6345 29.875 38.7035 29.8289 38.7793 29.7975C38.8552 29.766 38.9365 29.7498 39.0187 29.7498C39.1008 29.7498 39.1821 29.766 39.258 29.7975C39.3339 29.8289 39.4028 29.875 39.4608 29.9331L42.6937 33.1659C42.8108 33.2831 42.8766 33.442 42.8766 33.6077C42.8766 33.7734 42.8108 33.9323 42.6937 34.0495L42.6921 34.0472Z" fill="#1F2551"/>
<defs>
<filter id="filter0_d_4715_4935" x="0" y="0" width="80" height="80" filterUnits="userSpaceOnUse" color-interpolation-filters="sRGB">
<feFlood flood-opacity="0" result="BackgroundImageFix"/>
<feColorMatrix in="SourceAlpha" type="matrix" values="0 0 0 0 0 0 0 0 0 0 0 0 0 0 0 0 0 0 127 0" result="hardAlpha"/>
<feOffset dx="4" dy="4"/>
<feGaussianBlur stdDeviation="7.5"/>
<feComposite in2="hardAlpha" operator="out"/>
<feColorMatrix type="matrix" values="0 0 0 0 0.254902 0 0 0 0 0.360784 0 0 0 0 0.670588 0 0 0 0.15 0"/>
<feBlend mode="normal" in2="BackgroundImageFix" result="effect1_dropShadow_4715_4935"/>
<feBlend mode="normal" in="SourceGraphic" in2="effect1_dropShadow_4715_4935" result="shape"/>
</filter>
</defs>
</svg>
