<svg xmlns="http://www.w3.org/2000/svg" xmlns:xlink="http://www.w3.org/1999/xlink" width="63.419" height="62" viewBox="0 0 63.419 62">
  <defs>
    <filter id="Path_13046" x="0" y="0" width="63.419" height="62" filterUnits="userSpaceOnUse">
      <feOffset input="SourceAlpha"/>
      <feGaussianBlur stdDeviation="3" result="blur"/>
      <feFlood flood-opacity="0.161"/>
      <feComposite operator="in" in2="blur"/>
      <feComposite in="SourceGraphic"/>
    </filter>
  </defs>
  <g id="Group_13559" data-name="Group 13559" transform="translate(-3909 -12690.212)">
    <g id="Group_11774" data-name="Group 11774" transform="translate(3918 12699.212)">
      <g transform="matrix(1, 0, 0, 1, -9, -9)" filter="url(#Path_13046)">
        <path id="Path_13046-2" data-name="Path 13046" d="M22.71,0C10.167,0,0,9.85,0,22S10.167,44,22.71,44s22.71-9.85,22.71-22S35.252,0,22.71,0Z" transform="translate(9 9)" fill="#0f1f54"/>
      </g>
    </g>
    <g id="Group_13400" data-name="Group 13400" transform="translate(3929 12709.394)">
      <rect id="Rectangle_4157" data-name="Rectangle 4157" width="24" height="24" fill="none"/>
      <rect id="Rectangle_4158" data-name="Rectangle 4158" width="24" height="24" fill="none"/>
    </g>
    <g id="Group_13402" data-name="Group 13402" transform="translate(3929 12709.394)">
      <g id="Group_13401" data-name="Group 13401">
        <path id="Path_13132" data-name="Path 13132" d="M22,9V7H20V9H18v2h2v2h2V11h2V9Z" fill="#fff"/>
        <path id="Path_13133" data-name="Path 13133" d="M8,12A4,4,0,1,0,4,8,4,4,0,0,0,8,12Z" fill="#fff"/>
        <path id="Path_13134" data-name="Path 13134" d="M8,13c-2.67,0-8,1.34-8,4v3H16V17C16,14.34,10.67,13,8,13Z" fill="#fff"/>
        <path id="Path_13135" data-name="Path 13135" d="M12.51,4.05a5.981,5.981,0,0,1,0,7.9,3.98,3.98,0,0,0,0-7.9Z" fill="#fff"/>
        <path id="Path_13136" data-name="Path 13136" d="M16.53,13.83A4.237,4.237,0,0,1,18,17v3h2V17C20,15.55,18.41,14.49,16.53,13.83Z" fill="#fff"/>
      </g>
    </g>
  </g>
</svg>
