<svg xmlns="http://www.w3.org/2000/svg" width="198.605" height="198.785" viewBox="0 0 198.605 198.785">
  <g id="Group_13434" data-name="Group 13434" transform="translate(8045.677 21524.82)">
    <g id="Group_5007" data-name="Group 5007" transform="translate(-7932.033 -21524.305)">
      <g id="Group_5006" data-name="Group 5006" transform="translate(0)">
        <path id="Path_5823" data-name="Path 5823" d="M608.618,72.337A13.745,13.745,0,0,0,597.1,56.759c.045-.233.089-.466.125-.7a16.678,16.678,0,0,0-14.165-18.928,16.932,16.932,0,0,0-13.4,3.786,15.632,15.632,0,0,0-28.346,5.2c-.344-.078-.692-.147-1.046-.2a13.862,13.862,0,0,0-15.785,11.544,13.691,13.691,0,0,0,7.531,14.312,13.138,13.138,0,0,0-1.848,5,13.306,13.306,0,0,0,11.3,15.1,13.663,13.663,0,0,0,1.677.142l-2.126,14.052c-.083.611.671.971.942.694l10.9-11.164a13.532,13.532,0,0,0,19.5-1.6,15.064,15.064,0,0,0,24.585-9.083c.053-.352.089-.7.117-1.053A13.81,13.81,0,0,0,608.618,72.337Z" transform="translate(-524.326 -33.839)" fill="none" stroke="#707070" stroke-width="1"/>
      </g>
    </g>
    <g id="Group_4229" data-name="Group 4229" transform="translate(-7960.205 -21458.16)">
      <g id="Group_4108" data-name="Group 4108" transform="translate(19.204 0)">
        <g id="Group_4071" data-name="Group 4071">
          <g id="Group_3967" data-name="Group 3967" transform="translate(9.063)">
            <g id="Group_3966" data-name="Group 3966">
              <path id="Path_5415" data-name="Path 5415" d="M297.493,150.211a2.809,2.809,0,0,1,.9-3.764,3.643,3.643,0,0,1,4.044.286,3.839,3.839,0,0,1,1.281,3.661c-.141.962-1.641,2.914-3.074,2.055" transform="translate(-297.098 -145.962)" fill="#263238"/>
            </g>
          </g>
          <g id="Group_3969" data-name="Group 3969" transform="translate(0 3.456)">
            <g id="Group_3968" data-name="Group 3968">
              <path id="Path_5416" data-name="Path 5416" d="M274.759,163.728c-3.179-6.158,3.477-9.663,7.248-8.8,3.544.812,5.121,2.477,5.812,4.785a11.553,11.553,0,0,1-.014,7.116,3.429,3.429,0,0,1-2.327,2.473" transform="translate(-273.924 -154.799)" fill="#263238"/>
            </g>
          </g>
          <g id="Group_4070" data-name="Group 4070" transform="translate(0.825 5.697)">
            <g id="Group_4069" data-name="Group 4069">
              <g id="Group_4068" data-name="Group 4068">
                <g id="Group_4067" data-name="Group 4067">
                  <g id="Group_4050" data-name="Group 4050">
                    <g id="Group_4049" data-name="Group 4049">
                      <g id="Group_4048" data-name="Group 4048">
                        <g id="Group_3977" data-name="Group 3977">
                          <g id="Group_3976" data-name="Group 3976">
                            <g id="Group_3975" data-name="Group 3975">
                              <g id="Group_3974" data-name="Group 3974">
                                <g id="Group_3973" data-name="Group 3973">
                                  <g id="Group_3972" data-name="Group 3972">
                                    <g id="Group_3971" data-name="Group 3971">
                                      <g id="Group_3970" data-name="Group 3970">
                                        <path id="Path_5417" data-name="Path 5417" d="M285.694,161.809a1.188,1.188,0,0,1,1.122,1.151h0l.128,16.072c.069,1.9-2.644,3.1-4.674,3.162h0c-2.05.059-2.169-.942-2.288-2.742-.2-3.008-.255-4.138-.255-4.121,0,0-2.609-.3-3.314-3.65a36.129,36.129,0,0,1-.374-6.68c.027-2.032,1.245-4.584,3.274-4.471Z" transform="translate(-276.032 -160.528)" fill="#ffbe9d"/>
                                      </g>
                                    </g>
                                  </g>
                                </g>
                              </g>
                            </g>
                          </g>
                        </g>
                        <g id="Group_4030" data-name="Group 4030" transform="translate(3.695 13.373)">
                          <g id="Group_4029" data-name="Group 4029">
                            <g id="Group_4028" data-name="Group 4028">
                              <g id="Group_4027" data-name="Group 4027">
                                <g id="Group_4026" data-name="Group 4026">
                                  <g id="Group_4025" data-name="Group 4025">
                                    <g id="Group_4024" data-name="Group 4024">
                                      <g id="Group_4023" data-name="Group 4023">
                                        <path id="Path_5423" data-name="Path 5423" d="M285.479,196.153a8.6,8.6,0,0,0,4.461-1.432s-.981,2.374-4.376,2.227Z" transform="translate(-285.479 -194.721)" fill="#eb996e"/>
                                      </g>
                                    </g>
                                  </g>
                                </g>
                              </g>
                            </g>
                          </g>
                        </g>
                      </g>
                    </g>
                  </g>
                </g>
              </g>
            </g>
          </g>
        </g>
        <g id="Group_4073" data-name="Group 4073" transform="translate(1.755 4.994)">
          <g id="Group_4072" data-name="Group 4072">
            <path id="Path_5428" data-name="Path 5428" d="M278.447,159.652a3.258,3.258,0,0,0,1.37,3.133,6.378,6.378,0,0,0,1.923.756l1.288.351a10.508,10.508,0,0,0,2.9.5,4.1,4.1,0,0,0,.416,2.779,2.127,2.127,0,0,0,2.31,1.18,33.125,33.125,0,0,0,.375-6.6,3.086,3.086,0,0,0-.334-1.647,3.129,3.129,0,0,0-2.516-1.014l-3.945-.311a7.886,7.886,0,0,0-1.932.007,2.655,2.655,0,0,0-1.667.9" transform="translate(-278.412 -158.73)" fill="#263238"/>
          </g>
        </g>
        <g id="Group_4076" data-name="Group 4076" transform="translate(2.501 4.783)">
          <g id="Group_4075" data-name="Group 4075">
            <g id="Group_4074" data-name="Group 4074">
              <path id="Path_5429" data-name="Path 5429" d="M292.321,164.087s-.012.005-.037.009a.668.668,0,0,1-.111.008,1.072,1.072,0,0,1-.418-.1,1.765,1.765,0,0,1-.552-.393,8.4,8.4,0,0,1-.564-.689,3.26,3.26,0,0,0-.773-.717,4.276,4.276,0,0,0-1.1-.508,9.374,9.374,0,0,0-2.78-.305,12.8,12.8,0,0,1-2.829-.194,4.05,4.05,0,0,1-2.036-1.085,3.084,3.084,0,0,1-.536-.718,2.425,2.425,0,0,1-.227-.637,1.658,1.658,0,0,1-.028-.572,5.319,5.319,0,0,0,.079.56,2.508,2.508,0,0,0,.242.612,3.094,3.094,0,0,0,.537.686,4.008,4.008,0,0,0,2,1.032,13.13,13.13,0,0,0,2.8.181,9.273,9.273,0,0,1,2.816.321,4.329,4.329,0,0,1,1.127.533,3.315,3.315,0,0,1,.785.751c.2.263.366.508.543.7a1.785,1.785,0,0,0,.519.4A1.278,1.278,0,0,0,292.321,164.087Z" transform="translate(-280.319 -158.191)" fill="#455a64"/>
            </g>
          </g>
        </g>
        <g id="Group_4079" data-name="Group 4079" transform="translate(2.951 4.543)">
          <g id="Group_4078" data-name="Group 4078">
            <g id="Group_4077" data-name="Group 4077">
              <path id="Path_5430" data-name="Path 5430" d="M292.482,161.641a.989.989,0,0,0-.068-.479,1.946,1.946,0,0,0-1.01-.833,6.667,6.667,0,0,0-1.927-.518,17.011,17.011,0,0,0-2.46.013,11.512,11.512,0,0,1-2.482-.087,4.977,4.977,0,0,1-1.891-.734,3.217,3.217,0,0,1-.963-.971,2.318,2.318,0,0,1-.169-.332.466.466,0,0,1-.043-.123c.014-.007.078.161.256.426a3.344,3.344,0,0,0,.971.919,5.024,5.024,0,0,0,1.86.692,11.906,11.906,0,0,0,2.454.075,16.068,16.068,0,0,1,2.481,0,6.508,6.508,0,0,1,1.952.555,1.942,1.942,0,0,1,1.018.9.762.762,0,0,1,.051.373A.362.362,0,0,1,292.482,161.641Z" transform="translate(-281.469 -157.576)" fill="#455a64"/>
            </g>
          </g>
        </g>
        <g id="Group_4082" data-name="Group 4082" transform="translate(11.141 2.135)">
          <g id="Group_4081" data-name="Group 4081">
            <g id="Group_4080" data-name="Group 4080">
              <path id="Path_5431" data-name="Path 5431" d="M306.713,151.42a.51.51,0,0,1,.053.226,1.4,1.4,0,0,1-.109.623,3.511,3.511,0,0,1-1.41,1.5,3.116,3.116,0,0,1-2,.443,4.068,4.068,0,0,1-.616-.113.735.735,0,0,1-.217-.077c.005-.025.322.062.84.095a3.414,3.414,0,0,0,.9-.057,3.257,3.257,0,0,0,1.023-.406,3.67,3.67,0,0,0,1.392-1.42A1.716,1.716,0,0,0,306.713,151.42Z" transform="translate(-302.41 -151.42)" fill="#455a64"/>
            </g>
          </g>
        </g>
        <g id="Group_4085" data-name="Group 4085" transform="translate(10.515 0.646)">
          <g id="Group_4084" data-name="Group 4084">
            <g id="Group_4083" data-name="Group 4083">
              <path id="Path_5432" data-name="Path 5432" d="M304.517,147.613a.677.677,0,0,1,0,.226,3.455,3.455,0,0,1-.115.606,4.03,4.03,0,0,1-2.76,2.786,3.431,3.431,0,0,1-.605.121.65.65,0,0,1-.226,0c0-.024.318-.052.8-.215a4.232,4.232,0,0,0,2.7-2.723C304.468,147.931,304.493,147.61,304.517,147.613Z" transform="translate(-300.809 -147.613)" fill="#455a64"/>
            </g>
          </g>
        </g>
        <g id="Group_4088" data-name="Group 4088" transform="translate(1.677 5.89)">
          <g id="Group_4087" data-name="Group 4087">
            <g id="Group_4086" data-name="Group 4086">
              <path id="Path_5433" data-name="Path 5433" d="M290.423,170.414a.91.91,0,0,1-.007-.179c0-.117,0-.29-.01-.511a5.715,5.715,0,0,0-.345-1.83,3.6,3.6,0,0,0-.658-1.093,2.969,2.969,0,0,0-1.2-.807,11.16,11.16,0,0,0-3.366-.362,10.363,10.363,0,0,1-3.366-.644,5.656,5.656,0,0,1-2.28-1.612,4.267,4.267,0,0,1-.877-1.668,2.912,2.912,0,0,1-.09-.506.869.869,0,0,1-.008-.179c.016,0,.026.246.148.671a4.379,4.379,0,0,0,.9,1.62,5.635,5.635,0,0,0,2.253,1.558,10.428,10.428,0,0,0,3.327.625,11.021,11.021,0,0,1,3.4.381,3.068,3.068,0,0,1,1.244.849,3.662,3.662,0,0,1,.663,1.133,5.464,5.464,0,0,1,.308,1.863c0,.223-.007.4-.015.513A.875.875,0,0,1,290.423,170.414Z" transform="translate(-278.212 -161.023)" fill="#455a64"/>
            </g>
          </g>
        </g>
        <g id="Group_4091" data-name="Group 4091" transform="translate(9.211 3.874)">
          <g id="Group_4090" data-name="Group 4090">
            <g id="Group_4089" data-name="Group 4089">
              <path id="Path_5434" data-name="Path 5434" d="M301.384,158.572a6.739,6.739,0,0,1-.483-.517,8.015,8.015,0,0,0-2.771-1.916,6.8,6.8,0,0,1-.654-.269,2.559,2.559,0,0,1,.689.18,6.691,6.691,0,0,1,2.806,1.941A2.537,2.537,0,0,1,301.384,158.572Z" transform="translate(-297.477 -155.866)" fill="#e8505b"/>
            </g>
          </g>
        </g>
        <g id="Group_4107" data-name="Group 4107" transform="translate(11.2 12.376)">
          <g id="Group_4098" data-name="Group 4098">
            <g id="Group_4097" data-name="Group 4097">
              <g id="Group_4096" data-name="Group 4096">
                <g id="Group_4095" data-name="Group 4095">
                  <g id="Group_4094" data-name="Group 4094">
                    <g id="Group_4093" data-name="Group 4093">
                      <g id="Group_4092" data-name="Group 4092">
                        <path id="Path_5435" data-name="Path 5435" d="M302.611,177.813a1.2,1.2,0,0,1,1.889,1.129,1.521,1.521,0,0,1-1.939,1.668C302.554,180.552,302.611,177.813,302.611,177.813Z" transform="translate(-302.56 -177.607)" fill="#ffbe9d"/>
                      </g>
                    </g>
                  </g>
                </g>
              </g>
            </g>
          </g>
          <g id="Group_4106" data-name="Group 4106" transform="translate(0.57 0.579)">
            <g id="Group_4105" data-name="Group 4105">
              <g id="Group_4104" data-name="Group 4104">
                <g id="Group_4103" data-name="Group 4103">
                  <g id="Group_4102" data-name="Group 4102">
                    <g id="Group_4101" data-name="Group 4101">
                      <g id="Group_4100" data-name="Group 4100">
                        <g id="Group_4099" data-name="Group 4099">
                          <path id="Path_5436" data-name="Path 5436" d="M304.02,180.708c.009-.007.037.023.1.046a.353.353,0,0,0,.264-.01.873.873,0,0,0,.356-.806,1.161,1.161,0,0,0-.129-.5.406.406,0,0,0-.281-.254.179.179,0,0,0-.2.109c-.024.058-.009.1-.019.1s-.046-.031-.034-.116a.226.226,0,0,1,.072-.131.265.265,0,0,1,.192-.063.5.5,0,0,1,.386.291,1.2,1.2,0,0,1,.156.556.915.915,0,0,1-.461.9.377.377,0,0,1-.325-.034C304.026,180.757,304.013,180.713,304.02,180.708Z" transform="translate(-304.018 -179.087)" fill="#eb996e"/>
                        </g>
                      </g>
                    </g>
                  </g>
                </g>
              </g>
            </g>
          </g>
        </g>
      </g>
      <g id="Group_4116" data-name="Group 4116" transform="matrix(0.899, 0.438, -0.438, 0.899, 3.594, 17.572)">
        <g id="Group_4109" data-name="Group 4109" transform="translate(0 0)">
          <path id="Path_5437" data-name="Path 5437" d="M8.85,4.157a22.743,22.743,0,0,0-1.7-2.923A16.577,16.577,0,0,0,3.514,0C3.257.09-.393.774.035,1.2s2.972-.085,2.972-.085l.345.166a15.735,15.735,0,0,0-2.659.663c-.423.254-.268.774.135.726S3.14,2.222,3.255,2.3s-2.076.55-2.31.694c-.316.193-.338.76.063.725.237-.02,2.3-.589,2.3-.589a17.7,17.7,0,0,0-1.783.806c-.244.239-.042.594.313.51.244-.058,1.4-.63,1.722-.707,0,0,.307.077.595.691a12.845,12.845,0,0,0,2.31,2.151Z" fill="#ffbe9d"/>
        </g>
        <g id="Group_4113" data-name="Group 4113" transform="translate(3.647 2.22)">
          <g id="Group_4110" data-name="Group 4110" transform="translate(0.084 0.083)">
            <path id="Path_5438" data-name="Path 5438" d="M4.284,1.905a.731.731,0,0,1-.851.013c-.263-.153-.467-.39-.719-.562C1.961.844.891.986.164.438.063.362-.038.235.014.12S.207,0,.325,0L3.341.024" transform="translate(0 0)" fill="#ffbe9d"/>
          </g>
          <g id="Group_4112" data-name="Group 4112" transform="translate(0 0)">
            <g id="Group_4111" data-name="Group 4111">
              <path id="Path_5439" data-name="Path 5439" d="M3.425.107A1.2,1.2,0,0,0,3.1.07C2.889.059,2.585.047,2.21.036L.891.007.51,0A.6.6,0,0,0,.068.1.255.255,0,0,0,.024.382.521.521,0,0,0,.178.575,1.986,1.986,0,0,0,.56.8a11.615,11.615,0,0,0,1.569.422,2.257,2.257,0,0,1,.623.271c.177.117.326.259.477.376a1.061,1.061,0,0,0,.852.286c.222-.047.293-.169.286-.169a.884.884,0,0,1-.3.1,1.028,1.028,0,0,1-.766-.314c-.141-.119-.285-.268-.474-.4a2.346,2.346,0,0,0-.657-.305A13.442,13.442,0,0,1,.632.645a1.839,1.839,0,0,1-.346-.2C.187.365.137.259.19.217S.379.163.508.165H.89L2.209.158c.375,0,.679-.011.889-.02A1.219,1.219,0,0,0,3.425.107Z" fill="#eb996e"/>
            </g>
          </g>
        </g>
        <g id="Group_4115" data-name="Group 4115" transform="translate(0.042 0.995)">
          <g id="Group_4114" data-name="Group 4114" transform="translate(0 0)">
            <path id="Path_5440" data-name="Path 5440" d="M0,.216A1.686,1.686,0,0,0,.67.39a3.95,3.95,0,0,0,.755.02c.279-.036.584-.084.9-.133L3.011.165l-.041,0a9.844,9.844,0,0,0,1.586.47A9.849,9.849,0,0,0,3.023.007L3,0,2.981,0l-.676.1L1.411.251A4.878,4.878,0,0,1,.681.269C.263.246.006.19,0,.216Z" transform="translate(0)" fill="#eb996e"/>
          </g>
        </g>
      </g>
      <g id="Group_4183" data-name="Group 4183" transform="translate(6.493 44.103)">
        <g id="Group_4174" data-name="Group 4174" transform="translate(7.041 5.3)">
          <path id="Path_5460" data-name="Path 5460" d="M264.072,337.183l5.876-58.994.447-5.641,11.077-.6s3.871,6.031,4.055,9.722-6.926,14.793-6.926,14.793l-4.625,25.03-6.2,21.826Z" transform="translate(-264.072 -271.948)" fill="#fbfbfb" stroke="#707070" stroke-width="0.3"/>
        </g>
        <g id="Group_4180" data-name="Group 4180" transform="translate(18.716 7.705)">
          <g id="Group_4179" data-name="Group 4179">
            <path id="Path_5463" data-name="Path 5463" d="M301.76,279.566c.006.013-.079.062-.24.14a3.667,3.667,0,0,1-.715.255,5.065,5.065,0,0,1-1.119.157,5.48,5.48,0,0,1-2.677-.616,5.052,5.052,0,0,1-.937-.63,3.686,3.686,0,0,1-.532-.541c-.111-.141-.166-.223-.155-.232.029-.025.28.28.777.66a5.706,5.706,0,0,0,.932.575,5.826,5.826,0,0,0,2.59.6,5.749,5.749,0,0,0,1.089-.109C301.386,279.7,301.746,279.532,301.76,279.566Z" transform="translate(-295.383 -278.099)" fill="#455a64"/>
          </g>
        </g>
        <g id="Group_12099" data-name="Group 12099" transform="translate(0 5.585) rotate(-8)">
          <path id="Path_5460-2" data-name="Path 5460" d="M0,69.415,11.663,7.326,12.126,0l8.429.141s3.871,6.032,4.055,9.722S14.534,39.382,14.534,39.382L10.514,51.752,5.632,68.272Z" transform="matrix(0.985, -0.174, 0.174, 0.985, 3.839, 4.274)" fill="#fcfdff" stroke="#707070" stroke-width="0.3"/>
          <line id="Line_298" data-name="Line 298" x1="5.628" y2="57.252" transform="translate(17.317 12.177)" fill="none" stroke="#707070" stroke-width="0.3"/>
          <path id="Path_9411" data-name="Path 9411" d="M0,50.676,6.548,33.623l5.1-17.364L13.361,0" transform="translate(0 14.626)" fill="none" stroke="#707070" stroke-width="0.3"/>
        </g>
      </g>
      <g id="Group_4205" data-name="Group 4205" transform="translate(1.059 19.758)">
        <g id="Group_4184" data-name="Group 4184" transform="matrix(0.899, 0.438, -0.438, 0.899, 6.7, 0)">
          <path id="Path_5465" data-name="Path 5465" d="M21.09,0l-5.5,11.472L3.654,3.79,0,5.572l13.1,9.711,5.626-.087,4.8-9.461Z" transform="translate(0 0)" fill="#bdbec9"/>
        </g>
        <g id="Group_4185" data-name="Group 4185" transform="translate(15.147 1.863)">
          <path id="Path_5466" data-name="Path 5466" d="M265.924,214.513l3.445,15.977,13.984-1.2a10.24,10.24,0,0,1-.913-8.236c1.386-4.926,6.455-11.467,6.455-11.467A6.958,6.958,0,0,0,281.817,204l-1-2.338-7.371.618-.88,2.144s-6.066.434-5.922,5.941Z" transform="translate(-265.924 -201.662)" fill="#bdbec9"/>
        </g>
        <g id="Group_4188" data-name="Group 4188" transform="translate(25.449 8.964)">
          <path id="Path_5468" data-name="Path 5468" d="M295.6,220.417c.392.354,5.6,9.272,5.6,9.272l-8.31,1.815-.283,4.1,8.168,1.184,3.673.391a4.725,4.725,0,0,0,4.259-1.836h0a4.724,4.724,0,0,0,.583-4.72l-4.242-10.8Z" transform="translate(-292.601 -219.818)" fill="#bdbec9"/>
        </g>
        <g id="Group_4190" data-name="Group 4190" transform="translate(25.733 18.8)">
          <g id="Group_4189" data-name="Group 4189">
            <path id="Path_5469" data-name="Path 5469" d="M303.923,244.973c.01.056-2.355.514-5.281,1.023s-5.307.878-5.317.822,2.355-.513,5.282-1.023S303.913,244.918,303.923,244.973Z" transform="translate(-293.325 -244.968)" fill="#6d547c"/>
          </g>
        </g>
        <g id="Group_4192" data-name="Group 4192" transform="translate(30.611 7.572)">
          <g id="Group_4191" data-name="Group 4191">
            <path id="Path_5470" data-name="Path 5470" d="M309.551,227.823a2.354,2.354,0,0,1-.223-.444l-.537-1.24c-.445-1.051-1.046-2.507-1.7-4.119l-.911-2.279a4.115,4.115,0,0,1-.361-1.989,2.03,2.03,0,0,1,.6-1.223,1.458,1.458,0,0,1,.3-.22c.077-.038.118-.054.121-.048s-.154.093-.367.323a2.035,2.035,0,0,0-.512,1.185,4.11,4.11,0,0,0,.393,1.9l.925,2.271c.653,1.613,1.233,3.078,1.643,4.142l.477,1.264A2.342,2.342,0,0,1,309.551,227.823Z" transform="translate(-305.798 -216.259)" fill="#6d547c"/>
          </g>
        </g>
        <g id="Group_4194" data-name="Group 4194" transform="translate(25.449 24.742)">
          <g id="Group_4193" data-name="Group 4193">
            <path id="Path_5471" data-name="Path 5471" d="M305.775,261.77a2.6,2.6,0,0,1-.523.02c-.337,0-.823-.014-1.424-.044-1.2-.063-2.859-.213-4.677-.467s-3.455-.534-4.639-.74l-1.4-.254a2.61,2.61,0,0,1-.51-.118,2.546,2.546,0,0,1,.522.04c.334.039.816.1,1.411.19,1.19.17,2.829.431,4.644.681s3.463.426,4.659.525l1.418.108A2.572,2.572,0,0,1,305.775,261.77Z" transform="translate(-292.601 -260.162)" fill="#6d547c"/>
          </g>
        </g>
        <g id="Group_4196" data-name="Group 4196" transform="translate(16.131 11.2)">
          <g id="Group_4195" data-name="Group 4195">
            <path id="Path_5472" data-name="Path 5472" d="M269.6,235.156a5.2,5.2,0,0,0-.219-1.486c-.127-.449-.334-.969-.489-1.581a3.1,3.1,0,0,1-.109-.994,4.121,4.121,0,0,1,.223-1.047,16.607,16.607,0,0,1,1.763-3.24l.6-.935a1.673,1.673,0,0,1,.232-.338,1.513,1.513,0,0,1-.163.377c-.121.235-.308.567-.55.971a19.821,19.821,0,0,0-1.693,3.23,4.061,4.061,0,0,0-.216.994,2.988,2.988,0,0,0,.093.937c.14.6.334,1.126.445,1.587a3.956,3.956,0,0,1,.144,1.115,1.708,1.708,0,0,1-.033.3C269.616,235.121,269.606,235.156,269.6,235.156Z" transform="translate(-268.776 -225.534)" fill="#6d547c"/>
          </g>
        </g>
        <g id="Group_4198" data-name="Group 4198" transform="translate(23.746 2.393)">
          <g id="Group_4197" data-name="Group 4197">
            <path id="Path_5473" data-name="Path 5473" d="M288.3,205.554a7.968,7.968,0,0,1,.151-2.538,8,8,0,0,1-.151,2.538Z" transform="translate(-288.245 -203.016)" fill="#6d547c"/>
          </g>
        </g>
        <g id="Group_4200" data-name="Group 4200" transform="translate(26.111 2.196)">
          <g id="Group_4199" data-name="Group 4199">
            <path id="Path_5474" data-name="Path 5474" d="M294.713,205a7.852,7.852,0,0,1-.4-2.489,7.852,7.852,0,0,1,.4,2.489Z" transform="translate(-294.292 -202.513)" fill="#6d547c"/>
          </g>
        </g>
        <g id="Group_4202" data-name="Group 4202" transform="translate(28.277 2.18)">
          <g id="Group_4201" data-name="Group 4201">
            <path id="Path_5475" data-name="Path 5475" d="M300.45,204.525a5.657,5.657,0,0,1-.6-2.054,5.679,5.679,0,0,1,.6,2.054Z" transform="translate(-299.832 -202.471)" fill="#6d547c"/>
          </g>
        </g>
      </g>
      <g id="Group_4228" data-name="Group 4228" transform="translate(0 35.212)">
        <g id="Group_4221" data-name="Group 4221">
          <g id="Group_4206" data-name="Group 4206" transform="translate(0 0.29)">
            <path id="Path_5477" data-name="Path 5477" d="M230.925,237.035l4.02,3.875,6.483,6.25,11.153-.557-9.028-10.2Z" transform="translate(-230.925 -236.405)" fill="#263238"/>
          </g>
          <g id="Group_4207" data-name="Group 4207" transform="translate(0.484 0.339)">
            <path id="Path_5478" data-name="Path 5478" d="M233.442,237s-2.914,1.291.051,3.53,7.03,3.071,7.652,4.69a2.724,2.724,0,0,1-.392,2.737l8.547-.375s2.536-2.188.645-4.143-6.859-4.772-7.436-5.532.809-1.373.809-1.373Z" transform="translate(-232.161 -236.531)" fill="#e0e0e0"/>
          </g>
          <g id="Group_4208" data-name="Group 4208" transform="translate(4.134)">
            <path id="Path_5479" data-name="Path 5479" d="M241.827,236.342l-.333-.393,4.61-.285v.476Z" transform="translate(-241.494 -235.664)" fill="#455a64"/>
          </g>
          <g id="Group_4210" data-name="Group 4210" transform="translate(2.189 1.97)">
            <g id="Group_4209" data-name="Group 4209">
              <path id="Path_5480" data-name="Path 5480" d="M244.412,240.712a5.445,5.445,0,0,1-1.146.175c-.712.075-1.7.159-2.789.22s-2.082.083-2.8.067a4.777,4.777,0,0,1-1.158-.1,10.5,10.5,0,0,1,1.157-.046c.713-.021,1.7-.066,2.788-.126l2.789-.16A7.988,7.988,0,0,1,244.412,240.712Z" transform="translate(-236.521 -240.701)" fill="#fafafa"/>
            </g>
          </g>
          <g id="Group_4212" data-name="Group 4212" transform="translate(3.509 3.249)">
            <g id="Group_4211" data-name="Group 4211">
              <path id="Path_5481" data-name="Path 5481" d="M247.375,244a68.892,68.892,0,0,1-7.479.354,68.9,68.9,0,0,1,7.479-.354Z" transform="translate(-239.896 -243.97)" fill="#fafafa"/>
            </g>
          </g>
          <g id="Group_4214" data-name="Group 4214" transform="translate(5.586 4.331)">
            <g id="Group_4213" data-name="Group 4213">
              <path id="Path_5482" data-name="Path 5482" d="M252.588,246.749a5.471,5.471,0,0,1-1.07.19c-.665.088-1.586.188-2.606.267s-1.946.122-2.616.138a5.458,5.458,0,0,1-1.087-.023,6.1,6.1,0,0,1,1.079-.121l2.608-.2,2.607-.207A6.1,6.1,0,0,1,252.588,246.749Z" transform="translate(-245.208 -246.737)" fill="#fafafa"/>
            </g>
          </g>
          <g id="Group_4216" data-name="Group 4216" transform="translate(7.9 5.785)">
            <g id="Group_4215" data-name="Group 4215">
              <path id="Path_5483" data-name="Path 5483" d="M257.533,250.475a50.8,50.8,0,0,1-6.408.51,50.783,50.783,0,0,1,6.408-.51Z" transform="translate(-251.125 -250.456)" fill="#fafafa"/>
            </g>
          </g>
          <g id="Group_4218" data-name="Group 4218" transform="translate(10.114 7.104)">
            <g id="Group_4217" data-name="Group 4217">
              <path id="Path_5484" data-name="Path 5484" d="M262.989,253.843a47.894,47.894,0,0,1-6.2.651,47.726,47.726,0,0,1,6.2-.651Z" transform="translate(-256.786 -253.827)" fill="#fafafa"/>
            </g>
          </g>
          <g id="Group_4220" data-name="Group 4220" transform="translate(10.883 8.959)">
            <g id="Group_4219" data-name="Group 4219">
              <path id="Path_5485" data-name="Path 5485" d="M265.126,258.589a4.029,4.029,0,0,1-.925.155c-.575.066-1.371.135-2.252.18s-1.681.056-2.26.047a4.083,4.083,0,0,1-.936-.061,4.546,4.546,0,0,1,.934-.083l2.252-.106,2.251-.12A4.55,4.55,0,0,1,265.126,258.589Z" transform="translate(-258.753 -258.572)" fill="#fafafa"/>
            </g>
          </g>
        </g>
        <g id="Group_4227" data-name="Group 4227" transform="translate(12.964 4.282)">
          <g id="Group_4222" data-name="Group 4222">
            <path id="Path_5486" data-name="Path 5486" d="M275.232,251.845l-2.117-.334-7.9.192s-.412-.119-.054-.345c.174-.11,3.077-.829,3.077-.829l-4.167.336a5.481,5.481,0,0,1,1.589-1.9,10.917,10.917,0,0,1,2.965-1.136l-1.264-.959s4.126-.539,4.655-.069,1.174,1.2,1.174,1.2l2.28-.021" transform="translate(-264.072 -246.611)" fill="#ffbe9d"/>
          </g>
          <g id="Group_4224" data-name="Group 4224" transform="translate(0.08 3.638)">
            <g id="Group_4223" data-name="Group 4223">
              <path id="Path_5487" data-name="Path 5487" d="M269.819,255.967c0,.059-1.246.1-2.773.245s-2.759.336-2.77.278a3.041,3.041,0,0,1,.794-.206c.5-.1,1.188-.2,1.957-.275s1.468-.1,1.973-.1A3.012,3.012,0,0,1,269.819,255.967Z" transform="translate(-264.276 -255.913)" fill="#eb996e"/>
            </g>
          </g>
          <g id="Group_4226" data-name="Group 4226" transform="translate(0.612 2.647)">
            <g id="Group_4225" data-name="Group 4225">
              <path id="Path_5488" data-name="Path 5488" d="M270.406,253.394a28.619,28.619,0,0,1-4.77.676,28.525,28.525,0,0,1,4.77-.676Z" transform="translate(-265.636 -253.379)" fill="#eb996e"/>
            </g>
          </g>
        </g>
      </g>
      <g id="Group_12100" data-name="Group 12100" transform="matrix(0.914, 0.407, -0.407, 0.914, 31.715, 113.134)">
        <g id="Group_4143" data-name="Group 4143" transform="translate(0 0)">
          <g id="Group_4136" data-name="Group 4136" transform="translate(0 0)">
            <g id="Group_4118" data-name="Group 4118" transform="translate(0.044 0)">
              <g id="Group_4117" data-name="Group 4117" transform="translate(0 0)">
                <path id="Path_5441" data-name="Path 5441" d="M1.13,2.725l3.5,6.086s-5.1,5.389-4.6,6.575L12.091,9.439,5.972,0Z" fill="#e8505b"/>
              </g>
            </g>
            <g id="Group_4121" data-name="Group 4121" transform="translate(7.725 6.441)">
              <g id="Group_4120" data-name="Group 4120" transform="translate(0 0)">
                <g id="Group_4119" data-name="Group 4119">
                  <path id="Path_5442" data-name="Path 5442" d="M.422.009A.549.549,0,0,1,1.04.4a.528.528,0,0,1-.385.616A.579.579,0,0,1,0,.6.548.548,0,0,1,.475,0" fill="#e0e0e0"/>
                </g>
              </g>
            </g>
            <g id="Group_4123" data-name="Group 4123" transform="translate(0 8.478)" opacity="0.6">
              <g id="Group_4122" data-name="Group 4122" transform="translate(0 0)">
                <path id="Path_5443" data-name="Path 5443" d="M12.134.961,11.619,0,.252,6.061s-.422.5-.174.847Z" transform="translate(0 0)" fill="#fff"/>
              </g>
            </g>
            <g id="Group_4126" data-name="Group 4126" transform="translate(4.448 8.597)">
              <g id="Group_4125" data-name="Group 4125" transform="translate(0 0)">
                <g id="Group_4124" data-name="Group 4124">
                  <path id="Path_5444" data-name="Path 5444" d="M0,.249C.034.306.342.188.725.234s.659.217.7.167S1.214.055.749.007-.036.2,0,.249Z" fill="#263238"/>
                </g>
              </g>
            </g>
            <g id="Group_4129" data-name="Group 4129" transform="translate(3.443 9.883)">
              <g id="Group_4128" data-name="Group 4128" transform="translate(0 0)">
                <g id="Group_4127" data-name="Group 4127">
                  <path id="Path_5445" data-name="Path 5445" d="M0,.109C.016.173.321.147.643.3s.51.385.568.354S1.141.268.737.089-.025.052,0,.109Z" fill="#263238"/>
                </g>
              </g>
            </g>
            <g id="Group_4132" data-name="Group 4132" transform="translate(2.509 11.048)">
              <g id="Group_4131" data-name="Group 4131" transform="translate(0 0)">
                <g id="Group_4130" data-name="Group 4130">
                  <path id="Path_5446" data-name="Path 5446" d="M.964.812C1.023.8.96.464.65.216S0-.025,0,.037s.255.15.506.357S.9.835.964.812Z" fill="#263238"/>
                </g>
              </g>
            </g>
            <g id="Group_4135" data-name="Group 4135" transform="translate(3.848 6.749)">
              <g id="Group_4134" data-name="Group 4134" transform="translate(0 0)">
                <g id="Group_4133" data-name="Group 4133">
                  <path id="Path_5447" data-name="Path 5447" d="M.009.624C.06.665.29.451.634.309s.655-.165.661-.23S.948-.073.545.1-.043.592.009.624Z" fill="#263238"/>
                </g>
              </g>
            </g>
          </g>
          <g id="Group_4139" data-name="Group 4139" transform="translate(3.215 4.367)">
            <g id="Group_4138" data-name="Group 4138" transform="translate(0 0)">
              <g id="Group_4137" data-name="Group 4137">
                <path id="Path_5448" data-name="Path 5448" d="M0,1.763a1.264,1.264,0,0,0,.6-.3A3.02,3.02,0,0,0,1.139.956,3.18,3.18,0,0,0,1.4.6.833.833,0,0,0,1.507.369.285.285,0,0,0,1.38.042.36.36,0,0,0,1.056.035.879.879,0,0,0,.845.178,2.455,2.455,0,0,0,.533.492a2.383,2.383,0,0,0-.377.64A1.123,1.123,0,0,0,.043,1.8C.08,1.8.125,1.553.3,1.2A2.687,2.687,0,0,1,.693.629,2.5,2.5,0,0,1,.986.351c.111-.1.219-.151.28-.11.023.016.029.023.02.074A.68.68,0,0,1,1.2.485,3.51,3.51,0,0,1,.975.824,3.734,3.734,0,0,1,.5,1.336C.2,1.6-.016,1.731,0,1.763Z" fill="#263238"/>
              </g>
            </g>
          </g>
          <g id="Group_4142" data-name="Group 4142" transform="translate(1.758 4.458)">
            <g id="Group_4141" data-name="Group 4141" transform="translate(0 0)">
              <g id="Group_4140" data-name="Group 4140">
                <path id="Path_5449" data-name="Path 5449" d="M1.577,1.718a1.076,1.076,0,0,0-.129-.662A2.185,2.185,0,0,0,1.04.436,2.2,2.2,0,0,0,.7.145.556.556,0,0,0,.169.03.314.314,0,0,0,0,.323.922.922,0,0,0,.047.575a1.5,1.5,0,0,0,.2.407,1.549,1.549,0,0,0,.566.5.864.864,0,0,0,.665.123,5.488,5.488,0,0,1-.585-.263A1.554,1.554,0,0,1,.423.865,1.372,1.372,0,0,1,.262.511C.217.374.215.247.269.236A.386.386,0,0,1,.578.33,2.242,2.242,0,0,1,.889.583a2.43,2.43,0,0,1,.414.545C1.494,1.473,1.54,1.725,1.577,1.718Z" fill="#263238"/>
              </g>
            </g>
          </g>
        </g>
      </g>
      <g id="Group_12101" data-name="Group 12101" transform="matrix(0.914, 0.407, -0.407, 0.914, 31.714, 113.134)">
        <g id="Group_4143-2" data-name="Group 4143" transform="translate(0 0)">
          <g id="Group_4136-2" data-name="Group 4136" transform="translate(0 0)">
            <g id="Group_4118-2" data-name="Group 4118" transform="translate(0.044 0)">
              <g id="Group_4117-2" data-name="Group 4117" transform="translate(0 0)">
                <path id="Path_5441-2" data-name="Path 5441" d="M1.13,2.725l3.5,6.086s-5.1,5.389-4.6,6.575L12.091,9.439,5.972,0Z" fill="#ee6a21"/>
              </g>
            </g>
            <g id="Group_4121-2" data-name="Group 4121" transform="translate(7.725 6.441)">
              <g id="Group_4120-2" data-name="Group 4120" transform="translate(0 0)">
                <g id="Group_4119-2" data-name="Group 4119">
                  <path id="Path_5442-2" data-name="Path 5442" d="M.422.009A.549.549,0,0,1,1.04.4a.528.528,0,0,1-.385.616A.579.579,0,0,1,0,.6.548.548,0,0,1,.475,0" fill="#ee6a21"/>
                </g>
              </g>
            </g>
            <g id="Group_4123-2" data-name="Group 4123" transform="translate(0 8.478)" opacity="0.6">
              <g id="Group_4122-2" data-name="Group 4122" transform="translate(0 0)">
                <path id="Path_5443-2" data-name="Path 5443" d="M12.134.961,11.619,0,.252,6.061s-.422.5-.174.847Z" transform="translate(0 0)" fill="#ee6a21"/>
              </g>
            </g>
            <g id="Group_4126-2" data-name="Group 4126" transform="translate(4.448 8.597)">
              <g id="Group_4125-2" data-name="Group 4125" transform="translate(0 0)">
                <g id="Group_4124-2" data-name="Group 4124">
                  <path id="Path_5444-2" data-name="Path 5444" d="M0,.249C.034.306.342.188.725.234s.659.217.7.167S1.214.055.749.007-.036.2,0,.249Z" fill="#263238"/>
                </g>
              </g>
            </g>
            <g id="Group_4129-2" data-name="Group 4129" transform="translate(3.443 9.883)">
              <g id="Group_4128-2" data-name="Group 4128" transform="translate(0 0)">
                <g id="Group_4127-2" data-name="Group 4127">
                  <path id="Path_5445-2" data-name="Path 5445" d="M0,.109C.016.173.321.147.643.3s.51.385.568.354S1.141.268.737.089-.025.052,0,.109Z" fill="#263238"/>
                </g>
              </g>
            </g>
            <g id="Group_4132-2" data-name="Group 4132" transform="translate(2.509 11.048)">
              <g id="Group_4131-2" data-name="Group 4131" transform="translate(0 0)">
                <g id="Group_4130-2" data-name="Group 4130">
                  <path id="Path_5446-2" data-name="Path 5446" d="M.964.812C1.023.8.96.464.65.216S0-.025,0,.037s.255.15.506.357S.9.835.964.812Z" fill="#263238"/>
                </g>
              </g>
            </g>
            <g id="Group_4135-2" data-name="Group 4135" transform="translate(3.848 6.749)">
              <g id="Group_4134-2" data-name="Group 4134" transform="translate(0 0)">
                <g id="Group_4133-2" data-name="Group 4133">
                  <path id="Path_5447-2" data-name="Path 5447" d="M.009.624C.06.665.29.451.634.309s.655-.165.661-.23S.948-.073.545.1-.043.592.009.624Z" fill="#ee6a21"/>
                </g>
              </g>
            </g>
          </g>
          <g id="Group_4139-2" data-name="Group 4139" transform="translate(3.215 4.367)">
            <g id="Group_4138-2" data-name="Group 4138" transform="translate(0 0)">
              <g id="Group_4137-2" data-name="Group 4137">
                <path id="Path_5448-2" data-name="Path 5448" d="M0,1.763a1.264,1.264,0,0,0,.6-.3A3.02,3.02,0,0,0,1.139.956,3.18,3.18,0,0,0,1.4.6.833.833,0,0,0,1.507.369.285.285,0,0,0,1.38.042.36.36,0,0,0,1.056.035.879.879,0,0,0,.845.178,2.455,2.455,0,0,0,.533.492a2.383,2.383,0,0,0-.377.64A1.123,1.123,0,0,0,.043,1.8C.08,1.8.125,1.553.3,1.2A2.687,2.687,0,0,1,.693.629,2.5,2.5,0,0,1,.986.351c.111-.1.219-.151.28-.11.023.016.029.023.02.074A.68.68,0,0,1,1.2.485,3.51,3.51,0,0,1,.975.824,3.734,3.734,0,0,1,.5,1.336C.2,1.6-.016,1.731,0,1.763Z" fill="#ee6a21"/>
              </g>
            </g>
          </g>
          <g id="Group_4142-2" data-name="Group 4142" transform="translate(1.758 4.458)">
            <g id="Group_4141-2" data-name="Group 4141" transform="translate(0 0)">
              <g id="Group_4140-2" data-name="Group 4140">
                <path id="Path_5449-2" data-name="Path 5449" d="M1.577,1.718a1.076,1.076,0,0,0-.129-.662A2.185,2.185,0,0,0,1.04.436,2.2,2.2,0,0,0,.7.145.556.556,0,0,0,.169.03.314.314,0,0,0,0,.323.922.922,0,0,0,.047.575a1.5,1.5,0,0,0,.2.407,1.549,1.549,0,0,0,.566.5.864.864,0,0,0,.665.123,5.488,5.488,0,0,1-.585-.263A1.554,1.554,0,0,1,.423.865,1.372,1.372,0,0,1,.262.511C.217.374.215.247.269.236A.386.386,0,0,1,.578.33,2.242,2.242,0,0,1,.889.583a2.43,2.43,0,0,1,.414.545C1.494,1.473,1.54,1.725,1.577,1.718Z" fill="#263238"/>
              </g>
            </g>
          </g>
        </g>
      </g>
      <g id="Group_12102" data-name="Group 12102" transform="matrix(0.695, 0.719, -0.719, 0.695, 14.486, 111.37)">
        <g id="Group_4143-3" data-name="Group 4143" transform="translate(0 0)">
          <g id="Group_4136-3" data-name="Group 4136" transform="translate(0 0)">
            <g id="Group_4118-3" data-name="Group 4118" transform="translate(0.044 0)">
              <g id="Group_4117-3" data-name="Group 4117" transform="translate(0 0)">
                <path id="Path_5441-3" data-name="Path 5441" d="M1.13,2.725l3.5,6.086s-5.1,5.389-4.6,6.575L12.091,9.439,5.972,0Z" fill="#ee6a21"/>
              </g>
            </g>
            <g id="Group_4121-3" data-name="Group 4121" transform="translate(7.725 6.441)">
              <g id="Group_4120-3" data-name="Group 4120" transform="translate(0 0)">
                <g id="Group_4119-3" data-name="Group 4119">
                  <path id="Path_5442-3" data-name="Path 5442" d="M.422.009A.549.549,0,0,1,1.04.4a.528.528,0,0,1-.385.616A.579.579,0,0,1,0,.6.548.548,0,0,1,.475,0" fill="#ee6a21"/>
                </g>
              </g>
            </g>
            <g id="Group_4123-3" data-name="Group 4123" transform="translate(0 8.478)" opacity="0.6">
              <g id="Group_4122-3" data-name="Group 4122" transform="translate(0 0)">
                <path id="Path_5443-3" data-name="Path 5443" d="M12.134.961,11.619,0,.252,6.061s-.422.5-.174.847Z" fill="#ee6a21"/>
              </g>
            </g>
            <g id="Group_4126-3" data-name="Group 4126" transform="translate(4.448 8.597)">
              <g id="Group_4125-3" data-name="Group 4125" transform="translate(0 0)">
                <g id="Group_4124-3" data-name="Group 4124">
                  <path id="Path_5444-3" data-name="Path 5444" d="M0,.249C.034.306.342.188.725.234s.659.217.7.167S1.214.055.749.007-.036.2,0,.249Z" fill="#263238"/>
                </g>
              </g>
            </g>
            <g id="Group_4129-3" data-name="Group 4129" transform="translate(3.443 9.883)">
              <g id="Group_4128-3" data-name="Group 4128" transform="translate(0 0)">
                <g id="Group_4127-3" data-name="Group 4127">
                  <path id="Path_5445-3" data-name="Path 5445" d="M0,.109C.016.173.321.147.643.3s.51.385.568.354S1.141.268.737.089-.025.052,0,.109Z" fill="#263238"/>
                </g>
              </g>
            </g>
            <g id="Group_4132-3" data-name="Group 4132" transform="translate(2.509 11.048)">
              <g id="Group_4131-3" data-name="Group 4131" transform="translate(0 0)">
                <g id="Group_4130-3" data-name="Group 4130">
                  <path id="Path_5446-3" data-name="Path 5446" d="M.964.812C1.023.8.96.464.65.216S0-.025,0,.037s.255.15.506.357S.9.835.964.812Z" fill="#263238"/>
                </g>
              </g>
            </g>
            <g id="Group_4135-3" data-name="Group 4135" transform="translate(3.848 6.749)">
              <g id="Group_4134-3" data-name="Group 4134" transform="translate(0 0)">
                <g id="Group_4133-3" data-name="Group 4133">
                  <path id="Path_5447-3" data-name="Path 5447" d="M.009.624C.06.665.29.451.634.309s.655-.165.661-.23S.948-.073.545.1-.043.592.009.624Z" fill="#ee6a21"/>
                </g>
              </g>
            </g>
          </g>
          <g id="Group_4139-3" data-name="Group 4139" transform="translate(3.215 4.367)">
            <g id="Group_4138-3" data-name="Group 4138" transform="translate(0 0)">
              <g id="Group_4137-3" data-name="Group 4137">
                <path id="Path_5448-3" data-name="Path 5448" d="M0,1.763a1.264,1.264,0,0,0,.6-.3A3.02,3.02,0,0,0,1.139.956,3.18,3.18,0,0,0,1.4.6.833.833,0,0,0,1.507.369.285.285,0,0,0,1.38.042.36.36,0,0,0,1.056.035.879.879,0,0,0,.845.178,2.455,2.455,0,0,0,.533.492a2.383,2.383,0,0,0-.377.64A1.123,1.123,0,0,0,.043,1.8C.08,1.8.125,1.553.3,1.2A2.687,2.687,0,0,1,.693.629,2.5,2.5,0,0,1,.986.351c.111-.1.219-.151.28-.11.023.016.029.023.02.074A.68.68,0,0,1,1.2.485,3.51,3.51,0,0,1,.975.824,3.734,3.734,0,0,1,.5,1.336C.2,1.6-.016,1.731,0,1.763Z" fill="#ee6a21"/>
              </g>
            </g>
          </g>
          <g id="Group_4142-3" data-name="Group 4142" transform="translate(1.758 4.458)">
            <g id="Group_4141-3" data-name="Group 4141" transform="translate(0 0)">
              <g id="Group_4140-3" data-name="Group 4140">
                <path id="Path_5449-3" data-name="Path 5449" d="M1.577,1.718a1.076,1.076,0,0,0-.129-.662A2.185,2.185,0,0,0,1.04.436,2.2,2.2,0,0,0,.7.145.556.556,0,0,0,.169.03.314.314,0,0,0,0,.323.922.922,0,0,0,.047.575a1.5,1.5,0,0,0,.2.407,1.549,1.549,0,0,0,.566.5.864.864,0,0,0,.665.123,5.488,5.488,0,0,1-.585-.263A1.554,1.554,0,0,1,.423.865,1.372,1.372,0,0,1,.262.511C.217.374.215.247.269.236A.386.386,0,0,1,.578.33,2.242,2.242,0,0,1,.889.583a2.43,2.43,0,0,1,.414.545C1.494,1.473,1.54,1.725,1.577,1.718Z" fill="#263238"/>
              </g>
            </g>
          </g>
        </g>
      </g>
    </g>
    <g id="Group_12814" data-name="Group 12814" transform="translate(-8030.766 -21467.037)">
      <g id="Group_12814-2" data-name="Group 12814" transform="translate(0 0)">
        <path id="Path_9304" data-name="Path 9304" d="M883.548,1564.9s-2.245,2.05-1.808,3.507,2.465,2.429,2.74,4.209,1.368,2.751,2.354,2.751h4.694s.728-1.254-1.027-1.63-2.414-2.471-2.3-4.411a34.291,34.291,0,0,0-.164-4.532l-3.724-.864Z" transform="translate(-881.684 -1439.007)" fill="#233862"/>
        <path id="Path_9305" data-name="Path 9305" d="M1040.637,1589.917s-.4,4.667.582,5.153l12.622-.026s0-1.456-2.032-1.78-5.587-1.51-6.19-4.154S1040.637,1589.917,1040.637,1589.917Z" transform="translate(-1011.218 -1458.723)" fill="#233862"/>
        <path id="Path_9306" data-name="Path 9306" d="M1016.6,1236.067s-.666,8.177-1.447,18.007c-1.064,13.352-2.344,29.754-2.469,32.869-.219,5.4-1.1,14.035-1.1,14.035s-2.081,2.05-6.245,1.185a139.244,139.244,0,0,1-4.772-25.355l-.05-.644c-.986-13.271-2.519-41.213-2.519-41.213Z" transform="translate(-976.521 -1170.775)" fill="#fff" stroke="#707070" stroke-width="0.2"/>
        <path id="Path_9307" data-name="Path 9307" d="M1016.574,1235.978s-.666,8.177-1.447,18.008l-14.588,22.713-.05-.645c-.986-13.27-2.519-41.213-2.519-41.213Z" transform="translate(-976.497 -1170.685)" fill="none"/>
        <path id="Path_9308" data-name="Path 9308" d="M926.958,1221.5s-12.007,30.793-19.892,44.711-10.355,17.8-10.355,17.8-4.519-1.782-4.931-3c0,0,3.017-26.868,8.31-33.424,2.985-3.693,6.492-14.809,6.647-18.693s1.068-11.569,1.068-11.569Z" transform="translate(-889.917 -1156.408)" fill="#fff" stroke="#707070" stroke-width="0.2"/>
        <path id="Path_9309" data-name="Path 9309" d="M996.77,955.687s8.125,3.916,12.8,2.463a11.044,11.044,0,0,0-3.168-2.535c.163-.938.288-1.754.36-2.445a22.56,22.56,0,0,0,.2-2.5l-3.139-2.466-2.969-2.356A11.957,11.957,0,0,1,996.77,955.687Z" transform="translate(-975.519 -935.059)" fill="#ffb27d"/>
        <path id="Path_9311" data-name="Path 9311" d="M974.38,1081.064c28.429-.058,5.242-30.838,5.242-30.838l-4.6-1.5a89.559,89.559,0,0,0-.535,10.415c0,1.363.027,2.77.08,4.147C974.875,1070.78,974.563,1077.294,974.38,1081.064Z" transform="translate(-957.263 -1018.941)" fill="#aa413e"/>
        <path id="Path_9312" data-name="Path 9312" d="M1018.6,958.788a10.763,10.763,0,0,0,5.959,4.786,22.617,22.617,0,0,0,.2-2.5l-3.139-2.465Z" transform="translate(-993.318 -945.463)" fill="#ed985f"/>
        <path id="Path_9313" data-name="Path 9313" d="M1018.773,915.67s-7.743,1.267-8.471-3.494-2.215-7.8,2.7-8.813,6.155.663,6.79,2.193S1020.769,915.218,1018.773,915.67Z" transform="translate(-985.906 -900.166)" fill="#ffb27d"/>
        <path id="Path_9314" data-name="Path 9314" d="M995.935,890.036c-.072-.081-.232-.146-.594-.166a1.463,1.463,0,0,1,.674-.185,1.818,1.818,0,0,1,1.206-1.606,1.086,1.086,0,0,0-.524.781c1-1.027,3.139-1.775,9.08-1.308,7.822.619,5.245,5.627,4.23,6.223s-3.56-1.04-5.448-.89-2.245,2.877-2.886,3.25-.388-.287-1.254-.678-.95,1.044-.7,1.977-.94,2.164-.94,2.164l-1.2-1.293c-1.2-1.293-2.336-6.779-1.789-7.941C995.832,890.247,995.885,890.141,995.935,890.036Z" transform="translate(-974.353 -887.41)" fill="#2c3a64"/>
        <path id="Path_9319" data-name="Path 9319" d="M973.6,1032.806c-.019.5,1.044,1.063,1.513,1.276a33.2,33.2,0,0,0,10.385,2.943c4.339.443,9.469-.532,11.232-.5a.726.726,0,0,0,.485-.2c.125-.089.216-5.316.125-11.892,0-.266,0-.532-.016-.8v-.089c-.037-2.571-.126-5.265-.253-7.958-.251-5.92-.72-11.633-1.512-14.783a16.022,16.022,0,0,0-5.074-7.975l-1.621-1.418a7.784,7.784,0,0,1-5.04-.6c-1.872-.9-3.888-1.878-4.211-1.631-2.45,1.79-4.105,5.813-4.986,10.954a56.845,56.845,0,0,0-.739,9.748c0,1.276.036,2.585.109,3.878a122.554,122.554,0,0,1-.253,16.641C973.673,1031.441,973.617,1032.238,973.6,1032.806Z" transform="translate(-957.127 -971.038)" fill="#1f2251"/>
        <path id="Path_9362" data-name="Path 9362" d="M0,.815S.406,4.772.853,5.52A16.949,16.949,0,0,0,4.011,9.13c.809.471-.495-3.15-.329-3.856s.667,1.293,1.023,1.333.266-1.745.279-2.4S3.246,1.945,2.63.557,0,.815,0,.815Z" transform="matrix(0.259, -0.966, 0.966, 0.259, 60.411, 53.98)" fill="#ffb27d"/>
        <path id="Path_9363" data-name="Path 9363" d="M15.191,0s-4.9,2.319-7.25,5.887C4.3,11.427.073,31.586,0,33.453S3.083,48.5,3.083,48.5s3.207-.212,4.033-1.83c0,0-.641-13.546-.235-14.416S20.249,14.088,18.79,10.4,15.191,0,15.191,0Z" transform="translate(14.186 49.241) rotate(-79)" fill="#1f2251"/>
        <path id="Path_9364" data-name="Path 9364" d="M.793,60.4,13.456,32.254,23.767,0" transform="translate(3.421 65.894)" fill="none" stroke="#707070" stroke-width="0.2"/>
        <path id="Path_9365" data-name="Path 9365" d="M0,0V26.148L2.033,49.953" transform="translate(30.237 81.648)" fill="none" stroke="#707070" stroke-width="0.2"/>
      </g>
    </g>
    <line id="Line_539" data-name="Line 539" y1="1" x2="160" transform="translate(-8045.677 -21331.676)" fill="none" stroke="#707070" stroke-width="0.2"/>
  </g>
</svg>
