<svg xmlns="http://www.w3.org/2000/svg" xmlns:xlink="http://www.w3.org/1999/xlink" width="48" height="48" viewBox="0 0 48 48">
  <defs>
    <filter id="Ellipse_1291" x="0" y="0" width="48" height="48" filterUnits="userSpaceOnUse">
      <feOffset input="SourceAlpha"/>
      <feGaussianBlur stdDeviation="3" result="blur"/>
      <feFlood flood-opacity="0.161"/>
      <feComposite operator="in" in2="blur"/>
      <feComposite in="SourceGraphic"/>
    </filter>
  </defs>
  <g id="Group_12408" data-name="Group 12408" transform="translate(-1234 -332)">
    <g transform="matrix(1, 0, 0, 1, 1234, 332)" filter="url(#Ellipse_1291)">
      <circle id="Ellipse_1291-2" data-name="Ellipse 1291" cx="15" cy="15" r="15" transform="translate(9 9)" fill="#fff"/>
    </g>
    <g id="attach" transform="translate(1250.926 348.474)">
      <g id="Group_7145" data-name="Group 7145">
        <path id="Path_7292" data-name="Path 7292" d="M28.357,4.48a.627.627,0,0,0-.887,0l-7.54,7.58a2.509,2.509,0,0,1-3.547-3.549L24.146.71a1.568,1.568,0,0,1,2.216,2.219L19.931,9.36h0a.627.627,0,0,1-.885-.888l3.1-3.1a.627.627,0,0,0-.887-.887l-3.1,3.1a1.881,1.881,0,0,0,2.661,2.661l0,0,6.428-6.428A2.822,2.822,0,1,0,23.258-.176l-7.763,7.8a3.763,3.763,0,0,0,5.323,5.321l7.541-7.582A.627.627,0,0,0,28.357,4.48Z" transform="translate(-14.394 1.002)" fill="#0f1f54"/>
      </g>
    </g>
  </g>
</svg>
