<svg xmlns="http://www.w3.org/2000/svg" xmlns:xlink="http://www.w3.org/1999/xlink" width="62" height="62" viewBox="0 0 62 62">
  <defs>
    <filter id="Path_13046" x="0" y="0" width="62" height="62" filterUnits="userSpaceOnUse">
      <feOffset input="SourceAlpha"/>
      <feGaussianBlur stdDeviation="3" result="blur"/>
      <feFlood flood-opacity="0.161"/>
      <feComposite operator="in" in2="blur"/>
      <feComposite in="SourceGraphic"/>
    </filter>
  </defs>
  <g id="Group_13562" data-name="Group 13562" transform="translate(-3799 -12613.365)">
    <g id="Group_13161" data-name="Group 13161" transform="translate(3807.29 12622.365)">
      <g transform="matrix(1, 0, 0, 1, -8.29, -9)" filter="url(#Path_13046)">
        <path id="Path_13046-2" data-name="Path 13046" d="M22,0A22,22,0,1,0,44,22,22,22,0,0,0,22,0Z" transform="translate(9 9)" fill="#0f1f54"/>
      </g>
    </g>
    <g id="domain_add_black_24dp" transform="translate(3818 12632.365)">
      <g id="Group_13269" data-name="Group 13269">
        <rect id="Rectangle_4104" data-name="Rectangle 4104" width="24" height="24" fill="none"/>
      </g>
      <g id="Group_13270" data-name="Group 13270">
        <path id="Path_13060" data-name="Path 13060" d="M12,7V3H2V21H16V19H12V17h2V15H12V13h2V11H12V9h8v6h2V7ZM6,19H4V17H6Zm0-4H4V13H6Zm0-4H4V9H6ZM6,7H4V5H6Zm4,12H8V17h2Zm0-4H8V13h2Zm0-4H8V9h2Zm0-4H8V5h2ZM24,19v2H22v2H20V21H18V19h2V17h2v2Zm-6-8H16v2h2Zm0,4H16v2h2Z" fill="#fff"/>
      </g>
    </g>
  </g>
</svg>
