<svg xmlns="http://www.w3.org/2000/svg" xmlns:xlink="http://www.w3.org/1999/xlink" width="63.419" height="62" viewBox="0 0 63.419 62">
  <defs>
    <filter id="Path_13046" x="0" y="0" width="63.419" height="62" filterUnits="userSpaceOnUse">
      <feOffset input="SourceAlpha"/>
      <feGaussianBlur stdDeviation="3" result="blur"/>
      <feFlood flood-opacity="0.161"/>
      <feComposite operator="in" in2="blur"/>
      <feComposite in="SourceGraphic"/>
    </filter>
  </defs>
  <g id="Group_13561" data-name="Group 13561" transform="translate(-3909 -12613.365)">
    <g id="Group_11774" data-name="Group 11774" transform="translate(3918 12622.365)">
      <g transform="matrix(1, 0, 0, 1, -9, -9)" filter="url(#Path_13046)">
        <path id="Path_13046-2" data-name="Path 13046" d="M22.71,0C10.167,0,0,9.85,0,22S10.167,44,22.71,44s22.71-9.85,22.71-22S35.252,0,22.71,0Z" transform="translate(9 9)" fill="#0f1f54"/>
      </g>
    </g>
    <g id="dashboard_black_24dp" transform="translate(3928.055 12632.211)">
      <path id="Path_13069" data-name="Path 13069" d="M0,0H24V24H0Z" fill="none"/>
      <path id="Path_13070" data-name="Path 13070" d="M19,5V7H15V5h4M9,5v6H5V5H9m10,8v6H15V13h4M9,17v2H5V17H9M21,3H13V9h8ZM11,3H3V13h8Zm10,8H13V21h8ZM11,15H3v6h8Z" fill="#fff"/>
    </g>
  </g>
</svg>
