<svg xmlns="http://www.w3.org/2000/svg" xmlns:xlink="http://www.w3.org/1999/xlink" width="63.419" height="62" viewBox="0 0 63.419 62">
  <defs>
    <filter id="Path_13046" x="0" y="0" width="63.419" height="62" filterUnits="userSpaceOnUse">
      <feOffset input="SourceAlpha"/>
      <feGaussianBlur stdDeviation="3" result="blur"/>
      <feFlood flood-opacity="0.161"/>
      <feComposite operator="in" in2="blur"/>
      <feComposite in="SourceGraphic"/>
    </filter>
  </defs>
  <g id="Group_11774" data-name="Group 11774" transform="translate(9 9)">
    <g transform="matrix(1, 0, 0, 1, -9, -9)" filter="url(#Path_13046)">
      <path id="Path_13046-2" data-name="Path 13046" d="M22.71,0C10.167,0,0,9.85,0,22S10.167,44,22.71,44s22.71-9.85,22.71-22S35.252,0,22.71,0Z" transform="translate(9 9)" fill="#0f1f54"/>
    </g>
    <g id="category_black_24dp" transform="translate(13.503 12.548)">
      <path id="Path_13024" data-name="Path 13024" d="M20.069,0H0V20.069H20.069Z" transform="translate(-0.41 -0.164)" fill="rgba(0,0,0,0)"/>
      <circle id="Ellipse_3082" data-name="Ellipse 3082" cx="3.345" cy="3.345" r="3.345" transform="translate(-2.5 11.543)" fill="#fff"/>
      <circle id="Ellipse_3089" data-name="Ellipse 3089" cx="3.345" cy="3.345" r="3.345" transform="translate(5.862 11.543)" fill="#fff"/>
      <ellipse id="Ellipse_3090" data-name="Ellipse 3090" cx="3.763" cy="3.763" rx="3.763" ry="3.763" transform="translate(5.862 -1)" fill="#fff"/>
      <circle id="Ellipse_3091" data-name="Ellipse 3091" cx="3.345" cy="3.345" r="3.345" transform="translate(14.224 11.543)" fill="#fff"/>
      <path id="Path_13048" data-name="Path 13048" d="M-.436,1.8V-.438L7.914-2.675V1.8L16.32-.438V1.8" transform="translate(1.669 9.891)" fill="none" stroke="#fff" stroke-width="0.75"/>
    </g>
  </g>
</svg>
