<svg xmlns="http://www.w3.org/2000/svg" xmlns:xlink="http://www.w3.org/1999/xlink" width="62" height="62" viewBox="0 0 62 62">
  <defs>
    <filter id="Ellipse_1528" x="0" y="0" width="62" height="62" filterUnits="userSpaceOnUse">
      <feOffset input="SourceAlpha"/>
      <feGaussianBlur stdDeviation="3" result="blur"/>
      <feFlood flood-opacity="0.161"/>
      <feComposite operator="in" in2="blur"/>
      <feComposite in="SourceGraphic"/>
    </filter>
  </defs>
  <g id="Group_11775" data-name="Group 11775" transform="translate(9 9)">
    <g transform="matrix(1, 0, 0, 1, -9, -9)" filter="url(#Ellipse_1528)">
      <circle id="Ellipse_1528-2" data-name="Ellipse 1528" cx="22" cy="22" r="22" transform="translate(9 9)" fill="#0f1f54"/>
    </g>
    <g id="control_point_black_24dp" transform="translate(10.111 10)">
      <path id="Path_13027" data-name="Path 13027" d="M0,0H24V24H0Z" fill="none"/>
      <path id="Path_13028" data-name="Path 13028" d="M13,7H11v4H7v2h4v4h2V13h4V11H13ZM12,2A10,10,0,1,0,22,12,10.016,10.016,0,0,0,12,2Zm0,18a8,8,0,1,1,8-8A8.011,8.011,0,0,1,12,20Z" fill="#fff"/>
    </g>
  </g>
</svg>
