<svg xmlns="http://www.w3.org/2000/svg" xmlns:xlink="http://www.w3.org/1999/xlink" width="191.636" height="187.393" viewBox="0 0 191.636 187.393">
  <defs>
    <filter id="Path_11359" x="60.74" y="103.959" width="78.013" height="74.989" filterUnits="userSpaceOnUse">
      <feOffset dy="3" input="SourceAlpha"/>
      <feGaussianBlur stdDeviation="3" result="blur"/>
      <feFlood flood-opacity="0.161"/>
      <feComposite operator="in" in2="blur"/>
      <feComposite in="SourceGraphic"/>
    </filter>
    <filter id="Path_11359-2" x="60.74" y="103.959" width="78.013" height="74.989" filterUnits="userSpaceOnUse">
      <feOffset dy="3" input="SourceAlpha"/>
      <feGaussianBlur stdDeviation="3" result="blur-2"/>
      <feFlood flood-opacity="0.161" result="color"/>
      <feComposite operator="out" in="SourceGraphic" in2="blur-2"/>
      <feComposite operator="in" in="color"/>
      <feComposite operator="in" in2="SourceGraphic"/>
    </filter>
  </defs>
  <g id="Layer_2" data-name="Layer 2" transform="translate(-0.857 -20.251)">
    <g id="vector" transform="translate(0 0)">
      <path id="Path_12919" data-name="Path 12919" d="M300.417,236.989c-12.371,13.287-45.254,7.291-74.414,1.484s-54.543-11.394-69.8-28.638c-15.206-17.2-20.291-46.112-12.745-72.195,7.49-26.121,27.664-49.425,55.335-62.646,27.671-13.262,62.845-16.438,80.392-.776,17.586,15.6,17.5,50.039,21.523,83.5C304.69,191.172,312.829,223.7,300.417,236.989Z" transform="translate(-114.537 -43.457)" fill="#f2f2f2"/>
      <g id="Слой_1" data-name="Слой 1" transform="translate(77.413 146.982)">
        <g id="_1" data-name="1" transform="translate(0 0)">
          <g id="CHAIR">
            <rect id="Rectangle_3937" data-name="Rectangle 3937" width="41.261" height="8.842" rx="4.421" fill="#fff" stroke="#00043b" stroke-miterlimit="10" stroke-width="0.3"/>
            <path id="Path_11331" data-name="Path 11331" d="M99.878,943.931h0a.27.27,0,0,1-.273-.3l6.653-47.279h21.68L100.119,943.8A.278.278,0,0,1,99.878,943.931Z" transform="translate(-97.21 -887.507)" fill="none" stroke="#00043b" stroke-miterlimit="10" stroke-width="0.3"/>
            <path id="Path_11332" data-name="Path 11332" d="M189.41,943.931h0a.268.268,0,0,0,.271-.306L181.92,896.35H160.24L189.173,943.8A.278.278,0,0,0,189.41,943.931Z" transform="translate(-151.081 -887.507)" fill="none" stroke="#00043b" stroke-miterlimit="10" stroke-width="0.3"/>
          </g>
        </g>
      </g>
      <g id="Layer_2-2" data-name="Layer 2" transform="translate(70.597 63.455)">
        <g id="Слой_1-2" data-name="Слой 1" transform="translate(0 0)">
          <g id="_1-2" data-name="1">
            <g id="CHARACTER">
              <g id="LEGS" transform="translate(0 66.755)">
                <path id="Path_11351" data-name="Path 11351" d="M210.216,1064.52c.963.55,3.025.611,3.392,2.023s-1.651,7-1.329,8.978.292,6.189-2.979,6.645c-3.62.5-6.37-.733-6.37-2.109s2.109-2.936,2.425-5.273,1.151-7.378,1.151-7.378Z" transform="translate(-179.572 -1008.746)" fill="#0f1f54"/>
                <path id="Path_11352" data-name="Path 11352" d="M226.12,1113.477a3.359,3.359,0,0,1,3.87,0" transform="translate(-200.093 -1051.548)" fill="none" stroke="#fff" stroke-linecap="round" stroke-linejoin="round" stroke-width="0.3"/>
                <path id="Path_11353" data-name="Path 11353" d="M223.12,1127.477a3.359,3.359,0,0,1,3.87,0" transform="translate(-197.438 -1063.936)" fill="none" stroke="#fff" stroke-linecap="round" stroke-linejoin="round" stroke-width="0.3"/>
                <path id="Path_11354" data-name="Path 11354" d="M220.12,1141.477a3.359,3.359,0,0,1,3.87,0" transform="translate(-194.784 -1076.325)" fill="none" stroke="#fff" stroke-linecap="round" stroke-linejoin="round" stroke-width="0.3"/>
                <path id="Path_11355" data-name="Path 11355" d="M342.994,1124.82c-.612.9-4.144,3.095-3.958,4.1s3.437,3.941,3.666,5.5-.091,3.9,1.283,4.583,8.661.733,9.853,0-.092-3.071-1.375-3.575-4.719-6.232-4.521-9.761Z" transform="translate(-300.006 -1062.105)" fill="#0f1f54"/>
                <path id="Path_11356" data-name="Path 11356" d="M399.82,1156.227a3.359,3.359,0,0,0-3.87,0" transform="translate(-350.375 -1089.377)" fill="none" stroke="#fff" stroke-linecap="round" stroke-linejoin="round" stroke-width="0.3"/>
                <path id="Path_11357" data-name="Path 11357" d="M404.82,1170.227a3.359,3.359,0,0,0-3.87,0" transform="translate(-354.8 -1101.765)" fill="none" stroke="#fff" stroke-linecap="round" stroke-linejoin="round" stroke-width="0.3"/>
                <path id="Path_11358" data-name="Path 11358" d="M410.82,1184.227a3.359,3.359,0,0,0-3.87,0" transform="translate(-360.109 -1114.154)" fill="none" stroke="#fff" stroke-linecap="round" stroke-linejoin="round" stroke-width="0.3"/>
                <g data-type="innerShadowGroup">
                  <g transform="matrix(1, 0, 0, 1, -69.74, -109.96)" filter="url(#Path_11359)">
                    <path id="Path_11359-3" data-name="Path 11359" d="M21.092,580.749S0,589.147,0,596.372c0,12.883,17.987,36.6,21.668,36.247s6.159-3.324,6.018-4.882-6.791-21.6-11.542-28.394c0,0,14.517-3.683,16.428-3.752s11.753,5.239,11.895,5.451a77.512,77.512,0,0,0-2.053,33.276c.425,2.62,8.354,3.186,9.133,2.125s9.553-38.02,8.354-40.994-11.28-11.111-17.372-14.354C38.138,578.758,21.092,580.749,21.092,580.749Z" transform="translate(69.74 -470)" fill="#fbfbfb"/>
                  </g>
                  <g transform="matrix(1, 0, 0, 1, -69.74, -109.96)" filter="url(#Path_11359-2)">
                    <path id="Path_11359-4" data-name="Path 11359" d="M21.092,580.749S0,589.147,0,596.372c0,12.883,17.987,36.6,21.668,36.247s6.159-3.324,6.018-4.882-6.791-21.6-11.542-28.394c0,0,14.517-3.683,16.428-3.752s11.753,5.239,11.895,5.451a77.512,77.512,0,0,0-2.053,33.276c.425,2.62,8.354,3.186,9.133,2.125s9.553-38.02,8.354-40.994-11.28-11.111-17.372-14.354C38.138,578.758,21.092,580.749,21.092,580.749Z" transform="translate(69.74 -470)" fill="#fff"/>
                  </g>
                </g>
                <path id="Path_11360" data-name="Path 11360" d="M379.316,1095.6c-.131.405-.754,2.312-1.178,3.322-.405.963-5.452.636-4.949-.851a11.777,11.777,0,0,0,.428-3.479A14.2,14.2,0,0,0,379.316,1095.6Z" transform="translate(-330.203 -1035.355)" fill="#c36f0b"/>
                <path id="Path_11361" data-name="Path 11361" d="M379.7,1065.62l1.41-3.359s-4.578.569-7.631-1.541l.115,3.766A13.693,13.693,0,0,0,379.7,1065.62Z" transform="translate(-330.492 -1005.383)" fill="#1f2151"/>
                <path id="Path_11362" data-name="Path 11362" d="M213.108,1030.09s1.669,3.459,2.081,3.963-1.879,3.07-3.711,2.887l-2.928-3.947S211.691,1032.406,213.108,1030.09Z" transform="translate(-184.545 -978.279)" fill="#c36f0b"/>
                <path id="Path_11363" data-name="Path 11363" d="M194.081,1003.73l1.179,3.034a8.2,8.2,0,0,1-4.9,3.018l-2.106-2.168A8.321,8.321,0,0,0,194.081,1003.73Z" transform="translate(-166.582 -954.953)" fill="#1f2151"/>
              </g>
              <g id="T-SHIRT" transform="translate(6.318 23.829)">
                <path id="Path_11364" data-name="Path 11364" d="M89.586,207.476c1.862,1.369,6.922,3.762,10.071,5.966,2.54,1.778,4.807,9.553,4.807,9.553a21.166,21.166,0,0,1-9.479,5.022,124.474,124.474,0,0,0-4.669,22.707s-10.894,4.029-20.726,0c0,0-3.962-22.424-4.457-22.56s-7.836-2.388-10.244-6c0,0,2.84-8.18,6.71-9.784,4.206-1.743,9.81-4.131,11.76-5.18C74.355,206.661,89.586,207.476,89.586,207.476Z" transform="translate(-54.89 -207.017)" fill="#bdbec9"/>
                <path id="Path_11365" data-name="Path 11365" d="M64.733,246.49l-8.257,11.14c-.09-.107-.176-.215-.256-.326l7.794-10.511Z" transform="translate(-56.067 -241.947)" fill="#bdbec9"/>
                <path id="Path_11366" data-name="Path 11366" d="M80.858,231.57,70.194,245.958c-.107-.082-.212-.163-.314-.246L80.124,231.89Z" transform="translate(-68.155 -228.744)" fill="#bdbec9"/>
                <path id="Path_11367" data-name="Path 11367" d="M99.019,215.59,86.085,233.036c-.115-.067-.23-.134-.345-.2L98.262,215.94h0Z" transform="translate(-82.189 -214.603)" fill="#bdbec9"/>
                <path id="Path_11368" data-name="Path 11368" d="M117.694,207.07l-14.427,19.459c-.122-.056-.244-.115-.367-.174l14.284-19.272C117.345,207.078,117.514,207.072,117.694,207.07Z" transform="translate(-97.374 -207.064)" fill="#bdbec9"/>
                <path id="Path_11369" data-name="Path 11369" d="M136.469,207.067,121.39,227.413l-.39-.151,14.978-20.2Z" transform="translate(-113.391 -207.055)" fill="#bdbec9"/>
                <path id="Path_11370" data-name="Path 11370" d="M155.928,207.6l-15.606,21.044c-.079-.024-.218-.067-.4-.127l15.518-20.931h0C155.6,207.593,155.761,207.6,155.928,207.6Z" transform="translate(-130.133 -207.524)" fill="#bdbec9"/>
                <path id="Path_11371" data-name="Path 11371" d="M166.722,208.425,149.2,232.063c-.038-.18-.075-.352-.115-.518l17.156-23.135Z" transform="translate(-138.239 -208.25)" fill="#bdbec9"/>
                <path id="Path_11372" data-name="Path 11372" d="M174.09,209.352,154.485,235.8c-.036-.178-.07-.355-.1-.527l19.23-25.939Z" transform="translate(-142.929 -209.064)" fill="#bdbec9"/>
                <path id="Path_11373" data-name="Path 11373" d="M181.2,210.443l-21.7,29.269c-.035-.177-.069-.356-.1-.532l21.323-28.761Z" transform="translate(-147.371 -210.028)" fill="#bdbec9"/>
                <path id="Path_11374" data-name="Path 11374" d="M187.655,216.5l-23.266,31.38c-.032-.178-.066-.357-.1-.535l23.02-31.053C187.421,216.358,187.536,216.427,187.655,216.5Z" transform="translate(-151.698 -215.223)" fill="#bdbec9"/>
                <path id="Path_11375" data-name="Path 11375" d="M193.888,226.2l-24.649,33.254c-.033-.177-.066-.356-.1-.536L193.536,226Q193.71,226.1,193.888,226.2Z" transform="translate(-155.99 -223.815)" fill="#bdbec9"/>
                <path id="Path_11376" data-name="Path 11376" d="M200.015,235.634,173.947,270.8c-.031-.176-.063-.356-.1-.538h0l25.814-34.818Z" transform="translate(-160.157 -232.168)" fill="#bdbec9"/>
                <path id="Path_11377" data-name="Path 11377" d="M206.12,245.2l-27.474,37.063c-.031-.171-.062-.345-.1-.54L205.773,245Z" transform="translate(-164.316 -240.628)" fill="#bdbec9"/>
                <path id="Path_11378" data-name="Path 11378" d="M213.734,255.084l-28.351,38.245-.383-.153,28.4-38.306Z" transform="translate(-170.024 -249.362)" fill="#bdbec9"/>
                <path id="Path_11379" data-name="Path 11379" d="M232.51,266.186l-27.877,37.593c-.138-.034-.275-.073-.413-.115l28-37.774C232.319,265.984,232.412,266.081,232.51,266.186Z" transform="translate(-187.032 -259.114)" fill="#bdbec9"/>
                <path id="Path_11380" data-name="Path 11380" d="M252.015,282.479l-26.792,36.142c-.147-.022-.3-.046-.443-.074L251.8,282.1C251.873,282.223,251.944,282.351,252.015,282.479Z" transform="translate(-205.225 -273.458)" fill="#bdbec9"/>
                <path id="Path_11381" data-name="Path 11381" d="M264.691,391.12c-.067.214-.185.6-.345,1.134h0l-17.133,23.115c-.158-.01-.314-.021-.473-.035Z" transform="translate(-224.658 -369.929)" fill="#bdbec9"/>
                <path id="Path_11382" data-name="Path 11382" d="M411.793,301.761l-7.067,9.533c-.2.056-.409.115-.616.161l7.5-10.115Q411.7,301.554,411.793,301.761Z" transform="translate(-363.914 -290.483)" fill="#bdbec9"/>
                <path id="Path_11383" data-name="Path 11383" d="M283.794,442.73c-.082.322-.162.656-.244,1h0l-12.867,17.357h0c-.167,0-.334.007-.5.008Z" transform="translate(-245.4 -415.599)" fill="#bdbec9"/>
                <path id="Path_11384" data-name="Path 11384" d="M441.274,322.77l-4.159,5.614c-.246.122-.5.243-.765.361l4.763-6.425C441.168,322.474,441.222,322.628,441.274,322.77Z" transform="translate(-392.443 -309.048)" fill="#bdbec9"/>
                <path id="Path_11385" data-name="Path 11385" d="M304.7,489.35q-.093.452-.185.921h0l-8.8,11.867c-.178.02-.357.039-.539.056Z" transform="translate(-267.522 -456.853)" fill="#bdbec9"/>
                <path id="Path_11386" data-name="Path 11386" d="M327.525,532.42c-.045.282-.091.565-.135.851l-4.815,6.492c-.188.037-.381.075-.575.115Z" transform="translate(-291.255 -494.965)" fill="#bdbec9"/>
              </g>
              <g id="HANDS" transform="translate(6.552 27.926)">
                <g id="RIGHT" transform="matrix(0.643, -0.766, 0.766, 0.643, 12.051, 27.519)">
                  <path id="Path_11387" data-name="Path 11387" d="M22.383,16.725c-.26,4.834-9.429,9.323-14.265,11.361-.16,1-.817,1.44-2.081,1.766C3.4,30.531,3.651,32.269,3.515,32.6,3.3,33.129.7,33.731.078,33.291c-.372-.264.678-3.574,1.275-4.738.372-.724,2.863-2.095,4.5-2.685,0,0,8.287-10.045,9.422-10.611,0,0-3.065-8.4-4.347-11.426-.183-.434-.33-.756-.426-.928,0,0,4.957-.052,8.072-2.733,0,0-.071-.626.344.53C20.165,4.183,22.647,11.786,22.383,16.725Z" transform="translate(33.194 0) rotate(83)" fill="#c36f0b"/>
                  <path id="Path_11388" data-name="Path 11388" d="M8.417,1.86c-.645.685-2.6,2.169-7.99,3.131C.243,4.558.1,4.235,0,4.063A24.468,24.468,0,0,0,7.72,0S8,.7,8.417,1.86Z" transform="translate(23.414 1.427)" fill="#b65a18"/>
                </g>
                <g id="LEFT" transform="translate(0 13.828) rotate(-34)">
                  <path id="Path_11389" data-name="Path 11389" d="M23.871,29.323a4.472,4.472,0,0,1-2.977-.576,4.036,4.036,0,0,0-2.522-2.864c-1.476-.468-2.145-.935-2.12-2.391C11.962,22.028.554,17.682.038,12.747-.308,9.456,1.841,0,1.841,0L6.613,7.408,8.3,11.263c1.89.717,8.773,9.17,9.846,10.5,2.236.433,4.632,1.988,4.911,2.826C23.35,25.464,24.59,29,23.871,29.323Z" transform="translate(0 0)" fill="#c36f0b"/>
                </g>
              </g>
              <g id="HEAD" transform="translate(22.588)">
                <path id="NECK" d="M227.273,152a7.99,7.99,0,0,0,4.339,6.791,58.454,58.454,0,0,0-8.206,7.468,50.532,50.532,0,0,0-8.017-7.75s3.961-3.114,3.961-6.508Z" transform="translate(-213.186 -134.504)" fill="#b65a18"/>
                <path id="HEAD-2" data-name="HEAD" d="M236.123,84.729a18.678,18.678,0,0,0-1.671,2.516c-.7,3.82-3.108,6.348-6.155,6.348-2.64,0-4.425-2.96-5.246-5.713h0a1.274,1.274,0,0,1-.048-.153,13.162,13.162,0,0,0-1.862-2.993.509.509,0,0,1,.153-.75c.677-.388,1.028-.106,1.212.262-.1-2.752.016-5.64,1.618-5.656,1.842-.017,7.966-.138,9.027.216.913.3,1.515,1.583,1.517,5.67.144-.46.489-.959,1.3-.493a.509.509,0,0,1,.153.745Z" transform="translate(-218.182 -69.514)" fill="#c36f0b"/>
                <g id="HAIR">
                  <path id="Path_11394" data-name="Path 11394" d="M215.282,10.2a27.941,27.941,0,0,0-2.66,5.075s.524-5.486-1.6-5.426c-1.009.028-3.04,1.442-5.166,1.212-1.766-.191-3.971-2.587-4.879-1.021a13.314,13.314,0,0,0-.391,5.023,15.116,15.116,0,0,0-2.279-5.116,3.5,3.5,0,0,1-2.017-3.568c.5-2.471,2.4-2.333,2.4-2.333,3.213.333,1.338-1.54,5.231-3.309s8.323-.094,8.7,2.037c.262,1.462,1.161.73,2.569,1.381C217.175,5.078,216.713,8.4,215.282,10.2Z" transform="translate(-196.241 0.007)" fill="#0f1f54"/>
                  <path id="Path_11395" data-name="Path 11395" d="M260.88,88.159c5.451.691,5.992-2.269,8.339-1.911" transform="translate(-253.44 -76.293)" fill="none" stroke="#ffb000" stroke-miterlimit="10" stroke-width="0.3"/>
                </g>
              </g>
            </g>
            <path id="Path_11776" data-name="Path 11776" d="M-38.735-96.965-56.48-132.328l27.071-9.06,22.581,10.494-6.771,37.7" transform="translate(62.074 214.604)" fill="none" stroke="#707070" stroke-width="0.3"/>
          </g>
        </g>
        <g id="LAPTOP" transform="translate(12.371 28.458)">
          <path id="Path_11391" data-name="Path 11391" d="M119.442,488.3H86.114L80.5,466.246a2.018,2.018,0,0,1,1.944-2.576h40.664a2.018,2.018,0,0,1,1.939,2.576Z" transform="translate(-80.426 -463.67)" fill="#fff" stroke="#6562cf" stroke-miterlimit="10" stroke-width="0.3"/>
          <path id="Path_11392" data-name="Path 11392" d="M127.273,496.2H95.966l-5.271-20.718c-.345-1.212-.589-2.647.671-2.647h40.507c1.26,0,1.02,1.438.671,2.647Z" transform="translate(-89.267 -471.776)" fill="#1f2251"/>
          <path id="Path_11393" data-name="Path 11393" d="M254.025,564.936h-3.811a.575.575,0,0,1-.557-.434l-.455-2.455a.265.265,0,0,1,.254-.337h5.326a.265.265,0,0,1,.254.337l-.457,2.458A.575.575,0,0,1,254.025,564.936Z" transform="translate(-229.767 -550.425)" fill="none" stroke="#fff" stroke-linejoin="round" stroke-width="0.3"/>
        </g>
      </g>
      <rect id="Rectangle_3989" data-name="Rectangle 3989" width="133.841" height="3.339" transform="translate(35.113 114.287)" fill="#f36d22"/>
      <line id="Line_535" data-name="Line 535" y1="86.136" transform="translate(46.316 117.519)" fill="none" stroke="#fd8369" stroke-linecap="round" stroke-linejoin="round" stroke-width="1"/>
      <line id="Line_536" data-name="Line 536" y1="86.136" transform="translate(68.831 117.519)" fill="none" stroke="#fd8369" stroke-linecap="round" stroke-linejoin="round" stroke-width="1"/>
      <line id="Line_537" data-name="Line 537" x2="22.515" transform="translate(46.316 126.763)" fill="none" stroke="#fd8369" stroke-linecap="round" stroke-linejoin="round" stroke-width="1"/>
      <line id="Line_538" data-name="Line 538" x2="22.515" transform="translate(46.316 197.828)" fill="none" stroke="#fd8369" stroke-linecap="round" stroke-linejoin="round" stroke-width="1"/>
      <line id="Line_539" data-name="Line 539" y1="86.136" transform="translate(135.239 117.519)" fill="none" stroke="#fd8369" stroke-linecap="round" stroke-linejoin="round" stroke-width="1"/>
      <line id="Line_540" data-name="Line 540" y1="86.136" transform="translate(157.754 117.519)" fill="none" stroke="#fd8369" stroke-linecap="round" stroke-linejoin="round" stroke-width="1"/>
      <line id="Line_541" data-name="Line 541" x2="22.515" transform="translate(135.239 126.763)" fill="none" stroke="#fd8369" stroke-linecap="round" stroke-linejoin="round" stroke-width="1"/>
      <line id="Line_542" data-name="Line 542" x2="22.515" transform="translate(135.239 197.828)" fill="none" stroke="#fd8369" stroke-linecap="round" stroke-linejoin="round" stroke-width="1"/>
      <path id="Path_13022" data-name="Path 13022" d="M0,0H1.113V16.134H0Z" transform="translate(69.484 37.93)" fill="#f9d5c1" stroke="#f9d5c1" stroke-width="1"/>
      <path id="Path_12927" data-name="Path 12927" d="M391.172,227.059V221.44a7.38,7.38,0,0,0-7.363-7.36h0a7.38,7.38,0,0,0-7.35,7.36v5.619Z" transform="translate(-313.775 -163.343)" fill="#f9d5c1"/>
      <path id="Path_12928" data-name="Path 12928" d="M401.057,265.2a2.245,2.245,0,0,1-4.487,0" transform="translate(-328.769 -201.484)" fill="#f36d22"/>
      <rect id="Rectangle_3991" data-name="Rectangle 3991" width="8.798" height="12.473" transform="translate(140.884 101.817)" fill="#f9d5c1"/>
      <path id="Path_12930" data-name="Path 12930" d="M628.07,395.176a3.352,3.352,0,1,1,0,6.7" transform="translate(-478.388 -290.567)" fill="#f2f2f2" stroke="#000" stroke-linecap="round" stroke-linejoin="round" stroke-width="1"/>
      <rect id="Rectangle_4051" data-name="Rectangle 4051" width="76.54" height="1.863" transform="translate(0.857 37)" fill="#f9d5c1"/>
    </g>
    <g id="Tree" transform="translate(149.629 146.603)">
      <path id="Path_207" data-name="Path 207" d="M1375.322,471.906h-9.139a.345.345,0,0,1-.345-.345l-.572-9.38a.345.345,0,0,1,.345-.345h10.283a.345.345,0,0,1,.345.345l-.572,9.38A.345.345,0,0,1,1375.322,471.906Z" transform="translate(-1353.308 -413.98)" fill="#00043b"/>
      <path id="Path_967" data-name="Path 967" d="M1395.588,210.574l-.146-.038c.027-.1,2.712-10.507,2.982-13.837.342-4.2-1.361-10.536-2.6-15.161-.41-1.525-.764-2.841-.957-3.773-1.091-5.257.213-12.174.226-12.244l.148.029c-.013.069-1.311,6.957-.227,12.185.193.927.546,2.242.955,3.765,1.246,4.635,2.953,10.983,2.609,15.212C1398.3,200.054,1395.615,210.469,1395.588,210.574Z" transform="translate(-1378.071 -162.36)" fill="#00043b"/>
      <path id="Path_968" data-name="Path 968" d="M1401,198.839c-.142-2.1,1.916-3.475,3.733-4.69a13.624,13.624,0,0,0,1.889-1.413,11.234,11.234,0,0,0,3.059-5.094l.147.031a11.392,11.392,0,0,1-3.1,5.171,13.718,13.718,0,0,1-1.911,1.431c-1.782,1.192-3.8,2.543-3.666,4.554Z" transform="translate(-1383.647 -181.145)" fill="#00043b"/>
      <path id="Path_969" data-name="Path 969" d="M1421.248,281.23l-.009,0a.038.038,0,0,1-.02-.046c.268-1.02,1.822-1.958,2.956-2.643.372-.225.694-.419.892-.571a6.95,6.95,0,0,0,2.015-3.055.03.03,0,0,1,.04-.022.039.039,0,0,1,.019.047,7.035,7.035,0,0,1-2.04,3.091c-.2.154-.523.349-.9.575-1.124.679-2.664,1.609-2.925,2.6A.032.032,0,0,1,1421.248,281.23Z" transform="translate(-1400.819 -248.478)" fill="#00043b"/>
      <path id="Path_211" data-name="Path 211" d="M1461.2,166.936a4.523,4.523,0,0,0-2.878,1.365,1.746,1.746,0,0,0-.414,1.865C1458.441,170.459,1461.309,167.951,1461.2,166.936Z" transform="translate(-1431.871 -163.559)" fill="#00043b"/>
      <path id="Path_212" data-name="Path 212" d="M1441.2,179.892a4.241,4.241,0,0,1-1.844-2.561,2,2,0,0,1,.536-1.96C1440.5,175.327,1441.788,178.973,1441.2,179.892Z" transform="translate(-1416.171 -170.724)" fill="#00043b"/>
      <path id="Path_213" data-name="Path 213" d="M1413.778,212.361a4.177,4.177,0,0,0,1.559-2.69,1.971,1.971,0,0,0-.717-1.869C1414.021,207.817,1413.115,211.517,1413.778,212.361Z" transform="translate(-1394.305 -198.263)" fill="#707070"/>
      <path id="Path_214" data-name="Path 214" d="M1433.913,309.207a4.543,4.543,0,0,0-1.525,3,2.107,2.107,0,0,0,.884,1.965C1433.918,314.116,1434.68,310.071,1433.913,309.207Z" transform="translate(-1410.299 -284.373)" fill="#00043b"/>
      <path id="Path_216" data-name="Path 216" d="M1455.607,286.031c-.155.355.672,1.832,1.245,2.344a1.412,1.412,0,0,0,1.386.323C1458.356,286.606,1456.258,286.174,1455.607,286.031Z" transform="translate(-1430.006 -264.693)" fill="#707070"/>
      <path id="Path_217" data-name="Path 217" d="M1465.478,237.594c-.269.278.037,1.982.422,2.68a1.531,1.531,0,0,0,1.236.823C1467.953,239.165,1466.062,237.972,1465.478,237.594Z" transform="translate(-1438.318 -223.562)" fill="#d2eced"/>
      <path id="Path_218" data-name="Path 218" d="M1285.99,299.043c.069.381,1.634,1.121,2.426,1.214a1.53,1.53,0,0,0,1.388-.528C1288.706,297.943,1286.637,298.788,1285.99,299.043Z" transform="translate(-1285.99 -275.383)" fill="#707070"/>
      <path id="Path_219" data-name="Path 219" d="M1318.524,332.646c.09.248,1.66.271,2.438.083a2.374,2.374,0,0,0,1.321-.821C1321.1,330.991,1319.139,332.257,1318.524,332.646Z" transform="translate(-1313.617 -303.373)" fill="#00043b"/>
      <path id="Path_220" data-name="Path 220" d="M1357.641,357.587c.09.263,1.908.192,2.821-.059a3.2,3.2,0,0,0,1.582-.969C1360.735,355.639,1358.379,357.128,1357.641,357.587Z" transform="translate(-1346.833 -324.333)" fill="#00043b"/>
      <path id="Path_222" data-name="Path 222" d="M1373.2,214.005a3.443,3.443,0,0,0,1.617,1.989,1.624,1.624,0,0,0,1.65,0C1376.632,215.523,1374.047,213.741,1373.2,214.005Z" transform="translate(-1360.047 -203.509)" fill="#707070"/>
      <path id="Path_223" data-name="Path 223" d="M1405.869,324.26a3.119,3.119,0,0,0,.838,2.012,1.172,1.172,0,0,0,1.25.339C1408.17,326.252,1406.559,324.213,1405.869,324.26Z" transform="translate(-1387.781 -297.155)" fill="#707070"/>
      <path id="Path_224" data-name="Path 224" d="M1379.6,184.443a2.711,2.711,0,0,0,1.071,1.707,1.278,1.278,0,0,0,1.288.154C1382.135,185.956,1380.288,184.318,1379.6,184.443Z" transform="translate(-1365.483 -178.423)" fill="#00043b"/>
      <path id="Path_225" data-name="Path 225" d="M1386.455,144.567a3.234,3.234,0,0,0,.566,2.339,1.524,1.524,0,0,0,1.4.663C1388.748,147.239,1387.278,144.684,1386.455,144.567Z" transform="translate(-1371.255 -144.567)" fill="#707070"/>
      <path id="Path_226" data-name="Path 226" d="M1437.216,226.81a4.522,4.522,0,0,0-1.967-2.505,1.746,1.746,0,0,0-1.911.008C1433.172,224.9,1436.25,227.144,1437.216,226.81Z" transform="translate(-1411.107 -212.042)" fill="#00043b"/>
      <path id="Path_227" data-name="Path 227" d="M1410.06,268.707a3.674,3.674,0,0,0-2.195,1.366,1.418,1.418,0,0,0-.162,1.543C1408.163,271.8,1410.244,269.516,1410.06,268.707Z" transform="translate(-1389.21 -249.982)" fill="#fac4a6"/>
      <path id="Path_229" data-name="Path 229" d="M1359.527,319.865a3.671,3.671,0,0,0-.888,2.428,1.417,1.417,0,0,0,.822,1.315C1359.939,323.472,1360.171,320.388,1359.527,319.865Z" transform="translate(-1347.68 -293.423)" fill="#707070"/>
      <path id="Path_230" data-name="Path 230" d="M1390.961,334.617a9.835,9.835,0,0,1,1.382,3.743c.085.914-.329,1.224-.724,1.145C1391.059,339.006,1390.316,334.859,1390.961,334.617Z" transform="translate(-1374.915 -305.95)" fill="#00043b"/>
      <path id="Path_231" data-name="Path 231" d="M1322.956,301.718a3.314,3.314,0,0,0,.651-2.243,1.282,1.282,0,0,0-.822-1.135C1322.363,298.492,1322.343,301.286,1322.956,301.718Z" transform="translate(-1316.976 -275.145)" fill="#00043b"/>
      <path id="Path_232" data-name="Path 232" d="M1303.939,281.968a3.594,3.594,0,0,0,.462-2.346,1.145,1.145,0,0,0-.893-1C1303.108,278.843,1303.306,281.636,1303.939,281.968Z" transform="translate(-1300.689 -258.401)" fill="#00043b"/>
      <path id="Path_233" data-name="Path 233" d="M1482.592,239.193a3.7,3.7,0,0,0-2.638.856,1.8,1.8,0,0,0-.651,1.684C1479.706,242.083,1482.521,240.159,1482.592,239.193Z" transform="translate(-1450.117 -224.89)" fill="#00043b"/>
      <path id="Path_235" data-name="Path 235" d="M1474.286,272.7a3.672,3.672,0,0,0,2.537-.5,1.416,1.416,0,0,0,.7-1.384C1477.16,270.487,1474.4,271.882,1474.286,272.7Z" transform="translate(-1445.884 -251.736)" fill="#d2eced"/>
      <path id="Path_236" data-name="Path 236" d="M1454.993,337.062a4.437,4.437,0,0,0-.648-3.057,1.3,1.3,0,0,0-1.53-.581C1452.414,333.87,1453.323,336.943,1454.993,337.062Z" transform="translate(-1427.572 -304.891)" fill="#d2eced"/>
      <path id="Path_237" data-name="Path 237" d="M1430.869,354.716c.114-.417-.549-1.433-1.627-2.053a3.224,3.224,0,0,0-2.176-.349C1426.647,352.628,1428.624,354.684,1430.869,354.716Z" transform="translate(-1405.739 -320.934)" fill="#707070"/>
      <path id="Path_238" data-name="Path 238" d="M1396.68,199.2a2.8,2.8,0,0,0-1.676,1.043,1.083,1.083,0,0,0-.124,1.178C1395.231,201.56,1396.821,199.814,1396.68,199.2Z" transform="translate(-1378.354 -190.956)" fill="#00043b"/>
      <path id="Path_239" data-name="Path 239" d="M1335.254,197.947a2.923,2.923,0,0,0-.812,1.891,1.128,1.128,0,0,0,.6,1.081C1335.423,200.832,1335.742,198.391,1335.254,197.947Z" transform="translate(-1327.133 -189.895)" fill="#fac4a6"/>
      <path id="Path_240" data-name="Path 240" d="M1346.145,215.156a3.538,3.538,0,0,0-2.118,1.235,1.292,1.292,0,0,0-.186,1.43C1344.275,218,1346.3,215.91,1346.145,215.156Z" transform="translate(-1334.998 -204.509)" fill="#00043b"/>
      <path id="Path_241" data-name="Path 241" d="M1330.594,238.338a3.539,3.539,0,0,0,1.86,1.6,1.292,1.292,0,0,0,1.412-.292C1333.894,239.174,1331.254,237.941,1330.594,238.338Z" transform="translate(-1323.866 -224.128)" fill="#00043b"/>
      <path id="Path_242" data-name="Path 242" d="M1334.441,275.626a3.54,3.54,0,0,0,2.431-.321,1.292,1.292,0,0,0,.724-1.248C1337.265,273.724,1334.585,274.869,1334.441,275.626Z" transform="translate(-1327.133 -254.475)" fill="#fac4a6"/>
      <path id="Path_243" data-name="Path 243" d="M1313.333,260.655a2.477,2.477,0,0,0,1.725.592,1.125,1.125,0,0,0,.979-.62C1315.955,260.286,1313.734,260.18,1313.333,260.655Z" transform="translate(-1309.209 -242.873)" fill="#00043b"/>
      <path id="Path_244" data-name="Path 244" d="M1300.346,249.341a2.477,2.477,0,0,0,1.725.592,1.125,1.125,0,0,0,.979-.62C1302.969,248.972,1300.747,248.866,1300.346,249.341Z" transform="translate(-1298.181 -233.265)" fill="#fac4a6"/>
      <path id="Path_245" data-name="Path 245" d="M1382.233,297.976a3.538,3.538,0,0,0,2.4.485,1.294,1.294,0,0,0,1.089-.945C1385.521,297.093,1382.615,297.307,1382.233,297.976Z" transform="translate(-1367.716 -274.26)" fill="#d2eced"/>
      <path id="Path_246" data-name="Path 246" d="M1321.763,213.22a2.5,2.5,0,0,0,1.421,1.142,1.1,1.1,0,0,0,1.116-.251C1324.333,213.762,1322.291,212.909,1321.763,213.22Z" transform="translate(-1316.367 -202.808)" fill="#00043b"/>
      <path id="Path_247" data-name="Path 247" d="M1368.968,249.136c.887-.191,1.088-1.058,1.148-1.865a1.538,1.538,0,0,0-.746-1.341C1368.947,246.015,1368.462,248.642,1368.968,249.136Z" transform="translate(-1356.268 -230.641)" fill="#fac4a6"/>
      <path id="Path_248" data-name="Path 248" d="M1348.273,259.8c.551-.483.353-1.174.078-1.767a1.243,1.243,0,0,0-1.054-.653C1347.032,257.609,1347.722,259.653,1348.273,259.8Z" transform="translate(-1338 -240.367)" fill="#00043b"/>
      <path id="Path_249" data-name="Path 249" d="M1316.737,239.157c.656-.47.514-1.248.277-1.928a1.369,1.369,0,0,0-1.083-.83C1315.616,236.617,1316.151,238.933,1316.737,239.157Z" transform="translate(-1311.335 -222.548)" fill="#00043b"/>
      <path id="Path_250" data-name="Path 250" d="M1389.54,267.395c.883-.258.823-1.2.634-2.064a2.267,2.267,0,0,0-1.214-1.389C1388.535,264.057,1388.848,266.9,1389.54,267.395Z" transform="translate(-1373.264 -245.935)" fill="#00043b"/>
      <path id="Path_251" data-name="Path 251" d="M1399.305,172.917a2.8,2.8,0,0,0-1.974.043,1.082,1.082,0,0,0-.707.95C1396.854,174.212,1399.111,173.52,1399.305,172.917Z" transform="translate(-1379.936 -168.507)" fill="#d2eced"/>
      <path id="Path_252" data-name="Path 252" d="M1401.34,157.923a2.8,2.8,0,0,0-1.974.043,1.082,1.082,0,0,0-.707.95C1398.889,159.218,1401.146,158.527,1401.34,157.923Z" transform="translate(-1381.664 -155.775)" fill="#00043b"/>
      <path id="Path_970" data-name="Path 970" d="M1463.085,263.588l-.07-.133c.8-.421,1.423-3.2,1.513-4.02.027-.243.039-.771.053-1.383a30.445,30.445,0,0,1,.192-3.378,12.666,12.666,0,0,1,.812-2.647l.138.06a12.505,12.505,0,0,0-.8,2.613,30.391,30.391,0,0,0-.19,3.356c-.015.641-.026,1.147-.054,1.4C1464.6,260.163,1463.979,263.116,1463.085,263.588Z" transform="translate(-1436.313 -235.817)" fill="#00043b"/>
      <path id="Path_971" data-name="Path 971" d="M1348.985,230.94a18.249,18.249,0,0,0-3.066-3.739c-.232-.2-.642-.51-1.162-.9a27.559,27.559,0,0,1-4.376-3.789,27.23,27.23,0,0,1-2.889-5.776l.142-.052a27.068,27.068,0,0,0,2.865,5.733,27.463,27.463,0,0,0,4.349,3.763c.522.392.935.7,1.171.907a18.074,18.074,0,0,1,3.114,3.82Z" transform="translate(-1329.724 -205.806)" fill="#00043b"/>
      <path id="Path_972" data-name="Path 972" d="M1325.971,254.626c-4.393,0-8.484-3.819-8.518-4.023a.075.075,0,0,1,.146-.037c.189.319,4.912,4.571,9.5,3.819a.075.075,0,0,1,.024.149A7.15,7.15,0,0,1,1325.971,254.626Z" transform="translate(-1312.707 -234.534)" fill="#00043b"/>
      <path id="Path_973" data-name="Path 973" d="M1323.946,312.607h.158c.52-1.851-2.247-1.224-3.8-2.708a39.28,39.28,0,0,0-6.2-3.873c-.72-.4-1.4-.775-1.917-1.076a15.8,15.8,0,0,1-5.151-4.857l.132-.073a15.633,15.633,0,0,0,5.1,4.8c.515.3,1.194.676,1.914,1.074a39.29,39.29,0,0,1,6.228,3.9C1321.88,311.2,1324.513,310.588,1323.946,312.607Z" transform="translate(-1303.866 -276.572)" fill="#00043b"/>
    </g>
  </g>
</svg>
