<svg xmlns="http://www.w3.org/2000/svg" width="57.772" height="60.545" viewBox="0 0 57.772 60.545">
    <g id="like" transform="translate(-.733)">
        <path id="Path_7852" fill="#6d547c" d="M56.6 29.586c-1.966-1.871-4.679-2.327-7.074-2.723-.377-.064-.749-.127-1.114-.193-.271-.072-.615-.149-.965-.233-3.192-.737-5.447-1.466-5.456-4.081a14.862 14.862 0 0 1 1.16-5.006 16.012 16.012 0 0 0 1.287-6.274c-.218-4.159-1.981-7.776-4.726-9.683A6.416 6.416 0 0 0 35.807 0a4.163 4.163 0 0 0-4.177 3.039 10.046 10.046 0 0 0-.284 3.907c.015.329.04.668.047 1.02a11.881 11.881 0 0 1-.683 4.81 26.642 26.642 0 0 1-4.743 7.579l-.914 1.145a36.531 36.531 0 0 1-4.1 4.622 5.719 5.719 0 0 1-2.537 1.012c-.286.019-17.681.191-17.681.191v25.569s13.643-.017 14.41-.062c.674-.04 1.323-.078 1.917-.078h.276c.562.119 1.13.18 1.722.246.526.055 1.071.115 1.642.223a4.767 4.767 0 0 1 1.949 1.358 10.687 10.687 0 0 0 1.1.946c.369.259.725.518 1.09.783a20.366 20.366 0 0 0 3.58 2.24 19.02 19.02 0 0 0 5.124 1.15c.84.112 1.674.212 2.473.373l1.427.163a37.382 37.382 0 0 0 4.155.314 13.017 13.017 0 0 0 2.552-.229 5.889 5.889 0 0 0 4.526-5.6 6.964 6.964 0 0 0 3.455-3.235 6.157 6.157 0 0 0 .691-4.055 7.426 7.426 0 0 0 3.3-7.827 5.7 5.7 0 0 0 2.276-3.828 7.21 7.21 0 0 0-1.8-6.19zm-1.8 5.122a2.037 2.037 0 0 1-1.648 1.977 1.84 1.84 0 0 0-1.285 1.088 2.435 2.435 0 0 0 .255 2.119 3.055 3.055 0 0 1 .244 2.526 3.549 3.549 0 0 1-2.42 2.325 1.674 1.674 0 0 0-1.279 1 1.694 1.694 0 0 0 .178 1.83 2.917 2.917 0 0 1-.2 2.605 1.888 1.888 0 0 1-1.483 1.2.96.96 0 0 1-.229-.028l-.085-.017h-.088a2.368 2.368 0 0 0-1.945.948 1.509 1.509 0 0 0-.108 1.446 2.459 2.459 0 0 1-.093 2.051 1.446 1.446 0 0 1-1.124.691 10.213 10.213 0 0 1-2.675.24c-2.594-.233-5.347-.484-8.005-.963l-1.268-.286c-.658-.148-1.309-.289-1.888-.435a20.9 20.9 0 0 1-3.044-2.053c-.342-.257-.675-.513-1-.749-.24-.191-.5-.437-.766-.687a6.075 6.075 0 0 0-2.382-1.614 4.693 4.693 0 0 0-2.605-.549c-2.479-.229-3.648-1.126-4.251-3.3a25.369 25.369 0 0 1-.581-6.851l.008-.484c.019-2.04.051-4.592 1.1-6.444.52-.884 1.557-1.071 2.759-1.3a8.9 8.9 0 0 0 4.191-1.756.9.9 0 0 0 .484-.433 6.622 6.622 0 0 0 1.275-1.287 61.626 61.626 0 0 0 5.2-6.41c.331-.492.664-.965.991-1.434a21.386 21.386 0 0 0 3.744-7.148 19.867 19.867 0 0 0 .322-5.86l-.015-.31c-.081-1.266-.1-2.628.613-2.728a1.134 1.134 0 0 1 .166-.015c1.158 0 2.62 1.461 3.489 2.813a10.58 10.58 0 0 1 1.33 5.146 16.9 16.9 0 0 1-1.183 4.989 15.845 15.845 0 0 0-1.245 6.339 7.758 7.758 0 0 0 6.073 6.615c.991.257 2.045.429 3.061.594a16.665 16.665 0 0 1 5.455 1.525 3.161 3.161 0 0 1 1.957 3.073z" data-name="Path 7852"/>
    </g>
</svg>
