<svg xmlns="http://www.w3.org/2000/svg" xmlns:xlink="http://www.w3.org/1999/xlink" width="169.966" height="51" viewBox="0 0 169.966 51">
  <defs>
    <filter id="Rectangle_4207" x="25.966" y="4.5" width="144" height="42" filterUnits="userSpaceOnUse">
      <feOffset dy="3" input="SourceAlpha"/>
      <feGaussianBlur stdDeviation="3" result="blur"/>
      <feFlood flood-opacity="0.161"/>
      <feComposite operator="in" in2="blur"/>
      <feComposite in="SourceGraphic"/>
    </filter>
    <filter id="Ellipse_3161" x="0" y="0" width="51" height="51" filterUnits="userSpaceOnUse">
      <feOffset dy="3" input="SourceAlpha"/>
      <feGaussianBlur stdDeviation="3" result="blur-2"/>
      <feFlood flood-opacity="0.161"/>
      <feComposite operator="in" in2="blur-2"/>
      <feComposite in="SourceGraphic"/>
    </filter>
  </defs>
  <g id="Group_13917" data-name="Group 13917" transform="translate(-2730.553 1903)">
    <g id="Group_13915" data-name="Group 13915" transform="translate(2382.284 -2521.005)">
      <g transform="matrix(1, 0, 0, 1, 348.27, 618)" filter="url(#Rectangle_4207)">
        <rect id="Rectangle_4207-2" data-name="Rectangle 4207" width="126" height="24" rx="6" transform="translate(34.97 10.5)" fill="#fff"/>
      </g>
      <text id="CENTRE_OF_THE_MAP" data-name="CENTRE OF THE MAP" transform="translate(391 645.005)" fill="#0f1f54" font-size="12" font-family="OpenSans-Semibold, Open Sans" font-weight="600" letter-spacing="0.02em"><tspan x="0" y="0">Centre Of The Map</tspan></text>
    </g>
    <g id="Group_13916" data-name="Group 13916" transform="translate(2739.866 -1896.749)">
      <g transform="matrix(1, 0, 0, 1, -9.31, -6.25)" filter="url(#Ellipse_3161)">
        <circle id="Ellipse_3161-2" data-name="Ellipse 3161" cx="16.5" cy="16.5" r="16.5" transform="translate(9 6)" fill="#fff"/>
      </g>
      <g id="Group_13792" data-name="Group 13792" transform="translate(4.418 4.486)">
        <path id="Path_13293" data-name="Path 13293" d="M12,2A7,7,0,0,0,5,9c0,5.25,7,13,7,13s7-7.75,7-13A7,7,0,0,0,12,2Z" fill="#ea6920"/>
        <circle id="Ellipse_3188" data-name="Ellipse 3188" cx="2.5" cy="2.5" r="2.5" transform="translate(9.5 6.5)" fill="#fff"/>
      </g>
    </g>
  </g>
</svg>
