<svg xmlns="http://www.w3.org/2000/svg" id="search_2_" width="25" height="25" data-name="search (2)" viewBox="0 0 25 25">
    <defs>
        <style>
            .cls-1{fill:#6d547c}
        </style>
    </defs>
    <g id="Group_9113" data-name="Group 9113">
        <g id="Group_9112" data-name="Group 9112">
            <path id="Path_7830" d="M15.478 0a9.518 9.518 0 0 0-8.1 14.517L.642 21.251a2.2 2.2 0 0 0 3.108 3.107l6.733-6.733A9.521 9.521 0 1 0 15.478 0zM2.714 23.323a.732.732 0 1 1-1.036-1.036l4.43-4.43 1.036 1.036zm5.465-5.465l-1.035-1.037 1.106-1.106a9.61 9.61 0 0 0 1.036 1.036zm7.3-.277a8.057 8.057 0 1 1 8.057-8.057 8.066 8.066 0 0 1-8.058 8.056z" class="cls-1" data-name="Path 7830" transform="translate(0 -.001)"/>
        </g>
    </g>
    <g id="Group_9115" data-name="Group 9115" transform="translate(10.351 2.93)">
        <g id="Group_9114" data-name="Group 9114">
            <path id="Path_7831" d="M219.3 64.885a2.93 2.93 0 1 0-4.363 0 5.134 5.134 0 0 0-2.946 4.639v1.465a.732.732 0 0 0 .732.732h8.789a.732.732 0 0 0 .732-.732v-1.465a5.134 5.134 0 0 0-2.944-4.639zm-2.182-3.418a1.465 1.465 0 1 1-1.465 1.465 1.467 1.467 0 0 1 1.463-1.465zm3.662 8.789h-7.325v-.732a3.662 3.662 0 1 1 7.325 0v.732z" class="cls-1" data-name="Path 7831" transform="translate(-211.989 -60.002)"/>
        </g>
    </g>
</svg>
