<svg xmlns="http://www.w3.org/2000/svg" xmlns:xlink="http://www.w3.org/1999/xlink" width="398.619" height="280.544" viewBox="0 0 398.619 280.544">
  <defs>
    <filter id="Path_9296" x="64.348" y="12.451" width="141.994" height="152.301" filterUnits="userSpaceOnUse">
      <feOffset dy="3" input="SourceAlpha"/>
      <feGaussianBlur stdDeviation="3" result="blur"/>
      <feFlood flood-opacity="0.161"/>
      <feComposite operator="in" in2="blur"/>
      <feComposite in="SourceGraphic"/>
    </filter>
    <filter id="Path_9296-2" x="64.348" y="12.451" width="141.994" height="152.301" filterUnits="userSpaceOnUse">
      <feOffset dy="3" input="SourceAlpha"/>
      <feGaussianBlur stdDeviation="3" result="blur-2"/>
      <feFlood flood-opacity="0.161" result="color"/>
      <feComposite operator="out" in="SourceGraphic" in2="blur-2"/>
      <feComposite operator="in" in="color"/>
      <feComposite operator="in" in2="SourceGraphic"/>
    </filter>
    <filter id="Path_9306" x="47.013" y="73.672" width="74.458" height="190.263" filterUnits="userSpaceOnUse">
      <feOffset dy="3" input="SourceAlpha"/>
      <feGaussianBlur stdDeviation="3" result="blur-3"/>
      <feFlood flood-opacity="0.161"/>
      <feComposite operator="in" in2="blur-3"/>
      <feComposite in="SourceGraphic"/>
    </filter>
    <filter id="Path_9266" x="340.871" y="55.368" width="48.751" height="58.73" filterUnits="userSpaceOnUse">
      <feOffset dy="3" input="SourceAlpha"/>
      <feGaussianBlur stdDeviation="3" result="blur-4"/>
      <feFlood flood-color="#fff8f8" flood-opacity="0.161"/>
      <feComposite operator="in" in2="blur-4"/>
      <feComposite in="SourceGraphic"/>
    </filter>
    <filter id="Path_9273" x="305.096" y="94.284" width="81.078" height="170.691" filterUnits="userSpaceOnUse">
      <feOffset dy="3" input="SourceAlpha"/>
      <feGaussianBlur stdDeviation="3" result="blur-5"/>
      <feFlood flood-opacity="0.161"/>
      <feComposite operator="in" in2="blur-5"/>
      <feComposite in="SourceGraphic"/>
    </filter>
    <filter id="Path_9273-2" x="305.096" y="94.284" width="81.078" height="170.691" filterUnits="userSpaceOnUse">
      <feOffset dy="3" input="SourceAlpha"/>
      <feGaussianBlur stdDeviation="3" result="blur-6"/>
      <feFlood flood-opacity="0.161" result="color-2"/>
      <feComposite operator="out" in="SourceGraphic" in2="blur-6"/>
      <feComposite operator="in" in="color-2"/>
      <feComposite operator="in" in2="SourceGraphic"/>
    </filter>
    <filter id="Path_9290" x="309.583" y="48.5" width="57.466" height="68.895" filterUnits="userSpaceOnUse">
      <feOffset dy="3" input="SourceAlpha"/>
      <feGaussianBlur stdDeviation="3" result="blur-7"/>
      <feFlood flood-color="#fff8f8" flood-opacity="0.161"/>
      <feComposite operator="in" in2="blur-7"/>
      <feComposite in="SourceGraphic"/>
    </filter>
    <filter id="Path_9292" x="275.681" y="34.825" width="60.468" height="44.028" filterUnits="userSpaceOnUse">
      <feOffset dy="3" input="SourceAlpha"/>
      <feGaussianBlur stdDeviation="3" result="blur-8"/>
      <feFlood flood-color="#fff8f8" flood-opacity="0.161"/>
      <feComposite operator="in" in2="blur-8"/>
      <feComposite in="SourceGraphic"/>
    </filter>
  </defs>
  <g id="Group_12075" data-name="Group 12075" transform="translate(-139.819 -771.235)">
    <ellipse id="Ellipse_1836" data-name="Ellipse 1836" cx="49.923" cy="8.636" rx="49.923" ry="8.636" transform="translate(438.592 1034.507)" fill="#9a9ea6"/>
    <ellipse id="Ellipse_1835" data-name="Ellipse 1835" cx="84.167" cy="8.636" rx="84.167" ry="8.636" transform="translate(139.819 1025.87)" fill="#9a9ea6"/>
    <g id="Group_12071" data-name="Group 12071" transform="translate(194.225 771.235)">
      <g id="Group_12072" data-name="Group 12072" transform="translate(104.083 26.718)">
        <path id="Path_9261" data-name="Path 9261" d="M334.223,314.065v14.008l-7.225.681a37.8,37.8,0,0,1-5.384,12.948l4.642,5.583L316.25,357.291l-5.583-4.642a37.8,37.8,0,0,1-12.948,5.384l-.681,7.224H283.03l-.681-7.224a37.644,37.644,0,0,1-12.948-5.384l-5.6,4.642-9.911-10.006,4.642-5.583a37.8,37.8,0,0,1-5.384-12.948l-7.225-.681V314.065l7.225-.681a37.643,37.643,0,0,1,5.384-12.948l-4.642-5.6,9.911-9.911,5.6,4.642a36.881,36.881,0,0,1,12.948-5.384l.681-7.225h14.01l.681,7.225a37.044,37.044,0,0,1,12.948,5.384l5.583-4.642,10.006,9.911-4.643,5.6A37.644,37.644,0,0,1,327,313.384Z" transform="translate(-206.599 -276.955)" fill="#686e7a"/>
        <circle id="Ellipse_1834" data-name="Ellipse 1834" cx="18.119" cy="18.119" r="18.119" transform="translate(64.933 26.455)" fill="#fff"/>
        <path id="Path_9259" data-name="Path 9259" d="M376.674,380.016v21.293l-10.906,1.1a56.536,56.536,0,0,1-8.165,19.653l7.045,8.525-15.07,15.045-8.505-7.045a56.515,56.515,0,0,1-19.672,8.185l-1.021,10.967H299.066l-1.021-10.967a56.516,56.516,0,0,1-19.672-8.185l-8.505,7.045L254.8,430.588,261.7,422a56.955,56.955,0,0,1-8.185-19.653l-10.967-1.041V380.016l10.967-1.041A57.057,57.057,0,0,1,261.7,359.3l-7.045-8.505,15.045-15.07,8.505,7.045a56.856,56.856,0,0,1,19.672-8.165L298.9,323.64h21.419l1.021,10.967a56.856,56.856,0,0,1,19.672,8.165l8.505-7.045,15.07,15.07-7.045,8.505a57.058,57.058,0,0,1,8.185,19.672Zm-66.943-18.191a28.839,28.839,0,1,0,28.839,28.839,28.838,28.838,0,0,0-28.839-28.839Z" transform="translate(-242.55 -230.178)" fill="#9a9ea6"/>
        <path id="Path_9260" data-name="Path 9260" d="M304.462,343.391v16.69l-8.605.8a44.147,44.147,0,0,1-6.4,15.41l5.524,6.625L283.169,394.7,276.5,389.18a44.509,44.509,0,0,1-15.41,6.424l-.82,8.585h-16.7l-.8-8.585a44.351,44.351,0,0,1-15.409-6.424L220.7,394.7,208.9,382.916l5.524-6.687A44.19,44.19,0,0,1,208,360.824l-8.585-.8v-16.7l8.585-.82a44.507,44.507,0,0,1,6.424-15.41l-5.524-6.664L220.7,308.625l6.664,5.524a44.691,44.691,0,0,1,15.41-6.4l.8-8.606h16.7l.82,8.605a44.868,44.868,0,0,1,15.41,6.4l6.664-5.524,11.808,11.808-5.524,6.664a44.468,44.468,0,0,1,6.4,15.41Zm-52.538-14.249a22.595,22.595,0,1,0,22.594,22.595,22.6,22.6,0,0,0-22.594-22.595Z" transform="translate(-80.209 -254.709)" fill="#686e7a"/>
        <path id="Path_9262" data-name="Path 9262" d="M217.621,274.2l11.766-11.767,16.071,4.3,4.322,16.09-11.767,11.767-16.09-4.3Z" transform="translate(-61.97 -181.496)" fill="#92959d"/>
        <path id="Path_9263" data-name="Path 9263" d="M282.967,291.95l19.014,7.984,2.582,20.453-16.411,12.487L269.14,324.89l-2.6-20.453Z" transform="translate(-219.208 -151.938)" fill="#cdcfd3"/>
        <path id="Path_9264" data-name="Path 9264" d="M262.06,257.7V244.054l11.808-6.824,11.827,6.824V257.7l-11.827,6.824Z" transform="translate(-190.933 -206.728)" fill="#cdcfd3"/>
      </g>
      <g id="Group_12074" data-name="Group 12074" transform="translate(0 0)">
        <path id="Path_9295" data-name="Path 9295" d="M198.5,273.168l-69.44-77.321a16.91,16.91,0,0,0-18.484-23.691,1.188,1.188,0,0,0-.683,1.98L119,184.283a1.477,1.477,0,0,1,.307,1.455l-1.981,6.053a1.5,1.5,0,0,1-1.109.99L110,194.1a1.5,1.5,0,0,1-1.418-.465l-9.108-10.138a1.188,1.188,0,0,0-1.98.473,16.9,16.9,0,0,0,21.573,20.9l69.44,77.321a16.91,16.91,0,0,0,18.474,23.691,1.188,1.188,0,0,0,.693-1.98l-9.138-10.128a1.5,1.5,0,0,1-.307-1.465l1.98-6.039a1.477,1.477,0,0,1,1.109-.99l6.218-1.317a1.485,1.485,0,0,1,1.418.465l9.118,10.138a1.178,1.178,0,0,0,1.98-.473,16.91,16.91,0,0,0-21.572-20.9Z" transform="translate(-77.825 -153.413)" fill="#407bff"/>
        <g data-type="innerShadowGroup">
          <g transform="matrix(1, 0, 0, 1, -54.41, 0)" filter="url(#Path_9296)" style="isolation: isolate">
            <path id="Path_9296-3" data-name="Path 9296" d="M198.5,273.168l-69.44-77.321a16.91,16.91,0,0,0-18.484-23.691,1.188,1.188,0,0,0-.683,1.98L119,184.283a1.477,1.477,0,0,1,.307,1.455l-1.981,6.053a1.5,1.5,0,0,1-1.109.99L110,194.1a1.5,1.5,0,0,1-1.418-.465l-9.108-10.138a1.188,1.188,0,0,0-1.98.473,16.9,16.9,0,0,0,21.573,20.9l69.44,77.321a16.91,16.91,0,0,0,18.474,23.691,1.188,1.188,0,0,0,.693-1.98l-9.138-10.128a1.5,1.5,0,0,1-.307-1.465l1.98-6.039a1.477,1.477,0,0,1,1.109-.99l6.218-1.317a1.485,1.485,0,0,1,1.418.465l9.118,10.138a1.178,1.178,0,0,0,1.98-.473,16.91,16.91,0,0,0-21.572-20.9Z" transform="translate(-23.42 -153.41)" fill="#fab16d" opacity="0.995"/>
          </g>
          <g transform="matrix(1, 0, 0, 1, -54.41, 0)" filter="url(#Path_9296-2)" style="isolation: isolate">
            <path id="Path_9296-4" data-name="Path 9296" d="M198.5,273.168l-69.44-77.321a16.91,16.91,0,0,0-18.484-23.691,1.188,1.188,0,0,0-.683,1.98L119,184.283a1.477,1.477,0,0,1,.307,1.455l-1.981,6.053a1.5,1.5,0,0,1-1.109.99L110,194.1a1.5,1.5,0,0,1-1.418-.465l-9.108-10.138a1.188,1.188,0,0,0-1.98.473,16.9,16.9,0,0,0,21.573,20.9l69.44,77.321a16.91,16.91,0,0,0,18.474,23.691,1.188,1.188,0,0,0,.693-1.98l-9.138-10.128a1.5,1.5,0,0,1-.307-1.465l1.98-6.039a1.477,1.477,0,0,1,1.109-.99l6.218-1.317a1.485,1.485,0,0,1,1.418.465l9.118,10.138a1.178,1.178,0,0,0,1.98-.473,16.91,16.91,0,0,0-21.572-20.9Z" transform="translate(-23.42 -153.41)" fill="#fff" opacity="0.995"/>
          </g>
        </g>
        <path id="Path_9297" data-name="Path 9297" d="M120.04,182.16s-20.622,2.7-23.3,6.376-2.822,7.088,9.365,10.593l3.574-2.6s-5.059-1.93-4.465-3.119,14.851-.742,14.851-.742Z" transform="translate(-77.812 -153.516)" fill="#e4897b"/>
        <path id="Path_9298" data-name="Path 9298" d="M127.921,181.883l-2.871,10.009-4.821.732-10.1,1.536-.3-4.039-.584-7.98S119.17,180.151,127.921,181.883Z" transform="translate(-77.951 -153.507)" fill="#f36c20"/>
        <path id="Path_9299" data-name="Path 9299" d="M122.868,186.17l-2.6,6.515-10.1,1.536-.3-4.039C114.948,186.188,122.868,186.17,122.868,186.17Z" transform="translate(-77.956 -153.556)" opacity="0.2" style="isolation: isolate"/>
        <path id="Path_9300" data-name="Path 9300" d="M120.97,356.606l8.019.842.413-4.653,1.089-12.663-8.027-.852-1.218,13.989Z" transform="translate(-78.068 -100.683)" fill="#e4897b"/>
        <path id="Path_9301" data-name="Path 9301" d="M80.48,355.571h7.782l.079-1.762v-.218l.406-11.286v-.227l.168-4.326H81.123Z" transform="translate(-77.664 -100.668)" fill="#e4897b"/>
        <path id="Path_9302" data-name="Path 9302" d="M122.468,339.28l-1.218,13.989,8.158-.473,1.089-12.663Z" transform="translate(-78.071 -100.683)" opacity="0.2" style="isolation: isolate"/>
        <path id="Path_9303" data-name="Path 9303" d="M80.53,354.631h.02l7.791-.99h0l.406-10.89h0l-7.811.624-.386,10.91Z" transform="translate(-77.664 -100.718)" opacity="0.2" style="isolation: isolate"/>
        <path id="Path_9304" data-name="Path 9304" d="M89.31,410.23H79.859a.673.673,0,0,0-.663.535l-1.536,6.93a1.148,1.148,0,0,0,.891,1.359,1.066,1.066,0,0,0,.247,0c3.059-.05,5.287-.236,9.128-.236,2.366,0,9.5.247,12.771.247s3.693-3.228,2.356-3.525c-6-1.307-10.514-3.119-12.435-4.844a1.861,1.861,0,0,0-1.309-.466Z" transform="translate(-77.636 -155.792)" fill="#f36c20"/>
        <path id="Path_9305" data-name="Path 9305" d="M129.81,410h-9.451a.673.673,0,0,0-.663.535l-1.536,6.93a1.148,1.148,0,0,0,.891,1.359,1.066,1.066,0,0,0,.248,0c3.059-.05,5.287-.236,9.128-.236,2.366,0,9.5.248,12.771.248s3.693-3.228,2.356-3.525c-6-1.307-10.514-3.119-12.435-4.844A1.861,1.861,0,0,0,129.81,410Z" transform="translate(-78.04 -155.79)" fill="#f36c20"/>
        <g transform="matrix(1, 0, 0, 1, -54.41, 0)" filter="url(#Path_9306)">
          <path id="Path_9306-2" data-name="Path 9306" d="M130.82,404.973H119.4s-3.277-98.7-15.653-131.871c1.515,61.708-13.029,132.861-13.029,132.861H79.477s5.158-55.709,5.158-80.073c0-43.175-11.881-64.252-.317-92.191h41.3C135.741,294.636,139.631,337.652,130.82,404.973Z" transform="translate(-23.25 -154.03)" fill="#b1cde1"/>
        </g>
        <path id="Path_9307" data-name="Path 9307" d="M132.488,348.5l-.555,3.217H118.44v-2.97Z" transform="translate(-78.043 -100.775)" fill="#1f2559"/>
        <path id="Path_9308" data-name="Path 9308" d="M92.045,349.75l-1.3,2.97H79.432l-.742-2.97Z" transform="translate(-77.646 -100.787)" fill="#1f2559"/>
        <path id="Path_9309" data-name="Path 9309" d="M161.827,185.285c-.307.247-.614.473-.93.683a10.732,10.732,0,0,1-6.148,1.831,11.53,11.53,0,0,1-1.654-.139,9.791,9.791,0,0,1-8.257-8.422c-.782-5.485,1.98-9.078,6.237-15.523a10.554,10.554,0,0,1,17.969.208C173.311,170.88,167.322,180.711,161.827,185.285Z" transform="translate(-78.305 -153.285)" fill="#e4897b"/>
        <path id="Path_9310" data-name="Path 9310" d="M154.793,188.027a11.516,11.516,0,0,1-1.654-.139,9.8,9.8,0,0,1-6.99-4.723,11.425,11.425,0,0,1,2.653-1.277,15.207,15.207,0,0,1,5.99,6.138Z" transform="translate(-78.319 -153.513)" opacity="0.2" style="isolation: isolate"/>
        <path id="Path_9311" data-name="Path 9311" d="M136.31,186.71c.99,5.029,9.215,9.534,9.215,9.534s5.6,2.178,5.7,0c-2.416-2.485-2.792-4.752-2.126-6.8a9.989,9.989,0,0,1,2.049-3.336,17.589,17.589,0,0,1,1.525-1.574l-4.158-13.672C146.378,176.265,141.715,185.661,136.31,186.71Z" transform="translate(-78.221 -153.404)" fill="#e4897b"/>
        <path id="Path_9312" data-name="Path 9312" d="M172.48,164.8c-.842-4.692-3.217-4.95-3.217-4.95-.227-3.742-9.059-7.524-14.851-6.306s-9.722,6.316-11.306,11.009c-2.3,6.841-.911,15.325-.911,15.325h0c4.683,3.564,9.554,4.218,11.029,1.584s5.139-3.544,5.139-3.544c2.227,1.93,5.752,0,5.752,0s3.958-1.376,4.683-5.277S173.183,168.765,172.48,164.8Z" transform="translate(-78.276 -153.229)" fill="#455a64"/>
        <path id="Path_9313" data-name="Path 9313" d="M158.363,175.97a4.95,4.95,0,0,0,0,4.277c.861,1.465,2.97.307,4.2-1.693,1.05-1.772,1.921-4.723.347-5.415S159.157,173.992,158.363,175.97Z" transform="translate(-78.436 -153.425)" fill="#e4897b"/>
        <path id="Path_9314" data-name="Path 9314" d="M159.39,153.537c8.683-2.584,15.672,11.663,15.335,19.216-.287,6.138-6.734,5.4-6.734,5.4s3.564-.236,3.217-4.544c0,0-1.545,5.277-5,1.812s.643-11.722.643-11.722Z" transform="translate(-78.452 -153.228)" fill="#455a64"/>
        <path id="Path_9315" data-name="Path 9315" d="M102.955,313.678a281.775,281.775,0,0,0-4.366-28.492C86.9,270.493,93.282,256.93,93.282,256.93c1.565,9.433,10.593,16.4,10.593,16.4C104.232,286.611,103.816,300.323,102.955,313.678Z" transform="translate(-77.775 -154.263)" opacity="0.2" style="isolation: isolate"/>
        <path id="Path_9316" data-name="Path 9316" d="M136.29,184.583s2.5-1.861,7.147.881a15.138,15.138,0,0,1,6.158,7.99Z" transform="translate(-78.221 -153.534)" fill="#1f2559"/>
        <path id="Path_9317" data-name="Path 9317" d="M130.093,252.666s0-24.087,25.186-53.244c0,0-11.306-15.781-27.644-17.533,0,0-30.156,10.346-46.581,54.451Z" transform="translate(-77.668 -153.513)" fill="#407bff"/>
        <path id="Path_9318" data-name="Path 9318" d="M155.252,199.423q-3.958,4.633-7.177,9.069a113.231,113.231,0,0,0-9.9,16.385c-8.1,16.494-8.1,27.79-8.1,27.79L81.03,236.331c16.425-44.1,46.581-54.451,46.581-54.451C143.976,183.642,155.252,199.423,155.252,199.423Z" transform="translate(-77.669 -153.514)" fill="#f36c20" opacity="0.6" style="isolation: isolate"/>
        <path id="Path_9319" data-name="Path 9319" d="M130.409,249.724c-.109.812-.177,1.485-.218,1.98L81.73,235.1c.236-.624.485-1.24.732-1.841Z" transform="translate(-77.677 -154.027)" fill="#1f2559"/>
        <path id="Path_9320" data-name="Path 9320" d="M131.286,244.766c-.148.7-.287,1.359-.4,1.98-16.831-6.485-35.908-13.722-46.729-17.464.268-.614.545-1.208.822-1.8C97.05,231.627,117.94,239.608,131.286,244.766Z" transform="translate(-77.701 -153.969)" fill="#f36c20"/>
        <path id="Path_9321" data-name="Path 9321" d="M132.589,239.739c-.2.663-.376,1.307-.545,1.921-13.366-5.8-33.413-14.227-45.155-18.108.307-.6.614-1.188.921-1.772C99.773,225.76,119.412,234.027,132.589,239.739Z" transform="translate(-77.728 -153.911)" fill="#f36c20"/>
        <path id="Path_9322" data-name="Path 9322" d="M134.273,234.605c-.227.653-.455,1.287-.663,1.9-13.009-6.277-31.68-14.851-43.68-18.523.337-.594.683-1.178.99-1.743C103.176,220.022,121.433,228.408,134.273,234.605Z" transform="translate(-77.759 -153.857)" fill="#1f2559"/>
        <path id="Path_9323" data-name="Path 9323" d="M136.358,229.433q-.416.936-.772,1.851c-12.445-6.653-29.7-15.207-42.293-18.721.386-.584.782-1.168,1.178-1.732C107.211,214.5,124.1,222.878,136.358,229.433Z" transform="translate(-77.793 -153.802)" fill="#1f2559"/>
        <path id="Path_9324" data-name="Path 9324" d="M138.81,224.2c-.307.614-.6,1.227-.891,1.831-11.7-6.93-27.622-15.306-40.876-18.751.435-.584.871-1.148,1.317-1.713C111.714,209.191,127.287,217.4,138.81,224.2Z" transform="translate(-77.831 -153.749)" fill="#1f2559"/>
        <path id="Path_9325" data-name="Path 9325" d="M141.593,218.983c-.347.6-.673,1.2-.99,1.782-10.89-7.009-25.523-15.167-39.393-18.652.495-.574.99-1.129,1.505-1.673C116.625,204.093,130.95,212.063,141.593,218.983Z" transform="translate(-77.871 -153.698)" fill="#f36c20"/>
        <path id="Path_9326" data-name="Path 9326" d="M144.769,213.875c-.366.555-.713,1.109-1.059,1.663-9.98-7.019-23.463-14.851-37.749-18.444.564-.555,1.119-1.089,1.673-1.6C121.722,199.252,134.928,206.964,144.769,213.875Z" transform="translate(-77.919 -153.65)" fill="#f36c20"/>
        <path id="Path_9327" data-name="Path 9327" d="M148.268,208.817l-1.138,1.6c-9.059-6.93-21.414-14.425-35.8-18.147.653-.535,1.287-1.05,1.911-1.536C127.289,194.6,139.348,201.956,148.268,208.817Z" transform="translate(-77.972 -153.601)" fill="#1f2559"/>
        <path id="Path_9328" data-name="Path 9328" d="M152.1,203.742c-.413.525-.822,1.04-1.218,1.564a90.716,90.716,0,0,0-33.374-17.721c.763-.515,1.5-.99,2.2-1.418A93.231,93.231,0,0,1,152.1,203.741Z" transform="translate(-78.033 -153.555)" fill="#f36c20"/>
        <path id="Path_9329" data-name="Path 9329" d="M155.689,199.425l-.782.921a81.182,81.182,0,0,0-30.116-17.028c1.218-.6,2.138-.99,2.683-1.208a82.854,82.854,0,0,1,25.394,13.93h0A40.212,40.212,0,0,1,155.689,199.425Z" transform="translate(-78.107 -153.516)" fill="#f36c20"/>
        <path id="Path_9330" data-name="Path 9330" d="M148.681,208.728a113.229,113.229,0,0,0-9.9,16.385,24.75,24.75,0,0,1,9.128-19.611Z" transform="translate(-78.246 -153.75)" opacity="0.2" style="isolation: isolate"/>
        <path id="Path_9331" data-name="Path 9331" d="M155.9,207.12v30.572l11.88,21.206,4.861,5.415s-5.683,3.5-7.247,1.258a36.629,36.629,0,0,1-3.131-6.675s-11.742-15.771-13.586-19.533-2.5-26.543-2.5-26.543Z" transform="translate(-78.316 -153.765)" fill="#e4897b"/>
        <path id="Path_9332" data-name="Path 9332" d="M155.875,199.6c1.861,5.148,1.851,22.691,1.851,22.691l-13.2,1.158-1.05-6.93a24.176,24.176,0,0,1,4.534-12.484,11.019,11.019,0,0,1,7.861-4.435Z" transform="translate(-78.292 -153.69)" fill="#f36c20"/>
      </g>
    </g>
    <g id="Group_12073" data-name="Group 12073" transform="translate(408.174 790.449)">
      <rect id="Rectangle_3813" data-name="Rectangle 3813" width="5.811" height="28.542" transform="translate(75.547 61.241)" fill="#f0f0f0"/>
      <rect id="Rectangle_3816" data-name="Rectangle 3816" width="28.542" height="28.542" transform="translate(52.806 111.92)" fill="#f0f0f0"/>
      <path id="Path_9265" data-name="Path 9265" d="M411.132,237.61l10.534,8.554s2.574.059,3.386.911,3.958,7.168,3.475,8.029-5.633,2.564-6.734,1.545-2.97-6.871-2.97-7.495l-13.462-9.029Z" transform="translate(-304.706 -163.627)" fill="#b97964"/>
      <g transform="matrix(1, 0, 0, 1, -268.35, -19.21)" filter="url(#Path_9266)">
        <path id="Path_9266-2" data-name="Path 9266" d="M416.78,241.051l-2.356,5.139s-14.484-6.782-17.623-10.732c-.8-.99-1.911-2.643-3.109-4.495-1.98-3.059-4.2-6.742-5.742-9.326-1.148-1.98-1.921-3.249-1.921-3.249l8.2-12.93c1.792,1.376,7.277,23.473,8.257,24.661S416.78,241.051,416.78,241.051Z" transform="translate(-36.16 -144.09)" fill="#f58222"/>
      </g>
      <path id="Path_9267" data-name="Path 9267" d="M393.712,231.032c-1.98-3.059-4.2-6.742-5.742-9.326l3.812-9.4S393.851,223.092,393.712,231.032Z" transform="translate(-304.533 -163.375)" opacity="0.2" style="isolation: isolate"/>
      <path id="Path_9268" data-name="Path 9268" d="M326.1,187.944,315,180.024s-1.327-2.208-2.465-2.5-8.167.148-8.7.99.564,6.168,1.98,6.616,7.455-.792,7.98-1.129l11.276,7.791Z" transform="translate(-303.692 -163.027)" fill="#b97964"/>
      <path id="Path_9269" data-name="Path 9269" d="M414.738,356.662l-6.218,1.1-2.544-8.475L403.65,341.5l7.168-2.5,2.079,9.356Z" transform="translate(-304.689 -110.237)" fill="#b97964"/>
      <path id="Path_9270" data-name="Path 9270" d="M412.927,348.544l-6.921.911-2.346-7.861,7.158-2.544Z" transform="translate(-304.689 -110.238)" opacity="0.2" style="isolation: isolate"/>
      <path id="Path_9271" data-name="Path 9271" d="M372.857,356.823H366.55l-1.04-8.475-.94-7.9,7.495-1.138.426,9.286Z" transform="translate(-304.299 -110.241)" fill="#b97964"/>
      <path id="Path_9272" data-name="Path 9272" d="M372.49,349.152l-6.98-.307-.94-8.148,7.495-1.258Z" transform="translate(-304.299 -110.241)" opacity="0.2" style="isolation: isolate"/>
      <g data-type="innerShadowGroup">
        <g transform="matrix(1, 0, 0, 1, -268.35, -19.21)" filter="url(#Path_9273)">
          <path id="Path_9273-3" data-name="Path 9273" d="M412.974,395.213l-10.219,1.8c-10.306-25.691-17.642-47.137-22.82-64.926-2.792-9.6-5-18.137-6.663-25.74l.426,27.958v63.154h-10.3c-25.235-119.792-7.346-147.642-7.346-147.642l30.184-5.049a137.809,137.809,0,0,1,2.535,16.959l1.359,10,11.813,60.954Z" transform="translate(-35.8 -144.49)" fill="#b1cde1"/>
        </g>
        <g transform="matrix(1, 0, 0, 1, -268.35, -19.21)" filter="url(#Path_9273-2)">
          <path id="Path_9273-4" data-name="Path 9273" d="M412.974,395.213l-10.219,1.8c-10.306-25.691-17.642-47.137-22.82-64.926-2.792-9.6-5-18.137-6.663-25.74l.426,27.958v63.154h-10.3c-25.235-119.792-7.346-147.642-7.346-147.642l30.184-5.049a137.809,137.809,0,0,1,2.535,16.959l1.359,10,11.813,60.954Z" transform="translate(-35.8 -144.49)" fill="#fff"/>
        </g>
      </g>
      <path id="Path_9274" data-name="Path 9274" d="M401.68,342.277l12.672-4.207-.177,5.4L403.7,346.812Z" transform="translate(-304.669 -110.228)" fill="#407bff"/>
      <path id="Path_9275" data-name="Path 9275" d="M401.68,342.277l12.672-4.207-.177,5.4L403.7,346.812Z" transform="translate(-304.669 -110.228)" fill="#faad64" opacity="0.6" style="isolation: isolate"/>
      <path id="Path_9276" data-name="Path 9276" d="M362.17,342.89l13.207-1.93-1.109,5.277-10.9,1.465Z" transform="translate(-304.275 -110.257)" fill="#407bff"/>
      <path id="Path_9277" data-name="Path 9277" d="M362.17,342.89l13.207-1.93-1.109,5.277-10.9,1.465Z" transform="translate(-304.275 -110.257)" fill="#faad64" opacity="0.6" style="isolation: isolate"/>
      <path id="Path_9278" data-name="Path 9278" d="M381.563,337.06c-.473-1.595-.99-3.158-1.435-4.7-2.525-8.712-4.218-16.553-6.2-23.582h0l-.99-12.95s6.455-14.227,4.039-24.245c.227.574,4.495,11.484,2.822,22.375a317.216,317.216,0,0,0,1.762,43.106Z" transform="translate(-304.383 -163.966)" opacity="0.2" style="isolation: isolate"/>
      <path id="Path_9279" data-name="Path 9279" d="M382.373,192.064a1.339,1.339,0,0,1-.258.148A11.385,11.385,0,0,1,378,193.6c-4.207.406-6.93-.515-8.514-2.6h0c-2.186-3.109-2.186-8.108-1.059-13.989a22.506,22.506,0,0,1,2.2-6.762s0-.079,0-.1a1.181,1.181,0,0,1,.129-.236,8.177,8.177,0,0,1,6.594-4.168,16.64,16.64,0,0,1,3.554.059C392.511,167.185,392.105,186.609,382.373,192.064Z" transform="translate(-304.331 -162.91)" fill="#b97964"/>
      <path id="Path_9280" data-name="Path 9280" d="M382.133,192.465a11.117,11.117,0,0,1-4.1,1.227c-4.207.406-6.93-.653-8.494-2.762a11.642,11.642,0,0,0,7.416.347,6.059,6.059,0,0,1,5.177,1.188Z" transform="translate(-304.348 -163.162)" opacity="0.2" style="isolation: isolate"/>
      <path id="Path_9281" data-name="Path 9281" d="M383.008,201.87c1.04,3.238-3.109,5-3.109,5-7.3-2.3-8.96-5.939-8.96-5.939,5.544-3.623,2.97-12.078,2.97-12.078l1.248.473,8.494.812s-1.871,4.663-2.079,5.713h0C380.553,201.414,383.008,201.87,383.008,201.87Z" transform="translate(-304.363 -163.142)" fill="#b97964"/>
      <path id="Path_9282" data-name="Path 9282" d="M370.649,170.137s-1.693,8.029,5.534,12.514c0,0,2.208,8.851,7.049,9.6,6.6.99,13.672-7.633,12.623-17.533C394.5,161.881,375.767,158.416,370.649,170.137Z" transform="translate(-304.358 -162.882)" fill="#213f7a"/>
      <path id="Path_9283" data-name="Path 9283" d="M372.619,179.971c.168-1.267,1.455-3.257,3.386-2.712s2.475,5.723-2.673,6.2C372.589,183.516,372.262,182.6,372.619,179.971Z" transform="translate(-304.378 -163.024)" fill="#b97964"/>
      <path id="Path_9284" data-name="Path 9284" d="M365.753,410.74h7.039a.653.653,0,0,1,.624.505l1.445,6.534a1.079,1.079,0,0,1-.832,1.277.99.99,0,0,1-.236,0c-2.891-.05-3.119-.227-6.742-.227-2.227,0-8.91.236-12.029.236s-3.485-3.04-2.228-3.326c5.653-1.227,9.9-2.97,11.722-4.564A1.762,1.762,0,0,1,365.753,410.74Z" transform="translate(-304.175 -165.355)" fill="#fab16d"/>
      <path id="Path_9285" data-name="Path 9285" d="M363.422,411.982a2.218,2.218,0,0,1-1.406-.366.99.99,0,0,1-.366-.94.535.535,0,0,1,.3-.485c.812-.413,3.19.99,3.445,1.208a.168.168,0,0,1,.089.168.188.188,0,0,1-.139.148,8.911,8.911,0,0,1-1.921.268Zm-1.089-1.515a.445.445,0,0,0-.227,0,.29.29,0,0,0-.109.208.713.713,0,0,0,.236.624,3.564,3.564,0,0,0,2.614.139,7.106,7.106,0,0,0-2.515-.931Z" transform="translate(-304.27 -165.35)" fill="#407bff"/>
      <path id="Path_9286" data-name="Path 9286" d="M365.319,411.747h-.089c-.753-.406-2.217-1.98-2.067-2.8a.564.564,0,0,1,.564-.455.99.99,0,0,1,.732.228c.851.683.99,2.792.99,2.9a.218.218,0,0,1-.089.158A.137.137,0,0,1,365.319,411.747Zm-1.477-2.97h-.089c-.218,0-.236.139-.247.177-.1.473.842,1.7,1.595,2.267a4.158,4.158,0,0,0-.871-2.3.624.624,0,0,0-.386-.158Z" transform="translate(-304.286 -165.333)" fill="#407bff"/>
      <path id="Path_9287" data-name="Path 9287" d="M408.192,410.74h7.039a.634.634,0,0,1,.624.505l1.456,6.534a1.079,1.079,0,0,1-.842,1.277.984.984,0,0,1-.236,0c-2.881-.05-3.119-.227-6.734-.227-2.227,0-8.91.236-12.039.236s-3.475-3.04-2.217-3.326c5.653-1.227,9.9-2.97,11.712-4.564a1.782,1.782,0,0,1,1.24-.435Z" transform="translate(-304.598 -165.355)" fill="#fab16d"/>
      <path id="Path_9288" data-name="Path 9288" d="M405.863,411.982a2.2,2.2,0,0,1-1.406-.366.99.99,0,0,1-.366-.94.525.525,0,0,1,.3-.485c.812-.414,3.178.99,3.445,1.208a.158.158,0,0,1,.079.168.177.177,0,0,1-.129.149,9.067,9.067,0,0,1-1.92.267Zm-1.089-1.515a.446.446,0,0,0-.228,0c-.05,0-.1.069-.109.208a.7.7,0,0,0,.227.624,3.565,3.565,0,0,0,2.614.139,6.99,6.99,0,0,0-2.5-.931Z" transform="translate(-304.694 -165.35)" fill="#407bff"/>
      <path id="Path_9289" data-name="Path 9289" d="M407.749,411.747h-.079c-.763-.406-2.228-1.98-2.067-2.8a.564.564,0,0,1,.555-.455.99.99,0,0,1,.742.227c.842.683.99,2.792.99,2.9a.208.208,0,0,1-.079.158A.169.169,0,0,1,407.749,411.747Zm-1.477-2.97h-.079c-.228,0-.248.139-.258.177-.089.473.842,1.7,1.6,2.267a4.159,4.159,0,0,0-.871-2.3.633.633,0,0,0-.4-.158Z" transform="translate(-304.709 -165.332)" fill="#407bff"/>
      <g transform="matrix(1, 0, 0, 1, -268.35, -19.21)" filter="url(#Path_9290)">
        <path id="Path_9290-2" data-name="Path 9290" d="M356.093,249.417s-5.762-35.087,4.138-50.828c0,0,19.8-1.227,33.661,6.8,0,0-5.752,15.623-6.6,44.026Z" transform="translate(-35.84 -144.02)" fill="#f58222"/>
      </g>
      <path id="Path_9291" data-name="Path 9291" d="M354.289,222.6c-.426-4.762.99-9.346,1.188-13.385a38.7,38.7,0,0,0,6.5-7.425S363.783,216.007,354.289,222.6Z" transform="translate(-304.195 -163.27)" opacity="0.2" style="isolation: isolate"/>
      <g transform="matrix(1, 0, 0, 1, -268.35, -19.21)" filter="url(#Path_9292)">
        <path id="Path_9292-2" data-name="Path 9292" d="M362.337,198.382s-19.563-2.287-22.533-3.485c-1.841-.782-16.244-10.187-16.244-10.187l-3.376,5.029s14.741,11.881,17.226,13.266c5.841,3.207,18.979,7.732,18.979,7.732S364.307,205.184,362.337,198.382Z" transform="translate(-35.5 -143.88)" fill="#f58222"/>
      </g>
      <path id="Path_9293" data-name="Path 9293" d="M391.82,168.417s6.722-5.723,13.4-2.126-1.1,17.444.851,21.691,6.177,3.958.842,6.722-.168,5.108-.168,5.108-4.772,1.624-5.168-2.317-2.119-7.177-3.662-7.851,2.624-8.138,1.178-11.831-5.633-3.386-5.633-3.386Z" transform="translate(-304.571 -162.904)" fill="#213f7a"/>
      <path id="Path_9294" data-name="Path 9294" d="M380.914,165.77s-8.475-5.307-12.464-1.536c-6.158,5.831,2.623,14.207,11.88,18.177Z" transform="translate(-304.318 -162.881)" fill="#213f7a"/>
    </g>
  </g>
</svg>
