<svg width="72" height="72" viewBox="0 0 72 72" fill="none" xmlns="http://www.w3.org/2000/svg">
<g filter="url(#filter0_d_105_42444)">
<circle cx="34" cy="34" r="32" fill="#F3F7FA"/>
</g>
<g clip-path="url(#clip0_105_42444)">
<path d="M40.0222 35.1758H32.2222C31.8914 35.1766 31.5743 35.3083 31.3402 35.5421C31.1062 35.776 30.9742 36.0929 30.9732 36.4238V39.9868C30.9553 41.1444 31.3856 42.2642 32.1741 43.1119C32.9626 43.9597 34.0483 44.4699 35.2042 44.5358C35.7891 44.5536 36.3717 44.4538 36.9174 44.2423C37.463 44.0309 37.9607 43.712 38.3809 43.3047C38.8011 42.8974 39.1353 42.4098 39.3636 41.871C39.5919 41.3322 39.7098 40.753 39.7102 40.1678V39.5438H40.0222C40.6014 39.5438 41.1569 39.3137 41.5665 38.9041C41.9761 38.4945 42.2062 37.939 42.2062 37.3598C42.2062 36.7805 41.9761 36.225 41.5665 35.8155C41.1569 35.4059 40.6014 35.1758 40.0222 35.1758ZM38.4622 36.4238V38.2958H32.2212V36.4238H38.4622ZM40.0222 38.2958H39.7102V36.4238H40.0222C40.2704 36.4238 40.5085 36.5224 40.684 36.6979C40.8596 36.8735 40.9582 37.1115 40.9582 37.3598C40.9582 37.608 40.8596 37.8461 40.684 38.0216C40.5085 38.1972 40.2704 38.2958 40.0222 38.2958ZM30.9732 45.1598H40.9582V46.4078H30.9732V45.1598Z" fill="#1F2551"/>
<path d="M27.0519 27.513L26.3459 25.962L24.7949 25.257L26.3459 24.552L27.0519 23L27.7569 24.551L29.3079 25.256L27.7569 25.961L27.0519 27.513ZM31.2829 27.8L32.6929 24.7L34.1029 27.8L37.2029 29.21L34.1029 30.62L32.6929 33.72L31.2829 30.62L28.1829 29.21L31.2829 27.8ZM27.0519 30.9L27.7569 32.451L29.3079 33.156L27.7569 33.861L27.0519 35.412L26.3459 33.86L24.7949 33.155L26.3459 32.45L27.0519 30.9Z" fill="#1F2551"/>
</g>
<defs>
<filter id="filter0_d_105_42444" x="0" y="0" width="72" height="72" filterUnits="userSpaceOnUse" color-interpolation-filters="sRGB">
<feFlood flood-opacity="0" result="BackgroundImageFix"/>
<feColorMatrix in="SourceAlpha" type="matrix" values="0 0 0 0 0 0 0 0 0 0 0 0 0 0 0 0 0 0 127 0" result="hardAlpha"/>
<feOffset dx="2" dy="2"/>
<feGaussianBlur stdDeviation="2"/>
<feComposite in2="hardAlpha" operator="out"/>
<feColorMatrix type="matrix" values="0 0 0 0 0.0980392 0 0 0 0 0.12549 0 0 0 0 0.282353 0 0 0 0.15 0"/>
<feBlend mode="normal" in2="BackgroundImageFix" result="effect1_dropShadow_105_42444"/>
<feBlend mode="normal" in="SourceGraphic" in2="effect1_dropShadow_105_42444" result="shape"/>
</filter>
<clipPath id="clip0_105_42444">
<rect width="24" height="25.411" fill="white" transform="translate(22 22)"/>
</clipPath>
</defs>
</svg>
