<svg id="temperature" xmlns="http://www.w3.org/2000/svg" width="29.542" height="38.883" viewBox="0 0 29.542 38.883">
  <path id="Path_5939" data-name="Path 5939" d="M74.639,24.13V4.936a4.936,4.936,0,1,0-9.873,0V24.13a8.2,8.2,0,1,0,9.873,0ZM69.7,36.6a5.924,5.924,0,0,1-3.184-10.92,1.139,1.139,0,0,0,.526-.96V4.936a2.658,2.658,0,0,1,5.316,0V24.725a1.139,1.139,0,0,0,.526.96A5.924,5.924,0,0,1,69.7,36.6Z" transform="translate(-61.501)" fill="#11235c"/>
  <path id="Path_5940" data-name="Path 5940" d="M129.058,73.662V51.139a1.139,1.139,0,1,0-2.278,0V73.662a3.417,3.417,0,1,0,2.278,0Zm-1.139,4.361a1.139,1.139,0,1,1,1.139-1.139A1.14,1.14,0,0,1,127.918,78.023Z" transform="translate(-119.717 -46.203)" fill="#11235c"/>
  <path id="Path_5941" data-name="Path 5941" d="M265.64,79.625a1.139,1.139,0,0,0,0,2.278,4.7,4.7,0,0,1,0,9.4,1.139,1.139,0,0,0,0,2.278,6.977,6.977,0,0,0,0-13.955Z" transform="translate(-249.085 -73.578)" fill="#11235c"/>
  <path id="Path_5942" data-name="Path 5942" d="M265.639,4.254a1.139,1.139,0,0,0,1.139-1.139V1.14a1.139,1.139,0,1,0-2.278,0V3.115A1.139,1.139,0,0,0,265.639,4.254Z" transform="translate(-249.084 -0.001)" fill="#11235c"/>
  <path id="Path_5943" data-name="Path 5943" d="M265.639,287a1.139,1.139,0,0,0-1.139,1.139v1.974a1.139,1.139,0,0,0,2.278,0V288.14A1.139,1.139,0,0,0,265.639,287Z" transform="translate(-249.084 -265.205)" fill="#11235c"/>
  <path id="Path_5944" data-name="Path 5944" d="M397.615,156.5H395.64a1.139,1.139,0,1,0,0,2.278h1.974a1.139,1.139,0,0,0,0-2.278Z" transform="translate(-369.212 -144.616)" fill="#11235c"/>
  <path id="Path_5945" data-name="Path 5945" d="M357.917,49.513a1.135,1.135,0,0,0,.805-.334l1.4-1.4a1.139,1.139,0,0,0-1.611-1.611l-1.4,1.4a1.139,1.139,0,0,0,.806,1.945Z" transform="translate(-334.353 -42.357)" fill="#11235c"/>
  <path id="Path_5946" data-name="Path 5946" d="M358.369,248.758a1.139,1.139,0,0,0-1.611,1.611l1.4,1.4a1.139,1.139,0,1,0,1.611-1.611Z" transform="translate(-334.027 -229.559)" fill="#11235c"/>
</svg>
