<svg xmlns="http://www.w3.org/2000/svg" width="139.985" height="128.819" viewBox="0 0 139.985 128.819">
  <g id="collaboration" transform="translate(-0.087)">
    <path id="Path_16439" data-name="Path 16439" d="M472.622,338.01H408.763a5.725,5.725,0,0,1-5.719-5.721V307.742c-.132.151-.271.3-.413.444v24.1a6.14,6.14,0,0,0,6.132,6.134H472.8C472.74,338.287,472.68,338.148,472.622,338.01Zm-69.578-90.732a5.725,5.725,0,0,1,5.719-5.721h21.277c-.039-.138-.076-.275-.112-.413H408.763a6.14,6.14,0,0,0-6.132,6.134v37.631c.143.145.279.293.413.444ZM488.79,252.1l-13.342-10.568a1.8,1.8,0,0,0-1.119-.39H462.455c-.033.138-.07.277-.109.413h11.983a1.4,1.4,0,0,1,.863.3l13.342,10.571a1.063,1.063,0,0,1,.4.839v61.513c.138,0,.277.014.413.025V253.266a1.474,1.474,0,0,0-.562-1.163Z" transform="translate(-373.325 -219.871)" fill="#3f3d56"/>
    <path id="Path_16440" data-name="Path 16440" d="M766.193,254.2H755.427a2.963,2.963,0,0,1-2.963-2.963v-7.952a.185.185,0,0,1,.3-.145l13.544,10.73a.185.185,0,0,1-.115.33Z" transform="translate(-650.905 -221.424)" fill="#e6e6e6"/>
    <path id="Path_16441" data-name="Path 16441" d="M765.4,253.615H754.634a3.174,3.174,0,0,1-3.17-3.17v-7.951a.392.392,0,0,1,.635-.307l13.544,10.73a.392.392,0,0,1-.243.7Zm0-.413Zm-13.523-10.664v7.907a2.76,2.76,0,0,0,2.757,2.757h10.7Z" transform="translate(-650.111 -220.631)" fill="#3f3d56"/>
    <path id="Path_16442" data-name="Path 16442" d="M588.1,351.821H556.43a1.482,1.482,0,0,1,0-2.963H588.1a1.482,1.482,0,0,1,0,2.963Z" transform="translate(-494.183 -305.337)" fill="#ccc"/>
    <path id="Path_16443" data-name="Path 16443" d="M594.213,376.033H556.43a1.482,1.482,0,1,1,0-2.963h37.783a1.482,1.482,0,0,1,0,2.963Z" transform="translate(-494.183 -324.549)" fill="#ccc"/>
    <path id="Path_16444" data-name="Path 16444" d="M588.1,460.327H556.43a1.482,1.482,0,0,1,0-2.963H588.1a1.482,1.482,0,0,1,0,2.963Z" transform="translate(-494.183 -391.433)" fill="#ccc"/>
    <path id="Path_16445" data-name="Path 16445" d="M594.213,484.54H556.43a1.482,1.482,0,0,1,0-2.963h37.783a1.482,1.482,0,0,1,0,2.963Z" transform="translate(-494.183 -410.645)" fill="#ccc"/>
    <path id="Path_16446" data-name="Path 16446" d="M588.1,568.834H556.43a1.482,1.482,0,0,1,0-2.963H588.1a1.482,1.482,0,0,1,0,2.963Z" transform="translate(-494.183 -477.529)" fill="#ccc"/>
    <path id="Path_16447" data-name="Path 16447" d="M594.213,593.046H556.43a1.482,1.482,0,0,1,0-2.963h37.783a1.482,1.482,0,1,1,0,2.963Z" transform="translate(-494.183 -496.741)" fill="#ccc"/>
    <circle id="Ellipse_44" data-name="Ellipse 44" cx="5.237" cy="5.237" r="5.237" transform="translate(43.821 42.265)" fill="#131f51"/>
    <path id="Path_395" data-name="Path 395" d="M488.924,362.508a.543.543,0,0,1-.327-.109l-.006,0-1.231-.941a.547.547,0,1,1,.665-.868l.8.611,1.884-2.458a.547.547,0,0,1,.767-.1h0l-.012.016.012-.016a.547.547,0,0,1,.1.767l-2.216,2.889a.547.547,0,0,1-.435.213Z" transform="translate(-440.385 -313.009)" fill="#fff"/>
    <circle id="Ellipse_44-2" data-name="Ellipse 44" cx="5.237" cy="5.237" r="5.237" transform="translate(43.821 64.676)" fill="#e6e6e6"/>
    <path id="Path_395-2" data-name="Path 395" d="M488.924,471.015a.543.543,0,0,1-.327-.109l-.006,0-1.231-.941a.547.547,0,1,1,.666-.868l.8.611,1.884-2.458a.547.547,0,0,1,.767-.1h0l-.012.016.012-.016a.547.547,0,0,1,.1.767L489.36,470.8a.547.547,0,0,1-.435.213Z" transform="translate(-440.385 -399.105)" fill="#fff"/>
    <circle id="Ellipse_44-3" data-name="Ellipse 44" cx="5.237" cy="5.237" r="5.237" transform="translate(43.821 87.086)" fill="#e6e6e6"/>
    <path id="Path_395-3" data-name="Path 395" d="M488.924,579.522a.543.543,0,0,1-.327-.109l-.006,0-1.231-.941a.547.547,0,0,1,.665-.868l.8.611,1.884-2.458a.547.547,0,0,1,.767-.1h0l-.012.016.012-.016a.547.547,0,0,1,.1.767l-2.216,2.889a.547.547,0,0,1-.435.213Z" transform="translate(-440.385 -485.201)" fill="#fff"/>
    <path id="Path_16448" data-name="Path 16448" d="M791.525,735.521q-.443.232-.9.438-.418.189-.848.355l-.318.12a17.073,17.073,0,0,1-2.593.715q-.655.129-1.327.2-.555.063-1.121.09c-.269.013-.538.019-.808.019a17.121,17.121,0,0,1-3.2-.3c-.275-.05-.543-.109-.812-.173a16.926,16.926,0,0,1-3.75-1.384c-.107-.053-.214-.111-.32-.166-.158-.084-.313-.172-.467-.263.074-.1.154-.2.236-.3a10.11,10.11,0,0,1,15.036-.782,10.352,10.352,0,0,1,.965,1.117C791.379,735.309,791.453,735.414,791.525,735.521Z" transform="translate(-668.836 -608.64)" fill="#131f51"/>
    <circle id="Ellipse_3723" data-name="Ellipse 3723" cx="8.371" cy="8.371" r="8.371" transform="translate(106.781 101.764)" fill="#2f2e41"/>
    <circle id="Ellipse_3724" data-name="Ellipse 3724" cx="6.23" cy="6.23" r="6.23" transform="translate(105.936 110.573) rotate(-28.663)" fill="#a0616a"/>
    <path id="Path_16449" data-name="Path 16449" d="M799.612,653.719a8.474,8.474,0,0,1-4.843,1.5,5.194,5.194,0,0,0,2.058.847,17.086,17.086,0,0,1-6.979.039,4.517,4.517,0,0,1-1.461-.5,1.849,1.849,0,0,1-.9-1.206,2.492,2.492,0,0,1,1.237-2.205,9.124,9.124,0,0,1,7.667-1.532,4.2,4.2,0,0,1,2.271,1.283,2.068,2.068,0,0,1,.191,2.456Z" transform="translate(-678.675 -544.586)" fill="#2f2e41"/>
    <path id="Path_16450" data-name="Path 16450" d="M751.774,595.75c-.136-.01-.275-.019-.413-.025-.279-.015-.56-.021-.843-.021a17.157,17.157,0,0,0-15.887,23.636c.056.138.114.277.176.413a17.281,17.281,0,0,0,6.783,7.758l.109.064c.093.056.184.109.275.159.155.093.31.18.467.264l.32.165a16.884,16.884,0,0,0,3.751,1.384c.268.066.537.124.812.174a17.131,17.131,0,0,0,3.2.3c.271,0,.539-.006.81-.019.376-.017.75-.047,1.119-.089q.672-.074,1.328-.2a17.21,17.21,0,0,0,2.592-.715c.107-.041.215-.081.318-.122.289-.109.57-.227.849-.353q.459-.208.9-.44a17.324,17.324,0,0,0,7.061-6.857.488.488,0,0,1,.025-.045,17.152,17.152,0,0,0-13.749-25.429ZM767,616.011a16.678,16.678,0,0,1-1.791,4.944c-.015.027-.029.054-.043.078a16.807,16.807,0,0,1-6.954,6.733q-.44.229-.89.43c-.25.112-.506.219-.764.318-.107.041-.219.085-.328.122a16.314,16.314,0,0,1-2.237.64,15.865,15.865,0,0,1-1.706.268c-.353.039-.71.066-1.072.078-.231.01-.463.017-.7.017a16.608,16.608,0,0,1-3.092-.289,15.986,15.986,0,0,1-1.836-.45,16.757,16.757,0,0,1-2.666-1.08c-.1-.052-.2-.1-.3-.157-.141-.074-.281-.151-.417-.231-.1-.058-.207-.12-.308-.18-.06-.035-.118-.07-.178-.107a16.89,16.89,0,0,1-6.5-7.392c-.062-.136-.122-.275-.18-.413a16.776,16.776,0,0,1,15.474-23.254c.283,0,.564.006.843.023.138,0,.277.014.413.025A16.79,16.79,0,0,1,767,616.011Z" transform="translate(-635.747 -501.201)" fill="#3f3d56"/>
    <path id="Path_16451" data-name="Path 16451" d="M782.721,626.361a1.676,1.676,0,0,0-2.158-1.244,2.714,2.714,0,0,0-1.683,2.134,3.061,3.061,0,0,0,.413,2.311,2.106,2.106,0,0,0,2.088.9,2.421,2.421,0,0,0,1.7-1.968,7.115,7.115,0,0,0-.175-2.729Z" transform="translate(-671.808 -524.481)" fill="#2f2e41"/>
    <path id="Path_16452" data-name="Path 16452" d="M844.548,632.911a1.677,1.677,0,0,0-2.158-1.244,2.714,2.714,0,0,0-1.683,2.134,3.061,3.061,0,0,0,.413,2.311,2.106,2.106,0,0,0,2.088.9,2.421,2.421,0,0,0,1.7-1.968,7.115,7.115,0,0,0-.175-2.729Z" transform="translate(-720.865 -529.679)" fill="#2f2e41"/>
    <path id="Path_16453" data-name="Path 16453" d="M589.262,270.688a16.98,16.98,0,0,1-17.854.284,10.321,10.321,0,0,1,1.792-2.412,10.187,10.187,0,0,1,16,2.015C589.218,270.612,589.241,270.65,589.262,270.688Z" transform="translate(-507.244 -239.244)" fill="#131f51"/>
    <circle id="Ellipse_3725" data-name="Ellipse 3725" cx="8.427" cy="8.427" r="8.427" transform="translate(63.92 5.475)" fill="#2f2e41"/>
    <circle id="Ellipse_3726" data-name="Ellipse 3726" cx="6.272" cy="6.272" r="6.272" transform="translate(63.776 19.332) rotate(-61.337)" fill="#ffb8b8"/>
    <path id="Path_16454" data-name="Path 16454" d="M582.827,187.66a8.53,8.53,0,0,0,4.875,1.507,5.228,5.228,0,0,1-2.072.852,17.2,17.2,0,0,0,7.026.039,4.548,4.548,0,0,0,1.471-.505,1.861,1.861,0,0,0,.908-1.214,2.509,2.509,0,0,0-1.245-2.22,9.184,9.184,0,0,0-7.718-1.542,4.226,4.226,0,0,0-2.286,1.292,2.082,2.082,0,0,0-.192,2.473Z" transform="translate(-516.304 -174.768)" fill="#2f2e41"/>
    <path id="Path_16455" data-name="Path 16455" d="M547.6,138.144A17.178,17.178,0,0,0,530.441,155.3a17,17,0,0,0,.508,4.116c.035.138.07.277.107.413a17.157,17.157,0,0,0,33.1,0c.037-.139.072-.275.105-.413A17.169,17.169,0,0,0,547.6,138.144Zm16.267,21.273c-.033.138-.07.277-.109.413a16.772,16.772,0,0,1-32.3,0c-.039-.138-.076-.275-.112-.413a16.6,16.6,0,0,1-.518-4.116,16.776,16.776,0,1,1,33.044,4.116Z" transform="translate(-474.738 -138.144)" fill="#3f3d56"/>
    <path id="Path_16456" data-name="Path 16456" d="M319.894,558.823a16.98,16.98,0,0,1-17.853.285c.029-.056.06-.112.093-.165a10.193,10.193,0,0,1,17.663-.283c.012.017.023.035.033.052C319.851,558.746,319.874,558.785,319.894,558.823Z" transform="translate(-293.511 -467.868)" fill="#131f51"/>
    <path id="Path_16457" data-name="Path 16457" d="M317.7,461.211a8.387,8.387,0,1,1-2.456-5.97A8.427,8.427,0,0,1,317.7,461.211Z" transform="translate(-292.567 -387.799)" fill="#2f2e41"/>
    <path id="Path_16458" data-name="Path 16458" d="M327.1,486a6.474,6.474,0,0,1-.332.708A6.265,6.265,0,1,1,327.1,486Z" transform="translate(-303.788 -407.353)" fill="#a0616a"/>
    <path id="Path_16459" data-name="Path 16459" d="M290.79,431.763c-.132-.145-.271-.287-.413-.425a17.146,17.146,0,1,0,0,24.361c.14-.138.279-.279.413-.423A17.144,17.144,0,0,0,290.79,431.763Zm-.413,23.392a16.833,16.833,0,0,1-3.02,2.476l-.006,0a16.791,16.791,0,0,1-17.653.281s0,0,0,0a16.775,16.775,0,1,1,20.683-26.036c.142.145.279.293.413.444a16.769,16.769,0,0,1,0,22.389C290.658,454.862,290.52,455.011,290.377,455.156Z" transform="translate(-261.071 -366.841)" fill="#3f3d56"/>
    <path id="Path_16460" data-name="Path 16460" d="M322.848,451.308a4.437,4.437,0,0,0-4.091-2.177,8.7,8.7,0,0,0-2.473.692l-4.07,1.588a3.3,3.3,0,0,0-2.451,5.015l1.523,4.749a14.455,14.455,0,0,1,.863-3.137,4.857,4.857,0,0,1,2.109-2.4,6.876,6.876,0,0,1,3.49-.474c1.681.081,3.508.295,4.7,1.48a4.884,4.884,0,0,1,1.239,2.42,14.574,14.574,0,0,1,.26,2.74,22.712,22.712,0,0,0,1.735-3.719,9.2,9.2,0,0,0,.645-3.01,4.234,4.234,0,0,0-.97-2.863,2.777,2.777,0,0,0-2.793-.879" transform="translate(-299.307 -384.894)" fill="#2f2e41"/>
    <path id="Path_16461" data-name="Path 16461" d="M311,345.182l-.413,0c0-.413.017-.832.035-1.246l.413.019C311.014,344.359,311,344.773,311,345.182Z" transform="translate(-300.289 -301.429)" fill="#e6e6e6"/>
    <path id="Path_16462" data-name="Path 16462" d="M312.054,206.141l-.411-.045c.086-.79.2-1.586.336-2.367l.407.071C312.251,204.573,312.139,205.36,312.054,206.141Zm.814-4.654-.4-.1c.187-.771.4-1.547.638-2.3l.394.123C313.265,199.957,313.053,200.724,312.868,201.487Zm1.409-4.513-.385-.148c.285-.741.6-1.483.932-2.2l.375.173C314.869,195.507,314.56,196.241,314.277,196.973Zm1.981-4.295-.363-.2c.378-.7.784-1.392,1.207-2.065l.35.22C317.034,191.3,316.633,191.989,316.259,192.679Zm2.516-4-.335-.242c.465-.644.956-1.28,1.461-1.893l.319.263c-.5.606-.986,1.235-1.445,1.872Zm3.007-3.647-.3-.283c.543-.578,1.112-1.147,1.691-1.69l.283.3C322.881,183.895,322.319,184.457,321.782,185.029Zm3.447-3.233-.263-.319c.612-.5,1.249-1,1.892-1.461l.242.335C326.464,180.811,325.835,181.3,325.229,181.8Zm3.83-2.766-.22-.35c.672-.422,1.366-.828,2.063-1.206l.2.363c-.689.374-1.375.775-2.04,1.193Zm4.152-2.251-.173-.375c.72-.332,1.46-.645,2.2-.93l.148.385C334.655,176.141,333.923,176.451,333.211,176.779Zm4.4-1.7-.123-.394c.757-.237,1.532-.452,2.3-.639l.1.4C339.131,174.636,338.365,174.848,337.616,175.082Zm4.592-1.115-.071-.407c.781-.137,1.577-.25,2.367-.337l.045.411c-.781.086-1.568.2-2.34.333Z" transform="translate(-301.13 -165.979)" fill="#e6e6e6"/>
    <path id="Path_16463" data-name="Path 16463" d="M482.376,172.6l-.019-.413c.414-.019.833-.03,1.246-.035l0,.413C483.2,172.575,482.786,172.587,482.376,172.6Z" transform="translate(-436.585 -165.132)" fill="#e6e6e6"/>
    <path id="Path_16464" data-name="Path 16464" d="M45.924,204.033l-.3-.289L44.205,205.2l-1.349-1.527-.31.274,1.643,1.859Z" transform="translate(-33.691 -161.607)" fill="#e6e6e6"/>
    <path id="Path_16465" data-name="Path 16465" d="M219.533,30.424l-.289-.3,1.456-1.424-1.527-1.349.274-.31,1.859,1.643Z" transform="translate(-173.837 -21.461)" fill="#e6e6e6"/>
    <path id="Path_16466" data-name="Path 16466" d="M776.975,190.515q-.545-.287-1.1-.564l.185-.369q.557.279,1.106.568Z" transform="translate(-669.481 -178.958)" fill="#e6e6e6"/>
    <path id="Path_16467" data-name="Path 16467" d="M817.563,273.547l-.382-.157c.311-.758.61-1.532.888-2.3l.388.141C818.177,272,817.876,272.783,817.563,273.547Zm1.693-4.665-.394-.125c.248-.78.482-1.576.7-2.364l.4.109C819.742,267.3,819.506,268.1,819.256,268.882Zm1.306-4.788-.4-.092c.183-.8.351-1.61.5-2.414l.406.076c-.151.809-.32,1.627-.5,2.431Zm.908-4.88-.409-.059c.116-.81.217-1.633.3-2.447l.411.042C821.689,257.569,821.587,258.4,821.47,259.214Zm.5-4.939-.412-.025c.049-.816.082-1.645.1-2.464l.413.008c-.016.824-.049,1.659-.1,2.481Zm.094-4.963-.413.009q-.012-.539-.034-1.077c-.018-.46-.042-.927-.072-1.387l.412-.026c.029.463.054.933.072,1.4q.022.542.034,1.084Zm-.724-4.911c-.085-.814-.188-1.637-.306-2.446l.409-.06c.119.815.223,1.643.308,2.463Zm-.712-4.877c-.151-.8-.321-1.615-.5-2.413l.4-.093c.185.8.356,1.621.508,2.43Zm-1.107-4.8c-.216-.79-.451-1.585-.7-2.365l.394-.125c.25.785.486,1.586.7,2.381Zm-1.494-4.7c-.28-.769-.579-1.543-.889-2.3l.382-.157c.313.762.614,1.542.9,2.316Zm-1.872-4.563c-.341-.744-.7-1.491-1.074-2.221l.368-.187c.374.734.737,1.487,1.081,2.236Zm-2.237-4.4c-.4-.714-.822-1.429-1.252-2.126l.352-.217c.433.7.857,1.422,1.26,2.141Zm-2.589-4.2c-.458-.679-.936-1.358-1.422-2.017l.333-.245c.489.664.97,1.347,1.431,2.031Zm-2.925-3.974c-.513-.64-1.045-1.277-1.583-1.893l.311-.271c.541.621,1.078,1.263,1.594,1.907Zm-3.243-3.72c-.564-.6-1.147-1.186-1.734-1.757l.288-.3c.591.575,1.178,1.17,1.746,1.769Zm-3.539-3.441c-.611-.547-1.241-1.088-1.874-1.608l.263-.319c.637.524,1.272,1.069,1.887,1.62Zm-3.813-3.138c-.651-.493-1.323-.979-2-1.447l.235-.339c.678.47,1.355.96,2.011,1.457Zm-4.051-2.81c-.689-.438-1.4-.868-2.108-1.279l.207-.358c.715.414,1.429.847,2.123,1.287Z" transform="translate(-682 -185.751)" fill="#e6e6e6"/>
    <path id="Path_16468" data-name="Path 16468" d="M908.321,574.733l-.372-.18q.269-.557.526-1.118l.376.172Q908.591,574.172,908.321,574.733Z" transform="translate(-774.276 -483.532)" fill="#e6e6e6"/>
    <path id="Path_16469" data-name="Path 16469" d="M514.135,51.194l.39-.137-.679-1.92,1.965-.537-.109-.4-2.393.654Z" transform="translate(-407.222 -38.246)" fill="#e6e6e6"/>
    <path id="Path_16470" data-name="Path 16470" d="M643.078,431.18l.393-.129.635,1.935,1.884-.775.157.383-2.294.943Z" transform="translate(-510.19 -342.023)" fill="#e6e6e6"/>
  </g>
</svg>
