<svg id="desks" xmlns="http://www.w3.org/2000/svg" width="129.741" height="124.286" viewBox="0 0 129.741 124.286">
  <path id="Path_16394" data-name="Path 16394" d="M307.411,83.155c-6.753-26.553-30.085-45.72-57.472-46.489-14.479-.406-29.715,4.4-40.807,21.2-19.829,30.039,1.219,50.8,15.893,60.66A91.82,91.82,0,0,1,244,135.584c9.912,11.762,28.98,26.378,51.689,3.477C312.152,122.462,311.909,100.842,307.411,83.155Z" transform="translate(-196.148 -36.643)" fill="#f2f2f2"/>
  <path id="Path_16395" data-name="Path 16395" d="M298.091,710.4c0,6.518-28.442,18.642-64.269,18.642S168.5,717.668,168.5,711.151s29.495-5.713,65.322-5.713S298.091,703.881,298.091,710.4Z" transform="translate(-168.5 -604.755)" fill="#3f3d56"/>
  <path id="Path_16396" data-name="Path 16396" d="M298.091,710.4c0,6.518-28.442,18.642-64.269,18.642S168.5,717.668,168.5,711.151s29.495-5.713,65.322-5.713S298.091,703.881,298.091,710.4Z" transform="translate(-168.5 -604.755)" opacity="0.1"/>
  <ellipse id="Ellipse_3718" data-name="Ellipse 3718" cx="64.871" cy="11.801" rx="64.871" ry="11.801" transform="translate(0 94.519)" fill="#3f3d56"/>
  <path id="Path_16397" data-name="Path 16397" d="M594.859,440.238V471.8l5.279,8.6.4.654h20.831l.421-40.821Z" transform="translate(-505.429 -374.054)" fill="#2f2e41"/>
  <path id="Path_16398" data-name="Path 16398" d="M594.859,440.238V471.8l5.279,8.6.324-40.166Z" transform="translate(-505.429 -374.054)" opacity="0.1"/>
  <path id="Path_16399" data-name="Path 16399" d="M108.128,434.639V466.2l-5.279,8.6-.4.654H81.616l-.421-40.821Z" transform="translate(-68.988 -369.297)" fill="#2f2e41"/>
  <path id="Path_16400" data-name="Path 16400" d="M228.679,434.639V466.2l-5.279,8.6-.324-40.166Z" transform="translate(-189.538 -369.297)" opacity="0.1"/>
  <path id="Path_16401" data-name="Path 16401" d="M176.2,394.764v1.894H63v-2.735l10.521-5.471h93.425Z" transform="translate(-53.529 -330.053)" fill="#2f2e41"/>
  <path id="Path_16402" data-name="Path 16402" d="M176.2,425.684v1.894H63v-2.735Z" transform="translate(-53.529 -360.972)" opacity="0.1"/>
  <path id="Path_16403" data-name="Path 16403" d="M130.338,485.1h-5.05l-2.1-1.473h9.469Z" transform="translate(-104.665 -410.919)" opacity="0.1"/>
  <path id="Path_16404" data-name="Path 16404" d="M130.338,525.688h-5.05l-2.1-1.473h9.469Z" transform="translate(-104.665 -445.406)" opacity="0.1"/>
  <path id="Path_16405" data-name="Path 16405" d="M130.338,583.073h-5.05l-2.1-1.473h9.469Z" transform="translate(-104.665 -494.164)" opacity="0.1"/>
  <path id="Path_16406" data-name="Path 16406" d="M130.338,640.458h-5.05l-2.1-1.473h9.469Z" transform="translate(-104.665 -542.922)" opacity="0.1"/>
  <path id="Path_16407" data-name="Path 16407" d="M671.354,490.7h5.05l2.1-1.473h-9.469Z" transform="translate(-568.457 -415.676)" opacity="0.1"/>
  <path id="Path_16408" data-name="Path 16408" d="M671.354,531.287h5.05l2.1-1.473h-9.469Z" transform="translate(-568.457 -450.163)" opacity="0.1"/>
  <path id="Path_16409" data-name="Path 16409" d="M671.354,588.672h5.05l2.1-1.473h-9.469Z" transform="translate(-568.457 -498.921)" opacity="0.1"/>
  <path id="Path_16410" data-name="Path 16410" d="M671.354,646.056h5.05l2.1-1.473h-9.469Z" transform="translate(-568.457 -547.678)" opacity="0.1"/>
  <path id="Path_16411" data-name="Path 16411" d="M686.358,388.544l-.7,4.481s-3.455,1.836-1.026,1.89,13.876,0,13.876,0,2.214,0-1.3-1.944l-.7-4.7Z" transform="translate(-606.301 -335.411)" fill="#3f3d56"/>
  <path id="Path_16412" data-name="Path 16412" d="M684.146,394.866a9.555,9.555,0,0,1,1.515-1l.7-4.481,10.15.01.7,4.418a9.217,9.217,0,0,1,1.622,1.067c.451-.1.943-.485-1.622-1.906l-.7-4.7-10.15.27-.7,4.481S682.757,394.568,684.146,394.866Z" transform="translate(-606.305 -335.411)" opacity="0.1"/>
  <rect id="Rectangle_4731" data-name="Rectangle 4731" width="45.73" height="31.854" rx="2" transform="translate(62.213 21.9)" fill="#3f3d56"/>
  <rect id="Rectangle_4732" data-name="Rectangle 4732" width="42.652" height="23.864" transform="translate(63.752 23.601)" fill="#f2f2f2"/>
  <circle id="Ellipse_3719" data-name="Ellipse 3719" cx="0.27" cy="0.27" r="0.27" transform="translate(84.808 22.575)" fill="#f2f2f2"/>
  <path id="Path_16413" data-name="Path 16413" d="M628.054,364.931v2.792a1.608,1.608,0,0,1-1.608,1.608H583.932a1.608,1.608,0,0,1-1.608-1.608v-2.792Z" transform="translate(-520.111 -315.577)" fill="#3f3d56"/>
  <circle id="Ellipse_3720" data-name="Ellipse 3720" cx="1.026" cy="1.026" r="1.026" transform="translate(84.052 50.542)" fill="#f2f2f2"/>
  <path id="Path_16414" data-name="Path 16414" d="M391.118,404.212v.54H362.071v-.432l.04-.108.716-1.944h27.7Z" transform="translate(-307.638 -341.792)" fill="#3f3d56"/>
  <path id="Path_16415" data-name="Path 16415" d="M752.047,437.817c-.053.226-.253.465-.7.691-1.62.81-4.913-.216-4.913-.216s-2.538-.432-2.538-1.566a2.022,2.022,0,0,1,.222-.132c.681-.36,2.939-1.249,6.942.038a1.669,1.669,0,0,1,.761.5.8.8,0,0,1,.229.687Z" transform="translate(-657.389 -375.926)" fill="#3f3d56"/>
  <path id="Path_16416" data-name="Path 16416" d="M753.3,437.817a5.5,5.5,0,0,1-5.563-.443,3.983,3.983,0,0,0-2.369-.78c.681-.36,2.939-1.249,6.942.038a1.669,1.669,0,0,1,.761.5A.8.8,0,0,1,753.3,437.817Z" transform="translate(-658.647 -375.926)" opacity="0.1"/>
  <ellipse id="Ellipse_3721" data-name="Ellipse 3721" cx="0.702" cy="0.216" rx="0.702" ry="0.216" transform="translate(91.47 61.016)" fill="#f2f2f2"/>
  <path id="Path_16417" data-name="Path 16417" d="M391.118,415.2v.54H362.071V415.3l.04-.108Z" transform="translate(-307.638 -352.777)" opacity="0.1"/>
  <circle id="Ellipse_3722" data-name="Ellipse 3722" cx="5.75" cy="5.75" r="5.75" transform="translate(53.579 17.687)" fill="#ffb9b9"/>
  <path id="Path_16419" data-name="Path 16419" d="M534.957,207.385v9.079h9.381s-1.211-7.566-.605-9.835Z" transform="translate(-479.865 -181.073)" fill="#ffb9b9"/>
  <path id="Path_16420" data-name="Path 16420" d="M486.865,250.7s-8.927-4.388-8.927-4.691-.908-2.27-1.513-2.27-5.75-1.664-8.625.757l-.3,1.967-11.046,7.263,3.026,11.046s1.967,2.118,1.362,3.632.454,9.23.454,9.23l23.756-.757V266.583a24.01,24.01,0,0,1,1.211-3.178c.454-.757,0-3.026,0-3.026l3.632-4.539S489.437,251.6,486.865,250.7Z" transform="translate(-413.161 -212.127)" fill="#d0cde1"/>
  <path id="Path_16421" data-name="Path 16421" d="M442.94,317.024l.681-3.707s-3.934,17.1-3.48,19.065,3.783,4.993,4.237,5.145,4.691-13.013,4.691-13.013Z" transform="translate(-399.272 -271.722)" opacity="0.1"/>
  <path id="Path_16422" data-name="Path 16422" d="M439.148,310.3l-2.572.454s-3.934,17.1-3.48,19.065,3.783,4.993,4.237,5.145,4.691-13.013,4.691-13.013Z" transform="translate(-393.286 -269.156)" fill="#d0cde1"/>
  <path id="Path_16423" data-name="Path 16423" d="M640.774,329.9l1.286-2.5s1.816,17.1.605,18.763-6,2.287-6,2.287l-.054-12.425Z" transform="translate(-566.238 -283.695)" opacity="0.1"/>
  <path id="Path_16424" data-name="Path 16424" d="M646.132,314.323l1.967,1.967s1.816,17.1.605,18.763-6,2.287-6,2.287l-.054-12.425Z" transform="translate(-571.369 -272.577)" fill="#d0cde1"/>
  <path id="Path_16425" data-name="Path 16425" d="M440.679,484.977s-4.388-1.664-5.145,1.513,1.816,17.4,1.816,17.4,1.664,10.743,2.724,11.046,5.75.454,6.507-.908-2.27-15.283-2.27-15.283l17.552-.3s-1.059,12.105-1.664,13.164-.605,4.691,0,4.691,7.263-.3,7.717-1.211,3.026-21.335,3.026-21.335,2.118-7.112-.3-6.658S440.679,484.977,440.679,484.977Z" transform="translate(-395.27 -417.205)" fill="#3f3d56"/>
  <path id="Path_16426" data-name="Path 16426" d="M609.3,681.045s1.513-1.059,2.27,0,1.059,2.27-2.27,4.085-5.9,1.362-5.9,1.059V681.8Z" transform="translate(-538.017 -583.767)" fill="#2f2e41"/>
  <path id="Path_16427" data-name="Path 16427" d="M452.918,678.025s-1.513-1.059-2.27,0-1.059,2.27,2.27,4.086,5.9,1.362,5.9,1.059v-4.388Z" transform="translate(-407.812 -581.201)" fill="#2f2e41"/>
  <path id="Path_16428" data-name="Path 16428" d="M526.436,144.3a4.863,4.863,0,0,0-1.689.241,6.531,6.531,0,0,0-1.2.637l-2.538,1.579a1.189,1.189,0,0,0-.716,1.108l-.317,2.376a3.093,3.093,0,0,0,.115,1.783,4.915,4.915,0,0,0,1,1.125,4.128,4.128,0,0,1,1.088,2.114c.182.992.065,2.186.85,2.819a2.667,2.667,0,0,0,1.549.439,23.12,23.12,0,0,0,4.465-.172,1.777,1.777,0,0,0,.675-.189,1.853,1.853,0,0,0,.592-.7,6.309,6.309,0,0,0,1.145-3.111,3.325,3.325,0,0,1,.121-1.634,6.386,6.386,0,0,1,.457-.593,3.276,3.276,0,0,0,.447-1.622c.171-1.805-.008-3.179-1.338-4.451A6.892,6.892,0,0,0,526.436,144.3Z" transform="translate(-467.07 -128.109)" fill="#2f2e41"/>
  <path id="Path_16429" data-name="Path 16429" d="M272.4,569.7l-5.05,25.671h2.525l4.84-25.25Z" transform="translate(-227.154 -484.055)" fill="#2f2e41"/>
  <path id="Path_16430" data-name="Path 16430" d="M408.708,578.943l3.156,29.458h2.1l-1.894-30.3Z" transform="translate(-347.264 -491.191)" fill="#2f2e41"/>
  <path id="Path_16431" data-name="Path 16431" d="M466.093,575.723l4.419,19.569h2.1l-4.208-19.99Z" transform="translate(-396.022 -488.813)" fill="#2f2e41"/>
  <path id="Path_16432" data-name="Path 16432" d="M350.555,578.1l-.631,15.571h1.683L352.87,578.1Z" transform="translate(-297.317 -491.191)" fill="#2f2e41"/>
  <path id="Path_16433" data-name="Path 16433" d="M442.357,455.752s-3.367-22.515,6.1-23.146,22.935,0,22.935,0,7.785-.631,5.471,23.146c0,0,2.1,6.944-16.833,6.312S442.357,455.752,442.357,455.752Z" transform="translate(-400.692 -372.84)" fill="#131f51"/>
  <path id="Path_16434" data-name="Path 16434" d="M960.574,598.891c0,3.926-2.334,5.3-5.213,5.3s-5.213-1.371-5.213-5.3,5.213-8.921,5.213-8.921S960.574,594.964,960.574,598.891Z" transform="translate(-832.636 -506.784)" fill="#131f51"/>
  <path id="Path_16435" data-name="Path 16435" d="M803.272,563.658l2.222-4.065-2.214,3.549.024-1.477,1.531-2.941-1.525,2.55.043-2.657,1.64-2.341L803.36,558.2l.027-4.872-.162,6.174-1.661-2.542,1.641,3.063-.155,2.968,0-.079-1.922-2.685,1.916,2.964-.019.371,0,.006,0,.03-.394,3.96h.527l.063-.32,1.912-2.957-1.907,2.664Z" transform="translate(-680.684 -470.141)" fill="#3f3d56"/>
  <path id="Path_16436" data-name="Path 16436" d="M794.266,653.241h-6.215l-1.606-9.078h9.078Z" transform="translate(-668.213 -547.321)" fill="#2f2e41"/>
  <rect id="Rectangle_4733" data-name="Rectangle 4733" width="12.929" height="15.158" transform="translate(21.799 44.545)" fill="#3f3d56"/>
  <rect id="Rectangle_4734" data-name="Rectangle 4734" width="8.917" height="10.454" transform="translate(23.805 46.897)" fill="#f2f2f2"/>
  <g id="Group_16225" data-name="Group 16225" transform="translate(34.348 2.941)">
    <g id="Logo" transform="translate(38.984 28.498)">
      <g id="Logo-2" data-name="Logo">
        <path id="Path_1006" data-name="Path 1006" d="M505.942,773.834h-.007a.4.4,0,0,0-.4.4v1.794a.782.782,0,1,1-1.564,0v-1.794a.4.4,0,0,0-.4-.4h-.01a.381.381,0,0,0-.279.118.385.385,0,0,0-.118.282v1.794a1.586,1.586,0,0,0,3.171,0v-1.794a.385.385,0,0,0-.118-.282A.367.367,0,0,0,505.942,773.834Z" transform="translate(-499.659 -772.571)" fill="#161f4e"/>
        <path id="Path_1007" data-name="Path 1007" d="M527.809,773.834a1.593,1.593,0,0,1-2.351,0,1.579,1.579,0,0,0-1.577,1.577v1.8a.368.368,0,0,0,.118.279.381.381,0,0,0,.279.118h.01a.381.381,0,0,0,.279-.118.367.367,0,0,0,.118-.279v-1.8a.774.774,0,1,1,1.548,0v1.8a.368.368,0,0,0,.118.279.385.385,0,0,0,.282.118h.007a.4.4,0,0,0,.4-.4v-1.8a.776.776,0,1,1,1.551,0v1.8a.4.4,0,0,0,.4.4h.007a.385.385,0,0,0,.282-.118.379.379,0,0,0,.115-.279v-1.8a1.579,1.579,0,0,0-1.577-1.577Z" transform="translate(-517.049 -772.571)" fill="#161f4e"/>
        <path id="Path_1008" data-name="Path 1008" d="M561.037,773.834a1.892,1.892,0,0,0-1.889,1.882v2.846a.4.4,0,0,0,.4.4h.01a.4.4,0,0,0,.4-.4v-1.279a1.59,1.59,0,0,0,1.085.328,1.889,1.889,0,0,0,0-3.778Zm.767,2.65a1.089,1.089,0,1,1,.318-.767A1.046,1.046,0,0,1,561.8,776.484Z" transform="translate(-546.658 -772.571)" fill="#161f4e"/>
        <path id="Path_1009" data-name="Path 1009" d="M585.059,774.24v-.007a.391.391,0,0,0-.115-.282.385.385,0,0,0-.282-.118h-.187a1.393,1.393,0,0,0-1.023.423,1.428,1.428,0,0,0-.423,1.023v1.935a.367.367,0,0,0,.118.279.38.38,0,0,0,.279.118h.01a.381.381,0,0,0,.279-.118.367.367,0,0,0,.118-.279V775.28a.636.636,0,0,1,.187-.456.62.62,0,0,1,.456-.187h.187a.386.386,0,0,0,.282-.118A.38.38,0,0,0,585.059,774.24Z" transform="translate(-566.708 -772.571)" fill="#161f4e"/>
        <path id="Path_1010" data-name="Path 1010" d="M597.472,775.818a.371.371,0,0,0-.38.269,1.071,1.071,0,0,1-.39.525,1.059,1.059,0,0,1-.636.207.931.931,0,0,1-.777-.315q.161-.075,1.089-.5l1.207-.544a.378.378,0,0,0,.21-.223.375.375,0,0,0-.013-.3,1.888,1.888,0,1,0-3.05,2.122,1.889,1.889,0,0,0,3.115-.708.411.411,0,0,0,.026-.141.37.37,0,0,0-.076-.22A.379.379,0,0,0,597.472,775.818Zm-2.492-.085a1.08,1.08,0,0,1,1.085-1.089.923.923,0,0,1,.748.288l-1.833.823Z" transform="translate(-576.066 -772.571)" fill="#161f4e"/>
        <path id="Path_1011" data-name="Path 1011" d="M620.758,775.988a.379.379,0,0,0-.325-.171.371.371,0,0,0-.38.269,1.07,1.07,0,0,1-.39.525,1.058,1.058,0,0,1-.636.207.93.93,0,0,1-.777-.315q.16-.075,1.089-.5l1.207-.544a.378.378,0,0,0,.21-.223.376.376,0,0,0-.013-.3,1.9,1.9,0,0,0-1.715-1.1,1.887,1.887,0,1,0,1.781,2.515.415.415,0,0,0,.026-.141A.371.371,0,0,0,620.758,775.988Zm-2.817-.256a1.081,1.081,0,0,1,1.085-1.089.923.923,0,0,1,.748.288l-1.833.823Z" transform="translate(-595.344 -772.571)" fill="#161f4e"/>
        <path id="Path_1012" data-name="Path 1012" d="M484.653,774.088a.41.41,0,0,0-.342-.4.358.358,0,0,0-.156,0l-1.971.482a.364.364,0,0,0-.266.439h0a.364.364,0,0,0,.439.266l1.477-.361-.007,3.035-.069-.033c-.088-.044-.171-.089-.249-.137a2.653,2.653,0,0,1-.225-.148c-.069-.052-.141-.1-.2-.158s-.128-.117-.191-.174a2.56,2.56,0,0,1-.184-.183c-.059-.065-.117-.135-.174-.205s-.112-.149-.167-.231-.107-.169-.159-.262-.1-.192-.148-.3a.386.386,0,0,0-.2-.2.424.424,0,0,0-.3-.017.363.363,0,0,0-.17.115.381.381,0,0,0-.081.191.429.429,0,0,0,.032.222c.049.111.1.214.152.312s.105.191.161.278.112.17.169.248.116.153.175.224.12.14.182.2.123.128.189.189.132.119.2.175.138.11.21.164.147.1.225.155.16.1.245.146.174.093.267.137.192.084.295.126.2.072.309.105h0l.019.006a.424.424,0,0,0,.224,0,.383.383,0,0,0,.176-.1.364.364,0,0,0,.086-.154.408.408,0,0,0,.025-.139Z" transform="translate(-481.299 -772.439)" fill="#161f4e"/>
        <path id="Path_1013" data-name="Path 1013" d="M497.244,766.752a.423.423,0,1,0-.154-.579A.423.423,0,0,0,497.244,766.752Z" transform="translate(-494.509 -765.963)" fill="#161f4e"/>
      </g>
    </g>
  </g>
</svg>
