<svg xmlns="http://www.w3.org/2000/svg" width="136.865" height="129.7" viewBox="0 0 136.865 129.7">
  <g id="employees" transform="translate(0.043 0.009)">
    <path id="Path_16266" data-name="Path 16266" d="M328.422,170.511A24.7,24.7,0,0,1,317.83,190.8a24.4,24.4,0,0,1-2.889,1.737c-.332.171-.667.333-1.008.486-.307.141-.616.273-.93.4a24.818,24.818,0,0,1-12.272,1.637q-1.081-.128-2.134-.352l-.092-.019a24.158,24.158,0,0,1-4.3-1.337,24.731,24.731,0,1,1,34.212-22.843Z" transform="translate(-279 -145.79)" fill="#f1f1f1"/>
    <path id="Path_16267" data-name="Path 16267" d="M371.047,232.075c-.021-.026-.045-.049-.068-.072a7.129,7.129,0,0,0-10.028-.1c-.015.013-.028.026-.041.038s-.032.03-.047.045a7.126,7.126,0,0,0-2.093,5.048v4.477a.961.961,0,0,0,.959.959h12.364a.961.961,0,0,0,.959-.959v-4.477A7.109,7.109,0,0,0,371.047,232.075Z" transform="translate(-341.799 -211.969)" fill="#2f2e41"/>
    <circle id="Ellipse_3700" data-name="Ellipse 3700" cx="5.236" cy="5.236" r="5.236" transform="translate(19.163 19.982)" fill="#ffb7b7"/>
    <path id="Path_16268" data-name="Path 16268" d="M378.152,240.475l-.618-4.319a.541.541,0,0,0-.19-.339.56.56,0,0,0-.113-.07,10.811,10.811,0,0,0-9.542,0,.522.522,0,0,0-.117.075c-.013.011-.026.023-.038.036a.539.539,0,0,0-.149.322l-.414,4.325a.534.534,0,0,0,.136.409.528.528,0,0,0,.307.166.392.392,0,0,0,.087.009h1.049a.538.538,0,0,0,.484-.307l.454-.972a.318.318,0,0,1,.605.1l.09.716a.535.535,0,0,0,.529.467h6.913a.513.513,0,0,0,.258-.068.54.54,0,0,0,.145-.115.534.534,0,0,0,.124-.426Z" transform="translate(-348.25 -215.702)" fill="#2f2e41"/>
    <path id="Path_16269" data-name="Path 16269" d="M437.567,324.891l1.484,4.967a24.4,24.4,0,0,1-2.889,1.737c-.332.171-.667.333-1.008.486l-1.537-6.589-.6-2.556,3.837-.426Z" transform="translate(-400.221 -284.845)" fill="#ffb7b7"/>
    <path id="Path_16270" data-name="Path 16270" d="M354.989,329.81l-.128,6.711-.055,2.969a24.158,24.158,0,0,1-4.3-1.337l.51-6.357.128-1.6Z" transform="translate(-335.3 -290.589)" fill="#ffb7b7"/>
    <path id="Path_16271" data-name="Path 16271" d="M370.883,307.7l-3.854.578.047.633.465,6.378a24.817,24.817,0,0,1-12.272,1.637q-1.081-.128-2.134-.352c.315-1.326.588-2.52.252-2.754a2.552,2.552,0,0,1-.288-.234c-1.571-1.5-.991-4.882-.991-4.882l-2.85.158-.987.055s.426-6.822,2.345-6.822h2.345l11.3-1.066s3.2-1.066,4.05.426c.448.782,1.245,2.441,1.9,3.843.6,1.275,1.081,2.339,1.081,2.339Z" transform="translate(-333.537 -267.653)" fill="#2f2e41"/>
    <path id="Path_16272" data-name="Path 16272" d="M738.448,170.79a24.7,24.7,0,0,1-10.421,19.9l-.171.119c-.06.043-.121.085-.183.126q-.537.371-1.1.71-.787.48-1.609.9l-.053.026q-.473.243-.955.46l-.03.013c-.075.034-.154.07-.23.1-.595.264-1.2.505-1.82.718q-.79.278-1.6.5a24.244,24.244,0,0,1-3.379.678,24.644,24.644,0,0,1-2.933.2c-.081,0-.162,0-.243,0-.535,0-1.068-.017-1.595-.051-.461-.03-.917-.07-1.369-.126-.7-.083-1.386-.194-2.064-.339-.03,0-.06-.011-.09-.017l-.072-.015c-.682-.143-1.354-.318-2.012-.518q-.931-.281-1.827-.635c-.153-.06-.3-.119-.456-.183-.377-.158-.75-.322-1.117-.5-.107-.049-.211-.1-.315-.151-.354-.173-.7-.354-1.045-.546q-.617-.342-1.213-.718c-.5-.316-.991-.648-1.467-1a24.728,24.728,0,1,1,39.367-19.657Z" transform="translate(-601.627 -145.797)" fill="#f1f1f1"/>
    <path id="Path_16273" data-name="Path 16273" d="M773.233,320.527c-.682-.143-1.354-.318-2.012-.518l2.262-14.025,2.343-.072,4.249-.134,2.179-.068s1.546,6.792,2.724,14.485a24.246,24.246,0,0,1-3.379.678,24.641,24.641,0,0,1-2.933.2c-.081,0-.162,0-.243,0-.535,0-1.068-.017-1.594-.051-.461-.03-.917-.07-1.369-.126-.7-.083-1.386-.194-2.064-.339-.03,0-.06-.011-.089-.017Z" transform="translate(-666.327 -271.626)" fill="#cbcbcb"/>
    <path id="Path_16274" data-name="Path 16274" d="M758.988,320.056c-.03,0-.06-.011-.089-.017l-.072-.015c-.682-.143-1.354-.318-2.012-.518q-.931-.281-1.827-.635c-.153-.06-.3-.119-.456-.183-.377-.158-.75-.322-1.117-.5-.107-.049-.211-.1-.315-.151l-.188-10.5,5.756-2.466s.019.153,2.752.339C761.938,307.106,758.988,320.056,758.988,320.056Z" transform="translate(-651.92 -271.123)" fill="#2f2e41"/>
    <path id="Path_16275" data-name="Path 16275" d="M817.5,305.017l-1.085,5.7.1,5.157q-.473.243-.955.46l-.03.013c-.075.034-.154.07-.23.1-.595.264-1.2.505-1.82.718q-.79.278-1.6.5a24.242,24.242,0,0,1-3.379.678,24.641,24.641,0,0,1-2.933.2l-.113-9.139a8.594,8.594,0,0,1,1.522-6.156,46.215,46.215,0,0,0,5.054-.753l5.481,2.466Z" transform="translate(-693.227 -269.101)" fill="#2f2e41"/>
    <path id="Path_16276" data-name="Path 16276" d="M747.736,317.463l-.39,10.511c-.153-.06-.3-.119-.456-.183-.377-.158-.75-.322-1.117-.5-.107-.049-.211-.1-.315-.151-.354-.173-.7-.354-1.044-.546q-.617-.342-1.213-.718l2.07-9.237Z" transform="translate(-644.28 -280.226)" fill="#2f2e41"/>
    <path id="Path_16277" data-name="Path 16277" d="M855.547,323.153l-.171.119c-.06.043-.121.085-.183.126q-.537.371-1.1.71-.787.48-1.609.9l-.053.026q-.487.25-.984.474h0l-.39-10.548,2.358-.784.109-.036Z" transform="translate(-729.147 -278.259)" fill="#2f2e41"/>
    <ellipse id="Ellipse_3701" data-name="Ellipse 3701" cx="6.097" cy="6.082" rx="6.097" ry="6.082" transform="translate(104.591 28.584) rotate(-73.66)" fill="#9f616a"/>
    <path id="Path_16278" data-name="Path 16278" d="M773.552,234.716v-2.373s-1.914-2.254.191-2.821c0,0,.574-5.677,5.549-3.028,0,0,6.889-1.135,6.123,2.839,0,0,1.722-1.037,1.148,1.612l-1.11,4.268s.536-2.819-1.186-3.2l-.957-.568s-2.679,2.649-6.7-.568c0,0-1.722-.411-1.531,1.292A2.732,2.732,0,0,1,773.552,234.716Z" transform="translate(-667.535 -208.743)" fill="#2f2e41"/>
    <path id="Path_16279" data-name="Path 16279" d="M533.43,520.509A24.7,24.7,0,0,1,522.838,540.8c-.06.043-.121.085-.183.126q-.537.371-1.1.71-.787.48-1.61.9c-.332.171-.667.333-1.008.486-.085.038-.173.079-.26.115-.595.264-1.2.505-1.82.718a24.343,24.343,0,0,1-4.982,1.177,24.8,24.8,0,0,1-3.176.2c-.535,0-1.068-.017-1.595-.051-.46-.03-.917-.07-1.369-.126-.727-.087-1.445-.2-2.153-.356l-.072-.015a24.158,24.158,0,0,1-4.3-1.337c-.377-.158-.75-.322-1.117-.5q-.694-.326-1.36-.7a24.73,24.73,0,1,1,36.689-21.648Z" transform="translate(-440.308 -421.178)" fill="#f1f1f1"/>
    <circle id="Ellipse_3702" data-name="Ellipse 3702" cx="5.522" cy="5.522" r="5.522" transform="translate(62.193 94.382)" fill="#ffb8b8"/>
    <path id="Path_16280" data-name="Path 16280" d="M578.153,664.147c-.727-.087-1.445-.2-2.153-.356l.671-15.11.1-.1,1.375-1.452h4.372l1.614,1.563.136.134,3.451,3.306,1.558,10.812a24.345,24.345,0,0,1-4.982,1.177,24.782,24.782,0,0,1-3.176.2c-.535,0-1.068-.017-1.595-.051C579.061,664.243,578.605,664.2,578.153,664.147Z" transform="translate(-512.722 -540.265)" fill="#cbcbcb"/>
    <path id="Path_16281" data-name="Path 16281" d="M544.975,667.032q-.694-.326-1.36-.7c-.045-4.093-.075-6.811-.075-6.811l.52-.318.019-.009,5.9-3.586,1.239-2.012.006.073.365,4.242a73.917,73.917,0,0,1,2.39,11.449c-.461-.03-.917-.07-1.369-.126-.727-.087-1.445-.2-2.153-.356l-.072-.015a24.153,24.153,0,0,1-4.3-1.337C545.714,667.373,545.341,667.209,544.975,667.032Z" transform="translate(-487.181 -545.356)" fill="#2f2e41"/>
    <path id="Path_16282" data-name="Path 16282" d="M617.973,668.036a24.344,24.344,0,0,1-4.982,1.177,19.455,19.455,0,0,1-.258-4.168c.461-7.361-.6-11.445-.141-11.445l.234.183,2.9,2.289,3.814,1.4h0l2.624.961.463.171v.22c0,.759.006,3.415.045,6.992q-.787.48-1.609.9c-.332.171-.667.333-1.008.486-.085.038-.173.079-.26.115C619.2,667.582,618.591,667.823,617.973,668.036Z" transform="translate(-541.421 -545.356)" fill="#2f2e41"/>
    <path id="Path_16283" data-name="Path 16283" d="M567.073,587.338s.469-.824.36-3.576,4.082-1.2,7.584-1.458,2.761,4.6,2.761,4.6a9.156,9.156,0,0,0,.794-2.633,7.654,7.654,0,0,0-.687-4.681c-.362-2.464-2.311-1.674-2.311-1.674a1.022,1.022,0,0,1,.759,1.147c-.795-1.393-2.744-.6-2.744-.6-2.6-1.632-5.235.517-5.235.517-3.141.713-1.3,3.211-1.3,3.211C563.894,583.777,567.073,587.338,567.073,587.338Z" transform="translate(-504.581 -485.707)" fill="#2f2e41"/>
    <path id="Path_16284" data-name="Path 16284" d="M531.32,685.279c.081-1.874.117-3.082.075-3.251-.22-.878,2.778-2.055,3.05-2.159l.019-.009.61.326.286,7.508q-.694-.326-1.36-.7A24.554,24.554,0,0,1,531.32,685.279Z" transform="translate(-477.566 -566.018)" fill="#2f2e41"/>
    <path id="Path_16285" data-name="Path 16285" d="M646.147,679.977q-.787.48-1.609.9c-.333.171-.667.333-1.008.486-.085.038-.173.079-.26.115l-.959-9.471.561-.409.143.034h0a11.1,11.1,0,0,1,2.624.961,1.645,1.645,0,0,1,.463.39.474.474,0,0,1,.109.337c-.026.247.4,2.592,1.032,5.945Q646.706,679.638,646.147,679.977Z" transform="translate(-564.896 -559.519)" fill="#2f2e41"/>
    <path id="Path_16286" data-name="Path 16286" d="M124.17,337.9H115V296.788h.426v40.683h8.743Z" transform="translate(-90.519 -233.528)" fill="#f1f1f1"/>
    <path id="Path_16287" data-name="Path 16287" d="M493.162,336.49h-9.17v-.426h8.743V295h.426Z" transform="translate(-380.852 -232.121)" fill="#f1f1f1"/>
    <circle id="Ellipse_3703" data-name="Ellipse 3703" cx="5.635" cy="5.635" r="5.635" transform="translate(106.459 42.944)" fill="#131f51"/>
    <path id="Path_16288" data-name="Path 16288" d="M517.255,221.538l-1.687-2.169.981-.763.8,1.027,2.7-2.848.9.855Z" transform="translate(-405.697 -170.58)" fill="#fff"/>
    <circle id="Ellipse_3704" data-name="Ellipse 3704" cx="5.635" cy="5.635" r="5.635" transform="translate(19.059 43.384)" fill="#131f51"/>
    <path id="Path_16289" data-name="Path 16289" d="M107.255,223.6l-1.687-2.169.981-.763.8,1.027,2.7-2.848.9.855Z" transform="translate(-83.098 -172.203)" fill="#fff"/>
    <circle id="Ellipse_3705" data-name="Ellipse 3705" cx="5.635" cy="5.635" r="5.635" transform="translate(62.759 118.42)" fill="#131f51"/>
    <path id="Path_16290" data-name="Path 16290" d="M312.255,575.6l-1.687-2.169.981-.763.8,1.027,2.7-2.848.9.855Z" transform="translate(-244.397 -449.166)" fill="#fff"/>
  </g>
</svg>
