<svg xmlns="http://www.w3.org/2000/svg" width="107.369" height="122.015" viewBox="0 0 107.369 122.015">
  <g id="Group_16" data-name="Group 16" transform="translate(-196.555 -165.087)">
    <path id="Path_204" data-name="Path 204" d="M226.392,307.55a9.672,9.672,0,0,1,0-19.343h88.026a9.672,9.672,0,0,1,0,19.343Z" transform="translate(-20.165 -123.12)" fill="#e6e6e6"/>
    <path id="Path_205" data-name="Path 205" d="M234.13,297.207a8.41,8.41,0,0,0,0,16.82h88.026a8.41,8.41,0,1,0,0-16.82Z" transform="translate(-27.903 -130.858)" fill="#fff"/>
    <rect id="Rectangle_15" data-name="Rectangle 15" width="0.28" height="16.82" transform="translate(232.648 166.348)" fill="#e6e6e6"/>
    <rect id="Rectangle_17" data-name="Rectangle 17" width="0.28" height="16.82" transform="translate(267.55 166.348)" fill="#e6e6e6"/>
    <rect id="Rectangle_7" data-name="Rectangle 7" width="34.622" height="16.82" transform="translate(232.929 166.348)" fill="#131f51"/>
    <path id="Path_198" data-name="Path 198" d="M257.412,206.815a5.144,5.144,0,1,0,5.144,5.144A5.144,5.144,0,0,0,257.412,206.815Zm0,1.543a1.543,1.543,0,1,1-1.543,1.543,1.543,1.543,0,0,1,1.543-1.543Zm0,7.429a3.747,3.747,0,0,1-3.086-1.647c.025-1.029,2.058-1.6,3.086-1.6s3.062.566,3.086,1.6a3.754,3.754,0,0,1-3.086,1.647Z" transform="translate(-7.156 -37.185)" fill="#fff"/>
    <path id="Path_200" data-name="Path 200" d="M601.844,206.815a5.144,5.144,0,1,0,5.144,5.144A5.144,5.144,0,0,0,601.844,206.815Zm0,1.543A1.543,1.543,0,1,1,600.3,209.9,1.543,1.543,0,0,1,601.844,208.358Zm0,7.429a3.747,3.747,0,0,1-3.086-1.647c.025-1.029,2.058-1.6,3.086-1.6s3.062.566,3.086,1.6a3.754,3.754,0,0,1-3.086,1.647Z" transform="translate(-386.491 -37.185)" fill="#e6e6e6"/>
    <path id="Path_242" data-name="Path 242" d="M601.844,206.815a5.144,5.144,0,1,0,5.144,5.144A5.144,5.144,0,0,0,601.844,206.815Zm0,1.543A1.543,1.543,0,1,1,600.3,209.9,1.543,1.543,0,0,1,601.844,208.358Zm0,7.429a3.747,3.747,0,0,1-3.086-1.647c.025-1.029,2.058-1.6,3.086-1.6s3.062.566,3.086,1.6a3.754,3.754,0,0,1-3.086,1.647Z" transform="translate(-316.719 -37.185)" fill="#e6e6e6"/>
    <rect id="Rectangle_9" data-name="Rectangle 9" width="12.002" height="12.002" rx="6" transform="translate(244.254 191.479)" fill="#131f51"/>
    <rect id="Rectangle_12" data-name="Rectangle 12" width="12.002" height="12.002" rx="6" transform="translate(279.125 191.441)" fill="#e6e6e6"/>
    <rect id="Rectangle_13" data-name="Rectangle 13" width="8.744" height="8.744" transform="translate(280.839 193.108)" fill="#fff"/>
    <path id="Path_202" data-name="Path 202" d="M247.786,203.1l-1.516-1.95.882-.686.718.923,2.426-2.56.811.768Z" transform="translate(1.906 -3.757)" fill="#fff"/>
    <path id="Path_203" data-name="Path 203" d="M419.786,203.1l-1.516-1.95.882-.686.718.923,2.425-2.56.811.768Z" transform="translate(-135.167 -3.757)" fill="#e6e6e6"/>
    <rect id="Rectangle_18" data-name="Rectangle 18" width="12.002" height="12.002" rx="6" transform="translate(209.352 191.441)" fill="#e6e6e6"/>
    <rect id="Rectangle_19" data-name="Rectangle 19" width="8.744" height="8.744" transform="translate(211.067 193.108)" fill="#fff"/>
    <path id="Path_243" data-name="Path 243" d="M419.786,203.1l-1.516-1.95.882-.686.718.923,2.425-2.56.811.768Z" transform="translate(-204.939 -3.757)" fill="#e6e6e6"/>
    <g id="Group_16209" data-name="Group 16209" transform="translate(-70.474 36.736)">
      <ellipse id="Ellipse_29" data-name="Ellipse 29" cx="22.447" cy="3.005" rx="22.447" ry="3.005" transform="translate(296.203 244.356)" fill="#e6e6e6"/>
      <g id="Group_15" data-name="Group 15" transform="translate(298.565 170.373)">
        <path id="Path_257" data-name="Path 257" d="M324.459,355.014h-2.2l-1.047-8.488h3.248Z" transform="translate(-289.243 -280.402)" fill="#ffb8b8"/>
        <path id="Path_258" data-name="Path 258" d="M307.271,387.355h4.244v2.671H304.6A2.671,2.671,0,0,1,307.271,387.355Z" transform="translate(-275.829 -313.372)" fill="#2f2e41"/>
        <path id="Path_259" data-name="Path 259" d="M207.664,355.014h-2.2l-1.047-8.488h3.248Z" transform="translate(-194.93 -280.402)" fill="#ffb8b8"/>
        <path id="Path_260" data-name="Path 260" d="M190.478,387.355h4.244v2.671h-6.916a2.671,2.671,0,0,1,2.671-2.671Z" transform="translate(-181.516 -313.372)" fill="#2f2e41"/>
        <path id="Path_261" data-name="Path 261" d="M487.471,213.81v-.963a6.208,6.208,0,0,1,6.208-6.208h0a6.208,6.208,0,0,1,6.208,6.208v.962a4.475,4.475,0,0,1-4.475,4.475h-3.465a4.475,4.475,0,0,1-4.475-4.475Z" transform="translate(-467.387 -202.159)" fill="#2f2e41"/>
        <circle id="Ellipse_36" data-name="Ellipse 36" cx="4.728" cy="4.728" r="4.728" transform="translate(21.564 7.002)" fill="#ffb8b8"/>
        <path id="Path_263" data-name="Path 263" d="M383.708,326.643a1.805,1.805,0,0,1,2.749.323l4.053-.767,1.067,2.349-5.739,1a1.815,1.815,0,0,1-2.129-2.907Z" transform="translate(-383.132 -298.665)" fill="#ffb8b8"/>
        <path id="Path_264" data-name="Path 264" d="M423.908,283.239l.053.08-6.645,4.378L406.1,291.278a.675.675,0,0,0-.464.72l.245,2.107a.674.674,0,0,0,.81.581l10.554-2.262a3.813,3.813,0,0,0,1.419-.625l7.465-5.312a1.92,1.92,0,1,0-2.171-3.167Z" transform="translate(-401.301 -263.804)" fill="#ccc"/>
        <path id="Path_265" data-name="Path 265" d="M453.311,387.264a.87.87,0,0,1-.8-.52l-10.088-24.928a.289.289,0,0,0-.541.03l-8.23,24.268a.866.866,0,0,1-1.132.556l-2.76-1.035a.864.864,0,0,1-.558-.713c-1.242-10.816,9.586-38.118,9.7-38.393l.03-.076,9.87,2.183.021.022c3.938,4.3,7.175,31.391,7.784,36.779a.862.862,0,0,1-.572.914l-2.436.861a.857.857,0,0,1-.286.049Z" transform="translate(-420.256 -315.06)" fill="#2f2e41"/>
        <path id="Path_266" data-name="Path 266" d="M484.925,290.885c-2.391,0-5.058-.477-5.878-2.445l-.019-.045.026-.042c.648-1.063,1.5-2.876,1.044-3.216a3.693,3.693,0,0,1-1.307-3.277,7.9,7.9,0,0,1,5.537-7.215h0a24.562,24.562,0,0,1,2.745-.707,4.674,4.674,0,0,1,3.875.957,4.721,4.721,0,0,1,1.751,3.632c.033,3.49-.5,8.351-3.256,11.688a.856.856,0,0,1-.507.295A23.527,23.527,0,0,1,484.925,290.885Z" transform="translate(-460.375 -256.429)" fill="#ccc"/>
        <path id="Path_267" data-name="Path 267" d="M505.762,344.987a1.839,1.839,0,0,1,2.248-1.283,1.811,1.811,0,0,1,.279.1l3.077-2.8,2.14,1.442-4.4,3.894a1.837,1.837,0,0,1-2.081.883,1.808,1.808,0,0,1-1.262-2.239Z" transform="translate(-482.101 -310.662)" fill="#ffb8b8"/>
        <path id="Path_268" data-name="Path 268" d="M523.907,298.447a.864.864,0,0,1-.548-.2l-1.213-.992a.866.866,0,0,1,.021-1.358l5.09-3.9a.289.289,0,0,0,.055-.4l-3.141-4.153a2.557,2.557,0,0,1,.171-3.294h0a2.55,2.55,0,0,1,3.443-.275l.02.021,3.28,4.7a2.924,2.924,0,0,1-.069,4.655l-6.592,5.031a.869.869,0,0,1-.516.17Z" transform="translate(-495.13 -264.087)" fill="#ccc"/>
        <path id="Path_269" data-name="Path 269" d="M497.965,219.875v-2.346l4.188-1.829,3.993,1.829v2.346a.385.385,0,0,1-.385.385H498.35a.385.385,0,0,1-.385-.385Z" transform="translate(-475.861 -209.475)" fill="#2f2e41"/>
        <circle id="Ellipse_30" data-name="Ellipse 30" cx="2.625" cy="2.625" r="2.625" transform="translate(27.25 1.608)" fill="#2f2e41"/>
        <path id="Path_185" data-name="Path 185" d="M893.489,204.714a2.624,2.624,0,0,1,3.139-2.574,2.624,2.624,0,1,0-1.63,4.947,2.622,2.622,0,0,1-1.508-2.373Z" transform="translate(-866.038 -201.89)" fill="#2f2e41"/>
      </g>
    </g>
  </g>
</svg>
