<svg xmlns="http://www.w3.org/2000/svg" width="151.803" height="96.851" viewBox="0 0 151.803 96.851">
  <g id="Lockers" transform="translate(-148.447)">
    <path id="Path_16330" data-name="Path 16330" d="M301.237,590.283c-5.049-3.291-8.721-9.206-7.97-15.186a27.769,27.769,0,0,0,17.136,8.357c2.515.252,5.339.27,7.125,2.058a6.208,6.208,0,0,1,1.608,4.312,18.435,18.435,0,0,1-.729,4.648l.092.382C312.477,594.632,306.286,593.574,301.237,590.283Z" transform="translate(-141.346 -498.406)" fill="#f0f0f0"/>
    <path id="Path_16331" data-name="Path 16331" d="M293.247,574.786a23.735,23.735,0,0,0,9.419,11.16,10.222,10.222,0,0,0,2.927,1.3,5.862,5.862,0,0,0,3.083-.118,12.134,12.134,0,0,1,2.851-.7,3.589,3.589,0,0,1,2.711,1.127,9.327,9.327,0,0,1,1.865,3.209,9.158,9.158,0,0,0,2.074,3.565c.127.115-.059.3-.185.19-1.821-1.649-2.021-4.3-3.452-6.209a3.635,3.635,0,0,0-2.759-1.619,9.413,9.413,0,0,0-2.908.66,6.255,6.255,0,0,1-3.01.228,9.448,9.448,0,0,1-2.967-1.181,23.025,23.025,0,0,1-5.552-4.579,24.157,24.157,0,0,1-4.352-6.956C292.927,574.7,293.183,574.629,293.247,574.786Z" transform="translate(-141.2 -498.096)" fill="#fff"/>
    <path id="Path_16332" data-name="Path 16332" d="M313.938,620.64a3.561,3.561,0,0,1-4.541.8c-.147-.087-.019-.32.128-.233a3.3,3.3,0,0,0,4.223-.754C313.856,620.322,314.046,620.509,313.938,620.64Z" transform="translate(-153.885 -533.559)" fill="#fff"/>
    <path id="Path_16333" data-name="Path 16333" d="M353.164,614.721a6.864,6.864,0,0,0-2.209-4.488c-.126-.115.059-.305.185-.19a7.139,7.139,0,0,1,2.289,4.675c.014.171-.252.173-.266,0Z" transform="translate(-186.143 -525.489)" fill="#fff"/>
    <path id="Path_16334" data-name="Path 16334" d="M305.607,590.242a2.016,2.016,0,0,0,.75-1.759c-.016-.17.25-.173.266,0a2.259,2.259,0,0,1-.826,1.948.137.137,0,0,1-.188,0A.133.133,0,0,1,305.607,590.242Z" transform="translate(-150.966 -508.69)" fill="#fff"/>
    <path id="Path_16335" data-name="Path 16335" d="M356.9,526.285c.013.106.026.212.041.319a26.542,26.542,0,0,0,.894,4.212c.03.107.062.215.1.321a27.986,27.986,0,0,0,4.813,9.11,27.18,27.18,0,0,0,2.809,3.027,17.692,17.692,0,0,1,3.879,4.214,4.672,4.672,0,0,1,.244.523l-4.308,8.832-.058.047-.156.36-.168-.137-.1-.079c-.021-.018-.042-.036-.063-.05l-.019-.017c-.02-.015-.037-.031-.056-.045q-.476-.4-.948-.8s0,0,0,0a39.959,39.959,0,0,1-6.461-6.893c-.055-.077-.112-.154-.165-.235a25.933,25.933,0,0,1-2.154-3.643,22.929,22.929,0,0,1-.9-2.138,19.065,19.065,0,0,1-1.12-5.854A15.138,15.138,0,0,1,356.7,526.5C356.766,526.43,356.834,526.358,356.9,526.285Z" transform="translate(-187.759 -460.537)" fill="#f0f0f0"/>
    <path id="Path_16336" data-name="Path 16336" d="M367.275,525.986a23.735,23.735,0,0,0,.8,14.581,10.222,10.222,0,0,0,1.556,2.8,5.863,5.863,0,0,0,2.533,1.762,12.135,12.135,0,0,1,2.7,1.154,3.59,3.59,0,0,1,1.486,2.532,9.326,9.326,0,0,1-.443,3.685,9.157,9.157,0,0,0-.491,4.1c.032.168-.231.208-.263.04-.461-2.413.972-4.646.982-7.036a3.635,3.635,0,0,0-1.228-2.954,9.413,9.413,0,0,0-2.72-1.224,6.256,6.256,0,0,1-2.541-1.63,9.449,9.449,0,0,1-1.657-2.729,23.026,23.026,0,0,1-1.676-7,24.157,24.157,0,0,1,.713-8.174C367.072,525.723,367.319,525.822,367.275,525.986Z" transform="translate(-198.027 -460.163)" fill="#fff"/>
    <path id="Path_16337" data-name="Path 16337" d="M357.243,577.23a3.561,3.561,0,0,1-4.108-2.095c-.065-.158.177-.267.242-.109a3.3,3.3,0,0,0,3.825,1.941C357.369,576.927,357.408,577.19,357.243,577.23Z" transform="translate(-187.859 -498.291)" fill="#fff"/>
    <path id="Path_16338" data-name="Path 16338" d="M390.457,593.978a6.864,6.864,0,0,0,.938-4.913c-.031-.168.231-.208.263-.04a7.139,7.139,0,0,1-.987,5.111C390.579,594.28,390.366,594.122,390.457,593.978Z" transform="translate(-216.805 -509.127)" fill="#fff"/>
    <path id="Path_16339" data-name="Path 16339" d="M366.68,547.4a2.016,2.016,0,0,0,1.658-.953c.09-.146.3.012.214.157a2.259,2.259,0,0,1-1.832,1.058.137.137,0,0,1-.151-.111A.133.133,0,0,1,366.68,547.4Z" transform="translate(-198.288 -476.132)" fill="#fff"/>
    <path id="Path_16348" data-name="Path 16348" d="M950.555,593.978a6.864,6.864,0,0,1-.938-4.913c.031-.168-.231-.208-.263-.04a7.139,7.139,0,0,0,.987,5.111C950.432,594.28,950.646,594.122,950.555,593.978Z" transform="translate(-650.327 -509.127)" fill="#fff"/>
    <path id="Path_16350" data-name="Path 16350" d="M362.967,489.107a1.525,1.525,0,0,1-.362-2.311l-2.686-4.708,2.811.182,2.12,4.443a1.534,1.534,0,0,1-1.883,2.394Z" transform="translate(-193.131 -426.249)" fill="#ffb6b6"/>
    <path id="Path_16351" data-name="Path 16351" d="M151.622,398.708h1.86l.885-7.173h-2.745Z" transform="translate(-2.463 -303.756)" fill="#ffb6b6"/>
    <path id="Path_16352" data-name="Path 16352" d="M279.17,653.839h3.662a2.334,2.334,0,0,1,2.334,2.334v.076h-6Z" transform="translate(-130.485 -559.494)" fill="#2f2e41"/>
    <path id="Path_16353" data-name="Path 16353" d="M208.452,398.708h1.859l.885-7.173h-2.745Z" transform="translate(-46.552 -303.756)" fill="#ffb6b6"/>
    <path id="Path_16354" data-name="Path 16354" d="M336,653.839h3.662A2.334,2.334,0,0,1,342,656.172v.076h-6Z" transform="translate(-174.574 -559.494)" fill="#2f2e41"/>
    <path id="Path_16355" data-name="Path 16355" d="M297.331,482.991s.511,7.284-.5,10.952-1.187,25.852-1.187,25.852h-3.377l-2.927-30.2L282.6,519.9l-3.216-.221,1.764-35.708Z" transform="translate(-130.649 -426.949)" fill="#2f2e41"/>
    <path id="Path_16356" data-name="Path 16356" d="M281.554,366.954l2.581-1.884,4.325.942,1.171,2.782,2.018,1a4.573,4.573,0,0,1,2.495,3.442l2.882,19.9-16.867-.652-2.042-23.441a1.838,1.838,0,0,1,1.724-1.994Z" transform="translate(-129.662 -335.466)" fill="#3f3d56"/>
    <path id="Path_16357" data-name="Path 16357" d="M213.6,160.059l1.558,2.1,6.785,20.7-3.181,1.273-5.093-9.644Z" transform="translate(-50.546 -124.175)" fill="#3f3d56"/>
    <circle id="Ellipse_3716" data-name="Ellipse 3716" cx="3.767" cy="3.767" r="3.767" transform="translate(153.639 21.087)" fill="#ffb9b9"/>
    <path id="Path_16358" data-name="Path 16358" d="M151.778,180l6.148,8.551,6.872,4.481Z" transform="translate(-2.584 -139.643)" opacity="0.1"/>
    <path id="Path_16359" data-name="Path 16359" d="M300.257,329.9a2.789,2.789,0,0,1-.431-1.669c.1-.577.762-1.079,1.272-.793a1.747,1.747,0,0,1,1.939-1.012c.789.088,1.516.469,2.294.633a2.008,2.008,0,0,0,2.142-.64l-1.005-.017,1.047-1.214-1.213-.091a1.312,1.312,0,0,0-.1-1.69,2.994,2.994,0,0,0-1.627-.825,9.064,9.064,0,0,0-3.664-.084,4.762,4.762,0,0,0-1.628.566,3.238,3.238,0,0,0-1.138,1.18,3.9,3.9,0,0,0-.462,1.775,4.965,4.965,0,0,0,2.188,4.223" transform="translate(-144.847 -302.318)" fill="#2f2e41"/>
    <path id="Path_16360" data-name="Path 16360" d="M514.545,329.87H397.632a4.546,4.546,0,0,1-4.541-4.541V237.56a4.546,4.546,0,0,1,4.541-4.541H514.545a4.546,4.546,0,0,1,4.541,4.541v87.769A4.546,4.546,0,0,1,514.545,329.87Z" transform="translate(-218.865 -233.019)" fill="#f2f2f2"/>
    <path id="Path_16361" data-name="Path 16361" d="M729.5,389.494H711.449a3.363,3.363,0,0,1,0-6.726H729.5a3.363,3.363,0,1,1,0,6.726Z" transform="translate(-463.242 -349.196)" fill="#fff"/>
    <path id="Path_16362" data-name="Path 16362" d="M714.079,445.235h-4.26a1.233,1.233,0,0,1,0-2.466h4.26a1.233,1.233,0,0,1,0,2.466Z" transform="translate(-463.63 -395.744)" fill="#fff"/>
    <path id="Path_16363" data-name="Path 16363" d="M793.079,445.235h-4.26a1.233,1.233,0,1,1,0-2.466h4.26a1.233,1.233,0,1,1,0,2.466Z" transform="translate(-524.919 -395.744)" fill="#fff"/>
    <path id="Path_16364" data-name="Path 16364" d="M753.079,445.235h-4.26a1.233,1.233,0,1,1,0-2.466h4.26a1.233,1.233,0,0,1,0,2.466Z" transform="translate(-493.886 -395.744)" fill="#fff"/>
    <path id="Path_16365" data-name="Path 16365" d="M714.079,466.235h-4.26a1.233,1.233,0,0,1,0-2.466h4.26a1.233,1.233,0,1,1,0,2.466Z" transform="translate(-463.63 -412.036)" fill="#fff"/>
    <path id="Path_16366" data-name="Path 16366" d="M793.079,466.235h-4.26a1.233,1.233,0,1,1,0-2.466h4.26a1.233,1.233,0,1,1,0,2.466Z" transform="translate(-524.919 -412.036)" fill="#fff"/>
    <path id="Path_16367" data-name="Path 16367" d="M753.079,466.235h-4.26a1.233,1.233,0,1,1,0-2.466h4.26a1.233,1.233,0,0,1,0,2.466Z" transform="translate(-493.886 -412.036)" fill="#fff"/>
    <path id="Path_16368" data-name="Path 16368" d="M714.079,487.235h-4.26a1.233,1.233,0,0,1,0-2.466h4.26a1.233,1.233,0,1,1,0,2.466Z" transform="translate(-463.63 -428.328)" fill="#fff"/>
    <path id="Path_16369" data-name="Path 16369" d="M793.079,487.235h-4.26a1.233,1.233,0,1,1,0-2.466h4.26a1.233,1.233,0,1,1,0,2.466Z" transform="translate(-524.919 -428.328)" fill="#fff"/>
    <path id="Path_16370" data-name="Path 16370" d="M753.079,487.235h-4.26a1.233,1.233,0,1,1,0-2.466h4.26a1.233,1.233,0,0,1,0,2.466Z" transform="translate(-493.886 -428.328)" fill="#fff"/>
    <path id="Path_16371" data-name="Path 16371" d="M714.079,508.235h-4.26a1.233,1.233,0,1,1,0-2.466h4.26a1.233,1.233,0,1,1,0,2.466Z" transform="translate(-463.63 -444.62)" fill="#fff"/>
    <path id="Path_16372" data-name="Path 16372" d="M793.079,508.235h-4.26a1.233,1.233,0,1,1,0-2.466h4.26a1.233,1.233,0,1,1,0,2.466Z" transform="translate(-524.919 -444.62)" fill="#fff"/>
    <path id="Path_16373" data-name="Path 16373" d="M753.079,508.235h-4.26a1.233,1.233,0,1,1,0-2.466h4.26a1.233,1.233,0,1,1,0,2.466Z" transform="translate(-493.886 -444.62)" fill="#fff"/>
    <circle id="Ellipse_3717" data-name="Ellipse 3717" cx="11.434" cy="11.434" r="11.434" transform="translate(210.207 35.815)" fill="#cacaca"/>
    <path id="Path_16374" data-name="Path 16374" d="M592.95,409.293a3.367,3.367,0,0,1-3.363-3.363v-21.3a3.363,3.363,0,1,1,6.726,0v21.3A3.367,3.367,0,0,1,592.95,409.293Z" transform="translate(-371.309 -348.032)" fill="#fff"/>
    <path id="Path_16375" data-name="Path 16375" d="M725.41,403.225h-3.139a.448.448,0,1,1,0-.9h3.139a.448.448,0,0,1,0,.9Z" transform="translate(-473.898 -364.37)" fill="#e4e4e4"/>
    <path id="Path_16376" data-name="Path 16376" d="M747.41,403.725h-3.139a.448.448,0,0,1,0-.9h3.139a.448.448,0,1,1,0,.9Z" transform="translate(-490.966 -364.758)" fill="#e4e4e4"/>
    <path id="Path_16377" data-name="Path 16377" d="M769.41,404.225h-3.139a.448.448,0,0,1,0-.9h3.139a.448.448,0,0,1,0,.9Z" transform="translate(-508.034 -365.146)" fill="#e4e4e4"/>
    <path id="Path_16378" data-name="Path 16378" d="M791.41,404.725h-3.139a.448.448,0,1,1,0-.9h3.139a.448.448,0,0,1,0,.9Z" transform="translate(-525.102 -365.534)" fill="#e4e4e4"/>
    <path id="Path_16379" data-name="Path 16379" d="M443.093,351.371a4.191,4.191,0,0,0,1.247,2.984h-1.852a4.161,4.161,0,0,1-4.161-4.161V282.739a4.161,4.161,0,0,1,4.161-4.161h2.7a4.2,4.2,0,0,0-2.09,3.632Z" transform="translate(-253.96 -268.364)" fill="#cacaca"/>
    <path id="Path_16382" data-name="Path 16382" d="M368.544,353.363q-2.125-.6-4.266-1.1a121.851,121.851,0,0,0-14.817-2.583,3.315,3.315,0,0,0-4.042,2.334l-2.491,9.192a3.313,3.313,0,0,0,2.329,4.06l.034.007c3.3.374,6.623.895,9.932,1.558.3.058.59.119.886.182q1.591.33,3.172.7c.462.108.921.22,1.383.334q1.863.464,3.728.989,2.075.585,4.152,1.249c.15.045.3.092.448.141v-.473l-.448-.141q-1.91-.609-3.816-1.146-.713-.205-1.426-.4-1.285-.346-2.562-.664-.679-.171-1.356-.33l-.1-.025q-1.154-.272-2.311-.52c-.3-.063-.592-.126-.888-.186-3.569-.74-7.165-1.316-10.723-1.72a2.865,2.865,0,0,1-2-3.5l2.491-9.194a2.862,2.862,0,0,1,3.509-2.011l.034,0a121.46,121.46,0,0,1,14.631,2.538c.049.013.1.025.148.036q2.193.525,4.372,1.134c.148.04.3.083.448.128v-.466C368.845,353.446,368.694,353.4,368.544,353.363Z" transform="translate(-179.859 -323.438)" fill="#6c63ff"/>
    <path id="Path_16384" data-name="Path 16384" d="M365.1,395.592l-6.235-.735a1.682,1.682,0,1,0-.395,3.34l6.235.735a1.682,1.682,0,1,0,.395-3.34Zm1.027,1.816a1.234,1.234,0,0,1-1.37,1.078l-6.235-.735a1.233,1.233,0,0,1,.289-2.448l6.235.735A1.237,1.237,0,0,1,366.125,397.408Z" transform="translate(-190.854 -358.565)" fill="#6c63ff"/>
    <path id="Path_16387" data-name="Path 16387" d="M374.75,410.2q-2.646.552-5.257,1.222-.975.249-1.944.516-1.157.319-2.314.661-1.476.437-2.948.915l-.859.282c-2.728.91-5.439,1.919-8.1,3.02a3.315,3.315,0,0,0-2.419,3.993l2.249,9.255a3.313,3.313,0,0,0,4,2.435l.031-.011a119.669,119.669,0,0,1,13.436-4.6q2.045-.568,4.132-1.072c.15-.036.3-.072.448-.105v-.462l-.448.108-.338.081q-1.977.481-3.912,1.018l-.1.029a119.572,119.572,0,0,0-13.369,4.585,2.867,2.867,0,0,1-3.439-2.11l-2.246-9.255a2.863,2.863,0,0,1,2.1-3.455l.034-.011c2.9-1.2,5.858-2.291,8.835-3.26.287-.094.574-.186.861-.278q1.056-.333,2.114-.648,1.116-.333,2.231-.641l.148-.04q1.09-.3,2.186-.578,2.431-.619,4.9-1.137c.148-.031.3-.063.448-.092v-.455C375.048,410.135,374.9,410.166,374.75,410.2Z" transform="translate(-186.065 -370.406)" fill="#6c63ff"/>
    <path id="Path_16389" data-name="Path 16389" d="M381.772,472.717a1.683,1.683,0,0,0-2.19-.926l-5.818,2.358a1.682,1.682,0,0,0,1.264,3.116l5.818-2.358A1.685,1.685,0,0,0,381.772,472.717Zm-1.094,1.773-5.818,2.361a1.234,1.234,0,1,1-.928-2.287l5.818-2.359a1.233,1.233,0,0,1,.928,2.285Z" transform="translate(-203.057 -418.165)" fill="#6c63ff"/>
    <path id="Path_16391" data-name="Path 16391" d="M457.587,293.583V315.96c.15-.049.3-.1.448-.141V293.787C457.885,293.718,457.737,293.65,457.587,293.583Zm0,0V315.96c.15-.049.3-.1.448-.141V293.787C457.885,293.718,457.737,293.65,457.587,293.583Zm0,0V315.96c.15-.049.3-.1.448-.141V293.787C457.885,293.718,457.737,293.65,457.587,293.583Zm0,1.634V321c.15-.036.3-.07.448-.1V295.345C457.885,295.3,457.735,295.258,457.587,295.217Zm0,0V321c.15-.036.3-.07.448-.1V295.345C457.885,295.3,457.735,295.258,457.587,295.217Zm0,0V321c.15-.036.3-.07.448-.1V295.345C457.885,295.3,457.735,295.258,457.587,295.217Zm0,0V321c.15-.036.3-.07.448-.1V295.345C457.885,295.3,457.735,295.258,457.587,295.217Zm0,0v26.018c.15-.036.3-.072.448-.105V295.345C457.885,295.3,457.735,295.258,457.587,295.217Zm97.8-21.2h-93.15a4.662,4.662,0,0,0-4.654,4.654v69.161a4.66,4.66,0,0,0,4.654,4.652h93.15a4.658,4.658,0,0,0,4.652-4.652V278.672a4.658,4.658,0,0,0-4.652-4.654Zm4.2,73.815a4.208,4.208,0,0,1-4.2,4.2h-93.15a4.21,4.21,0,0,1-4.206-4.2V278.672a4.212,4.212,0,0,1,4.206-4.206h93.15a4.208,4.208,0,0,1,4.2,4.206ZM457.587,295.217v25.558l.448-.108V295.345C457.885,295.3,457.735,295.258,457.587,295.217Zm0,0V321c.15-.036.3-.07.448-.1V295.345C457.885,295.3,457.735,295.258,457.587,295.217Zm0,0V321c.15-.036.3-.07.448-.1V295.345C457.885,295.3,457.735,295.258,457.587,295.217Zm0,0V321c.15-.036.3-.07.448-.1V295.345C457.885,295.3,457.735,295.258,457.587,295.217Zm0-1.634V315.96c.15-.049.3-.1.448-.141V293.787C457.885,293.718,457.737,293.65,457.587,293.583Zm0,0V315.96c.15-.049.3-.1.448-.141V293.787C457.885,293.718,457.737,293.65,457.587,293.583Z" transform="translate(-268.902 -264.826)" fill="#acacac"/>
    <path id="Path_16392" data-name="Path 16392" d="M345.187,453.135a1.525,1.525,0,0,0-2.24-.673l-4.3-3.3-.2,2.809,4.113,2.705a1.533,1.533,0,0,0,2.628-1.539Z" transform="translate(-176.472 -400.702)" fill="#ffb6b6"/>
    <path id="Path_16393" data-name="Path 16393" d="M281.264,375.682l-1.414-.668s-2.278.641-1.171,3.654l6.7,12.479,8.178,4.788,2.549-2.259-8.184-6.476Z" transform="translate(-129.868 -343.18)" fill="#3f3d56"/>
  </g>
</svg>
