<svg xmlns="http://www.w3.org/2000/svg" width="168.522" height="139.302" viewBox="0 0 168.522 139.302">
  <g id="Group_16247" data-name="Group 16247" transform="translate(-489 -882.127)">
    <circle id="Ellipse_3727" data-name="Ellipse 3727" cx="1.988" cy="1.988" r="1.988" transform="translate(612.042 882.127)" fill="#f2f2f2"/>
    <circle id="Ellipse_3728" data-name="Ellipse 3728" cx="1.988" cy="1.988" r="1.988" transform="translate(612.042 890.051)" fill="#f2f2f2"/>
    <circle id="Ellipse_3729" data-name="Ellipse 3729" cx="1.988" cy="1.988" r="1.988" transform="translate(620.343 882.127)" fill="#f2f2f2"/>
    <circle id="Ellipse_3730" data-name="Ellipse 3730" cx="1.988" cy="1.988" r="1.988" transform="translate(620.343 890.051)" fill="#f2f2f2"/>
    <circle id="Ellipse_3731" data-name="Ellipse 3731" cx="1.988" cy="1.988" r="1.988" transform="translate(628.644 882.127)" fill="#f2f2f2"/>
    <circle id="Ellipse_3732" data-name="Ellipse 3732" cx="1.988" cy="1.988" r="1.988" transform="translate(628.644 890.051)" fill="#f2f2f2"/>
    <circle id="Ellipse_3733" data-name="Ellipse 3733" cx="1.988" cy="1.988" r="1.988" transform="translate(628.644 897.974)" fill="#f2f2f2"/>
    <circle id="Ellipse_3734" data-name="Ellipse 3734" cx="1.988" cy="1.988" r="1.988" transform="translate(628.644 905.897)" fill="#f2f2f2"/>
    <circle id="Ellipse_3735" data-name="Ellipse 3735" cx="1.988" cy="1.988" r="1.988" transform="translate(636.944 882.127)" fill="#f2f2f2"/>
    <circle id="Ellipse_3736" data-name="Ellipse 3736" cx="1.988" cy="1.988" r="1.988" transform="translate(636.944 890.051)" fill="#f2f2f2"/>
    <circle id="Ellipse_3737" data-name="Ellipse 3737" cx="1.988" cy="1.988" r="1.988" transform="translate(636.944 897.974)" fill="#f2f2f2"/>
    <circle id="Ellipse_3738" data-name="Ellipse 3738" cx="1.988" cy="1.988" r="1.988" transform="translate(636.944 905.897)" fill="#f2f2f2"/>
    <circle id="Ellipse_3739" data-name="Ellipse 3739" cx="1.988" cy="1.988" r="1.988" transform="translate(645.245 882.127)" fill="#f2f2f2"/>
    <circle id="Ellipse_3740" data-name="Ellipse 3740" cx="1.988" cy="1.988" r="1.988" transform="translate(645.245 890.051)" fill="#f2f2f2"/>
    <circle id="Ellipse_3741" data-name="Ellipse 3741" cx="1.988" cy="1.988" r="1.988" transform="translate(653.546 882.127)" fill="#f2f2f2"/>
    <circle id="Ellipse_3742" data-name="Ellipse 3742" cx="1.988" cy="1.988" r="1.988" transform="translate(521.322 890.051)" fill="#f2f2f2"/>
    <path id="Path_16485" data-name="Path 16485" d="M206.316,674.907H355.789c.127,0,.23-.164.23-.366s-.1-.366-.23-.366H206.316c-.127,0-.23.164-.23.366S206.189,674.907,206.316,674.907Z" transform="translate(282.914 346.522)" fill="#3f3d56"/>
    <path id="Path_16486" data-name="Path 16486" d="M246.516,568.545v.615A3.846,3.846,0,0,0,250.359,573h27.669a3.844,3.844,0,0,0,3.843-3.843v-.615a3.816,3.816,0,0,0-.892-2.459,3.957,3.957,0,0,0-.649-.615s-15.212-.344-15.212-.769h-14.76A3.848,3.848,0,0,0,246.516,568.545Z" transform="translate(254.913 422.339)" fill="#3f3d56"/>
    <rect id="Rectangle_4736" data-name="Rectangle 4736" width="3.997" height="25.824" transform="translate(520.953 1021.014) rotate(180)" fill="#3f3d56"/>
    <path id="Path_16487" data-name="Path 16487" d="M260.021,666.062c0,.432,6.056.167,13.527.167s13.527.265,13.527-.167-6.056-3.856-13.527-3.856S260.021,665.63,260.021,666.062Z" transform="translate(245.56 354.811)" fill="#3f3d56"/>
    <path id="Path_16488" data-name="Path 16488" d="M163.529,408.268H167.3l1.793-14.538h-5.563Z" transform="translate(375.746 609.443)" fill="#a0616a"/>
    <path id="Path_16489" data-name="Path 16489" d="M0,0H11.846V4.577H4.577A4.577,4.577,0,0,1,0,0H0Z" transform="translate(550.312 1021.21) rotate(179.997)" fill="#2f2e41"/>
    <path id="Path_16490" data-name="Path 16490" d="M172.862,399.176l3.6-1.129-2.641-14.408-5.308,1.666Z" transform="translate(372.296 616.431)" fill="#a0616a"/>
    <path id="Path_16491" data-name="Path 16491" d="M0,0H11.846V4.577H4.577A4.577,4.577,0,0,1,0,0H0Z" transform="translate(556.737 1015.642) rotate(162.577)" fill="#2f2e41"/>
    <path id="Path_16492" data-name="Path 16492" d="M319.4,569.388l-6.895-18.1c-1.547.363-14.519,3.234-18.864-1.392-1.489-1.586-1.779-3.883-.863-6.827l2.536-3.186.079,0c.959.05,23.5,1.314,25.044,8.113,1.3,5.732,3.682,16.419,4.38,19.557a1.388,1.388,0,0,1-.865,1.594l-2.773,1.04a1.373,1.373,0,0,1-.483.088,1.387,1.387,0,0,1-1.3-.891Z" transform="translate(223.233 439.527)" fill="#2f2e41"/>
    <path id="Path_16493" data-name="Path 16493" d="M306.4,576.388l-6.895-18.1c-1.547.363-14.519,3.233-18.864-1.392-1.489-1.586-1.779-3.883-.863-6.828l2.536-3.186.079,0c.959.05,23.5,1.314,25.044,8.113,1.3,5.732,3.682,16.419,4.38,19.557a1.388,1.388,0,0,1-.865,1.594l-2.773,1.04a1.373,1.373,0,0,1-.483.088,1.387,1.387,0,0,1-1.3-.891Z" transform="translate(232.236 434.68)" fill="#2f2e41"/>
    <path id="Path_16494" data-name="Path 16494" d="M331.029,506.779a5.9,5.9,0,0,1-5.068-2.881l-2.19-3.709,5.2-2.845,2.21,3.03,14.995-1.58a3.242,3.242,0,0,1,.246-.379h0a3.386,3.386,0,0,1,2.421-1.326,3.349,3.349,0,0,1,2.611.926,3.382,3.382,0,0,1-4.382,5.139,3.208,3.208,0,0,1-.253-.215L332.461,506.6A5.791,5.791,0,0,1,331.029,506.779Z" transform="translate(201.409 469.174)" fill="#a0616a"/>
    <path id="Path_16495" data-name="Path 16495" d="M276.648,493.357a1.386,1.386,0,0,1-.559-1.337c.855-5.639-.129-13.717-1.105-19.5a7.623,7.623,0,0,1,8.473-8.842,24.561,24.561,0,0,1,3.048.6h0a7.562,7.562,0,0,1,5.713,7.522,84.764,84.764,0,0,0,1.481,15.28,1.389,1.389,0,0,1-.256,1.079,1.35,1.35,0,0,1-.952.538c-5.475.559-11.379,3.229-14.411,4.77a1.383,1.383,0,0,1-.63.154A1.362,1.362,0,0,1,276.648,493.357Z" transform="translate(235.272 492.348)" fill="#ccc"/>
    <path id="Path_16496" data-name="Path 16496" d="M319.464,484.365a1.374,1.374,0,0,1-.76-.737l-3.053-7.053a3.535,3.535,0,0,1,6.489-2.809l3.053,7.053a1.385,1.385,0,0,1-.72,1.819l-3.95,1.71a1.374,1.374,0,0,1-1.059.017Z" transform="translate(207.236 486.795)" fill="#ccc"/>
    <circle id="Ellipse_3745" data-name="Ellipse 3745" cx="7.551" cy="7.551" r="7.551" transform="translate(510.616 938.523)" fill="#a0616a"/>
    <path id="Path_16497" data-name="Path 16497" d="M271.615,414.221a1.222,1.222,0,0,1-1.749.1,13.658,13.658,0,0,1-3.9-5.088,9.062,9.062,0,0,1-.008-7.389,10.2,10.2,0,0,1,4.332-4,7.07,7.07,0,0,1,2.105-.89,2.765,2.765,0,0,1,2.2.432,2.319,2.319,0,0,1,.885,2.222,6.873,6.873,0,0,1,3.013-2.262,3.494,3.494,0,0,1,2.322-.156,4.251,4.251,0,0,1,2.339,2.64,5.884,5.884,0,0,1,.386,2.848,3.421,3.421,0,0,1-1.312,2.358,3.7,3.7,0,0,1-3.06.279,23.969,23.969,0,0,0-3.081-.858,2.9,2.9,0,0,0-2.837,1.085,5.255,5.255,0,0,0-.634,2.354l-.467,4.3a5.7,5.7,0,0,1-.393,1.8,1,1,0,0,1-.145.221Z" transform="translate(241.989 538.561)" fill="#2f2e41"/>
    <path id="Path_16498" data-name="Path 16498" d="M344.371,564.24H332.113a1.306,1.306,0,0,1-1.032-.5,1.328,1.328,0,0,1-.248-1.139,31.459,31.459,0,0,0,0-14.611,1.328,1.328,0,0,1,.248-1.139,1.305,1.305,0,0,1,1.032-.5h12.258a1.323,1.323,0,0,1,1.3,1.109,51.5,51.5,0,0,1,0,15.672A1.323,1.323,0,0,1,344.371,564.24Z" transform="translate(196.544 435.048)" fill="#ccc"/>
    <path id="Path_16499" data-name="Path 16499" d="M344.352,565.139v-.36a.923.923,0,0,1,.922-.922h6.433a.923.923,0,0,1,.922.922v.36a.923.923,0,0,1-.922.922h-6.433a.923.923,0,0,1-.922-.922Z" transform="translate(187.156 422.925)" fill="#fff"/>
    <path id="Path_16500" data-name="Path 16500" d="M344.352,577.483v-.36a.923.923,0,0,1,.922-.922h6.433a.923.923,0,0,1,.922.922v.36a.923.923,0,0,1-.922.922h-6.433A.923.923,0,0,1,344.352,577.483Z" transform="translate(187.156 414.375)" fill="#fff"/>
    <path id="Path_16501" data-name="Path 16501" d="M356.559,492.469a1.35,1.35,0,0,1-.252-1.158,31.973,31.973,0,0,0,0-14.851,1.35,1.35,0,0,1,.252-1.158,1.327,1.327,0,0,1,1.048-.508h12.459a1.344,1.344,0,0,1,1.324,1.127,52.338,52.338,0,0,1,0,15.929,1.344,1.344,0,0,1-1.324,1.127H357.607A1.327,1.327,0,0,1,356.559,492.469Z" transform="translate(178.903 484.605)" fill="#131f51"/>
    <path id="Path_16502" data-name="Path 16502" d="M376.468,491.579H369.9a.923.923,0,0,1-.922-.922v-.392a.923.923,0,0,1,.922-.922h6.564a.923.923,0,0,1,.922.922v.392A.923.923,0,0,1,376.468,491.579Z" transform="translate(170.098 474.53)" fill="#fff"/>
    <path id="Path_16503" data-name="Path 16503" d="M376.468,504.126H369.9a.923.923,0,0,1-.922-.922v-.392a.923.923,0,0,1,.922-.922h6.564a.923.923,0,0,1,.922.922v.392A.923.923,0,0,1,376.468,504.126Z" transform="translate(170.098 465.84)" fill="#fff"/>
    <path id="Path_16504" data-name="Path 16504" d="M292.076,517.844a3.388,3.388,0,0,1-2.009-1.893,3.156,3.156,0,0,1-.11-.313l-16.086-4.579a3.345,3.345,0,0,1-2.417-3.18l-.039-6.211,5.929.159.386,3.73,13.755,6.175a3.246,3.246,0,0,1,.4-.2h0a3.385,3.385,0,1,1,.187,6.315Z" transform="translate(237.669 465.994)" fill="#a0616a"/>
    <path id="Path_16505" data-name="Path 16505" d="M270.934,483.525a1.374,1.374,0,0,1-.344-1l.472-7.671a3.535,3.535,0,1,1,7.057.434l-.472,7.671a1.385,1.385,0,0,1-1.466,1.3l-4.3-.264a1.374,1.374,0,0,1-.952-.464Z" transform="translate(238.243 486.864)" fill="#ccc"/>
    <path id="Path_16506" data-name="Path 16506" d="M433.585,302.4h-25.21a2.77,2.77,0,0,1-2.767-2.767V272.275a2.77,2.77,0,0,1,2.767-2.767h25.21a2.77,2.77,0,0,1,2.767,2.767v27.362A2.77,2.77,0,0,1,433.585,302.4Zm-25.21-32.281a2.154,2.154,0,0,0-2.152,2.152v27.362a2.154,2.154,0,0,0,2.152,2.152h25.21a2.154,2.154,0,0,0,2.152-2.152V272.275a2.154,2.154,0,0,0-2.152-2.152Z" transform="translate(144.731 626.781)" fill="#3f3d56"/>
    <path id="Path_16507" data-name="Path 16507" d="M583.585,302.4h-25.21a2.77,2.77,0,0,1-2.767-2.767V272.275a2.77,2.77,0,0,1,2.767-2.767h25.21a2.77,2.77,0,0,1,2.767,2.767v27.362A2.77,2.77,0,0,1,583.585,302.4Zm-25.21-32.281a2.154,2.154,0,0,0-2.152,2.152v27.362a2.154,2.154,0,0,0,2.152,2.152h25.21a2.154,2.154,0,0,0,2.152-2.152V272.275a2.154,2.154,0,0,0-2.152-2.152Z" transform="translate(40.846 626.781)" fill="#3f3d56"/>
    <path id="Path_16508" data-name="Path 16508" d="M422.466,294.734h-2.459a1.385,1.385,0,0,1-1.383-1.383v-2.459a1.385,1.385,0,0,1,1.383-1.383h2.459a1.385,1.385,0,0,1,1.383,1.383v2.459A1.385,1.385,0,0,1,422.466,294.734Z" transform="translate(135.718 612.929)" fill="#131f51"/>
    <path id="Path_16509" data-name="Path 16509" d="M422.466,319.734h-2.459a1.385,1.385,0,0,1-1.383-1.383v-2.459a1.385,1.385,0,0,1,1.383-1.383h2.459a1.385,1.385,0,0,1,1.383,1.383v2.459A1.385,1.385,0,0,1,422.466,319.734Z" transform="translate(135.718 595.615)" fill="#ccc"/>
    <path id="Path_16510" data-name="Path 16510" d="M461.649,296.607H450.166a.923.923,0,0,1-.922-.922v-.392a.923.923,0,0,1,.922-.922h11.482a.923.923,0,0,1,.922.922v.392A.923.923,0,0,1,461.649,296.607Z" transform="translate(114.511 609.562)" fill="#131f51"/>
    <path id="Path_16511" data-name="Path 16511" d="M573.156,293.166H570.7a1.385,1.385,0,0,1-1.383-1.383v-2.459a1.385,1.385,0,0,1,1.383-1.383h2.459a1.385,1.385,0,0,1,1.383,1.383v2.459A1.385,1.385,0,0,1,573.156,293.166Z" transform="translate(31.355 614.016)" fill="#ccc"/>
    <path id="Path_16512" data-name="Path 16512" d="M612.338,295.039H600.856a.923.923,0,0,1-.922-.922v-.392a.923.923,0,0,1,.922-.922h11.482a.923.923,0,0,1,.922.922v.392A.923.923,0,0,1,612.338,295.039Z" transform="translate(10.148 610.647)" fill="#ccc"/>
    <path id="Path_16513" data-name="Path 16513" d="M590.176,319.039h-21.32a.923.923,0,0,1-.922-.922v-.392a.923.923,0,0,1,.922-.922h21.32a.923.923,0,0,1,.922.922v.392A.923.923,0,0,1,590.176,319.039Z" transform="translate(32.311 594.026)" fill="#131f51"/>
    <path id="Path_16514" data-name="Path 16514" d="M590.176,336.039h-21.32a.923.923,0,0,1-.922-.922v-.392a.923.923,0,0,1,.922-.922h21.32a.923.923,0,0,1,.922.922v.392A.923.923,0,0,1,590.176,336.039Z" transform="translate(32.311 582.252)" fill="#ccc"/>
    <path id="Path_16515" data-name="Path 16515" d="M590.176,353.039h-21.32a.923.923,0,0,1-.922-.922v-.392a.923.923,0,0,1,.922-.922h21.32a.923.923,0,0,1,.922.922v.392A.923.923,0,0,1,590.176,353.039Z" transform="translate(32.311 570.479)" fill="#ccc"/>
    <path id="Path_16516" data-name="Path 16516" d="M733.585,302.4h-25.21a2.77,2.77,0,0,1-2.767-2.767V272.275a2.77,2.77,0,0,1,2.767-2.767h25.21a2.77,2.77,0,0,1,2.767,2.767v27.362A2.77,2.77,0,0,1,733.585,302.4Zm-25.21-32.281a2.154,2.154,0,0,0-2.152,2.152v27.362a2.154,2.154,0,0,0,2.152,2.152h25.21a2.154,2.154,0,0,0,2.152-2.152V272.275a2.154,2.154,0,0,0-2.152-2.152Z" transform="translate(-195.262 626.781)" fill="#3f3d56"/>
    <path id="Path_16517" data-name="Path 16517" d="M762.338,295.039H750.856a.923.923,0,0,1-.922-.922v-.392a.923.923,0,0,1,.922-.922h11.482a.923.923,0,0,1,.922.922v.392A.923.923,0,0,1,762.338,295.039Z" transform="translate(-225.96 610.647)" fill="#ccc"/>
    <path id="Path_16518" data-name="Path 16518" d="M740.176,319.039h-21.32a.923.923,0,0,1-.922-.922v-.392a.923.923,0,0,1,.922-.922h21.32a.923.923,0,0,1,.922.922v.392A.923.923,0,0,1,740.176,319.039Z" transform="translate(-203.798 594.026)" fill="#ccc"/>
    <path id="Path_16519" data-name="Path 16519" d="M740.176,336.039h-21.32a.923.923,0,0,1-.922-.922v-.392a.923.923,0,0,1,.922-.922h21.32a.923.923,0,0,1,.922.922v.392A.923.923,0,0,1,740.176,336.039Z" transform="translate(-203.798 582.252)" fill="#ccc"/>
    <path id="Path_16520" data-name="Path 16520" d="M740.176,353.039h-21.32a.923.923,0,0,1-.922-.922v-.392a.923.923,0,0,1,.922-.922h21.32a.923.923,0,0,1,.922.922v.392A.923.923,0,0,1,740.176,353.039Z" transform="translate(-203.798 570.479)" fill="#ccc"/>
    <path id="Path_16521" data-name="Path 16521" d="M461.649,321.607H450.166a.923.923,0,0,1-.922-.922v-.392a.923.923,0,0,1,.922-.922h11.482a.923.923,0,0,1,.922.922v.392A.923.923,0,0,1,461.649,321.607Z" transform="translate(114.511 592.247)" fill="#ccc"/>
    <path id="Path_16522" data-name="Path 16522" d="M422.466,344.734h-2.459a1.385,1.385,0,0,1-1.383-1.383v-2.459a1.385,1.385,0,0,1,1.383-1.383h2.459a1.385,1.385,0,0,1,1.383,1.383v2.459A1.385,1.385,0,0,1,422.466,344.734Z" transform="translate(135.718 578.301)" fill="#ccc"/>
    <path id="Path_16523" data-name="Path 16523" d="M461.649,346.607H450.166a.923.923,0,0,1-.922-.922v-.392a.923.923,0,0,1,.922-.922h11.482a.923.923,0,0,1,.922.922v.392A.923.923,0,0,1,461.649,346.607Z" transform="translate(114.511 574.933)" fill="#ccc"/>
    <path id="Path_16524" data-name="Path 16524" d="M730.374,289.227c0-.007,0-.014,0-.021a2.767,2.767,0,0,0-2.767-2.767v2.788Z" transform="translate(-210.499 615.055)" fill="#6c63ff"/>
    <path id="Path_16525" data-name="Path 16525" d="M720.373,290.227v-2.788a2.767,2.767,0,1,0,2.766,2.788Z" transform="translate(-203.571 614.362)" fill="#ccc"/>
  </g>
</svg>
