<svg id="undraw_delivery_truck_vt6p" xmlns="http://www.w3.org/2000/svg" width="190.109" height="79.606" viewBox="0 0 190.109 79.606">
  <g id="Group_16217" data-name="Group 16217" transform="translate(143.255 16.733)">
    <path id="Path_16693" data-name="Path 16693" d="M757.1,105.938V91.114a2.683,2.683,0,0,1,2.681-2.68h9.7a2.683,2.683,0,0,1,2.681,2.68v14.824a2.683,2.683,0,0,1-2.681,2.68h-9.7A2.683,2.683,0,0,1,757.1,105.938Z" transform="translate(-757.098 -88.434)" fill="#131f51"/>
    <rect id="Rectangle_4756" data-name="Rectangle 4756" width="5.126" height="1.282" transform="translate(10.092 6.408) rotate(180)" fill="#131f51"/>
    <rect id="Rectangle_4757" data-name="Rectangle 4757" width="2.563" height="4.165" transform="translate(8.811 4.165) rotate(180)" fill="#131f51"/>
    <rect id="Rectangle_4758" data-name="Rectangle 4758" width="2.563" height="4.165" transform="translate(8.811 20.185) rotate(180)" fill="#131f51"/>
  </g>
  <g id="Group_16218" data-name="Group 16218" transform="translate(118.862 19.778)">
    <path id="Path_16694" data-name="Path 16694" d="M645.686,119.585H630.863a2.683,2.683,0,0,1-2.68-2.68v-9.7a2.683,2.683,0,0,1,2.68-2.68h14.824a2.683,2.683,0,0,1,2.681,2.68v9.7A2.683,2.683,0,0,1,645.686,119.585Z" transform="translate(-628.182 -104.526)" fill="#131f51"/>
    <rect id="Rectangle_4759" data-name="Rectangle 4759" width="5.126" height="1.282" transform="translate(7.85 2.083)" fill="#131f51"/>
    <rect id="Rectangle_4760" data-name="Rectangle 4760" width="2.563" height="4.165" transform="translate(4.165 6.248) rotate(90)" fill="#131f51"/>
    <rect id="Rectangle_4761" data-name="Rectangle 4761" width="2.563" height="4.165" transform="translate(20.185 6.248) rotate(90)" fill="#131f51"/>
  </g>
  <path id="Path_16695" data-name="Path 16695" d="M73.9,134.4l-2.475-14.436a10.866,10.866,0,0,1,10.147-12.687l35.279-1.827,8.42-13.877a6.157,6.157,0,0,1,5.264-2.963h25.349a3.968,3.968,0,0,1,3.935,3.453l.644,11.1,63.2.189,7.95,26.2-7.379-.36.378,7.947-9.65.378-3.217-9.1c-.606-1.713-3.26-3.644-6.019-5.26a14.9,14.9,0,0,0-18.812,2.969A8.489,8.489,0,0,0,184.819,130l-1.46,8.467-70.767-1.135-9.275-12.974c-2.74-2.982-15.675-4.077-16.84,0l-7,10.325L73.9,134.4Z" transform="translate(-57.78 -71.844)" fill="#e6e6e6"/>
  <path id="Path_16696" data-name="Path 16696" d="M387.09,118.9l2.082,9.815-26.49.568,5.595-12.012a2.971,2.971,0,0,1,2.823-1.714l12.694.552A3.527,3.527,0,0,1,387.09,118.9Z" transform="translate(-294.057 -93.687)" fill="#fff"/>
  <path id="Path_16697" data-name="Path 16697" d="M323.412,119.79l5.3-13.624-1.387-1.387L318.682,117.9l1.756,2.649Z" transform="translate(-258.382 -84.953)" fill="#fff"/>
  <circle id="Ellipse_3764" data-name="Ellipse 3764" cx="12.488" cy="12.488" r="12.488" transform="translate(128.417 54.137)" fill="#3f3d56"/>
  <path id="Path_16698" data-name="Path 16698" d="M699.182,315.219a8.609,8.609,0,1,1,8.609,8.609A8.619,8.619,0,0,1,699.182,315.219Zm.189,0a8.42,8.42,0,1,0,8.42-8.42A8.43,8.43,0,0,0,699.371,315.219Z" transform="translate(-566.886 -248.595)" fill="#fff"/>
  <path id="Path_16699" data-name="Path 16699" d="M705.682,320.489a7.379,7.379,0,1,0,7.379-7.379A7.379,7.379,0,0,0,705.682,320.489Zm12.176-1.767-1.307.852-.5-.771Zm-1.99,4.334.348-.852,1.1,1.442Zm-3.348,2.92.92-1.561v1.561Zm0-9.035.92-1.561v1.561Zm-4.088,6.706,1.1-1.442.348.852Zm-.546-4.925,1.81.081-.5.771Z" transform="translate(-572.156 -253.865)" fill="#e6e6e6"/>
  <circle id="Ellipse_3765" data-name="Ellipse 3765" cx="12.488" cy="12.488" r="12.488" transform="translate(23.592 54.137)" fill="#3f3d56"/>
  <path id="Path_16700" data-name="Path 16700" d="M145.182,315.219a8.609,8.609,0,1,1,8.609,8.609A8.619,8.619,0,0,1,145.182,315.219Zm.189,0a8.42,8.42,0,1,0,8.42-8.42A8.43,8.43,0,0,0,145.371,315.219Z" transform="translate(-117.711 -248.595)" fill="#fff"/>
  <path id="Path_16701" data-name="Path 16701" d="M151.682,320.489a7.379,7.379,0,1,0,7.379-7.379A7.379,7.379,0,0,0,151.682,320.489Zm12.176-1.767-1.307.852-.5-.771Zm-1.991,4.334.348-.852,1.1,1.442Zm-3.348,2.92.92-1.561v1.561Zm0-9.035.92-1.561v1.561Zm-4.088,6.706,1.1-1.442.348.852Zm-.546-4.925,1.81.081-.5.771Z" transform="translate(-122.981 -253.865)" fill="#e6e6e6"/>
  <rect id="Rectangle_4762" data-name="Rectangle 4762" width="7.19" height="1.514" transform="translate(95.399 40.04) rotate(180)" fill="#3f3d56"/>
  <g id="Group_16219" data-name="Group 16219" transform="translate(174.967 61.663)">
    <path id="Path_16702" data-name="Path 16702" d="M955.14,355.184c-.067-.205-.575-.115-.624-.3s.439-.336.813-.851c.067-.093.492-.678.329-.924-.309-.467-2.458.7-2.973.043a8.62,8.62,0,0,0-.5-.846c-.134-.182-.22-.27-.323-.267-.146,0-.2.186-.427.517-.344.5-.468.434-.695.84-.168.3-.188.494-.309.506-.172.016-.243-.359-.452-.374s-.428.356-.534.646a2.867,2.867,0,0,0-.049,1.374,3.4,3.4,0,0,1-.529,1.956l-4.615,7.353c.991-1.5,3.8-5.587,4.938-7.086a2.025,2.025,0,0,1,1.22-.949c.521-.079,1.155.179,2.04.164.1,0,.391-.01.461-.163.058-.126-.086-.236-.034-.354.07-.159.385-.091.815-.2a2.345,2.345,0,0,0,.686-.3c.053-.032.848-.513.759-.786Z" transform="translate(-940.553 -347.091)" fill="#f2f2f2"/>
    <path id="Path_16703" data-name="Path 16703" d="M927.193,374.073c-.12-.026-.222.249-.326.22s-.038-.312-.183-.644c-.026-.06-.191-.437-.359-.428-.318.017-.368,1.407-.837,1.472a4.9,4.9,0,0,0-.559,0c-.128.013-.2.03-.224.081-.04.073.034.151.13.359.144.312.078.355.212.583.1.17.188.235.159.3-.042.089-.246.015-.314.114s.051.313.163.449a1.632,1.632,0,0,0,.661.42,1.933,1.933,0,0,1,.807.824l2.277,4.387c-.45-.919-1.644-3.479-2.053-4.468a1.153,1.153,0,0,1-.114-.873c.112-.279.421-.515.669-.954.029-.051.108-.195.053-.273s-.14-.026-.184-.086c-.058-.08.067-.215.139-.457a1.336,1.336,0,0,0,.049-.424c0-.035-.007-.565-.167-.6Z" transform="translate(-924.694 -364.264)" fill="#f2f2f2"/>
    <path id="Path_16704" data-name="Path 16704" d="M949.909,372.689l.072-.661.044-.042a1.222,1.222,0,0,0,.378-.6c.008-.033.013-.067.019-.1a1.034,1.034,0,0,1,.184-.48c.073-.1.267-.319.466-.242a.239.239,0,0,1,.115.092l.02-.02a.727.727,0,0,1,.2-.144.851.851,0,0,0,.169-.108c.034-.027.062-.052.085-.073a.31.31,0,0,1,.282-.107.331.331,0,0,1,.2.242,1.592,1.592,0,0,1,.08.314.488.488,0,0,0,.012.061c.028.072.386.09.52.1.3.016.563.031.626.237.045.148-.049.309-.288.492a1.079,1.079,0,0,1-.213.126.221.221,0,0,1,.073.159h0c0,.165-.165.292-.5.377a1.1,1.1,0,0,1-.345.043,1.282,1.282,0,0,1-.183-.024.218.218,0,0,1-.048.09.327.327,0,0,1-.362.06,2.667,2.667,0,0,1-.453-.18,1.168,1.168,0,0,0-.287-.11.668.668,0,0,0-.455.194l-.417.313h0Z" transform="translate(-945.138 -361.81)" fill="#f2f2f2"/>
    <path id="Path_16705" data-name="Path 16705" d="M943.672,350.576l-.657.1-.051-.032a1.222,1.222,0,0,0-.681-.212c-.034,0-.068,0-.1.007a1.033,1.033,0,0,1-.511-.056c-.113-.046-.376-.177-.352-.389a.239.239,0,0,1,.06-.135l-.024-.014a.725.725,0,0,1-.191-.161.857.857,0,0,0-.148-.136c-.035-.026-.066-.046-.092-.063a.31.31,0,0,1-.175-.246.331.331,0,0,1,.182-.259,1.592,1.592,0,0,1,.283-.157.506.506,0,0,0,.056-.027c.062-.046-.01-.4-.037-.528-.061-.3-.113-.553.071-.666.132-.081.312-.031.549.153a1.081,1.081,0,0,1,.176.174.221.221,0,0,1,.135-.111h0c.159-.046.324.086.492.391a1.1,1.1,0,0,1,.129.323,1.284,1.284,0,0,1,.023.183.218.218,0,0,1,.1.023.327.327,0,0,1,.149.335,2.67,2.67,0,0,1-.06.484,1.166,1.166,0,0,0-.034.305c.018.15.142.261.3.391l.409.324h0Z" transform="translate(-937.709 -343.461)" fill="#f2f2f2"/>
    <path id="Path_16706" data-name="Path 16706" d="M956.674,342.36l.072-.661.044-.042a1.222,1.222,0,0,0,.378-.6c.008-.033.013-.067.019-.1a1.033,1.033,0,0,1,.184-.48c.073-.1.267-.319.466-.242a.24.24,0,0,1,.115.092l.02-.02a.726.726,0,0,1,.2-.144.852.852,0,0,0,.169-.109c.034-.027.062-.052.085-.073a.31.31,0,0,1,.282-.107.331.331,0,0,1,.2.242,1.591,1.591,0,0,1,.08.314.5.5,0,0,0,.012.061c.028.072.386.09.52.1.3.016.564.031.626.237.045.148-.049.309-.288.492a1.079,1.079,0,0,1-.213.126.221.221,0,0,1,.073.159h0c0,.165-.165.292-.5.377a1.1,1.1,0,0,1-.345.043,1.28,1.28,0,0,1-.183-.024.218.218,0,0,1-.048.09.327.327,0,0,1-.362.06,2.667,2.667,0,0,1-.453-.18,1.167,1.167,0,0,0-.287-.11.668.668,0,0,0-.455.194l-.417.313Z" transform="translate(-950.623 -337.219)" fill="#f2f2f2"/>
    <path id="Path_16707" data-name="Path 16707" d="M944.19,353.1l-.116-.115,0-.163,0,.163-.162-.017c0-.015,0-.051,0-.106a23.1,23.1,0,0,1,.1-2.651,26.625,26.625,0,0,1,.447-2.995c.207-1,.422-1.738.594-2.334.13-.449.261-.876.39-1.291a25.144,25.144,0,0,0,.865-3.353,3.206,3.206,0,0,0-.053-1.478,3.038,3.038,0,0,0-.562-1.063l.254-.205a3.371,3.371,0,0,1,.622,1.178,3.512,3.512,0,0,1,.061,1.623,25.406,25.406,0,0,1-.876,3.395c-.128.414-.258.838-.388,1.286-.171.59-.384,1.325-.588,2.309a26.3,26.3,0,0,0-.442,2.958,22.747,22.747,0,0,0-.1,2.615c0,.16,0,.193-.047.245h0Z" transform="translate(-940.271 -335.295)" fill="#f2f2f2"/>
    <path id="Path_16708" data-name="Path 16708" d="M946.169,328.665l-.039-.01a1.044,1.044,0,0,1-.64-.65,2.288,2.288,0,0,1-.125-.695,4.078,4.078,0,0,1,0-.691c.019-.237.045-.333.109-.407a.5.5,0,0,1,.27-.155.185.185,0,0,1,.033-.091c.084-.121.225-.071.3-.045a.8.8,0,0,0,.14.04.41.41,0,0,0,.212-.022.909.909,0,0,1,.29-.045.974.974,0,0,1,.493.152,1.431,1.431,0,0,1,.557.852,2.49,2.49,0,0,1,.129.658.731.731,0,0,1-.053.406c-.073.143-.185.21-.464.35a4.369,4.369,0,0,1-.556.258,1.227,1.227,0,0,1-.658.1Z" transform="translate(-941.442 -325.888)" fill="#f2f2f2"/>
  </g>
  <path id="Path_16709" data-name="Path 16709" d="M0,417.516c0,.125.175.225.393.225H188.052c.218,0,.393-.1.393-.225s-.175-.225-.393-.225H.393C.175,417.29,0,417.391,0,417.516Z" transform="translate(0 -338.332)" fill="#ccc"/>
  <g id="Group_16224" data-name="Group 16224" transform="translate(77.897 0)">
    <g id="Group_16220" data-name="Group 16220" transform="translate(16.849 67.628)">
      <path id="Path_16710" data-name="Path 16710" d="M503.938,367.543h2.627l1.25-10.134h-3.878Z" transform="translate(-503.33 -357.41)" fill="#ffb6b6"/>
      <path id="Path_16711" data-name="Path 16711" d="M510.337,397.95h0a2.256,2.256,0,0,1,.125.743h0a.892.892,0,0,1-.892.892h-8.136a.608.608,0,0,1-.608-.608v-.339a2.6,2.6,0,0,1,.426-2.273s1.03.983,2.569-.556l.454-.822,3.285,2.4,1.821.224c.4.049.752-.008.956.338Z" transform="translate(-500.728 -387.876)" fill="#2f2e41"/>
    </g>
    <g id="Group_16221" data-name="Group 16221" transform="translate(5.045 67.628)">
      <path id="Path_16712" data-name="Path 16712" d="M441.556,367.543h2.627l1.25-10.134h-3.878Z" transform="translate(-440.948 -357.41)" fill="#ffb6b6"/>
      <path id="Path_16713" data-name="Path 16713" d="M447.955,397.95h0a2.256,2.256,0,0,1,.125.743h0a.892.892,0,0,1-.892.892h-8.136a.608.608,0,0,1-.608-.608v-.339a2.6,2.6,0,0,1,.426-2.273s1.03.983,2.569-.556l.454-.822,3.285,2.4,1.821.224c.4.049.752-.008.956.338Z" transform="translate(-438.346 -387.876)" fill="#2f2e41"/>
    </g>
    <path id="Path_16714" data-name="Path 16714" d="M478.945,44.563l.5,4.655-5.819-.5,1-4.323Z" transform="translate(-461.905 -35.996)" fill="#ffb6b6"/>
    <path id="Path_16715" data-name="Path 16715" d="M478.945,44.563l.5,4.655-5.819-.5,1-4.323Z" transform="translate(-461.905 -35.996)" opacity="0.1" style="isolation: isolate"/>
    <circle id="Ellipse_3766" data-name="Ellipse 3766" cx="3.824" cy="3.824" r="3.824" transform="translate(11.139 1.501)" fill="#ffb6b6"/>
    <path id="Path_16716" data-name="Path 16716" d="M448.067,58.348l6.4,3.741-2.1,10.141L453.8,85.863l-1,33.416-6.151-.665-.831-28.429L441,119.611h-5.973l.986-31.754,2.993-13.466-1.829-14.63,5.569-1.746Z" transform="translate(-430.611 -47.038)" fill="#2f2e41"/>
    <path id="Path_16717" data-name="Path 16717" d="M473.454,6.406s.333-1.164,1.081-1.081a.656.656,0,0,0,.748-.914,17.193,17.193,0,0,1-.5-2s.166-1.164-.831-1.33-1.33-.333-1.5-.665-2.66-.665-3.491-.166-1.5,1.456-2.078,1.725a1.173,1.173,0,0,0-.748,1.6c.333.831.815,2.457.815,2.457s.848-.3,1.014.2-.5-.166.333-1.5.831-2.66,2.161-2.161,2.826.333,2.66,1.33a6.588,6.588,0,0,0,.332,2.494Z" transform="translate(-455.748 0)" fill="#2f2e41"/>
    <path id="uuid-2f48dadd-bd50-474e-b6bc-efb589732da4-76" d="M517.018,170.1c-.8.847-1.012,1.947-.472,2.456s1.625.235,2.425-.613a2.917,2.917,0,0,0,.7-1.187l3.345-3.633-1.738-1.533-3.113,3.744A2.918,2.918,0,0,0,517.018,170.1Z" transform="translate(-496.462 -134.257)" fill="#ffb6b6"/>
    <path id="Path_16718" data-name="Path 16718" d="M524.893,79.1l5.633,9.6.835,4.382-5.425,6.885-2.3-2.921,2.712-3.964-4.382-7.72Z" transform="translate(-501.103 -64.135)" fill="#2f2e41"/>
    <g id="Group_16223" data-name="Group 16223" transform="translate(0 12.806)">
      <path id="uuid-f6ce86b9-37cf-4878-a476-c93c5a2c7b27-77" d="M437.256,158.677c.8.847,1.012,1.947.472,2.456s-1.625.235-2.425-.613a2.917,2.917,0,0,1-.7-1.187l-3.345-3.633L433,154.167l3.113,3.744A2.917,2.917,0,0,1,437.256,158.677Z" transform="translate(-427.555 -137.802)" fill="#ffb6b6"/>
      <path id="Path_16720" data-name="Path 16720" d="M418.15,67.681l-5.633,9.6-.835,4.382,5.425,6.885,2.3-2.921-2.712-3.964,4.382-7.72Z" transform="translate(-411.682 -67.681)" fill="#2f2e41"/>
    </g>
  </g>
  <ellipse id="Ellipse_3767" data-name="Ellipse 3767" cx="5.109" cy="4.447" rx="5.109" ry="4.447" transform="translate(9.208 49.677)" fill="#e6e6e6"/>
</svg>
