<svg xmlns="http://www.w3.org/2000/svg" width="187.127" height="98.9" viewBox="0 0 187.127 98.9">
  <g id="integrations" transform="translate(0 0)">
    <path id="Path_16292" data-name="Path 16292" d="M869.068,407.614l0-.875q.261-.417.515-.837c.11-.174.215-.349.323-.525q2.658-4.353,5.1-8.76t4.662-8.851a.366.366,0,0,1,.419-.211.1.1,0,0,1,.031.015c.078.041.11.134.044.269-.182.364-.365.729-.551,1.093q-2.256,4.46-4.738,8.881T869.7,406.6c-.037.061-.077.122-.114.184Z" transform="translate(-720.369 -350.893)" fill="#fff"/>
    <path id="Path_16293" data-name="Path 16293" d="M868.76,448.78l0-.541.512-.364,12.06-8.6q9.872-7.039,19.744-14.074a.35.35,0,0,1,.119-.061c.146-.04.231.067.216.2a.411.411,0,0,1-.182.286l-11.068,7.891-19.643,14-1.249.891C869.1,448.538,868.931,448.66,868.76,448.78Z" transform="translate(-720.125 -380.779)" fill="#fff"/>
    <path id="Path_16294" data-name="Path 16294" d="M871.645,558.9c-.912-.028-1.809-.088-2.7-.167l-.51-.046,0-.568c.17.017.34.035.51.05,1.284.12,2.583.205,3.917.217a54.635,54.635,0,0,0,11.014-1.076,68.586,68.586,0,0,0,11.443-3.332,78.6,78.6,0,0,0,11.321-5.451.3.3,0,0,1,.2-.05c.162.023.21.239.055.4a.476.476,0,0,1-.1.081q-.675.393-1.355.771a78.514,78.514,0,0,1-11.361,5.217,68.253,68.253,0,0,1-11.46,3.106A53.919,53.919,0,0,1,871.645,558.9Z" transform="translate(-719.868 -478.85)" fill="#fff"/>
    <path id="Path_16295" data-name="Path 16295" d="M372.544,208.674H248.164a1.788,1.788,0,0,0-1.787,1.787v84.284a1.788,1.788,0,0,0,1.787,1.787H372.544a1.785,1.785,0,0,0,1.359-.627.416.416,0,0,0,.039-.049,1.672,1.672,0,0,0,.256-.432,1.744,1.744,0,0,0,.135-.678V210.461A1.789,1.789,0,0,0,372.544,208.674Zm1.279,86.071a1.266,1.266,0,0,1-.211.7,1.321,1.321,0,0,1-.484.434,1.267,1.267,0,0,1-.584.141H248.164a1.278,1.278,0,0,1-1.277-1.277V210.461a1.278,1.278,0,0,1,1.277-1.277H372.544a1.279,1.279,0,0,1,1.279,1.277Z" transform="translate(-225.274 -208.674)" fill="#3f3d56"/>
    <rect id="Rectangle_4730" data-name="Rectangle 4730" width="127.446" height="0.511" transform="translate(21.357 7.161)" fill="#3f3d56"/>
    <circle id="Ellipse_3706" data-name="Ellipse 3706" cx="1.532" cy="1.532" r="1.532" transform="translate(24.167 2.299)" fill="#3f3d56"/>
    <circle id="Ellipse_3707" data-name="Ellipse 3707" cx="1.532" cy="1.532" r="1.532" transform="translate(28.572 2.299)" fill="#3f3d56"/>
    <circle id="Ellipse_3708" data-name="Ellipse 3708" cx="1.532" cy="1.532" r="1.532" transform="translate(32.978 2.299)" fill="#3f3d56"/>
    <path id="Path_16296" data-name="Path 16296" d="M456.292,280.654H392.36a2.664,2.664,0,0,1,0-5.328h63.932a2.664,2.664,0,0,1,0,5.328Zm-63.932-4.918a2.254,2.254,0,1,0,0,4.508h63.932a2.254,2.254,0,1,0,0-4.508Z" transform="translate(-339.226 -261.668)" fill="#3f3d56"/>
    <path id="Path_16297" data-name="Path 16297" d="M376.679,368.1h-5.737a1.639,1.639,0,0,1,0-3.279h5.737a1.639,1.639,0,0,1,0,3.279Z" transform="translate(-323.011 -332.829)" fill="#ccc"/>
    <path id="Path_16298" data-name="Path 16298" d="M383.441,395.1h-12.5a1.639,1.639,0,1,1,0-3.279h12.5a1.639,1.639,0,0,1,0,3.279Z" transform="translate(-323.011 -354.296)" fill="#ccc"/>
    <path id="Path_16299" data-name="Path 16299" d="M381.679,486.1h-5.737a1.639,1.639,0,0,1,0-3.279h5.737a1.639,1.639,0,1,1,0,3.279Z" transform="translate(-326.987 -426.649)" fill="#ccc"/>
    <path id="Path_16300" data-name="Path 16300" d="M388.441,513.1h-12.5a1.639,1.639,0,0,1,0-3.279h12.5a1.639,1.639,0,0,1,0,3.279Z" transform="translate(-326.987 -448.117)" fill="#ccc"/>
    <path id="Path_16301" data-name="Path 16301" d="M565.679,483.1h-5.737a1.639,1.639,0,0,1,0-3.279h5.737a1.639,1.639,0,1,1,0,3.279Z" transform="translate(-473.283 -424.264)" fill="#ccc"/>
    <path id="Path_16302" data-name="Path 16302" d="M572.441,510.1h-12.5a1.639,1.639,0,0,1,0-3.279h12.5a1.639,1.639,0,0,1,0,3.279Z" transform="translate(-473.283 -445.732)" fill="#ccc"/>
    <path id="Path_16303" data-name="Path 16303" d="M562.679,373.1h-5.737a1.639,1.639,0,1,1,0-3.279h5.737a1.639,1.639,0,1,1,0,3.279Z" transform="translate(-470.898 -336.804)" fill="#ccc"/>
    <path id="Path_16304" data-name="Path 16304" d="M569.441,400.1h-12.5a1.639,1.639,0,1,1,0-3.279h12.5a1.639,1.639,0,1,1,0,3.279Z" transform="translate(-470.898 -358.272)" fill="#ccc"/>
    <path id="Path_16305" data-name="Path 16305" d="M749.679,367.1h-5.738a1.639,1.639,0,1,1,0-3.279h5.738a1.639,1.639,0,0,1,0,3.279Z" transform="translate(-619.579 -332.034)" fill="#ccc"/>
    <path id="Path_16306" data-name="Path 16306" d="M756.441,394.1h-12.5a1.639,1.639,0,0,1,0-3.279h12.5a1.639,1.639,0,0,1,0,3.279Z" transform="translate(-619.579 -353.501)" fill="#ccc"/>
    <circle id="Ellipse_3709" data-name="Ellipse 3709" cx="6.147" cy="6.147" r="6.147" transform="translate(31.66 30.255)" fill="#131f51"/>
    <path id="Path_16307" data-name="Path 16307" d="M317.253,378.359h-5.737a.615.615,0,0,1-.615-.615v-4.3a.615.615,0,0,1,.615-.615h1.615a.611.611,0,0,1,.524.292l.45.732h3.148a.615.615,0,0,1,.615.615v3.279A.615.615,0,0,1,317.253,378.359Zm-5.737-5.123a.205.205,0,0,0-.2.2v4.3a.205.205,0,0,0,.2.2h5.737a.205.205,0,0,0,.2-.2v-3.279a.205.205,0,0,0-.2-.2h-3.377l-.57-.927a.2.2,0,0,0-.175-.1Z" transform="translate(-276.577 -339.19)" fill="#fff"/>
    <circle id="Ellipse_3710" data-name="Ellipse 3710" cx="6.147" cy="6.147" r="6.147" transform="translate(69.364 31.28)" fill="#131f51"/>
    <path id="Path_16308" data-name="Path 16308" d="M501.843,380.113h-5.328a.615.615,0,0,1-.615-.615v-6.557a.615.615,0,0,1,.615-.615h3.86a.616.616,0,0,1,.385.136l1.467,1.179a.611.611,0,0,1,.23.479V379.5A.615.615,0,0,1,501.843,380.113Zm-5.328-7.377a.205.205,0,0,0-.2.2V379.5a.205.205,0,0,0,.2.2h5.328a.205.205,0,0,0,.2-.2V374.12a.2.2,0,0,0-.077-.16l-1.467-1.179a.205.205,0,0,0-.128-.045Z" transform="translate(-423.668 -338.792)" fill="#fff"/>
    <path id="Path_16309" data-name="Path 16309" d="M506.384,384.736h-3.279a.2.2,0,1,1,0-.41h3.279a.2.2,0,0,1,0,.41Z" transform="translate(-429.234 -348.333)" fill="#fff"/>
    <path id="Path_16310" data-name="Path 16310" d="M506.384,390.736h-3.279a.2.2,0,1,1,0-.41h3.279a.2.2,0,0,1,0,.41Z" transform="translate(-429.234 -353.104)" fill="#fff"/>
    <path id="Path_16311" data-name="Path 16311" d="M506.384,396.736h-3.279a.2.2,0,1,1,0-.41h3.279a.2.2,0,0,1,0,.41Z" transform="translate(-429.234 -357.874)" fill="#fff"/>
    <circle id="Ellipse_3711" data-name="Ellipse 3711" cx="6.147" cy="6.147" r="6.147" transform="translate(107.272 30.051)" fill="#131f51"/>
    <path id="Path_16312" data-name="Path 16312" d="M686.253,378.834h-5.737a.615.615,0,0,1-.615-.615v-3.279a.615.615,0,0,1,.615-.615h5.737a.615.615,0,0,1,.615.615v3.279A.615.615,0,0,1,686.253,378.834Zm-5.737-4.1a.205.205,0,0,0-.2.2v3.279a.205.205,0,0,0,.2.2h5.737a.205.205,0,0,0,.2-.2v-3.279a.205.205,0,0,0-.2-.2Z" transform="translate(-569.964 -340.382)" fill="#fff"/>
    <path id="Path_16313" data-name="Path 16313" d="M683.383,378.711a.615.615,0,0,1-.326-.093L680,376.7a.2.2,0,1,1,.217-.348l3.061,1.913a.206.206,0,0,0,.217,0l3.061-1.913a.2.2,0,0,1,.217.348l-3.061,1.913A.616.616,0,0,1,683.383,378.711Z" transform="translate(-569.964 -341.972)" fill="#fff"/>
    <circle id="Ellipse_3712" data-name="Ellipse 3712" cx="6.147" cy="6.147" r="6.147" transform="translate(31.66 54.435)" fill="#131f51"/>
    <path id="Path_16314" data-name="Path 16314" d="M317.253,497.834h-5.737a.615.615,0,0,1-.615-.615v-3.279a.615.615,0,0,1,.615-.615h5.737a.615.615,0,0,1,.615.615v3.279A.615.615,0,0,1,317.253,497.834Zm-5.737-4.1a.205.205,0,0,0-.2.2v3.279a.205.205,0,0,0,.2.2h5.737a.205.205,0,0,0,.2-.2v-3.279a.205.205,0,0,0-.2-.2Z" transform="translate(-276.577 -434.998)" fill="#fff"/>
    <path id="Path_16315" data-name="Path 16315" d="M319.872,503.8h-4.124a.41.41,0,0,1-.355-.615l1.242-2.152a.41.41,0,0,1,.71,0l.8,1.39.465-.805a.41.41,0,0,1,.71,0l.9,1.567a.41.41,0,0,1-.355.615Zm0-.41h0l-.9-1.567-.642,1.112a.2.2,0,0,1-.177.1h0a.2.2,0,0,1-.177-.1l-.98-1.7-1.242,2.152Z" transform="translate(-280.105 -440.961)" fill="#fff"/>
    <circle id="Ellipse_3713" data-name="Ellipse 3713" cx="0.41" cy="0.41" r="0.41" transform="translate(39.652 59.148)" fill="#fff"/>
    <circle id="Ellipse_3714" data-name="Ellipse 3714" cx="6.147" cy="6.147" r="6.147" transform="translate(69.774 53.82)" fill="#131f51"/>
    <path id="Path_16316" data-name="Path 16316" d="M506.745,487.515a1.844,1.844,0,1,1,1.844-1.844,1.844,1.844,0,0,1-1.844,1.844Zm0-3.279a1.434,1.434,0,1,0,1.434,1.434A1.434,1.434,0,0,0,506.745,484.236Z" transform="translate(-430.824 -427.445)" fill="#fff"/>
    <path id="Path_16317" data-name="Path 16317" d="M506.4,506.9h-3.279a.718.718,0,0,1-.717-.717,2.356,2.356,0,0,1,4.713,0A.718.718,0,0,1,506.4,506.9Zm-1.639-2.664a1.949,1.949,0,0,0-1.947,1.947.308.308,0,0,0,.307.307H506.4a.308.308,0,0,0,.307-.307A1.949,1.949,0,0,0,504.757,504.236Z" transform="translate(-428.836 -443.346)" fill="#fff"/>
    <path id="Path_16318" data-name="Path 16318" d="M80.935,433.6h2.512l1.2-9.69H80.935Z" transform="translate(-64.351 -337.046)" fill="#ffb8b8"/>
    <path id="Path_16319" data-name="Path 16319" d="M0,0H7.9V3.05H3.05A3.05,3.05,0,0,1,0,0Z" transform="translate(23.941 98.886) rotate(179.997)" fill="#2f2e41"/>
    <path id="Path_16320" data-name="Path 16320" d="M34.935,433.6h2.512l1.2-9.69H34.935Z" transform="translate(-27.776 -337.046)" fill="#ffb8b8"/>
    <path id="Path_16321" data-name="Path 16321" d="M0,0H7.9V3.05H3.05A3.05,3.05,0,0,1,0,0Z" transform="translate(14.516 98.886) rotate(179.997)" fill="#2f2e41"/>
    <path id="Path_16322" data-name="Path 16322" d="M166.547,434.956a2.2,2.2,0,0,0,.423-3.349l1.654-23.474-4.765.462-.131,22.988a2.213,2.213,0,0,0,2.819,3.373Z" transform="translate(-159.081 -367.262)" fill="#ffb8b8"/>
    <path id="Path_16323" data-name="Path 16323" d="M184.146,539.813a.926.926,0,0,1-.916-.813l-1.46-12.213a.717.717,0,0,0-1.421-.026l-1.839,11.694a.918.918,0,0,1-.911.779h-2.981a.922.922,0,0,1-.922-.929l1.423-25.928a.917.917,0,0,1,.79-.906l11.064-1.606a.922.922,0,0,1,1.055.919l-.193,27.982a.922.922,0,0,1-.878.914l-2.766.132Z" transform="translate(-167.486 -448.14)" fill="#2f2e41"/>
    <path id="Path_16324" data-name="Path 16324" d="M172.689,412.76a9.236,9.236,0,0,1-3.12-.555.915.915,0,0,1-.6-.821c-.1-2.118-.654-13.021-2.28-19.671a6.8,6.8,0,0,1,2.589-7.084q.131-.094.267-.185a6.62,6.62,0,0,1,6.433-.5,6.807,6.807,0,0,1,3.968,5.319L182.6,408.94a.918.918,0,0,1-.191.7.905.905,0,0,1-.626.343,13.92,13.92,0,0,0-5.262,1.8A7.811,7.811,0,0,1,172.689,412.76Z" transform="translate(-161.765 -347.544)" fill="#3f3d56"/>
    <path id="Path_16325" data-name="Path 16325" d="M161.316,409.113l-4.363-1.183a.923.923,0,0,1-.649-1.131l1.534-5.657a2.541,2.541,0,0,1,4.989.8l-.349,6.327a.922.922,0,0,1-1.162.839Z" transform="translate(-153.634 -360.212)" fill="#3f3d56"/>
    <circle id="Ellipse_3715" data-name="Ellipse 3715" cx="5.033" cy="5.033" r="5.033" transform="translate(7.506 23.657)" fill="#ffb8b8"/>
    <path id="Path_16326" data-name="Path 16326" d="M242.093,390.5a2.165,2.165,0,0,0-.049.336l-8.8,5.078-2.14-1.232-2.281,2.986,4.577,3.262,10.042-7.922a2.151,2.151,0,1,0-1.347-2.508Z" transform="translate(-211.316 -351.922)" fill="#ffb8b8"/>
    <path id="Path_16327" data-name="Path 16327" d="M213.2,398.75l-3.792,2.461a.923.923,0,0,1-1.275-.271l-3.19-4.916a2.541,2.541,0,0,1,3.928-3.179l4.48,4.481a.922.922,0,0,1-.15,1.425Z" transform="translate(-192.007 -354.513)" fill="#3f3d56"/>
    <path id="Path_16328" data-name="Path 16328" d="M177.877,324.5a1.626,1.626,0,0,0,2.8-.9,1.648,1.648,0,0,0,0-.319,7.391,7.391,0,0,1-.329-1.794.941.941,0,0,1,.172-.44c.748-1,2.5.448,3.211-.459.433-.556-.076-1.432.256-2.053.439-.82,1.737-.416,2.552-.865.906-.5.852-1.89.255-2.736a4.3,4.3,0,0,0-3.263-1.661,8.753,8.753,0,0,0-3.687.72,7.368,7.368,0,0,0-3.484,2.415,5.9,5.9,0,0,0-.6,5.021A9.464,9.464,0,0,0,177.877,324.5Z" transform="translate(-168.899 -291.824)" fill="#2f2e41"/>
    <path id="Path_16329" data-name="Path 16329" d="M172.285,689.736H143.6a.2.2,0,1,1,0-.41h28.688a.2.2,0,1,1,0,.41Z" transform="translate(-143.393 -590.835)" fill="#3f3d56"/>
  </g>
</svg>
