<svg width="70" height="70" viewBox="0 0 70 70" fill="none" xmlns="http://www.w3.org/2000/svg">
<g filter="url(#filter0_d_201_7748)">
<circle cx="35" cy="31" r="20" fill="white"/>
</g>
<path d="M41.6211 38H27.6211V27H41.6211M38.6211 20V22H30.6211V20H28.6211V22H27.6211C26.5111 22 25.6211 22.89 25.6211 24V38C25.6211 38.5304 25.8318 39.0391 26.2069 39.4142C26.582 39.7893 27.0907 40 27.6211 40H41.6211C42.1515 40 42.6602 39.7893 43.0353 39.4142C43.4104 39.0391 43.6211 38.5304 43.6211 38V24C43.6211 23.4696 43.4104 22.9609 43.0353 22.5858C42.6602 22.2107 42.1515 22 41.6211 22H40.6211V20M39.6211 31H34.6211V36H39.6211V31Z" fill="#1F2551"/>
<defs>
<filter id="filter0_d_201_7748" x="0" y="0" width="70" height="70" filterUnits="userSpaceOnUse" color-interpolation-filters="sRGB">
<feFlood flood-opacity="0" result="BackgroundImageFix"/>
<feColorMatrix in="SourceAlpha" type="matrix" values="0 0 0 0 0 0 0 0 0 0 0 0 0 0 0 0 0 0 127 0" result="hardAlpha"/>
<feMorphology radius="1" operator="erode" in="SourceAlpha" result="effect1_dropShadow_201_7748"/>
<feOffset dy="4"/>
<feGaussianBlur stdDeviation="8"/>
<feComposite in2="hardAlpha" operator="out"/>
<feColorMatrix type="matrix" values="0 0 0 0 0 0 0 0 0 0 0 0 0 0 0 0 0 0 0.1 0"/>
<feBlend mode="normal" in2="BackgroundImageFix" result="effect1_dropShadow_201_7748"/>
<feBlend mode="normal" in="SourceGraphic" in2="effect1_dropShadow_201_7748" result="shape"/>
</filter>
</defs>
</svg>
